<?xml version="1.0" standalone="no"?> <!DOCTYPE svg PUBLIC "-//W3C//DTD SVG 1.0//EN" "http://www.w3.org/TR/2001/REC-SVG-20010904/DTD/svg10.dtd" > <svg xmlns="http://www.w3.org/2000/svg" width="100%" height="100%">
<defs >
<font horiz-adv-x="512" ><font-face
    font-family=""
    units-per-em="1000"
    panose-1="2 0 0 0 0 0 0 0 0 0"
    ascent="787"
    descent="-213"
    alphabetic="0" />
<missing-glyph horiz-adv-x="192" />
<glyph unicode=" " glyph-name="space" horiz-adv-x="183" />
<glyph unicode="!" glyph-name="exclam" horiz-adv-x="248" d="M194 53Q194 25 175 5T125 -16Q94 -16 75 4T56 53Q56 81 75 101T125 122Q155 122 174 102T194 53ZM124 670Q165 670 188 649T212 586Q212 550 199 504T171 389Q155 310 146 259T132 181H115Q110 207
101 258T76 388Q61 456 48 503T35 586Q35 627 59 648T124 670Z" />
<glyph unicode="&quot;" glyph-name="quotedbl" horiz-adv-x="352" d="M191 612Q191 670 248 670Q303 670 303 612Q303 595 297 567T283 512Q275 485 268 457T254 407H241Q234 429 227 457T212 512Q205 539 198 567T191 612ZM105 670Q161 670 161 612Q161 595
155 567T140 512Q132 485 125 457T112 407H98Q92 429 85 457T70 512Q62 539 56 567T49 612Q49 670 105 670Z" />
<glyph unicode="#" glyph-name="numbersign" horiz-adv-x="608" d="M415 430H231L197 231H380L415 430ZM157 0H133L169 205H18V231H173L207 430H56V456H212L247 656H271L236 456H419L454 656H478L443 456H591V430H439L405 231H552V205H400L365 0H340L376 205H193L157 0Z" />
<glyph unicode="$" glyph-name="dollar" horiz-adv-x="508" d="M479 187Q479 141 463 105T419 42T350 1T263 -16V-112H240V-16Q194 -15 156 -4T91 26T49 70T34 124Q34 159 53 177T95 195Q133 195 149 173T166 115Q166 110 165 98T163 81Q163 42 186 26T240 7V247Q225
255 209 263T177 282Q147 299 123 317T81 358T55 410T46 478Q46 519 61 553T103 611T165 650T242 666V754H265V666Q311 664 348 654T411 625T451 583T465 531Q465 496 446 480T405 463Q370 463 354 484T338 540Q338 545 339 555T340 571Q340 610 318 626T265 644V428Q279
420 293 413T321 397Q359 374 388 355T438 313T468 261T479 187ZM242 644Q201 642 179 616T157 556Q157 512 182 487T242 442V644ZM362 107Q362 149 339 178T263 235V7Q312 11 337 38T362 107Z" />
<glyph unicode="%" glyph-name="percent" horiz-adv-x="724" d="M550 307Q524 307 514 272T503 156Q503 75 513 40T550 4Q563 4 572 11T587 35T594 82T597 156Q597 200 595 229T587 275T572 300T550 307ZM704 156Q704 117 692 85T658 31T608 -3T550 -15Q520 -15
492 -3T443 31T409 84T396 156Q396 195 408 226T442 280T492 314T550 326Q580 326 608 314T657 280T691 227T704 156ZM520 669L541 659L208 -15L187 -6L520 669ZM329 496Q329 457 317 425T283 371T233 337T175 325Q145 325 117 337T68 371T34 424T21 496Q21 536
33 567T67 621T117 654T175 666Q205 666 233 654T282 620T316 567T329 496ZM175 648Q149 648 139 613T129 496Q129 415 139 380T175 344Q188 344 197 351T212 375T219 422T222 496Q222 541 220 570T212 616T198 641T175 648Z" />
<glyph unicode="&amp;" glyph-name="ampersand" horiz-adv-x="692" d="M521 -14Q492 -14 470 -8T428 15Q406 23 391 40Q362 16 324 1T233 -14Q184 -14 146 -1T80 36T39 91T24 159Q24 195 38 223T74 276T125 319T183 354Q165 376 150 399Q133 426 123 456T113 515Q113
550 128 578T168 627T226 659T294 670Q373 670 407 641T442 566Q442 542 433 521T408 482T375 449T340 422Q357 402 373 382T404 341Q424 314 446 276T489 200Q499 223 506 246T520 292Q525 309 526 326T528 362Q528 379 523 390T502 412Q493 418 482 420T459 423V434H668V423L646
419Q635 417 624 410Q601 396 584 371Q578 362 570 344T549 288Q542 268 532 236T506 170Q517 148 527 130T546 97Q563 71 583 59T622 46Q639 46 657 53T683 69L690 60Q683 47 668 34T631 11T581 -7T521 -14ZM208 321Q189 297 181 268T172 190Q172 152 183 124T212
76T255 46T306 36Q326 36 342 43T372 61Q360 77 348 100Q328 138 303 180T255 256Q247 267 235 284T208 321ZM325 441Q351 464 366 492T381 567Q381 605 363 626T313 648Q288 648 268 632T248 580Q248 548 270 515T325 441Z" />
<glyph unicode="&apos;" glyph-name="quotesingle" horiz-adv-x="205" d="M103 670Q159 670 159 612Q159 595 153 567T138 512Q130 485 123 457T109 407H95Q89 429 82 457T67 512Q59 539 53 567T46 612Q46 670 103 670Z" />
<glyph unicode="(" glyph-name="parenleft" horiz-adv-x="285" d="M265 -104Q226 -78 187 -43T116 40T64 149T44 287Q44 365 64 426T115 535T186 618T265 680L286 678Q231 613 193 516T155 287Q155 156 193 59T286 -102L265 -104Z" />
<glyph unicode=")" glyph-name="parenright" horiz-adv-x="285" d="M-1 -102Q26 -70 50 -30T92 59T120 165T130 288Q130 354 120 411T92 516T50 605T-1 678L19 680Q59 654 98 619T169 536T220 427T240 288Q240 210 221 149T170 41T99 -42T19 -104L-1 -102Z" />
<glyph unicode="*" glyph-name="asterisk" horiz-adv-x="404" d="M238 335Q238 321 229 311T203 301Q186 301 177 311T167 335Q167 345 171 360T180 394T190 433T197 473Q185 458 174 440T154 406T136 375T120 354Q110 343 97 343T72 356Q60 368 60 380T70 404Q77
411 91 419T122 437T157 458T190 481Q171 479 151 474T111 464T77 455T51 451Q37 451 28 460T18 486Q18 503 27 512T51 521Q61 521 76 517T111 508T150 498T189 491Q174 503 156 513T122 534T91 552T70 568Q60 578 60 591T72 616Q84 628 97 628T120 618Q128 610
136 596T154 566T174 531T197 498Q195 517 190 537T180 577T171 611T167 637Q167 651 176 660T203 670Q220 670 229 661T238 637Q238 627 234 612T225 577T215 538T207 498Q219 513 230 531T250 566T268 596T284 617Q294 628 307 628T333 616Q345 604 345 591T334
567Q327 560 313 552T283 534T248 514T215 491Q234 493 254 498T293 508T327 517T353 521Q367 521 376 512T386 486Q386 469 377 460T353 451Q343 451 328 454T293 463T254 474T214 481Q229 469 247 458T282 438T313 420T334 404Q344 394 344 381T333 356Q320 344
307 344T284 354Q277 361 269 375T251 405T230 440T207 473Q210 454 215 434T225 395T234 361T238 335Z" />
<glyph unicode="+" glyph-name="plus" horiz-adv-x="462" d="M246 247V73H216V247H42V276H216V451H246V276H420V247H246Z" />
<glyph unicode="," glyph-name="comma" horiz-adv-x="214" d="M181 43Q181 13 171 -14T141 -65T96 -106T37 -133L31 -117Q70 -103 93 -78T117 -32Q117 -16 106 -11Q77 -7 58 10T38 60Q38 89 58 108T105 127Q138 127 159 107T181 43Z" />
<glyph unicode="-" glyph-name="hyphen" horiz-adv-x="338" d="M62 221V295H277V221H62Z" />
<glyph unicode="." glyph-name="period" horiz-adv-x="210" d="M174 55Q174 26 155 6T105 -14Q74 -14 55 6T36 55Q36 84 55 104T105 125Q135 125 154 105T174 55Z" />
<glyph unicode="/" glyph-name="slash" horiz-adv-x="318" d="M-15 -101L-43 -88L331 688L359 674L-15 -101Z" />
<glyph unicode="0" glyph-name="zero" horiz-adv-x="628" d="M32 328Q32 407 54 470T114 578T204 646T314 670Q372 670 423 647T513 579T574 471T596 328Q596 249 574 186T514 78T425 10T314 -14Q255 -14 204 9T114 77T54 185T32 328ZM423 328Q423 414 417 474T398
573T364 630T314 648Q285 648 264 630T230 574T211 475T205 328Q205 242 211 182T230 83T264 26T314 8Q343 8 363 26T397 82T417 181T423 328Z" />
<glyph unicode="1" glyph-name="one" horiz-adv-x="365" d="M27 0V11Q36 12 47 13T64 17Q78 23 86 30T99 57Q103 71 103 91T104 133V562Q104 582 102 594Q100 610 95 616T82 628Q78 630 71 632T55 635T38 637T26 639V650Q35 650 52 651T90 653T132 656T172 659Q181
660 193 661T218 663T240 664T253 665Q261 665 261 657Q261 646 260 626T259 585V133Q259 112 259 92T264 57Q269 37 277 31T300 18Q306 15 317 14T336 11V0H27Z" />
<glyph unicode="2" glyph-name="two" horiz-adv-x="594" d="M504 0H28Q31 3 43 16T68 43T93 70T108 86Q141 122 184 171T266 276T332 392T359 513Q359 588 337 615T269 642Q247 642 223 631T179 598T146 540T133 455Q133 438 136 422T146 393T164 373T192 365Q223
365 241 383T271 429L285 424Q278 399 266 377T237 339T196 313T144 303Q90 303 58 338T26 433Q26 481 46 524T102 600T190 652T305 671Q363 671 405 658T474 622T514 566T527 494Q527 447 510 409T465 338T403 280T337 232Q326 224 309 213T272 188T230 160T188
133V128H396Q432 128 461 143T506 175Q523 193 536 212T557 249H570L504 0Z" />
<glyph unicode="3" glyph-name="three" horiz-adv-x="538" d="M222 -14Q172 -14 135 -2T73 31T36 77T23 127Q23 160 41 181T91 203Q126 203 144 183T163 131Q163 116 160 104T153 79Q152 70 152 59T153 40Q157 25 172 18T204 10Q234 10 259 25T303 68T332 134T342
220Q342 283 316 307T241 331Q228 331 212 326T182 313L148 294L138 310L199 347Q253 379 281 429T310 545Q310 600 292 621T228 643Q190 643 164 616T137 535Q137 500 153 479T194 458Q219 458 231 466T256 494L268 488Q254 451 225 425T148 398Q98 398 72 429T45
503Q45 540 63 571T110 624T179 658T260 670Q368 670 416 636T464 539Q464 507 449 481T407 432T341 392T258 361L259 358Q306 359 351 350T431 322T487 272T509 199Q509 154 491 115T436 48T346 3T222 -14Z" />
<glyph unicode="4" glyph-name="four" horiz-adv-x="564" d="M475 0H166V11Q174 12 185 13T202 17Q216 22 224 30T238 57Q242 71 242 91T243 133V218H4V238L298 657H396Q400 657 400 653Q400 642 399 621T398 579V238H424Q462 238 478 245T503 264Q514 278 523
300T535 346H545V110H535Q532 133 523 155T503 191Q494 203 478 210T424 218H398V91Q398 71 402 57Q407 38 415 31T439 17Q445 14 456 13T475 11V0ZM243 238V539H241L30 238H243Z" />
<glyph unicode="5" glyph-name="five" horiz-adv-x="492" d="M189 -14Q143 -14 107 -3T47 27T10 70T-3 122Q-3 158 17 179T68 200Q105 200 121 176T138 122Q138 114 136 107T130 90L124 74Q121 66 121 59Q120 49 122 42T127 28Q132 16 143 11T170 6Q199 6 222
22T262 66T288 134T297 219Q297 304 270 337T195 370Q160 370 137 349T102 296L78 300L160 656H172Q200 637 232 628T312 619Q346 619 371 625T413 642T439 665T454 689L466 687Q449 594 399 544T253 494Q224 494 198 497T147 507L111 350L113 349Q135 376 171
392T253 409Q307 409 347 395T414 356T454 295T467 218Q467 163 447 120T389 47T301 2T189 -14Z" />
<glyph unicode="6" glyph-name="six" horiz-adv-x="564" d="M541 556Q541 521 524 500T474 479Q440 479 422 498T404 546Q404 563 409 583Q411 592 415 603T419 623Q419 632 407 640T372 649Q338 649 309 627T258 566T223 478T208 371H212Q229 397 260 411T329
426Q422 426 473 369T524 207Q524 156 506 115T456 46T381 2T286 -14Q224 -14 177 8T98 69T49 160T32 271Q32 372 63 447T144 572T254 646T374 671Q422 671 454 661T505 633T533 596T541 556ZM284 396Q269 396 254 387T228 356T209 297T202 201Q202 141 208 104T225
45T252 16T285 8Q303 8 318 16T344 45T361 105T367 202Q367 261 360 299T342 358T315 388T284 396Z" />
<glyph unicode="7" glyph-name="seven" horiz-adv-x="475" d="M485 644Q432 564 395 494T332 357T290 227T264 96Q248 -14 168 -14Q130 -14 111 9T92 76Q92 100 100 124T122 172T152 216T183 255Q207 284 233 318T286 387T337 455T382 516V519H170Q152 519 131
517T92 506Q51 487 29 424H15L69 692H83Q89 678 102 667T147 656H485V644Z" />
<glyph unicode="8" glyph-name="eight" horiz-adv-x="552" d="M523 208Q523 160 506 120T458 49T380 3T277 -14Q225 -14 182 -4T106 26T56 78T38 152Q38 181 51 205T85 248T129 280T176 302Q152 315 130 332T92 370T66 419T56 481Q56 526 73 561T121 620T191 658T279
671Q334 671 374 660T440 631T479 587T492 532Q492 509 483 488T459 450T425 418T384 394Q412 380 437 364T482 325T512 274T523 208ZM357 406Q384 425 399 454T414 526Q414 587 380 618T280 650Q231 650 203 626T174 559Q174 533 185 514T216 478T266 447T330
418L357 406ZM121 155Q121 117 133 90T167 44T216 17T275 8Q304 8 330 14T375 33T405 65T416 110Q416 139 406 160T373 200T316 236T232 274Q224 278 217 281T201 289Q164 269 143 234T121 155Z" />
<glyph unicode="9" glyph-name="nine" horiz-adv-x="557" d="M272 264Q287 264 302 272T328 302T347 361T354 456Q354 515 348 552T331 611T305 640T272 648Q254 648 239 640T212 611T195 551T189 454Q189 395 196 358T214 300T241 272T272 264ZM26 106Q26 138
44 156T90 175Q123 175 141 156T160 108Q160 100 159 90T155 71Q152 61 148 51T144 32Q144 22 155 14T191 5Q225 5 253 28T302 91T334 181T348 289H344Q326 263 296 248T228 233Q134 233 83 288T32 449Q32 500 50 541T100 611T176 655T271 671Q332 671 379 649T458
589T507 500T524 389Q524 290 494 215T416 89T311 12T199 -14Q154 -14 122 -4T68 22T36 61T26 106Z" />
<glyph unicode=":" glyph-name="colon" horiz-adv-x="204" d="M170 378Q170 349 151 329T102 309Q73 309 54 329T34 378Q34 407 53 427T102 447Q131 447 150 427T170 378ZM170 55Q170 26 151 6T102 -14Q73 -14 54 6T34 55Q34 84 53 104T102 124Q131 124 150 104T170 55Z" />
<glyph unicode=";" glyph-name="semicolon" horiz-adv-x="211" d="M176 43Q176 13 166 -14T136 -65T91 -106T32 -133L26 -117Q65 -103 88 -78T112 -32Q112 -16 102 -11Q72 -7 53 10T33 60Q33 90 53 108T100 127Q134 127 155 106T176 43ZM174 378Q174 349 155 329T105
308Q75 308 56 328T36 378Q36 407 55 427T105 447Q135 447 154 427T174 378Z" />
<glyph unicode="&lt;" glyph-name="less" horiz-adv-x="384" d="M25 249V275L330 427V396L59 262L330 129V97L25 249Z" />
<glyph unicode="=" glyph-name="equal" horiz-adv-x="434" d="M46 327V354H388V327H46ZM46 163V190H388V163H46Z" />
<glyph unicode="&gt;" glyph-name="greater" horiz-adv-x="384" d="M54 97V129L325 262L54 396V427L359 275V249L54 97Z" />
<glyph unicode="?" glyph-name="question" horiz-adv-x="440" d="M183 55Q183 27 164 7T113 -13Q83 -13 64 7T45 55Q45 84 64 104T113 124Q143 124 163 104T183 55ZM423 468Q423 420 404 386T354 330T288 298T219 288Q189 288 164 294T123 312H121V196H99V331L113
344Q129 330 144 326T179 321Q202 321 218 336T244 378T258 444T263 531Q263 554 260 575T249 612T229 639T200 649Q183 649 177 634T165 587Q162 572 157 558T144 533T124 516T93 509Q67 509 51 526T34 570Q34 591 46 609T80 641T132 663T197 671Q267 671 319
645Q365 621 394 579T423 468Z" />
<glyph unicode="@" glyph-name="at" horiz-adv-x="771" d="M752 271Q752 215 732 164T676 73T595 10T497 -14Q468 -14 445 2T422 56Q422 67 424 79T429 104H425Q414 81 404 64T379 32Q356 9 333 -2T283 -14Q238 -14 211 16T184 112Q184 160 205 210T263 302T345
370T441 397Q471 397 484 383T500 348H506Q513 360 517 369T528 389H637Q625 352 611 306T577 203Q567 172 560 150T549 111T542 83T540 62Q540 35 560 35Q590 35 621 54T676 105T717 180T733 271Q733 331 713 379T656 462T564 514T441 533Q360 533 293 505T179
425T105 305T78 153Q78 75 101 17T166 -81T267 -140T399 -160Q445 -160 487 -153T566 -133T635 -107T690 -78L697 -93Q675 -107 643 -122T572 -149T488 -169T398 -177Q315 -177 246 -155T128 -90T51 14T23 152Q23 254 59 328T155 452T288 526T440 550Q517 550 575
529T673 471T732 383T752 271ZM484 324Q484 348 477 362T456 376Q441 376 425 364T389 316Q373 288 359 254T333 186T316 124T309 79Q309 55 317 45T336 35Q344 35 350 39T365 50Q371 56 377 63T389 78Q404 101 413 118T433 158Q440 175 446 189T457 216Q470 249
477 275T484 324Z" />
<glyph unicode="A" glyph-name="A" horiz-adv-x="628" d="M245 457H241L160 228H321L245 457ZM-16 12Q-5 14 5 16T26 25Q37 32 46 41T65 66Q75 80 84 101T104 152L289 662H347L500 211Q517 160 532 122T562 60Q573 43 584 34T608 20Q617 17 625 15T642 11V0H292V12Q301
13 312 15T330 21Q344 26 354 37T364 69Q364 89 358 109T344 156L329 205H152L133 148Q125 127 121 108T117 74Q117 52 126 39T149 21Q160 16 170 15T189 12V0H-16V12Z" />
<glyph unicode="B" glyph-name="B" horiz-adv-x="646" d="M18 11Q32 11 49 16Q66 21 77 31T96 65Q102 82 104 109T106 169V487Q106 522 104 549T96 593Q89 616 78 626T49 641Q42 643 34 644T18 647V657H361Q404 657 444 651T516 628T565 582T584 508Q584 453 557
422T479 374Q463 368 444 364T403 355V352Q450 349 489 337T558 303T603 252T619 184Q619 137 601 103T551 45T480 11T395 0H18V11ZM319 363Q353 363 374 371T410 397Q425 417 430 449T436 510Q436 579 410 607T335 635H309Q294 635 284 629T268 608Q263 594 263
564V363H319ZM353 23Q375 23 393 31T425 54Q442 74 448 106T455 184Q455 217 449 250T422 303Q404 322 378 330T321 339H263V148Q263 120 266 98T276 61Q284 41 300 32T340 23H353Z" />
<glyph unicode="C" glyph-name="C" horiz-adv-x="632" d="M368 648Q341 648 314 638T268 605Q253 589 241 566T219 509T205 432T200 329Q200 269 206 226T225 152T253 99T290 61Q328 31 396 31Q425 31 453 40T508 71T555 127T592 211L611 203Q600 156 577 116T520
47T446 2T358 -14Q293 -14 234 6T129 69T56 175T29 329Q29 418 58 482T134 589T241 651T363 671Q430 671 481 650T553 598H557L584 650H595V419H581Q568 471 550 513T506 586T446 632T368 648Z" />
<glyph unicode="D" glyph-name="D" horiz-adv-x="713" d="M368 657Q421 657 461 646T534 618Q601 580 642 508T684 329Q684 226 645 152T538 41Q507 24 467 12T382 0H18V11Q25 12 33 13T50 17Q67 22 78 32T96 65Q102 82 104 109T107 170V487Q107 521 105 548T96
592Q89 615 78 625T50 641Q42 643 34 644T18 646V657H368ZM357 23Q381 23 409 33T459 73Q472 91 483 114T502 167T514 238T519 329Q519 381 515 421T502 492T483 545T458 585Q436 614 408 624T352 634H320Q307 634 297 631T278 617Q267 606 266 586T264 547V147Q264
121 267 94T285 49Q294 36 310 30T343 23H357Z" />
<glyph unicode="E" glyph-name="E" horiz-adv-x="609" d="M561 0H18V11Q34 11 49 17Q66 22 77 32T96 65Q102 82 104 109T106 170V488Q106 522 104 549T96 593Q89 616 78 626T49 641Q41 643 33 644T18 646V657H542L566 446H553Q539 483 518 519T468 586Q448 607
421 620T357 634H332Q300 634 285 618Q270 604 266 581T262 534V352H297Q318 352 332 353T355 357T371 364T385 376Q404 395 417 425T434 481H446V201H434Q431 226 419 255T388 302Q375 314 357 321T297 329H262V149Q262 120 265 92T286 46Q297 34 313 29T350 23H368Q400
23 426 36T473 73Q505 108 530 153T570 239H582L561 0Z" />
<glyph unicode="F" glyph-name="F" horiz-adv-x="567" d="M354 0H19V11Q26 12 33 13T50 17Q67 22 78 32T97 65Q102 82 104 109T107 170V487Q107 556 96 592Q89 615 78 625T49 641Q41 643 33 644T18 646V657H536L559 432H547Q533 470 511 509T460 581Q441 601 415
617T351 634H334Q310 634 296 628T273 601Q267 587 265 568T263 526V361H281Q302 361 316 362T340 365T357 372T372 384Q390 403 403 434T418 489H430V209H418Q416 233 405 263T375 311Q362 323 343 330T281 337H263V170Q263 137 266 110T274 65Q282 43 293 33T321
17Q329 14 338 13T354 11V0Z" />
<glyph unicode="G" glyph-name="G" horiz-adv-x="672" d="M447 170Q447 202 444 221T433 254Q424 270 415 277T389 289Q374 293 359 295V306H668V295Q662 294 653 292T636 288Q623 283 613 275T595 250Q585 229 585 169V33Q571 28 548 20T491 4Q463 -2 423 -8T347
-14Q280 -14 222 9T121 77T54 185T29 329Q29 408 55 471T125 579T228 646T353 670Q390 670 421 662T476 643T516 619T540 596H544L568 641H580V406H569Q558 455 542 493T505 564Q479 602 445 623T359 645Q333 645 310 636T268 607Q252 591 239 568T217 512T203
434T198 329Q198 215 217 151T266 55Q284 29 308 20T355 11Q389 11 405 18T431 39Q440 53 443 75T447 118V170Z" />
<glyph unicode="H" glyph-name="H" horiz-adv-x="749" d="M345 0H18V11Q25 12 33 13T49 17Q66 21 77 31T96 65Q102 82 104 109T106 170V487Q106 522 104 549T96 593Q89 616 78 626T49 641Q33 645 18 647V657H345V647Q339 646 332 645T317 640Q301 634 291 625T273
593Q267 576 265 550T263 489V346H486V489Q486 523 484 549T476 593Q469 615 459 624T432 640Q425 643 418 644T404 647V657H731V647Q724 646 716 645T700 641Q683 636 672 626T653 593Q647 576 645 549T643 487V170Q643 136 645 109T653 65Q660 42 671 32T700
17Q708 14 716 13T731 11V0H404V11Q416 12 431 17Q448 23 458 32T476 65Q482 82 484 108T486 169V318H263V169Q263 134 265 108T273 65Q280 42 290 32T317 17Q325 14 332 13T345 11V0Z" />
<glyph unicode="I" glyph-name="I" horiz-adv-x="369" d="M264 170Q264 136 266 109T273 65Q281 42 292 32T320 17Q328 14 336 13L352 11V0H18V11Q25 12 33 13T49 17Q66 22 77 32T96 65Q102 82 104 109T106 170V488Q106 522 104 549T96 593Q88 616 77 626T49 641Q41
643 34 644T18 647V657H352V647Q344 645 336 644T320 641Q303 636 292 626T273 593Q268 576 266 549T264 488V170Z" />
<glyph unicode="J" glyph-name="J" horiz-adv-x="474" d="M222 487Q222 521 220 548T212 592Q205 615 194 625T165 641Q147 646 133 646V657H467V646Q453 646 435 641Q418 636 407 626T388 592Q383 575 381 548T378 487V219Q378 149 358 104T312 34Q283 8 245
-3T159 -14Q126 -14 93 -5T41 22Q21 40 9 63T-4 118Q-4 163 20 183T77 204Q112 204 131 185T151 135Q152 115 144 87Q139 72 135 61T130 44Q131 26 139 18T162 10Q180 10 191 17T210 42Q218 59 220 89T222 149V487Z" />
<glyph unicode="K" glyph-name="K" horiz-adv-x="683" d="M18 0V11Q25 12 33 13T49 17Q66 22 77 32T96 65Q102 82 104 109T106 170V487Q106 522 104 549T96 593Q89 616 78 625T49 641Q41 643 33 644T18 647V657H347V647Q333 646 318 641Q303 635 292 626T273 593Q267
576 265 549T263 487V319L429 505Q460 540 473 559T487 599Q487 616 480 625T462 639Q454 642 445 643T425 647V657H655V647Q639 644 619 637T582 618Q560 604 538 585T487 532L359 389V385Q418 380 455 365T518 325Q532 312 543 294T562 254T575 209T583 162Q587
129 593 107T605 70T619 46T635 31Q646 23 660 18T686 11V0H461Q448 14 436 49T418 135Q413 185 411 225T392 296Q376 333 332 333Q319 333 307 327T284 311Q281 308 274 300T263 289V170Q263 136 265 109T273 65Q280 42 291 32T318 17Q326 14 333 13T347 11V0H18Z"
/>
<glyph unicode="L" glyph-name="L" horiz-adv-x="596" d="M18 12Q35 12 52 17Q68 22 79 32T97 61Q105 85 107 125T110 214V444Q110 492 108 532T97 596Q91 615 79 625T51 641Q36 645 19 647V657H360V647Q352 645 344 644T328 641Q312 636 300 626T282 596Q274
573 271 533T268 444V173Q268 139 269 116T276 79Q284 52 299 41Q311 31 325 27T354 23H374Q408 23 430 36T471 71Q487 89 501 110T529 154T552 197T570 235H582L563 0H18V12Z" />
<glyph unicode="M" glyph-name="M" horiz-adv-x="828" d="M810 646L794 644Q786 643 778 641Q762 636 750 626T732 593Q726 576 724 549T721 488V170Q721 136 723 109T732 65Q738 42 750 32T778 16Q796 11 810 11V0H475V11Q487 11 507 16Q524 21 535 31T554 65Q559
82 561 109T564 170V553H559L383 -3H335L143 543H139V168Q139 121 144 97T158 56Q165 40 176 31T200 17Q208 15 215 14T234 11V0H18V11Q29 12 36 13T52 17Q65 21 76 30T94 55Q102 72 107 96T112 168V457Q112 505 109 540T98 595Q91 613 79 624T50 641Q42 643 35
643T20 646V657H281L424 237H428L564 657H810V646Z" />
<glyph unicode="N" glyph-name="N" horiz-adv-x="691" d="M538 -4L162 525H158V168Q158 121 162 97T175 56Q190 25 218 17Q226 15 234 14T253 11V0H35V11Q55 12 70 17Q98 25 113 55Q120 72 125 96T131 168V441Q131 494 125 529T109 585Q90 622 48 638Q41 641 33
643T16 646V657H272L560 238H563V488Q563 536 559 560T547 601Q539 617 528 626T503 639Q495 642 488 643T469 646V657H685V646Q674 645 667 644T651 639Q622 631 608 601Q601 584 597 560T592 488V-4H538Z" />
<glyph unicode="O" glyph-name="O" horiz-adv-x="696" d="M347 670Q418 670 477 646T578 578T643 470T666 328Q666 250 643 187T578 79T477 10T347 -14Q276 -14 218 10T117 79T52 187T29 328Q29 406 52 469T117 577T217 646T347 670ZM347 7Q365 7 383 10T417 27Q434
40 448 62T472 121T488 207T494 328Q494 398 489 448T473 535T448 593T417 630Q400 642 383 645T347 649Q330 649 313 646T279 630Q262 616 248 594T223 535T207 449T201 328Q201 258 206 208T222 122T247 63T279 27Q295 15 312 11T347 7Z" />
<glyph unicode="P" glyph-name="P" horiz-adv-x="619" d="M339 633Q331 633 317 632T295 627Q284 622 280 615T272 598Q270 588 269 577T268 544V322Q278 319 294 318T320 316Q364 316 384 326T418 360Q425 370 429 385T437 416T441 450T443 481Q443 555 419 594T339
633ZM365 0H18V11Q26 12 34 13T51 16Q84 27 97 62Q105 85 107 125T110 214V444Q110 492 108 532T97 596Q90 614 79 624T51 640Q43 643 35 644T18 646V657H362Q480 657 544 615T608 481Q608 433 586 393T528 332Q499 315 450 304T319 292Q310 292 295 293T268 296V214Q268
166 271 126T282 61Q288 42 299 32T328 16Q335 14 346 13T365 10V0Z" />
<glyph unicode="Q" glyph-name="Q" horiz-adv-x="696" d="M526 -298Q472 -298 429 -271T349 -205Q330 -185 311 -164T274 -126T239 -98T207 -87Q192 -87 182 -96T172 -117Q172 -127 179 -134L192 -147Q199 -155 203 -164T207 -188Q207 -211 191 -229T148 -247Q121
-247 104 -228T86 -180Q86 -149 103 -126T143 -87T188 -61T220 -47Q227 -44 238 -40T263 -32T290 -23T317 -14Q255 -9 203 17T112 88T51 192T29 327Q29 405 53 468T120 577T221 646T348 670Q417 670 475 646T576 577T643 469T668 327Q668 256 649 199T594 98T509
26T401 -12Q378 -17 352 -24T300 -40T255 -55T224 -67V-72Q243 -67 265 -64T300 -60Q348 -60 384 -72T457 -106Q502 -132 534 -150T598 -170Q632 -171 650 -151T680 -104L693 -108Q690 -140 681 -173T654 -234Q637 -260 605 -279T526 -298ZM202 327Q202 260 207
210T223 123T248 63T280 25Q295 13 313 9T348 5Q365 5 383 9T416 25Q434 39 448 62T473 122T489 209T495 327Q495 394 490 445T474 532T449 592T417 630Q403 641 386 645T348 649Q329 649 312 645T280 630Q263 616 249 593T224 533T208 445T202 327Z" />
<glyph unicode="R" glyph-name="R" horiz-adv-x="676" d="M308 634Q280 634 270 617Q265 609 264 596T262 566V340H308Q346 340 366 348T399 376Q412 397 417 429T422 493Q422 561 401 597T329 634H308ZM354 0H17V11Q25 12 32 13T48 16Q65 21 76 31T95 65Q101
82 102 108T104 167V490Q104 522 102 548T94 592Q87 615 76 625T48 640Q30 645 17 646V657H361Q410 657 453 648T528 619T578 568T597 491Q597 440 572 405T507 351Q490 343 470 336T420 327V323Q444 320 470 313T514 294Q537 278 557 251T585 176Q596 112 608
77T637 27Q645 20 659 16T684 11V0H465Q451 19 439 53T423 131Q418 182 412 220T386 284Q370 306 350 310T299 315H262V167Q262 135 264 109T273 65Q280 42 291 32T319 16Q327 14 337 13T354 11V0Z" />
<glyph unicode="S" glyph-name="S" horiz-adv-x="536" d="M453 446Q444 481 428 516T392 578Q371 609 342 628T267 648Q219 648 195 623T170 561Q170 528 181 507T210 470T254 444T307 421Q346 404 382 386T447 343T493 283T511 195Q511 143 492 104T439 39T361
-1T269 -14Q243 -14 217 -8T167 7T126 29T97 53H93L60 3H48L43 236H56Q68 194 88 153T135 80T196 28T271 8Q329 8 354 38T379 113Q379 136 373 154T350 189T307 221T240 253Q205 267 170 285T106 330T59 393T41 481Q41 523 59 558T108 618T179 656T265 670Q314
670 350 655T405 616H408L440 655H454L466 446H453Z" />
<glyph unicode="T" glyph-name="T" horiz-adv-x="617" d="M387 167Q387 135 389 109T397 66Q404 43 415 32T444 16Q452 14 459 13T474 11V0H143V11Q150 12 157 13T173 16Q189 21 201 32T220 66Q226 83 228 109T230 167V635H208Q177 635 153 621T100 571Q74 541
55 504T20 435H8L30 657H586L609 435H597Q581 467 562 503T518 569Q492 603 466 619T408 635H388L387 167Z" />
<glyph unicode="U" glyph-name="U" horiz-adv-x="673" d="M580 222Q580 179 573 142T549 75Q540 58 524 43T483 15T425 -5T350 -13Q310 -13 275 -8T209 10T156 44T118 98Q112 110 107 129T99 168T95 209T93 246V490Q93 523 91 549T83 592Q76 615 64 625T36 641Q19
646 6 646V657H338V646Q331 645 324 644T307 641Q291 636 280 626T260 592Q255 575 253 549T251 490V202Q251 176 254 152T266 107Q283 63 315 45T394 26Q442 26 477 45T529 100Q540 123 545 153T550 218V490Q550 514 549 531T545 561T540 584T533 602Q526 617
515 626T490 640Q475 645 455 646V657H674V646Q663 645 656 644T640 640Q627 636 616 627T597 602Q589 585 585 562T580 490V222Z" />
<glyph unicode="V" glyph-name="V" horiz-adv-x="624" d="M379 200H383L488 506Q495 526 500 546T505 585Q505 605 497 618T474 637Q465 641 454 643T432 646V657H636V646Q610 643 591 632Q582 627 573 618T556 595Q548 581 539 559T518 505L342 -4H272L123 465Q106
522 94 551T69 601Q58 617 46 625T19 639Q11 642 2 643T-16 646V657H346V646Q337 645 325 643T306 637Q292 632 282 620T271 586Q271 567 276 548T289 502L379 200Z" />
<glyph unicode="W" glyph-name="W" horiz-adv-x="962" d="M483 483L324 -4H255L111 489Q101 523 92 547T73 588T50 616T20 636Q12 640 1 642T-19 646V657H328V646Q305 642 286 630T267 587Q267 568 271 549T284 502L361 214H366L468 533Q457 565 447 585T424 616Q411
630 396 636T364 646V657H710V646Q697 644 684 641T661 631T644 614T637 587Q637 568 641 548T654 502L731 214H736L827 506Q835 529 839 550T844 586Q844 603 838 614T822 632T799 642T771 646V657H976V646Q951 641 932 633T896 596Q888 582 879 561T859 505L694
-4H625L483 483Z" />
<glyph unicode="X" glyph-name="X" horiz-adv-x="656" d="M14 11Q22 12 32 14T53 22Q67 30 76 37T94 54Q105 65 125 93T166 152L255 291L135 519Q120 546 107 567T78 605T44 631T-1 646V657H361V646Q326 644 310 632T294 594Q294 577 302 557T323 514L382 405L445
509Q461 535 470 556T480 596Q480 624 461 634T413 647V657H628V647Q604 643 585 632T549 603T514 560L476 505L396 379L521 144Q552 88 582 55T659 11V0H299V11Q334 14 350 26T366 61Q366 78 357 99T334 146L269 265L197 149Q180 123 171 102T162 61Q162 29 191
18Q198 15 209 14T229 11V0H14V11Z" />
<glyph unicode="Y" glyph-name="Y" horiz-adv-x="648" d="M113 544Q88 593 64 616T1 646V657H338V646Q330 645 320 644T301 639Q273 628 273 600T292 530L389 325H394L481 507Q496 538 503 559T511 598Q511 615 504 624T482 639Q474 642 464 643T445 646V657H651V646Q628
642 610 633T575 608T544 566T511 506L407 287V170Q407 136 409 109T417 65Q424 42 435 32T463 17Q472 14 480 13T495 11V0H161V11Q168 12 176 13T193 17Q209 22 221 32T240 65Q245 82 247 109T249 170V269L113 544Z" />
<glyph unicode="Z" glyph-name="Z" horiz-adv-x="594" d="M570 646L222 28H282Q346 28 383 41T451 81Q473 101 489 119T519 156T543 191T566 228H579L537 0H26V12L391 628H315Q263 628 224 615T161 584Q135 565 107 528T55 452H42L76 657H570V646Z" />
<glyph unicode="[" glyph-name="bracketleft" horiz-adv-x="375" d="M94 -86Q109 -66 128 -46T168 -11T214 14T262 23Q318 23 343 -4T369 -80Q369 -93 365 -105T354 -127T342 -144T331 -154H317Q321 -146 323 -139T325 -124Q325 -98 308 -86T260 -73Q209 -73 158
-85T63 -117V669Q106 649 157 637T260 625Q290 625 307 638T325 677Q325 685 323 691T317 707H331Q335 704 341 697T354 680T364 658T369 633Q369 584 344 557T262 529Q238 529 214 538T169 562T128 597T94 638V-86Z" />
<glyph unicode="\" glyph-name="backslash" horiz-adv-x="309" d="M-15 688L359 -87L331 -101L-43 675L-15 688Z" />
<glyph unicode="]" glyph-name="bracketright" horiz-adv-x="375" d="M280 638Q266 617 247 598T206 563T161 538T113 529Q57 529 32 556T6 633Q6 646 10 658T20 679T32 696T44 707H57Q50 690 50 677Q50 651 67 638T115 625Q166 625 217 637T311 669V-117Q268
-98 217 -86T115 -73Q85 -73 68 -86T50 -124Q50 -139 57 -154H44Q39 -151 33 -144T20 -127T10 -105T6 -80Q6 -31 31 -4T113 23Q137 23 160 14T206 -10T246 -46T280 -86V638Z" />
<glyph unicode="^" glyph-name="asciicircum" horiz-adv-x="357" d="M167 657H190L322 407H290L178 622L67 407H35L167 657Z" />
<glyph unicode="_" glyph-name="underscore" horiz-adv-x="299" d="M-5 -165V-133H304V-165H-5Z" />
<glyph unicode="`" glyph-name="grave" horiz-adv-x="316" d="M253 487Q197 514 158 531T92 563Q71 574 58 589T44 627Q44 651 59 664T96 677Q116 677 131 665T165 628Q174 615 184 602T205 573T229 538T260 495L253 487Z" />
<glyph unicode="a" glyph-name="a" horiz-adv-x="460" d="M351 -9Q323 -9 307 -4T279 11Q271 17 266 29T260 60H257Q246 24 215 8T139 -9Q117 -9 96 -3T59 17T32 52T22 104Q22 130 29 146T50 176Q69 196 100 206T158 224Q215 240 234 258T255 300V316Q255 327
255 337T256 357V372Q256 406 246 417T208 429Q189 429 181 423T169 411Q165 403 165 387T162 351Q159 295 103 295Q77 295 62 308T46 347Q46 360 50 371T62 392Q81 416 123 431T214 447Q297 447 345 420T394 327V288Q394 260 394 226T393 158V106Q393 71 395 56T403
32Q412 22 429 22Q444 22 455 28L458 18Q450 10 422 1T351 -9ZM254 257Q246 246 236 240T215 226Q201 218 192 209T176 188Q170 175 167 154T164 109Q164 67 175 50T207 33Q223 33 237 51T253 101L254 257Z" />
<glyph unicode="b" glyph-name="b" horiz-adv-x="516" d="M276 417Q262 417 247 409T218 381Q207 363 200 337T193 271V149Q193 112 197 88T211 47Q222 26 238 18T269 9Q290 9 305 24T329 67T342 133T346 217Q346 321 329 369T276 417ZM189 684Q196 684 196 676Q196
661 195 631T193 569V374H196Q211 410 243 428T318 447Q350 447 382 436T439 398T480 328T496 219Q496 160 478 117T430 46T361 5T279 -9Q261 -9 241 -6T202 6T167 26T139 56H136L62 -1H50Q52 21 52 46T53 91V589Q53 601 53 612T50 632Q47 645 41 652T27 664Q12
671 -5 673V684H189Z" />
<glyph unicode="c" glyph-name="c" horiz-adv-x="428" d="M418 136Q410 107 397 81T362 35T312 3T244 -9Q194 -9 156 5T91 44Q59 76 40 120T21 222Q21 277 41 319T93 390T167 432T252 447Q304 447 337 434T385 406Q411 379 411 347Q411 319 394 306T357 293Q325
293 312 312T293 365Q288 401 279 415T252 430Q238 430 225 424T203 407Q187 386 179 340T170 230Q170 161 180 119T207 51Q218 34 233 28T265 21Q296 21 318 32T357 60T383 99T402 142L418 136Z" />
<glyph unicode="d" glyph-name="d" horiz-adv-x="538" d="M524 -1H505Q490 -1 470 -1T425 -2T381 -2T347 -3H332Q328 -3 328 3Q327 6 327 14T328 28V72H325Q311 34 281 13T204 -9Q168 -9 135 5T77 47T36 118T21 218Q21 273 37 316T80 388T143 432T218 447Q262
447 285 429T321 386H323V577Q323 590 323 607T320 633Q317 647 311 654T297 666Q290 670 282 671T266 673V684H461Q467 684 467 677Q467 665 467 643T466 596T465 547T464 504V114Q464 99 464 83T467 55Q471 30 490 18Q497 13 507 12T524 10V-1ZM323 298Q323 327
318 348T301 387Q291 402 278 411T247 420Q210 420 190 366T170 217Q170 23 243 23Q277 23 300 56T323 144V298Z" />
<glyph unicode="e" glyph-name="e" horiz-adv-x="447" d="M274 254Q290 254 296 262T303 290Q303 334 298 365T280 413Q267 429 242 429Q230 429 220 426T201 412Q187 397 180 360T171 254H274ZM428 136Q421 106 407 80T369 34T315 3T243 -9Q205 -9 169 1T102
35Q64 64 43 108T21 218Q21 276 40 319T90 390T160 433T239 447Q288 447 324 432T385 392T420 334T432 266Q432 258 432 249T430 234H171Q171 192 174 161T184 108T198 71T216 46Q227 35 244 28T280 21Q309 21 331 32T369 60T396 99T413 141L428 136Z" />
<glyph unicode="f" glyph-name="f" horiz-adv-x="304" d="M8 0V10Q21 12 33 16Q43 21 49 27T61 50Q65 61 65 84T66 127V411H9V438H66V492Q66 523 72 547T87 591T107 624T128 646Q148 663 179 676T258 689Q296 689 321 684T364 670Q390 657 399 638T409 599Q409
576 395 559T351 541Q311 541 295 574Q287 589 282 610Q280 623 278 633T273 652Q267 671 252 671Q229 671 217 645Q211 631 209 610T207 560V438H300V411H207V127Q207 107 208 85T212 51Q217 34 223 28T240 16Q246 14 256 12L274 10V0H8Z" />
<glyph unicode="g" glyph-name="g" horiz-adv-x="488" d="M209 432Q178 432 165 402T151 295Q151 218 164 188T209 158Q240 158 254 188T268 295Q268 372 255 402T209 432ZM453 -38Q453 -83 431 -116T372 -170T289 -202T194 -213Q107 -213 55 -192T3 -120Q3 -102
12 -88T38 -63T75 -46T120 -36V-34Q78 -29 53 -5T28 59Q28 80 37 97T59 126T88 146T117 158V161Q82 178 55 211T27 295Q27 334 43 362T84 409T143 437T209 447Q250 447 288 433T351 392H356Q366 419 388 435T442 452Q475 452 490 438T506 398Q506 371 492 358T456
345Q436 345 426 357T410 380Q404 394 400 400T389 406Q383 406 378 398T372 376Q372 371 375 363T382 346Q387 335 389 321T392 294Q392 255 376 227T335 180T276 152T210 143Q191 143 174 145T145 151Q129 149 115 141T100 116Q100 102 112 94T145 86Q155 86
176 87T220 90T265 93T299 95Q375 95 414 64T453 -38ZM194 -197Q278 -197 323 -170T368 -100Q368 -68 351 -50T292 -32Q279 -32 262 -33T227 -35T193 -37T166 -40Q150 -42 134 -46T105 -60T84 -83T76 -120Q76 -157 106 -177T194 -197Z" />
<glyph unicode="h" glyph-name="h" horiz-adv-x="561" d="M491 127Q491 107 492 85T496 50Q501 33 507 27T524 16Q535 12 549 10V0H299V10Q311 11 322 16Q333 21 339 30T348 56Q350 67 350 82T351 115V330Q351 354 348 368T337 390Q323 405 299 405Q276 405 253
383T222 314Q218 297 216 278T213 237V115Q213 98 213 83T216 55Q219 38 225 30T242 16Q253 11 265 10V0H15V10Q21 11 28 12T40 16Q49 20 56 26T68 50Q71 61 72 84T73 127V569Q73 583 73 602T69 633Q67 645 63 651T50 663Q43 668 34 670T16 673V684H207Q214 684
214 677Q214 667 213 636T211 566V350H215Q224 375 236 391T264 418Q283 432 308 439T358 447Q392 447 419 437T461 409Q475 393 483 370T491 311V127Z" />
<glyph unicode="i" glyph-name="i" horiz-adv-x="286" d="M144 516Q113 516 92 537T70 589Q70 620 91 642T144 664Q175 664 197 643T219 589Q219 557 198 537T144 516ZM214 120Q214 101 215 81T219 50Q224 33 230 27T247 16Q253 13 259 12T272 10V0H16V10Q22 11
28 12T41 16Q50 21 56 27T68 50Q72 61 72 81T73 120V318Q73 333 73 354T70 387Q68 400 63 406T52 418Q44 423 36 424T19 427V438H209Q216 438 216 431Q215 418 215 402T214 364V120Z" />
<glyph unicode="j" glyph-name="j" horiz-adv-x="258" d="M136 516Q104 516 83 537T62 589Q62 621 83 642T136 664Q167 664 189 643T211 589Q211 557 190 537T136 516ZM66 318Q66 333 65 354T62 387Q59 399 55 406T43 418Q36 423 28 424T11 427V438H201Q208 438
208 431Q207 418 207 402T206 364V6Q206 -33 199 -61T181 -110T157 -145T131 -170Q117 -182 84 -197T0 -213Q-54 -213 -95 -188Q-115 -175 -127 -153T-140 -105Q-140 -76 -120 -55T-68 -33Q-35 -33 -18 -53T-1 -102Q-1 -118 -9 -139Q-11 -147 -13 -155T-16 -168Q-16
-179 -11 -186T7 -194Q24 -194 34 -185T51 -161Q58 -147 62 -123T66 -69V318Z" />
<glyph unicode="k" glyph-name="k" horiz-adv-x="531" d="M272 0H14V11Q20 12 26 13T39 16Q49 21 55 27T66 51Q70 62 70 84T71 127V581Q71 591 71 601T70 619T68 633Q65 646 61 652T50 664Q42 669 34 670T17 673V684H209Q214 684 214 677Q214 669 213 647T212
589V216L315 317Q335 338 347 356T360 389Q360 399 357 406T343 418Q337 421 326 423T308 427V438H504V427Q491 425 475 419T442 402Q438 399 429 393T409 377T385 356T360 332L321 293Q375 282 404 250T442 173Q446 153 451 132T463 92T476 58T490 34Q498 23 509
18T541 11V0H358Q342 12 329 49T308 137Q301 179 290 200T256 232L212 189V127Q212 107 213 85T217 51Q222 34 228 28T245 16Q251 14 258 13T272 11V0Z" />
<glyph unicode="l" glyph-name="l" horiz-adv-x="288" d="M212 127Q212 107 213 85T218 50Q223 33 229 27T246 16Q251 14 258 13T272 11V0H14V11Q20 12 26 13T39 16Q48 21 54 27T66 50Q70 62 71 84T72 127V564Q72 579 71 600T68 633Q63 656 50 664Q43 669 34 670T17
673V684H207Q214 684 214 677Q214 664 214 648T212 610V127Z" />
<glyph unicode="m" glyph-name="m" horiz-adv-x="833" d="M266 0H16V10Q29 12 41 16Q51 21 57 27T68 50Q72 61 73 84T74 127V320Q74 335 73 355T70 387Q68 400 64 406T52 418Q44 423 36 424T20 427V438H208Q215 438 215 431Q215 427 215 416T214 392T213 367T212
349H216Q224 374 236 390T263 418Q282 432 309 439T359 447Q427 447 458 414Q469 403 476 386T486 348H489Q497 374 510 390T539 418Q558 432 582 439T630 447Q666 447 693 438T734 410Q748 393 755 371T763 313V127Q763 107 764 85T769 50Q774 33 780 27T797 16Q802
14 809 13T822 10V0H572V10Q582 11 595 16Q606 21 611 30T620 56Q622 67 622 82T623 115V330Q623 354 620 368T609 391Q596 405 572 405Q549 405 527 384T497 315Q489 285 489 252V121Q489 104 489 86T492 56Q495 39 501 30T518 16Q529 11 541 10V0H297V10Q309
11 320 16Q331 21 337 30T346 56Q348 67 348 82T349 115V330Q349 354 346 368T335 391Q327 399 319 402T297 405Q275 405 252 384T222 314Q214 279 214 237V115Q214 98 214 83T217 55Q220 38 226 30T243 16Q254 11 266 10V0Z" />
<glyph unicode="n" glyph-name="n" horiz-adv-x="558" d="M489 127Q489 107 490 85T494 50Q499 33 505 27T522 16Q533 12 547 10V0H297V10Q307 11 320 16Q331 21 337 30T346 56Q348 67 348 82T349 115V330Q349 354 346 368T335 390Q328 398 320 401T296 404Q277
404 254 384T222 314Q214 279 214 237V115Q214 98 214 83T217 55Q220 38 225 30T243 16Q254 11 266 10V0H16V10Q21 11 28 12T41 16Q51 21 57 27T69 50Q72 61 72 84T73 127V318Q73 333 73 354T70 387Q68 400 63 406T52 418Q44 423 36 424T20 427V438H208Q214 438
214 431Q214 427 214 416T213 392T213 367T212 348H215Q224 373 237 390T265 418Q285 432 311 439T360 447Q394 447 418 439T459 409Q473 392 481 368T489 309V127Z" />
<glyph unicode="o" glyph-name="o" horiz-adv-x="498" d="M22 219Q22 273 41 315T92 387T165 431T249 447Q292 447 333 432T405 387T456 316T476 219Q476 165 457 123T406 51T333 7T249 -9Q205 -9 165 6T92 51T41 122T22 219ZM328 219Q328 300 320 346T294 413Q285
424 273 427T249 431Q237 431 225 427T204 413Q186 393 178 347T169 219Q169 138 177 92T203 25Q213 14 225 11T249 7Q261 7 272 10T294 25Q311 45 319 91T328 219Z" />
<glyph unicode="p" glyph-name="p" horiz-adv-x="542" d="M14 -202L26 -200Q32 -199 38 -197Q52 -191 58 -184T70 -159Q74 -145 74 -125V317Q74 332 74 352T71 383Q69 395 65 401T52 414Q44 421 32 424T11 428V438H206Q214 438 214 429Q214 427 214 419T213 399V371H217Q232
406 265 426T335 447Q372 447 406 434T465 393T506 322T521 219Q521 165 506 123T463 51T398 6T317 -9Q284 -9 262 -1T219 23H215V-86Q215 -106 215 -125T220 -159Q224 -176 231 -183T252 -197Q257 -199 263 -200T277 -202V-213H14V-202ZM373 222Q373 280 369 317T355
375T333 405T300 414Q264 414 240 376T215 276V155Q215 122 221 92T240 46Q265 14 300 14Q339 14 356 61T373 222Z" />
<glyph unicode="q" glyph-name="q" horiz-adv-x="523" d="M321 296Q321 322 318 347T302 395Q294 409 282 416T249 424Q212 424 192 370T172 218Q172 115 192 68T249 20Q283 20 303 60Q311 74 316 98T321 172V296ZM373 364L454 446H470Q468 436 467 421T465 389T463
357T462 331V-86Q462 -106 462 -125T466 -159Q471 -176 477 -183T497 -197Q503 -199 509 -200T522 -202V-213H256V-202Q263 -201 271 -200T286 -197Q300 -191 306 -184T317 -159Q321 -145 321 -126T322 -86V47H318Q283 -10 208 -10Q170 -10 136 4T77 46T36 117T21
218Q21 274 39 317T86 389T153 432T229 447Q257 447 279 440T319 420T349 394T368 364H373Z" />
<glyph unicode="r" glyph-name="r" horiz-adv-x="402" d="M215 333Q226 368 240 389T267 422Q279 432 296 439T338 447Q355 447 370 443T396 428Q404 419 409 405T414 369Q414 337 396 320T353 303Q326 303 313 316T291 353Q286 369 282 375T269 382Q257 382 239
352T216 267Q215 261 215 241T214 201V116Q214 98 215 82T218 55Q221 38 228 30T247 16Q253 14 261 13T276 10V0H16V10Q29 12 41 16Q51 21 57 27T69 51Q72 62 73 84T74 127V335Q74 344 74 353T73 371T71 386Q69 400 65 406T54 418Q46 423 37 424T20 427V438H208Q214
438 214 431V414Q214 401 214 385T213 354V333H215Z" />
<glyph unicode="s" glyph-name="s" horiz-adv-x="390" d="M369 139Q369 105 356 78T320 31T267 2T200 -9Q169 -9 135 2T78 33H74L42 1H33L27 163H39Q46 131 62 103T100 53T147 20T200 7Q235 7 249 21T264 68Q264 99 237 117T161 155Q139 164 115 175T72 205T40
249T27 311Q27 340 39 365T73 408T125 436T191 447Q206 447 222 444T253 436T280 424T299 410H302L324 437H333L337 306H326Q319 331 307 353T277 392Q241 430 192 430Q166 430 149 417T131 374Q131 343 156 325T228 289Q256 278 282 266T327 237T357 196T369 139Z"
/>
<glyph unicode="t" glyph-name="t" horiz-adv-x="327" d="M326 60Q319 48 308 36T280 14T244 -2T198 -9Q129 -9 97 20Q77 37 70 60T62 114V139Q62 160 62 189T63 254T64 320T65 377V412Q54 413 36 413T7 414V431Q141 459 185 611H207V438H305V411H207L204 103Q204
76 213 57T255 38Q296 38 317 70L326 60Z" />
<glyph unicode="u" glyph-name="u" horiz-adv-x="542" d="M64 316Q64 334 64 356T60 388Q56 402 51 409T39 420Q32 424 24 425T7 428V438H199Q206 438 206 430Q206 421 206 391T205 324V110Q205 65 219 47Q233 29 258 29Q282 29 304 56T331 137Q333 154 333 168T334
203V328Q334 344 334 359T331 384Q326 412 311 420Q304 424 295 425T277 428V438H469Q476 438 476 430Q476 421 476 392T475 328V116Q475 101 475 83T478 53Q484 27 499 19Q506 14 514 13T531 10V0Q528 0 499 0T436 -1T373 -2T344 -3Q339 -3 339 1Q338 3 338 10V21Q337
22 337 32V85H334Q326 62 317 47T291 19Q272 4 249 -2T203 -9Q173 -9 146 -2T100 23Q81 43 73 70T65 131L64 316Z" />
<glyph unicode="v" glyph-name="v" horiz-adv-x="435" d="M452 428Q446 427 439 426T423 419Q417 415 412 410T400 395Q394 385 387 368T369 320L257 -3H186L74 304Q65 327 57 348T44 380Q37 395 30 404T14 419Q7 424 -1 425T-16 428V438H258V428Q249 427 239
426T223 420Q208 411 208 388Q208 374 211 358T222 321L281 134H283L346 317Q355 343 358 357T361 389Q361 402 357 408T344 420Q337 424 329 425T314 428V438H452V428Z" />
<glyph unicode="w" glyph-name="w" horiz-adv-x="688" d="M344 302L243 -3H171L70 304Q59 333 51 357T32 393Q24 405 19 410T5 421Q0 424 -6 425T-17 428V438H246V428Q238 427 231 426T217 419Q204 409 204 388Q204 375 207 361T216 326L268 140H271Q274 150 283
177T302 236T321 295T333 333Q328 349 324 361T315 381Q308 397 302 405T288 419Q281 424 276 425T263 428V438H524V428Q516 427 507 426T492 420Q477 412 477 387Q477 373 480 359T491 321L540 140H542L600 317Q609 344 612 359T615 390Q615 402 611 408T598 420Q592
424 585 425T570 428V438H706V428Q699 427 692 426T677 419Q670 415 665 410T653 395Q646 385 640 368T623 320L516 -3H444L344 302Z" />
<glyph unicode="x" glyph-name="x" horiz-adv-x="460" d="M167 0H13V11Q21 12 32 15T50 24Q62 31 70 38T88 55T107 80T131 117L176 185L85 345Q71 371 57 389T31 415Q15 425 -1 427V438H256V427Q240 426 232 421Q226 418 222 413T218 397Q218 388 222 378T235
355L276 284L304 329Q316 349 324 362T332 389Q332 411 319 418Q313 423 307 424T289 427V438H441V427Q433 426 422 423T403 414Q391 406 382 399T364 380T345 354T321 316L287 263L384 91Q398 65 413 48T439 23Q446 18 455 15T473 11V0H212V11Q230 12 237 17Q244
20 247 25T251 42Q251 50 247 59T235 82L187 166L150 105Q137 85 130 74T122 49Q122 28 138 20Q144 16 150 14T167 11V0Z" />
<glyph unicode="y" glyph-name="y" horiz-adv-x="444" d="M228 -78Q216 -110 203 -134T174 -175Q139 -213 84 -213Q48 -213 22 -195T-4 -136Q-4 -114 11 -97T55 -80Q78 -80 92 -91T115 -125Q122 -142 126 -152T142 -162Q170 -162 203 -80Q208 -66 212 -55T216
-42Q218 -37 218 -30T214 -15L88 304Q76 335 67 353T52 382Q45 396 38 404T21 418Q14 423 5 425T-12 428V438H265V428Q257 427 249 426T234 420Q218 410 218 389Q218 375 223 360T236 321L293 151H295L356 317Q365 342 368 358T372 389Q372 401 367 408T354 420Q347
424 339 425T324 428V438H470V428Q453 426 438 417T412 391Q405 381 399 366T381 321Q375 304 362 270T333 194T300 106T267 22T241 -44T228 -78Z" />
<glyph unicode="z" glyph-name="z" horiz-adv-x="427" d="M383 0H13V9L232 415V419H153Q131 419 114 407T86 380Q82 376 64 348T23 274H10L43 438H391V426L176 21V17H246Q275 17 296 31T332 66Q335 69 345 84T367 118T389 153T401 172H414L383 0Z" />
<glyph unicode="{" glyph-name="braceleft" horiz-adv-x="366" d="M367 -143Q311 -143 265 -137T185 -112T134 -63T115 18Q115 32 118 51T126 90T133 127T137 154Q137 192 127 212T93 245Q82 252 65 254T31 258V278Q48 278 65 280T94 291Q116 304 126 324T137
382Q137 392 134 409T126 445T119 483T115 517Q115 566 133 597T185 647T264 672T367 679V663Q345 662 326 656T294 637T272 601T264 545Q264 533 266 517T271 484T276 452T278 425Q278 354 237 316T98 270V266Q196 258 237 220T278 111Q278 100 276 85T271 53T266
20T264 -9Q264 -43 272 -65T293 -101T326 -120T367 -127V-143Z" />
<glyph unicode="|" glyph-name="bar" horiz-adv-x="156" d="M63 -99V687H93V-99H63Z" />
<glyph unicode="}" glyph-name="braceright" horiz-adv-x="366" d="M-1 -127Q21 -126 40 -121T72 -102T94 -66T102 -9Q102 3 100 19T95 52T90 84T88 111Q88 181 128 219T268 266V270Q169 278 129 316T88 425Q88 436 90 451T95 483T100 516T102 545Q102 579 94
601T73 636T40 656T-1 663V679Q55 679 101 672T180 647T231 598T250 517Q250 503 247 484T239 445T232 409T228 382Q228 344 238 325T272 291Q283 283 300 281T335 278V258Q318 257 301 255T273 245Q250 232 239 212T228 154Q228 144 231 127T239 91T246 52T250
18Q250 -31 232 -62T180 -112T101 -136T-1 -143V-127Z" />
<glyph unicode="~" glyph-name="asciitilde" horiz-adv-x="365" d="M340 341Q335 319 328 296T308 255T278 225T235 213Q219 213 203 217T170 226T138 235T110 239Q86 239 69 228T42 191L25 194Q31 216 39 238T59 279T89 309T131 321Q144 321 160 317T192 309T225
300T253 296Q280 296 296 306T323 343L340 341Z" />
<glyph unicode="&#xa0;" glyph-name="uni00A0" horiz-adv-x="192" />
<glyph unicode="&#xa1;" glyph-name="exclamdown" horiz-adv-x="248" d="M123 672Q154 672 173 652T192 602Q192 573 173 553T123 532Q93 532 74 552T54 602Q54 631 73 651T123 672ZM212 70Q212 29 189 8T124 -14Q83 -14 59 7T35 70Q35 106 48 152T76 267Q93 345
101 396T115 473H133Q138 447 146 397T171 268Q187 200 199 153T212 70Z" />
<glyph unicode="&#xa2;" glyph-name="cent" horiz-adv-x="426" d="M243 -11Q200 -10 160 2T91 43Q59 74 40 118T21 220Q21 274 40 315T90 384T161 427T243 445V527H265V445Q312 443 341 430T385 403Q399 389 405 376T411 344Q411 319 397 306T361 292Q332 292
318 310T299 362Q295 390 287 404T265 424V20Q296 20 318 31T357 59T383 97T402 140L418 134Q411 107 399 82T368 38T324 6T265 -10V-95H243V-11ZM243 427Q232 425 222 420T203 404Q187 384 179 338T170 228Q170 159 180 117T207 49Q221 28 243 22V427Z" />
<glyph unicode="&#xa3;" glyph-name="sterling" horiz-adv-x="651" d="M463 670Q535 670 575 636T616 548Q616 518 606 496T579 460T540 440T495 433Q455 433 429 454T395 508L408 514Q429 474 470 474Q499 474 518 493T537 558Q537 603 517 625T463 647Q430 647
406 625T376 556Q368 506 371 448T371 331V305H521V279H369Q364 243 354 210T330 149Q355 144 382 139T430 134Q504 134 545 153T602 214L618 210Q613 163 600 121T562 45T503 -7T419 -27Q371 -27 327 -6T250 40Q223 14 188 -1T108 -16Q54 -16 24 9T-6 75Q-6 97
4 116T34 150T79 173T139 181Q156 181 173 178T216 168Q212 193 208 221T201 279H92V305H197Q192 336 194 371Q197 447 223 503T287 596T372 651T463 670ZM96 138Q68 138 51 121T34 75Q34 44 54 26T115 8Q147 8 175 22T220 63Q213 70 209 73Q183 98 155 118T96
138Z" />
<glyph unicode="&#xa5;" glyph-name="yen" horiz-adv-x="619" d="M148 11Q169 13 185 18Q199 23 208 32T223 63Q227 76 228 94T229 132V183H67V212H229V284H67V312H223L92 544Q69 584 50 605T8 635Q-7 642 -21 643V655H316V643Q307 642 295 640T275 635Q258 629
252 617T247 591T255 560T270 528L368 344H372L458 504Q470 527 478 548T489 586T486 616T463 636Q455 639 442 640T421 643V655H632V643Q612 641 594 633Q566 621 542 589T489 502L388 312H548V284H384V212H548V183H384V132Q384 112 385 95T390 63Q395 45 404
36T427 19Q435 16 445 15T464 11V0H148V11Z" />
<glyph unicode="&#xa7;" glyph-name="section" horiz-adv-x="467" d="M248 670Q326 670 367 646T411 582Q412 560 401 543T363 526Q337 526 324 540T306 569Q302 581 301 598T295 626Q290 637 281 643T247 650Q220 650 200 630T180 577Q180 551 191 531T221 495T261
465T305 438Q332 421 358 402T403 360T435 310T447 248Q447 198 418 159T343 101Q368 78 384 50T401 -21Q401 -53 388 -83T352 -136T296 -172T226 -186Q149 -186 107 -161T63 -95Q62 -73 74 -56T112 -39Q137 -39 150 -52T168 -82Q172 -94 173 -112T178 -141Q183
-153 193 -159T228 -166Q256 -166 275 -146T295 -93Q295 -67 284 -47T254 -10T212 23T164 54Q137 72 114 91T72 134T44 183T34 240Q34 291 62 329T136 383Q110 406 93 436T75 509Q75 541 87 570T123 622T178 657T248 670ZM345 169Q345 191 335 211T307 250T267
285T220 317Q206 329 191 340T160 364Q149 357 143 344T136 313Q136 291 146 272T173 235T211 202T253 172L287 146Q304 133 320 119Q331 126 338 138T345 169Z" />
<glyph unicode="&#xa8;" glyph-name="dieresis" horiz-adv-x="423" d="M117 646Q145 646 163 627T182 582Q182 556 164 537T117 518Q90 518 72 536T54 581Q54 607 72 626T117 646ZM304 646Q332 646 350 627T369 582Q369 556 351 537T304 518Q276 518 258 536T240
581Q240 607 258 626T304 646Z" />
<glyph unicode="&#xa9;" glyph-name="copyright" horiz-adv-x="895" d="M862 259Q862 173 830 98T741 -34T609 -123T449 -156Q363 -156 288 -123T156 -34T66 97T33 259Q33 344 66 419T155 550T287 639T449 672Q534 672 609 640T740 551T829 419T862 259ZM835 259Q835
340 804 411T720 534T597 617T449 648Q371 648 301 618T177 535T92 411T60 259Q60 176 91 105T176 -19T300 -102T449 -133Q527 -133 597 -103T720 -20T804 104T835 259ZM644 190Q637 160 622 130T584 77T529 40T454 25Q403 25 365 38T299 73Q258 103 234 151T209
263Q209 320 229 363T284 435T364 480T460 495Q514 495 548 479T603 439H607L628 474H637V299H622Q614 330 604 361T576 417T534 457T470 473Q453 473 436 465T406 442Q361 391 361 266Q361 230 365 203T376 155T391 119T408 92Q422 76 439 70T478 63Q533 63 569
96T627 196L644 190Z" />
<glyph unicode="&#xaa;" glyph-name="ordfeminine" horiz-adv-x="421" d="M126 264Q106 264 88 270T55 288T32 320T23 367Q23 390 29 403T46 428Q61 445 87 455T135 471Q192 485 211 503T233 545V558Q233 566 233 574T234 590V602Q234 633 225 643T190 654Q174
654 167 650T157 639Q154 632 154 618T152 586Q149 533 98 533Q74 533 60 545T46 581Q46 604 61 622Q78 644 115 657T195 671Q270 671 314 647T359 562V368Q359 336 361 322T368 302Q375 293 389 293Q402 293 413 299L415 289Q407 281 383 273T320 264Q295 264
280 269T254 283Q247 289 243 300T237 327H234Q224 295 196 280T126 264ZM232 503Q224 492 214 486T190 471Q173 461 162 440Q157 429 155 411T153 370Q153 333 162 318T190 303Q204 303 217 320T231 369L232 503Z" />
<glyph unicode="&#xab;" glyph-name="guillemotleft" horiz-adv-x="442" d="M393 401L406 389Q384 354 357 318T309 246Q330 210 357 173T406 101L393 89L214 239V251L393 401ZM228 406L241 394Q219 359 190 322T139 246Q160 208 189 171T242 96L228 84L35 238V252L228
406Z" />
<glyph unicode="&#xae;" glyph-name="registered" horiz-adv-x="558" d="M530 421Q530 370 510 325T456 245T376 191T279 171Q227 171 182 191T102 245T48 324T28 421Q28 472 48 517T102 597T181 651T279 671Q330 671 376 651T456 597T510 518T530 421ZM506 421Q506
467 488 509T439 582T367 631T279 650Q232 650 191 632T119 582T70 509T52 421Q52 374 70 333T118 260T190 210T279 191Q325 191 366 209T439 259T488 332T506 421ZM333 290Q326 300 321 315T313 350Q311 370 309 385T298 412Q287 430 264 430H245V357Q245 332
248 322Q250 317 252 313T260 306Q264 304 271 304T283 303V290H137V303Q141 303 147 303T158 306Q164 308 166 312T171 322Q173 327 173 335V528Q173 537 171 542Q168 553 158 557Q154 559 148 560T137 561V573H286Q391 573 391 504Q391 477 369 460T305 438V436Q343
433 362 419T389 362Q394 333 400 324T415 310Q417 308 425 306T439 303V290H333ZM311 504Q311 533 303 545T269 557H245V444H266Q292 444 301 460T311 504Z" />
<glyph unicode="&#xaf;" glyph-name="macron" horiz-adv-x="362" d="M59 545V596H303V545H59Z" />
<glyph unicode="&#xb0;" glyph-name="degree" horiz-adv-x="332" d="M291 544Q291 515 281 492T253 452T213 426T165 416Q140 416 118 425T78 451T50 491T39 544Q39 572 49 596T77 636T117 662T165 672Q190 672 212 663T252 637T280 596T291 544ZM243 544Q243
598 223 626T165 654Q127 654 107 626T87 544Q87 491 107 463T165 435Q203 435 223 463T243 544Z" />
<glyph unicode="&#xb4;" glyph-name="acute" horiz-adv-x="324" d="M275 623Q275 603 262 589T228 563Q202 549 163 532T67 487L60 495Q77 519 90 538T115 573T135 602T155 628Q173 651 187 664T221 677Q275 677 275 623Z" />
<glyph unicode="&#xb6;" glyph-name="paragraph" horiz-adv-x="525" d="M432 637V-151H406V637H310V-151H284V248H265Q199 248 153 266T79 313T38 378T25 453Q25 495 40 532T83 597T154 641T250 657H515V637H432Z" />
<glyph unicode="&#xb7;" glyph-name="periodcentered" horiz-adv-x="290" d="M218 270Q218 239 197 218T144 197Q114 197 93 218T71 270Q71 301 92 322T144 344Q174 344 196 323T218 270Z" />
<glyph unicode="&#xb8;" glyph-name="cedilla" horiz-adv-x="298" d="M247 -111Q247 -134 237 -149T211 -175T174 -189T131 -193Q110 -193 86 -187T49 -173L56 -161Q66 -166 82 -169T113 -173Q139 -173 154 -159T170 -113Q170 -84 158 -72T131 -59Q123 -59 116
-61T102 -70L86 -63L105 1H125L110 -50Q118 -45 132 -42T158 -38Q201 -38 224 -56T247 -111Z" />
<glyph unicode="&#xba;" glyph-name="ordmasculine" horiz-adv-x="451" d="M429 467Q429 418 412 380T366 316T301 277T225 263Q186 263 150 276T85 316T39 380T22 467Q22 516 39 554T84 617T149 656T225 670Q264 670 300 657T365 618T411 554T429 467ZM294 467Q294
538 288 579T265 638Q257 647 247 650T225 653Q214 653 204 650T186 638Q170 621 163 580T156 467Q156 395 163 354T186 296Q194 287 204 284T225 280Q236 280 246 283T265 295Q281 312 287 353T294 467Z" />
<glyph unicode="&#xbb;" glyph-name="guillemotright" horiz-adv-x="442" d="M406 238L213 84L200 96Q223 134 252 171T303 246Q282 284 253 321T201 394L213 406L406 252V238ZM228 239L49 89L35 101Q58 136 85 173T133 246Q112 281 85 317T35 389L49 401L228 251V239Z" />
<glyph unicode="&#xbf;" glyph-name="questiondown" horiz-adv-x="436" d="M399 603Q399 574 380 554T330 533Q300 533 280 553T260 603Q260 632 279 652T330 672Q361 672 380 652T399 603ZM409 87Q409 66 397 48T363 16T312 -6T247 -14Q212 -14 176 -5T116 19Q75
45 50 84T24 188Q24 236 43 270T91 327T156 359T224 369Q254 369 279 363T320 345H322V463H344V327L330 314Q315 328 300 332T264 337Q241 337 225 322T199 279T185 213T180 126Q180 103 183 82T194 45T214 18T244 8Q261 8 267 23T279 70Q282 85 286 99T299 124T319
141T350 148Q377 148 393 131T409 87Z" />
<glyph unicode="&#xc0;" glyph-name="Agrave" horiz-adv-x="628" d="M245 457H241L160 228H321L245 457ZM-16 12Q-5 14 5 16T26 25Q37 32 46 41T65 66Q75 80 84 101T104 152L289 662H347L500 211Q517 160 532 122T562 60Q573 43 584 34T608 20Q617 17 625 15T642
11V0H292V12Q301 13 312 15T330 21Q344 26 354 37T364 69Q364 89 358 109T344 156L329 205H152L133 148Q125 127 121 108T117 74Q117 52 126 39T149 21Q160 16 170 15T189 12V0H-16V12ZM426 699Q365 711 320 720T245 737Q219 744 200 757T181 795Q181 820 195 834T231
849Q250 849 264 842T302 816Q328 796 357 771T432 708L426 699Z" />
<glyph unicode="&#xc1;" glyph-name="Aacute" horiz-adv-x="628" d="M245 457H241L160 228H321L245 457ZM-16 12Q-5 14 5 16T26 25Q37 32 46 41T65 66Q75 80 84 101T104 152L289 662H347L500 211Q517 160 532 122T562 60Q573 43 584 34T608 20Q617 17 625 15T642
11V0H292V12Q301 13 312 15T330 21Q344 26 354 37T364 69Q364 89 358 109T344 156L329 205H152L133 148Q125 127 121 108T117 74Q117 52 126 39T149 21Q160 16 170 15T189 12V0H-16V12ZM409 849Q430 849 444 835T459 795Q459 770 440 757T396 737Q365 729 320 720T214
699L209 709Q254 747 283 771T338 816Q360 834 375 841T409 849Z" />
<glyph unicode="&#xc2;" glyph-name="Acircumflex" horiz-adv-x="628" d="M245 457H241L160 228H321L245 457ZM-16 12Q-5 14 5 16T26 25Q37 32 46 41T65 66Q75 80 84 101T104 152L289 662H347L500 211Q517 160 532 122T562 60Q573 43 584 34T608 20Q617 17 625
15T642 11V0H292V12Q301 13 312 15T330 21Q344 26 354 37T364 69Q364 89 358 109T344 156L329 205H152L133 148Q125 127 121 108T117 74Q117 52 126 39T149 21Q160 16 170 15T189 12V0H-16V12ZM449 706L317 767L184 706L176 714Q185 724 201 744T234 784T266 822T285
844H349Q353 839 367 822T399 785T433 744T458 714L449 706Z" />
<glyph unicode="&#xc3;" glyph-name="Atilde" horiz-adv-x="628" d="M245 457H241L160 228H321L245 457ZM-16 12Q-5 14 5 16T26 25Q37 32 46 41T65 66Q75 80 84 101T104 152L289 662H347L500 211Q517 160 532 122T562 60Q573 43 584 34T608 20Q617 17 625 15T642
11V0H292V12Q301 13 312 15T330 21Q344 26 354 37T364 69Q364 89 358 109T344 156L329 205H152L133 148Q125 127 121 108T117 74Q117 52 126 39T149 21Q160 16 170 15T189 12V0H-16V12ZM483 838Q478 816 471 794T452 754T423 725T379 714Q363 714 343 718T303 727T265
737T236 741Q216 741 201 734T174 701L159 705Q165 726 173 747T193 786T223 814T264 825Q278 825 298 821T338 812T376 802T405 798Q431 798 445 807T468 840L483 838Z" />
<glyph unicode="&#xc4;" glyph-name="Adieresis" horiz-adv-x="628" d="M245 457H241L160 228H321L245 457ZM-16 12Q-5 14 5 16T26 25Q37 32 46 41T65 66Q75 80 84 101T104 152L289 662H347L500 211Q517 160 532 122T562 60Q573 43 584 34T608 20Q617 17 625 15T642
11V0H292V12Q301 13 312 15T330 21Q344 26 354 37T364 69Q364 89 358 109T344 156L329 205H152L133 148Q125 127 121 108T117 74Q117 52 126 39T149 21Q160 16 170 15T189 12V0H-16V12ZM203 842Q232 842 251 822T270 776Q270 749 251 730T203 710Q174 710 156 729T138
775Q138 802 156 822T203 842ZM429 842Q457 842 476 822T495 776Q495 749 476 730T429 710Q400 710 382 729T363 775Q363 802 381 822T429 842Z" />
<glyph unicode="&#xc5;" glyph-name="Aring" horiz-adv-x="628" d="M245 457H241L160 228H321L245 457ZM-16 12Q-5 14 5 16T26 25Q37 32 46 41T65 66Q75 80 84 101T104 152L289 662H347L500 211Q517 160 532 122T562 60Q573 43 584 34T608 20Q617 17 625 15T642
11V0H292V12Q301 13 312 15T330 21Q344 26 354 37T364 69Q364 89 358 109T344 156L329 205H152L133 148Q125 127 121 108T117 74Q117 52 126 39T149 21Q160 16 170 15T189 12V0H-16V12ZM404 789Q404 769 397 753T377 726T349 708T316 701Q281 701 255 724T228 789Q228
829 254 852T315 876Q350 876 376 853T404 789ZM374 788Q374 818 358 834T315 851Q289 851 273 835T256 789Q256 760 272 744T314 727Q340 727 357 743T374 788Z" />
<glyph unicode="&#xc6;" glyph-name="AE" horiz-adv-x="904" d="M319 0V11Q333 11 350 17Q367 21 378 31T397 65Q402 82 404 109T407 170V226H189L151 158Q141 141 133 116T125 74Q125 53 134 40T157 21Q167 16 177 15T196 12V0H-18V12Q4 15 22 27T57 60T90 106T123
162L382 618Q377 627 369 632T350 640Q342 642 334 643T318 645V657H836L860 446H848Q833 483 812 519T762 586Q743 607 716 620T651 634H633Q618 634 606 631T585 618Q571 604 567 581T563 534V353H595Q616 353 630 354T653 357T669 364T683 376Q703 395 716 425T732
481H744V201H732Q729 226 717 255T686 302Q673 314 655 321T595 329H563V149Q563 121 566 92T586 46Q597 34 614 29T651 23H669Q701 23 725 36T769 73Q800 110 825 154T865 239H877L856 0H319ZM407 486Q407 519 405 546T397 593L203 250H407V486Z" />
<glyph unicode="&#xc7;" glyph-name="Ccedilla" horiz-adv-x="632" d="M443 -116Q443 -139 433 -154T407 -180T370 -194T327 -198Q306 -198 282 -192T245 -178L252 -166Q262 -171 278 -174T309 -178Q335 -178 350 -164T366 -118Q366 -89 354 -77T327 -64Q319 -64
312 -66T298 -75L282 -68L299 -10Q266 -4 233 6Q174 27 129 69T56 175T29 329Q29 418 58 482T134 589T241 651T363 671Q430 671 481 650T553 598H557L584 650H595V419H581Q568 471 550 513T506 586T446 632T368 648Q341 648 314 638T268 605Q253 589 241 566T219
509T205 432T200 329Q200 269 206 226T225 152T253 99T290 61Q328 31 396 31Q425 31 453 40T508 71T555 127T592 211L611 203Q600 156 577 116T520 47T446 2T358 -14Q338 -14 318 -12L306 -55Q314 -50 328 -47T354 -43Q397 -43 420 -61T443 -116Z" />
<glyph unicode="&#xc8;" glyph-name="Egrave" horiz-adv-x="609" d="M422 699Q361 711 316 720T241 737Q215 744 196 757T177 795Q177 820 191 834T227 849Q246 849 260 842T298 816Q324 796 353 771T428 708L422 699ZM561 0H18V11Q34 11 49 17Q66 22 77 32T96
65Q102 82 104 109T106 170V488Q106 522 104 549T96 593Q89 616 78 626T49 641Q41 643 33 644T18 646V657H542L566 446H553Q539 483 518 519T468 586Q448 607 421 620T357 634H332Q300 634 285 618Q270 604 266 581T262 534V352H297Q318 352 332 353T355 357T371
364T385 376Q404 395 417 425T434 481H446V201H434Q431 226 419 255T388 302Q375 314 357 321T297 329H262V149Q262 120 265 92T286 46Q297 34 313 29T350 23H368Q400 23 426 36T473 73Q505 108 530 153T570 239H582L561 0Z" />
<glyph unicode="&#xc9;" glyph-name="Eacute" horiz-adv-x="609" d="M407 849Q428 849 442 835T457 795Q457 770 438 757T394 737Q363 729 318 720T212 699L207 709Q252 747 281 771T336 816Q358 834 373 841T407 849ZM561 0H18V11Q34 11 49 17Q66 22 77 32T96
65Q102 82 104 109T106 170V488Q106 522 104 549T96 593Q89 616 78 626T49 641Q41 643 33 644T18 646V657H542L566 446H553Q539 483 518 519T468 586Q448 607 421 620T357 634H332Q300 634 285 618Q270 604 266 581T262 534V352H297Q318 352 332 353T355 357T371
364T385 376Q404 395 417 425T434 481H446V201H434Q431 226 419 255T388 302Q375 314 357 321T297 329H262V149Q262 120 265 92T286 46Q297 34 313 29T350 23H368Q400 23 426 36T473 73Q505 108 530 153T570 239H582L561 0Z" />
<glyph unicode="&#xca;" glyph-name="Ecircumflex" horiz-adv-x="609" d="M445 706L313 767L180 706L172 714Q181 724 197 744T230 784T262 822T281 844H345Q349 839 363 822T395 785T429 744T454 714L445 706ZM561 0H18V11Q34 11 49 17Q66 22 77 32T96 65Q102
82 104 109T106 170V488Q106 522 104 549T96 593Q89 616 78 626T49 641Q41 643 33 644T18 646V657H542L566 446H553Q539 483 518 519T468 586Q448 607 421 620T357 634H332Q300 634 285 618Q270 604 266 581T262 534V352H297Q318 352 332 353T355 357T371 364T385
376Q404 395 417 425T434 481H446V201H434Q431 226 419 255T388 302Q375 314 357 321T297 329H262V149Q262 120 265 92T286 46Q297 34 313 29T350 23H368Q400 23 426 36T473 73Q505 108 530 153T570 239H582L561 0Z" />
<glyph unicode="&#xcb;" glyph-name="Edieresis" horiz-adv-x="609" d="M561 0H18V11Q34 11 49 17Q66 22 77 32T96 65Q102 82 104 109T106 170V488Q106 522 104 549T96 593Q89 616 78 626T49 641Q41 643 33 644T18 646V657H542L566 446H553Q539 483 518 519T468
586Q448 607 421 620T357 634H332Q300 634 285 618Q270 604 266 581T262 534V352H297Q318 352 332 353T355 357T371 364T385 376Q404 395 417 425T434 481H446V201H434Q431 226 419 255T388 302Q375 314 357 321T297 329H262V149Q262 120 265 92T286 46Q297 34
313 29T350 23H368Q400 23 426 36T473 73Q505 108 530 153T570 239H582L561 0ZM200 842Q229 842 248 822T267 776Q267 749 248 730T200 710Q171 710 153 729T135 775Q135 802 153 822T200 842ZM426 842Q454 842 473 822T492 776Q492 749 473 730T426 710Q397 710
379 729T360 775Q360 802 378 822T426 842Z" />
<glyph unicode="&#xcc;" glyph-name="Igrave" horiz-adv-x="369" d="M264 170Q264 136 266 109T273 65Q281 42 292 32T320 17Q328 14 336 13L352 11V0H18V11Q25 12 33 13T49 17Q66 22 77 32T96 65Q102 82 104 109T106 170V488Q106 522 104 549T96 593Q88 616 77
626T49 641Q41 643 34 644T18 647V657H352V647Q344 645 336 644T320 641Q303 636 292 626T273 593Q268 576 266 549T264 488V170ZM295 699Q234 711 189 720T114 737Q88 744 69 757T50 795Q50 820 64 834T100 849Q119 849 133 842T171 816Q197 796 226 771T301 708L295
699Z" />
<glyph unicode="&#xcd;" glyph-name="Iacute" horiz-adv-x="369" d="M264 170Q264 136 266 109T273 65Q281 42 292 32T320 17Q328 14 336 13L352 11V0H18V11Q25 12 33 13T49 17Q66 22 77 32T96 65Q102 82 104 109T106 170V488Q106 522 104 549T96 593Q88 616 77
626T49 641Q41 643 34 644T18 647V657H352V647Q344 645 336 644T320 641Q303 636 292 626T273 593Q268 576 266 549T264 488V170ZM278 849Q299 849 313 835T328 795Q328 770 309 757T265 737Q234 729 189 720T83 699L78 709Q123 747 152 771T207 816Q229 834 244
841T278 849Z" />
<glyph unicode="&#xce;" glyph-name="Icircumflex" horiz-adv-x="369" d="M264 170Q264 136 266 109T273 65Q281 42 292 32T320 17Q328 14 336 13L352 11V0H18V11Q25 12 33 13T49 17Q66 22 77 32T96 65Q102 82 104 109T106 170V488Q106 522 104 549T96 593Q88
616 77 626T49 641Q41 643 34 644T18 647V657H352V647Q344 645 336 644T320 641Q303 636 292 626T273 593Q268 576 266 549T264 488V170ZM573 706L441 767L308 706L300 714Q309 724 325 744T358 784T390 822T409 844H473Q477 839 491 822T523 785T557 744T582 714L573
706Z" />
<glyph unicode="&#xcf;" glyph-name="Idieresis" horiz-adv-x="369" d="M77 842Q106 842 125 822T144 776Q144 749 125 730T77 710Q48 710 30 729T12 775Q12 802 30 822T77 842ZM292 842Q320 842 339 822T358 776Q358 749 339 730T292 710Q263 710 245 729T226
775Q226 802 245 822T292 842ZM264 170Q264 136 266 109T273 65Q281 42 292 32T320 17Q328 14 336 13L352 11V0H18V11Q25 12 33 13T49 17Q66 22 77 32T96 65Q102 82 104 109T106 170V488Q106 522 104 549T96 593Q88 616 77 626T49 641Q41 643 34 644T18 647V657H352V647Q344
645 336 644T320 641Q303 636 292 626T273 593Q268 576 266 549T264 488V170Z" />
<glyph unicode="&#xd0;" glyph-name="Eth" horiz-adv-x="713" d="M28 350H107V487Q107 521 105 548T96 592Q89 615 78 625T50 641Q42 643 34 644T18 646V657H368Q421 657 461 646T534 618Q601 580 642 508T684 329Q684 226 645 152T538 41Q507 24 467 12T382 0H18V11Q25
12 33 13T50 17Q67 22 78 32T96 65Q102 82 104 109T107 170V322H28V350ZM320 634Q307 634 297 631T278 617Q267 606 266 586T264 547V350H398V322H264V147Q264 121 267 94T285 49Q294 36 310 30T343 23H357Q381 23 409 33T459 73Q472 91 483 114T502 167T514 238T519
329Q519 381 515 421T502 492T483 545T458 585Q436 614 408 624T352 634H320Z" />
<glyph unicode="&#xd1;" glyph-name="Ntilde" horiz-adv-x="691" d="M551 838Q546 816 539 794T520 754T491 725T447 714Q431 714 411 718T371 727T333 737T304 741Q284 741 269 734T242 701L227 705Q233 726 241 747T261 786T291 814T332 825Q346 825 366 821T406
812T444 802T473 798Q499 798 513 807T536 840L551 838ZM538 -4L162 525H158V168Q158 121 162 97T175 56Q190 25 218 17Q226 15 234 14T253 11V0H35V11Q55 12 70 17Q98 25 113 55Q120 72 125 96T131 168V441Q131 494 125 529T109 585Q90 622 48 638Q41 641 33 643T16
646V657H272L560 238H563V488Q563 536 559 560T547 601Q539 617 528 626T503 639Q495 642 488 643T469 646V657H685V646Q674 645 667 644T651 639Q622 631 608 601Q601 584 597 560T592 488V-4H538Z" />
<glyph unicode="&#xd2;" glyph-name="Ograve" horiz-adv-x="696" d="M458 699Q397 711 352 720T277 737Q251 744 232 757T213 795Q213 820 227 834T263 849Q282 849 296 842T334 816Q360 796 389 771T464 708L458 699ZM347 670Q418 670 477 646T578 578T643 470T666
328Q666 250 643 187T578 79T477 10T347 -14Q276 -14 218 10T117 79T52 187T29 328Q29 406 52 469T117 577T217 646T347 670ZM347 7Q365 7 383 10T417 27Q434 40 448 62T472 121T488 207T494 328Q494 398 489 448T473 535T448 593T417 630Q400 642 383 645T347
649Q330 649 313 646T279 630Q262 616 248 594T223 535T207 449T201 328Q201 258 206 208T222 122T247 63T279 27Q295 15 312 11T347 7Z" />
<glyph unicode="&#xd3;" glyph-name="Oacute" horiz-adv-x="696" d="M441 849Q462 849 476 835T491 795Q491 770 472 757T428 737Q397 729 352 720T246 699L241 709Q286 747 315 771T370 816Q392 834 407 841T441 849ZM347 670Q418 670 477 646T578 578T643 470T666
328Q666 250 643 187T578 79T477 10T347 -14Q276 -14 218 10T117 79T52 187T29 328Q29 406 52 469T117 577T217 646T347 670ZM347 7Q365 7 383 10T417 27Q434 40 448 62T472 121T488 207T494 328Q494 398 489 448T473 535T448 593T417 630Q400 642 383 645T347
649Q330 649 313 646T279 630Q262 616 248 594T223 535T207 449T201 328Q201 258 206 208T222 122T247 63T279 27Q295 15 312 11T347 7Z" />
<glyph unicode="&#xd4;" glyph-name="Ocircumflex" horiz-adv-x="696" d="M480 706L348 767L215 706L207 714Q216 724 232 744T265 784T297 822T316 844H380Q384 839 398 822T430 785T464 744T489 714L480 706ZM347 670Q418 670 477 646T578 578T643 470T666 328Q666
250 643 187T578 79T477 10T347 -14Q276 -14 218 10T117 79T52 187T29 328Q29 406 52 469T117 577T217 646T347 670ZM347 7Q365 7 383 10T417 27Q434 40 448 62T472 121T488 207T494 328Q494 398 489 448T473 535T448 593T417 630Q400 642 383 645T347 649Q330
649 313 646T279 630Q262 616 248 594T223 535T207 449T201 328Q201 258 206 208T222 122T247 63T279 27Q295 15 312 11T347 7Z" />
<glyph unicode="&#xd5;" glyph-name="Otilde" horiz-adv-x="696" d="M515 838Q510 816 503 794T484 754T455 725T411 714Q395 714 375 718T335 727T297 737T268 741Q248 741 233 734T206 701L191 705Q197 726 205 747T225 786T255 814T296 825Q310 825 330 821T370
812T408 802T437 798Q463 798 477 807T500 840L515 838ZM347 670Q418 670 477 646T578 578T643 470T666 328Q666 250 643 187T578 79T477 10T347 -14Q276 -14 218 10T117 79T52 187T29 328Q29 406 52 469T117 577T217 646T347 670ZM347 7Q365 7 383 10T417 27Q434
40 448 62T472 121T488 207T494 328Q494 398 489 448T473 535T448 593T417 630Q400 642 383 645T347 649Q330 649 313 646T279 630Q262 616 248 594T223 535T207 449T201 328Q201 258 206 208T222 122T247 63T279 27Q295 15 312 11T347 7Z" />
<glyph unicode="&#xd6;" glyph-name="Odieresis" horiz-adv-x="696" d="M235 842Q264 842 283 822T302 776Q302 749 283 730T235 710Q206 710 188 729T170 775Q170 802 188 822T235 842ZM461 842Q489 842 508 822T527 776Q527 749 508 730T461 710Q432 710 414
729T395 775Q395 802 413 822T461 842ZM347 670Q418 670 477 646T578 578T643 470T666 328Q666 250 643 187T578 79T477 10T347 -14Q276 -14 218 10T117 79T52 187T29 328Q29 406 52 469T117 577T217 646T347 670ZM347 7Q365 7 383 10T417 27Q434 40 448 62T472
121T488 207T494 328Q494 398 489 448T473 535T448 593T417 630Q400 642 383 645T347 649Q330 649 313 646T279 630Q262 616 248 594T223 535T207 449T201 328Q201 258 206 208T222 122T247 63T279 27Q295 15 312 11T347 7Z" />
<glyph unicode="&#xd7;" glyph-name="multiply" horiz-adv-x="422" d="M232 257L371 115L350 94L210 236L71 93L51 114L190 257L50 401L71 421L211 278L350 421L372 401L232 257Z" />
<glyph unicode="&#xd8;" glyph-name="Oslash" horiz-adv-x="696" d="M347 670Q418 670 477 646Q491 640 505 633L555 718L575 706L525 621Q554 602 578 577Q620 533 643 470T666 328Q666 250 643 187T578 79T477 10T347 -14Q276 -14 217 10Q196 19 177 30L124
-60L105 -48L158 42Q136 58 117 79Q75 124 52 187T29 328Q29 406 52 469T117 577T217 646T347 670ZM347 7Q365 7 383 10T417 27Q434 40 448 62T472 121T488 207T494 328Q494 398 488 448Q483 497 473 533L225 112Q235 83 247 63Q262 40 279 27Q295 15 312 11T347
7ZM448 593Q434 616 417 630Q400 642 383 645T347 649Q330 649 313 646T279 630Q262 616 248 594T223 535T207 449T201 328Q201 258 206 207Q210 171 217 142L463 562Q456 580 448 593Z" />
<glyph unicode="&#xd9;" glyph-name="Ugrave" horiz-adv-x="673" d="M491 699Q430 711 385 720T310 737Q284 744 265 757T246 795Q246 820 260 834T296 849Q315 849 329 842T367 816Q393 796 422 771T497 708L491 699ZM580 222Q580 179 573 142T549 75Q540 58
524 43T483 15T425 -5T350 -13Q310 -13 275 -8T209 10T156 44T118 98Q112 110 107 129T99 168T95 209T93 246V490Q93 523 91 549T83 592Q76 615 64 625T36 641Q19 646 6 646V657H338V646Q331 645 324 644T307 641Q291 636 280 626T260 592Q255 575 253 549T251
490V202Q251 176 254 152T266 107Q283 63 315 45T394 26Q442 26 477 45T529 100Q540 123 545 153T550 218V490Q550 514 549 531T545 561T540 584T533 602Q526 617 515 626T490 640Q475 645 455 646V657H674V646Q663 645 656 644T640 640Q627 636 616 627T597 602Q589
585 585 562T580 490V222Z" />
<glyph unicode="&#xda;" glyph-name="Uacute" horiz-adv-x="673" d="M474 849Q495 849 509 835T524 795Q524 770 505 757T461 737Q430 729 385 720T279 699L274 709Q319 747 348 771T403 816Q425 834 440 841T474 849ZM580 222Q580 179 573 142T549 75Q540 58
524 43T483 15T425 -5T350 -13Q310 -13 275 -8T209 10T156 44T118 98Q112 110 107 129T99 168T95 209T93 246V490Q93 523 91 549T83 592Q76 615 64 625T36 641Q19 646 6 646V657H338V646Q331 645 324 644T307 641Q291 636 280 626T260 592Q255 575 253 549T251
490V202Q251 176 254 152T266 107Q283 63 315 45T394 26Q442 26 477 45T529 100Q540 123 545 153T550 218V490Q550 514 549 531T545 561T540 584T533 602Q526 617 515 626T490 640Q475 645 455 646V657H674V646Q663 645 656 644T640 640Q627 636 616 627T597 602Q589
585 585 562T580 490V222Z" />
<glyph unicode="&#xdb;" glyph-name="Ucircumflex" horiz-adv-x="673" d="M513 706L381 767L248 706L240 714Q249 724 265 744T298 784T330 822T349 844H413Q417 839 431 822T463 785T497 744T522 714L513 706ZM580 222Q580 179 573 142T549 75Q540 58 524 43T483
15T425 -5T350 -13Q310 -13 275 -8T209 10T156 44T118 98Q112 110 107 129T99 168T95 209T93 246V490Q93 523 91 549T83 592Q76 615 64 625T36 641Q19 646 6 646V657H338V646Q331 645 324 644T307 641Q291 636 280 626T260 592Q255 575 253 549T251 490V202Q251
176 254 152T266 107Q283 63 315 45T394 26Q442 26 477 45T529 100Q540 123 545 153T550 218V490Q550 514 549 531T545 561T540 584T533 602Q526 617 515 626T490 640Q475 645 455 646V657H674V646Q663 645 656 644T640 640Q627 636 616 627T597 602Q589 585 585
562T580 490V222Z" />
<glyph unicode="&#xdc;" glyph-name="Udieresis" horiz-adv-x="673" d="M580 222Q580 179 573 142T549 75Q540 58 524 43T483 15T425 -5T350 -13Q310 -13 275 -8T209 10T156 44T118 98Q112 110 107 129T99 168T95 209T93 246V490Q93 523 91 549T83 592Q76 615
64 625T36 641Q19 646 6 646V657H338V646Q331 645 324 644T307 641Q291 636 280 626T260 592Q255 575 253 549T251 490V202Q251 176 254 152T266 107Q283 63 315 45T394 26Q442 26 477 45T529 100Q540 123 545 153T550 218V490Q550 514 549 531T545 561T540 584T533
602Q526 617 515 626T490 640Q475 645 455 646V657H674V646Q663 645 656 644T640 640Q627 636 616 627T597 602Q589 585 585 562T580 490V222ZM267 842Q296 842 315 822T334 776Q334 749 315 730T267 710Q238 710 220 729T202 775Q202 802 220 822T267 842ZM493
842Q521 842 540 822T559 776Q559 749 540 730T493 710Q464 710 446 729T427 775Q427 802 445 822T493 842Z" />
<glyph unicode="&#xdd;" glyph-name="Yacute" horiz-adv-x="648" d="M113 544Q88 593 64 616T1 646V657H338V646Q330 645 320 644T301 639Q273 628 273 600T292 530L389 325H394L481 507Q496 538 503 559T511 598Q511 615 504 624T482 639Q474 642 464 643T445
646V657H651V646Q628 642 610 633T575 608T544 566T511 506L407 287V170Q407 136 409 109T417 65Q424 42 435 32T463 17Q472 14 480 13T495 11V0H161V11Q168 12 176 13T193 17Q209 22 221 32T240 65Q245 82 247 109T249 170V269L113 544ZM464 849Q485 849 499 835T514
795Q514 770 495 757T451 737Q420 729 375 720T269 699L264 709Q309 747 338 771T393 816Q415 834 430 841T464 849Z" />
<glyph unicode="&#xde;" glyph-name="Thorn" horiz-adv-x="618" d="M354 516Q412 516 458 507T535 477T584 424T601 346Q601 298 580 260T523 202Q493 185 445 174T314 162Q305 162 288 163T260 166V142Q262 93 270 65Q277 42 288 32T316 17Q324 14 331 13L345
11V0H15V11Q22 12 30 13T47 17Q63 21 74 31T94 65Q99 82 101 109T103 170V487Q103 522 101 549T94 593Q86 616 75 626T47 641Q29 645 15 647V657H344V647Q331 646 316 641Q300 635 289 626T270 593Q265 576 263 555T260 516H354ZM437 346Q437 420 412 456T332 492Q322
492 311 491T291 486Q280 481 275 474T267 455Q264 444 263 432T261 396V192Q270 189 287 188T314 186Q356 186 377 196T413 229Q426 249 431 283T437 346Z" />
<glyph unicode="&#xdf;" glyph-name="germandbls" horiz-adv-x="573" d="M560 134Q560 102 549 76T517 31T468 2T405 -8Q376 -8 350 1T303 28H300L284 2H275L269 146H280Q298 80 328 44T404 8Q436 8 450 23T464 64Q464 93 440 112T373 158Q352 170 334 182T301
210T279 244T271 292Q271 321 281 343T306 383T339 420T372 459T398 506T408 570Q408 590 404 608T388 641T357 663T309 671Q248 671 227 637T206 535V127Q206 101 208 77T216 41Q221 24 227 19T243 10V0H7V10Q20 12 32 16Q42 21 48 27T60 50Q64 61 64 84T65 127V411H9V438H65V478Q65
531 83 570T133 636T208 676T304 689Q392 689 442 661T493 576Q493 541 472 518T424 473T377 430T355 378Q355 352 377 336T447 291Q474 275 495 261T530 230T552 190T560 134Z" />
<glyph unicode="&#xe0;" glyph-name="agrave" horiz-adv-x="460" d="M351 -9Q323 -9 307 -4T279 11Q271 17 266 29T260 60H257Q246 24 215 8T139 -9Q117 -9 96 -3T59 17T32 52T22 104Q22 130 29 146T50 176Q69 196 100 206T158 224Q215 240 234 258T255 300V316Q255
327 255 337T256 357V372Q256 406 246 417T208 429Q189 429 181 423T169 411Q165 403 165 387T162 351Q159 295 103 295Q77 295 62 308T46 347Q46 360 50 371T62 392Q81 416 123 431T214 447Q297 447 345 420T394 327V288Q394 260 394 226T393 158V106Q393 71 395
56T403 32Q412 22 429 22Q444 22 455 28L458 18Q450 10 422 1T351 -9ZM254 257Q246 246 236 240T215 226Q201 218 192 209T176 188Q170 175 167 154T164 109Q164 67 175 50T207 33Q223 33 237 51T253 101L254 257ZM316 487Q260 514 221 531T155 563Q134 574 121
589T107 627Q107 651 122 664T159 677Q179 677 194 665T228 628Q237 615 247 602T268 573T292 538T323 495L316 487Z" />
<glyph unicode="&#xe1;" glyph-name="aacute" horiz-adv-x="460" d="M351 -9Q323 -9 307 -4T279 11Q271 17 266 29T260 60H257Q246 24 215 8T139 -9Q117 -9 96 -3T59 17T32 52T22 104Q22 130 29 146T50 176Q69 196 100 206T158 224Q215 240 234 258T255 300V316Q255
327 255 337T256 357V372Q256 406 246 417T208 429Q189 429 181 423T169 411Q165 403 165 387T162 351Q159 295 103 295Q77 295 62 308T46 347Q46 360 50 371T62 392Q81 416 123 431T214 447Q297 447 345 420T394 327V288Q394 260 394 226T393 158V106Q393 71 395
56T403 32Q412 22 429 22Q444 22 455 28L458 18Q450 10 422 1T351 -9ZM254 257Q246 246 236 240T215 226Q201 218 192 209T176 188Q170 175 167 154T164 109Q164 67 175 50T207 33Q223 33 237 51T253 101L254 257ZM352 623Q352 603 339 589T305 563Q279 549 240
532T144 487L137 495Q154 519 167 538T192 573T212 602T232 628Q250 651 264 664T298 677Q352 677 352 623Z" />
<glyph unicode="&#xe2;" glyph-name="acircumflex" horiz-adv-x="460" d="M351 -9Q323 -9 307 -4T279 11Q271 17 266 29T260 60H257Q246 24 215 8T139 -9Q117 -9 96 -3T59 17T32 52T22 104Q22 130 29 146T50 176Q69 196 100 206T158 224Q215 240 234 258T255 300V316Q255
327 255 337T256 357V372Q256 406 246 417T208 429Q189 429 181 423T169 411Q165 403 165 387T162 351Q159 295 103 295Q77 295 62 308T46 347Q46 360 50 371T62 392Q81 416 123 431T214 447Q297 447 345 420T394 327V288Q394 260 394 226T393 158V106Q393 71 395
56T403 32Q412 22 429 22Q444 22 455 28L458 18Q450 10 422 1T351 -9ZM254 257Q246 246 236 240T215 226Q201 218 192 209T176 188Q170 175 167 154T164 109Q164 67 175 50T207 33Q223 33 237 51T253 101L254 257ZM351 493L221 581L92 493L82 502Q90 513 106 538T140
591T172 640T191 668H252Q256 662 270 640T302 591T336 539T361 502L351 493Z" />
<glyph unicode="&#xe3;" glyph-name="atilde" horiz-adv-x="460" d="M351 -9Q323 -9 307 -4T279 11Q271 17 266 29T260 60H257Q246 24 215 8T139 -9Q117 -9 96 -3T59 17T32 52T22 104Q22 130 29 146T50 176Q69 196 100 206T158 224Q215 240 234 258T255 300V316Q255
327 255 337T256 357V372Q256 406 246 417T208 429Q189 429 181 423T169 411Q165 403 165 387T162 351Q159 295 103 295Q77 295 62 308T46 347Q46 360 50 371T62 392Q81 416 123 431T214 447Q297 447 345 420T394 327V288Q394 260 394 226T393 158V106Q393 71 395
56T403 32Q412 22 429 22Q444 22 455 28L458 18Q450 10 422 1T351 -9ZM254 257Q246 246 236 240T215 226Q201 218 192 209T176 188Q170 175 167 154T164 109Q164 67 175 50T207 33Q223 33 237 51T253 101L254 257ZM386 655Q381 633 374 611T354 570T324 539T281
527Q265 527 248 531T214 540T182 549T156 553Q133 553 117 544T90 509L75 511Q80 532 88 554T109 595T139 625T180 637Q194 637 210 633T243 625T275 616T301 612Q328 612 344 622T370 656L386 655Z" />
<glyph unicode="&#xe4;" glyph-name="adieresis" horiz-adv-x="460" d="M351 -9Q323 -9 307 -4T279 11Q271 17 266 29T260 60H257Q246 24 215 8T139 -9Q117 -9 96 -3T59 17T32 52T22 104Q22 130 29 146T50 176Q69 196 100 206T158 224Q215 240 234 258T255 300V316Q255
327 255 337T256 357V372Q256 406 246 417T208 429Q189 429 181 423T169 411Q165 403 165 387T162 351Q159 295 103 295Q77 295 62 308T46 347Q46 360 50 371T62 392Q81 416 123 431T214 447Q297 447 345 420T394 327V288Q394 260 394 226T393 158V106Q393 71 395
56T403 32Q412 22 429 22Q444 22 455 28L458 18Q450 10 422 1T351 -9ZM254 257Q246 246 236 240T215 226Q201 218 192 209T176 188Q170 175 167 154T164 109Q164 67 175 50T207 33Q223 33 237 51T253 101L254 257ZM133 646Q161 646 179 627T198 582Q198 556 180
537T133 518Q106 518 88 536T70 581Q70 607 88 626T133 646ZM320 646Q348 646 366 627T385 582Q385 556 367 537T320 518Q292 518 274 536T256 581Q256 607 274 626T320 646Z" />
<glyph unicode="&#xe5;" glyph-name="aring" horiz-adv-x="460" d="M351 -9Q323 -9 307 -4T279 11Q271 17 266 29T260 60H257Q246 24 215 8T139 -9Q117 -9 96 -3T59 17T32 52T22 104Q22 130 29 146T50 176Q69 196 100 206T158 224Q215 240 234 258T255 300V316Q255
327 255 337T256 357V372Q256 406 246 417T208 429Q189 429 181 423T169 411Q165 403 165 387T162 351Q159 295 103 295Q77 295 62 308T46 347Q46 360 50 371T62 392Q81 416 123 431T214 447Q297 447 345 420T394 327V288Q394 260 394 226T393 158V106Q393 71 395
56T403 32Q412 22 429 22Q444 22 455 28L458 18Q450 10 422 1T351 -9ZM254 257Q246 246 236 240T215 226Q201 218 192 209T176 188Q170 175 167 154T164 109Q164 67 175 50T207 33Q223 33 237 51T253 101L254 257ZM311 590Q311 570 304 554T284 527T256 510T223
503Q188 503 162 526T135 590Q135 630 161 653T222 677Q257 677 283 654T311 590ZM281 590Q281 619 265 635T222 652Q196 652 180 636T163 590Q163 561 179 545T221 529Q247 529 264 544T281 590Z" />
<glyph unicode="&#xe6;" glyph-name="ae" horiz-adv-x="678" d="M149 -9Q127 -9 105 -3T64 18T34 53T22 104Q22 130 29 146T50 176Q59 186 72 193T99 206T129 216T158 224Q214 240 233 259T255 301V317Q255 327 255 337T256 357V372Q256 406 246 417T208 429Q194
429 183 425T168 411Q165 403 165 388T162 352Q160 325 147 310T103 295Q77 295 62 308T46 347Q46 373 62 392Q72 405 89 415T126 433T170 443T214 447Q256 447 289 433T342 395Q354 407 369 417T402 433T436 443T470 447Q516 447 551 433T611 395T648 338T661
269V250Q661 241 660 234H402Q402 192 405 161T415 108T429 71T447 46Q458 35 474 28T510 21Q539 21 561 32T599 60T625 99T642 141L658 136Q650 106 636 80T600 34T546 3T475 -9Q436 -9 398 2T331 36Q316 48 305 61T282 93Q267 39 231 15T149 -9ZM532 290Q532
333 527 364T510 413Q495 429 472 429Q461 429 451 426T432 412Q418 397 411 360T402 254H504Q520 254 526 262T532 290ZM254 257Q246 246 236 240T214 226Q187 211 176 188Q169 175 166 154T163 109Q163 67 175 49T207 30Q224 30 237 48T253 99L254 257Z" />
<glyph unicode="&#xe7;" glyph-name="ccedilla" horiz-adv-x="428" d="M335 -112Q335 -135 325 -150T299 -176T262 -190T219 -194Q198 -194 174 -188T137 -174L144 -162Q155 -167 170 -170T201 -174Q227 -174 243 -160T259 -114Q259 -85 247 -73T219 -60Q211 -60
204 -62T190 -71L174 -64L191 -4Q172 -1 155 5Q117 20 91 44Q59 76 40 120T21 222Q21 277 41 319T93 390T167 432T252 447Q304 447 337 434T385 406Q411 379 411 347Q411 319 394 306T357 293Q325 293 312 312T293 365Q288 401 279 415T252 430Q238 430 225 424T203
407Q187 386 179 340T170 230Q170 161 180 119T207 51Q218 34 233 28T265 21Q296 21 318 32T357 60T383 99T402 142L418 136Q410 107 397 81T362 35T312 3T244 -9Q227 -9 211 -7L199 -51Q207 -46 221 -42T246 -38Q289 -38 312 -57T335 -112Z" />
<glyph unicode="&#xe8;" glyph-name="egrave" horiz-adv-x="447" d="M274 254Q290 254 296 262T303 290Q303 334 298 365T280 413Q267 429 242 429Q230 429 220 426T201 412Q187 397 180 360T171 254H274ZM428 136Q421 106 407 80T369 34T315 3T243 -9Q205 -9
169 1T102 35Q64 64 43 108T21 218Q21 276 40 319T90 390T160 433T239 447Q288 447 324 432T385 392T420 334T432 266Q432 258 432 249T430 234H171Q171 192 174 161T184 108T198 71T216 46Q227 35 244 28T280 21Q309 21 331 32T369 60T396 99T413 141L428 136ZM332
487Q276 514 237 531T171 563Q150 574 137 589T123 627Q123 651 138 664T175 677Q195 677 210 665T244 628Q253 615 263 602T284 573T308 538T339 495L332 487Z" />
<glyph unicode="&#xe9;" glyph-name="eacute" horiz-adv-x="447" d="M360 623Q360 603 347 589T313 563Q287 549 248 532T152 487L145 495Q162 519 175 538T200 573T220 602T240 628Q258 651 272 664T306 677Q360 677 360 623ZM274 254Q290 254 296 262T303 290Q303
334 298 365T280 413Q267 429 242 429Q230 429 220 426T201 412Q187 397 180 360T171 254H274ZM428 136Q421 106 407 80T369 34T315 3T243 -9Q205 -9 169 1T102 35Q64 64 43 108T21 218Q21 276 40 319T90 390T160 433T239 447Q288 447 324 432T385 392T420 334T432
266Q432 258 432 249T430 234H171Q171 192 174 161T184 108T198 71T216 46Q227 35 244 28T280 21Q309 21 331 32T369 60T396 99T413 141L428 136Z" />
<glyph unicode="&#xea;" glyph-name="ecircumflex" horiz-adv-x="447" d="M366 493L236 581L107 493L97 502Q105 513 121 538T155 591T187 640T206 668H267Q271 662 285 640T317 591T351 539T376 502L366 493ZM274 254Q290 254 296 262T303 290Q303 334 298 365T280
413Q267 429 242 429Q230 429 220 426T201 412Q187 397 180 360T171 254H274ZM428 136Q421 106 407 80T369 34T315 3T243 -9Q205 -9 169 1T102 35Q64 64 43 108T21 218Q21 276 40 319T90 390T160 433T239 447Q288 447 324 432T385 392T420 334T432 266Q432 258
432 249T430 234H171Q171 192 174 161T184 108T198 71T216 46Q227 35 244 28T280 21Q309 21 331 32T369 60T396 99T413 141L428 136Z" />
<glyph unicode="&#xeb;" glyph-name="edieresis" horiz-adv-x="447" d="M147 646Q175 646 193 627T212 582Q212 556 194 537T147 518Q120 518 102 536T84 581Q84 607 102 626T147 646ZM334 646Q362 646 380 627T399 582Q399 556 381 537T334 518Q306 518 288 536T270
581Q270 607 288 626T334 646ZM274 254Q290 254 296 262T303 290Q303 334 298 365T280 413Q267 429 242 429Q230 429 220 426T201 412Q187 397 180 360T171 254H274ZM428 136Q421 106 407 80T369 34T315 3T243 -9Q205 -9 169 1T102 35Q64 64 43 108T21 218Q21 276
40 319T90 390T160 433T239 447Q288 447 324 432T385 392T420 334T432 266Q432 258 432 249T430 234H171Q171 192 174 161T184 108T198 71T216 46Q227 35 244 28T280 21Q309 21 331 32T369 60T396 99T413 141L428 136Z" />
<glyph unicode="&#xec;" glyph-name="igrave" horiz-adv-x="286" d="M16 0V11Q22 12 28 13T41 16Q50 21 56 27T68 50Q72 61 72 81T73 120V318Q73 333 73 354T70 387Q68 400 63 406T52 418Q44 423 36 424T19 427V438H209Q216 438 216 431Q215 418 215 402T214 364V120Q214
101 215 81T219 50Q224 33 230 27T247 16Q253 14 259 13T272 11V0H16ZM479 487Q423 514 384 531T318 563Q297 574 284 589T270 627Q270 651 285 664T322 677Q342 677 357 665T391 628Q400 615 410 602T431 573T455 538T486 495L479 487Z" />
<glyph unicode="&#xed;" glyph-name="iacute" horiz-adv-x="286" d="M521 623Q521 603 508 589T474 563Q448 549 409 532T313 487L306 495Q323 519 336 538T361 573T381 602T401 628Q419 651 433 664T467 677Q521 677 521 623ZM16 0V11Q22 12 28 13T41 16Q50 21
56 27T68 50Q72 61 72 81T73 120V318Q73 333 73 354T70 387Q68 400 63 406T52 418Q44 423 36 424T19 427V438H209Q216 438 216 431Q215 418 215 402T214 364V120Q214 101 215 81T219 50Q224 33 230 27T247 16Q253 14 259 13T272 11V0H16Z" />
<glyph unicode="&#xee;" glyph-name="icircumflex" horiz-adv-x="286" d="M524 493L394 581L265 493L255 502Q263 513 279 538T313 591T345 640T364 668H425Q429 662 443 640T475 591T509 539T534 502L524 493ZM16 0V11Q22 12 28 13T41 16Q50 21 56 27T68 50Q72
61 72 81T73 120V318Q73 333 73 354T70 387Q68 400 63 406T52 418Q44 423 36 424T19 427V438H209Q216 438 216 431Q215 418 215 402T214 364V120Q214 101 215 81T219 50Q224 33 230 27T247 16Q253 14 259 13T272 11V0H16Z" />
<glyph unicode="&#xef;" glyph-name="idieresis" horiz-adv-x="286" d="M53 648Q80 648 98 629T117 584Q117 558 99 539T53 520Q25 520 7 538T-11 583Q-11 609 7 628T53 648ZM225 648Q252 648 270 629T289 584Q289 558 271 539T225 520Q197 520 179 538T161 583Q161
609 179 628T225 648ZM16 0V11Q22 12 28 13T41 16Q50 21 56 27T68 50Q72 61 72 81T73 120V318Q73 333 73 354T70 387Q68 400 63 406T52 418Q44 423 36 424T19 427V438H209Q216 438 216 431Q215 418 215 402T214 364V120Q214 101 215 81T219 50Q224 33 230 27T247
16Q253 14 259 13T272 11V0H16Z" />
<glyph unicode="&#xf0;" glyph-name="eth" horiz-adv-x="496" d="M246 447Q263 447 277 443T306 424Q286 499 245 557L138 502V523L234 573Q184 637 129 682L143 684Q193 665 251 629Q271 616 291 602L383 650V629L307 589Q334 566 360 539Q410 485 443 413T476
251Q476 182 457 133T405 53T332 6T248 -9Q204 -9 164 6T91 51T40 122T21 219Q21 273 40 315T91 387T163 431T246 447ZM327 220Q327 299 319 345T294 412Q285 423 272 427T248 431Q236 431 223 427T201 412Q184 392 176 346T168 219Q168 139 176 93T201 27Q211
15 223 11T248 7Q260 7 272 11T294 26Q311 46 319 93T327 220Z" />
<glyph unicode="&#xf1;" glyph-name="ntilde" horiz-adv-x="558" d="M489 127Q489 107 490 85T494 50Q499 33 505 27T522 16Q533 12 547 10V0H297V10Q307 11 320 16Q331 21 337 30T346 56Q348 67 348 82T349 115V330Q349 354 346 368T335 390Q328 398 320 401T296
404Q277 404 254 384T222 314Q214 279 214 237V115Q214 98 214 83T217 55Q220 38 225 30T243 16Q254 11 266 10V0H16V10Q21 11 28 12T41 16Q51 21 57 27T69 50Q72 61 72 84T73 127V318Q73 333 73 354T70 387Q68 400 63 406T52 418Q44 423 36 424T20 427V438H208Q214
438 214 431Q214 427 214 416T213 392T213 367T212 348H215Q224 373 237 390T265 418Q285 432 311 439T360 447Q394 447 418 439T459 409Q473 392 481 368T489 309V127ZM438 655Q433 633 426 611T406 570T376 539T333 527Q317 527 300 531T266 540T234 549T208
553Q185 553 169 544T142 509L127 511Q132 532 140 554T161 595T191 625T232 637Q246 637 262 633T295 625T327 616T353 612Q380 612 396 622T422 656L438 655Z" />
<glyph unicode="&#xf2;" glyph-name="ograve" horiz-adv-x="498" d="M22 219Q22 273 41 315T92 387T165 431T249 447Q292 447 333 432T405 387T456 316T476 219Q476 165 457 123T406 51T333 7T249 -9Q205 -9 165 6T92 51T41 122T22 219ZM328 219Q328 300 320 346T294
413Q285 424 273 427T249 431Q237 431 225 427T204 413Q186 393 178 347T169 219Q169 138 177 92T203 25Q213 14 225 11T249 7Q261 7 272 10T294 25Q311 45 319 91T328 219ZM330 487Q274 514 235 531T169 563Q148 574 135 589T121 627Q121 651 136 664T173 677Q193
677 208 665T242 628Q251 615 261 602T282 573T306 538T337 495L330 487Z" />
<glyph unicode="&#xf3;" glyph-name="oacute" horiz-adv-x="498" d="M374 623Q374 603 361 589T327 563Q301 549 262 532T166 487L159 495Q176 519 189 538T214 573T234 602T254 628Q272 651 286 664T320 677Q374 677 374 623ZM22 219Q22 273 41 315T92 387T165
431T249 447Q292 447 333 432T405 387T456 316T476 219Q476 165 457 123T406 51T333 7T249 -9Q205 -9 165 6T92 51T41 122T22 219ZM328 219Q328 300 320 346T294 413Q285 424 273 427T249 431Q237 431 225 427T204 413Q186 393 178 347T169 219Q169 138 177 92T203
25Q213 14 225 11T249 7Q261 7 272 10T294 25Q311 45 319 91T328 219Z" />
<glyph unicode="&#xf4;" glyph-name="ocircumflex" horiz-adv-x="498" d="M375 493L245 581L116 493L106 502Q114 513 130 538T164 591T196 640T215 668H276Q280 662 294 640T326 591T360 539T385 502L375 493ZM22 219Q22 273 41 315T92 387T165 431T249 447Q292
447 333 432T405 387T456 316T476 219Q476 165 457 123T406 51T333 7T249 -9Q205 -9 165 6T92 51T41 122T22 219ZM328 219Q328 300 320 346T294 413Q285 424 273 427T249 431Q237 431 225 427T204 413Q186 393 178 347T169 219Q169 138 177 92T203 25Q213 14 225
11T249 7Q261 7 272 10T294 25Q311 45 319 91T328 219Z" />
<glyph unicode="&#xf5;" glyph-name="otilde" horiz-adv-x="498" d="M22 219Q22 273 41 315T92 387T165 431T249 447Q292 447 333 432T405 387T456 316T476 219Q476 165 457 123T406 51T333 7T249 -9Q205 -9 165 6T92 51T41 122T22 219ZM328 219Q328 300 320 346T294
413Q285 424 273 427T249 431Q237 431 225 427T204 413Q186 393 178 347T169 219Q169 138 177 92T203 25Q213 14 225 11T249 7Q261 7 272 10T294 25Q311 45 319 91T328 219ZM410 655Q405 633 398 611T378 570T348 539T305 527Q289 527 272 531T238 540T206 549T180
553Q157 553 141 544T114 509L99 511Q104 532 112 554T133 595T163 625T204 637Q218 637 234 633T267 625T299 616T325 612Q352 612 368 622T394 656L410 655Z" />
<glyph unicode="&#xf6;" glyph-name="odieresis" horiz-adv-x="498" d="M160 646Q188 646 206 627T225 582Q225 556 207 537T160 518Q133 518 115 536T97 581Q97 607 115 626T160 646ZM347 646Q375 646 393 627T412 582Q412 556 394 537T347 518Q319 518 301 536T283
581Q283 607 301 626T347 646ZM22 219Q22 273 41 315T92 387T165 431T249 447Q292 447 333 432T405 387T456 316T476 219Q476 165 457 123T406 51T333 7T249 -9Q205 -9 165 6T92 51T41 122T22 219ZM328 219Q328 300 320 346T294 413Q285 424 273 427T249 431Q237
431 225 427T204 413Q186 393 178 347T169 219Q169 138 177 92T203 25Q213 14 225 11T249 7Q261 7 272 10T294 25Q311 45 319 91T328 219Z" />
<glyph unicode="&#xf7;" glyph-name="divide" horiz-adv-x="497" d="M319 407Q319 374 297 357T250 340Q225 340 204 358T182 407Q182 437 203 456T250 475Q275 475 297 457T319 407ZM32 247V276H468V247H32ZM319 124Q319 91 297 74T250 57Q225 57 204 75T182
124Q182 154 203 173T250 192Q275 192 297 174T319 124Z" />
<glyph unicode="&#xf8;" glyph-name="oslash" horiz-adv-x="498" d="M22 219Q22 273 41 315T92 387T165 431T249 447Q289 447 328 433L363 517L382 508L347 425Q379 411 405 387Q437 358 456 316T476 219Q476 165 457 123T406 51T333 7T249 -9Q208 -9 169 4L134
-80L115 -71L150 12Q118 27 92 51Q60 80 41 122T22 219ZM294 413Q285 424 273 427T249 431Q237 431 225 427T204 413Q186 393 178 347T169 219Q169 138 177 91L179 81L309 388Q302 403 294 413ZM328 219Q328 300 320 346Q319 352 318 357L188 50Q195 34 203 25Q213
14 225 11T249 7Q261 7 272 10T294 25Q311 45 319 91T328 219Z" />
<glyph unicode="&#xf9;" glyph-name="ugrave" horiz-adv-x="542" d="M64 316Q64 334 64 356T60 388Q56 402 51 409T39 420Q32 424 24 425T7 428V438H199Q206 438 206 430Q206 421 206 391T205 324V110Q205 65 219 47Q233 29 258 29Q282 29 304 56T331 137Q333
154 333 168T334 203V328Q334 344 334 359T331 384Q326 412 311 420Q304 424 295 425T277 428V438H469Q476 438 476 430Q476 421 476 392T475 328V116Q475 101 475 83T478 53Q484 27 499 19Q506 14 514 13T531 10V0Q528 0 499 0T436 -1T373 -2T344 -3Q339 -3 339
1Q338 3 338 10V21Q337 22 337 32V85H334Q326 62 317 47T291 19Q272 4 249 -2T203 -9Q173 -9 146 -2T100 23Q81 43 73 70T65 131L64 316ZM346 487Q290 514 251 531T185 563Q164 574 151 589T137 627Q137 651 152 664T189 677Q209 677 224 665T258 628Q267 615 277
602T298 573T322 538T353 495L346 487Z" />
<glyph unicode="&#xfa;" glyph-name="uacute" horiz-adv-x="542" d="M397 623Q397 603 384 589T350 563Q324 549 285 532T189 487L182 495Q199 519 212 538T237 573T257 602T277 628Q295 651 309 664T343 677Q397 677 397 623ZM64 316Q64 334 64 356T60 388Q56
402 51 409T39 420Q32 424 24 425T7 428V438H199Q206 438 206 430Q206 421 206 391T205 324V110Q205 65 219 47Q233 29 258 29Q282 29 304 56T331 137Q333 154 333 168T334 203V328Q334 344 334 359T331 384Q326 412 311 420Q304 424 295 425T277 428V438H469Q476
438 476 430Q476 421 476 392T475 328V116Q475 101 475 83T478 53Q484 27 499 19Q506 14 514 13T531 10V0Q528 0 499 0T436 -1T373 -2T344 -3Q339 -3 339 1Q338 3 338 10V21Q337 22 337 32V85H334Q326 62 317 47T291 19Q272 4 249 -2T203 -9Q173 -9 146 -2T100
23Q81 43 73 70T65 131L64 316Z" />
<glyph unicode="&#xfb;" glyph-name="ucircumflex" horiz-adv-x="542" d="M397 493L267 581L138 493L128 502Q136 513 152 538T186 591T218 640T237 668H298Q302 662 316 640T348 591T382 539T407 502L397 493ZM64 316Q64 334 64 356T60 388Q56 402 51 409T39
420Q32 424 24 425T7 428V438H199Q206 438 206 430Q206 421 206 391T205 324V110Q205 65 219 47Q233 29 258 29Q282 29 304 56T331 137Q333 154 333 168T334 203V328Q334 344 334 359T331 384Q326 412 311 420Q304 424 295 425T277 428V438H469Q476 438 476 430Q476
421 476 392T475 328V116Q475 101 475 83T478 53Q484 27 499 19Q506 14 514 13T531 10V0Q528 0 499 0T436 -1T373 -2T344 -3Q339 -3 339 1Q338 3 338 10V21Q337 22 337 32V85H334Q326 62 317 47T291 19Q272 4 249 -2T203 -9Q173 -9 146 -2T100 23Q81 43 73 70T65
131L64 316Z" />
<glyph unicode="&#xfc;" glyph-name="udieresis" horiz-adv-x="542" d="M165 646Q193 646 211 627T230 582Q230 556 212 537T165 518Q138 518 120 536T102 581Q102 607 120 626T165 646ZM352 646Q380 646 398 627T417 582Q417 556 399 537T352 518Q324 518 306
536T288 581Q288 607 306 626T352 646ZM64 316Q64 334 64 356T60 388Q56 402 51 409T39 420Q32 424 24 425T7 428V438H199Q206 438 206 430Q206 421 206 391T205 324V110Q205 65 219 47Q233 29 258 29Q282 29 304 56T331 137Q333 154 333 168T334 203V328Q334 344
334 359T331 384Q326 412 311 420Q304 424 295 425T277 428V438H469Q476 438 476 430Q476 421 476 392T475 328V116Q475 101 475 83T478 53Q484 27 499 19Q506 14 514 13T531 10V0Q528 0 499 0T436 -1T373 -2T344 -3Q339 -3 339 1Q338 3 338 10V21Q337 22 337 32V85H334Q326
62 317 47T291 19Q272 4 249 -2T203 -9Q173 -9 146 -2T100 23Q81 43 73 70T65 131L64 316Z" />
<glyph unicode="&#xfd;" glyph-name="yacute" horiz-adv-x="444" d="M228 -78Q216 -110 203 -134T174 -175Q139 -213 84 -213Q48 -213 22 -195T-4 -136Q-4 -114 11 -97T55 -80Q78 -80 92 -91T115 -125Q122 -142 126 -152T142 -162Q170 -162 203 -80Q208 -66 212
-55T216 -42Q218 -37 218 -30T214 -15L88 304Q76 335 67 353T52 382Q45 396 38 404T21 418Q14 423 5 425T-12 428V438H265V428Q257 427 249 426T234 420Q218 410 218 389Q218 375 223 360T236 321L293 151H295L356 317Q365 342 368 358T372 389Q372 401 367 408T354
420Q347 424 339 425T324 428V438H470V428Q453 426 438 417T412 391Q405 381 399 366T381 321Q375 304 362 270T333 194T300 106T267 22T241 -44T228 -78ZM399 623Q399 603 386 589T352 563Q326 549 287 532T191 487L184 495Q201 519 214 538T239 573T259 602T279
628Q297 651 311 664T345 677Q399 677 399 623Z" />
<glyph unicode="&#xfe;" glyph-name="thorn" horiz-adv-x="521" d="M53 589Q53 601 53 612T50 632Q47 645 41 652T27 664Q12 671 -5 673V684H188Q195 684 195 676Q195 671 195 659T194 632T194 600T193 569V371H196Q210 406 243 426T314 447Q351 447 385 434T444
393T485 322T500 219Q500 165 485 123T442 51T377 6T296 -9Q263 -9 241 -2T198 22H194V-86Q194 -106 194 -125T199 -159Q203 -176 210 -183T231 -197Q236 -199 242 -200T256 -202V-213H-7V-202L5 -200Q11 -199 17 -197Q31 -191 37 -184T49 -159Q52 -145 52 -126T53
-86V589ZM352 222Q352 280 348 317T334 375T312 405T279 414Q241 414 218 375T194 275V155Q194 122 200 92T219 46Q244 14 279 14Q318 14 335 61T352 222Z" />
<glyph unicode="&#xff;" glyph-name="ydieresis" horiz-adv-x="444" d="M228 -78Q216 -110 203 -134T174 -175Q139 -213 84 -213Q48 -213 22 -195T-4 -136Q-4 -114 11 -97T55 -80Q78 -80 92 -91T115 -125Q122 -142 126 -152T142 -162Q170 -162 203 -80Q208 -66
212 -55T216 -42Q218 -37 218 -30T214 -15L88 304Q76 335 67 353T52 382Q45 396 38 404T21 418Q14 423 5 425T-12 428V438H265V428Q257 427 249 426T234 420Q218 410 218 389Q218 375 223 360T236 321L293 151H295L356 317Q365 342 368 358T372 389Q372 401 367
408T354 420Q347 424 339 425T324 428V438H470V428Q453 426 438 417T412 391Q405 381 399 366T381 321Q375 304 362 270T333 194T300 106T267 22T241 -44T228 -78ZM164 646Q192 646 210 627T229 582Q229 556 211 537T164 518Q137 518 119 536T101 581Q101 607 119
626T164 646ZM351 646Q379 646 397 627T416 582Q416 556 398 537T351 518Q323 518 305 536T287 581Q287 607 305 626T351 646Z" />
<glyph unicode="&#x100;" glyph-name="Amacron" horiz-adv-x="628" d="M245 457H241L160 228H321L245 457ZM-16 12Q-5 14 5 16T26 25Q37 32 46 41T65 66Q75 80 84 101T104 152L289 662H347L500 211Q517 160 532 122T562 60Q573 43 584 34T608 20Q617 17 625 15T642
11V0H292V12Q301 13 312 15T330 21Q344 26 354 37T364 69Q364 89 358 109T344 156L329 205H152L133 148Q125 127 121 108T117 74Q117 52 126 39T149 21Q160 16 170 15T189 12V0H-16V12ZM180 715V766H454V715H180Z" />
<glyph unicode="&#x101;" glyph-name="amacron" horiz-adv-x="460" d="M351 -9Q323 -9 307 -4T279 11Q271 17 266 29T260 60H257Q246 24 215 8T139 -9Q117 -9 96 -3T59 17T32 52T22 104Q22 130 29 146T50 176Q69 196 100 206T158 224Q215 240 234 258T255 300V316Q255
327 255 337T256 357V372Q256 406 246 417T208 429Q189 429 181 423T169 411Q165 403 165 387T162 351Q159 295 103 295Q77 295 62 308T46 347Q46 360 50 371T62 392Q81 416 123 431T214 447Q297 447 345 420T394 327V288Q394 260 394 226T393 158V106Q393 71 395
56T403 32Q412 22 429 22Q444 22 455 28L458 18Q450 10 422 1T351 -9ZM254 257Q246 246 236 240T215 226Q201 218 192 209T176 188Q170 175 167 154T164 109Q164 67 175 50T207 33Q223 33 237 51T253 101L254 257ZM107 545V596H351V545H107Z" />
<glyph unicode="&#x102;" glyph-name="Abreve" horiz-adv-x="628" d="M245 457H241L160 228H321L245 457ZM-16 12Q-5 14 5 16T26 25Q37 32 46 41T65 66Q75 80 84 101T104 152L289 662H347L500 211Q517 160 532 122T562 60Q573 43 584 34T608 20Q617 17 625 15T642
11V0H292V12Q301 13 312 15T330 21Q344 26 354 37T364 69Q364 89 358 109T344 156L329 205H152L133 148Q125 127 121 108T117 74Q117 52 126 39T149 21Q160 16 170 15T189 12V0H-16V12ZM456 840Q445 771 409 737T315 702Q258 702 222 736T175 840L188 846Q211 810
244 794T315 778Q354 778 387 794T443 846L456 840Z" />
<glyph unicode="&#x103;" glyph-name="abreve" horiz-adv-x="460" d="M351 -9Q323 -9 307 -4T279 11Q271 17 266 29T260 60H257Q246 24 215 8T139 -9Q117 -9 96 -3T59 17T32 52T22 104Q22 130 29 146T50 176Q69 196 100 206T158 224Q215 240 234 258T255 300V316Q255
327 255 337T256 357V372Q256 406 246 417T208 429Q189 429 181 423T169 411Q165 403 165 387T162 351Q159 295 103 295Q77 295 62 308T46 347Q46 360 50 371T62 392Q81 416 123 431T214 447Q297 447 345 420T394 327V288Q394 260 394 226T393 158V106Q393 71 395
56T403 32Q412 22 429 22Q444 22 455 28L458 18Q450 10 422 1T351 -9ZM254 257Q246 246 236 240T215 226Q201 218 192 209T176 188Q170 175 167 154T164 109Q164 67 175 50T207 33Q223 33 237 51T253 101L254 257ZM353 656Q348 589 317 550T229 511Q173 511 142
550T105 656L117 661Q134 622 164 605T229 587Q263 587 293 604T340 661L353 656Z" />
<glyph unicode="&#x104;" glyph-name="Aogonek" horiz-adv-x="628" d="M245 457H241L160 228H321L245 457ZM189 -135Q189 -115 199 -100T225 -71T262 -47T303 -23Q340 -1 352 17T365 61Q365 87 359 108T344 156L329 205H152L133 148Q125 127 121 108T117 74Q117
52 126 39T149 21Q160 16 170 15T189 12V0H-16V12Q-5 14 5 16T26 25Q37 32 46 41T65 66Q75 80 84 101T104 152L289 662H347L500 211Q517 160 532 122T562 60Q573 43 584 34T608 20Q617 17 625 15T642 11V0H451Q425 0 408 -1T377 -5T356 -12T339 -23Q315 -41 305
-70T295 -133Q295 -168 312 -184T362 -204V-215Q274 -220 232 -198T189 -135Z" />
<glyph unicode="&#x105;" glyph-name="aogonek" horiz-adv-x="460" d="M249 -133Q249 -112 260 -96T290 -64T335 -35T389 -6Q381 -8 371 -8T352 -9Q324 -9 307 -4T279 11Q271 17 266 29T260 60H257Q246 24 215 8T139 -9Q117 -9 96 -3T59 17T32 52T22 104Q22 130
29 146T50 176Q69 196 100 206T158 224Q215 240 234 258T255 300V316Q255 327 255 337T256 357V372Q256 406 246 417T208 429Q189 429 181 423T169 411Q165 403 165 387T162 351Q159 295 103 295Q77 295 62 308T46 347Q46 360 50 371T62 392Q81 416 123 431T214
447Q297 447 345 420T394 327V288Q394 260 394 226T393 158V106Q393 71 395 56T403 32Q412 22 429 22Q444 22 455 28L458 18Q453 13 446 10T426 0Q408 -8 395 -22T372 -55T359 -93T355 -132Q355 -168 372 -184T422 -204V-215Q334 -220 292 -198T249 -133ZM207 33Q223
33 237 51T253 101L254 257Q246 246 236 240T215 226Q201 218 192 209T176 188Q170 175 167 154T164 109Q164 67 175 50T207 33Z" />
<glyph unicode="&#x106;" glyph-name="Cacute" horiz-adv-x="632" d="M368 648Q341 648 314 638T268 605Q253 589 241 566T219 509T205 432T200 329Q200 269 206 226T225 152T253 99T290 61Q328 31 396 31Q425 31 453 40T508 71T555 127T592 211L611 203Q600 156
577 116T520 47T446 2T358 -14Q293 -14 234 6T129 69T56 175T29 329Q29 418 58 482T134 589T241 651T363 671Q430 671 481 650T553 598H557L584 650H595V419H581Q568 471 550 513T506 586T446 632T368 648ZM446 849Q467 849 481 835T496 795Q496 770 477 757T433
737Q402 729 357 720T251 699L246 709Q291 747 320 771T375 816Q397 834 412 841T446 849Z" />
<glyph unicode="&#x107;" glyph-name="cacute" horiz-adv-x="428" d="M390 623Q390 603 377 589T343 563Q317 549 278 532T182 487L175 495Q192 519 205 538T230 573T250 602T270 628Q288 651 302 664T336 677Q390 677 390 623ZM418 136Q410 107 397 81T362 35T312
3T244 -9Q194 -9 156 5T91 44Q59 76 40 120T21 222Q21 277 41 319T93 390T167 432T252 447Q304 447 337 434T385 406Q411 379 411 347Q411 319 394 306T357 293Q325 293 312 312T293 365Q288 401 279 415T252 430Q238 430 225 424T203 407Q187 386 179 340T170
230Q170 161 180 119T207 51Q218 34 233 28T265 21Q296 21 318 32T357 60T383 99T402 142L418 136Z" />
<glyph unicode="&#x108;" glyph-name="Ccircumflex" horiz-adv-x="632" d="M485 706L353 767L220 706L212 714Q221 724 237 744T270 784T302 822T321 844H385Q389 839 403 822T435 785T469 744T494 714L485 706ZM368 648Q341 648 314 638T268 605Q253 589 241
566T219 509T205 432T200 329Q200 269 206 226T225 152T253 99T290 61Q328 31 396 31Q425 31 453 40T508 71T555 127T592 211L611 203Q600 156 577 116T520 47T446 2T358 -14Q293 -14 234 6T129 69T56 175T29 329Q29 418 58 482T134 589T241 651T363 671Q430 671
481 650T553 598H557L584 650H595V419H581Q568 471 550 513T506 586T446 632T368 648Z" />
<glyph unicode="&#x109;" glyph-name="ccircumflex" horiz-adv-x="428" d="M375 493L245 581L116 493L106 502Q114 513 130 538T164 591T196 640T215 668H276Q280 662 294 640T326 591T360 539T385 502L375 493ZM418 136Q410 107 397 81T362 35T312 3T244 -9Q194
-9 156 5T91 44Q59 76 40 120T21 222Q21 277 41 319T93 390T167 432T252 447Q304 447 337 434T385 406Q411 379 411 347Q411 319 394 306T357 293Q325 293 312 312T293 365Q288 401 279 415T252 430Q238 430 225 424T203 407Q187 386 179 340T170 230Q170 161 180
119T207 51Q218 34 233 28T265 21Q296 21 318 32T357 60T383 99T402 142L418 136Z" />
<glyph unicode="&#x10a;" glyph-name="Cdotaccent" horiz-adv-x="632" d="M368 648Q341 648 314 638T268 605Q253 589 241 566T219 509T205 432T200 329Q200 269 206 226T225 152T253 99T290 61Q328 31 396 31Q425 31 453 40T508 71T555 127T592 211L611 203Q600
156 577 116T520 47T446 2T358 -14Q293 -14 234 6T129 69T56 175T29 329Q29 418 58 482T134 589T241 651T363 671Q430 671 481 650T553 598H557L584 650H595V419H581Q568 471 550 513T506 586T446 632T368 648ZM427 781Q427 750 406 729T352 708Q320 708 299 729T278
781Q278 813 299 834T352 856Q383 856 405 835T427 781Z" />
<glyph unicode="&#x10b;" glyph-name="cdotaccent" horiz-adv-x="428" d="M418 136Q410 107 397 81T362 35T312 3T244 -9Q194 -9 156 5T91 44Q59 76 40 120T21 222Q21 277 41 319T93 390T167 432T252 447Q304 447 337 434T385 406Q411 379 411 347Q411 319 394
306T357 293Q325 293 312 312T293 365Q288 401 279 415T252 430Q238 430 225 424T203 407Q187 386 179 340T170 230Q170 161 180 119T207 51Q218 34 233 28T265 21Q296 21 318 32T357 60T383 99T402 142L418 136ZM243 516Q212 516 191 537T170 589Q170 620 191
642T243 664Q274 664 296 643T318 589Q318 557 297 537T243 516Z" />
<glyph unicode="&#x10c;" glyph-name="Ccaron" horiz-adv-x="632" d="M220 844L353 783L485 844L494 835Q485 825 469 806T436 766T404 728T385 706H321Q316 711 302 728T271 765T237 805T212 835L220 844ZM368 648Q341 648 314 638T268 605Q253 589 241 566T219
509T205 432T200 329Q200 269 206 226T225 152T253 99T290 61Q328 31 396 31Q425 31 453 40T508 71T555 127T592 211L611 203Q600 156 577 116T520 47T446 2T358 -14Q293 -14 234 6T129 69T56 175T29 329Q29 418 58 482T134 589T241 651T363 671Q430 671 481 650T553
598H557L584 650H595V419H581Q568 471 550 513T506 586T446 632T368 648Z" />
<glyph unicode="&#x10d;" glyph-name="ccaron" horiz-adv-x="428" d="M384 660Q376 649 360 624T326 571T294 522T275 494H214Q210 500 196 522T164 571T130 623T105 660L115 669L244 577L374 669L384 660ZM418 136Q410 107 397 81T362 35T312 3T244 -9Q194 -9
156 5T91 44Q59 76 40 120T21 222Q21 277 41 319T93 390T167 432T252 447Q304 447 337 434T385 406Q411 379 411 347Q411 319 394 306T357 293Q325 293 312 312T293 365Q288 401 279 415T252 430Q238 430 225 424T203 407Q187 386 179 340T170 230Q170 161 180
119T207 51Q218 34 233 28T265 21Q296 21 318 32T357 60T383 99T402 142L418 136Z" />
<glyph unicode="&#x10e;" glyph-name="Dcaron" horiz-adv-x="713" d="M212 844L345 783L477 844L486 835Q477 825 461 806T428 766T396 728T377 706H313Q308 711 294 728T263 765T229 805T204 835L212 844ZM368 657Q421 657 461 646T534 618Q601 580 642 508T684
329Q684 226 645 152T538 41Q507 24 467 12T382 0H18V11Q25 12 33 13T50 17Q67 22 78 32T96 65Q102 82 104 109T107 170V487Q107 521 105 548T96 592Q89 615 78 625T50 641Q42 643 34 644T18 646V657H368ZM357 23Q381 23 409 33T459 73Q472 91 483 114T502 167T514
238T519 329Q519 381 515 421T502 492T483 545T458 585Q436 614 408 624T352 634H320Q307 634 297 631T278 617Q267 606 266 586T264 547V147Q264 121 267 94T285 49Q294 36 310 30T343 23H357Z" />
<glyph unicode="&#x10f;" glyph-name="dcaron" horiz-adv-x="538" d="M527 684H621Q600 642 575 590T526 489H512L527 684ZM524 -1H505Q490 -1 470 -1T425 -2T381 -2T347 -3H332Q328 -3 328 3Q327 6 327 14T328 28V72H325Q311 34 281 13T204 -9Q168 -9 135 5T77
47T36 118T21 218Q21 273 37 316T80 388T143 432T218 447Q262 447 285 429T321 386H323V577Q323 590 323 607T320 633Q317 647 311 654T297 666Q290 670 282 671T266 673V684H461Q467 684 467 677Q467 665 467 643T466 596T465 547T464 504V114Q464 99 464 83T467
55Q471 30 490 18Q497 13 507 12T524 10V-1ZM323 298Q323 327 318 348T301 387Q291 402 278 411T247 420Q210 420 190 366T170 217Q170 23 243 23Q277 23 300 56T323 144V298Z" />
<glyph unicode="&#x110;" glyph-name="Dcroat" horiz-adv-x="713" d="M28 350H107V487Q107 521 105 548T96 592Q89 615 78 625T50 641Q42 643 34 644T18 646V657H368Q421 657 461 646T534 618Q601 580 642 508T684 329Q684 226 645 152T538 41Q507 24 467 12T382
0H18V11Q25 12 33 13T50 17Q67 22 78 32T96 65Q102 82 104 109T107 170V321H28V350ZM320 634Q307 634 297 631T278 617Q267 606 266 586T264 547V350H400V321H264V147Q264 121 267 94T285 49Q294 36 310 30T343 23H357Q381 23 409 33T459 73Q472 91 483 114T502
167T514 238T519 329Q519 381 515 421T502 492T483 545T458 585Q436 614 408 624T352 634H320Z" />
<glyph unicode="&#x111;" glyph-name="dcroat" horiz-adv-x="538" d="M204 564H323V577Q323 590 323 607T320 633Q317 647 311 654T297 666Q290 670 282 671T266 673V684H461Q467 684 467 677Q467 665 467 643T465 596L464 564H525V540H464V504V114Q464 99 464
83T467 55Q471 30 490 18Q497 13 507 12T524 10V-1H505Q490 -1 470 -1T425 -2T381 -2T347 -3H332Q328 -3 328 3Q327 6 327 14T328 28V72H325Q311 34 281 13T204 -9Q168 -9 135 5T77 47T36 118T21 218Q21 273 37 316T80 388T143 432T218 447Q262 447 285 429T321
386H323V540H204V564ZM323 294Q323 352 301 387Q292 402 278 411T247 420Q210 420 190 366T170 217Q170 23 243 23Q277 23 300 56T323 144V294Z" />
<glyph unicode="&#x112;" glyph-name="Emacron" horiz-adv-x="609" d="M561 0H18V11Q34 11 49 17Q66 22 77 32T96 65Q102 82 104 109T106 170V488Q106 522 104 549T96 593Q89 616 78 626T49 641Q41 643 33 644T18 646V657H542L566 446H553Q539 483 518 519T468
586Q448 607 421 620T357 634H332Q300 634 285 618Q270 604 266 581T262 534V352H297Q318 352 332 353T355 357T371 364T385 376Q404 395 417 425T434 481H446V201H434Q431 226 419 255T388 302Q375 314 357 321T297 329H262V149Q262 120 265 92T286 46Q297 34
313 29T350 23H368Q400 23 426 36T473 73Q505 108 530 153T570 239H582L561 0ZM175 715V766H449V715H175Z" />
<glyph unicode="&#x113;" glyph-name="emacron" horiz-adv-x="447" d="M274 254Q290 254 296 262T303 290Q303 334 298 365T280 413Q267 429 242 429Q230 429 220 426T201 412Q187 397 180 360T171 254H274ZM428 136Q421 106 407 80T369 34T315 3T243 -9Q205 -9
169 1T102 35Q64 64 43 108T21 218Q21 276 40 319T90 390T160 433T239 447Q288 447 324 432T385 392T420 334T432 266Q432 258 432 249T430 234H171Q171 192 174 161T184 108T198 71T216 46Q227 35 244 28T280 21Q309 21 331 32T369 60T396 99T413 141L428 136ZM122
545V596H366V545H122Z" />
<glyph unicode="&#x114;" glyph-name="Ebreve" horiz-adv-x="609" d="M561 0H18V11Q34 11 49 17Q66 22 77 32T96 65Q102 82 104 109T106 170V488Q106 522 104 549T96 593Q89 616 78 626T49 641Q41 643 33 644T18 646V657H542L566 446H553Q539 483 518 519T468
586Q448 607 421 620T357 634H332Q300 634 285 618Q270 604 266 581T262 534V352H297Q318 352 332 353T355 357T371 364T385 376Q404 395 417 425T434 481H446V201H434Q431 226 419 255T388 302Q375 314 357 321T297 329H262V149Q262 120 265 92T286 46Q297 34
313 29T350 23H368Q400 23 426 36T473 73Q505 108 530 153T570 239H582L561 0ZM453 840Q442 771 406 737T312 702Q255 702 219 736T172 840L185 846Q208 810 241 794T312 778Q351 778 384 794T440 846L453 840Z" />
<glyph unicode="&#x115;" glyph-name="ebreve" horiz-adv-x="447" d="M274 254Q290 254 296 262T303 290Q303 334 298 365T280 413Q267 429 242 429Q230 429 220 426T201 412Q187 397 180 360T171 254H274ZM428 136Q421 106 407 80T369 34T315 3T243 -9Q205 -9
169 1T102 35Q64 64 43 108T21 218Q21 276 40 319T90 390T160 433T239 447Q288 447 324 432T385 392T420 334T432 266Q432 258 432 249T430 234H171Q171 192 174 161T184 108T198 71T216 46Q227 35 244 28T280 21Q309 21 331 32T369 60T396 99T413 141L428 136ZM365
656Q360 589 329 550T241 511Q185 511 154 550T117 656L129 661Q146 622 176 605T241 587Q275 587 305 604T352 661L365 656Z" />
<glyph unicode="&#x116;" glyph-name="Edotaccent" horiz-adv-x="609" d="M387 781Q387 750 366 729T312 708Q280 708 259 729T238 781Q238 813 259 834T312 856Q343 856 365 835T387 781ZM561 0H18V11Q34 11 49 17Q66 22 77 32T96 65Q102 82 104 109T106 170V488Q106
522 104 549T96 593Q89 616 78 626T49 641Q41 643 33 644T18 646V657H542L566 446H553Q539 483 518 519T468 586Q448 607 421 620T357 634H332Q300 634 285 618Q270 604 266 581T262 534V352H297Q318 352 332 353T355 357T371 364T385 376Q404 395 417 425T434
481H446V201H434Q431 226 419 255T388 302Q375 314 357 321T297 329H262V149Q262 120 265 92T286 46Q297 34 313 29T350 23H368Q400 23 426 36T473 73Q505 108 530 153T570 239H582L561 0Z" />
<glyph unicode="&#x117;" glyph-name="edotaccent" horiz-adv-x="447" d="M274 254Q290 254 296 262T303 290Q303 334 298 365T280 413Q267 429 242 429Q230 429 220 426T201 412Q187 397 180 360T171 254H274ZM428 136Q421 106 407 80T369 34T315 3T243 -9Q205
-9 169 1T102 35Q64 64 43 108T21 218Q21 276 40 319T90 390T160 433T239 447Q288 447 324 432T385 392T420 334T432 266Q432 258 432 249T430 234H171Q171 192 174 161T184 108T198 71T216 46Q227 35 244 28T280 21Q309 21 331 32T369 60T396 99T413 141L428 136ZM239
516Q208 516 187 537T166 589Q166 620 187 642T239 664Q270 664 292 643T314 589Q314 557 293 537T239 516Z" />
<glyph unicode="&#x118;" glyph-name="Eogonek" horiz-adv-x="609" d="M18 0V11Q34 11 49 17Q66 22 77 32T96 65Q102 82 104 109T106 170V488Q106 522 104 549T96 593Q89 616 78 626T49 641Q41 643 33 644T18 646V657H542L566 446H553Q539 483 518 519T468 586Q448
607 421 620T357 634H332Q300 634 285 618Q270 604 266 581T262 534V352H297Q318 352 332 353T355 357T371 364T385 376Q404 395 417 425T434 481H446V201H434Q431 226 419 255T388 302Q375 314 357 321T297 329H262V149Q262 120 265 92T286 46Q297 34 313 29T350
23H368Q400 23 426 36T473 73Q505 108 530 153T570 239H582L561 0H460Q428 -29 415 -61T401 -132Q401 -168 418 -184T469 -204V-215Q381 -220 338 -198T295 -133Q295 -111 307 -94T340 -61T386 -31T441 0H18Z" />
<glyph unicode="&#x119;" glyph-name="eogonek" horiz-adv-x="447" d="M137 -133Q137 -112 149 -95T181 -62T227 -34T284 -6Q266 -9 250 -9Q211 -11 172 0T102 35Q64 64 43 108T21 218Q21 276 40 319T90 390T160 433T239 447Q288 447 324 432T385 392T420 334T432
266Q432 258 432 249T430 234H171Q171 192 174 161T184 108T198 71T216 46Q227 35 244 28T280 21Q309 21 331 32T369 60T396 99T413 141L428 136Q407 52 342 15Q314 -1 295 -16T265 -49T248 -87T243 -132Q243 -168 260 -184T310 -204V-215Q222 -220 180 -198T137
-133ZM274 254Q290 254 296 262T303 290Q303 334 298 365T280 413Q267 429 242 429Q230 429 220 426T201 412Q187 397 180 360T171 254H274Z" />
<glyph unicode="&#x11a;" glyph-name="Ecaron" horiz-adv-x="609" d="M180 844L313 783L445 844L454 835Q445 825 429 806T396 766T364 728T345 706H281Q276 711 262 728T231 765T197 805T172 835L180 844ZM561 0H18V11Q34 11 49 17Q66 22 77 32T96 65Q102 82
104 109T106 170V488Q106 522 104 549T96 593Q89 616 78 626T49 641Q41 643 33 644T18 646V657H542L566 446H553Q539 483 518 519T468 586Q448 607 421 620T357 634H332Q300 634 285 618Q270 604 266 581T262 534V352H297Q318 352 332 353T355 357T371 364T385
376Q404 395 417 425T434 481H446V201H434Q431 226 419 255T388 302Q375 314 357 321T297 329H262V149Q262 120 265 92T286 46Q297 34 313 29T350 23H368Q400 23 426 36T473 73Q505 108 530 153T570 239H582L561 0Z" />
<glyph unicode="&#x11b;" glyph-name="ecaron" horiz-adv-x="447" d="M381 660Q373 649 357 624T323 571T291 522T272 494H211Q207 500 193 522T161 571T127 623T102 660L112 669L241 577L371 669L381 660ZM274 254Q290 254 296 262T303 290Q303 334 298 365T280
413Q267 429 242 429Q230 429 220 426T201 412Q187 397 180 360T171 254H274ZM428 136Q421 106 407 80T369 34T315 3T243 -9Q205 -9 169 1T102 35Q64 64 43 108T21 218Q21 276 40 319T90 390T160 433T239 447Q288 447 324 432T385 392T420 334T432 266Q432 258
432 249T430 234H171Q171 192 174 161T184 108T198 71T216 46Q227 35 244 28T280 21Q309 21 331 32T369 60T396 99T413 141L428 136Z" />
<glyph unicode="&#x11c;" glyph-name="Gcircumflex" horiz-adv-x="672" d="M486 706L354 767L221 706L213 714Q222 724 238 744T271 784T303 822T322 844H386Q390 839 404 822T436 785T470 744T495 714L486 706ZM447 170Q447 202 444 221T433 254Q424 270 415
277T389 289Q374 293 359 295V306H668V295Q662 294 653 292T636 288Q623 283 613 275T595 250Q585 229 585 169V33Q571 28 548 20T491 4Q463 -2 423 -8T347 -14Q280 -14 222 9T121 77T54 185T29 329Q29 408 55 471T125 579T228 646T353 670Q390 670 421 662T476
643T516 619T540 596H544L568 641H580V406H569Q558 455 542 493T505 564Q479 602 445 623T359 645Q333 645 310 636T268 607Q252 591 239 568T217 512T203 434T198 329Q198 215 217 151T266 55Q284 29 308 20T355 11Q389 11 405 18T431 39Q440 53 443 75T447 118V170Z"
/>
<glyph unicode="&#x11d;" glyph-name="gcircumflex" horiz-adv-x="488" d="M352 493L222 581L93 493L83 502Q91 513 107 538T141 591T173 640T192 668H253Q257 662 271 640T303 591T337 539T362 502L352 493ZM209 432Q178 432 165 402T151 295Q151 218 164 188T209
158Q240 158 254 188T268 295Q268 372 255 402T209 432ZM453 -38Q453 -83 431 -116T372 -170T289 -202T194 -213Q107 -213 55 -192T3 -120Q3 -102 12 -88T38 -63T75 -46T120 -36V-34Q78 -29 53 -5T28 59Q28 80 37 97T59 126T88 146T117 158V161Q82 178 55 211T27
295Q27 334 43 362T84 409T143 437T209 447Q250 447 288 433T351 392H356Q366 419 388 435T442 452Q475 452 490 438T506 398Q506 371 492 358T456 345Q436 345 426 357T410 380Q404 394 400 400T389 406Q383 406 378 398T372 376Q372 371 375 363T382 346Q387
335 389 321T392 294Q392 255 376 227T335 180T276 152T210 143Q191 143 174 145T145 151Q129 149 115 141T100 116Q100 102 112 94T145 86Q155 86 176 87T220 90T265 93T299 95Q375 95 414 64T453 -38ZM194 -197Q278 -197 323 -170T368 -100Q368 -68 351 -50T292
-32Q279 -32 262 -33T227 -35T193 -37T166 -40Q150 -42 134 -46T105 -60T84 -83T76 -120Q76 -157 106 -177T194 -197Z" />
<glyph unicode="&#x11e;" glyph-name="Gbreve" horiz-adv-x="672" d="M494 840Q483 771 447 737T353 702Q296 702 260 736T213 840L226 846Q249 810 282 794T353 778Q392 778 425 794T481 846L494 840ZM447 170Q447 202 444 221T433 254Q424 270 415 277T389 289Q374
293 359 295V306H668V295Q662 294 653 292T636 288Q623 283 613 275T595 250Q585 229 585 169V33Q571 28 548 20T491 4Q463 -2 423 -8T347 -14Q280 -14 222 9T121 77T54 185T29 329Q29 408 55 471T125 579T228 646T353 670Q390 670 421 662T476 643T516 619T540
596H544L568 641H580V406H569Q558 455 542 493T505 564Q479 602 445 623T359 645Q333 645 310 636T268 607Q252 591 239 568T217 512T203 434T198 329Q198 215 217 151T266 55Q284 29 308 20T355 11Q389 11 405 18T431 39Q440 53 443 75T447 118V170Z" />
<glyph unicode="&#x11f;" glyph-name="gbreve" horiz-adv-x="488" d="M209 432Q178 432 165 402T151 295Q151 218 164 188T209 158Q240 158 254 188T268 295Q268 372 255 402T209 432ZM453 -38Q453 -83 431 -116T372 -170T289 -202T194 -213Q107 -213 55 -192T3
-120Q3 -102 12 -88T38 -63T75 -46T120 -36V-34Q78 -29 53 -5T28 59Q28 80 37 97T59 126T88 146T117 158V161Q82 178 55 211T27 295Q27 334 43 362T84 409T143 437T209 447Q250 447 288 433T351 392H356Q366 419 388 435T442 452Q475 452 490 438T506 398Q506 371
492 358T456 345Q436 345 426 357T410 380Q404 394 400 400T389 406Q383 406 378 398T372 376Q372 371 375 363T382 346Q387 335 389 321T392 294Q392 255 376 227T335 180T276 152T210 143Q191 143 174 145T145 151Q129 149 115 141T100 116Q100 102 112 94T145
86Q155 86 176 87T220 90T265 93T299 95Q375 95 414 64T453 -38ZM194 -197Q278 -197 323 -170T368 -100Q368 -68 351 -50T292 -32Q279 -32 262 -33T227 -35T193 -37T166 -40Q150 -42 134 -46T105 -60T84 -83T76 -120Q76 -157 106 -177T194 -197ZM346 656Q341 589
310 550T222 511Q166 511 135 550T98 656L110 661Q127 622 157 605T222 587Q256 587 286 604T333 661L346 656Z" />
<glyph unicode="&#x120;" glyph-name="Gdotaccent" horiz-adv-x="672" d="M428 781Q428 750 407 729T353 708Q321 708 300 729T279 781Q279 813 300 834T353 856Q384 856 406 835T428 781ZM447 170Q447 202 444 221T433 254Q424 270 415 277T389 289Q374 293 359
295V306H668V295Q662 294 653 292T636 288Q623 283 613 275T595 250Q585 229 585 169V33Q571 28 548 20T491 4Q463 -2 423 -8T347 -14Q280 -14 222 9T121 77T54 185T29 329Q29 408 55 471T125 579T228 646T353 670Q390 670 421 662T476 643T516 619T540 596H544L568
641H580V406H569Q558 455 542 493T505 564Q479 602 445 623T359 645Q333 645 310 636T268 607Q252 591 239 568T217 512T203 434T198 329Q198 215 217 151T266 55Q284 29 308 20T355 11Q389 11 405 18T431 39Q440 53 443 75T447 118V170Z" />
<glyph unicode="&#x121;" glyph-name="gdotaccent" horiz-adv-x="488" d="M209 432Q178 432 165 402T151 295Q151 218 164 188T209 158Q240 158 254 188T268 295Q268 372 255 402T209 432ZM453 -38Q453 -83 431 -116T372 -170T289 -202T194 -213Q107 -213 55 -192T3
-120Q3 -102 12 -88T38 -63T75 -46T120 -36V-34Q78 -29 53 -5T28 59Q28 80 37 97T59 126T88 146T117 158V161Q82 178 55 211T27 295Q27 334 43 362T84 409T143 437T209 447Q250 447 288 433T351 392H356Q366 419 388 435T442 452Q475 452 490 438T506 398Q506 371
492 358T456 345Q436 345 426 357T410 380Q404 394 400 400T389 406Q383 406 378 398T372 376Q372 371 375 363T382 346Q387 335 389 321T392 294Q392 255 376 227T335 180T276 152T210 143Q191 143 174 145T145 151Q129 149 115 141T100 116Q100 102 112 94T145
86Q155 86 176 87T220 90T265 93T299 95Q375 95 414 64T453 -38ZM194 -197Q278 -197 323 -170T368 -100Q368 -68 351 -50T292 -32Q279 -32 262 -33T227 -35T193 -37T166 -40Q150 -42 134 -46T105 -60T84 -83T76 -120Q76 -157 106 -177T194 -197ZM221 516Q190 516
169 537T148 589Q148 620 169 642T221 664Q252 664 274 643T296 589Q296 557 275 537T221 516Z" />
<glyph unicode="&#x122;" glyph-name="Gcommaaccent" horiz-adv-x="672" d="M418 -119Q418 -176 382 -209T286 -258L280 -243Q317 -232 339 -218T361 -185Q361 -171 351 -167Q320 -161 301 -147T282 -101Q282 -74 302 -58T346 -41Q376 -41 397 -61T418 -119ZM447
170Q447 202 444 221T433 254Q424 270 415 277T389 289Q374 293 359 295V306H668V295Q662 294 653 292T636 288Q623 283 613 275T595 250Q585 229 585 169V33Q571 28 548 20T491 4Q463 -2 423 -8T347 -14Q280 -14 222 9T121 77T54 185T29 329Q29 408 55 471T125
579T228 646T353 670Q390 670 421 662T476 643T516 619T540 596H544L568 641H580V406H569Q558 455 542 493T505 564Q479 602 445 623T359 645Q333 645 310 636T268 607Q252 591 239 568T217 512T203 434T198 329Q198 215 217 151T266 55Q284 29 308 20T355 11Q389
11 405 18T431 39Q440 53 443 75T447 118V170Z" />
<glyph unicode="&#x123;" glyph-name="gcommaaccent" horiz-adv-x="488" d="M152 841Q152 897 188 931T284 980L290 965Q252 954 230 940T208 908Q208 894 218 890Q249 884 268 870T288 824Q288 797 268 781T224 764Q193 764 173 783T152 841ZM209 432Q178 432
165 402T151 295Q151 218 164 188T209 158Q240 158 254 188T268 295Q268 372 255 402T209 432ZM453 -38Q453 -83 431 -116T372 -170T289 -202T194 -213Q107 -213 55 -192T3 -120Q3 -102 12 -88T38 -63T75 -46T120 -36V-34Q78 -29 53 -5T28 59Q28 80 37 97T59 126T88
146T117 158V161Q82 178 55 211T27 295Q27 334 43 362T84 409T143 437T209 447Q250 447 288 433T351 392H356Q366 419 388 435T442 452Q475 452 490 438T506 398Q506 371 492 358T456 345Q436 345 426 357T410 380Q404 394 400 400T389 406Q383 406 378 398T372
376Q372 371 375 363T382 346Q387 335 389 321T392 294Q392 255 376 227T335 180T276 152T210 143Q191 143 174 145T145 151Q129 149 115 141T100 116Q100 102 112 94T145 86Q155 86 176 87T220 90T265 93T299 95Q375 95 414 64T453 -38ZM194 -197Q278 -197 323
-170T368 -100Q368 -68 351 -50T292 -32Q279 -32 262 -33T227 -35T193 -37T166 -40Q150 -42 134 -46T105 -60T84 -83T76 -120Q76 -157 106 -177T194 -197Z" />
<glyph unicode="&#x124;" glyph-name="Hcircumflex" horiz-adv-x="749" d="M345 0H18V11Q25 12 33 13T49 17Q66 21 77 31T96 65Q102 82 104 109T106 170V487Q106 522 104 549T96 593Q89 616 78 626T49 641Q33 645 18 647V657H345V647Q339 646 332 645T317 640Q301
634 291 625T273 593Q267 576 265 550T263 489V346H486V489Q486 523 484 549T476 593Q469 615 459 624T432 640Q425 643 418 644T404 647V657H731V647Q724 646 716 645T700 641Q683 636 672 626T653 593Q647 576 645 549T643 487V170Q643 136 645 109T653 65Q660
42 671 32T700 17Q708 14 716 13T731 11V0H404V11Q416 12 431 17Q448 23 458 32T476 65Q482 82 484 108T486 169V318H263V169Q263 134 265 108T273 65Q280 42 290 32T317 17Q325 14 332 13T345 11V0ZM507 706L375 767L242 706L234 714Q243 724 259 744T292 784T324
822T343 844H407Q411 839 425 822T457 785T491 744T516 714L507 706Z" />
<glyph unicode="&#x125;" glyph-name="hcircumflex" horiz-adv-x="561" d="M491 127Q491 107 492 85T496 50Q501 33 507 27T524 16Q535 12 549 10V0H299V10Q311 11 322 16Q333 21 339 30T348 56Q350 67 350 82T351 115V330Q351 354 348 368T337 390Q323 405 299
405Q276 405 253 383T222 314Q218 297 216 278T213 237V115Q213 98 213 83T216 55Q219 38 225 30T242 16Q253 11 265 10V0H15V10Q21 11 28 12T40 16Q49 20 56 26T68 50Q71 61 72 84T73 127V569Q73 583 73 602T69 633Q67 645 63 651T50 663Q43 668 34 670T16 673V684H207Q214
684 214 677Q214 667 213 636T211 566V350H215Q224 375 236 391T264 418Q283 432 308 439T358 447Q392 447 419 437T461 409Q475 393 483 370T491 311V127ZM413 716L281 777L148 716L140 724Q149 734 165 754T198 794T230 832T249 854H313Q317 849 331 832T363
795T397 754T422 724L413 716Z" />
<glyph unicode="&#x126;" glyph-name="Hbar" horiz-adv-x="749" d="M18 11Q25 12 33 13T49 17Q66 21 77 31T96 65Q102 82 104 109T106 170V458H18V486H106V487Q106 522 104 549T96 593Q89 616 78 626T49 641Q33 645 18 647V657H345V647Q339 646 332 645T317 640Q301
634 291 625T273 593Q267 576 265 550T263 489V486H486V489Q486 523 484 549T476 593Q469 615 459 624T432 640Q425 643 418 644T404 647V657H731V647Q724 646 716 645T700 641Q683 636 672 626T653 593Q647 576 645 549T643 487V486H731V458H643V170Q643 136 645
109T653 65Q660 42 671 32T700 17Q708 14 716 13T731 11V0H404V11Q416 12 431 17Q448 23 458 32T476 65Q482 82 484 108T486 169V318H263V169Q263 134 265 108T273 65Q280 42 290 32T317 17Q325 14 332 13T345 11V0H18V11ZM486 346V458H263V346H486Z" />
<glyph unicode="&#x127;" glyph-name="hbar" horiz-adv-x="562" d="M300 0V10Q313 12 323 16Q334 21 340 30T349 56Q351 67 351 82T352 115V330Q352 354 349 368T338 390Q324 405 300 405Q277 405 254 383T223 314Q219 297 217 278T214 237V115Q214 98 214 83T217
55Q220 38 226 30T243 16Q254 11 266 10V0H15V10Q29 12 41 16Q50 20 56 26T68 50Q72 61 73 84T74 127V540H13V564H74V569Q74 583 74 602T70 633Q67 645 63 651T51 663Q43 668 34 670T17 673V684H208Q215 684 215 677Q215 667 214 636T213 566V564H334V540H213V404Q213
381 213 366T212 350H216Q224 375 237 391T265 418Q284 432 309 439T359 447Q393 447 420 437T462 409Q476 393 484 370T492 311V127Q492 107 493 85T497 50Q502 33 508 27T525 16Q536 12 550 10V0H300Z" />
<glyph unicode="&#x128;" glyph-name="Itilde" horiz-adv-x="369" d="M264 170Q264 136 266 109T273 65Q281 42 292 32T320 17Q328 14 336 13L352 11V0H18V11Q25 12 33 13T49 17Q66 22 77 32T96 65Q102 82 104 109T106 170V488Q106 522 104 549T96 593Q88 616
77 626T49 641Q41 643 34 644T18 647V657H352V647Q344 645 336 644T320 641Q303 636 292 626T273 593Q268 576 266 549T264 488V170ZM608 838Q603 816 596 794T577 754T548 725T504 714Q488 714 468 718T428 727T390 737T361 741Q341 741 326 734T299 701L284 705Q290
726 298 747T318 786T348 814T389 825Q403 825 423 821T463 812T501 802T530 798Q556 798 570 807T593 840L608 838Z" />
<glyph unicode="&#x129;" glyph-name="itilde" horiz-adv-x="286" d="M16 0V11Q22 12 28 13T41 16Q50 21 56 27T68 50Q72 61 72 81T73 120V318Q73 333 73 354T70 387Q68 400 63 406T52 418Q44 423 36 424T19 427V438H209Q216 438 216 431Q215 418 215 402T214
364V120Q214 101 215 81T219 50Q224 33 230 27T247 16Q253 14 259 13T272 11V0H16ZM555 655Q550 633 543 611T523 570T493 539T450 527Q434 527 417 531T383 540T351 549T325 553Q302 553 286 544T259 509L244 511Q249 532 257 554T278 595T308 625T349 637Q363
637 379 633T412 625T444 616T470 612Q497 612 513 622T539 656L555 655Z" />
<glyph unicode="&#x12a;" glyph-name="Imacron" horiz-adv-x="369" d="M264 170Q264 136 266 109T273 65Q281 42 292 32T320 17Q328 14 336 13L352 11V0H18V11Q25 12 33 13T49 17Q66 22 77 32T96 65Q102 82 104 109T106 170V488Q106 522 104 549T96 593Q88 616
77 626T49 641Q41 643 34 644T18 647V657H352V647Q344 645 336 644T320 641Q303 636 292 626T273 593Q268 576 266 549T264 488V170ZM48 715V766H322V715H48Z" />
<glyph unicode="&#x12b;" glyph-name="imacron" horiz-adv-x="286" d="M18 596H240V545H18V596ZM16 0V11Q22 12 28 13T41 16Q50 21 56 27T68 50Q72 61 72 81T73 120V318Q73 333 73 354T70 387Q68 400 63 406T52 418Q44 423 36 424T19 427V438H209Q216 438 216
431Q215 418 215 402T214 364V120Q214 101 215 81T219 50Q224 33 230 27T247 16Q253 14 259 13T272 11V0H16Z" />
<glyph unicode="&#x12c;" glyph-name="Ibreve" horiz-adv-x="369" d="M264 170Q264 136 266 109T273 65Q281 42 292 32T320 17Q328 14 336 13L352 11V0H18V11Q25 12 33 13T49 17Q66 22 77 32T96 65Q102 82 104 109T106 170V488Q106 522 104 549T96 593Q88 616
77 626T49 641Q41 643 34 644T18 647V657H352V647Q344 645 336 644T320 641Q303 636 292 626T273 593Q268 576 266 549T264 488V170ZM325 840Q314 771 278 737T184 702Q127 702 91 736T44 840L57 846Q80 810 113 794T184 778Q223 778 256 794T312 846L325 840Z"
/>
<glyph unicode="&#x12d;" glyph-name="ibreve" horiz-adv-x="286" d="M16 0V11Q22 12 28 13T41 16Q50 21 56 27T68 50Q72 61 72 81T73 120V318Q73 333 73 354T70 387Q68 400 63 406T52 418Q44 423 36 424T19 427V438H209Q216 438 216 431Q215 418 215 402T214
364V120Q214 101 215 81T219 50Q224 33 230 27T247 16Q253 14 259 13T272 11V0H16ZM523 656Q518 589 487 550T399 511Q343 511 312 550T275 656L287 661Q304 622 334 605T399 587Q433 587 463 604T510 661L523 656Z" />
<glyph unicode="&#x12e;" glyph-name="Iogonek" horiz-adv-x="369" d="M18 0V11Q25 12 33 13T49 17Q66 22 77 32T96 65Q102 82 104 109T106 170V488Q106 522 104 549T96 593Q88 616 77 626T49 641Q41 643 34 644T18 647V657H352V647Q347 646 336 645T320 641Q303
636 292 626T273 593Q268 576 266 549T264 488V170Q264 136 266 109T273 65Q281 42 292 32T320 17Q328 14 336 13L352 11V0H262Q238 -28 226 -58T213 -132Q213 -168 230 -184T281 -204V-215Q193 -220 150 -198T107 -133Q107 -111 118 -94T149 -61T192 -31T243 0H18Z"
/>
<glyph unicode="&#x12f;" glyph-name="iogonek" horiz-adv-x="286" d="M144 516Q113 516 92 537T70 589Q70 620 91 642T144 664Q175 664 197 643T219 589Q219 557 198 537T144 516ZM16 0V10Q22 11 28 12T41 16Q50 21 56 27T68 50Q72 61 72 81T73 120V318Q73 333
73 354T70 387Q68 400 63 406T52 418Q44 423 36 424T19 427V438H209Q216 438 216 431Q215 418 215 402T214 364V120Q214 101 215 81T219 50Q224 33 230 27T247 16Q253 13 259 12T272 10V0H221Q197 -28 185 -58T172 -132Q172 -168 189 -184T240 -204V-215Q152 -220
109 -198T66 -133Q66 -111 77 -93T106 -60T150 -31T202 0H16Z" />
<glyph unicode="&#x130;" glyph-name="Idotaccent" horiz-adv-x="369" d="M264 170Q264 136 266 109T273 65Q281 42 292 32T320 17Q328 14 336 13L352 11V0H18V11Q25 12 33 13T49 17Q66 22 77 32T96 65Q102 82 104 109T106 170V488Q106 522 104 549T96 593Q88
616 77 626T49 641Q41 643 34 644T18 647V657H352V647Q344 645 336 644T320 641Q303 636 292 626T273 593Q268 576 266 549T264 488V170ZM259 781Q259 750 238 729T184 708Q152 708 131 729T110 781Q110 813 131 834T184 856Q215 856 237 835T259 781Z" />
<glyph unicode="&#x131;" glyph-name="dotlessi" horiz-adv-x="286" d="M16 0V11Q22 12 28 13T41 16Q50 21 56 27T68 50Q72 61 72 81T73 120V318Q73 333 73 354T70 387Q68 400 63 406T52 418Q44 423 36 424T19 427V438H209Q216 438 216 431Q215 418 215 402T214
364V120Q214 101 215 81T219 50Q224 33 230 27T247 16Q253 14 259 13T272 11V0H16Z" />
<glyph unicode="&#x132;" glyph-name="IJ" horiz-adv-x="805" d="M797 646Q784 646 766 641Q749 636 738 626T719 592Q713 575 711 548T709 487V219Q709 149 690 104T643 34Q615 8 578 -3T493 -14Q460 -14 429 -5T378 22Q358 40 347 63T336 118Q336 163 358 183T413
204Q448 204 466 185T486 135Q487 115 479 87Q474 72 469 60T463 41Q464 25 473 18T496 10Q528 10 541 42Q547 59 549 87T552 145V487Q552 521 550 548T543 592Q535 615 524 625T495 641Q477 646 464 646V657H797V646ZM18 0V11Q25 12 33 13T49 17Q66 22 77 32T96
65Q102 82 104 109T106 170V488Q106 522 104 549T96 593Q88 616 77 626T49 641Q41 643 34 644T18 647V657H352V647Q344 645 336 644T320 641Q303 636 292 626T273 593Q268 576 266 549T264 488V170Q264 136 266 109T273 65Q281 42 292 32T320 17Q328 14 335 13L349
11V0H18Z" />
<glyph unicode="&#x133;" glyph-name="ij" horiz-adv-x="530" d="M144 516Q113 516 92 537T70 589Q70 620 91 642T144 664Q175 664 197 643T219 589Q219 557 198 537T144 516ZM214 120Q214 101 215 81T219 50Q224 33 230 27T247 16Q253 13 259 12T272 10V0H16V10Q22
11 28 12T41 16Q50 21 56 27T68 50Q72 61 72 81T73 120V318Q73 333 73 354T70 387Q68 400 63 406T52 418Q44 423 36 424T19 427V438H209Q216 438 216 431Q215 418 215 402T214 364V120ZM408 516Q376 516 355 537T334 589Q334 621 355 642T408 664Q439 664 461 643T483
589Q483 557 462 537T408 516ZM338 318Q338 333 337 354T334 387Q331 399 327 406T315 418Q308 423 300 424T283 427V438H473Q480 438 480 431Q479 418 479 402T478 364V6Q478 -33 471 -61T453 -110T429 -145T403 -170Q389 -182 356 -197T272 -213Q218 -213 177
-188Q157 -175 145 -153T132 -105Q132 -76 152 -55T204 -33Q237 -33 254 -53T271 -102Q271 -118 263 -139Q261 -147 259 -155T256 -168Q256 -179 261 -186T279 -194Q296 -194 306 -185T323 -161Q330 -147 334 -123T338 -69V318Z" />
<glyph unicode="&#x134;" glyph-name="Jcircumflex" horiz-adv-x="474" d="M433 706L301 767L168 706L160 714Q169 724 185 744T218 784T250 822T269 844H333Q337 839 351 822T383 785T417 744T442 714L433 706ZM222 487Q222 521 220 548T212 592Q205 615 194
625T165 641Q147 646 133 646V657H467V646Q453 646 435 641Q418 636 407 626T388 592Q383 575 381 548T378 487V219Q378 149 358 104T312 34Q283 8 245 -3T159 -14Q126 -14 93 -5T41 22Q21 40 9 63T-4 118Q-4 163 20 183T77 204Q112 204 131 185T151 135Q152 115
144 87Q139 72 135 61T130 44Q131 26 139 18T162 10Q180 10 191 17T210 42Q218 59 220 89T222 149V487Z" />
<glyph unicode="&#x135;" glyph-name="jcircumflex" horiz-adv-x="255" d="M208 431Q207 418 207 402T206 364V6Q206 -33 199 -61T181 -110T157 -145T131 -170Q117 -182 84 -197T0 -213Q-26 -213 -51 -207T-95 -188Q-115 -175 -127 -153T-140 -105Q-140 -76 -120
-55T-68 -33Q-36 -33 -19 -53T-1 -102Q-1 -110 -3 -119T-9 -139Q-16 -158 -16 -168Q-16 -179 -11 -186T7 -194Q24 -194 34 -185T51 -161Q57 -147 61 -123T65 -69V318Q65 333 64 354T61 387Q59 399 55 406T43 418Q36 423 28 424T11 427V438H201Q208 438 208 431ZM516
493L386 581L257 493L247 502Q255 513 271 538T305 591T337 640T356 668H417Q421 662 435 640T467 591T501 539T526 502L516 493Z" />
<glyph unicode="&#x136;" glyph-name="Kcommaaccent" horiz-adv-x="683" d="M430 -119Q430 -176 394 -209T298 -258L292 -243Q329 -232 351 -218T373 -185Q373 -171 363 -167Q332 -161 313 -147T294 -101Q294 -74 314 -58T358 -41Q388 -41 409 -61T430 -119ZM18
0V11Q25 12 33 13T49 17Q66 22 77 32T96 65Q102 82 104 109T106 170V487Q106 522 104 549T96 593Q89 616 78 625T49 641Q41 643 33 644T18 647V657H347V647Q333 646 318 641Q303 635 292 626T273 593Q267 576 265 549T263 487V319L429 505Q460 540 473 559T487
599Q487 616 480 625T462 639Q454 642 445 643T425 647V657H655V647Q639 644 619 637T582 618Q560 604 538 585T487 532L359 389V385Q418 380 455 365T518 325Q532 312 543 294T562 254T575 209T583 162Q587 129 593 107T605 70T619 46T635 31Q646 23 660 18T686
11V0H461Q448 14 436 49T418 135Q413 185 411 225T392 296Q376 333 332 333Q319 333 307 327T284 311Q281 308 274 300T263 289V170Q263 136 265 109T273 65Q280 42 291 32T318 17Q326 14 333 13T347 11V0H18Z" />
<glyph unicode="&#x137;" glyph-name="kcommaaccent" horiz-adv-x="531" d="M346 -109Q346 -166 310 -199T214 -248L208 -233Q245 -222 267 -208T289 -175Q289 -161 279 -157Q248 -151 229 -137T210 -91Q210 -64 230 -48T274 -31Q304 -31 325 -51T346 -109ZM272
0H14V11Q20 12 26 13T39 16Q49 21 55 27T66 51Q70 62 70 84T71 127V581Q71 591 71 601T70 619T68 633Q65 646 61 652T50 664Q42 669 34 670T17 673V684H209Q214 684 214 677Q214 669 213 647T212 589V216L315 317Q335 338 347 356T360 389Q360 399 357 406T343
418Q337 421 326 423T308 427V438H504V427Q491 425 475 419T442 402Q438 399 429 393T409 377T385 356T360 332L321 293Q375 282 404 250T442 173Q446 153 451 132T463 92T476 58T490 34Q498 23 509 18T541 11V0H358Q342 12 329 49T308 137Q301 179 290 200T256
232L212 189V127Q212 107 213 85T217 51Q222 34 228 28T245 16Q251 14 258 13T272 11V0Z" />
<glyph unicode="&#x139;" glyph-name="Lacute" horiz-adv-x="596" d="M288 849Q309 849 323 835T338 795Q338 770 319 757T275 737Q244 729 199 720T93 699L88 709Q133 747 162 771T217 816Q239 834 254 841T288 849ZM18 12Q35 12 52 17Q68 22 79 32T97 61Q105
85 107 125T110 214V444Q110 492 108 532T97 596Q91 615 79 625T51 641Q36 645 19 647V657H360V647Q352 645 344 644T328 641Q312 636 300 626T282 596Q274 573 271 533T268 444V173Q268 139 269 116T276 79Q284 52 299 41Q311 31 325 27T354 23H374Q408 23 430
36T471 71Q487 89 501 110T529 154T552 197T570 235H582L563 0H18V12Z" />
<glyph unicode="&#x13a;" glyph-name="lacute" horiz-adv-x="288" d="M493 866Q514 866 528 852T543 812Q543 787 524 774T480 754Q449 746 404 737T298 716L293 726Q338 764 367 788T422 833Q444 851 459 858T493 866ZM212 127Q212 107 213 85T218 50Q223 33
229 27T246 16Q251 14 258 13T272 11V0H14V11Q20 12 26 13T39 16Q48 21 54 27T66 50Q70 62 71 84T72 127V564Q72 579 71 600T68 633Q63 656 50 664Q43 669 34 670T17 673V684H207Q214 684 214 677Q214 664 214 648T212 610V127Z" />
<glyph unicode="&#x13b;" glyph-name="Lcommaaccent" horiz-adv-x="596" d="M388 -119Q388 -176 352 -209T256 -258L250 -243Q287 -232 309 -218T331 -185Q331 -171 321 -167Q290 -161 271 -147T252 -101Q252 -74 272 -58T316 -41Q346 -41 367 -61T388 -119ZM18
12Q35 12 52 17Q68 22 79 32T97 61Q105 85 107 125T110 214V444Q110 492 108 532T97 596Q91 615 79 625T51 641Q36 645 19 647V657H360V647Q352 645 344 644T328 641Q312 636 300 626T282 596Q274 573 271 533T268 444V173Q268 139 269 116T276 79Q284 52 299 41Q311
31 325 27T354 23H374Q408 23 430 36T471 71Q487 89 501 110T529 154T552 197T570 235H582L563 0H18V12Z" />
<glyph unicode="&#x13c;" glyph-name="lcommaaccent" horiz-adv-x="288" d="M210 -109Q210 -166 174 -199T78 -248L72 -233Q109 -222 131 -208T153 -175Q153 -161 143 -157Q112 -151 93 -137T74 -91Q74 -64 94 -48T138 -31Q168 -31 189 -51T210 -109ZM212 127Q212
107 213 85T218 50Q223 33 229 27T246 16Q251 14 258 13T272 11V0H14V11Q20 12 26 13T39 16Q48 21 54 27T66 50Q70 62 71 84T72 127V564Q72 579 71 600T68 633Q63 656 50 664Q43 669 34 670T17 673V684H207Q214 684 214 677Q214 664 214 648T212 610V127Z" />
<glyph unicode="&#x13d;" glyph-name="Lcaron" horiz-adv-x="596" d="M423 657H517Q496 615 471 563T422 462H408L423 657ZM18 12Q35 12 52 17Q68 22 79 32T97 61Q105 85 107 125T110 214V444Q110 492 108 532T97 596Q91 615 79 625T51 641Q36 645 19 647V657H360V647Q352
645 344 644T328 641Q312 636 300 626T282 596Q274 573 271 533T268 444V173Q268 139 269 116T276 79Q284 52 299 41Q311 31 325 27T354 23H374Q408 23 430 36T471 71Q487 89 501 110T529 154T552 197T570 235H582L563 0H18V12Z" />
<glyph unicode="&#x13e;" glyph-name="lcaron" horiz-adv-x="288" d="M265 684H359Q338 642 313 590T264 489H250L265 684ZM212 127Q212 107 213 85T218 50Q223 33 229 27T246 16Q251 14 258 13T272 11V0H14V11Q20 12 26 13T39 16Q48 21 54 27T66 50Q70 62 71
84T72 127V564Q72 579 71 600T68 633Q63 656 50 664Q43 669 34 670T17 673V684H207Q214 684 214 677Q214 664 214 648T212 610V127Z" />
<glyph unicode="&#x13f;" glyph-name="Ldot" horiz-adv-x="596" d="M18 12Q35 12 52 17Q68 22 79 32T97 61Q105 85 107 125T110 214V444Q110 492 108 532T97 596Q91 615 79 625T51 641Q36 645 19 647V657H360V647Q352 645 344 644T328 641Q312 636 300 626T282
596Q274 573 271 533T268 444V173Q268 139 269 116T276 79Q284 52 299 41Q311 31 325 27T354 23H374Q408 23 430 35T470 67Q486 84 500 104T528 145T551 185T569 220H581L563 0H18V12ZM572 355Q572 324 551 304T498 283Q467 283 446 303T425 355Q425 386 446 407T498
429Q528 429 550 408T572 355Z" />
<glyph unicode="&#x140;" glyph-name="ldot" horiz-adv-x="288" d="M384 326Q384 297 365 279T316 260Q289 260 270 279T250 326Q250 355 269 374T316 394Q343 394 363 375T384 326ZM212 127Q212 107 213 85T218 50Q223 33 229 27T246 16Q251 14 258 13T272 11V0H14V11Q20
12 26 13T39 16Q48 21 54 27T66 50Q70 62 71 84T72 127V564Q72 579 71 600T68 633Q63 656 50 664Q43 669 34 670T17 673V684H207Q214 684 214 677Q214 664 214 648T212 610V127Z" />
<glyph unicode="&#x141;" glyph-name="Lslash" horiz-adv-x="596" d="M20 251L110 287V444Q110 492 108 532T97 596Q91 615 79 625T51 641Q36 645 19 647V657H360V647Q352 645 344 644T328 641Q312 636 300 626T282 596Q274 573 271 533T268 444V350L457 425V400L268
324V173Q268 139 269 117T276 79Q284 52 299 41Q311 31 325 27T354 23H374Q408 23 430 36T471 71Q487 89 501 110T529 154T552 197T570 235H582L563 0H18V12Q35 12 52 17Q68 22 79 32T97 61Q105 85 107 125T110 214V261L20 225V251Z" />
<glyph unicode="&#x142;" glyph-name="lslash" horiz-adv-x="288" d="M8 315L72 344V564Q72 579 71 600T68 633Q63 656 50 664Q43 669 34 670T17 673V684H207Q214 684 214 677Q214 664 214 648T212 610V409L277 440V416L212 385V127Q212 107 213 85T218 50Q223
33 229 27T246 16Q251 14 258 13T272 11V0H14V11Q20 12 26 13T39 16Q48 21 54 27T66 50Q70 62 71 84T72 127V320L8 291V315Z" />
<glyph unicode="&#x143;" glyph-name="Nacute" horiz-adv-x="691" d="M478 849Q499 849 513 835T528 795Q528 770 509 757T465 737Q434 729 389 720T283 699L278 709Q323 747 352 771T407 816Q429 834 444 841T478 849ZM538 -4L162 525H158V168Q158 121 162 97T175
56Q190 25 218 17Q226 15 234 14T253 11V0H35V11Q55 12 70 17Q98 25 113 55Q120 72 125 96T131 168V441Q131 494 125 529T109 585Q90 622 48 638Q41 641 33 643T16 646V657H272L560 238H563V488Q563 536 559 560T547 601Q539 617 528 626T503 639Q495 642 488 643T469
646V657H685V646Q674 645 667 644T651 639Q622 631 608 601Q601 584 597 560T592 488V-4H538Z" />
<glyph unicode="&#x144;" glyph-name="nacute" horiz-adv-x="558" d="M426 623Q426 603 413 589T379 563Q353 549 314 532T218 487L211 495Q228 519 241 538T266 573T286 602T306 628Q324 651 338 664T372 677Q426 677 426 623ZM489 127Q489 107 490 85T494 50Q499
33 505 27T522 16Q533 12 547 10V0H297V10Q307 11 320 16Q331 21 337 30T346 56Q348 67 348 82T349 115V330Q349 354 346 368T335 390Q328 398 320 401T296 404Q277 404 254 384T222 314Q214 279 214 237V115Q214 98 214 83T217 55Q220 38 225 30T243 16Q254 11
266 10V0H16V10Q21 11 28 12T41 16Q51 21 57 27T69 50Q72 61 72 84T73 127V318Q73 333 73 354T70 387Q68 400 63 406T52 418Q44 423 36 424T20 427V438H208Q214 438 214 431Q214 427 214 416T213 392T213 367T212 348H215Q224 373 237 390T265 418Q285 432 311
439T360 447Q394 447 418 439T459 409Q473 392 481 368T489 309V127Z" />
<glyph unicode="&#x145;" glyph-name="Ncommaaccent" horiz-adv-x="691" d="M425 -119Q425 -176 389 -209T293 -258L287 -243Q324 -232 346 -218T368 -185Q368 -171 358 -167Q327 -161 308 -147T289 -101Q289 -74 309 -58T353 -41Q383 -41 404 -61T425 -119ZM538
-4L162 525H158V168Q158 121 162 97T175 56Q190 25 218 17Q226 15 234 14T253 11V0H35V11Q55 12 70 17Q98 25 113 55Q120 72 125 96T131 168V441Q131 494 125 529T109 585Q90 622 48 638Q41 641 33 643T16 646V657H272L560 238H563V488Q563 536 559 560T547 601Q539
617 528 626T503 639Q495 642 488 643T469 646V657H685V646Q674 645 667 644T651 639Q622 631 608 601Q601 584 597 560T592 488V-4H538Z" />
<glyph unicode="&#x146;" glyph-name="ncommaaccent" horiz-adv-x="558" d="M350 -109Q350 -166 314 -199T218 -248L212 -233Q249 -222 271 -208T293 -175Q293 -161 283 -157Q252 -151 233 -137T214 -91Q214 -64 234 -48T278 -31Q308 -31 329 -51T350 -109ZM489
127Q489 107 490 85T494 50Q499 33 505 27T522 16Q533 12 547 10V0H297V10Q307 11 320 16Q331 21 337 30T346 56Q348 67 348 82T349 115V330Q349 354 346 368T335 390Q328 398 320 401T296 404Q277 404 254 384T222 314Q214 279 214 237V115Q214 98 214 83T217
55Q220 38 225 30T243 16Q254 11 266 10V0H16V10Q21 11 28 12T41 16Q51 21 57 27T69 50Q72 61 72 84T73 127V318Q73 333 73 354T70 387Q68 400 63 406T52 418Q44 423 36 424T20 427V438H208Q214 438 214 431Q214 427 214 416T213 392T213 367T212 348H215Q224 373
237 390T265 418Q285 432 311 439T360 447Q394 447 418 439T459 409Q473 392 481 368T489 309V127Z" />
<glyph unicode="&#x147;" glyph-name="Ncaron" horiz-adv-x="691" d="M252 844L385 783L517 844L526 835Q517 825 501 806T468 766T436 728T417 706H353Q348 711 334 728T303 765T269 805T244 835L252 844ZM538 -4L162 525H158V168Q158 121 162 97T175 56Q190
25 218 17Q226 15 234 14T253 11V0H35V11Q55 12 70 17Q98 25 113 55Q120 72 125 96T131 168V441Q131 494 125 529T109 585Q90 622 48 638Q41 641 33 643T16 646V657H272L560 238H563V488Q563 536 559 560T547 601Q539 617 528 626T503 639Q495 642 488 643T469
646V657H685V646Q674 645 667 644T651 639Q622 631 608 601Q601 584 597 560T592 488V-4H538Z" />
<glyph unicode="&#x148;" glyph-name="ncaron" horiz-adv-x="558" d="M422 660Q414 649 398 624T364 571T332 522T313 494H252Q248 500 234 522T202 571T168 623T143 660L153 669L282 577L412 669L422 660ZM489 127Q489 107 490 85T494 50Q499 33 505 27T522 16Q533
12 547 10V0H297V10Q307 11 320 16Q331 21 337 30T346 56Q348 67 348 82T349 115V330Q349 354 346 368T335 390Q328 398 320 401T296 404Q277 404 254 384T222 314Q214 279 214 237V115Q214 98 214 83T217 55Q220 38 225 30T243 16Q254 11 266 10V0H16V10Q21 11
28 12T41 16Q51 21 57 27T69 50Q72 61 72 84T73 127V318Q73 333 73 354T70 387Q68 400 63 406T52 418Q44 423 36 424T20 427V438H208Q214 438 214 431Q214 427 214 416T213 392T213 367T212 348H215Q224 373 237 390T265 418Q285 432 311 439T360 447Q394 447 418
439T459 409Q473 392 481 368T489 309V127Z" />
<glyph unicode="&#x149;" glyph-name="napostrophe" horiz-adv-x="556" d="M315 595Q315 538 279 496T182 433L175 449Q209 463 232 482T255 521Q255 534 246 539Q217 544 199 562T180 612Q180 636 198 655T242 674Q276 674 295 653T315 595ZM489 127Q489 107
490 85T494 50Q499 33 505 27T522 16Q533 12 547 10V0H297V10Q307 11 320 16Q331 21 337 30T346 56Q348 67 348 82T349 115V330Q349 354 346 368T335 390Q328 398 320 401T296 404Q277 404 254 384T222 314Q214 279 214 237V115Q214 98 214 83T217 55Q220 38 225
30T243 16Q254 11 266 10V0H16V10Q21 11 28 12T41 16Q51 21 57 27T69 50Q72 61 72 84T73 127V318Q73 333 73 354T70 387Q68 400 63 406T52 418Q44 423 36 424T20 427V438H208Q214 438 214 431Q214 427 214 416T213 392T213 367T212 348H215Q224 373 237 390T265
418Q285 432 311 439T360 447Q394 447 418 439T459 409Q473 392 481 368T489 309V127Z" />
<glyph unicode="&#x14a;" glyph-name="Eng" horiz-adv-x="691" d="M685 646Q674 645 667 644T651 639Q622 631 608 601Q601 584 597 560T592 488V-27Q592 -69 581 -101T550 -156T503 -190T444 -202Q370 -202 329 -164Q310 -147 300 -125T289 -73Q289 -28 312 -7T367
14Q403 14 422 -5T443 -56Q443 -78 435 -105Q430 -120 425 -130T421 -146Q421 -165 431 -171T456 -177Q476 -177 494 -168T526 -144Q563 -102 563 -27V-1L162 525H158V168Q158 121 162 97T175 56Q190 25 218 17Q226 15 234 14T253 11V0H35V11Q55 12 70 17Q98 25
113 55Q120 72 125 96T131 168V441Q131 494 125 529T109 585Q90 622 48 638Q41 641 33 643T16 646V657H272L560 254H563V488Q563 536 559 560T547 601Q539 617 528 626T503 639Q495 642 488 643T469 646V657H685V646Z" />
<glyph unicode="&#x14b;" glyph-name="eng" horiz-adv-x="529" d="M489 10Q489 -23 483 -49T466 -95T444 -130T419 -158Q404 -174 370 -191T285 -209Q259 -209 236 -204T195 -187Q176 -175 165 -156T154 -113Q154 -87 173 -69T221 -51Q250 -51 266 -67T283 -110Q283
-117 281 -125T276 -143Q274 -150 272 -156T269 -168Q269 -177 274 -183T291 -190Q308 -190 318 -182T335 -158Q341 -144 345 -119T349 -65V330Q349 354 346 368T335 390Q328 398 320 401T296 404Q277 404 254 384T222 314Q214 279 214 237V115Q214 98 214 83T217
55Q220 38 225 30T243 16Q254 11 266 10V0H16V10Q21 11 28 12T41 16Q51 21 57 27T69 50Q72 61 72 84T73 127V318Q73 333 73 354T70 387Q68 400 63 406T52 418Q44 423 36 424T20 427V438H208Q214 438 214 431Q214 427 214 416T213 392T213 367T212 348H215Q224 373
237 390T265 418Q285 432 311 439T360 447Q394 447 418 439T459 409Q473 392 481 368T489 309V10Z" />
<glyph unicode="&#x14c;" glyph-name="Omacron" horiz-adv-x="696" d="M210 715V766H484V715H210ZM347 670Q418 670 477 646T578 578T643 470T666 328Q666 250 643 187T578 79T477 10T347 -14Q276 -14 218 10T117 79T52 187T29 328Q29 406 52 469T117 577T217
646T347 670ZM347 7Q365 7 383 10T417 27Q434 40 448 62T472 121T488 207T494 328Q494 398 489 448T473 535T448 593T417 630Q400 642 383 645T347 649Q330 649 313 646T279 630Q262 616 248 594T223 535T207 449T201 328Q201 258 206 208T222 122T247 63T279 27Q295
15 312 11T347 7Z" />
<glyph unicode="&#x14d;" glyph-name="omacron" horiz-adv-x="498" d="M127 545V596H371V545H127ZM22 219Q22 273 41 315T92 387T165 431T249 447Q292 447 333 432T405 387T456 316T476 219Q476 165 457 123T406 51T333 7T249 -9Q205 -9 165 6T92 51T41 122T22
219ZM328 219Q328 300 320 346T294 413Q285 424 273 427T249 431Q237 431 225 427T204 413Q186 393 178 347T169 219Q169 138 177 92T203 25Q213 14 225 11T249 7Q261 7 272 10T294 25Q311 45 319 91T328 219Z" />
<glyph unicode="&#x14e;" glyph-name="Obreve" horiz-adv-x="696" d="M488 840Q477 771 441 737T347 702Q290 702 254 736T207 840L220 846Q243 810 276 794T347 778Q386 778 419 794T475 846L488 840ZM347 670Q418 670 477 646T578 578T643 470T666 328Q666 250
643 187T578 79T477 10T347 -14Q276 -14 218 10T117 79T52 187T29 328Q29 406 52 469T117 577T217 646T347 670ZM347 7Q365 7 383 10T417 27Q434 40 448 62T472 121T488 207T494 328Q494 398 489 448T473 535T448 593T417 630Q400 642 383 645T347 649Q330 649
313 646T279 630Q262 616 248 594T223 535T207 449T201 328Q201 258 206 208T222 122T247 63T279 27Q295 15 312 11T347 7Z" />
<glyph unicode="&#x14f;" glyph-name="obreve" horiz-adv-x="498" d="M22 219Q22 273 41 315T92 387T165 431T249 447Q292 447 333 432T405 387T456 316T476 219Q476 165 457 123T406 51T333 7T249 -9Q205 -9 165 6T92 51T41 122T22 219ZM328 219Q328 300 320
346T294 413Q285 424 273 427T249 431Q237 431 225 427T204 413Q186 393 178 347T169 219Q169 138 177 92T203 25Q213 14 225 11T249 7Q261 7 272 10T294 25Q311 45 319 91T328 219ZM373 656Q368 589 337 550T249 511Q193 511 162 550T125 656L137 661Q154 622
184 605T249 587Q283 587 313 604T360 661L373 656Z" />
<glyph unicode="&#x150;" glyph-name="Ohungarumlaut" horiz-adv-x="696" d="M405 834Q405 814 390 799T355 771Q337 759 311 745T243 705H226Q241 729 251 745T268 775T283 800T298 824Q314 849 328 862T362 875Q405 875 405 834ZM573 834Q573 814 558 799T523
771Q504 759 479 745T410 705H393Q408 729 418 745T435 775T450 800T465 824Q481 849 495 862T529 875Q573 875 573 834ZM347 670Q418 670 477 646T578 578T643 470T666 328Q666 250 643 187T578 79T477 10T347 -14Q276 -14 218 10T117 79T52 187T29 328Q29 406
52 469T117 577T217 646T347 670ZM347 7Q365 7 383 10T417 27Q434 40 448 62T472 121T488 207T494 328Q494 398 489 448T473 535T448 593T417 630Q400 642 383 645T347 649Q330 649 313 646T279 630Q262 616 248 594T223 535T207 449T201 328Q201 258 206 208T222
122T247 63T279 27Q295 15 312 11T347 7Z" />
<glyph unicode="&#x151;" glyph-name="ohungarumlaut" horiz-adv-x="498" d="M253 671Q275 671 288 657T302 620Q302 603 292 589T263 560Q242 543 213 526T138 480L128 486Q151 534 164 563T190 619Q201 642 214 656T253 671ZM426 671Q448 671 461 657T475 620Q475
603 465 589T436 560Q415 543 386 526T311 480L301 486Q325 534 338 563T363 619Q374 642 387 656T426 671ZM22 219Q22 273 41 315T92 387T165 431T249 447Q292 447 333 432T405 387T456 316T476 219Q476 165 457 123T406 51T333 7T249 -9Q205 -9 165 6T92 51T41
122T22 219ZM328 219Q328 300 320 346T294 413Q285 424 273 427T249 431Q237 431 225 427T204 413Q186 393 178 347T169 219Q169 138 177 92T203 25Q213 14 225 11T249 7Q261 7 272 10T294 25Q311 45 319 91T328 219Z" />
<glyph unicode="&#x152;" glyph-name="OE" horiz-adv-x="973" d="M925 0H348Q276 0 218 22T117 86T52 189T29 329Q29 408 52 469T117 572T217 635T348 657H906L930 446H918Q904 483 883 519T833 586Q813 607 786 620T722 634H698Q688 634 679 633T663 628Q648
620 641 606Q634 594 631 577T628 534V352H662Q683 352 697 353T720 357T737 364T751 376Q770 395 783 425T799 481H811V201H799Q796 226 784 255T753 302Q740 314 722 321T662 329H628V149Q628 121 630 101T639 66Q643 57 649 50T661 37Q672 29 686 26T715 23H735Q767
23 792 36T837 72Q869 108 894 153T933 239H945L925 0ZM348 636Q329 636 312 632T278 616Q261 602 247 581T222 527T207 445T201 329Q201 260 206 211T222 129T246 75T278 40Q294 28 312 24T348 20Q382 20 405 34T442 83T462 177T468 329Q468 411 464 469T448 565T411
619T348 636Z" />
<glyph unicode="&#x153;" glyph-name="oe" horiz-adv-x="751" d="M733 271Q733 262 733 252T731 234H474V221Q475 144 487 105T519 46Q530 35 546 28T582 21Q611 21 633 32T671 60T697 99T714 141L729 135Q722 105 708 79T671 34T617 3T546 -8Q523 -8 501 -2T459
15T423 40T397 70Q371 37 331 14T247 -9Q203 -9 163 6T91 51T41 122T22 219Q22 273 41 315T91 387T163 431T247 447Q291 447 333 426T396 370Q417 404 458 425T542 447Q590 447 625 433T684 394T720 337T733 271ZM604 290Q604 337 598 369T577 416Q564 429 544
429Q520 429 505 413Q491 397 484 360T475 254H575Q591 254 597 262T604 290ZM324 219Q324 300 317 346T292 412Q282 423 271 426T247 430Q235 430 224 427T203 413Q185 393 177 347T169 219Q169 138 177 92T203 25Q212 14 223 11T247 7Q259 7 270 10T292 25Q309
45 316 91T324 219Z" />
<glyph unicode="&#x154;" glyph-name="Racute" horiz-adv-x="676" d="M428 849Q449 849 463 835T478 795Q478 770 459 757T415 737Q384 729 339 720T233 699L228 709Q273 747 302 771T357 816Q379 834 394 841T428 849ZM308 634Q280 634 270 617Q265 609 264 596T262
566V340H308Q346 340 366 348T399 376Q412 397 417 429T422 493Q422 561 401 597T329 634H308ZM354 0H17V11Q25 12 32 13T48 16Q65 21 76 31T95 65Q101 82 102 108T104 167V490Q104 522 102 548T94 592Q87 615 76 625T48 640Q30 645 17 646V657H361Q410 657 453
648T528 619T578 568T597 491Q597 440 572 405T507 351Q490 343 470 336T420 327V323Q444 320 470 313T514 294Q537 278 557 251T585 176Q596 112 608 77T637 27Q645 20 659 16T684 11V0H465Q451 19 439 53T423 131Q418 182 412 220T386 284Q370 306 350 310T299
315H262V167Q262 135 264 109T273 65Q280 42 291 32T319 16Q327 14 337 13T354 11V0Z" />
<glyph unicode="&#x155;" glyph-name="racute" horiz-adv-x="402" d="M383 623Q383 603 370 589T336 563Q310 549 271 532T175 487L168 495Q185 519 198 538T223 573T243 602T263 628Q281 651 295 664T329 677Q383 677 383 623ZM215 333Q226 368 240 389T267 422Q279
432 296 439T338 447Q355 447 370 443T396 428Q404 419 409 405T414 369Q414 337 396 320T353 303Q326 303 313 316T291 353Q286 369 282 375T269 382Q257 382 239 352T216 267Q215 261 215 241T214 201V116Q214 98 215 82T218 55Q221 38 228 30T247 16Q253 14
261 13T276 10V0H16V10Q29 12 41 16Q51 21 57 27T69 51Q72 62 73 84T74 127V335Q74 344 74 353T73 371T71 386Q69 400 65 406T54 418Q46 423 37 424T20 427V438H208Q214 438 214 431V414Q214 401 214 385T213 354V333H215Z" />
<glyph unicode="&#x156;" glyph-name="Rcommaaccent" horiz-adv-x="676" d="M423 -119Q423 -176 387 -209T291 -258L285 -243Q322 -232 344 -218T366 -185Q366 -171 356 -167Q325 -161 306 -147T287 -101Q287 -74 307 -58T351 -41Q381 -41 402 -61T423 -119ZM308
634Q280 634 270 617Q265 609 264 596T262 566V340H308Q346 340 366 348T399 376Q412 397 417 429T422 493Q422 561 401 597T329 634H308ZM354 0H17V11Q25 12 32 13T48 16Q65 21 76 31T95 65Q101 82 102 108T104 167V490Q104 522 102 548T94 592Q87 615 76 625T48
640Q30 645 17 646V657H361Q410 657 453 648T528 619T578 568T597 491Q597 440 572 405T507 351Q490 343 470 336T420 327V323Q444 320 470 313T514 294Q537 278 557 251T585 176Q596 112 608 77T637 27Q645 20 659 16T684 11V0H465Q451 19 439 53T423 131Q418
182 412 220T386 284Q370 306 350 310T299 315H262V167Q262 135 264 109T273 65Q280 42 291 32T319 16Q327 14 337 13T354 11V0Z" />
<glyph unicode="&#x157;" glyph-name="rcommaaccent" horiz-adv-x="402" d="M206 -109Q206 -166 170 -199T74 -248L68 -233Q105 -222 127 -208T149 -175Q149 -161 139 -157Q108 -151 89 -137T70 -91Q70 -64 90 -48T134 -31Q164 -31 185 -51T206 -109ZM215 333Q226
368 240 389T267 422Q279 432 296 439T338 447Q355 447 370 443T396 428Q404 419 409 405T414 369Q414 337 396 320T353 303Q326 303 313 316T291 353Q286 369 282 375T269 382Q257 382 239 352T216 267Q215 261 215 241T214 201V116Q214 98 215 82T218 55Q221
38 228 30T247 16Q253 14 261 13T276 10V0H16V10Q29 12 41 16Q51 21 57 27T69 51Q72 62 73 84T74 127V335Q74 344 74 353T73 371T71 386Q69 400 65 406T54 418Q46 423 37 424T20 427V438H208Q214 438 214 431V414Q214 401 214 385T213 354V333H215Z" />
<glyph unicode="&#x158;" glyph-name="Rcaron" horiz-adv-x="676" d="M202 844L335 783L467 844L476 835Q467 825 451 806T418 766T386 728T367 706H303Q298 711 284 728T253 765T219 805T194 835L202 844ZM308 634Q280 634 270 617Q265 609 264 596T262 566V340H308Q346
340 366 348T399 376Q412 397 417 429T422 493Q422 561 401 597T329 634H308ZM354 0H17V11Q25 12 32 13T48 16Q65 21 76 31T95 65Q101 82 102 108T104 167V490Q104 522 102 548T94 592Q87 615 76 625T48 640Q30 645 17 646V657H361Q410 657 453 648T528 619T578
568T597 491Q597 440 572 405T507 351Q490 343 470 336T420 327V323Q444 320 470 313T514 294Q537 278 557 251T585 176Q596 112 608 77T637 27Q645 20 659 16T684 11V0H465Q451 19 439 53T423 131Q418 182 412 220T386 284Q370 306 350 310T299 315H262V167Q262
135 264 109T273 65Q280 42 291 32T319 16Q327 14 337 13T354 11V0Z" />
<glyph unicode="&#x159;" glyph-name="rcaron" horiz-adv-x="402" d="M384 660Q376 649 360 624T326 571T294 522T275 494H214Q210 500 196 522T164 571T130 623T105 660L115 669L244 577L374 669L384 660ZM215 333Q226 368 240 389T267 422Q279 432 296 439T338
447Q355 447 370 443T396 428Q404 419 409 405T414 369Q414 337 396 320T353 303Q326 303 313 316T291 353Q286 369 282 375T269 382Q257 382 239 352T216 267Q215 261 215 241T214 201V116Q214 98 215 82T218 55Q221 38 228 30T247 16Q253 14 261 13T276 10V0H16V10Q29
12 41 16Q51 21 57 27T69 51Q72 62 73 84T74 127V335Q74 344 74 353T73 371T71 386Q69 400 65 406T54 418Q46 423 37 424T20 427V438H208Q214 438 214 431V414Q214 401 214 385T213 354V333H215Z" />
<glyph unicode="&#x15a;" glyph-name="Sacute" horiz-adv-x="536" d="M453 446Q444 481 428 516T392 578Q371 609 342 628T267 648Q219 648 195 623T170 561Q170 528 181 507T210 470T254 444T307 421Q346 404 382 386T447 343T493 283T511 195Q511 143 492 104T439
39T361 -1T269 -14Q243 -14 217 -8T167 7T126 29T97 53H93L60 3H48L43 236H56Q68 194 88 153T135 80T196 28T271 8Q329 8 354 38T379 113Q379 136 373 154T350 189T307 221T240 253Q205 267 170 285T106 330T59 393T41 481Q41 523 59 558T108 618T179 656T265 670Q314
670 350 655T405 616H408L440 655H454L466 446H453ZM362 849Q383 849 397 835T412 795Q412 770 393 757T349 737Q318 729 273 720T167 699L162 709Q207 747 236 771T291 816Q313 834 328 841T362 849Z" />
<glyph unicode="&#x15b;" glyph-name="sacute" horiz-adv-x="390" d="M343 623Q343 603 330 589T296 563Q270 549 231 532T135 487L128 495Q145 519 158 538T183 573T203 602T223 628Q241 651 255 664T289 677Q343 677 343 623ZM369 139Q369 105 356 78T320 31T267
2T200 -9Q169 -9 135 2T78 33H74L42 1H33L27 163H39Q46 131 62 103T100 53T147 20T200 7Q235 7 249 21T264 68Q264 99 237 117T161 155Q139 164 115 175T72 205T40 249T27 311Q27 340 39 365T73 408T125 436T191 447Q206 447 222 444T253 436T280 424T299 410H302L324
437H333L337 306H326Q319 331 307 353T277 392Q241 430 192 430Q166 430 149 417T131 374Q131 343 156 325T228 289Q256 278 282 266T327 237T357 196T369 139Z" />
<glyph unicode="&#x15c;" glyph-name="Scircumflex" horiz-adv-x="536" d="M401 706L269 767L136 706L128 714Q137 724 153 744T186 784T218 822T237 844H301Q305 839 319 822T351 785T385 744T410 714L401 706ZM453 446Q444 481 428 516T392 578Q371 609 342
628T267 648Q219 648 195 623T170 561Q170 528 181 507T210 470T254 444T307 421Q346 404 382 386T447 343T493 283T511 195Q511 143 492 104T439 39T361 -1T269 -14Q243 -14 217 -8T167 7T126 29T97 53H93L60 3H48L43 236H56Q68 194 88 153T135 80T196 28T271
8Q329 8 354 38T379 113Q379 136 373 154T350 189T307 221T240 253Q205 267 170 285T106 330T59 393T41 481Q41 523 59 558T108 618T179 656T265 670Q314 670 350 655T405 616H408L440 655H454L466 446H453Z" />
<glyph unicode="&#x15d;" glyph-name="scircumflex" horiz-adv-x="390" d="M327 493L197 581L68 493L58 502Q66 513 82 538T116 591T148 640T167 668H228Q232 662 246 640T278 591T312 539T337 502L327 493ZM369 139Q369 105 356 78T320 31T267 2T200 -9Q169 -9
135 2T78 33H74L42 1H33L27 163H39Q46 131 62 103T100 53T147 20T200 7Q235 7 249 21T264 68Q264 99 237 117T161 155Q139 164 115 175T72 205T40 249T27 311Q27 340 39 365T73 408T125 436T191 447Q206 447 222 444T253 436T280 424T299 410H302L324 437H333L337
306H326Q319 331 307 353T277 392Q241 430 192 430Q166 430 149 417T131 374Q131 343 156 325T228 289Q256 278 282 266T327 237T357 196T369 139Z" />
<glyph unicode="&#x15e;" glyph-name="Scedilla" horiz-adv-x="536" d="M453 446Q444 481 428 516T392 578Q371 609 342 628T267 648Q219 648 195 623T170 561Q170 528 181 507T210 470T254 444T307 421Q346 404 382 386T447 343T493 283T511 195Q511 143 492
104T439 39T361 -1T269 -14Q243 -14 217 -8T167 7T126 29T97 53H93L60 3H48L43 236H56Q68 194 88 153T135 80T196 28T271 8Q329 8 354 38T379 113Q379 136 373 154T350 189T307 221T240 253Q205 267 170 285T106 330T59 393T41 481Q41 523 59 558T108 618T179 656T265
670Q314 670 350 655T405 616H408L440 655H454L466 446H453ZM356 144Q356 121 346 106T320 80T283 66T240 62Q219 62 195 68T158 82L165 94Q175 89 191 86T222 82Q248 82 263 96T279 142Q279 171 267 183T240 196Q232 196 225 194T211 185L195 192L214 256H234L219
205Q227 210 241 213T267 217Q310 217 333 199T356 144Z" />
<glyph unicode="&#x15f;" glyph-name="scedilla" horiz-adv-x="390" d="M369 139Q369 105 356 78T320 31T267 2T200 -9Q169 -9 135 2T78 33H74L42 1H33L27 163H39Q46 131 62 103T100 53T147 20T200 7Q235 7 249 21T264 68Q264 99 237 117T161 155Q139 164 115
175T72 205T40 249T27 311Q27 340 39 365T73 408T125 436T191 447Q206 447 222 444T253 436T280 424T299 410H302L324 437H333L337 306H326Q319 331 307 353T277 392Q241 430 192 430Q166 430 149 417T131 374Q131 343 156 325T228 289Q256 278 282 266T327 237T357
196T369 139ZM284 144Q284 121 274 106T248 80T211 66T168 62Q147 62 123 68T86 82L93 94Q103 89 119 86T150 82Q176 82 191 96T207 142Q207 171 195 183T168 196Q160 196 153 194T139 185L123 192L142 256H162L147 205Q155 210 169 213T195 217Q238 217 261 199T284
144Z" />
<glyph unicode="&#x160;" glyph-name="Scaron" horiz-adv-x="536" d="M136 844L269 783L401 844L410 835Q401 825 385 806T352 766T320 728T301 706H237Q232 711 218 728T187 765T153 805T128 835L136 844ZM453 446Q444 481 428 516T392 578Q371 609 342 628T267
648Q219 648 195 623T170 561Q170 528 181 507T210 470T254 444T307 421Q346 404 382 386T447 343T493 283T511 195Q511 143 492 104T439 39T361 -1T269 -14Q243 -14 217 -8T167 7T126 29T97 53H93L60 3H48L43 236H56Q68 194 88 153T135 80T196 28T271 8Q329 8
354 38T379 113Q379 136 373 154T350 189T307 221T240 253Q205 267 170 285T106 330T59 393T41 481Q41 523 59 558T108 618T179 656T265 670Q314 670 350 655T405 616H408L440 655H454L466 446H453Z" />
<glyph unicode="&#x161;" glyph-name="scaron" horiz-adv-x="390" d="M332 660Q324 649 308 624T274 571T242 522T223 494H162Q158 500 144 522T112 571T78 623T53 660L63 669L192 577L322 669L332 660ZM369 139Q369 105 356 78T320 31T267 2T200 -9Q169 -9 135
2T78 33H74L42 1H33L27 163H39Q46 131 62 103T100 53T147 20T200 7Q235 7 249 21T264 68Q264 99 237 117T161 155Q139 164 115 175T72 205T40 249T27 311Q27 340 39 365T73 408T125 436T191 447Q206 447 222 444T253 436T280 424T299 410H302L324 437H333L337 306H326Q319
331 307 353T277 392Q241 430 192 430Q166 430 149 417T131 374Q131 343 156 325T228 289Q256 278 282 266T327 237T357 196T369 139Z" />
<glyph unicode="&#x162;" glyph-name="Tcommaaccent" horiz-adv-x="617" d="M378 -119Q378 -176 342 -209T246 -258L240 -243Q277 -232 299 -218T321 -185Q321 -171 311 -167Q280 -161 261 -147T242 -101Q242 -74 262 -58T306 -41Q336 -41 357 -61T378 -119ZM387
167Q387 135 389 109T397 66Q404 43 415 32T444 16Q452 14 459 13T474 11V0H143V11Q150 12 157 13T173 16Q189 21 201 32T220 66Q226 83 228 109T230 167V635H208Q177 635 153 621T100 571Q74 541 55 504T20 435H8L30 657H586L609 435H597Q581 467 562 503T518
569Q492 603 466 619T408 635H388L387 167Z" />
<glyph unicode="&#x163;" glyph-name="tcommaaccent" horiz-adv-x="327" d="M242 -109Q242 -166 206 -199T110 -248L104 -233Q141 -222 163 -208T185 -175Q185 -161 175 -157Q144 -151 125 -137T106 -91Q106 -64 126 -48T170 -31Q200 -31 221 -51T242 -109ZM326
60Q319 48 308 36T280 14T244 -2T198 -9Q129 -9 97 20Q77 37 70 60T62 114V139Q62 160 62 189T63 254T64 320T65 377V412Q54 413 36 413T7 414V431Q141 459 185 611H207V438H305V411H207L204 103Q204 76 213 57T255 38Q296 38 317 70L326 60Z" />
<glyph unicode="&#x164;" glyph-name="Tcaron" horiz-adv-x="617" d="M175 844L308 783L440 844L449 835Q440 825 424 806T391 766T359 728T340 706H276Q271 711 257 728T226 765T192 805T167 835L175 844ZM387 167Q387 135 389 109T397 66Q404 43 415 32T444
16Q452 14 459 13T474 11V0H143V11Q150 12 157 13T173 16Q189 21 201 32T220 66Q226 83 228 109T230 167V635H208Q177 635 153 621T100 571Q74 541 55 504T20 435H8L30 657H586L609 435H597Q581 467 562 503T518 569Q492 603 466 619T408 635H388L387 167Z" />
<glyph unicode="&#x165;" glyph-name="tcaron" horiz-adv-x="327" d="M269 685H363Q342 643 317 591T268 490H254L269 685ZM326 60Q319 48 308 36T280 14T244 -2T198 -9Q129 -9 97 20Q77 37 70 60T62 114V139Q62 160 62 189T63 254T64 320T65 377V412Q54 413 36
413T7 414V431Q141 459 185 611H207V438H305V411H207L204 103Q204 76 213 57T255 38Q296 38 317 70L326 60Z" />
<glyph unicode="&#x166;" glyph-name="Tbar" horiz-adv-x="617" d="M597 435Q581 467 562 503T518 569Q492 603 466 619T408 635H387V407H507V379H387V167Q387 135 389 109T397 66Q404 43 415 32T444 16Q452 14 459 13T474 11V0H143V11Q150 12 157 13T173 16Q189
21 201 32T220 66Q226 83 228 109T230 167V379H111V407H230V635H208Q177 635 153 621T100 571Q74 541 55 504T20 435H8L30 657H586L609 435H597Z" />
<glyph unicode="&#x167;" glyph-name="tbar" horiz-adv-x="327" d="M7 333H64Q65 357 65 377V412Q54 413 36 413T7 414V431Q141 459 185 611H207V438H305V411H207L206 333H305V309H206L204 103Q204 76 213 57T255 38Q296 38 317 70L326 60Q319 48 308 36T280 14T244
-2T198 -9Q129 -9 97 20Q77 37 70 60T62 114V139Q62 160 62 189T63 254Q64 282 64 309H7V333Z" />
<glyph unicode="&#x168;" glyph-name="Utilde" horiz-adv-x="673" d="M580 222Q580 179 573 142T549 75Q540 58 524 43T483 15T425 -5T350 -13Q310 -13 275 -8T209 10T156 44T118 98Q112 110 107 129T99 168T95 209T93 246V490Q93 523 91 549T83 592Q76 615 64
625T36 641Q19 646 6 646V657H338V646Q331 645 324 644T307 641Q291 636 280 626T260 592Q255 575 253 549T251 490V202Q251 176 254 152T266 107Q283 63 315 45T394 26Q442 26 477 45T529 100Q540 123 545 153T550 218V490Q550 514 549 531T545 561T540 584T533
602Q526 617 515 626T490 640Q475 645 455 646V657H674V646Q663 645 656 644T640 640Q627 636 616 627T597 602Q589 585 585 562T580 490V222ZM548 838Q543 816 536 794T517 754T488 725T444 714Q428 714 408 718T368 727T330 737T301 741Q281 741 266 734T239
701L224 705Q230 726 238 747T258 786T288 814T329 825Q343 825 363 821T403 812T441 802T470 798Q496 798 510 807T533 840L548 838Z" />
<glyph unicode="&#x169;" glyph-name="utilde" horiz-adv-x="542" d="M64 316Q64 334 64 356T60 388Q56 402 51 409T39 420Q32 424 24 425T7 428V438H199Q206 438 206 430Q206 421 206 391T205 324V110Q205 65 219 47Q233 29 258 29Q282 29 304 56T331 137Q333
154 333 168T334 203V328Q334 344 334 359T331 384Q326 412 311 420Q304 424 295 425T277 428V438H469Q476 438 476 430Q476 421 476 392T475 328V116Q475 101 475 83T478 53Q484 27 499 19Q506 14 514 13T531 10V0Q528 0 499 0T436 -1T373 -2T344 -3Q339 -3 339
1Q338 3 338 10V21Q337 22 337 32V85H334Q326 62 317 47T291 19Q272 4 249 -2T203 -9Q173 -9 146 -2T100 23Q81 43 73 70T65 131L64 316ZM422 655Q417 633 410 611T390 570T360 539T317 527Q301 527 284 531T250 540T218 549T192 553Q169 553 153 544T126 509L111
511Q116 532 124 554T145 595T175 625T216 637Q230 637 246 633T279 625T311 616T337 612Q364 612 380 622T406 656L422 655Z" />
<glyph unicode="&#x16a;" glyph-name="Umacron" horiz-adv-x="673" d="M580 222Q580 179 573 142T549 75Q540 58 524 43T483 15T425 -5T350 -13Q310 -13 275 -8T209 10T156 44T118 98Q112 110 107 129T99 168T95 209T93 246V490Q93 523 91 549T83 592Q76 615 64
625T36 641Q19 646 6 646V657H338V646Q331 645 324 644T307 641Q291 636 280 626T260 592Q255 575 253 549T251 490V202Q251 176 254 152T266 107Q283 63 315 45T394 26Q442 26 477 45T529 100Q540 123 545 153T550 218V490Q550 514 549 531T545 561T540 584T533
602Q526 617 515 626T490 640Q475 645 455 646V657H674V646Q663 645 656 644T640 640Q627 636 616 627T597 602Q589 585 585 562T580 490V222ZM243 715V766H517V715H243Z" />
<glyph unicode="&#x16b;" glyph-name="umacron" horiz-adv-x="542" d="M64 316Q64 334 64 356T60 388Q56 402 51 409T39 420Q32 424 24 425T7 428V438H199Q206 438 206 430Q206 421 206 391T205 324V110Q205 65 219 47Q233 29 258 29Q282 29 304 56T331 137Q333
154 333 168T334 203V328Q334 344 334 359T331 384Q326 412 311 420Q304 424 295 425T277 428V438H469Q476 438 476 430Q476 421 476 392T475 328V116Q475 101 475 83T478 53Q484 27 499 19Q506 14 514 13T531 10V0Q528 0 499 0T436 -1T373 -2T344 -3Q339 -3 339
1Q338 3 338 10V21Q337 22 337 32V85H334Q326 62 317 47T291 19Q272 4 249 -2T203 -9Q173 -9 146 -2T100 23Q81 43 73 70T65 131L64 316ZM144 545V596H388V545H144Z" />
<glyph unicode="&#x16c;" glyph-name="Ubreve" horiz-adv-x="673" d="M580 222Q580 179 573 142T549 75Q540 58 524 43T483 15T425 -5T350 -13Q310 -13 275 -8T209 10T156 44T118 98Q112 110 107 129T99 168T95 209T93 246V490Q93 523 91 549T83 592Q76 615 64
625T36 641Q19 646 6 646V657H338V646Q331 645 324 644T307 641Q291 636 280 626T260 592Q255 575 253 549T251 490V202Q251 176 254 152T266 107Q283 63 315 45T394 26Q442 26 477 45T529 100Q540 123 545 153T550 218V490Q550 514 549 531T545 561T540 584T533
602Q526 617 515 626T490 640Q475 645 455 646V657H674V646Q663 645 656 644T640 640Q627 636 616 627T597 602Q589 585 585 562T580 490V222ZM521 840Q510 771 474 737T380 702Q323 702 287 736T240 840L253 846Q276 810 309 794T380 778Q419 778 452 794T508
846L521 840Z" />
<glyph unicode="&#x16d;" glyph-name="ubreve" horiz-adv-x="542" d="M64 316Q64 334 64 356T60 388Q56 402 51 409T39 420Q32 424 24 425T7 428V438H199Q206 438 206 430Q206 421 206 391T205 324V110Q205 65 219 47Q233 29 258 29Q282 29 304 56T331 137Q333
154 333 168T334 203V328Q334 344 334 359T331 384Q326 412 311 420Q304 424 295 425T277 428V438H469Q476 438 476 430Q476 421 476 392T475 328V116Q475 101 475 83T478 53Q484 27 499 19Q506 14 514 13T531 10V0Q528 0 499 0T436 -1T373 -2T344 -3Q339 -3 339
1Q338 3 338 10V21Q337 22 337 32V85H334Q326 62 317 47T291 19Q272 4 249 -2T203 -9Q173 -9 146 -2T100 23Q81 43 73 70T65 131L64 316ZM391 656Q386 589 355 550T267 511Q211 511 180 550T143 656L155 661Q172 622 202 605T267 587Q301 587 331 604T378 661L391
656Z" />
<glyph unicode="&#x16e;" glyph-name="Uring" horiz-adv-x="673" d="M580 222Q580 179 573 142T549 75Q540 58 524 43T483 15T425 -5T350 -13Q310 -13 275 -8T209 10T156 44T118 98Q112 110 107 129T99 168T95 209T93 246V490Q93 523 91 549T83 592Q76 615 64
625T36 641Q19 646 6 646V657H338V646Q331 645 324 644T307 641Q291 636 280 626T260 592Q255 575 253 549T251 490V202Q251 176 254 152T266 107Q283 63 315 45T394 26Q442 26 477 45T529 100Q540 123 545 153T550 218V490Q550 514 549 531T545 561T540 584T533
602Q526 617 515 626T490 640Q475 645 455 646V657H674V646Q663 645 656 644T640 640Q627 636 616 627T597 602Q589 585 585 562T580 490V222ZM481 768Q481 748 474 732T454 705T426 687T393 680Q358 680 332 703T305 768Q305 808 331 831T392 855Q427 855 453
832T481 768ZM451 767Q451 797 435 813T392 830Q366 830 350 814T333 768Q333 739 349 723T391 706Q417 706 434 722T451 767Z" />
<glyph unicode="&#x16f;" glyph-name="uring" horiz-adv-x="542" d="M354 590Q354 570 347 554T327 527T299 510T266 503Q231 503 205 526T178 590Q178 630 204 653T265 677Q300 677 326 654T354 590ZM324 590Q324 619 308 635T265 652Q239 652 223 636T206 590Q206
561 222 545T264 529Q290 529 307 544T324 590ZM64 316Q64 334 64 356T60 388Q56 402 51 409T39 420Q32 424 24 425T7 428V438H199Q206 438 206 430Q206 421 206 391T205 324V110Q205 65 219 47Q233 29 258 29Q282 29 304 56T331 137Q333 154 333 168T334 203V328Q334
344 334 359T331 384Q326 412 311 420Q304 424 295 425T277 428V438H469Q476 438 476 430Q476 421 476 392T475 328V116Q475 101 475 83T478 53Q484 27 499 19Q506 14 514 13T531 10V0Q528 0 499 0T436 -1T373 -2T344 -3Q339 -3 339 1Q338 3 338 10V21Q337 22 337
32V85H334Q326 62 317 47T291 19Q272 4 249 -2T203 -9Q173 -9 146 -2T100 23Q81 43 73 70T65 131L64 316Z" />
<glyph unicode="&#x170;" glyph-name="Uhungarumlaut" horiz-adv-x="673" d="M437 834Q437 814 422 799T387 771Q369 759 343 745T275 705H258Q273 729 283 745T300 775T315 800T330 824Q346 849 360 862T394 875Q437 875 437 834ZM605 834Q605 814 590 799T555
771Q536 759 511 745T442 705H425Q440 729 450 745T467 775T482 800T497 824Q513 849 527 862T561 875Q605 875 605 834ZM580 222Q580 179 573 142T549 75Q540 58 524 43T483 15T425 -5T350 -13Q310 -13 275 -8T209 10T156 44T118 98Q112 110 107 129T99 168T95
209T93 246V490Q93 523 91 549T83 592Q76 615 64 625T36 641Q19 646 6 646V657H338V646Q331 645 324 644T307 641Q291 636 280 626T260 592Q255 575 253 549T251 490V202Q251 176 254 152T266 107Q283 63 315 45T394 26Q442 26 477 45T529 100Q540 123 545 153T550
218V490Q550 514 549 531T545 561T540 584T533 602Q526 617 515 626T490 640Q475 645 455 646V657H674V646Q663 645 656 644T640 640Q627 636 616 627T597 602Q589 585 585 562T580 490V222Z" />
<glyph unicode="&#x171;" glyph-name="uhungarumlaut" horiz-adv-x="542" d="M64 316Q64 334 64 356T60 388Q56 402 51 409T39 420Q32 424 24 425T7 428V438H199Q206 438 206 430Q206 421 206 391T205 324V110Q205 65 219 47Q233 29 258 29Q282 29 304 56T331
137Q333 154 333 168T334 203V328Q334 344 334 359T331 384Q326 412 311 420Q304 424 295 425T277 428V438H469Q476 438 476 430Q476 421 476 392T475 328V116Q475 101 475 83T478 53Q484 27 499 19Q506 14 514 13T531 10V0Q528 0 499 0T436 -1T373 -2T344 -3Q339
-3 339 1Q338 3 338 10V21Q337 22 337 32V85H334Q326 62 317 47T291 19Q272 4 249 -2T203 -9Q173 -9 146 -2T100 23Q81 43 73 70T65 131L64 316ZM270 671Q292 671 305 657T319 620Q319 603 309 589T280 560Q259 543 230 526T155 480L145 486Q168 534 181 563T207
619Q218 642 231 656T270 671ZM443 671Q465 671 478 657T492 620Q492 603 482 589T453 560Q432 543 403 526T328 480L318 486Q342 534 355 563T380 619Q391 642 404 656T443 671Z" />
<glyph unicode="&#x172;" glyph-name="Uogonek" horiz-adv-x="673" d="M279 -133Q279 -112 290 -95T319 -63T363 -34Q387 -21 415 -7Q400 -10 384 -11Q366 -13 350 -13Q310 -13 275 -8T209 10T156 44T118 98Q112 110 107 129T99 168T95 209T93 246V490Q93 523
91 549T83 592Q76 615 64 625T36 641Q19 646 6 646V657H338V646Q331 645 324 644T307 641Q291 636 280 626T260 592Q255 575 253 549T251 490V202Q251 176 254 152T266 107Q283 63 315 45T394 26Q442 26 477 45T529 100Q540 123 545 153T550 218V490Q550 514 549
531T545 561T540 584T533 602Q526 617 515 626T490 640Q475 645 455 646V657H674V646Q663 645 656 644T640 640Q627 636 616 627T597 602Q589 585 585 562T580 490V222Q580 179 573 142T549 75Q539 58 523 44T489 18Q435 -11 410 -44T384 -132Q384 -168 401 -184T452
-204V-215Q364 -220 322 -198T279 -133Z" />
<glyph unicode="&#x173;" glyph-name="uogonek" horiz-adv-x="542" d="M372 -215Q284 -220 242 -198T199 -133Q199 -111 211 -94T243 -62T288 -35L337 -11V85H334Q326 62 317 47T291 19Q272 4 249 -2T203 -9Q173 -9 146 -2T100 23Q81 43 73 70T65 131L64 316Q64
334 64 356T60 388Q56 402 51 409T39 420Q32 424 24 425T7 428V438H199Q206 438 206 430Q206 421 206 391T205 324V110Q205 65 219 47Q233 29 258 29Q282 29 304 56T331 137Q333 154 333 168T334 203V328Q334 344 334 359T331 384Q326 412 311 420Q304 424 295
425T277 428V438H469Q476 438 476 430Q476 421 476 392T475 328V116Q475 101 475 83T478 53Q484 27 499 19Q506 14 514 13T531 10V0Q529 0 516 0T487 -1T458 -1T443 -2Q401 -3 374 -14T332 -43T311 -84T305 -132Q305 -168 322 -184T372 -204V-215Z" />
<glyph unicode="&#x174;" glyph-name="Wcircumflex" horiz-adv-x="962" d="M658 706L526 767L393 706L385 714Q394 724 410 744T443 784T475 822T494 844H558Q562 839 576 822T608 785T642 744T667 714L658 706ZM483 483L324 -4H255L111 489Q101 523 92 547T73
588T50 616T20 636Q12 640 1 642T-19 646V657H328V646Q305 642 286 630T267 587Q267 568 271 549T284 502L361 214H366L468 533Q457 565 447 585T424 616Q411 630 396 636T364 646V657H710V646Q697 644 684 641T661 631T644 614T637 587Q637 568 641 548T654 502L731
214H736L827 506Q835 529 839 550T844 586Q844 603 838 614T822 632T799 642T771 646V657H976V646Q951 641 932 633T896 596Q888 582 879 561T859 505L694 -4H625L483 483Z" />
<glyph unicode="&#x175;" glyph-name="wcircumflex" horiz-adv-x="688" d="M519 493L389 581L260 493L250 502Q258 513 274 538T308 591T340 640T359 668H420Q424 662 438 640T470 591T504 539T529 502L519 493ZM344 302L243 -3H171L70 304Q59 333 51 357T32 393Q24
405 19 410T5 421Q0 424 -6 425T-17 428V438H246V428Q238 427 231 426T217 419Q204 409 204 388Q204 375 207 361T216 326L268 140H271Q274 150 283 177T302 236T321 295T333 333Q328 349 324 361T315 381Q308 397 302 405T288 419Q281 424 276 425T263 428V438H524V428Q516
427 507 426T492 420Q477 412 477 387Q477 373 480 359T491 321L540 140H542L600 317Q609 344 612 359T615 390Q615 402 611 408T598 420Q592 424 585 425T570 428V438H706V428Q699 427 692 426T677 419Q670 415 665 410T653 395Q646 385 640 368T623 320L516 -3H444L344
302Z" />
<glyph unicode="&#x176;" glyph-name="Ycircumflex" horiz-adv-x="648" d="M113 544Q88 593 64 616T1 646V657H338V646Q330 645 320 644T301 639Q273 628 273 600T292 530L389 325H394L481 507Q496 538 503 559T511 598Q511 615 504 624T482 639Q474 642 464 643T445
646V657H651V646Q628 642 610 633T575 608T544 566T511 506L407 287V170Q407 136 409 109T417 65Q424 42 435 32T463 17Q472 14 480 13T495 11V0H161V11Q168 12 176 13T193 17Q209 22 221 32T240 65Q245 82 247 109T249 170V269L113 544ZM503 706L371 767L238 706L230
714Q239 724 255 744T288 784T320 822T339 844H403Q407 839 421 822T453 785T487 744T512 714L503 706Z" />
<glyph unicode="&#x177;" glyph-name="ycircumflex" horiz-adv-x="444" d="M228 -78Q216 -110 203 -134T174 -175Q139 -213 84 -213Q48 -213 22 -195T-4 -136Q-4 -114 11 -97T55 -80Q78 -80 92 -91T115 -125Q122 -142 126 -152T142 -162Q170 -162 203 -80Q208
-66 212 -55T216 -42Q218 -37 218 -30T214 -15L88 304Q76 335 67 353T52 382Q45 396 38 404T21 418Q14 423 5 425T-12 428V438H265V428Q257 427 249 426T234 420Q218 410 218 389Q218 375 223 360T236 321L293 151H295L356 317Q365 342 368 358T372 389Q372 401
367 408T354 420Q347 424 339 425T324 428V438H470V428Q453 426 438 417T412 391Q405 381 399 366T381 321Q375 304 362 270T333 194T300 106T267 22T241 -44T228 -78ZM395 493L265 581L136 493L126 502Q134 513 150 538T184 591T216 640T235 668H296Q300 662 314
640T346 591T380 539T405 502L395 493Z" />
<glyph unicode="&#x178;" glyph-name="Ydieresis" horiz-adv-x="648" d="M113 544Q88 593 64 616T1 646V657H338V646Q330 645 320 644T301 639Q273 628 273 600T292 530L389 325H394L481 507Q496 538 503 559T511 598Q511 615 504 624T482 639Q474 642 464 643T445
646V657H651V646Q628 642 610 633T575 608T544 566T511 506L407 287V170Q407 136 409 109T417 65Q424 42 435 32T463 17Q472 14 480 13T495 11V0H161V11Q168 12 176 13T193 17Q209 22 221 32T240 65Q245 82 247 109T249 170V269L113 544ZM257 842Q286 842 305 822T324
776Q324 749 305 730T257 710Q228 710 210 729T192 775Q192 802 210 822T257 842ZM483 842Q511 842 530 822T549 776Q549 749 530 730T483 710Q454 710 436 729T417 775Q417 802 435 822T483 842Z" />
<glyph unicode="&#x179;" glyph-name="Zacute" horiz-adv-x="594" d="M412 849Q433 849 447 835T462 795Q462 770 443 757T399 737Q368 729 323 720T217 699L212 709Q257 747 286 771T341 816Q363 834 378 841T412 849ZM570 646L222 28H282Q346 28 383 41T451
81Q473 101 489 119T519 156T543 191T566 228H579L537 0H26V12L391 628H315Q263 628 224 615T161 584Q135 565 107 528T55 452H42L76 657H570V646Z" />
<glyph unicode="&#x17a;" glyph-name="zacute" horiz-adv-x="427" d="M363 623Q363 603 350 589T316 563Q290 549 251 532T155 487L148 495Q165 519 178 538T203 573T223 602T243 628Q261 651 275 664T309 677Q363 677 363 623ZM383 0H13V9L232 415V419H153Q131
419 114 407T86 380Q82 376 64 348T23 274H10L43 438H391V426L176 21V17H246Q275 17 296 31T332 66Q335 69 345 84T367 118T389 153T401 172H414L383 0Z" />
<glyph unicode="&#x17b;" glyph-name="Zdotaccent" horiz-adv-x="594" d="M570 646L222 28H282Q346 28 383 41T451 81Q473 101 489 119T519 156T543 191T566 228H579L537 0H26V12L391 628H315Q263 628 224 615T161 584Q135 565 107 528T55 452H42L76 657H570V646ZM393
781Q393 750 372 729T318 708Q286 708 265 729T244 781Q244 813 265 834T318 856Q349 856 371 835T393 781Z" />
<glyph unicode="&#x17c;" glyph-name="zdotaccent" horiz-adv-x="427" d="M383 0H13V9L232 415V419H153Q131 419 114 407T86 380Q82 376 64 348T23 274H10L43 438H391V426L176 21V17H246Q275 17 296 31T332 66Q335 69 345 84T367 118T389 153T401 172H414L383
0ZM218 516Q187 516 166 537T145 589Q145 620 166 642T218 664Q249 664 271 643T293 589Q293 557 272 537T218 516Z" />
<glyph unicode="&#x17d;" glyph-name="Zcaron" horiz-adv-x="594" d="M186 844L319 783L451 844L460 835Q451 825 435 806T402 766T370 728T351 706H287Q282 711 268 728T237 765T203 805T178 835L186 844ZM570 646L222 28H282Q346 28 383 41T451 81Q473 101 489
119T519 156T543 191T566 228H579L537 0H26V12L391 628H315Q263 628 224 615T161 584Q135 565 107 528T55 452H42L76 657H570V646Z" />
<glyph unicode="&#x17e;" glyph-name="zcaron" horiz-adv-x="427" d="M361 660Q353 649 337 624T303 571T271 522T252 494H191Q187 500 173 522T141 571T107 623T82 660L92 669L221 577L351 669L361 660ZM383 0H13V9L232 415V419H153Q131 419 114 407T86 380Q82
376 64 348T23 274H10L43 438H391V426L176 21V17H246Q275 17 296 31T332 66Q335 69 345 84T367 118T389 153T401 172H414L383 0Z" />
<glyph unicode="&#x192;" glyph-name="florin" horiz-adv-x="456" d="M513 577Q513 542 494 528T449 514Q417 514 402 531T386 569Q385 580 390 599T394 630Q392 641 387 644T373 648Q365 648 357 642T339 619Q323 590 308 543T275 424H367L360 399H269Q259 358
248 311T225 214T200 116T173 25Q157 -23 132 -61T74 -126T4 -167T-76 -182Q-134 -182 -170 -157T-206 -91Q-206 -73 -201 -61T-186 -43T-167 -33T-148 -30Q-117 -30 -104 -47T-89 -87Q-89 -98 -92 -113T-93 -139Q-92 -149 -88 -154T-71 -160Q-30 -160 -3 -91Q18
-33 33 28T62 152T87 277T115 399H45L50 424H121Q126 443 130 455T139 484Q157 532 185 566T246 623T313 656T380 667Q440 667 476 643T513 577Z" />
<glyph unicode="&#x1fa;" glyph-name="Aringacute" horiz-adv-x="628" d="M245 457H241L160 228H321L245 457ZM-16 12Q-5 14 5 16T26 25Q37 32 46 41T65 66Q75 80 84 101T104 152L289 662H347L500 211Q517 160 532 122T562 60Q573 43 584 34T608 20Q617 17 625
15T642 11V0H292V12Q301 13 312 15T330 21Q344 26 354 37T364 69Q364 89 358 109T344 156L329 205H152L133 148Q125 127 121 108T117 74Q117 52 126 39T149 21Q160 16 170 15T189 12V0H-16V12ZM408 1042Q429 1042 443 1028T458 988Q458 963 439 950T395 930Q364
922 319 913T213 892L208 902Q253 940 282 964T337 1009Q359 1027 374 1034T408 1042ZM403 789Q403 769 396 753T376 726T348 708T315 701Q280 701 254 724T227 789Q227 829 253 852T314 876Q349 876 375 853T403 789ZM373 788Q373 818 357 834T314 851Q288 851
272 835T255 789Q255 760 271 744T313 727Q339 727 356 743T373 788Z" />
<glyph unicode="&#x1fb;" glyph-name="aringacute" horiz-adv-x="460" d="M351 -9Q323 -9 307 -4T279 11Q271 17 266 29T260 60H257Q246 24 215 8T139 -9Q117 -9 96 -3T59 17T32 52T22 104Q22 130 29 146T50 176Q69 196 100 206T158 224Q215 240 234 258T255 300V316Q255
327 255 337T256 357V372Q256 406 246 417T208 429Q189 429 181 423T169 411Q165 403 165 387T162 351Q159 295 103 295Q77 295 62 308T46 347Q46 360 50 371T62 392Q81 416 123 431T214 447Q297 447 345 420T394 327V288Q394 260 394 226T393 158V106Q393 71 395
56T403 32Q412 22 429 22Q444 22 455 28L458 18Q450 10 422 1T351 -9ZM254 257Q246 246 236 240T215 226Q201 218 192 209T176 188Q170 175 167 154T164 109Q164 67 175 50T207 33Q223 33 237 51T253 101L254 257ZM315 835Q315 815 308 799T288 772T260 755T227
748Q192 748 166 771T139 835Q139 875 165 898T226 922Q261 922 287 899T315 835ZM285 835Q285 864 269 880T226 897Q200 897 184 881T167 835Q167 806 183 790T225 774Q251 774 268 789T285 835ZM324 1094Q345 1094 359 1080T374 1040Q374 1015 355 1002T311 982Q280
974 235 965T129 944L124 954Q169 992 198 1016T253 1061Q275 1079 290 1086T324 1094Z" />
<glyph unicode="&#x1fc;" glyph-name="AEacute" horiz-adv-x="904" d="M700 849Q721 849 735 835T750 795Q750 770 731 757T687 737Q656 729 611 720T505 699L500 709Q545 747 574 771T629 816Q651 834 666 841T700 849ZM319 0V11Q333 11 350 17Q367 21 378 31T397
65Q402 82 404 109T407 170V226H189L151 158Q141 141 133 116T125 74Q125 53 134 40T157 21Q167 16 177 15T196 12V0H-18V12Q4 15 22 27T57 60T90 106T123 162L382 618Q377 627 369 632T350 640Q342 642 334 643T318 645V657H836L860 446H848Q833 483 812 519T762
586Q743 607 716 620T651 634H633Q618 634 606 631T585 618Q571 604 567 581T563 534V353H595Q616 353 630 354T653 357T669 364T683 376Q703 395 716 425T732 481H744V201H732Q729 226 717 255T686 302Q673 314 655 321T595 329H563V149Q563 121 566 92T586 46Q597
34 614 29T651 23H669Q701 23 725 36T769 73Q800 110 825 154T865 239H877L856 0H319ZM407 486Q407 519 405 546T397 593L203 250H407V486Z" />
<glyph unicode="&#x1fd;" glyph-name="aeacute" horiz-adv-x="678" d="M505 623Q505 603 492 589T458 563Q432 549 393 532T297 487L290 495Q307 519 320 538T345 573T365 602T385 628Q403 651 417 664T451 677Q505 677 505 623ZM149 -9Q127 -9 105 -3T64 18T34
53T22 104Q22 130 29 146T50 176Q59 186 72 193T99 206T129 216T158 224Q214 240 233 259T255 301V317Q255 327 255 337T256 357V372Q256 406 246 417T208 429Q194 429 183 425T168 411Q165 403 165 388T162 352Q160 325 147 310T103 295Q77 295 62 308T46 347Q46
373 62 392Q72 405 89 415T126 433T170 443T214 447Q256 447 289 433T342 395Q354 407 369 417T402 433T436 443T470 447Q516 447 551 433T611 395T648 338T661 269V250Q661 241 660 234H402Q402 192 405 161T415 108T429 71T447 46Q458 35 474 28T510 21Q539 21
561 32T599 60T625 99T642 141L658 136Q650 106 636 80T600 34T546 3T475 -9Q436 -9 398 2T331 36Q316 48 305 61T282 93Q267 39 231 15T149 -9ZM532 290Q532 333 527 364T510 413Q495 429 472 429Q461 429 451 426T432 412Q418 397 411 360T402 254H504Q520 254
526 262T532 290ZM254 257Q246 246 236 240T214 226Q187 211 176 188Q169 175 166 154T163 109Q163 67 175 49T207 30Q224 30 237 48T253 99L254 257Z" />
<glyph unicode="&#x1fe;" glyph-name="Oslashacute" horiz-adv-x="696" d="M347 670Q418 670 477 646Q491 640 505 633L555 718L575 706L525 621Q554 602 578 577Q620 533 643 470T666 328Q666 250 643 187T578 79T477 10T347 -14Q276 -14 217 10Q196 19 177 30L124
-60L105 -48L158 42Q136 58 117 79Q75 124 52 187T29 328Q29 406 52 469T117 577T217 646T347 670ZM347 7Q365 7 383 10T417 27Q434 40 448 62T472 121T488 207T494 328Q494 398 488 448Q483 497 473 533L225 112Q235 83 247 63Q262 40 279 27Q295 15 312 11T347
7ZM448 593Q434 616 417 630Q400 642 383 645T347 649Q330 649 313 646T279 630Q262 616 248 594T223 535T207 449T201 328Q201 258 206 207Q210 171 217 142L463 562Q456 580 448 593ZM441 849Q462 849 476 835T491 795Q491 770 472 757T428 737Q397 729 352 720T246
699L241 709Q286 747 315 771T370 816Q392 834 407 841T441 849Z" />
<glyph unicode="&#x1ff;" glyph-name="oslashacute" horiz-adv-x="498" d="M22 219Q22 273 41 315T92 387T165 431T249 447Q289 447 328 433L363 517L382 508L347 425Q379 411 405 387Q437 358 456 316T476 219Q476 165 457 123T406 51T333 7T249 -9Q208 -9 169
4L134 -80L115 -71L150 12Q118 27 92 51Q60 80 41 122T22 219ZM294 413Q285 424 273 427T249 431Q237 431 225 427T204 413Q186 393 178 347T169 219Q169 138 177 91L179 81L309 388Q302 403 294 413ZM328 219Q328 300 320 346Q319 352 318 357L188 50Q195 34 203
25Q213 14 225 11T249 7Q261 7 272 10T294 25Q311 45 319 91T328 219ZM394 623Q394 603 381 589T347 563Q321 549 282 532T186 487L179 495Q196 519 209 538T234 573T254 602T274 628Q292 651 306 664T340 677Q394 677 394 623Z" />
<glyph unicode="&#x218;" glyph-name="Scommaaccent" horiz-adv-x="536" d="M329 -119Q329 -176 293 -209T197 -258L191 -243Q228 -232 250 -218T272 -185Q272 -171 262 -167Q231 -161 212 -147T193 -101Q193 -74 213 -58T257 -41Q287 -41 308 -61T329 -119ZM453
446Q444 481 428 516T392 578Q371 609 342 628T267 648Q219 648 195 623T170 561Q170 528 181 507T210 470T254 444T307 421Q346 404 382 386T447 343T493 283T511 195Q511 143 492 104T439 39T361 -1T269 -14Q243 -14 217 -8T167 7T126 29T97 53H93L60 3H48L43
236H56Q68 194 88 153T135 80T196 28T271 8Q329 8 354 38T379 113Q379 136 373 154T350 189T307 221T240 253Q205 267 170 285T106 330T59 393T41 481Q41 523 59 558T108 618T179 656T265 670Q314 670 350 655T405 616H408L440 655H454L466 446H453Z" />
<glyph unicode="&#x219;" glyph-name="scommaaccent" horiz-adv-x="390" d="M259 -109Q259 -166 223 -199T127 -248L121 -233Q158 -222 180 -208T202 -175Q202 -161 192 -157Q161 -151 142 -137T123 -91Q123 -64 143 -48T187 -31Q217 -31 238 -51T259 -109ZM369
139Q369 105 356 78T320 31T267 2T200 -9Q169 -9 135 2T78 33H74L42 1H33L27 163H39Q46 131 62 103T100 53T147 20T200 7Q235 7 249 21T264 68Q264 99 237 117T161 155Q139 164 115 175T72 205T40 249T27 311Q27 340 39 365T73 408T125 436T191 447Q206 447 222
444T253 436T280 424T299 410H302L324 437H333L337 306H326Q319 331 307 353T277 392Q241 430 192 430Q166 430 149 417T131 374Q131 343 156 325T228 289Q256 278 282 266T327 237T357 196T369 139Z" />
<glyph unicode="&#x21a;" glyph-name="uni021A" horiz-adv-x="617" d="M378 -119Q378 -176 342 -209T246 -258L240 -243Q277 -232 299 -218T321 -185Q321 -171 311 -167Q280 -161 261 -147T242 -101Q242 -74 262 -58T306 -41Q336 -41 357 -61T378 -119ZM387 167Q387
135 389 109T397 66Q404 43 415 32T444 16Q452 14 459 13T474 11V0H143V11Q150 12 157 13T173 16Q189 21 201 32T220 66Q226 83 228 109T230 167V635H208Q177 635 153 621T100 571Q74 541 55 504T20 435H8L30 657H586L609 435H597Q581 467 562 503T518 569Q492
603 466 619T408 635H388L387 167Z" />
<glyph unicode="&#x21b;" glyph-name="uni021B" horiz-adv-x="327" d="M242 -109Q242 -166 206 -199T110 -248L104 -233Q141 -222 163 -208T185 -175Q185 -161 175 -157Q144 -151 125 -137T106 -91Q106 -64 126 -48T170 -31Q200 -31 221 -51T242 -109ZM326 60Q319
48 308 36T280 14T244 -2T198 -9Q129 -9 97 20Q77 37 70 60T62 114V139Q62 160 62 189T63 254T64 320T65 377V412Q54 413 36 413T7 414V431Q141 459 185 611H207V438H305V411H207L204 103Q204 76 213 57T255 38Q296 38 317 70L326 60Z" />
<glyph unicode="&#x237;" glyph-name="uni0237" horiz-adv-x="255" d="M207 431Q206 418 206 402T205 364V6Q205 -33 198 -61T180 -110T156 -145T130 -170Q116 -182 83 -197T-1 -213Q-27 -213 -52 -207T-96 -188Q-116 -175 -128 -153T-141 -105Q-141 -76 -121
-55T-69 -33Q-37 -33 -20 -53T-2 -102Q-2 -110 -4 -119T-10 -139Q-17 -158 -17 -168Q-17 -179 -12 -186T6 -194Q23 -194 33 -185T50 -161Q56 -147 60 -123T64 -69V318Q64 333 63 354T60 387Q58 399 54 406T42 418Q35 423 27 424T10 427V438H200Q207 438 207 431Z"
/>
<glyph unicode="&#x2c6;" glyph-name="circumflex" horiz-adv-x="378" d="M318 493L188 581L59 493L49 502Q57 513 73 538T107 591T139 640T158 668H219Q223 662 237 640T269 591T303 539T328 502L318 493Z" />
<glyph unicode="&#x2c7;" glyph-name="caron" horiz-adv-x="378" d="M328 660Q320 649 304 624T270 571T238 522T219 494H158Q154 500 140 522T108 571T74 623T49 660L59 669L188 577L318 669L328 660Z" />
<glyph unicode="&#x2d8;" glyph-name="breve" horiz-adv-x="364" d="M310 656Q305 589 274 550T186 511Q130 511 99 550T62 656L74 661Q91 622 121 605T186 587Q220 587 250 604T297 661L310 656Z" />
<glyph unicode="&#x2d9;" glyph-name="dotaccent" horiz-adv-x="304" d="M151 516Q120 516 99 537T78 589Q78 620 99 642T151 664Q182 664 204 643T226 589Q226 557 205 537T151 516Z" />
<glyph unicode="&#x2da;" glyph-name="ring" horiz-adv-x="317" d="M247 590Q247 570 240 554T220 527T192 510T159 503Q124 503 98 526T71 590Q71 630 97 653T158 677Q193 677 219 654T247 590ZM217 590Q217 619 201 635T158 652Q132 652 116 636T99 590Q99 561
115 545T157 529Q183 529 200 544T217 590Z" />
<glyph unicode="&#x2db;" glyph-name="ogonek" horiz-adv-x="270" d="M214 -215Q126 -220 83 -198T40 -133Q40 -111 52 -94T84 -61T131 -31T185 0H204Q173 -29 160 -61T146 -132Q146 -168 163 -184T214 -204V-215Z" />
<glyph unicode="&#x2dc;" glyph-name="tilde" horiz-adv-x="392" d="M352 655Q347 633 340 611T320 570T290 539T247 527Q231 527 214 531T180 540T148 549T122 553Q99 553 83 544T56 509L41 511Q46 532 54 554T75 595T105 625T146 637Q160 637 176 633T209 625T241
616T267 612Q294 612 310 622T336 656L352 655Z" />
<glyph unicode="&#x2dd;" glyph-name="hungarumlaut" horiz-adv-x="441" d="M169 671Q191 671 204 657T218 620Q218 603 208 589T179 560Q158 543 129 526T54 480L44 486Q67 534 80 563T106 619Q117 642 130 656T169 671ZM342 671Q364 671 377 657T391 620Q391
603 381 589T352 560Q331 543 302 526T227 480L217 486Q241 534 254 563T279 619Q290 642 303 656T342 671Z" />
</font>
</defs>
</svg>
