<?xml version="1.0" standalone="no"?> <!DOCTYPE svg PUBLIC "-//W3C//DTD SVG 1.0//EN" "http://www.w3.org/TR/2001/REC-SVG-20010904/DTD/svg10.dtd" > <svg xmlns="http://www.w3.org/2000/svg" width="100%" height="100%">
<defs >
<font horiz-adv-x="627" ><font-face
    font-family=""
    units-per-em="1000"
    panose-1="2 2 11 3 7 7 2 10 4 3"
    ascent="787"
    descent="-213"
    alphabetic="0" />
<missing-glyph horiz-adv-x="100" />
<glyph unicode=" " glyph-name="space" horiz-adv-x="126" />
<glyph unicode="!" glyph-name="exclam" horiz-adv-x="382" d="M412 549Q412 516 390 477T334 395T263 309T191 225H176Q171 260 163 301T146 383T131 464T125 537Q125 562 132 586T157 628T203 658T274 669Q343 669 377 636T412 549ZM272 86Q272 42 242 15T158
-13Q106 -13 76 15T46 86Q46 127 77 155T160 184Q214 184 243 156T272 86Z" />
<glyph unicode="&quot;" glyph-name="quotedbl" horiz-adv-x="475" d="M531 585Q531 562 517 535T479 474T427 403T369 323H356Q354 359 353 395T349 465T346 525T345 571Q345 622 370 646T441 670Q477 670 504 650T531 585ZM307 585Q307 562 293 535T255 474T203
403T145 323H132Q130 359 129 395T125 464T122 525T121 571Q121 622 146 646T217 670Q253 670 280 650T307 585Z" />
<glyph unicode="#" glyph-name="numbersign" horiz-adv-x="598" d="M467 426L416 235H561V199H407L353 0H332L386 199H202Q196 177 194 166T189 149T185 135T179 113T168 72T149 0H127L181 199H31V235H189L241 426H83V462H250L302 656H323L271 462H455L507 656H528L476
462H611V426H467ZM263 426L211 235H394L446 426H263Z" />
<glyph unicode="$" glyph-name="dollar" horiz-adv-x="573" d="M620 539Q620 511 612 491T589 458T557 439T520 433Q502 433 484 439T452 457T429 488T420 531Q420 553 425 568T435 596T446 617T451 637Q451 661 411 664L363 472Q395 444 429 422T490 374T535
313T553 224Q553 174 534 130T476 53T378 0T240 -21L218 -108H196L218 -20Q161 -18 118 -4T45 31T1 78T-14 134Q-14 188 18 218T101 248Q121 248 139 242T172 222T195 190T204 146Q204 118 197 101T182 72T167 52T160 33Q160 24 174 14T223 2L272 197Q228 228 194
255T135 309T99 369T86 442Q86 490 106 534T165 613T262 667T396 688L409 738H430L417 687Q463 683 501 669T565 633T605 588T620 539ZM390 665Q377 665 363 661T338 646T319 617T311 573Q311 556 318 533T346 488L390 665ZM362 77Q362 103 346 129T290 182L246
2Q307 5 334 25T362 77Z" />
<glyph unicode="%" glyph-name="percent" horiz-adv-x="813" d="M803 188Q803 137 782 98T728 33T652 -6T567 -20Q531 -20 503 -9T454 23T423 70T412 131Q412 179 432 217T486 283T560 324T644 339Q680 339 709 327T759 294T791 246T803 188ZM668 295Q668 310
662 315T646 321Q638 321 631 318T618 303Q610 287 598 248T574 165T554 80T545 22Q545 -3 566 -3Q577 -3 584 1T599 20Q603 28 609 47T624 93T639 149T653 207T664 258T668 295ZM432 532Q432 481 411 442T357 377T281 338T196 324Q160 324 132 335T83 367T52 414T41
475Q41 523 61 561T115 627T189 668T273 683Q309 683 338 671T388 638T420 590T432 532ZM297 639Q297 654 291 659T275 665Q267 665 260 662T247 647Q239 631 227 592T203 509T183 424T174 366Q174 341 195 341Q206 341 213 345T228 364Q232 371 238 391T253 437T268
493T282 551T293 602T297 639ZM190 -18L172 -6L648 664L664 651L190 -18Z" />
<glyph unicode="&amp;" glyph-name="ampersand" horiz-adv-x="815" d="M869 537Q869 455 836 405T740 355Q715 355 689 359T624 375Q662 353 685 313T709 231Q709 192 689 149T626 70T519 11T366 -13Q278 -13 217 7T116 60T60 135T42 222Q42 250 52 279T86 335T146
382T233 416Q203 432 180 461T156 535Q156 571 169 598T205 644T260 673T330 683Q365 683 390 674T432 648T455 612T463 569Q463 551 456 535T439 506T417 484T397 468L390 476Q396 484 400 493T404 515Q404 537 388 551T335 565Q289 565 264 543T238 482Q238 462
241 449T250 427Q264 438 281 447T318 456Q341 456 355 445T369 414Q369 393 354 381T318 369Q298 369 282 377T245 406Q231 394 221 376T211 331Q211 300 224 270T265 215T335 176T435 161Q489 161 527 171T590 199T626 241T638 293Q638 321 628 341T602 373T566
391T525 397Q500 397 482 390T451 372T432 346T426 317Q426 288 441 273T474 253Q471 257 465 268T458 300Q458 326 474 346T526 366Q545 366 559 359T583 342T596 318T601 292Q601 253 578 232T522 211Q496 211 474 220T434 248T408 292T398 351Q398 385 414 418T458
478T525 521T609 537Q637 537 660 535T704 530Q727 526 748 523T790 520Q822 520 834 534T847 574Q847 600 835 610T803 621Q799 592 785 573T736 554Q712 554 694 570T676 614Q676 643 695 660T746 677Q803 677 836 640T869 537Z" />
<glyph unicode="&apos;" glyph-name="quotesingle" horiz-adv-x="251" d="M307 585Q307 562 293 535T255 474T203 403T145 323H132Q130 359 129 395T125 464T122 525T121 571Q121 622 146 646T217 670Q253 670 280 650T307 585Z" />
<glyph unicode="(" glyph-name="parenleft" horiz-adv-x="380" d="M276 -106Q237 -88 196 -58T121 15T66 110T44 227Q44 324 85 399T193 530T348 623T526 679L537 677Q483 632 434 570T347 431T287 263T265 69Q265 -25 287 -106H276Z" />
<glyph unicode=")" glyph-name="parenright" horiz-adv-x="380" d="M153 679Q192 661 233 631T308 558T363 463T385 346Q385 249 344 174T236 43T81 -50T-97 -106L-108 -104Q-54 -59 -5 3T82 142T142 310T164 504Q164 598 142 679H153Z" />
<glyph unicode="*" glyph-name="asterisk" horiz-adv-x="480" d="M307 307Q307 288 295 274T255 260Q230 260 218 274T205 307Q205 323 210 337T224 368T240 406T254 457Q237 431 228 411T213 373T200 342T183 318Q169 304 150 304T113 320Q97 336 97 355T111
388Q122 399 136 405T167 418T206 433T252 460Q222 454 200 446T162 431T131 418T101 412Q82 412 68 424T54 463Q54 488 68 500T101 513Q116 513 130 508T161 494T200 478T252 464Q226 481 205 490T167 506T136 518T111 535Q97 549 97 568T113 605Q130 622 150
621T183 608Q194 597 200 583T212 551T227 513T254 467Q248 497 240 519T224 557T211 588T205 617Q205 636 217 650T256 665Q282 665 294 651T307 617Q307 602 302 588T288 557T272 518T258 466Q275 491 284 512T300 551T312 582T330 607Q344 621 363 621T399 605Q413
591 414 570T401 535Q390 524 376 518T345 506T307 491T261 464Q291 470 313 478T351 494T382 507T411 513Q430 513 444 501T459 462Q458 436 445 424T412 412Q396 412 382 417T351 431T313 447T261 461Q286 443 307 434T345 419T376 406T401 388Q415 375 415 356T399
319Q382 303 363 303T330 317Q319 328 313 342T300 373T285 412T258 457Q264 427 272 405T288 367T301 336T307 307Z" />
<glyph unicode="+" glyph-name="plus" horiz-adv-x="453" d="M257 252V79H238V252H65V270H238V444H257V270H430V252H257Z" />
<glyph unicode="," glyph-name="comma" horiz-adv-x="294" d="M237 71Q237 30 213 -4T152 -65T68 -111T-25 -141L-29 -125Q47 -102 87 -76T128 -30Q128 -22 124 -19T106 -13Q78 -10 59 -1T27 22T10 51T5 84Q5 109 15 127T41 158T77 176T120 182Q171 182 204 154T237 71Z" />
<glyph unicode="-" glyph-name="hyphen" horiz-adv-x="292" d="M241 200H29L63 316H275L241 200Z" />
<glyph unicode="." glyph-name="period" horiz-adv-x="282" d="M231 84Q231 42 200 15T116 -13Q64 -13 34 15T4 84Q4 125 35 153T118 182Q172 182 201 153T231 84Z" />
<glyph unicode="/" glyph-name="slash" horiz-adv-x="315" d="M-42 -101L-78 -82L373 690L409 671L-42 -101Z" />
<glyph unicode="0" glyph-name="zero" horiz-adv-x="755" d="M489 670Q543 670 593 651T681 594T742 503T765 382Q765 295 730 222T636 97T498 15T331 -14Q275 -14 225 6T137 63T77 154T55 274Q55 360 88 433T180 558T318 640T489 670ZM330 10Q347 10 358 18T380
46Q388 62 401 105T430 204T462 324T491 445T512 546T520 607Q520 647 490 647Q475 647 465 640T443 616Q434 602 420 560T390 460T358 339T328 216T307 113T298 50Q298 30 305 20T330 10Z" />
<glyph unicode="1" glyph-name="one" horiz-adv-x="422" d="M164 532Q172 561 176 580T180 610Q180 627 168 632Q158 637 142 638T106 642L110 653Q126 653 156 654T222 656T296 658T366 660T420 661T446 662Q455 662 453 654Q450 643 445 625T435 591L321 131Q316
109 311 87T306 48Q306 30 319 23T361 11L359 0H-39L-37 11Q-26 12 -16 14T1 18Q13 22 21 28T36 45T49 77T63 131L164 532Z" />
<glyph unicode="2" glyph-name="two" horiz-adv-x="641" d="M111 140Q140 165 176 196T249 262T322 334T384 411T429 489T446 566Q446 601 429 625T373 650Q348 650 327 640T289 611T264 569T255 518Q255 487 267 474T299 460Q318 460 333 473T358 504L368 500Q362
471 347 446T308 403T258 375T200 364Q149 364 117 395T85 475Q85 514 108 550T174 613T275 656T404 672Q479 672 532 659T619 624T669 572T685 508Q685 440 631 390T472 299L202 193L200 187H420Q463 187 495 195T556 221Q583 238 604 255T645 291H656L497 0H-40Q-4
36 34 70T111 140Z" />
<glyph unicode="3" glyph-name="three" horiz-adv-x="645" d="M665 535Q665 494 643 465T580 416T485 384T365 365L364 360Q406 362 454 359T542 342T608 298T635 219Q635 172 618 136T571 75T502 32T421 5T334 -10T251 -14Q185 -14 138 -2T62 31T20 81T6 147Q6
168 13 188T35 224T72 249T123 259Q152 259 173 250T207 226T226 191T232 149Q232 122 223 103T203 69T183 44T174 26Q174 18 184 15T204 11Q248 11 280 38T332 106T362 191T372 271Q372 310 357 321T315 333Q300 333 276 325L221 307L214 326L269 345Q315 361
348 386T402 443T434 509T445 579Q445 618 430 633T390 649Q364 649 343 639T305 612T280 572T271 523Q271 501 282 486T313 471Q329 471 339 479T357 498L368 492Q349 445 314 419T228 392Q178 392 148 420T118 493Q118 536 144 569T211 624T304 658T408 670Q477
670 526 660T605 631T650 589T665 535Z" />
<glyph unicode="4" glyph-name="four" horiz-adv-x="689" d="M267 243L341 544H340L48 243H267ZM539 0H130L132 11Q164 13 183 21T215 54Q223 69 229 88T240 131L262 224H18L25 247L423 657H622Q629 657 626 647Q624 640 619 622T609 585L525 243H548Q586 243
605 253T638 280Q653 298 667 322T690 365H699L634 104H625Q627 128 624 150T614 187Q610 195 606 202T593 214T573 221T542 224H520L497 130Q492 109 487 89T481 49Q481 31 498 24T542 11L539 0Z" />
<glyph unicode="5" glyph-name="five" horiz-adv-x="569" d="M237 -14Q176 -14 133 -2T61 33T19 83T5 143Q5 167 13 187T36 221T70 243T111 251Q138 251 157 243T190 221T209 190T215 154Q215 122 204 100T184 66Q176 55 170 46T163 27Q163 15 173 11T196 6Q219
6 236 27T266 80T284 151T291 226Q291 290 264 318T200 346Q171 346 150 331T111 291L93 300L235 654H247Q271 640 317 631T417 622Q457 622 488 628T540 642T576 661T597 679L606 678Q588 622 562 579T500 505T417 460T310 444Q276 444 241 449T181 462L132 340L135
339Q164 371 209 386T321 401Q378 401 423 388T499 352T546 296T563 224Q563 174 543 131T483 55T381 5T237 -14Z" />
<glyph unicode="6" glyph-name="six" horiz-adv-x="676" d="M726 544Q726 496 697 470T620 444Q565 444 537 469T508 530Q508 554 517 571T538 602T559 624T569 642Q569 651 550 651Q523 651 495 633T442 582T394 505T357 410H362Q390 429 455 429Q500 429 538
418T603 385T646 330T662 250Q662 184 632 135T553 52T444 1T324 -16Q255 -16 203 2T116 55T62 138T44 247Q44 342 83 420T191 555T349 641T541 672Q629 672 677 639T726 544ZM429 362Q429 385 421 393T400 401Q386 401 376 394T357 366Q350 351 342 326T324 271T305
208T289 145T278 89T273 48Q273 25 282 16T304 7Q317 7 327 13T347 41Q359 68 373 115T400 210T420 301T429 362Z" />
<glyph unicode="7" glyph-name="seven" horiz-adv-x="546" d="M198 -15Q150 -15 117 13T84 90Q84 116 91 137T115 178T157 220T218 266Q253 291 292 317T369 368T441 418T499 462V464H225Q205 464 186 462T148 451T110 427T71 383H60L213 693H223Q226 679 236
668T277 656H675L674 650Q604 577 552 500T462 352T399 220T359 117Q333 47 294 16T198 -15Z" />
<glyph unicode="8" glyph-name="eight" horiz-adv-x="590" d="M3 121Q3 166 44 201T167 252Q124 285 101 327T78 426Q78 483 105 528T177 605T277 653T391 670Q483 670 532 636T582 550Q582 503 550 476T460 426Q503 397 532 355T562 250Q562 188 533 139T458
56T354 4T238 -14Q189 -14 146 -6T72 20T22 63T3 121ZM440 440Q467 463 479 491T491 544Q491 595 465 621T386 648Q338 648 312 630T286 581Q286 563 294 549T318 520T358 491T415 455Q422 450 428 447T440 440ZM189 237Q151 223 129 198T107 121Q107 67 144 38T243
8Q299 8 330 25T361 75Q361 91 356 103T338 128T303 157T247 196Q221 213 209 222T189 237Z" />
<glyph unicode="9" glyph-name="nine" horiz-adv-x="689" d="M317 293Q317 270 325 262T346 254Q360 254 370 261T389 289Q396 304 404 329T422 384T441 448T457 511T468 567T473 608Q473 631 464 640T442 649Q429 649 418 641T397 610Q390 593 382 567T364 509T347
445T332 382T321 329T317 293ZM32 112Q32 160 61 186T138 212Q193 212 221 187T250 126Q250 102 241 85T220 54T199 32T189 14Q189 5 208 5Q235 5 261 23T312 73T355 150T389 245H384Q370 235 349 231T294 226Q249 226 211 237T144 270T100 327T84 407Q84 473 114
522T195 605T309 655T439 672Q500 672 549 654T632 601T684 518T702 409Q702 314 666 236T564 101T410 15T217 -16Q129 -16 81 17T32 112Z" />
<glyph unicode=":" glyph-name="colon" horiz-adv-x="340" d="M323 376Q323 334 292 307T208 279Q156 279 126 307T96 376Q96 417 127 445T210 474Q264 474 293 445T323 376ZM236 84Q236 42 205 15T121 -13Q69 -13 39 15T9 84Q9 125 40 153T123 182Q177 182 206
153T236 84Z" />
<glyph unicode=";" glyph-name="semicolon" horiz-adv-x="341" d="M332 376Q332 334 301 307T217 279Q165 279 135 307T105 376Q105 417 136 445T219 474Q273 474 302 445T332 376ZM242 71Q242 30 218 -4T157 -65T73 -111T-20 -141L-24 -125Q52 -102 92 -76T133
-30Q133 -22 129 -19T111 -13Q83 -10 64 -1T32 22T15 51T10 84Q10 109 20 127T46 158T82 176T125 182Q176 182 209 154T242 71Z" />
<glyph unicode="&lt;" glyph-name="less" horiz-adv-x="377" d="M56 251V272L349 422V403L71 262L349 121V102L56 251Z" />
<glyph unicode="=" glyph-name="equal" horiz-adv-x="410" d="M63 337V355H400V337H63ZM63 162V180H400V162H63Z" />
<glyph unicode="&gt;" glyph-name="greater" horiz-adv-x="384" d="M68 102V121L346 262L68 403V422L361 272V251L68 102Z" />
<glyph unicode="?" glyph-name="question" horiz-adv-x="541" d="M582 475Q582 403 541 357T414 276Q363 256 338 245T312 220Q312 206 333 206Q344 206 355 212T375 226L384 218Q367 198 331 186T241 174Q210 174 182 179T133 197T99 230T86 279Q86 308 98 328T133
364T186 391T254 417Q305 435 335 452T382 486T404 520T410 558Q410 600 385 626T307 653Q283 653 260 647T219 629T190 597T179 553Q179 520 194 495T244 470Q257 470 264 477T273 493Q248 499 237 514T225 552Q225 579 243 598T294 618Q327 618 344 599T362 550Q362
530 349 512T314 480T266 458T213 449Q154 449 125 472T96 536Q96 562 111 586T155 629T225 659T319 671Q369 671 416 660T500 624T559 563T582 475ZM283 74Q283 36 255 12T177 -13Q128 -13 101 12T73 75Q73 112 99 135T177 159Q228 159 255 136T283 74Z" />
<glyph unicode="@" glyph-name="at" horiz-adv-x="905" d="M886 285Q886 221 865 167T805 72T710 9T582 -14Q530 -14 508 6T486 50Q486 64 487 72T490 87H487Q479 71 472 59T454 36Q429 9 400 -2T333 -14Q283 -14 255 19T226 103Q226 165 252 218T321 312T418
374T526 397Q564 397 578 388T597 366H601L609 378Q613 383 618 389H786Q781 373 773 350T757 302T739 249T721 198Q702 141 693 112T683 68Q683 44 701 44Q738 44 769 64T822 118T856 195T868 285Q868 353 843 403T774 487T669 537T535 554Q448 554 376 520T251
429T170 296T141 140Q141 59 164 -1T230 -100T336 -159T477 -179Q532 -179 581 -170T673 -146T749 -113T807 -76L814 -89Q793 -106 759 -124T681 -159T585 -185T475 -195Q368 -195 284 -172T141 -105T51 -1T20 138Q20 236 62 315T175 451T339 539T535 570Q614 570
679 551T790 496T861 406T886 285ZM574 360Q574 376 561 376Q556 376 547 370T522 336Q509 312 491 272T457 191T429 114T417 62Q417 43 431 43Q437 43 442 47T454 60Q466 73 475 92Q485 112 495 137T515 187Q523 206 528 221T539 251Q551 282 558 301T568 331T573
349T574 360Z" />
<glyph unicode="A" glyph-name="A" horiz-adv-x="669" d="M326 214H181L117 141Q100 121 86 99T71 54Q71 28 90 19Q99 15 109 14T126 11L124 0H-87L-84 11Q-75 13 -62 16T-38 26Q-12 40 19 70T82 138L528 657H695L550 77Q544 52 550 38T572 18Q582 15 592 14T611
11L609 0H218L220 11L235 13Q244 15 252 19Q266 26 276 37T292 76L326 214ZM203 239H332L380 437H375L203 239Z" />
<glyph unicode="B" glyph-name="B" horiz-adv-x="749" d="M757 509Q757 469 737 441T684 395T608 367T517 355V353Q626 340 679 304T733 201Q733 140 706 101T635 40T539 9T433 0H-40L-38 11Q-6 14 11 22Q26 29 38 41T56 76L180 577Q183 590 183 601Q183 613 177
621T162 634T141 641T119 646L122 657H528Q642 657 699 619T757 509ZM474 258Q474 299 460 320T407 342H381L318 87Q316 82 314 70T312 50Q312 39 319 31T343 22H361Q391 22 412 50T447 117T467 195T474 258ZM541 586Q541 618 530 627T499 637H479Q464 637 458
630T446 602L387 364H408Q422 364 441 367T481 390Q492 401 503 426T522 480T536 538T541 586Z" />
<glyph unicode="C" glyph-name="C" horiz-adv-x="676" d="M665 396H653Q653 444 646 490T621 572T577 629T511 651Q473 651 445 625T393 543Q376 504 357 446T323 325T297 201T287 95Q287 52 306 35T358 18Q398 18 437 34T512 78T577 141T629 216L646 205Q619
156 586 116T512 46T426 0T328 -16Q280 -16 229 -4T136 38T67 121T40 254Q40 341 75 417T173 550T318 639T498 672Q560 672 597 653T654 605H657L717 650H727L665 396Z" />
<glyph unicode="D" glyph-name="D" horiz-adv-x="775" d="M788 404Q787 310 756 226T645 80Q597 42 527 21T356 0H-41L-39 11Q-31 12 -20 12T3 18Q20 24 34 35T56 76L179 577Q181 585 182 592T183 606Q183 629 166 636T119 646L121 657H492Q571 657 627 639T720
587T772 508T788 404ZM499 333Q519 419 530 480T540 580Q538 612 527 624T491 636H483Q465 636 457 633T446 616L315 84Q312 72 311 63T309 45Q309 36 316 29T337 22H344Q367 22 383 32T414 68Q452 136 499 333Z" />
<glyph unicode="E" glyph-name="E" horiz-adv-x="701" d="M691 400H680Q672 419 662 442T642 489T620 537T597 581Q579 613 561 624T510 635H486Q464 635 456 628T442 594L382 352H403Q428 352 446 359T485 384Q511 404 531 427T569 479H580L511 198H501Q496 228
491 251T469 300Q457 319 440 324T397 330H377L312 69Q307 46 316 34T358 22H381Q397 22 410 23T435 30T460 45T490 72Q511 93 533 118T579 171T624 227T667 282H677L610 0H-41L-39 11Q-31 12 -20 13T3 18Q26 24 37 36T56 76L179 577Q182 592 182 603Q182 627 165
635T118 646L120 657H707L691 400Z" />
<glyph unicode="F" glyph-name="F" horiz-adv-x="663" d="M692 390H681Q664 436 647 482T609 566Q597 587 588 600T568 621T543 632T510 635H493Q467 635 459 626T444 594L387 360H407Q430 360 446 367T485 393Q509 414 529 437T566 488H576L504 196H494Q492 219
487 250T465 308Q454 325 440 331T399 338H381L317 79Q315 71 314 65T313 53Q313 30 337 22T388 12L386 0H-41L-39 11Q-30 12 -18 13T6 18Q24 25 37 37T57 76L179 577Q181 584 182 589T183 604Q183 627 165 635T119 646L122 657H721L692 390Z" />
<glyph unicode="G" glyph-name="G" horiz-adv-x="760" d="M768 303Q757 301 745 299T721 290Q716 286 711 282T699 267Q687 245 677 202L632 15H624Q615 23 600 33T556 43Q542 43 527 39T498 30T472 20T453 12Q424 1 387 -7T309 -16Q253 -16 205 0T119 50T61 133T40
252Q40 327 70 402T159 536T305 633T508 670Q539 670 565 664T611 647T644 624T664 600H667L720 637H729L672 397H662Q660 451 652 497T628 576T584 629T516 649Q484 649 461 632T419 589Q403 566 387 525T355 434T325 329T300 222T283 127T277 57Q277 30 290 18T335
5Q352 5 366 9T393 23Q408 36 417 60T435 115L452 183Q463 225 463 247Q463 297 396 303L399 314H771L768 303Z" />
<glyph unicode="H" glyph-name="H" horiz-adv-x="834" d="M932 646Q924 645 914 644T892 639Q874 633 859 620T838 581L713 77Q710 63 710 55Q710 30 728 22T774 11L772 0H382L384 11L399 13Q408 15 416 19Q430 26 439 38T455 76L514 316H373L314 77Q312 66 311
59T309 41Q309 32 313 26T324 17T337 13T349 11L347 0H-41L-39 11Q-30 12 -19 13T4 19Q23 26 37 40T56 76L180 580Q183 593 183 606Q183 626 165 635T119 646L122 657H512L509 646Q503 645 495 644T478 638Q465 631 455 619T438 581L380 344H521L580 580Q585 598
585 612Q585 622 581 628T569 638T555 643T542 646L544 657H934L932 646Z" />
<glyph unicode="I" glyph-name="I" horiz-adv-x="435" d="M533 646Q525 645 514 644T491 639Q473 634 459 620T438 580L314 77Q312 72 312 67T311 53Q311 30 328 23T375 11L373 0H-41L-39 11Q-30 12 -20 13T3 18Q22 24 34 36T55 77L180 580Q182 588 182 593T183
607Q183 618 176 625T159 637T138 643T119 646L121 657H535L533 646Z" />
<glyph unicode="J" glyph-name="J" horiz-adv-x="656" d="M765 646Q757 645 745 644T721 638Q701 631 688 621T667 581L582 237Q562 159 523 110T433 34T327 -4T223 -14Q162 -14 120 2T52 42T14 95T2 150Q2 205 35 242T129 279Q177 279 209 251T242 170Q242 136
231 115T199 75Q188 64 181 56T173 36Q173 9 212 9Q231 9 244 19T265 48Q272 63 279 85T296 145L404 580Q406 590 406 601Q406 624 388 634T340 646L342 657H767L765 646Z" />
<glyph unicode="K" glyph-name="K" horiz-adv-x="808" d="M592 -12Q548 -12 518 -1T470 29T442 72T432 121Q431 142 431 165T432 211T434 254T435 288Q435 305 428 310T411 316Q391 316 368 296L314 77Q311 65 311 52Q311 33 326 23T374 11L372 0H-41L-39 11Q-30
12 -20 13T3 18Q23 24 36 36T56 76L180 580Q183 590 183 601Q183 623 169 633T119 646L122 657H536L533 646Q525 645 514 644T491 639Q473 634 460 622T439 581L376 328L566 513Q589 535 602 551T623 578T632 597T634 610Q634 622 628 628T613 638Q606 641 597
642T577 646L579 657H832L830 646Q813 642 785 635T732 614Q709 602 685 587T624 535L465 383V380Q473 384 488 387T523 390Q579 390 611 371T660 320T682 249T689 170Q690 139 693 120T701 91T713 76T731 72Q751 72 763 85T790 122L800 116Q794 101 781 80T743
38T681 3T592 -12Z" />
<glyph unicode="L" glyph-name="L" horiz-adv-x="685" d="M-39 11Q-29 12 -18 14T1 18Q33 25 53 51Q69 74 79 111T105 209L162 446Q175 497 183 537T191 600Q191 617 180 626T154 640Q146 642 138 643T122 646L124 657H568L566 646Q555 644 547 643T530 640Q514
635 501 627T476 601Q462 578 449 541T421 447L354 171Q345 134 338 105T331 59Q331 39 342 30T373 21H391Q404 21 421 29T461 58Q520 111 566 168T648 278H659L597 0H-41L-39 11Z" />
<glyph unicode="M" glyph-name="M" horiz-adv-x="869" d="M245 -1L221 547H214L122 169Q114 137 111 114T107 72Q107 47 117 35T143 17Q149 15 159 14T177 11L175 0H-41L-39 11Q-31 12 -21 13T-3 17Q12 22 25 31T50 58Q61 75 73 102T96 169L168 462Q179 504 185
535T192 595Q192 618 180 627T153 641Q145 643 138 644T123 646L126 657H474L484 380H488L637 657H969L966 646Q959 646 949 645T929 642Q878 629 858 550L740 74Q740 75 738 67T736 48Q736 35 741 28T756 18T777 13T804 11L802 0H384L386 11Q391 11 400 11T419
14Q438 18 455 32T481 74L592 521H588L306 -1H245Z" />
<glyph unicode="N" glyph-name="N" horiz-adv-x="691" d="M798 646Q787 645 776 644T757 640Q741 635 728 626T703 599Q691 582 680 557T658 487L540 -10H484L213 519H207L121 169Q112 133 109 111T105 70Q105 53 114 38T143 17Q151 15 162 14T181 11L179 0H-41L-39
11Q-30 12 -20 13T-2 17Q15 22 28 30T53 57Q64 74 74 97T96 169L171 474Q182 516 183 537T179 579Q175 599 166 613T138 636Q129 640 120 642T101 646L103 657H413L589 316H592L635 491Q643 525 646 545T650 583Q650 601 641 617T612 640Q599 644 580 646L582 657H800L798
646Z" />
<glyph unicode="O" glyph-name="O" horiz-adv-x="770" d="M778 374Q778 268 728 183T587 44Q561 28 531 17T470 -1T409 -11T354 -14Q285 -14 229 7T132 66T69 159T47 282Q47 328 58 373T92 461T152 542T241 611Q269 627 299 638T360 657T420 667T475 670Q543 670
599 647T694 583T756 489T778 374ZM538 599Q538 619 526 634T490 650Q461 650 446 635T421 600Q406 570 391 523T360 423T332 312T308 205T291 116T285 57Q285 35 296 20T332 5Q364 5 379 22T407 67Q421 99 436 145T465 242T493 346T516 448T532 536T538 599Z"
/>
<glyph unicode="P" glyph-name="P" horiz-adv-x="724" d="M786 497Q786 440 753 395T668 323Q626 302 566 291T414 279H387Q375 279 370 280L346 184Q337 148 330 115T322 53Q322 36 334 27T361 16Q370 14 378 14T396 11L394 0H-41L-39 11L-21 13Q-12 14 -4 16Q11
21 22 28T43 50Q57 70 67 106T88 185L158 470Q167 506 174 544T180 606Q178 621 172 629T154 640Q148 642 139 643T121 646L123 657H503Q582 657 636 645T723 612T771 562T786 497ZM539 589Q539 615 529 625T499 635H488Q477 635 472 635T461 629Q455 622 449 598T436
550L375 302Q381 301 391 301H407Q429 301 446 308T480 345Q497 378 508 416T526 490T536 552T539 589Z" />
<glyph unicode="Q" glyph-name="Q" horiz-adv-x="769" d="M596 -265Q549 -265 512 -252T440 -216T369 -166T288 -107Q240 -78 208 -68T148 -58Q121 -58 121 -68Q121 -73 124 -75T132 -80T146 -85T164 -96Q194 -119 194 -161Q194 -205 170 -225T107 -246Q69 -246
45 -221T20 -157Q20 -120 38 -96T82 -57T134 -35T174 -23Q200 -16 221 -11Q238 -6 253 -3T269 1V6Q221 16 181 40T110 100T63 179T46 276Q46 382 94 466T238 608Q286 637 348 653T482 670Q540 670 593 649T687 588T752 495T777 376Q777 300 752 238T685 124Q619
47 477 13Q445 5 418 2T358 -5T284 -17T184 -41V-43Q199 -42 213 -42T244 -41T281 -40T328 -39Q402 -39 454 -44T547 -54T622 -65T695 -70Q721 -70 739 -63T771 -45T794 -18T812 13L824 8Q813 -52 800 -101T758 -188Q734 -220 693 -242T596 -265ZM537 600Q537 625
522 637T487 650Q469 650 457 644T434 623T413 586T392 530Q381 500 370 459T346 373T323 282T304 194T291 119T286 65Q286 38 300 28T334 17Q365 17 388 44T435 146Q453 203 471 267T504 394T528 510T537 600Z" />
<glyph unicode="R" glyph-name="R" horiz-adv-x="792" d="M593 -12Q549 -12 520 0T472 31T444 73T432 121Q430 136 430 158T432 205T435 250T437 285Q437 308 425 315T395 323H379L316 76Q315 72 315 68T314 56Q314 30 330 22T378 11L376 0H-41L-39 11Q-30 12
-18 13T6 18Q24 24 37 35T57 76L181 577Q183 583 184 590T185 604Q185 623 171 633T120 646L122 657H508Q582 657 630 645T706 611T745 563T756 505Q756 454 727 419T648 363Q633 357 614 353T575 345T534 339T496 335L495 332Q507 332 525 330T564 323T603 312T636
296Q664 277 678 248T694 172Q695 141 697 122T704 92T715 77T732 73Q751 73 765 85T793 122L804 115Q798 101 783 79T742 37T680 3T593 -12ZM527 500Q537 545 537 571T532 612T515 631T491 635H479Q463 635 457 630T447 607L384 348H413Q436 348 451 353T480 378Q498
407 509 436T527 500Z" />
<glyph unicode="S" glyph-name="S" horiz-adv-x="590" d="M555 425H545Q545 479 533 529T489 612Q472 629 446 637T394 645Q353 645 334 626T314 578Q314 562 317 549T331 523T361 494T410 458Q460 423 491 394T541 337T565 281T572 219Q572 178 553 137T496 62T401
7T269 -14Q206 -14 159 9T79 75H74L-1 -3H-10L48 258H59Q74 130 130 69T268 8Q311 8 340 23T369 77Q369 93 366 105T349 133T309 169T236 226Q170 277 136 330T102 446Q102 549 175 609T387 669Q418 669 445 663T494 646T529 623T551 601H554L609 654H621L555 425Z"
/>
<glyph unicode="T" glyph-name="T" horiz-adv-x="761" d="M797 386H784Q783 403 778 427T765 479T747 532T726 580Q713 604 692 618T638 633H624L490 95Q487 83 485 75T483 57Q483 31 499 22T546 11L544 0H130L132 11Q140 12 150 13T172 18Q190 25 204 35T227
76L365 633H342Q321 633 296 622T239 575Q218 552 196 528T152 479T111 431T76 386H64L152 657H841L797 386Z" />
<glyph unicode="U" glyph-name="U" horiz-adv-x="696" d="M807 646Q780 643 763 637T729 611Q715 594 704 568T680 493L612 218Q600 171 583 129T536 56T458 6T338 -12Q273 -12 225 2T146 40T99 99T84 173Q84 186 85 200T89 232T97 276T111 338L170 580Q171 585
171 590T172 603Q172 629 154 636T111 646L113 657H528L526 646Q514 645 504 643T485 639Q475 635 467 631T452 621T440 606T431 581L351 261Q342 223 337 190T331 135Q331 93 353 65T423 36Q460 36 487 51T532 92T563 152T585 222L653 494Q661 528 664 547T668
581Q668 602 662 614T646 632T624 641T599 646L601 657H808L807 646Z" />
<glyph unicode="V" glyph-name="V" horiz-adv-x="692" d="M832 647Q820 645 804 640T776 628Q744 611 721 589T672 534L205 0H36L167 506Q174 532 179 554T184 596Q184 627 169 636T121 647L123 657H532L529 647Q510 646 492 639Q480 634 472 627T455 603T439
557T418 478L353 218H360L621 516Q640 540 657 563T674 603Q674 621 659 631T612 647L614 657H834L832 647Z" />
<glyph unicode="W" glyph-name="W" horiz-adv-x="1093" d="M584 490Q590 514 596 541T603 592Q603 622 587 633T550 647L552 657H959L957 647Q947 646 935 644T915 639Q902 634 893 628T876 605T860 559T838 478L771 214H777L1021 516Q1041 542 1057 564T1073
606Q1073 622 1057 632T1011 647L1013 657H1235L1233 647Q1221 645 1205 639T1176 627Q1146 611 1120 587T1069 532L641 0H453L567 426H564L220 0H36L167 506Q174 533 179 553T184 594Q184 621 170 632T121 647L123 657H527L525 647Q520 646 512 644T495 638Q480
631 471 621T453 592T438 546T419 477L353 216H359L584 490Z" />
<glyph unicode="X" glyph-name="X" horiz-adv-x="703" d="M279 227L195 156Q184 147 170 136T144 111T123 82T114 50Q114 32 127 25T163 11L161 0H-46L-44 11Q-26 16 -8 24T36 51Q65 74 96 101T162 158L272 252L202 553Q194 584 188 601T164 629Q156 634 146 638T119
647L121 657H550L548 646Q510 642 489 625T468 573Q468 551 475 526L499 423L584 510Q612 538 627 561T643 608Q643 624 630 634T595 647L597 657H802L800 647Q776 642 759 635T722 610Q693 587 667 562T612 506L506 396L574 114Q582 80 590 63T610 34Q618 26 628
21T654 11L652 0H236L238 11Q260 13 274 19T297 33T308 50T311 66Q311 82 310 91T306 110L279 227Z" />
<glyph unicode="Y" glyph-name="Y" horiz-adv-x="673" d="M781 646Q767 642 753 637T724 622Q703 609 681 584T627 512L487 305L431 77Q430 72 429 66T428 51Q428 30 450 22T496 11L494 0H73L75 11Q108 14 130 25Q139 29 145 33T156 42T165 56T173 76L229 305L187
540Q177 594 161 616T113 646L115 657H535L533 646Q495 642 475 632T454 590Q454 579 455 565T458 530L479 344H484L593 506Q616 542 629 566T643 610Q643 630 627 637T594 646L596 657H783L781 646Z" />
<glyph unicode="Z" glyph-name="Z" horiz-adv-x="636" d="M723 645L266 26H321Q376 26 410 47T478 109Q527 167 563 215T615 292H628L565 0H-35L-33 12L420 631H393Q348 631 314 620T243 580Q173 523 108 420H96L150 657H725L723 645Z" />
<glyph unicode="[" glyph-name="bracketleft" horiz-adv-x="414" d="M518 616Q518 584 507 559T477 517T433 491T378 481Q316 481 278 520T220 644L41 -80Q88 8 138 48T253 88Q307 88 335 58T364 -16Q364 -41 356 -61T333 -96T301 -125T263 -149L252 -148Q257
-140 258 -126T259 -104Q259 -81 246 -68T203 -54Q175 -54 151 -60T103 -76T55 -100T4 -128L204 679Q242 659 292 643T394 627Q424 627 447 637T470 680Q470 690 468 698T464 710H476Q487 704 502 680T518 616Z" />
<glyph unicode="\" glyph-name="backslash" horiz-adv-x="328" d="M329 -101L22 679L56 696L363 -84L329 -101Z" />
<glyph unicode="]" glyph-name="bracketright" horiz-adv-x="410" d="M284 -128Q246 -108 196 -92T94 -76Q64 -76 41 -86T18 -129Q18 -139 20 -147T24 -159H12Q6 -156 -1 -149T-15 -129T-26 -101T-31 -65Q-31 -34 -20 -9T10 34T55 60T110 70Q172 70 209 31T267
-92L447 631Q399 542 350 503T235 463Q181 463 153 493T124 568Q124 593 132 612T155 648T187 676T225 700L236 699Q231 691 230 678T229 656Q229 633 242 619T285 605Q313 605 337 611T385 627T433 651T484 679L284 -128Z" />
<glyph unicode="^" glyph-name="asciicircum" horiz-adv-x="339" d="M197 657H218L360 404H307L207 579L108 404H55L197 657Z" />
<glyph unicode="_" glyph-name="underscore" horiz-adv-x="293" d="M-86 -167L-77 -130H228L219 -167H-86Z" />
<glyph unicode="`" glyph-name="grave" horiz-adv-x="400" d="M236 686Q267 686 286 673T322 634L412 496L407 487L244 529Q203 540 182 559T160 614Q161 643 180 664T236 686Z" />
<glyph unicode="a" glyph-name="a" horiz-adv-x="663" d="M424 428Q424 439 420 443T408 447Q400 447 391 440T365 403Q350 374 329 329T287 235T253 144T239 77Q239 55 254 55Q268 55 281 74T305 113Q316 136 328 166T351 225Q375 287 389 324T411 382T421 412T424
428ZM551 78Q551 68 555 66T564 63Q567 63 573 64T590 72T612 90T640 125L652 117Q610 50 546 21T416 -9Q362 -9 340 11T317 64Q317 75 318 86T321 106H317Q309 88 301 75T280 48Q254 18 221 5T143 -9Q83 -9 49 30T15 127Q15 199 46 262T128 371T240 444T366 471Q389
471 403 468T426 458T439 445T446 430H450L473 462H671Q665 443 656 417T637 360T616 299T595 238Q573 172 562 134T551 78Z" />
<glyph unicode="b" glyph-name="b" horiz-adv-x="624" d="M623 313Q623 278 613 242T584 171T541 108T487 59Q455 37 424 24T361 4T298 -6T237 -9Q173 -9 133 8T69 51T36 107T27 162Q27 223 58 311L145 570Q150 586 156 606T162 646Q162 660 150 665T123 673L125
684H412Q417 684 417 680Q417 676 414 667T405 646Q397 625 391 607T374 558L317 379H321Q338 410 356 428T394 456T431 468T468 471Q498 471 525 462T575 433T610 384T623 313ZM408 421Q408 432 395 432Q385 432 373 423T350 398Q335 376 321 350T294 292Q285
268 272 231T246 156T225 83T216 31Q216 17 222 13T236 9Q242 9 249 11T265 24T285 54T310 110Q326 150 343 196T374 286T398 366T408 421Z" />
<glyph unicode="c" glyph-name="c" horiz-adv-x="571" d="M588 349Q588 304 559 281T488 257Q442 257 418 281T393 340Q393 350 395 362T403 392Q410 412 414 421T419 441Q419 454 405 454Q380 454 357 428T315 356Q304 330 295 302T278 247T266 196T261 153Q261
132 264 113T275 80T299 57T338 48Q363 48 389 59T438 86T481 121T513 156L525 148Q502 118 472 90T403 39T314 3T205 -11Q159 -11 124 3T64 41T28 97T16 164Q16 209 31 247T70 316T122 370T178 409Q234 441 291 456T403 471Q452 471 487 461T544 435T577 396T588
349Z" />
<glyph unicode="d" glyph-name="d" horiz-adv-x="655" d="M350 226Q373 283 388 320T411 380T423 416T426 436Q426 453 411 453Q403 453 392 444T363 402Q348 373 327 326T285 230T251 139T237 77Q237 55 253 55Q266 55 279 72T303 112Q314 134 326 166T350 226ZM317
108Q309 90 300 76T279 48Q251 16 218 3T140 -10Q81 -10 47 28T13 129Q13 200 46 262T133 370T255 444T392 471Q430 471 444 464H445L493 604Q498 618 500 626T502 645Q502 659 489 665T455 674L458 684H746Q754 684 750 675Q745 660 735 630T711 564Q694 518 679
476T650 394T621 315T593 236Q568 167 557 129T545 76Q545 61 558 61Q562 61 569 63T586 72T609 91T636 125L648 117Q606 50 545 20T417 -10Q362 -10 339 11T316 63Q316 74 317 85T320 108H317Z" />
<glyph unicode="e" glyph-name="e" horiz-adv-x="547" d="M516 145Q492 112 463 84T396 35T313 3T214 -9Q171 -9 135 3T72 40T30 98T15 177Q15 221 28 257T63 323T116 376T179 418Q233 447 290 459T388 471Q434 471 465 462T516 438T544 403T553 362Q553 329 531
304T473 262Q450 251 427 243T380 228T329 214T271 202Q265 173 262 149T259 102Q259 71 268 54T309 36Q342 36 373 49T429 80T474 118T504 154L516 145ZM275 221Q285 224 292 226T307 232T322 241T339 257Q351 270 362 293T383 343T397 393T403 433Q403 446 400
450T388 454Q373 454 358 434T327 380T299 305T275 221Z" />
<glyph unicode="f" glyph-name="f" horiz-adv-x="397" d="M361 434Q322 270 278 148T180 -56T60 -178T-90 -219Q-126 -219 -156 -211T-209 -186T-244 -148T-257 -98Q-257 -57 -230 -34T-161 -10Q-112 -10 -90 -35T-67 -95Q-67 -112 -72 -125T-84 -150T-96 -169T-102
-185Q-102 -193 -96 -196T-81 -200Q-63 -200 -48 -187T-22 -144Q-12 -116 0 -69T27 48T62 213T110 434H51L59 462H119Q144 534 184 579T271 648T362 681T443 690Q525 690 575 661T626 578Q626 562 621 547T604 520T575 501T532 494Q494 494 471 513T448 569Q448
595 455 616T462 652Q462 670 439 670Q427 670 419 662T406 641Q400 626 396 611T388 575T379 527T367 462H469L461 434H361Z" />
<glyph unicode="g" glyph-name="g" horiz-adv-x="557" d="M328 452Q318 452 310 446T296 422Q290 405 281 374T264 309T250 247T244 207Q244 183 262 183Q281 183 292 206Q298 220 307 252T326 320T341 386T347 425Q347 452 328 452ZM167 -213Q45 -213 -24 -187T-93
-111Q-93 -74 -52 -58T72 -38V-35Q56 -29 41 -21T13 -1T-6 27T-14 66Q-14 97 -1 119T35 155T88 177T154 187Q69 224 69 303Q69 346 91 377T150 430T231 461T324 471Q377 471 417 458T484 421H488Q489 454 512 479T574 505Q609 505 635 484T661 425Q661 393 641
379T598 365Q576 365 564 375T544 405Q537 424 536 438T524 452Q516 452 510 443T504 408Q504 400 506 393T512 377T518 355T521 326Q521 276 495 245T431 197T350 173T274 166Q235 166 213 172T176 179Q163 179 163 169Q163 164 166 161T183 153T223 145T297 133Q365
123 405 108T465 74T492 32T498 -13Q498 -59 473 -96T402 -159T297 -199T167 -213ZM162 -196Q212 -196 246 -190T302 -174T332 -152T342 -128Q342 -116 336 -109T309 -95T253 -81T156 -63Q129 -58 112 -55T78 -52Q68 -52 55 -55T29 -66T8 -86T-1 -115Q-1 -139 13
-154T50 -179T102 -192T162 -196Z" />
<glyph unicode="h" glyph-name="h" horiz-adv-x="673" d="M169 570Q175 588 182 612T189 649Q189 662 180 666T151 673L155 684H439Q446 684 446 679Q446 674 443 665T434 641Q426 617 416 586T394 521T371 453T349 387T330 331T316 289H320Q345 350 373 386T430
441T487 465T542 471Q593 471 622 443T651 361Q651 327 638 289T597 191Q585 164 577 146T565 115T559 94T557 79Q557 63 573 63Q585 63 608 79T655 130L667 122Q648 92 620 68T559 26T489 0T415 -9Q371 -9 346 12T320 71Q320 99 334 137T372 231L411 321Q424 351
424 368Q424 386 410 386Q392 386 357 330T276 143L227 0H-18L169 570Z" />
<glyph unicode="i" glyph-name="i" horiz-adv-x="377" d="M419 580Q419 536 387 511T300 485Q246 485 215 511T183 580Q183 622 215 648T302 674Q358 674 388 648T419 580ZM132 383Q132 402 117 402Q101 402 76 381T30 326L16 335Q61 404 119 437T250 471Q300
471 329 448T358 383Q358 354 344 315T307 216Q287 165 275 132T263 82Q263 73 268 68T280 63Q292 63 314 79T357 128L369 120Q333 59 268 25T127 -9Q84 -9 56 12T28 77Q28 108 42 147T82 244Q89 260 98 281T114 321T127 357T132 383Z" />
<glyph unicode="j" glyph-name="j" horiz-adv-x="387" d="M427 580Q427 536 395 511T308 485Q254 485 223 511T191 580Q191 622 223 648T310 674Q366 674 396 648T427 580ZM295 118Q256 28 218 -30T141 -121Q99 -157 32 -185T-118 -213Q-194 -213 -234 -183T-274
-105Q-274 -72 -248 -45T-176 -18Q-133 -18 -109 -42T-84 -100Q-84 -121 -93 -137T-114 -165Q-119 -170 -122 -173T-126 -182Q-126 -193 -110 -193Q-96 -193 -82 -186T-51 -152Q-43 -139 -30 -109T-2 -39T29 45T60 129T86 202T103 251Q109 266 116 285T131 322T144
357T149 383Q149 402 134 402Q117 402 92 381T47 326L33 335Q76 404 136 437T268 471Q322 471 349 446T376 376Q376 331 356 271T295 118Z" />
<glyph unicode="k" glyph-name="k" horiz-adv-x="693" d="M438 684Q444 684 444 681Q444 677 440 667T432 645Q423 620 416 601T400 553L315 283H324Q349 283 367 289T400 307T424 332T444 363Q461 392 472 410T498 442Q510 454 528 462T569 470Q624 470 655 441T686
369Q686 343 678 324T657 293T626 274T589 267Q553 267 526 286T499 348Q499 372 512 393Q521 407 527 415T533 428Q533 434 526 434Q513 434 500 416T464 360Q450 336 431 311T380 275V271Q465 269 512 239T567 134L571 94Q572 84 575 77Q578 69 592 69Q609 69
632 89T675 138L687 130Q668 100 642 74T584 30T515 0T437 -11Q389 -11 356 11T322 88Q322 103 325 120T339 171Q346 191 353 210T360 244Q360 253 355 259T334 265H309L226 0H-18L169 570Q175 588 182 612T189 649Q189 662 180 666T151 673L155 684H438Z" />
<glyph unicode="l" glyph-name="l" horiz-adv-x="352" d="M288 232Q280 209 272 186T258 141T247 104T242 81Q242 63 259 63Q270 63 292 78T335 127L347 119Q314 62 252 27T110 -9Q61 -9 36 12T11 72Q11 88 14 106T25 149L43 205Q53 237 67 279L161 570Q168 591
173 607T178 641Q178 663 166 668T139 673L143 684H429Q435 684 435 680Q435 676 433 670T424 646Q417 627 409 603L393 555L288 232Z" />
<glyph unicode="m" glyph-name="m" horiz-adv-x="1003" d="M651 71Q651 99 664 136T703 231Q730 291 742 322T754 367Q754 378 750 381T741 384Q732 384 721 370T697 333T671 282T646 225T623 171T605 128L557 0H318Q365 133 400 240Q416 288 428 319T440 368Q440
384 427 384Q410 384 382 336T313 185Q299 149 289 123T272 75T259 36T247 0H8Q18 33 32 76T61 160T86 236T103 284Q114 317 120 337T126 378Q126 405 106 405Q89 405 68 381T30 325L16 334Q35 367 56 393T104 436T161 462T230 471Q290 471 317 441T345 365Q345
346 343 323T332 274H335Q359 334 385 372T440 432T496 462T554 471Q611 471 636 442T661 361Q661 340 657 317T645 274H649Q675 334 701 372T755 433T810 463T867 471Q929 471 956 439T983 358Q983 320 968 281T929 191Q917 164 909 146T897 114T890 93T888 78Q888
63 904 63Q916 63 939 79T986 130L998 122Q979 92 951 68T890 26T820 0T746 -9Q702 -9 677 12T651 71Z" />
<glyph unicode="n" glyph-name="n" horiz-adv-x="691" d="M686 122Q667 92 639 68T578 26T508 0T434 -9Q390 -9 365 12T339 71Q339 99 353 137T391 231L430 321Q443 351 443 368Q443 386 429 386Q420 386 407 374T377 332T339 255T292 134Q281 102 270 69T246
0H8Q18 32 32 75T61 159T86 235T102 283Q113 316 119 337T125 378Q125 405 105 405Q88 405 67 381T29 325L15 334Q35 368 56 393T103 436T160 462T230 471Q282 471 312 446T343 372Q343 360 341 340T329 276H332Q358 341 387 379T446 438T504 465T555 471Q670 471
670 362Q670 328 657 289T616 190Q604 163 596 145T584 114T578 93T576 78Q576 63 592 63Q604 63 627 79T674 130L686 122Z" />
<glyph unicode="o" glyph-name="o" horiz-adv-x="609" d="M353 471Q406 471 452 456T532 413T586 346T606 259Q606 199 577 149T503 64Q460 31 399 10T271 -11Q215 -11 168 5T88 50T35 120T17 209Q19 269 46 315T116 394Q161 428 221 449T353 471ZM372 454Q361
454 352 446T331 413Q324 397 314 367T292 300T269 222T249 145T235 79T229 36Q229 6 251 6Q265 6 274 12T292 37Q301 57 312 90T335 161T358 240T377 317T391 382T396 426Q396 454 372 454Z" />
<glyph unicode="p" glyph-name="p" horiz-adv-x="685" d="M350 335Q366 368 382 393T417 435T459 462T515 471Q547 471 576 462T628 433T664 383T678 313Q678 259 654 198T579 85Q537 43 478 17T342 -9Q305 -9 287 -4T255 8L224 -88Q221 -96 218 -107T211 -130T205
-153T202 -173Q202 -192 217 -198T253 -207L249 -217H-126L-122 -207Q-100 -206 -82 -196T-52 -162Q-43 -142 -38 -124T-25 -84L86 255Q99 293 109 325T119 380Q119 389 115 396T100 404Q86 404 67 385T30 334L16 343Q54 405 104 438T227 471Q286 471 315 449T349
384Q350 376 349 361T345 335H350ZM462 412Q462 423 459 427T449 431Q429 431 404 396Q374 354 346 286Q336 262 328 237T310 181T290 116T265 37Q269 30 276 24T294 18Q306 18 315 21T333 37T352 72T378 137Q393 180 408 224T435 305T454 371T462 412Z" />
<glyph unicode="q" glyph-name="q" horiz-adv-x="665" d="M350 226Q373 283 388 320T411 380T423 416T426 436Q426 453 411 453Q403 453 390 444T360 402Q345 373 324 326T284 230T251 139T237 77Q237 55 253 55Q266 55 279 72T303 112Q314 134 326 166T350 226ZM500
-98Q495 -115 491 -128T487 -157Q487 -171 492 -181T511 -196Q526 -202 534 -204T549 -208L547 -217H128L131 -208Q154 -204 175 -194T206 -175Q223 -160 235 -139T261 -76L324 106H317Q306 86 299 73T278 45Q253 19 220 5T138 -9Q106 -9 83 2T44 32T22 75T14 126Q14
201 50 264T144 373T272 445T410 471Q445 471 469 465T510 449T536 425T551 395H557L680 478H692L500 -98Z" />
<glyph unicode="r" glyph-name="r" horiz-adv-x="605" d="M330 268Q354 329 374 368T417 430T462 462T516 471Q559 471 588 441T618 357Q618 303 590 270T514 237Q487 237 468 245T437 267T417 298T407 332Q405 344 403 348T396 352Q392 352 386 344T368 311T338
245T293 134Q280 101 269 68T245 0H7L100 283Q111 316 118 339T125 382Q125 392 120 398T105 405Q88 405 67 381T28 325L14 334Q52 399 102 435T229 471Q281 471 311 446T342 372Q342 351 338 327T324 268H330Z" />
<glyph unicode="s" glyph-name="s" horiz-adv-x="457" d="M456 380Q456 357 442 339T398 320Q340 320 335 384Q332 417 320 435T276 454Q229 454 229 422Q229 409 234 399T252 378T283 354T329 321Q358 300 378 282T410 244T427 206T432 162Q432 118 413 86T361
32T281 0T180 -11Q87 -11 39 18T-9 95Q-9 118 5 138T54 158Q87 158 103 140T120 93Q121 76 122 61T126 35Q131 22 145 15T187 7Q215 7 233 16T252 46Q252 68 238 83T190 123L148 154Q126 171 108 191T77 237T65 296Q65 342 85 375T136 429T207 461T286 471Q364
471 410 447T456 380Z" />
<glyph unicode="t" glyph-name="t" horiz-adv-x="411" d="M244 69Q244 61 248 58T259 55Q267 55 279 61T306 79T334 105T362 135L373 127Q323 57 257 23T116 -11Q72 -11 45 13T18 79Q18 105 29 141T59 226L140 434H58L68 462H151L196 580H423L379 462H491L481
434H369L295 230Q269 158 257 122T244 69Z" />
<glyph unicode="u" glyph-name="u" horiz-adv-x="678" d="M573 75Q573 61 583 61Q593 61 610 76T652 129L664 121Q629 59 580 25T469 -9Q424 -9 391 16T358 89Q358 117 364 141T374 181H370Q345 117 321 79T271 22T217 -3T156 -9Q132 -9 110 -2T71 20T44 56T34
105Q34 124 37 141T46 175T60 211T81 256Q94 283 102 301T116 333T123 356T125 377Q125 387 120 396T101 405Q87 405 68 382T28 326L14 335Q55 405 105 438T228 471Q296 471 326 440T357 365Q357 338 347 308T315 227Q289 168 278 141T266 101Q266 78 284 78Q304
78 334 138T410 326Q422 358 434 392T458 462H697Q686 429 674 392T650 319T627 251T607 193Q601 176 595 158T584 124T576 95T573 75Z" />
<glyph unicode="v" glyph-name="v" horiz-adv-x="519" d="M86 257Q98 284 105 302T117 334T124 356T126 376Q126 407 103 407Q85 407 63 383T21 326L7 335Q48 400 98 435T227 471Q271 471 297 459T337 430T355 394T359 362Q359 330 349 301T318 231Q300 194 289
170T272 129T265 101T263 79Q263 68 269 61T289 53Q312 53 342 76T401 134T448 206T467 273Q467 294 456 308T428 346Q418 360 410 374T401 409Q401 435 419 453T469 471Q498 471 515 450T533 388Q533 364 525 336T505 277T476 218T444 164Q424 134 397 103T335
47T257 5T159 -11Q103 -11 71 18T38 95Q38 116 41 133T50 168T65 207T86 257Z" />
<glyph unicode="w" glyph-name="w" horiz-adv-x="864" d="M565 -8Q528 -8 492 0T429 31Q399 13 356 3T256 -8Q197 -8 158 5T96 37T62 78T52 120Q52 144 61 166T95 209T160 252T264 296Q250 303 228 319T165 359Q136 376 118 384T86 393Q72 393 72 383Q72 375 80
371T104 357Q117 349 126 338T135 303Q135 294 132 285T120 267T100 254T69 248Q40 248 24 265T7 307Q7 323 13 338T29 368T49 393T68 412Q93 436 131 453T205 471Q225 471 246 465T300 439Q318 428 330 419T351 404T367 395T382 391Q390 391 398 402T414 440Q417
451 422 460T443 470Q466 470 466 451Q466 442 460 434T445 418T427 403T411 387Q395 367 378 342T345 284T320 213T310 127Q310 91 327 67T378 43Q397 43 414 48Q398 68 390 93T381 152Q381 204 410 269T509 397Q548 432 585 451T661 471Q684 471 699 452T715
383Q715 318 692 263T636 167Q645 131 663 109T711 87Q751 87 781 138Q802 175 809 209T817 263Q817 280 813 293T801 317T786 337T771 355Q748 382 748 412Q748 431 763 448T806 466Q830 466 848 445T866 377Q866 330 849 264T797 131Q781 101 759 76T707 32T643
3T565 -8ZM664 440Q652 440 644 427T632 394T625 349T623 304Q623 288 624 257T630 192Q642 208 653 229T674 275T688 325T694 378Q694 411 686 425T664 440Z" />
<glyph unicode="x" glyph-name="x" horiz-adv-x="638" d="M667 397Q667 359 645 326T594 269L583 274Q589 286 593 301T601 333T606 365T608 392Q608 415 602 432T579 449Q565 449 549 438T515 399Q495 366 479 330T450 248Q444 225 439 195T433 139Q433 108 445
86T489 64Q506 64 521 73T548 94T568 118T581 137L593 129Q581 106 562 82T514 37T450 4T368 -9Q325 -9 296 2T249 33T224 76T216 124V130Q216 133 217 141H213Q195 109 175 82T133 34T90 3T47 -9Q15 -9 -5 11T-26 66Q-26 84 -20 101T-2 135T23 166T51 192L62 187Q49
153 43 123T36 58Q36 37 42 24T63 11Q77 11 92 22T124 59Q144 91 160 128T190 217Q195 239 200 268T206 317Q206 330 205 343T198 367T183 384T157 391Q143 391 130 384T105 366T84 342T67 315L55 322Q67 349 87 376T135 424T199 458T282 471Q319 471 345 461T388
433T413 392T421 341V334Q421 331 420 325H424Q440 350 460 376T502 423T549 457T598 471Q611 471 623 467T645 455T661 432T667 397Z" />
<glyph unicode="y" glyph-name="y" horiz-adv-x="509" d="M82 391Q66 391 49 376T11 318L-3 327Q34 404 86 437T210 471Q247 471 273 461T318 432T347 385T365 319Q368 299 371 276T375 229T378 186T379 152H383Q400 177 412 196T432 232T443 264T447 296Q447
313 437 328T411 359Q388 382 388 414Q388 438 407 454T455 471Q481 471 500 454T519 398Q519 357 498 307T444 205T370 101T288 4T212 -78T154 -134Q121 -166 79 -189T-11 -213Q-64 -213 -94 -185T-124 -117Q-124 -72 -96 -49T-30 -25Q5 -25 26 -41T57 -77Q63
-89 66 -101T72 -122T79 -136T92 -142Q99 -142 109 -138T134 -122Q149 -110 165 -94T194 -64Q194 -56 190 -18T179 72T162 184T141 295Q130 343 117 367T82 391Z" />
<glyph unicode="z" glyph-name="z" horiz-adv-x="556" d="M567 436Q567 414 553 402T525 384Q512 378 497 372T460 351Q434 335 380 302T253 220Q265 222 275 222T298 223Q317 223 340 220T383 209Q423 195 460 195Q495 195 514 225Q520 235 523 243T531 261L544
255Q531 205 515 158T476 74T422 15T345 -7Q325 -7 309 -5T279 4T251 22T223 49Q205 69 193 84T172 111T156 127T141 133Q130 133 123 126T111 106T102 76T92 38Q79 -7 36 -7Q10 -7 -1 7T-13 36Q-13 54 -5 64T17 86Q27 94 37 100T65 118L400 333Q386 330 366 328T325
325Q309 325 280 329T223 347Q190 363 170 372T123 381Q92 381 78 364T64 326Q64 313 69 304T79 293Q84 315 102 330T149 346Q177 346 195 327T213 283Q213 254 195 234T144 213Q124 213 107 222T76 246T56 282T48 325Q48 369 64 400T105 452T160 481T219 491Q259
491 287 477T335 440Q348 424 358 409T377 383T396 364T418 357Q434 357 446 368T467 419Q472 443 483 461T522 479Q542 479 554 467T567 436Z" />
<glyph unicode="{" glyph-name="braceleft" horiz-adv-x="437" d="M343 -148Q191 -150 122 -113T53 5Q53 42 66 82T99 182Q107 207 110 223T109 250T91 264T55 269L58 287Q78 287 92 289T117 299Q122 303 126 308T134 322T142 347T152 385Q158 411 161 432T171
481Q186 542 216 579T291 637T400 664T545 671L541 657Q515 658 496 648T463 620T440 577T422 525Q410 485 401 447T383 390Q370 359 349 338T295 303T219 283T117 276V272Q191 269 233 252T295 211T316 156T311 96Q306 76 300 53T287 8T277 -35T272 -69Q272 -96
287 -113T346 -134L343 -148Z" />
<glyph unicode="|" glyph-name="bar" horiz-adv-x="206" d="M108 -99V687H154V-99H108Z" />
<glyph unicode="}" glyph-name="braceright" horiz-adv-x="439" d="M-63 -134Q-38 -134 -21 -124T9 -95T31 -52T50 -1Q63 39 71 71T87 126Q99 160 121 183T176 219T253 238T356 244V248Q281 251 239 267T177 309T155 363T161 423Q166 443 173 467T186 514T196
558T201 593Q201 620 186 636T128 657L131 671Q281 673 349 637T417 519Q417 483 405 441T372 338Q364 313 362 297T364 270T382 256T418 251L414 233Q395 234 381 233T359 224Q353 219 349 214T340 198T331 173T321 135L301 43Q287 -19 259 -56T186 -114T79 -141T-66
-148L-63 -134Z" />
<glyph unicode="~" glyph-name="asciitilde" horiz-adv-x="381" d="M237 164Q217 164 199 167T165 175T133 183T104 187Q78 187 61 177T32 133L13 137Q20 166 30 199T58 259T101 305T165 324Q182 324 198 320T231 312T261 304T290 300Q318 300 337 313T367 355L386
350Q377 322 365 290T336 229T294 183T237 164Z" />
<glyph unicode="&#xa0;" glyph-name="uni00A0" horiz-adv-x="500" />
<glyph unicode="&#xa1;" glyph-name="exclamdown" horiz-adv-x="382" d="M157 569Q157 613 187 640T271 668Q323 668 353 640T383 569Q383 528 352 500T269 471Q215 471 186 499T157 569ZM17 106Q17 139 39 178T95 260T166 346T238 430H253Q258 395 266 354T283
272T298 191T304 118Q304 92 297 69T272 27T226 -3T155 -14Q86 -14 52 19T17 106Z" />
<glyph unicode="&#xa2;" glyph-name="cent" horiz-adv-x="576" d="M530 148Q511 123 487 99T431 55T363 19T282 -4L256 -103L233 -98L257 -8Q231 -11 205 -11Q159 -11 124 3T64 41T28 97T16 164Q16 209 31 247T70 316T122 370T178 409Q229 438 283 453T383 471L406
556L428 551L407 471Q458 470 493 460T551 434T584 396T594 350Q594 306 565 283T496 259Q451 259 428 283T404 341Q404 351 406 363T413 393Q420 413 424 422T429 441Q429 454 415 454H408Q405 454 402 453L298 56Q317 48 343 48Q368 48 394 59T443 86T486 121T518
156L530 148ZM261 143Q261 95 278 72L378 450Q357 439 343 415T314 357Q292 304 277 246T261 143Z" />
<glyph unicode="&#xa3;" glyph-name="sterling" horiz-adv-x="734" d="M428 -24Q379 -24 345 -7T282 37Q250 11 213 -5T126 -21Q57 -21 19 13T-20 99Q-20 132 -8 160T28 210T84 243T157 255Q174 255 194 253T235 247Q227 258 217 277T198 325H126L130 349H193Q190
364 190 382Q190 444 224 497T317 590T456 651T628 674Q714 674 764 646T815 555Q815 526 804 506T775 472T735 452T691 445Q661 445 640 450T604 465T580 485T564 509L576 516Q584 506 596 495T634 484Q655 484 671 492T699 515T716 548T722 587Q722 624 704 638T658
653Q634 653 614 642T578 613T550 569T530 517Q519 479 506 436T475 349H576L572 325H465Q454 299 443 275T419 229Q448 225 474 224T529 222Q596 222 644 243T712 310L728 306Q720 251 697 193T636 86T546 7T428 -24ZM248 72Q231 91 216 110T182 145T141 170T89
180Q53 180 29 160T5 99Q5 58 35 30T119 1Q160 1 191 18T248 72Z" />
<glyph unicode="&#xa5;" glyph-name="yen" horiz-adv-x="634" d="M764 646Q748 642 731 637T699 622Q678 609 656 584T602 512L471 319H591L586 295H459L439 211H570L565 187H433L406 77Q405 72 404 66T403 51Q403 30 425 22T471 11L469 0H48L50 11Q83 14 105
25Q122 33 132 42T148 76L175 187H48L53 211H181L202 295H69L74 319H202L148 540Q142 567 136 585T120 616T97 636T64 646L66 657H496L494 646Q456 642 436 632T415 590Q415 579 416 565T419 530L454 344H459L568 506Q591 542 604 566T618 610Q618 630 602 637T569
646L571 657H766L764 646Z" />
<glyph unicode="&#xa7;" glyph-name="section" horiz-adv-x="608" d="M622 569Q622 543 605 522T555 501Q519 501 501 520T482 559Q482 583 490 595T499 619Q499 629 485 640T432 651Q397 651 381 643T364 615Q364 598 384 580T452 524Q494 489 523 461T569 407T595
356T603 301Q603 260 586 230T541 177T476 141T403 120Q415 107 425 95T443 66T454 30T458 -17Q458 -55 438 -86T382 -139T300 -172T201 -184Q154 -184 115 -175T47 -149T2 -112T-14 -65Q-14 -36 5 -15T62 6Q100 6 117 -17T135 -69Q135 -83 131 -92T122 -109T113
-121T109 -134Q109 -146 128 -155T190 -165Q228 -165 244 -154T261 -126Q261 -118 257 -111T244 -95T219 -74T180 -43Q142 -10 114 17T67 71T39 123T29 183Q29 226 44 257T86 311T148 348T223 372Q194 404 186 430T177 483Q177 531 197 566T253 624T334 659T433
670Q521 670 571 644T622 569ZM222 309Q222 295 229 283T253 253T299 212T371 149Q382 153 389 158T397 180Q397 195 382 213T345 253T295 299T243 347Q235 343 229 336T222 309Z" />
<glyph unicode="&#xa8;" glyph-name="dieresis" horiz-adv-x="400" d="M99 566Q99 601 124 623T190 645Q230 645 255 623T281 565Q281 531 257 509T190 487Q147 487 123 509T99 566ZM316 567Q316 602 341 624T407 646Q447 646 472 624T498 566Q498 532 474 510T407
488Q365 488 341 510T316 567Z" />
<glyph unicode="&#xa9;" glyph-name="copyright" horiz-adv-x="894" d="M682 195Q674 165 661 135T623 81T562 42T473 27Q432 27 399 34T341 53T298 80T268 112Q245 144 234 178T223 261Q223 319 245 363T306 437T394 482T500 497Q552 497 582 483T635 447H638L662
476H671V292H655Q649 325 640 358T617 417T583 459T535 476Q497 476 482 439Q463 390 463 280Q463 221 470 173T489 103Q497 86 510 77T543 67Q567 67 587 80T622 112T649 156T668 201L682 195ZM872 261Q872 175 840 100T751 -32T620 -121T460 -154Q374 -154 299
-121T167 -32T77 99T44 261Q44 346 77 421T166 552T298 641T460 674Q545 674 620 642T751 553T839 421T872 261ZM843 261Q843 342 812 412T729 535T607 618T460 648Q383 648 313 618T189 536T105 413T73 261Q73 179 104 108T189 -15T312 -98T460 -128Q537 -128
606 -98T728 -16T812 108T843 261Z" />
<glyph unicode="&#xaa;" glyph-name="ordfeminine" horiz-adv-x="605" d="M652 391Q633 361 609 340T556 305T498 285T438 278Q396 278 374 295T352 344Q352 357 353 368T357 385H353Q345 368 336 353T313 323Q274 278 195 278Q139 278 109 313T79 402Q79 465
107 520T180 615T281 679T396 702Q416 702 428 700T448 693T459 682T465 669H469L487 694H667L599 493Q579 433 570 403T561 357Q561 348 565 345T574 342Q581 342 598 352T642 398L652 391ZM445 663Q445 681 433 681Q428 681 418 675T394 642Q380 616 361 575T325
492T296 412T283 359Q283 350 285 344T295 337Q306 337 318 352T340 388Q351 408 361 435T382 487Q404 543 416 575T435 624T443 649T445 663Z" />
<glyph unicode="&#xab;" glyph-name="guillemotleft" horiz-adv-x="473" d="M377 243L418 80L406 70L242 239L245 252L476 420L484 408L377 243ZM179 243L224 73L211 63L31 241L35 254L285 427L294 415L179 243Z" />
<glyph unicode="&#xae;" glyph-name="registered" horiz-adv-x="542" d="M562 419Q562 368 542 323T488 243T409 189T312 169Q260 169 215 189T135 243T80 322T60 419Q60 470 80 515T134 595T214 649T312 669Q363 669 408 649T488 595T542 516T562 419ZM538 419Q538
465 520 507T472 580T400 629T312 648Q265 648 224 630T151 580T102 507T84 419Q84 372 102 331T151 258T223 208T312 189Q358 189 399 207T471 257T520 330T538 419ZM345 302Q339 313 336 329T331 357Q329 374 328 389T325 412Q323 418 321 420T310 423H303V362Q303
341 304 331T310 317Q314 314 319 313V302H168V313Q171 314 173 314T180 318Q188 323 189 331T190 362V497Q190 508 190 517T187 532Q183 540 178 542L168 546V557H347Q401 557 424 539T448 491Q448 461 423 448T343 432V429Q370 427 388 424T420 415T440 397T450
366Q455 336 456 328T463 317Q468 314 469 314T473 313V302H345ZM333 490Q333 521 329 531T312 542H303V437H311Q323 437 328 446T333 490Z" />
<glyph unicode="&#xaf;" glyph-name="macron" horiz-adv-x="400" d="M145 518L166 603H429L408 518H145Z" />
<glyph unicode="&#xb0;" glyph-name="degree" horiz-adv-x="332" d="M271 544Q271 598 259 626T214 655Q183 655 171 627T158 544Q158 490 170 462T214 434Q246 434 258 462T271 544ZM350 544Q350 515 339 492T310 452T266 426T214 416Q187 416 163 425T119 451T89
491T78 544Q78 572 89 596T119 636T162 662T214 672Q241 672 266 663T309 637T339 596T350 544Z" />
<glyph unicode="&#xb4;" glyph-name="acute" horiz-adv-x="400" d="M429 604Q428 571 403 552T337 525L165 494L161 503L266 633Q282 652 303 667T356 682Q394 680 412 657T429 604Z" />
<glyph unicode="&#xb6;" glyph-name="paragraph" horiz-adv-x="599" d="M686 635H614L417 -151H389L586 635H473L276 -151H248L319 134H311Q260 134 215 151T137 198T84 269T65 361Q65 428 89 483T159 576T270 636T417 657H692L686 635Z" />
<glyph unicode="&#xb7;" glyph-name="periodcentered" horiz-adv-x="353" d="M290 293Q290 251 259 224T175 196Q123 196 93 224T63 293Q63 334 94 362T177 391Q231 391 260 362T290 293Z" />
<glyph unicode="&#xb8;" glyph-name="cedilla" horiz-adv-x="400" d="M237 -108Q237 -124 229 -138T203 -164T154 -183T77 -190Q30 -190 9 -182T-24 -166L-16 -155Q-5 -161 10 -167T49 -173Q80 -173 97 -153T114 -107Q114 -84 103 -72T78 -60Q68 -60 62 -63T51
-71L37 -62L77 2H96L65 -50Q73 -45 94 -40T140 -34Q186 -34 211 -52T237 -108Z" />
<glyph unicode="&#xba;" glyph-name="ordmasculine" horiz-adv-x="555" d="M613 499Q613 473 605 449T584 402T554 362T519 329Q482 301 426 283T313 264Q265 264 223 278T151 319T104 382T88 462Q89 513 116 554T178 622Q216 651 271 671T388 690Q434 690 474
676T546 637T595 577T613 499ZM423 648Q423 662 418 667T404 673Q396 673 388 666T369 636Q363 622 354 595T335 535T315 467T297 399T284 343T279 308Q279 281 298 281Q307 281 315 286T332 309Q340 327 350 356T370 420T389 490T406 557T418 613T423 648Z" />
<glyph unicode="&#xbb;" glyph-name="guillemotright" horiz-adv-x="477" d="M463 236L212 63L203 75L318 247L273 417L286 427L466 249L463 236ZM252 238L21 70L13 82L120 247L79 410L91 420L256 251L252 238Z" />
<glyph unicode="&#xbf;" glyph-name="questiondown" horiz-adv-x="541" d="M6 182Q6 254 47 300T174 381Q225 401 250 412T276 437Q276 451 255 451Q244 451 233 445T213 431L204 439Q221 459 257 471T347 483Q378 483 406 478T455 460T489 427T502 378Q502 349
490 329T455 293T402 266T334 240Q283 222 252 205T205 171T183 137T178 99Q178 57 203 31T281 4Q305 4 328 10T369 28T398 59T409 104Q409 137 394 162T344 187Q331 187 324 180T315 164Q340 158 351 143T363 105Q363 78 345 59T294 39Q261 39 244 58T226 107Q226
127 239 145T274 177T322 199T375 208Q434 208 463 185T492 121Q492 95 477 71T433 28T363 -2T269 -14Q219 -14 172 -3T87 33T28 94T6 182ZM305 583Q305 621 333 645T411 670Q460 670 487 645T515 582Q515 545 489 522T411 498Q360 498 333 521T305 583Z" />
<glyph unicode="&#xc0;" glyph-name="Agrave" horiz-adv-x="669" d="M326 214H181L117 141Q100 121 86 99T71 54Q71 28 90 19Q99 15 109 14T126 11L124 0H-87L-84 11Q-75 13 -62 16T-38 26Q-12 40 19 70T82 138L528 657H695L550 77Q544 52 550 38T572 18Q582 15
592 14T611 11L609 0H218L220 11L235 13Q244 15 252 19Q266 26 276 37T292 76L326 214ZM203 239H332L380 437H375L203 239ZM715 680Q716 680 703 681T670 684T626 688T582 693T548 696L534 698Q489 703 462 723T434 783Q434 810 454 832T512 855Q539 855 559 845T599
815L608 805Q617 796 630 782T659 752T688 722T711 699L720 690L715 680Z" />
<glyph unicode="&#xc1;" glyph-name="Aacute" horiz-adv-x="669" d="M326 214H181L117 141Q100 121 86 99T71 54Q71 28 90 19Q99 15 109 14T126 11L124 0H-87L-84 11Q-75 13 -62 16T-38 26Q-12 40 19 70T82 138L528 657H695L550 77Q544 52 550 38T572 18Q582 15
592 14T611 11L609 0H218L220 11L235 13Q244 15 252 19Q266 26 276 37T292 76L326 214ZM203 239H332L380 437H375L203 239ZM503 694L631 813Q648 829 670 841T719 854Q757 854 774 833T792 785Q792 744 766 725T693 701L506 683L503 694Z" />
<glyph unicode="&#xc2;" glyph-name="Acircumflex" horiz-adv-x="669" d="M326 214H181L117 141Q100 121 86 99T71 54Q71 28 90 19Q99 15 109 14T126 11L124 0H-87L-84 11Q-75 13 -62 16T-38 26Q-12 40 19 70T82 138L528 657H695L550 77Q544 52 550 38T572 18Q582
15 592 14T611 11L609 0H218L220 11L235 13Q244 15 252 19Q266 26 276 37T292 76L326 214ZM203 239H332L380 437H375L203 239ZM760 687L629 749L442 685L438 694L593 851H693L767 692L760 687Z" />
<glyph unicode="&#xc3;" glyph-name="Atilde" horiz-adv-x="669" d="M326 214H181L117 141Q100 121 86 99T71 54Q71 28 90 19Q99 15 109 14T126 11L124 0H-87L-84 11Q-75 13 -62 16T-38 26Q-12 40 19 70T82 138L528 657H695L550 77Q544 52 550 38T572 18Q582 15
592 14T611 11L609 0H218L220 11L235 13Q244 15 252 19Q266 26 276 37T292 76L326 214ZM203 239H332L380 437H375L203 239ZM839 857Q831 824 819 796T790 746T749 713T690 701Q675 701 656 705T616 713T575 722T540 726Q516 726 498 717T467 685L453 687Q469 759
509 798T602 838Q619 838 636 835T671 827T708 819T752 815Q777 815 795 825T825 862L839 857Z" />
<glyph unicode="&#xc4;" glyph-name="Adieresis" horiz-adv-x="669" d="M326 214H181L117 141Q100 121 86 99T71 54Q71 28 90 19Q99 15 109 14T126 11L124 0H-87L-84 11Q-75 13 -62 16T-38 26Q-12 40 19 70T82 138L528 657H695L550 77Q544 52 550 38T572 18Q582
15 592 14T611 11L609 0H218L220 11L235 13Q244 15 252 19Q266 26 276 37T292 76L326 214ZM203 239H332L380 437H375L203 239ZM751 850Q792 850 817 827T843 769Q843 734 819 711T751 688Q706 688 682 711T658 770Q658 805 683 827T751 850ZM513 850Q554 850 579
827T605 769Q605 734 581 711T513 688Q468 688 444 711T420 770Q420 805 445 827T513 850Z" />
<glyph unicode="&#xc5;" glyph-name="Aring" horiz-adv-x="669" d="M326 214H181L117 141Q100 121 86 99T71 54Q71 28 90 19Q99 15 109 14T126 11L124 0H-87L-84 11Q-75 13 -62 16T-38 26Q-12 40 19 70T82 138L528 657H695L550 77Q544 52 550 38T572 18Q582 15
592 14T611 11L609 0H218L220 11L235 13Q244 15 252 19Q266 26 276 37T292 76L326 214ZM203 239H332L380 437H375L203 239ZM694 785Q694 813 681 832T636 852Q604 852 591 833T578 785Q578 756 591 737T636 717Q668 717 681 736T694 785ZM737 785Q737 764 729 747T708
717T676 697T636 690Q592 690 564 716T535 785Q535 825 563 852T636 880Q681 880 709 854T737 785Z" />
<glyph unicode="&#xc6;" glyph-name="AE" horiz-adv-x="1000" d="M497 623H491L189 238H400L497 623ZM990 400H979Q971 419 961 442T941 489T919 537T896 581Q878 613 860 624T809 635H785Q763 635 755 628T741 594L681 352H702Q727 352 745 359T784 384Q810 404
830 427T868 479H879L810 198H800Q795 228 790 251T768 300Q756 319 739 324T696 330H676L611 69Q606 46 615 34T657 22H680Q696 22 709 23T734 30T759 45T789 72Q810 93 832 118T878 171T923 227T966 282H976L909 0H263L265 11Q273 12 284 13T308 18Q325 24 339
37T360 76L394 214H170L113 140Q93 114 82 94T71 54Q71 31 88 22T126 11L124 0H-87L-84 11Q-65 11 -40 21Q-15 32 19 65T85 138L471 634Q458 638 443 641T416 646L418 657H1006L990 400Z" />
<glyph unicode="&#xc7;" glyph-name="Ccedilla" horiz-adv-x="676" d="M411 -109Q411 -125 403 -139T377 -165T328 -184T251 -191Q204 -191 183 -183T150 -167L158 -156Q169 -162 184 -168T223 -174Q254 -174 271 -154T288 -108Q288 -85 277 -73T252 -61Q242 -61
236 -64T225 -72L211 -63L245 -8Q237 -6 229 -4Q178 8 136 38T67 121T40 254Q40 341 75 417T173 550T318 639T498 672Q560 672 597 653T654 605H657L717 650H727L665 396H653Q653 444 646 490T621 572T577 629T511 651Q473 651 445 625T393 543Q376 504 357 446T323
325T297 201T287 95Q287 52 306 35T358 18Q398 18 437 34T512 78T577 141T629 216L646 205Q619 156 586 116T512 46T426 0T328 -16Q296 -16 263 -11L239 -51Q247 -46 268 -41T314 -35Q360 -35 385 -53T411 -109Z" />
<glyph unicode="&#xc8;" glyph-name="Egrave" horiz-adv-x="701" d="M578 680Q579 680 566 681T533 684T489 688T445 693T411 696L397 698Q352 703 325 723T297 783Q297 810 317 832T375 855Q402 855 422 845T462 815L471 805Q480 796 493 782T522 752T551 722T574
699L583 690L578 680ZM691 400H680Q672 419 662 442T642 489T620 537T597 581Q579 613 561 624T510 635H486Q464 635 456 628T442 594L382 352H403Q428 352 446 359T485 384Q511 404 531 427T569 479H580L511 198H501Q496 228 491 251T469 300Q457 319 440 324T397
330H377L312 69Q307 46 316 34T358 22H381Q397 22 410 23T435 30T460 45T490 72Q511 93 533 118T579 171T624 227T667 282H677L610 0H-41L-39 11Q-31 12 -20 13T3 18Q26 24 37 36T56 76L179 577Q182 592 182 603Q182 627 165 635T118 646L120 657H707L691 400Z"
/>
<glyph unicode="&#xc9;" glyph-name="Eacute" horiz-adv-x="701" d="M343 694L471 813Q488 829 510 841T559 854Q597 854 614 833T632 785Q632 744 606 725T533 701L346 683L343 694ZM691 400H680Q672 419 662 442T642 489T620 537T597 581Q579 613 561 624T510
635H486Q464 635 456 628T442 594L382 352H403Q428 352 446 359T485 384Q511 404 531 427T569 479H580L511 198H501Q496 228 491 251T469 300Q457 319 440 324T397 330H377L312 69Q307 46 316 34T358 22H381Q397 22 410 23T435 30T460 45T490 72Q511 93 533 118T579
171T624 227T667 282H677L610 0H-41L-39 11Q-31 12 -20 13T3 18Q26 24 37 36T56 76L179 577Q182 592 182 603Q182 627 165 635T118 646L120 657H707L691 400Z" />
<glyph unicode="&#xca;" glyph-name="Ecircumflex" horiz-adv-x="701" d="M598 687L467 749L280 685L276 694L431 851H531L605 692L598 687ZM691 400H680Q672 419 662 442T642 489T620 537T597 581Q579 613 561 624T510 635H486Q464 635 456 628T442 594L382 352H403Q428
352 446 359T485 384Q511 404 531 427T569 479H580L511 198H501Q496 228 491 251T469 300Q457 319 440 324T397 330H377L312 69Q307 46 316 34T358 22H381Q397 22 410 23T435 30T460 45T490 72Q511 93 533 118T579 171T624 227T667 282H677L610 0H-41L-39 11Q-31
12 -20 13T3 18Q26 24 37 36T56 76L179 577Q182 592 182 603Q182 627 165 635T118 646L120 657H707L691 400Z" />
<glyph unicode="&#xcb;" glyph-name="Edieresis" horiz-adv-x="701" d="M691 400H680Q672 419 662 442T642 489T620 537T597 581Q579 613 561 624T510 635H486Q464 635 456 628T442 594L382 352H403Q428 352 446 359T485 384Q511 404 531 427T569 479H580L511
198H501Q496 228 491 251T469 300Q457 319 440 324T397 330H377L312 69Q307 46 316 34T358 22H381Q397 22 410 23T435 30T460 45T490 72Q511 93 533 118T579 171T624 227T667 282H677L610 0H-41L-39 11Q-31 12 -20 13T3 18Q26 24 37 36T56 76L179 577Q182 592 182
603Q182 627 165 635T118 646L120 657H707L691 400ZM584 850Q625 850 650 827T676 769Q676 734 652 711T584 688Q539 688 515 711T491 770Q491 805 516 827T584 850ZM346 850Q387 850 412 827T438 769Q438 734 414 711T346 688Q301 688 277 711T253 770Q253 805
278 827T346 850Z" />
<glyph unicode="&#xcc;" glyph-name="Igrave" horiz-adv-x="435" d="M533 646Q525 645 514 644T491 639Q473 634 459 620T438 580L314 77Q312 72 312 67T311 53Q311 30 328 23T375 11L373 0H-41L-39 11Q-30 12 -20 13T3 18Q22 24 34 36T55 77L180 580Q182 588
182 593T183 607Q183 618 176 625T159 637T138 643T119 646L121 657H535L533 646ZM460 680Q461 680 448 681T415 684T371 688T327 693T293 696L279 698Q234 703 207 723T179 783Q179 810 199 832T257 855Q284 855 304 845T344 815L353 805Q362 796 375 782T404
752T433 722T456 699L465 690L460 680Z" />
<glyph unicode="&#xcd;" glyph-name="Iacute" horiz-adv-x="435" d="M533 646Q525 645 514 644T491 639Q473 634 459 620T438 580L314 77Q312 72 312 67T311 53Q311 30 328 23T375 11L373 0H-41L-39 11Q-30 12 -20 13T3 18Q22 24 34 36T55 77L180 580Q182 588
182 593T183 607Q183 618 176 625T159 637T138 643T119 646L121 657H535L533 646ZM223 694L351 813Q368 829 390 841T439 854Q477 854 494 833T512 785Q512 744 486 725T413 701L226 683L223 694Z" />
<glyph unicode="&#xce;" glyph-name="Icircumflex" horiz-adv-x="435" d="M533 646Q525 645 514 644T491 639Q473 634 459 620T438 580L314 77Q312 72 312 67T311 53Q311 30 328 23T375 11L373 0H-41L-39 11Q-30 12 -20 13T3 18Q22 24 34 36T55 77L180 580Q182
588 182 593T183 607Q183 618 176 625T159 637T138 643T119 646L121 657H535L533 646ZM477 687L346 749L159 685L155 694L310 851H410L484 692L477 687Z" />
<glyph unicode="&#xcf;" glyph-name="Idieresis" horiz-adv-x="435" d="M533 646Q525 645 514 644T491 639Q473 634 459 620T438 580L314 77Q312 72 312 67T311 53Q311 30 328 23T375 11L373 0H-41L-39 11Q-30 12 -20 13T3 18Q22 24 34 36T55 77L180 580Q182 588
182 593T183 607Q183 618 176 625T159 637T138 643T119 646L121 657H535L533 646ZM470 850Q511 850 536 827T562 769Q562 734 538 711T470 688Q425 688 401 711T377 770Q377 805 402 827T470 850ZM232 850Q273 850 298 827T324 769Q324 734 300 711T232 688Q187
688 163 711T139 770Q139 805 164 827T232 850Z" />
<glyph unicode="&#xd0;" glyph-name="Eth" horiz-adv-x="767" d="M-41 0L-39 11Q-31 12 -20 12T3 18Q20 24 34 35T56 76L116 319H50L57 349H123L179 577Q181 585 182 592T183 606Q183 629 166 636T119 646L121 657H484Q563 657 619 639T712 587T764 508T780 404Q779
310 748 226T637 80Q589 42 519 21T348 0H-41ZM336 22Q359 22 375 32T406 68Q444 136 491 333Q511 419 522 480T532 580Q530 612 519 624T483 636H475Q457 636 449 633T438 616L372 349H448L441 319H365L307 84Q304 72 303 63T301 45Q301 36 308 29T329 22H336Z"
/>
<glyph unicode="&#xd1;" glyph-name="Ntilde" horiz-adv-x="691" d="M696 857Q688 824 676 796T647 746T606 713T547 701Q532 701 513 705T473 713T432 722T397 726Q373 726 355 717T324 685L310 687Q326 759 366 798T459 838Q476 838 493 835T528 827T565 819T609
815Q634 815 652 825T682 862L696 857ZM798 646Q787 645 776 644T757 640Q741 635 728 626T703 599Q691 582 680 557T658 487L540 -10H484L213 519H207L121 169Q112 133 109 111T105 70Q105 53 114 38T143 17Q151 15 162 14T181 11L179 0H-41L-39 11Q-30 12 -20
13T-2 17Q15 22 28 30T53 57Q64 74 74 97T96 169L171 474Q182 516 183 537T179 579Q175 599 166 613T138 636Q129 640 120 642T101 646L103 657H413L589 316H592L635 491Q643 525 646 545T650 583Q650 601 641 617T612 640Q599 644 580 646L582 657H800L798 646Z"
/>
<glyph unicode="&#xd2;" glyph-name="Ograve" horiz-adv-x="770" d="M626 680Q627 680 614 681T581 684T537 688T493 693T459 696L445 698Q400 703 373 723T345 783Q345 810 365 832T423 855Q450 855 470 845T510 815L519 805Q528 796 541 782T570 752T599 722T622
699L631 690L626 680ZM778 374Q778 268 728 183T587 44Q561 28 531 17T470 -1T409 -11T354 -14Q285 -14 229 7T132 66T69 159T47 282Q47 328 58 373T92 461T152 542T241 611Q269 627 299 638T360 657T420 667T475 670Q543 670 599 647T694 583T756 489T778 374ZM538
599Q538 619 526 634T490 650Q461 650 446 635T421 600Q406 570 391 523T360 423T332 312T308 205T291 116T285 57Q285 35 296 20T332 5Q364 5 379 22T407 67Q421 99 436 145T465 242T493 346T516 448T532 536T538 599Z" />
<glyph unicode="&#xd3;" glyph-name="Oacute" horiz-adv-x="770" d="M377 694L505 813Q522 829 544 841T593 854Q631 854 648 833T666 785Q666 744 640 725T567 701L380 683L377 694ZM778 374Q778 268 728 183T587 44Q561 28 531 17T470 -1T409 -11T354 -14Q285
-14 229 7T132 66T69 159T47 282Q47 328 58 373T92 461T152 542T241 611Q269 627 299 638T360 657T420 667T475 670Q543 670 599 647T694 583T756 489T778 374ZM538 599Q538 619 526 634T490 650Q461 650 446 635T421 600Q406 570 391 523T360 423T332 312T308
205T291 116T285 57Q285 35 296 20T332 5Q364 5 379 22T407 67Q421 99 436 145T465 242T493 346T516 448T532 536T538 599Z" />
<glyph unicode="&#xd4;" glyph-name="Ocircumflex" horiz-adv-x="770" d="M635 687L504 749L317 685L313 694L468 851H568L642 692L635 687ZM778 374Q778 268 728 183T587 44Q561 28 531 17T470 -1T409 -11T354 -14Q285 -14 229 7T132 66T69 159T47 282Q47 328
58 373T92 461T152 542T241 611Q269 627 299 638T360 657T420 667T475 670Q543 670 599 647T694 583T756 489T778 374ZM538 599Q538 619 526 634T490 650Q461 650 446 635T421 600Q406 570 391 523T360 423T332 312T308 205T291 116T285 57Q285 35 296 20T332 5Q364
5 379 22T407 67Q421 99 436 145T465 242T493 346T516 448T532 536T538 599Z" />
<glyph unicode="&#xd5;" glyph-name="Otilde" horiz-adv-x="770" d="M720 857Q712 824 700 796T671 746T630 713T571 701Q556 701 537 705T497 713T456 722T421 726Q397 726 379 717T348 685L334 687Q350 759 390 798T483 838Q500 838 517 835T552 827T589 819T633
815Q658 815 676 825T706 862L720 857ZM778 374Q778 268 728 183T587 44Q561 28 531 17T470 -1T409 -11T354 -14Q285 -14 229 7T132 66T69 159T47 282Q47 328 58 373T92 461T152 542T241 611Q269 627 299 638T360 657T420 667T475 670Q543 670 599 647T694 583T756
489T778 374ZM538 599Q538 619 526 634T490 650Q461 650 446 635T421 600Q406 570 391 523T360 423T332 312T308 205T291 116T285 57Q285 35 296 20T332 5Q364 5 379 22T407 67Q421 99 436 145T465 242T493 346T516 448T532 536T538 599Z" />
<glyph unicode="&#xd6;" glyph-name="Odieresis" horiz-adv-x="770" d="M622 850Q663 850 688 827T714 769Q714 734 690 711T622 688Q577 688 553 711T529 770Q529 805 554 827T622 850ZM384 850Q425 850 450 827T476 769Q476 734 452 711T384 688Q339 688 315
711T291 770Q291 805 316 827T384 850ZM778 374Q778 268 728 183T587 44Q561 28 531 17T470 -1T409 -11T354 -14Q285 -14 229 7T132 66T69 159T47 282Q47 328 58 373T92 461T152 542T241 611Q269 627 299 638T360 657T420 667T475 670Q543 670 599 647T694 583T756
489T778 374ZM538 599Q538 619 526 634T490 650Q461 650 446 635T421 600Q406 570 391 523T360 423T332 312T308 205T291 116T285 57Q285 35 296 20T332 5Q364 5 379 22T407 67Q421 99 436 145T465 242T493 346T516 448T532 536T538 599Z" />
<glyph unicode="&#xd7;" glyph-name="multiply" horiz-adv-x="407" d="M237 258L371 120L358 107L223 244L89 107L76 120L211 257L76 394L91 408L224 272L358 408L371 395L237 258Z" />
<glyph unicode="&#xd8;" glyph-name="Oslash" horiz-adv-x="770" d="M421 600Q403 562 384 501T346 370T314 234T292 119L537 609Q534 626 523 638T490 650Q461 650 446 635T421 600ZM332 5Q364 5 379 22T407 67Q425 110 445 174T484 308T515 444T535 556L285
58V57Q285 35 296 20T332 5ZM354 -14Q301 -14 255 -2L226 -60L206 -52L234 5Q147 34 97 106T47 282Q47 328 58 373T92 461T152 542T241 611Q269 627 299 638T360 657T420 667T475 670Q520 670 562 659L591 717L611 708L583 653Q628 637 664 610T725 546T764 466T778
374Q778 268 728 183T587 44Q561 28 531 17T470 -1T409 -11T354 -14Z" />
<glyph unicode="&#xd9;" glyph-name="Ugrave" horiz-adv-x="696" d="M618 680Q619 680 606 681T573 684T529 688T485 693T451 696L437 698Q392 703 365 723T337 783Q337 810 357 832T415 855Q442 855 462 845T502 815L511 805Q520 796 533 782T562 752T591 722T614
699L623 690L618 680ZM807 646Q780 643 763 637T729 611Q715 594 704 568T680 493L612 218Q600 171 583 129T536 56T458 6T338 -12Q273 -12 225 2T146 40T99 99T84 173Q84 186 85 200T89 232T97 276T111 338L170 580Q171 585 171 590T172 603Q172 629 154 636T111
646L113 657H528L526 646Q514 645 504 643T485 639Q475 635 467 631T452 621T440 606T431 581L351 261Q342 223 337 190T331 135Q331 93 353 65T423 36Q460 36 487 51T532 92T563 152T585 222L653 494Q661 528 664 547T668 581Q668 602 662 614T646 632T624 641T599
646L601 657H808L807 646Z" />
<glyph unicode="&#xda;" glyph-name="Uacute" horiz-adv-x="696" d="M394 694L522 813Q539 829 561 841T610 854Q648 854 665 833T683 785Q683 744 657 725T584 701L397 683L394 694ZM807 646Q780 643 763 637T729 611Q715 594 704 568T680 493L612 218Q600 171
583 129T536 56T458 6T338 -12Q273 -12 225 2T146 40T99 99T84 173Q84 186 85 200T89 232T97 276T111 338L170 580Q171 585 171 590T172 603Q172 629 154 636T111 646L113 657H528L526 646Q514 645 504 643T485 639Q475 635 467 631T452 621T440 606T431 581L351
261Q342 223 337 190T331 135Q331 93 353 65T423 36Q460 36 487 51T532 92T563 152T585 222L653 494Q661 528 664 547T668 581Q668 602 662 614T646 632T624 641T599 646L601 657H808L807 646Z" />
<glyph unicode="&#xdb;" glyph-name="Ucircumflex" horiz-adv-x="696" d="M657 687L526 749L339 685L335 694L490 851H590L664 692L657 687ZM807 646Q780 643 763 637T729 611Q715 594 704 568T680 493L612 218Q600 171 583 129T536 56T458 6T338 -12Q273 -12
225 2T146 40T99 99T84 173Q84 186 85 200T89 232T97 276T111 338L170 580Q171 585 171 590T172 603Q172 629 154 636T111 646L113 657H528L526 646Q514 645 504 643T485 639Q475 635 467 631T452 621T440 606T431 581L351 261Q342 223 337 190T331 135Q331 93
353 65T423 36Q460 36 487 51T532 92T563 152T585 222L653 494Q661 528 664 547T668 581Q668 602 662 614T646 632T624 641T599 646L601 657H808L807 646Z" />
<glyph unicode="&#xdc;" glyph-name="Udieresis" horiz-adv-x="696" d="M807 646Q780 643 763 637T729 611Q715 594 704 568T680 493L612 218Q600 171 583 129T536 56T458 6T338 -12Q273 -12 225 2T146 40T99 99T84 173Q84 186 85 200T89 232T97 276T111 338L170
580Q171 585 171 590T172 603Q172 629 154 636T111 646L113 657H528L526 646Q514 645 504 643T485 639Q475 635 467 631T452 621T440 606T431 581L351 261Q342 223 337 190T331 135Q331 93 353 65T423 36Q460 36 487 51T532 92T563 152T585 222L653 494Q661 528
664 547T668 581Q668 602 662 614T646 632T624 641T599 646L601 657H808L807 646ZM645 850Q686 850 711 827T737 769Q737 734 713 711T645 688Q600 688 576 711T552 770Q552 805 577 827T645 850ZM407 850Q448 850 473 827T499 769Q499 734 475 711T407 688Q362
688 338 711T314 770Q314 805 339 827T407 850Z" />
<glyph unicode="&#xdd;" glyph-name="Yacute" horiz-adv-x="673" d="M781 646Q767 642 753 637T724 622Q703 609 681 584T627 512L487 305L431 77Q430 72 429 66T428 51Q428 30 450 22T496 11L494 0H73L75 11Q108 14 130 25Q139 29 145 33T156 42T165 56T173 76L229
305L187 540Q177 594 161 616T113 646L115 657H535L533 646Q495 642 475 632T454 590Q454 579 455 565T458 530L479 344H484L593 506Q616 542 629 566T643 610Q643 630 627 637T594 646L596 657H783L781 646ZM415 694L543 813Q560 829 582 841T631 854Q669 854
686 833T704 785Q704 744 678 725T605 701L418 683L415 694Z" />
<glyph unicode="&#xde;" glyph-name="Thorn" horiz-adv-x="715" d="M336 145Q330 116 326 94T322 58Q322 29 351 19Q360 16 371 14T393 11L391 0H-41L-39 11Q-29 12 -22 13T-6 16Q14 22 27 32T49 60T67 108T87 182L159 473Q168 509 175 545T181 606Q179 621 173
629T155 641Q139 644 121 646L124 657H542L540 646Q532 645 520 644T496 639Q475 631 461 612T437 555L429 523H457Q536 523 590 511T678 477T727 426T742 361Q742 304 708 260T623 189Q581 167 520 156T360 145H336ZM434 207Q451 237 460 271T478 338Q498 426
494 463T455 501H448Q446 501 439 500T427 494Q420 486 414 462L401 410L341 167H363Q388 167 404 174T434 207Z" />
<glyph unicode="&#xdf;" glyph-name="germandbls" horiz-adv-x="691" d="M640 592Q640 572 628 558T596 533T555 515T514 500T483 484T470 464Q470 449 481 436T511 408T554 376T604 335Q631 311 648 291T677 251T692 212T697 169Q697 134 683 102T641 44T575
4T484 -11Q429 -11 391 -3T328 20T292 55T281 101Q281 138 303 160T370 183Q403 183 429 161T455 100Q455 75 451 61T446 31Q446 20 457 13T494 6Q519 6 534 17T550 49Q550 59 547 68T536 88T513 114T475 151Q440 184 418 207T382 249T364 286T359 327Q359 365
379 393T424 450T469 512T490 595Q490 627 480 644T444 661Q421 661 404 641T374 567Q366 532 355 485T332 384T304 276T272 173Q238 75 200 3T115 -118T15 -190T-106 -214Q-178 -214 -222 -183T-267 -98Q-267 -60 -240 -38T-173 -15Q-125 -15 -104 -39T-82 -95Q-82
-111 -87 -124T-98 -148T-110 -167T-115 -181Q-115 -190 -109 -193T-94 -197Q-57 -197 -39 -140Q-30 -112 -20 -67T6 44T41 201T89 413Q110 501 148 554T233 635T333 671T435 680Q538 680 589 657T640 592Z" />
<glyph unicode="&#xe0;" glyph-name="agrave" horiz-adv-x="663" d="M424 428Q424 439 420 443T408 447Q400 447 391 440T365 403Q350 374 329 329T287 235T253 144T239 77Q239 55 254 55Q268 55 281 74T305 113Q316 136 328 166T351 225Q375 287 389 324T411
382T421 412T424 428ZM551 78Q551 68 555 66T564 63Q567 63 573 64T590 72T612 90T640 125L652 117Q610 50 546 21T416 -9Q362 -9 340 11T317 64Q317 75 318 86T321 106H317Q309 88 301 75T280 48Q254 18 221 5T143 -9Q83 -9 49 30T15 127Q15 199 46 262T128 371T240
444T366 471Q389 471 403 468T426 458T439 445T446 430H450L473 462H671Q665 443 656 417T637 360T616 299T595 238Q573 172 562 134T551 78ZM390 686Q421 686 440 673T476 634L566 496L561 487L398 529Q357 540 336 559T314 614Q315 643 334 664T390 686Z" />
<glyph unicode="&#xe1;" glyph-name="aacute" horiz-adv-x="663" d="M424 428Q424 439 420 443T408 447Q400 447 391 440T365 403Q350 374 329 329T287 235T253 144T239 77Q239 55 254 55Q268 55 281 74T305 113Q316 136 328 166T351 225Q375 287 389 324T411
382T421 412T424 428ZM551 78Q551 68 555 66T564 63Q567 63 573 64T590 72T612 90T640 125L652 117Q610 50 546 21T416 -9Q362 -9 340 11T317 64Q317 75 318 86T321 106H317Q309 88 301 75T280 48Q254 18 221 5T143 -9Q83 -9 49 30T15 127Q15 199 46 262T128 371T240
444T366 471Q389 471 403 468T426 458T439 445T446 430H450L473 462H671Q665 443 656 417T637 360T616 299T595 238Q573 172 562 134T551 78ZM643 604Q642 571 617 552T551 525L379 494L375 503L480 633Q496 652 517 667T570 682Q608 680 626 657T643 604Z" />
<glyph unicode="&#xe2;" glyph-name="acircumflex" horiz-adv-x="663" d="M424 428Q424 439 420 443T408 447Q400 447 391 440T365 403Q350 374 329 329T287 235T253 144T239 77Q239 55 254 55Q268 55 281 74T305 113Q316 136 328 166T351 225Q375 287 389 324T411
382T421 412T424 428ZM551 78Q551 68 555 66T564 63Q567 63 573 64T590 72T612 90T640 125L652 117Q610 50 546 21T416 -9Q362 -9 340 11T317 64Q317 75 318 86T321 106H317Q309 88 301 75T280 48Q254 18 221 5T143 -9Q83 -9 49 30T15 127Q15 199 46 262T128 371T240
444T366 471Q389 471 403 468T426 458T439 445T446 430H450L473 462H671Q665 443 656 417T637 360T616 299T595 238Q573 172 562 134T551 78ZM577 485L463 565L287 485L281 494L427 668H527L587 491L577 485Z" />
<glyph unicode="&#xe3;" glyph-name="atilde" horiz-adv-x="663" d="M424 428Q424 439 420 443T408 447Q400 447 391 440T365 403Q350 374 329 329T287 235T253 144T239 77Q239 55 254 55Q268 55 281 74T305 113Q316 136 328 166T351 225Q375 287 389 324T411
382T421 412T424 428ZM551 78Q551 68 555 66T564 63Q567 63 573 64T590 72T612 90T640 125L652 117Q610 50 546 21T416 -9Q362 -9 340 11T317 64Q317 75 318 86T321 106H317Q309 88 301 75T280 48Q254 18 221 5T143 -9Q83 -9 49 30T15 127Q15 199 46 262T128 371T240
444T366 471Q389 471 403 468T426 458T439 445T446 430H450L473 462H671Q665 443 656 417T637 360T616 299T595 238Q573 172 562 134T551 78ZM641 651Q631 618 619 591T591 543T552 512T500 500Q478 500 459 505T422 517T387 528T353 534Q335 534 320 526T293 491L277
494Q287 526 299 553T329 601T370 632T423 644Q441 644 459 639T494 627T528 616T559 610Q579 610 596 619T625 656L641 651Z" />
<glyph unicode="&#xe4;" glyph-name="adieresis" horiz-adv-x="663" d="M424 428Q424 439 420 443T408 447Q400 447 391 440T365 403Q350 374 329 329T287 235T253 144T239 77Q239 55 254 55Q268 55 281 74T305 113Q316 136 328 166T351 225Q375 287 389 324T411
382T421 412T424 428ZM551 78Q551 68 555 66T564 63Q567 63 573 64T590 72T612 90T640 125L652 117Q610 50 546 21T416 -9Q362 -9 340 11T317 64Q317 75 318 86T321 106H317Q309 88 301 75T280 48Q254 18 221 5T143 -9Q83 -9 49 30T15 127Q15 199 46 262T128 371T240
444T366 471Q389 471 403 468T426 458T439 445T446 430H450L473 462H671Q665 443 656 417T637 360T616 299T595 238Q573 172 562 134T551 78ZM238 566Q238 601 263 623T329 645Q369 645 394 623T420 565Q420 531 396 509T329 487Q286 487 262 509T238 566ZM455
567Q455 602 480 624T546 646Q586 646 611 624T637 566Q637 532 613 510T546 488Q504 488 480 510T455 567Z" />
<glyph unicode="&#xe5;" glyph-name="aring" horiz-adv-x="663" d="M424 428Q424 439 420 443T408 447Q400 447 391 440T365 403Q350 374 329 329T287 235T253 144T239 77Q239 55 254 55Q268 55 281 74T305 113Q316 136 328 166T351 225Q375 287 389 324T411 382T421
412T424 428ZM551 78Q551 68 555 66T564 63Q567 63 573 64T590 72T612 90T640 125L652 117Q610 50 546 21T416 -9Q362 -9 340 11T317 64Q317 75 318 86T321 106H317Q309 88 301 75T280 48Q254 18 221 5T143 -9Q83 -9 49 30T15 127Q15 199 46 262T128 371T240 444T366
471Q389 471 403 468T426 458T439 445T446 430H450L473 462H671Q665 443 656 417T637 360T616 299T595 238Q573 172 562 134T551 78ZM520 587Q520 615 507 634T462 654Q430 654 417 635T404 587Q404 558 417 539T462 519Q494 519 507 538T520 587ZM563 587Q563
566 555 549T534 519T502 499T462 492Q418 492 390 518T361 587Q361 627 389 654T462 682Q507 682 535 656T563 587Z" />
<glyph unicode="&#xe6;" glyph-name="ae" horiz-adv-x="884" d="M890 362Q890 328 868 303T810 261Q793 253 745 236T608 202Q602 173 599 147T596 102Q596 71 606 54T645 36Q679 36 710 49T766 80T811 118T841 154L853 145Q806 78 733 35T550 -9Q508 -9 473 3T411
39T370 95T353 170H347Q327 120 312 94T283 50Q259 21 225 6T143 -10Q83 -10 49 29T15 127Q15 199 46 262T128 371T240 444T366 471Q388 471 402 468T424 460T435 447T441 431H448L466 461H608Q607 458 603 448L597 433H599Q634 454 667 462T725 471Q771 471 802
462T853 438T881 403T890 362ZM424 428Q424 439 420 443T408 447Q400 447 391 440T365 403Q350 374 329 329T287 235T253 144T239 77Q239 55 254 55Q268 55 281 74T305 113Q316 136 328 166T351 225Q375 287 389 324T411 382T421 412T424 428ZM740 433Q740 446
737 450T725 454Q711 454 695 434T664 380T636 305T612 221Q629 226 643 231T676 257Q688 270 699 293T720 343T734 393T740 433Z" />
<glyph unicode="&#xe7;" glyph-name="ccedilla" horiz-adv-x="571" d="M312 -109Q312 -125 304 -139T278 -165T229 -184T152 -191Q105 -191 84 -183T51 -167L59 -156Q70 -162 85 -168T124 -174Q155 -174 172 -154T189 -108Q189 -85 178 -73T153 -61Q143 -61 137
-64T126 -72L112 -63L148 -4Q135 -1 123 3Q88 17 64 41T28 97T16 164Q16 209 31 247T70 316T122 370T178 409Q234 441 291 456T403 471Q452 471 487 461T544 435T577 396T588 349Q588 304 559 281T488 257Q442 257 418 281T393 340Q393 350 395 362T403 392Q410
412 414 421T419 441Q419 454 405 454Q380 454 357 428T315 356Q304 330 295 302T278 247T266 196T261 153Q261 132 264 113T275 80T299 57T338 48Q363 48 389 59T438 86T481 121T513 156L525 148Q502 118 472 90T403 39T314 3T205 -11Q184 -11 165 -8L140 -51Q148
-46 169 -41T215 -35Q261 -35 286 -53T312 -109Z" />
<glyph unicode="&#xe8;" glyph-name="egrave" horiz-adv-x="547" d="M516 145Q492 112 463 84T396 35T313 3T214 -9Q171 -9 135 3T72 40T30 98T15 177Q15 221 28 257T63 323T116 376T179 418Q233 447 290 459T388 471Q434 471 465 462T516 438T544 403T553 362Q553
329 531 304T473 262Q450 251 427 243T380 228T329 214T271 202Q265 173 262 149T259 102Q259 71 268 54T309 36Q342 36 373 49T429 80T474 118T504 154L516 145ZM275 221Q285 224 292 226T307 232T322 241T339 257Q351 270 362 293T383 343T397 393T403 433Q403
446 400 450T388 454Q373 454 358 434T327 380T299 305T275 221ZM311 686Q342 686 361 673T397 634L487 496L482 487L319 529Q278 540 257 559T235 614Q236 643 255 664T311 686Z" />
<glyph unicode="&#xe9;" glyph-name="eacute" horiz-adv-x="547" d="M558 604Q557 571 532 552T466 525L294 494L290 503L395 633Q411 652 432 667T485 682Q523 680 541 657T558 604ZM516 145Q492 112 463 84T396 35T313 3T214 -9Q171 -9 135 3T72 40T30 98T15
177Q15 221 28 257T63 323T116 376T179 418Q233 447 290 459T388 471Q434 471 465 462T516 438T544 403T553 362Q553 329 531 304T473 262Q450 251 427 243T380 228T329 214T271 202Q265 173 262 149T259 102Q259 71 268 54T309 36Q342 36 373 49T429 80T474 118T504
154L516 145ZM275 221Q285 224 292 226T307 232T322 241T339 257Q351 270 362 293T383 343T397 393T403 433Q403 446 400 450T388 454Q373 454 358 434T327 380T299 305T275 221Z" />
<glyph unicode="&#xea;" glyph-name="ecircumflex" horiz-adv-x="547" d="M501 485L387 565L211 485L205 494L351 668H451L511 491L501 485ZM516 145Q492 112 463 84T396 35T313 3T214 -9Q171 -9 135 3T72 40T30 98T15 177Q15 221 28 257T63 323T116 376T179 418Q233
447 290 459T388 471Q434 471 465 462T516 438T544 403T553 362Q553 329 531 304T473 262Q450 251 427 243T380 228T329 214T271 202Q265 173 262 149T259 102Q259 71 268 54T309 36Q342 36 373 49T429 80T474 118T504 154L516 145ZM275 221Q285 224 292 226T307
232T322 241T339 257Q351 270 362 293T383 343T397 393T403 433Q403 446 400 450T388 454Q373 454 358 434T327 380T299 305T275 221Z" />
<glyph unicode="&#xeb;" glyph-name="edieresis" horiz-adv-x="547" d="M190 566Q190 601 215 623T281 645Q321 645 346 623T372 565Q372 531 348 509T281 487Q238 487 214 509T190 566ZM407 567Q407 602 432 624T498 646Q538 646 563 624T589 566Q589 532 565
510T498 488Q456 488 432 510T407 567ZM516 145Q492 112 463 84T396 35T313 3T214 -9Q171 -9 135 3T72 40T30 98T15 177Q15 221 28 257T63 323T116 376T179 418Q233 447 290 459T388 471Q434 471 465 462T516 438T544 403T553 362Q553 329 531 304T473 262Q450
251 427 243T380 228T329 214T271 202Q265 173 262 149T259 102Q259 71 268 54T309 36Q342 36 373 49T429 80T474 118T504 154L516 145ZM275 221Q285 224 292 226T307 232T322 241T339 257Q351 270 362 293T383 343T397 393T403 433Q403 446 400 450T388 454Q373
454 358 434T327 380T299 305T275 221Z" />
<glyph unicode="&#xec;" glyph-name="igrave" horiz-adv-x="377" d="M132 383Q132 402 117 402Q101 402 76 381T30 326L16 335Q61 404 119 437T250 471Q300 471 329 448T358 383Q358 354 344 315T307 216Q287 165 275 132T263 82Q263 73 268 68T280 63Q292 63
314 79T357 128L369 120Q333 59 268 25T127 -9Q84 -9 56 12T28 77Q28 108 42 147T82 244Q89 260 98 281T114 321T127 357T132 383ZM448 686Q479 686 498 673T534 634L624 496L619 487L456 529Q415 540 394 559T372 614Q373 643 392 664T448 686Z" />
<glyph unicode="&#xed;" glyph-name="iacute" horiz-adv-x="377" d="M433 604Q432 571 407 552T341 525L169 494L165 503L270 633Q286 652 307 667T360 682Q398 680 416 657T433 604ZM132 383Q132 402 117 402Q101 402 76 381T30 326L16 335Q61 404 119 437T250
471Q300 471 329 448T358 383Q358 354 344 315T307 216Q287 165 275 132T263 82Q263 73 268 68T280 63Q292 63 314 79T357 128L369 120Q333 59 268 25T127 -9Q84 -9 56 12T28 77Q28 108 42 147T82 244Q89 260 98 281T114 321T127 357T132 383Z" />
<glyph unicode="&#xee;" glyph-name="icircumflex" horiz-adv-x="377" d="M659 485L545 565L369 485L363 494L509 668H609L669 491L659 485ZM132 383Q132 402 117 402Q101 402 76 381T30 326L16 335Q61 404 119 437T250 471Q300 471 329 448T358 383Q358 354 344
315T307 216Q287 165 275 132T263 82Q263 73 268 68T280 63Q292 63 314 79T357 128L369 120Q333 59 268 25T127 -9Q84 -9 56 12T28 77Q28 108 42 147T82 244Q89 260 98 281T114 321T127 357T132 383Z" />
<glyph unicode="&#xef;" glyph-name="idieresis" horiz-adv-x="377" d="M330 566Q330 601 355 623T421 645Q461 645 486 623T512 565Q512 531 488 509T421 487Q378 487 354 509T330 566ZM547 567Q547 602 572 624T638 646Q678 646 703 624T729 566Q729 532 705
510T638 488Q596 488 572 510T547 567ZM132 383Q132 402 117 402Q101 402 76 381T30 326L16 335Q61 404 119 437T250 471Q300 471 329 448T358 383Q358 354 344 315T307 216Q287 165 275 132T263 82Q263 73 268 68T280 63Q292 63 314 79T357 128L369 120Q333 59
268 25T127 -9Q84 -9 56 12T28 77Q28 108 42 147T82 244Q89 260 98 281T114 321T127 357T132 383Z" />
<glyph unicode="&#xf0;" glyph-name="eth" horiz-adv-x="613" d="M267 -11Q211 -11 165 5T86 50T35 120T17 209Q18 268 46 316T118 397Q161 430 223 451T356 471H373Q381 471 391 470Q383 490 372 510T348 550L232 503L238 525L337 566Q314 599 287 629T234 684H247Q295
667 340 647T426 602L524 642L518 620L445 590Q481 566 510 536T560 470T592 389T604 292Q604 253 595 219T571 155T537 103T495 62Q474 46 448 33T391 10T330 -5T267 -11ZM370 454Q359 454 350 446T329 413Q322 397 312 367T290 300T267 222T247 145T233 79T227
36Q227 6 249 6Q263 6 272 12T290 37Q299 57 310 90T333 161T356 240T375 317T389 382T394 426Q394 454 370 454Z" />
<glyph unicode="&#xf1;" glyph-name="ntilde" horiz-adv-x="691" d="M686 122Q667 92 639 68T578 26T508 0T434 -9Q390 -9 365 12T339 71Q339 99 353 137T391 231L430 321Q443 351 443 368Q443 386 429 386Q420 386 407 374T377 332T339 255T292 134Q281 102 270
69T246 0H8Q18 32 32 75T61 159T86 235T102 283Q113 316 119 337T125 378Q125 405 105 405Q88 405 67 381T29 325L15 334Q35 368 56 393T103 436T160 462T230 471Q282 471 312 446T343 372Q343 360 341 340T329 276H332Q358 341 387 379T446 438T504 465T555 471Q670
471 670 362Q670 328 657 289T616 190Q604 163 596 145T584 114T578 93T576 78Q576 63 592 63Q604 63 627 79T674 130L686 122ZM650 651Q640 618 628 591T600 543T561 512T509 500Q487 500 468 505T431 517T396 528T362 534Q344 534 329 526T302 491L286 494Q296
526 308 553T338 601T379 632T432 644Q450 644 468 639T503 627T537 616T568 610Q588 610 605 619T634 656L650 651Z" />
<glyph unicode="&#xf2;" glyph-name="ograve" horiz-adv-x="609" d="M353 471Q406 471 452 456T532 413T586 346T606 259Q606 199 577 149T503 64Q460 31 399 10T271 -11Q215 -11 168 5T88 50T35 120T17 209Q19 269 46 315T116 394Q161 428 221 449T353 471ZM372
454Q361 454 352 446T331 413Q324 397 314 367T292 300T269 222T249 145T235 79T229 36Q229 6 251 6Q265 6 274 12T292 37Q301 57 312 90T335 161T358 240T377 317T391 382T396 426Q396 454 372 454ZM327 686Q358 686 377 673T413 634L503 496L498 487L335 529Q294
540 273 559T251 614Q252 643 271 664T327 686Z" />
<glyph unicode="&#xf3;" glyph-name="oacute" horiz-adv-x="609" d="M575 604Q574 571 549 552T483 525L311 494L307 503L412 633Q428 652 449 667T502 682Q540 680 558 657T575 604ZM353 471Q406 471 452 456T532 413T586 346T606 259Q606 199 577 149T503 64Q460
31 399 10T271 -11Q215 -11 168 5T88 50T35 120T17 209Q19 269 46 315T116 394Q161 428 221 449T353 471ZM372 454Q361 454 352 446T331 413Q324 397 314 367T292 300T269 222T249 145T235 79T229 36Q229 6 251 6Q265 6 274 12T292 37Q301 57 312 90T335 161T358
240T377 317T391 382T396 426Q396 454 372 454Z" />
<glyph unicode="&#xf4;" glyph-name="ocircumflex" horiz-adv-x="609" d="M527 485L413 565L237 485L231 494L377 668H477L537 491L527 485ZM353 471Q406 471 452 456T532 413T586 346T606 259Q606 199 577 149T503 64Q460 31 399 10T271 -11Q215 -11 168 5T88
50T35 120T17 209Q19 269 46 315T116 394Q161 428 221 449T353 471ZM372 454Q361 454 352 446T331 413Q324 397 314 367T292 300T269 222T249 145T235 79T229 36Q229 6 251 6Q265 6 274 12T292 37Q301 57 312 90T335 161T358 240T377 317T391 382T396 426Q396 454
372 454Z" />
<glyph unicode="&#xf5;" glyph-name="otilde" horiz-adv-x="609" d="M353 471Q406 471 452 456T532 413T586 346T606 259Q606 199 577 149T503 64Q460 31 399 10T271 -11Q215 -11 168 5T88 50T35 120T17 209Q19 269 46 315T116 394Q161 428 221 449T353 471ZM372
454Q361 454 352 446T331 413Q324 397 314 367T292 300T269 222T249 145T235 79T229 36Q229 6 251 6Q265 6 274 12T292 37Q301 57 312 90T335 161T358 240T377 317T391 382T396 426Q396 454 372 454ZM593 651Q583 618 571 591T543 543T504 512T452 500Q430 500
411 505T374 517T339 528T305 534Q287 534 272 526T245 491L229 494Q239 526 251 553T281 601T322 632T375 644Q393 644 411 639T446 627T480 616T511 610Q531 610 548 619T577 656L593 651Z" />
<glyph unicode="&#xf6;" glyph-name="odieresis" horiz-adv-x="609" d="M192 566Q192 601 217 623T283 645Q323 645 348 623T374 565Q374 531 350 509T283 487Q240 487 216 509T192 566ZM409 567Q409 602 434 624T500 646Q540 646 565 624T591 566Q591 532 567
510T500 488Q458 488 434 510T409 567ZM353 471Q406 471 452 456T532 413T586 346T606 259Q606 199 577 149T503 64Q460 31 399 10T271 -11Q215 -11 168 5T88 50T35 120T17 209Q19 269 46 315T116 394Q161 428 221 449T353 471ZM372 454Q361 454 352 446T331 413Q324
397 314 367T292 300T269 222T249 145T235 79T229 36Q229 6 251 6Q265 6 274 12T292 37Q301 57 312 90T335 161T358 240T377 317T391 382T396 426Q396 454 372 454Z" />
<glyph unicode="&#xf7;" glyph-name="divide" horiz-adv-x="527" d="M65 252V270H504V252H65ZM375 409Q375 372 352 349T283 325Q238 325 217 349T195 409Q195 443 218 468T286 493Q333 493 354 468T375 409ZM375 110Q375 75 352 51T283 26Q238 26 217 51T195
110Q195 145 218 169T286 194Q333 194 354 170T375 110Z" />
<glyph unicode="&#xf8;" glyph-name="oslash" horiz-adv-x="610" d="M331 413Q323 397 313 366T291 296T268 216T247 137L392 390Q394 401 395 410T396 426Q396 454 372 454Q361 454 352 446T331 413ZM251 6Q265 6 274 12T292 37Q302 58 313 92T337 167T360 249T380
329L233 72Q231 60 230 51T229 36Q229 6 251 6ZM271 -11Q228 -11 191 -2L161 -55L143 -45L171 4Q136 16 107 35T58 81T27 140T17 209Q19 269 46 315T116 394Q161 428 221 449T353 471Q397 471 433 461L463 514L481 506L452 456Q520 433 563 382T606 259Q606 199
577 149T503 64Q460 31 399 10T271 -11Z" />
<glyph unicode="&#xf9;" glyph-name="ugrave" horiz-adv-x="678" d="M573 75Q573 61 583 61Q593 61 610 76T652 129L664 121Q629 59 580 25T469 -9Q424 -9 391 16T358 89Q358 117 364 141T374 181H370Q345 117 321 79T271 22T217 -3T156 -9Q132 -9 110 -2T71 20T44
56T34 105Q34 124 37 141T46 175T60 211T81 256Q94 283 102 301T116 333T123 356T125 377Q125 387 120 396T101 405Q87 405 68 382T28 326L14 335Q55 405 105 438T228 471Q296 471 326 440T357 365Q357 338 347 308T315 227Q289 168 278 141T266 101Q266 78 284
78Q304 78 334 138T410 326Q422 358 434 392T458 462H697Q686 429 674 392T650 319T627 251T607 193Q601 176 595 158T584 124T576 95T573 75ZM351 686Q382 686 401 673T437 634L527 496L522 487L359 529Q318 540 297 559T275 614Q276 643 295 664T351 686Z" />
<glyph unicode="&#xfa;" glyph-name="uacute" horiz-adv-x="678" d="M599 604Q598 571 573 552T507 525L335 494L331 503L436 633Q452 652 473 667T526 682Q564 680 582 657T599 604ZM573 75Q573 61 583 61Q593 61 610 76T652 129L664 121Q629 59 580 25T469 -9Q424
-9 391 16T358 89Q358 117 364 141T374 181H370Q345 117 321 79T271 22T217 -3T156 -9Q132 -9 110 -2T71 20T44 56T34 105Q34 124 37 141T46 175T60 211T81 256Q94 283 102 301T116 333T123 356T125 377Q125 387 120 396T101 405Q87 405 68 382T28 326L14 335Q55
405 105 438T228 471Q296 471 326 440T357 365Q357 338 347 308T315 227Q289 168 278 141T266 101Q266 78 284 78Q304 78 334 138T410 326Q422 358 434 392T458 462H697Q686 429 674 392T650 319T627 251T607 193Q601 176 595 158T584 124T576 95T573 75Z" />
<glyph unicode="&#xfb;" glyph-name="ucircumflex" horiz-adv-x="678" d="M553 485L439 565L263 485L257 494L403 668H503L563 491L553 485ZM573 75Q573 61 583 61Q593 61 610 76T652 129L664 121Q629 59 580 25T469 -9Q424 -9 391 16T358 89Q358 117 364 141T374
181H370Q345 117 321 79T271 22T217 -3T156 -9Q132 -9 110 -2T71 20T44 56T34 105Q34 124 37 141T46 175T60 211T81 256Q94 283 102 301T116 333T123 356T125 377Q125 387 120 396T101 405Q87 405 68 382T28 326L14 335Q55 405 105 438T228 471Q296 471 326 440T357
365Q357 338 347 308T315 227Q289 168 278 141T266 101Q266 78 284 78Q304 78 334 138T410 326Q422 358 434 392T458 462H697Q686 429 674 392T650 319T627 251T607 193Q601 176 595 158T584 124T576 95T573 75Z" />
<glyph unicode="&#xfc;" glyph-name="udieresis" horiz-adv-x="678" d="M223 566Q223 601 248 623T314 645Q354 645 379 623T405 565Q405 531 381 509T314 487Q271 487 247 509T223 566ZM440 567Q440 602 465 624T531 646Q571 646 596 624T622 566Q622 532 598
510T531 488Q489 488 465 510T440 567ZM573 75Q573 61 583 61Q593 61 610 76T652 129L664 121Q629 59 580 25T469 -9Q424 -9 391 16T358 89Q358 117 364 141T374 181H370Q345 117 321 79T271 22T217 -3T156 -9Q132 -9 110 -2T71 20T44 56T34 105Q34 124 37 141T46
175T60 211T81 256Q94 283 102 301T116 333T123 356T125 377Q125 387 120 396T101 405Q87 405 68 382T28 326L14 335Q55 405 105 438T228 471Q296 471 326 440T357 365Q357 338 347 308T315 227Q289 168 278 141T266 101Q266 78 284 78Q304 78 334 138T410 326Q422
358 434 392T458 462H697Q686 429 674 392T650 319T627 251T607 193Q601 176 595 158T584 124T576 95T573 75Z" />
<glyph unicode="&#xfd;" glyph-name="yacute" horiz-adv-x="509" d="M82 391Q66 391 49 376T11 318L-3 327Q34 404 86 437T210 471Q247 471 273 461T318 432T347 385T365 319Q368 299 371 276T375 229T378 186T379 152H383Q400 177 412 196T432 232T443 264T447
296Q447 313 437 328T411 359Q388 382 388 414Q388 438 407 454T455 471Q481 471 500 454T519 398Q519 357 498 307T444 205T370 101T288 4T212 -78T154 -134Q121 -166 79 -189T-11 -213Q-64 -213 -94 -185T-124 -117Q-124 -72 -96 -49T-30 -25Q5 -25 26 -41T57
-77Q63 -89 66 -101T72 -122T79 -136T92 -142Q99 -142 109 -138T134 -122Q149 -110 165 -94T194 -64Q194 -56 190 -18T179 72T162 184T141 295Q130 343 117 367T82 391ZM514 604Q513 571 488 552T422 525L250 494L246 503L351 633Q367 652 388 667T441 682Q479
680 497 657T514 604Z" />
<glyph unicode="&#xfe;" glyph-name="thorn" horiz-adv-x="657" d="M434 412Q434 423 431 427T421 431Q401 431 376 396Q346 354 318 286Q308 262 300 237T282 181T262 116T237 37Q241 30 248 24T266 18Q278 18 287 21T305 37T324 72T350 137Q365 180 380 224T407
305T426 371T434 412ZM322 335Q338 368 354 393T389 435T431 462T487 471Q519 471 548 462T600 433T636 383T650 313Q650 259 626 198T551 85Q509 43 450 17T314 -9Q277 -9 259 -4T227 8L196 -88Q193 -96 190 -107T183 -130T177 -153T174 -173Q174 -192 189 -198T225
-207L221 -217H-154L-150 -207Q-128 -206 -110 -196T-80 -162Q-71 -142 -66 -124T-52 -84L164 570Q169 586 174 604T179 641Q179 652 177 657T169 666Q159 673 142 673L145 684H430Q435 684 435 681Q435 677 432 668T423 646Q415 625 410 606T393 556Q381 521 369
483Q358 451 345 412T318 335H322Z" />
<glyph unicode="&#xff;" glyph-name="ydieresis" horiz-adv-x="509" d="M82 391Q66 391 49 376T11 318L-3 327Q34 404 86 437T210 471Q247 471 273 461T318 432T347 385T365 319Q368 299 371 276T375 229T378 186T379 152H383Q400 177 412 196T432 232T443 264T447
296Q447 313 437 328T411 359Q388 382 388 414Q388 438 407 454T455 471Q481 471 500 454T519 398Q519 357 498 307T444 205T370 101T288 4T212 -78T154 -134Q121 -166 79 -189T-11 -213Q-64 -213 -94 -185T-124 -117Q-124 -72 -96 -49T-30 -25Q5 -25 26 -41T57
-77Q63 -89 66 -101T72 -122T79 -136T92 -142Q99 -142 109 -138T134 -122Q149 -110 165 -94T194 -64Q194 -56 190 -18T179 72T162 184T141 295Q130 343 117 367T82 391ZM108 566Q108 601 133 623T199 645Q239 645 264 623T290 565Q290 531 266 509T199 487Q156
487 132 509T108 566ZM325 567Q325 602 350 624T416 646Q456 646 481 624T507 566Q507 532 483 510T416 488Q374 488 350 510T325 567Z" />
<glyph unicode="&#x100;" glyph-name="Amacron" horiz-adv-x="669" d="M326 214H181L117 141Q100 121 86 99T71 54Q71 28 90 19Q99 15 109 14T126 11L124 0H-87L-84 11Q-75 13 -62 16T-38 26Q-12 40 19 70T82 138L528 657H695L550 77Q544 52 550 38T572 18Q582
15 592 14T611 11L609 0H218L220 11L235 13Q244 15 252 19Q266 26 276 37T292 76L326 214ZM203 239H332L380 437H375L203 239ZM461 698L483 783H784L762 698H461Z" />
<glyph unicode="&#x101;" glyph-name="amacron" horiz-adv-x="663" d="M424 428Q424 439 420 443T408 447Q400 447 391 440T365 403Q350 374 329 329T287 235T253 144T239 77Q239 55 254 55Q268 55 281 74T305 113Q316 136 328 166T351 225Q375 287 389 324T411
382T421 412T424 428ZM551 78Q551 68 555 66T564 63Q567 63 573 64T590 72T612 90T640 125L652 117Q610 50 546 21T416 -9Q362 -9 340 11T317 64Q317 75 318 86T321 106H317Q309 88 301 75T280 48Q254 18 221 5T143 -9Q83 -9 49 30T15 127Q15 199 46 262T128 371T240
444T366 471Q389 471 403 468T426 458T439 445T446 430H450L473 462H671Q665 443 656 417T637 360T616 299T595 238Q573 172 562 134T551 78ZM317 518L338 603H601L580 518H317Z" />
<glyph unicode="&#x102;" glyph-name="Abreve" horiz-adv-x="669" d="M326 214H181L117 141Q100 121 86 99T71 54Q71 28 90 19Q99 15 109 14T126 11L124 0H-87L-84 11Q-75 13 -62 16T-38 26Q-12 40 19 70T82 138L528 657H695L550 77Q544 52 550 38T572 18Q582
15 592 14T611 11L609 0H218L220 11L235 13Q244 15 252 19Q266 26 276 37T292 76L326 214ZM203 239H332L380 437H375L203 239ZM497 853Q512 821 539 807T616 793Q668 793 709 807T775 853L785 847Q770 772 726 729T614 685Q579 685 555 695T514 724T490 766T482
818V834Q482 843 484 851L497 853Z" />
<glyph unicode="&#x103;" glyph-name="abreve" horiz-adv-x="663" d="M424 428Q424 439 420 443T408 447Q400 447 391 440T365 403Q350 374 329 329T287 235T253 144T239 77Q239 55 254 55Q268 55 281 74T305 113Q316 136 328 166T351 225Q375 287 389 324T411
382T421 412T424 428ZM551 78Q551 68 555 66T564 63Q567 63 573 64T590 72T612 90T640 125L652 117Q610 50 546 21T416 -9Q362 -9 340 11T317 64Q317 75 318 86T321 106H317Q309 88 301 75T280 48Q254 18 221 5T143 -9Q83 -9 49 30T15 127Q15 199 46 262T128 371T240
444T366 471Q389 471 403 468T426 458T439 445T446 430H450L473 462H671Q665 443 656 417T637 360T616 299T595 238Q573 172 562 134T551 78ZM356 658Q367 626 393 611T467 595Q486 595 506 599T546 612T582 632T611 659L621 653Q601 569 557 531T451 493Q395 493
368 528T340 620Q340 625 340 635T343 654L356 658Z" />
<glyph unicode="&#x104;" glyph-name="Aogonek" horiz-adv-x="669" d="M203 239H332L380 437H375L203 239ZM379 0Q344 0 320 -1T280 -5T252 -13T229 -27Q199 -50 186 -80T173 -141Q173 -171 189 -185T232 -202L229 -212Q167 -215 124 -210T54 -194T15 -167T3 -130Q3
-94 46 -70T169 -20Q216 -6 246 5T281 35L326 214H180L117 141Q100 121 86 99T71 54Q71 28 90 19Q99 15 109 14T126 11L124 0H-87L-84 11Q-75 13 -62 16T-38 26Q-12 40 19 70T82 138L528 657H695L550 77Q544 52 550 38T572 18Q582 15 592 14T611 11L609 0H379Z"
/>
<glyph unicode="&#x105;" glyph-name="aogonek" horiz-adv-x="663" d="M652 117Q630 84 607 64T562 31T524 11T497 -2Q453 -28 423 -66T393 -147Q393 -177 409 -191T452 -208L449 -218Q388 -221 345 -217T275 -201T236 -173T223 -136Q223 -114 240 -98T288 -67T364
-38T463 -5Q448 -7 439 -8T416 -9Q362 -9 340 11T317 64Q317 75 318 86T321 106H317Q309 88 301 75T280 48Q254 18 221 5T143 -9Q83 -9 49 30T15 127Q15 199 46 262T128 371T240 444T366 471Q389 471 403 468T426 458T439 445T446 430H450L473 462H671Q665 443
656 417T637 360T616 299T595 238Q573 172 562 134T551 78Q551 68 555 66T564 63Q567 63 573 64T590 72T612 90T640 125L652 117ZM424 428Q424 439 420 443T408 447Q400 447 391 440T365 403Q350 374 329 329T287 235T253 144T239 77Q239 55 254 55Q268 55 281
74T305 113Q316 136 328 166T351 225Q375 287 389 324T411 382T421 412T424 428Z" />
<glyph unicode="&#x106;" glyph-name="Cacute" horiz-adv-x="676" d="M665 396H653Q653 444 646 490T621 572T577 629T511 651Q473 651 445 625T393 543Q376 504 357 446T323 325T297 201T287 95Q287 52 306 35T358 18Q398 18 437 34T512 78T577 141T629 216L646
205Q619 156 586 116T512 46T426 0T328 -16Q280 -16 229 -4T136 38T67 121T40 254Q40 341 75 417T173 550T318 639T498 672Q560 672 597 653T654 605H657L717 650H727L665 396ZM344 694L472 813Q489 829 511 841T560 854Q598 854 615 833T633 785Q633 744 607 725T534
701L347 683L344 694Z" />
<glyph unicode="&#x107;" glyph-name="cacute" horiz-adv-x="571" d="M569 604Q568 571 543 552T477 525L305 494L301 503L406 633Q422 652 443 667T496 682Q534 680 552 657T569 604ZM588 349Q588 304 559 281T488 257Q442 257 418 281T393 340Q393 350 395 362T403
392Q410 412 414 421T419 441Q419 454 405 454Q380 454 357 428T315 356Q304 330 295 302T278 247T266 196T261 153Q261 132 264 113T275 80T299 57T338 48Q363 48 389 59T438 86T481 121T513 156L525 148Q502 118 472 90T403 39T314 3T205 -11Q159 -11 124 3T64
41T28 97T16 164Q16 209 31 247T70 316T122 370T178 409Q234 441 291 456T403 471Q452 471 487 461T544 435T577 396T588 349Z" />
<glyph unicode="&#x108;" glyph-name="Ccircumflex" horiz-adv-x="676" d="M614 687L483 749L296 685L292 694L447 851H547L621 692L614 687ZM665 396H653Q653 444 646 490T621 572T577 629T511 651Q473 651 445 625T393 543Q376 504 357 446T323 325T297 201T287
95Q287 52 306 35T358 18Q398 18 437 34T512 78T577 141T629 216L646 205Q619 156 586 116T512 46T426 0T328 -16Q280 -16 229 -4T136 38T67 121T40 254Q40 341 75 417T173 550T318 639T498 672Q560 672 597 653T654 605H657L717 650H727L665 396Z" />
<glyph unicode="&#x109;" glyph-name="ccircumflex" horiz-adv-x="571" d="M513 485L399 565L223 485L217 494L363 668H463L523 491L513 485ZM588 349Q588 304 559 281T488 257Q442 257 418 281T393 340Q393 350 395 362T403 392Q410 412 414 421T419 441Q419
454 405 454Q380 454 357 428T315 356Q304 330 295 302T278 247T266 196T261 153Q261 132 264 113T275 80T299 57T338 48Q363 48 389 59T438 86T481 121T513 156L525 148Q502 118 472 90T403 39T314 3T205 -11Q159 -11 124 3T64 41T28 97T16 164Q16 209 31 247T70
316T122 370T178 409Q234 441 291 456T403 471Q452 471 487 461T544 435T577 396T588 349Z" />
<glyph unicode="&#x10a;" glyph-name="Cdotaccent" horiz-adv-x="676" d="M665 396H653Q653 444 646 490T621 572T577 629T511 651Q473 651 445 625T393 543Q376 504 357 446T323 325T297 201T287 95Q287 52 306 35T358 18Q398 18 437 34T512 78T577 141T629 216L646
205Q619 156 586 116T512 46T426 0T328 -16Q280 -16 229 -4T136 38T67 121T40 254Q40 341 75 417T173 550T318 639T498 672Q560 672 597 653T654 605H657L717 650H727L665 396ZM370 781Q370 821 400 845T482 870Q534 870 564 845T594 781Q594 740 565 715T482 690Q430
690 400 715T370 781Z" />
<glyph unicode="&#x10b;" glyph-name="cdotaccent" horiz-adv-x="571" d="M588 349Q588 304 559 281T488 257Q442 257 418 281T393 340Q393 350 395 362T403 392Q410 412 414 421T419 441Q419 454 405 454Q380 454 357 428T315 356Q304 330 295 302T278 247T266
196T261 153Q261 132 264 113T275 80T299 57T338 48Q363 48 389 59T438 86T481 121T513 156L525 148Q502 118 472 90T403 39T314 3T205 -11Q159 -11 124 3T64 41T28 97T16 164Q16 209 31 247T70 316T122 370T178 409Q234 441 291 456T403 471Q452 471 487 461T544
435T577 396T588 349ZM525 574Q525 533 495 509T414 485Q364 485 334 509T303 573Q303 612 333 637T414 662Q464 662 494 638T525 574Z" />
<glyph unicode="&#x10c;" glyph-name="Ccaron" horiz-adv-x="676" d="M362 858L493 794L680 860L684 851L532 694H432L355 853L362 858ZM665 396H653Q653 444 646 490T621 572T577 629T511 651Q473 651 445 625T393 543Q376 504 357 446T323 325T297 201T287 95Q287
52 306 35T358 18Q398 18 437 34T512 78T577 141T629 216L646 205Q619 156 586 116T512 46T426 0T328 -16Q280 -16 229 -4T136 38T67 121T40 254Q40 341 75 417T173 550T318 639T498 672Q560 672 597 653T654 605H657L717 650H727L665 396Z" />
<glyph unicode="&#x10d;" glyph-name="ccaron" horiz-adv-x="571" d="M269 678L383 598L559 678L565 669L419 495H319L259 672L269 678ZM588 349Q588 304 559 281T488 257Q442 257 418 281T393 340Q393 350 395 362T403 392Q410 412 414 421T419 441Q419 454 405
454Q380 454 357 428T315 356Q304 330 295 302T278 247T266 196T261 153Q261 132 264 113T275 80T299 57T338 48Q363 48 389 59T438 86T481 121T513 156L525 148Q502 118 472 90T403 39T314 3T205 -11Q159 -11 124 3T64 41T28 97T16 164Q16 209 31 247T70 316T122
370T178 409Q234 441 291 456T403 471Q452 471 487 461T544 435T577 396T588 349Z" />
<glyph unicode="&#x10e;" glyph-name="Dcaron" horiz-adv-x="775" d="M360 858L491 794L678 860L682 851L530 694H430L353 853L360 858ZM788 404Q787 310 756 226T645 80Q597 42 527 21T356 0H-41L-39 11Q-31 12 -20 12T3 18Q20 24 34 35T56 76L179 577Q181 585
182 592T183 606Q183 629 166 636T119 646L121 657H492Q571 657 627 639T720 587T772 508T788 404ZM499 333Q519 419 530 480T540 580Q538 612 527 624T491 636H483Q465 636 457 633T446 616L315 84Q312 72 311 63T309 45Q309 36 316 29T337 22H344Q367 22 383
32T414 68Q452 136 499 333Z" />
<glyph unicode="&#x10f;" glyph-name="dcaron" horiz-adv-x="655" d="M789 684H930Q892 642 848 597T757 507H739L789 684ZM350 226Q373 283 388 320T411 380T423 416T426 436Q426 453 411 453Q403 453 392 444T363 402Q348 373 327 326T285 230T251 139T237 77Q237
55 253 55Q266 55 279 72T303 112Q314 134 326 166T350 226ZM317 108Q309 90 300 76T279 48Q251 16 218 3T140 -10Q81 -10 47 28T13 129Q13 200 46 262T133 370T255 444T392 471Q430 471 444 464H445L493 604Q498 618 500 626T502 645Q502 659 489 665T455 674L458
684H746Q754 684 750 675Q745 660 735 630T711 564Q694 518 679 476T650 394T621 315T593 236Q568 167 557 129T545 76Q545 61 558 61Q562 61 569 63T586 72T609 91T636 125L648 117Q606 50 545 20T417 -10Q362 -10 339 11T316 63Q316 74 317 85T320 108H317Z"
/>
<glyph unicode="&#x110;" glyph-name="Dcroat" horiz-adv-x="767" d="M-41 0L-39 11Q-31 12 -20 12T3 18Q20 24 34 35T56 76L116 319H50L57 349H123L179 577Q181 585 182 592T183 606Q183 629 166 636T119 646L121 657H484Q563 657 619 639T712 587T764 508T780
404Q779 310 748 226T637 80Q589 42 519 21T348 0H-41ZM336 22Q359 22 375 32T406 68Q444 136 491 333Q511 419 522 480T532 580Q530 612 519 624T483 636H475Q457 636 449 633T438 616L372 349H448L441 319H365L307 84Q304 72 303 63T301 45Q301 36 308 29T329
22H336Z" />
<glyph unicode="&#x111;" glyph-name="dcroat" horiz-adv-x="655" d="M759 561H369L378 586H768L759 561ZM350 226Q373 283 388 320T411 380T423 416T426 436Q426 453 411 453Q403 453 392 444T363 402Q348 373 327 326T285 230T251 139T237 77Q237 55 253 55Q266
55 279 72T303 112Q314 134 326 166T350 226ZM317 108Q309 90 300 76T279 48Q251 16 218 3T140 -10Q81 -10 47 28T13 129Q13 200 46 262T133 370T255 444T392 471Q430 471 444 464H445L493 604Q498 618 500 626T502 645Q502 659 489 665T455 674L458 684H746Q754
684 750 675Q745 660 735 630T711 564Q694 518 679 476T650 394T621 315T593 236Q568 167 557 129T545 76Q545 61 558 61Q562 61 569 63T586 72T609 91T636 125L648 117Q606 50 545 20T417 -10Q362 -10 339 11T316 63Q316 74 317 85T320 108H317Z" />
<glyph unicode="&#x112;" glyph-name="Emacron" horiz-adv-x="701" d="M691 400H680Q672 419 662 442T642 489T620 537T597 581Q579 613 561 624T510 635H486Q464 635 456 628T442 594L382 352H403Q428 352 446 359T485 384Q511 404 531 427T569 479H580L511 198H501Q496
228 491 251T469 300Q457 319 440 324T397 330H377L312 69Q307 46 316 34T358 22H381Q397 22 410 23T435 30T460 45T490 72Q511 93 533 118T579 171T624 227T667 282H677L610 0H-41L-39 11Q-31 12 -20 13T3 18Q26 24 37 36T56 76L179 577Q182 592 182 603Q182 627
165 635T118 646L120 657H707L691 400ZM307 698L329 783H630L608 698H307Z" />
<glyph unicode="&#x113;" glyph-name="emacron" horiz-adv-x="547" d="M516 145Q492 112 463 84T396 35T313 3T214 -9Q171 -9 135 3T72 40T30 98T15 177Q15 221 28 257T63 323T116 376T179 418Q233 447 290 459T388 471Q434 471 465 462T516 438T544 403T553 362Q553
329 531 304T473 262Q450 251 427 243T380 228T329 214T271 202Q265 173 262 149T259 102Q259 71 268 54T309 36Q342 36 373 49T429 80T474 118T504 154L516 145ZM275 221Q285 224 292 226T307 232T322 241T339 257Q351 270 362 293T383 343T397 393T403 433Q403
446 400 450T388 454Q373 454 358 434T327 380T299 305T275 221ZM251 518L272 603H535L514 518H251Z" />
<glyph unicode="&#x114;" glyph-name="Ebreve" horiz-adv-x="701" d="M691 400H680Q672 419 662 442T642 489T620 537T597 581Q579 613 561 624T510 635H486Q464 635 456 628T442 594L382 352H403Q428 352 446 359T485 384Q511 404 531 427T569 479H580L511 198H501Q496
228 491 251T469 300Q457 319 440 324T397 330H377L312 69Q307 46 316 34T358 22H381Q397 22 410 23T435 30T460 45T490 72Q511 93 533 118T579 171T624 227T667 282H677L610 0H-41L-39 11Q-31 12 -20 13T3 18Q26 24 37 36T56 76L179 577Q182 592 182 603Q182 627
165 635T118 646L120 657H707L691 400ZM340 853Q355 821 382 807T459 793Q511 793 552 807T618 853L628 847Q613 772 569 729T457 685Q422 685 398 695T357 724T333 766T325 818V834Q325 843 327 851L340 853Z" />
<glyph unicode="&#x115;" glyph-name="ebreve" horiz-adv-x="547" d="M516 145Q492 112 463 84T396 35T313 3T214 -9Q171 -9 135 3T72 40T30 98T15 177Q15 221 28 257T63 323T116 376T179 418Q233 447 290 459T388 471Q434 471 465 462T516 438T544 403T553 362Q553
329 531 304T473 262Q450 251 427 243T380 228T329 214T271 202Q265 173 262 149T259 102Q259 71 268 54T309 36Q342 36 373 49T429 80T474 118T504 154L516 145ZM275 221Q285 224 292 226T307 232T322 241T339 257Q351 270 362 293T383 343T397 393T403 433Q403
446 400 450T388 454Q373 454 358 434T327 380T299 305T275 221ZM278 658Q289 626 315 611T389 595Q408 595 428 599T468 612T504 632T533 659L543 653Q523 569 479 531T373 493Q317 493 290 528T262 620Q262 625 262 635T265 654L278 658Z" />
<glyph unicode="&#x116;" glyph-name="Edotaccent" horiz-adv-x="701" d="M347 781Q347 821 377 845T459 870Q511 870 541 845T571 781Q571 740 542 715T459 690Q407 690 377 715T347 781ZM691 400H680Q672 419 662 442T642 489T620 537T597 581Q579 613 561 624T510
635H486Q464 635 456 628T442 594L382 352H403Q428 352 446 359T485 384Q511 404 531 427T569 479H580L511 198H501Q496 228 491 251T469 300Q457 319 440 324T397 330H377L312 69Q307 46 316 34T358 22H381Q397 22 410 23T435 30T460 45T490 72Q511 93 533 118T579
171T624 227T667 282H677L610 0H-41L-39 11Q-31 12 -20 13T3 18Q26 24 37 36T56 76L179 577Q182 592 182 603Q182 627 165 635T118 646L120 657H707L691 400Z" />
<glyph unicode="&#x117;" glyph-name="edotaccent" horiz-adv-x="547" d="M516 145Q492 112 463 84T396 35T313 3T214 -9Q171 -9 135 3T72 40T30 98T15 177Q15 221 28 257T63 323T116 376T179 418Q233 447 290 459T388 471Q434 471 465 462T516 438T544 403T553
362Q553 329 531 304T473 262Q450 251 427 243T380 228T329 214T271 202Q265 173 262 149T259 102Q259 71 268 54T309 36Q342 36 373 49T429 80T474 118T504 154L516 145ZM275 221Q285 224 292 226T307 232T322 241T339 257Q351 270 362 293T383 343T397 393T403
433Q403 446 400 450T388 454Q373 454 358 434T327 380T299 305T275 221ZM508 574Q508 533 478 509T397 485Q347 485 317 509T286 573Q286 612 316 637T397 662Q447 662 477 638T508 574Z" />
<glyph unicode="&#x118;" glyph-name="Eogonek" horiz-adv-x="701" d="M691 400H680Q672 419 662 442T642 489T620 537T597 581Q579 613 561 624T510 635H486Q464 635 456 628T442 594L382 352H403Q428 352 446 359T485 384Q511 404 531 427T569 479H580L511 198H501Q496
228 491 251T469 300Q457 319 440 324T397 330H377L312 69Q307 46 316 34T358 22H381Q397 22 410 23T435 30T460 45T490 72Q511 93 533 118T579 171T624 227T667 282H677L610 0H506Q492 -11 477 -23Q457 -39 441 -57T414 -96T403 -141Q403 -171 419 -185T462 -202L459
-212Q396 -215 353 -210T284 -194T245 -167T233 -130Q233 -107 251 -90T304 -57T387 -26Q428 -14 476 0H-41L-39 11Q-31 12 -20 13T3 18Q26 24 37 36T56 76L179 577Q182 592 182 603Q182 627 165 635T118 646L120 657H707L691 400Z" />
<glyph unicode="&#x119;" glyph-name="eogonek" horiz-adv-x="547" d="M275 221Q285 224 292 226T307 232T322 241T339 257Q351 270 362 293T383 343T397 393T403 433Q403 446 400 450T388 454Q373 454 358 434T327 380T299 305T275 221ZM214 -9Q171 -9 135 3T72
40T30 98T15 177Q15 221 28 257T63 323T116 376T179 418Q233 447 290 459T388 471Q434 471 465 462T516 438T544 403T553 362Q553 329 531 304T473 262Q450 251 427 243T380 228T329 214T271 202Q265 173 262 149T259 102Q259 71 268 54T309 36Q342 36 373 49T429
80T474 118T504 154L516 145Q492 110 466 87T415 47T366 20T321 0Q297 -10 275 -25T235 -60T207 -102T196 -147Q196 -177 213 -191T256 -208L253 -218Q191 -221 148 -216T78 -200T39 -173T27 -136Q27 -114 43 -98T92 -66T170 -37T276 -4Q262 -7 246 -8T214 -9Z"
/>
<glyph unicode="&#x11a;" glyph-name="Ecaron" horiz-adv-x="701" d="M325 858L456 794L643 860L647 851L495 694H395L318 853L325 858ZM691 400H680Q672 419 662 442T642 489T620 537T597 581Q579 613 561 624T510 635H486Q464 635 456 628T442 594L382 352H403Q428
352 446 359T485 384Q511 404 531 427T569 479H580L511 198H501Q496 228 491 251T469 300Q457 319 440 324T397 330H377L312 69Q307 46 316 34T358 22H381Q397 22 410 23T435 30T460 45T490 72Q511 93 533 118T579 171T624 227T667 282H677L610 0H-41L-39 11Q-31
12 -20 13T3 18Q26 24 37 36T56 76L179 577Q182 592 182 603Q182 627 165 635T118 646L120 657H707L691 400Z" />
<glyph unicode="&#x11b;" glyph-name="ecaron" horiz-adv-x="547" d="M260 678L374 598L550 678L556 669L410 495H310L250 672L260 678ZM516 145Q492 112 463 84T396 35T313 3T214 -9Q171 -9 135 3T72 40T30 98T15 177Q15 221 28 257T63 323T116 376T179 418Q233
447 290 459T388 471Q434 471 465 462T516 438T544 403T553 362Q553 329 531 304T473 262Q450 251 427 243T380 228T329 214T271 202Q265 173 262 149T259 102Q259 71 268 54T309 36Q342 36 373 49T429 80T474 118T504 154L516 145ZM275 221Q285 224 292 226T307
232T322 241T339 257Q351 270 362 293T383 343T397 393T403 433Q403 446 400 450T388 454Q373 454 358 434T327 380T299 305T275 221Z" />
<glyph unicode="&#x11c;" glyph-name="Gcircumflex" horiz-adv-x="760" d="M617 687L486 749L299 685L295 694L450 851H550L624 692L617 687ZM768 303Q757 301 745 299T721 290Q716 286 711 282T699 267Q687 245 677 202L632 15H624Q615 23 600 33T556 43Q542
43 527 39T498 30T472 20T453 12Q424 1 387 -7T309 -16Q253 -16 205 0T119 50T61 133T40 252Q40 327 70 402T159 536T305 633T508 670Q539 670 565 664T611 647T644 624T664 600H667L720 637H729L672 397H662Q660 451 652 497T628 576T584 629T516 649Q484 649
461 632T419 589Q403 566 387 525T355 434T325 329T300 222T283 127T277 57Q277 30 290 18T335 5Q352 5 366 9T393 23Q408 36 417 60T435 115L452 183Q463 225 463 247Q463 297 396 303L399 314H771L768 303Z" />
<glyph unicode="&#x11d;" glyph-name="gcircumflex" horiz-adv-x="557" d="M481 485L367 565L191 485L185 494L331 668H431L491 491L481 485ZM328 452Q318 452 310 446T296 422Q290 405 281 374T264 309T250 247T244 207Q244 183 262 183Q281 183 292 206Q298
220 307 252T326 320T341 386T347 425Q347 452 328 452ZM167 -213Q45 -213 -24 -187T-93 -111Q-93 -74 -52 -58T72 -38V-35Q56 -29 41 -21T13 -1T-6 27T-14 66Q-14 97 -1 119T35 155T88 177T154 187Q69 224 69 303Q69 346 91 377T150 430T231 461T324 471Q377 471
417 458T484 421H488Q489 454 512 479T574 505Q609 505 635 484T661 425Q661 393 641 379T598 365Q576 365 564 375T544 405Q537 424 536 438T524 452Q516 452 510 443T504 408Q504 400 506 393T512 377T518 355T521 326Q521 276 495 245T431 197T350 173T274 166Q235
166 213 172T176 179Q163 179 163 169Q163 164 166 161T183 153T223 145T297 133Q365 123 405 108T465 74T492 32T498 -13Q498 -59 473 -96T402 -159T297 -199T167 -213ZM162 -196Q212 -196 246 -190T302 -174T332 -152T342 -128Q342 -116 336 -109T309 -95T253
-81T156 -63Q129 -58 112 -55T78 -52Q68 -52 55 -55T29 -66T8 -86T-1 -115Q-1 -139 13 -154T50 -179T102 -192T162 -196Z" />
<glyph unicode="&#x11e;" glyph-name="Gbreve" horiz-adv-x="760" d="M368 853Q383 821 410 807T487 793Q539 793 580 807T646 853L656 847Q641 772 597 729T485 685Q450 685 426 695T385 724T361 766T353 818V834Q353 843 355 851L368 853ZM768 303Q757 301 745
299T721 290Q716 286 711 282T699 267Q687 245 677 202L632 15H624Q615 23 600 33T556 43Q542 43 527 39T498 30T472 20T453 12Q424 1 387 -7T309 -16Q253 -16 205 0T119 50T61 133T40 252Q40 327 70 402T159 536T305 633T508 670Q539 670 565 664T611 647T644
624T664 600H667L720 637H729L672 397H662Q660 451 652 497T628 576T584 629T516 649Q484 649 461 632T419 589Q403 566 387 525T355 434T325 329T300 222T283 127T277 57Q277 30 290 18T335 5Q352 5 366 9T393 23Q408 36 417 60T435 115L452 183Q463 225 463 247Q463
297 396 303L399 314H771L768 303Z" />
<glyph unicode="&#x11f;" glyph-name="gbreve" horiz-adv-x="557" d="M328 452Q318 452 310 446T296 422Q290 405 281 374T264 309T250 247T244 207Q244 183 262 183Q281 183 292 206Q298 220 307 252T326 320T341 386T347 425Q347 452 328 452ZM167 -213Q45 -213
-24 -187T-93 -111Q-93 -74 -52 -58T72 -38V-35Q56 -29 41 -21T13 -1T-6 27T-14 66Q-14 97 -1 119T35 155T88 177T154 187Q69 224 69 303Q69 346 91 377T150 430T231 461T324 471Q377 471 417 458T484 421H488Q489 454 512 479T574 505Q609 505 635 484T661 425Q661
393 641 379T598 365Q576 365 564 375T544 405Q537 424 536 438T524 452Q516 452 510 443T504 408Q504 400 506 393T512 377T518 355T521 326Q521 276 495 245T431 197T350 173T274 166Q235 166 213 172T176 179Q163 179 163 169Q163 164 166 161T183 153T223 145T297
133Q365 123 405 108T465 74T492 32T498 -13Q498 -59 473 -96T402 -159T297 -199T167 -213ZM162 -196Q212 -196 246 -190T302 -174T332 -152T342 -128Q342 -116 336 -109T309 -95T253 -81T156 -63Q129 -58 112 -55T78 -52Q68 -52 55 -55T29 -66T8 -86T-1 -115Q-1
-139 13 -154T50 -179T102 -192T162 -196ZM258 658Q269 626 295 611T369 595Q388 595 408 599T448 612T484 632T513 659L523 653Q503 569 459 531T353 493Q297 493 270 528T242 620Q242 625 242 635T245 654L258 658Z" />
<glyph unicode="&#x120;" glyph-name="Gdotaccent" horiz-adv-x="760" d="M413 781Q413 821 443 845T525 870Q577 870 607 845T637 781Q637 740 608 715T525 690Q473 690 443 715T413 781ZM768 303Q757 301 745 299T721 290Q716 286 711 282T699 267Q687 245 677
202L632 15H624Q615 23 600 33T556 43Q542 43 527 39T498 30T472 20T453 12Q424 1 387 -7T309 -16Q253 -16 205 0T119 50T61 133T40 252Q40 327 70 402T159 536T305 633T508 670Q539 670 565 664T611 647T644 624T664 600H667L720 637H729L672 397H662Q660 451
652 497T628 576T584 629T516 649Q484 649 461 632T419 589Q403 566 387 525T355 434T325 329T300 222T283 127T277 57Q277 30 290 18T335 5Q352 5 366 9T393 23Q408 36 417 60T435 115L452 183Q463 225 463 247Q463 297 396 303L399 314H771L768 303Z" />
<glyph unicode="&#x121;" glyph-name="gdotaccent" horiz-adv-x="557" d="M328 452Q318 452 310 446T296 422Q290 405 281 374T264 309T250 247T244 207Q244 183 262 183Q281 183 292 206Q298 220 307 252T326 320T341 386T347 425Q347 452 328 452ZM167 -213Q45
-213 -24 -187T-93 -111Q-93 -74 -52 -58T72 -38V-35Q56 -29 41 -21T13 -1T-6 27T-14 66Q-14 97 -1 119T35 155T88 177T154 187Q69 224 69 303Q69 346 91 377T150 430T231 461T324 471Q377 471 417 458T484 421H488Q489 454 512 479T574 505Q609 505 635 484T661
425Q661 393 641 379T598 365Q576 365 564 375T544 405Q537 424 536 438T524 452Q516 452 510 443T504 408Q504 400 506 393T512 377T518 355T521 326Q521 276 495 245T431 197T350 173T274 166Q235 166 213 172T176 179Q163 179 163 169Q163 164 166 161T183 153T223
145T297 133Q365 123 405 108T465 74T492 32T498 -13Q498 -59 473 -96T402 -159T297 -199T167 -213ZM162 -196Q212 -196 246 -190T302 -174T332 -152T342 -128Q342 -116 336 -109T309 -95T253 -81T156 -63Q129 -58 112 -55T78 -52Q68 -52 55 -55T29 -66T8 -86T-1
-115Q-1 -139 13 -154T50 -179T102 -192T162 -196ZM477 574Q477 533 447 509T366 485Q316 485 286 509T255 573Q255 612 285 637T366 662Q416 662 446 638T477 574Z" />
<glyph unicode="&#x122;" glyph-name="Gcommaaccent" horiz-adv-x="760" d="M768 303Q757 301 745 299T721 290Q716 286 711 282T699 267Q687 245 677 202L632 15H624Q615 23 600 33T556 43Q542 43 527 39T498 30T472 20T453 12Q424 1 387 -7T309 -16Q253 -16
205 0T119 50T61 133T40 252Q40 327 70 402T159 536T305 633T508 670Q539 670 565 664T611 647T644 624T664 600H667L720 637H729L672 397H662Q660 451 652 497T628 576T584 629T516 649Q484 649 461 632T419 589Q403 566 387 525T355 434T325 329T300 222T283
127T277 57Q277 30 290 18T335 5Q352 5 366 9T393 23Q408 36 417 60T435 115L452 183Q463 225 463 247Q463 297 396 303L399 314H771L768 303ZM396 -134Q396 -171 377 -197T327 -243T255 -274T173 -295L170 -278Q220 -267 248 -254T277 -227Q277 -219 273 -215T256
-209Q242 -205 228 -199T203 -184T185 -161T178 -128Q178 -88 207 -65T285 -42Q333 -42 364 -65T396 -134Z" />
<glyph unicode="&#x123;" glyph-name="gcommaaccent" horiz-adv-x="557" d="M244 582Q244 619 263 645T315 691T387 723T469 744L472 728Q421 717 393 703T364 674Q364 666 368 662T385 656Q399 652 413 646T438 631T456 607T463 574Q463 535 434 512T356 489Q307
489 276 513T244 582ZM328 452Q318 452 310 446T296 422Q290 405 281 374T264 309T250 247T244 207Q244 183 262 183Q281 183 292 206Q298 220 307 252T326 320T341 386T347 425Q347 452 328 452ZM167 -213Q45 -213 -24 -187T-93 -111Q-93 -74 -52 -58T72 -38V-35Q56
-29 41 -21T13 -1T-6 27T-14 66Q-14 97 -1 119T35 155T88 177T154 187Q69 224 69 303Q69 346 91 377T150 430T231 461T324 471Q377 471 417 458T484 421H488Q489 454 512 479T574 505Q609 505 635 484T661 425Q661 393 641 379T598 365Q576 365 564 375T544 405Q537
424 536 438T524 452Q516 452 510 443T504 408Q504 400 506 393T512 377T518 355T521 326Q521 276 495 245T431 197T350 173T274 166Q235 166 213 172T176 179Q163 179 163 169Q163 164 166 161T183 153T223 145T297 133Q365 123 405 108T465 74T492 32T498 -13Q498
-59 473 -96T402 -159T297 -199T167 -213ZM162 -196Q212 -196 246 -190T302 -174T332 -152T342 -128Q342 -116 336 -109T309 -95T253 -81T156 -63Q129 -58 112 -55T78 -52Q68 -52 55 -55T29 -66T8 -86T-1 -115Q-1 -139 13 -154T50 -179T102 -192T162 -196Z" />
<glyph unicode="&#x124;" glyph-name="Hcircumflex" horiz-adv-x="834" d="M932 646Q924 645 914 644T892 639Q874 633 859 620T838 581L713 77Q710 63 710 55Q710 30 728 22T774 11L772 0H382L384 11L399 13Q408 15 416 19Q430 26 439 38T455 76L514 316H373L314
77Q312 66 311 59T309 41Q309 32 313 26T324 17T337 13T349 11L347 0H-41L-39 11Q-30 12 -19 13T4 19Q23 26 37 40T56 76L180 580Q183 593 183 606Q183 626 165 635T119 646L122 657H512L509 646Q503 645 495 644T478 638Q465 631 455 619T438 581L380 344H521L580
580Q585 598 585 612Q585 622 581 628T569 638T555 643T542 646L544 657H934L932 646ZM684 687L553 749L366 685L362 694L517 851H617L691 692L684 687Z" />
<glyph unicode="&#x125;" glyph-name="hcircumflex" horiz-adv-x="673" d="M169 570Q175 588 182 612T189 649Q189 662 180 666T151 673L155 684H439Q446 684 446 679Q446 674 443 665T434 641Q426 617 416 586T394 521T371 453T349 387T330 331T316 289H320Q345
350 373 386T430 441T487 465T542 471Q593 471 622 443T651 361Q651 327 638 289T597 191Q585 164 577 146T565 115T559 94T557 79Q557 63 573 63Q585 63 608 79T655 130L667 122Q648 92 620 68T559 26T489 0T415 -9Q371 -9 346 12T320 71Q320 99 334 137T372 231L411
321Q424 351 424 368Q424 386 410 386Q392 386 357 330T276 143L227 0H-18L169 570ZM620 711L489 773L302 709L298 718L453 875H553L627 716L620 711Z" />
<glyph unicode="&#x126;" glyph-name="Hbar" horiz-adv-x="834" d="M347 0H-41L-39 11Q-30 12 -19 13T4 19Q23 26 37 40T56 76L149 456H71L78 484H156L180 580Q183 593 183 606Q183 626 165 635T119 646L122 657H512L509 646Q503 645 495 644T478 638Q465 631
455 619T438 581L414 484H556L580 580Q585 598 585 612Q585 622 581 628T569 638T555 643T542 646L544 657H934L932 646Q924 645 914 644T892 639Q874 633 859 620T838 581L814 484H890L883 456H807L713 77Q710 63 710 55Q710 30 728 22T774 11L772 0H382L384 11L399
13Q408 15 416 19Q430 26 439 38T455 76L514 316H373L314 77Q312 66 311 59T309 41Q309 32 313 26T324 17T337 13T349 11L347 0ZM521 344L549 456H407L380 344H521Z" />
<glyph unicode="&#x127;" glyph-name="hbar" horiz-adv-x="673" d="M667 122Q648 92 620 68T559 26T489 0T415 -9Q371 -9 346 12T320 71Q320 99 334 137T372 231L411 321Q424 351 424 368Q424 386 410 386Q392 386 357 330T276 143L227 0H-18L166 560H94L102 585H174Q179
602 184 620T189 649Q189 662 180 666T151 673L155 684H439Q446 684 446 679Q446 674 443 665T434 641Q430 629 425 615T415 585H495L486 560H407Q395 523 382 483T356 405T333 338T316 289H320Q345 350 373 386T430 441T487 465T542 471Q593 471 622 443T651 361Q651
327 638 289T597 191Q585 164 577 146T565 115T559 94T557 79Q557 63 573 63Q585 63 608 79T655 130L667 122Z" />
<glyph unicode="&#x128;" glyph-name="Itilde" horiz-adv-x="435" d="M533 646Q525 645 514 644T491 639Q473 634 459 620T438 580L314 77Q312 72 312 67T311 53Q311 30 328 23T375 11L373 0H-41L-39 11Q-30 12 -20 13T3 18Q22 24 34 36T55 77L180 580Q182 588
182 593T183 607Q183 618 176 625T159 637T138 643T119 646L121 657H535L533 646ZM549 857Q541 824 529 796T500 746T459 713T400 701Q385 701 366 705T326 713T285 722T250 726Q226 726 208 717T177 685L163 687Q179 759 219 798T312 838Q329 838 346 835T381
827T418 819T462 815Q487 815 505 825T535 862L549 857Z" />
<glyph unicode="&#x129;" glyph-name="itilde" horiz-adv-x="377" d="M132 383Q132 402 117 402Q101 402 76 381T30 326L16 335Q61 404 119 437T250 471Q300 471 329 448T358 383Q358 354 344 315T307 216Q287 165 275 132T263 82Q263 73 268 68T280 63Q292 63
314 79T357 128L369 120Q333 59 268 25T127 -9Q84 -9 56 12T28 77Q28 108 42 147T82 244Q89 260 98 281T114 321T127 357T132 383ZM471 651Q461 618 449 591T421 543T382 512T330 500Q308 500 289 505T252 517T217 528T183 534Q165 534 150 526T123 491L107 494Q117
526 129 553T159 601T200 632T253 644Q271 644 289 639T324 627T358 616T389 610Q409 610 426 619T455 656L471 651Z" />
<glyph unicode="&#x12a;" glyph-name="Imacron" horiz-adv-x="435" d="M533 646Q525 645 514 644T491 639Q473 634 459 620T438 580L314 77Q312 72 312 67T311 53Q311 30 328 23T375 11L373 0H-41L-39 11Q-30 12 -20 13T3 18Q22 24 34 36T55 77L180 580Q182 588
182 593T183 607Q183 618 176 625T159 637T138 643T119 646L121 657H535L533 646ZM185 698L207 783H508L486 698H185Z" />
<glyph unicode="&#x12b;" glyph-name="imacron" horiz-adv-x="377" d="M112 518L133 603H426L404 518H112ZM132 383Q132 402 117 402Q101 402 76 381T30 326L16 335Q61 404 119 437T250 471Q300 471 329 448T358 383Q358 354 344 315T307 216Q287 165 275 132T263
82Q263 73 268 68T280 63Q292 63 314 79T357 128L369 120Q333 59 268 25T127 -9Q84 -9 56 12T28 77Q28 108 42 147T82 244Q89 260 98 281T114 321T127 357T132 383Z" />
<glyph unicode="&#x12c;" glyph-name="Ibreve" horiz-adv-x="435" d="M533 646Q525 645 514 644T491 639Q473 634 459 620T438 580L314 77Q312 72 312 67T311 53Q311 30 328 23T375 11L373 0H-41L-39 11Q-30 12 -20 13T3 18Q22 24 34 36T55 77L180 580Q182 588
182 593T183 607Q183 618 176 625T159 637T138 643T119 646L121 657H535L533 646ZM225 853Q240 821 267 807T344 793Q396 793 437 807T503 853L513 847Q498 772 454 729T342 685Q307 685 283 695T242 724T218 766T210 818V834Q210 843 212 851L225 853Z" />
<glyph unicode="&#x12d;" glyph-name="ibreve" horiz-adv-x="377" d="M132 383Q132 402 117 402Q101 402 76 381T30 326L16 335Q61 404 119 437T250 471Q300 471 329 448T358 383Q358 354 344 315T307 216Q287 165 275 132T263 82Q263 73 268 68T280 63Q292 63
314 79T357 128L369 120Q333 59 268 25T127 -9Q84 -9 56 12T28 77Q28 108 42 147T82 244Q89 260 98 281T114 321T127 357T132 383ZM423 658Q434 626 460 611T534 595Q553 595 573 599T613 612T649 632T678 659L688 653Q668 569 624 531T518 493Q462 493 435 528T407
620Q407 625 407 635T410 654L423 658Z" />
<glyph unicode="&#x12e;" glyph-name="Iogonek" horiz-adv-x="435" d="M533 646Q525 645 514 644T491 639Q473 634 459 620T438 580L314 77Q312 72 312 67T311 53Q311 30 328 23T375 11L373 0H-41L-39 11Q-30 12 -20 13T3 18Q22 24 34 36T55 77L180 580Q182 588
182 593T183 607Q183 618 176 625T159 637T138 643T119 646L121 657H535L533 646ZM14 -130Q14 -107 32 -90T85 -57T168 -27T276 6H297Q278 -7 258 -23T222 -57T195 -96T184 -141Q184 -171 200 -185T243 -202L240 -212Q177 -215 134 -210T65 -194T26 -167T14 -130Z"
/>
<glyph unicode="&#x12f;" glyph-name="iogonek" horiz-adv-x="377" d="M419 580Q419 536 387 511T300 485Q246 485 215 511T183 580Q183 622 215 648T302 674Q358 674 388 648T419 580ZM369 120Q352 91 331 71T289 38T250 16T220 1Q201 -10 182 -26T148 -62T123
-104T113 -147Q113 -177 129 -191T172 -208L169 -218Q108 -221 65 -217T-5 -201T-44 -173T-57 -136Q-57 -115 -39 -98T11 -66T87 -37T184 -4Q170 -7 153 -8T127 -9Q84 -9 56 12T28 77Q28 108 42 147T82 244Q89 260 98 281T114 321T127 357T132 383Q132 402 117
402Q101 402 76 381T30 326L16 335Q61 404 119 437T250 471Q300 471 329 448T358 383Q358 354 344 315T307 216Q287 165 275 132T263 82Q263 73 268 68T280 63Q292 63 314 79T357 128L369 120Z" />
<glyph unicode="&#x130;" glyph-name="Idotaccent" horiz-adv-x="435" d="M533 646Q525 645 514 644T491 639Q473 634 459 620T438 580L314 77Q312 72 312 67T311 53Q311 30 328 23T375 11L373 0H-41L-39 11Q-30 12 -20 13T3 18Q22 24 34 36T55 77L180 580Q182
588 182 593T183 607Q183 618 176 625T159 637T138 643T119 646L121 657H535L533 646ZM236 781Q236 821 266 845T348 870Q400 870 430 845T460 781Q460 740 431 715T348 690Q296 690 266 715T236 781Z" />
<glyph unicode="&#x131;" glyph-name="dotlessi" horiz-adv-x="377" d="M132 383Q132 402 117 402Q101 402 76 381T30 326L16 335Q61 404 119 437T250 471Q300 471 329 448T358 383Q358 354 344 315T307 216Q287 165 275 132T263 82Q263 73 268 68T280 63Q292
63 314 79T357 128L369 120Q333 59 268 25T127 -9Q84 -9 56 12T28 77Q28 108 42 147T82 244Q89 260 98 281T114 321T127 357T132 383Z" />
<glyph unicode="&#x132;" glyph-name="IJ" horiz-adv-x="1023" d="M533 646Q525 645 514 644T491 639Q473 634 459 620T438 580L314 77Q312 72 312 67T311 53Q311 30 328 23T375 11L373 0H-41L-39 11Q-30 12 -20 13T3 18Q22 24 34 36T55 77L180 580Q182 588 182
593T183 607Q183 618 176 625T159 637T138 643T119 646L121 657H535L533 646ZM1132 646Q1124 645 1112 644T1088 638Q1068 631 1055 621T1034 581L949 237Q929 159 890 110T800 34T694 -4T590 -14Q529 -14 487 2T419 42T381 95T369 150Q369 205 402 242T496 279Q544
279 576 251T609 170Q609 136 598 115T566 75Q555 64 548 56T540 36Q540 9 579 9Q598 9 611 19T632 48Q639 63 646 85T663 145L771 580Q773 590 773 601Q773 624 755 634T707 646L709 657H1134L1132 646Z" />
<glyph unicode="&#x133;" glyph-name="ij" horiz-adv-x="743" d="M419 580Q419 536 387 511T300 485Q246 485 215 511T183 580Q183 622 215 648T302 674Q358 674 388 648T419 580ZM132 383Q132 402 117 402Q101 402 76 381T30 326L16 335Q61 404 119 437T250 471Q300
471 329 448T358 383Q358 354 344 315T307 216Q287 165 275 132T263 82Q263 73 268 68T280 63Q292 63 314 79T357 128L369 120Q333 59 268 25T127 -9Q84 -9 56 12T28 77Q28 108 42 147T82 244Q89 260 98 281T114 321T127 357T132 383ZM783 580Q783 536 751 511T664
485Q610 485 579 511T547 580Q547 622 579 648T666 674Q722 674 752 648T783 580ZM651 118Q612 28 574 -30T497 -121Q455 -157 388 -185T238 -213Q162 -213 122 -183T82 -105Q82 -72 108 -45T180 -18Q223 -18 247 -42T272 -100Q272 -121 263 -137T242 -165Q237
-170 234 -173T230 -182Q230 -193 246 -193Q260 -193 274 -186T305 -152Q313 -139 326 -109T354 -39T385 45T416 129T442 202T459 251Q465 266 472 285T487 322T500 357T505 383Q505 402 490 402Q473 402 448 381T403 326L389 335Q432 404 492 437T624 471Q678
471 705 446T732 376Q732 331 712 271T651 118Z" />
<glyph unicode="&#x134;" glyph-name="Jcircumflex" horiz-adv-x="656" d="M709 687L578 749L391 685L387 694L542 851H642L716 692L709 687ZM765 646Q757 645 745 644T721 638Q701 631 688 621T667 581L582 237Q562 159 523 110T433 34T327 -4T223 -14Q162 -14
120 2T52 42T14 95T2 150Q2 205 35 242T129 279Q177 279 209 251T242 170Q242 136 231 115T199 75Q188 64 181 56T173 36Q173 9 212 9Q231 9 244 19T265 48Q272 63 279 85T296 145L404 580Q406 590 406 601Q406 624 388 634T340 646L342 657H767L765 646Z" />
<glyph unicode="&#x135;" glyph-name="jcircumflex" horiz-adv-x="387" d="M295 118Q256 28 218 -30T141 -121Q99 -157 32 -185T-118 -213Q-194 -213 -234 -183T-274 -105Q-274 -72 -248 -45T-176 -18Q-133 -18 -109 -42T-84 -100Q-84 -121 -93 -137T-114 -165Q-119
-170 -122 -173T-126 -182Q-126 -193 -110 -193Q-96 -193 -82 -186T-51 -152Q-43 -139 -30 -109T-2 -39T29 45T60 129T86 202T103 251Q109 266 116 285T131 322T144 357T149 383Q149 402 134 402Q117 402 92 381T47 326L33 335Q76 404 136 437T268 471Q322 471
349 446T376 376Q376 331 356 271T295 118ZM415 485L301 565L125 485L119 494L265 668H365L425 491L415 485Z" />
<glyph unicode="&#x136;" glyph-name="Kcommaaccent" horiz-adv-x="808" d="M592 -12Q548 -12 518 -1T470 29T442 72T432 121Q431 142 431 165T432 211T434 254T435 288Q435 305 428 310T411 316Q391 316 368 296L314 77Q311 65 311 52Q311 33 326 23T374 11L372
0H-41L-39 11Q-30 12 -20 13T3 18Q23 24 36 36T56 76L180 580Q183 590 183 601Q183 623 169 633T119 646L122 657H536L533 646Q525 645 514 644T491 639Q473 634 460 622T439 581L376 328L566 513Q589 535 602 551T623 578T632 597T634 610Q634 622 628 628T613
638Q606 641 597 642T577 646L579 657H832L830 646Q813 642 785 635T732 614Q709 602 685 587T624 535L465 383V380Q473 384 488 387T523 390Q579 390 611 371T660 320T682 249T689 170Q690 139 693 120T701 91T713 76T731 72Q751 72 763 85T790 122L800 116Q794
101 781 80T743 38T681 3T592 -12ZM439 -134Q439 -171 420 -197T370 -243T298 -274T216 -295L213 -278Q263 -267 291 -254T320 -227Q320 -219 316 -215T299 -209Q285 -205 271 -199T246 -184T228 -161T221 -128Q221 -88 250 -65T328 -42Q376 -42 407 -65T439 -134Z"
/>
<glyph unicode="&#x137;" glyph-name="kcommaaccent" horiz-adv-x="693" d="M438 684Q444 684 444 681Q444 677 440 667T432 645Q423 620 416 601T400 553L315 283H324Q349 283 367 289T400 307T424 332T444 363Q461 392 472 410T498 442Q510 454 528 462T569
470Q624 470 655 441T686 369Q686 343 678 324T657 293T626 274T589 267Q553 267 526 286T499 348Q499 372 512 393Q521 407 527 415T533 428Q533 434 526 434Q513 434 500 416T464 360Q450 336 431 311T380 275V271Q465 269 512 239T567 134L571 94Q572 84 575
77Q578 69 592 69Q609 69 632 89T675 138L687 130Q668 100 642 74T584 30T515 0T437 -11Q389 -11 356 11T322 88Q322 103 325 120T339 171Q346 191 353 210T360 244Q360 253 355 259T334 265H309L226 0H-18L169 570Q175 588 182 612T189 649Q189 662 180 666T151
673L155 684H438ZM370 -120Q370 -157 351 -183T301 -229T229 -260T147 -281L144 -264Q194 -253 222 -240T251 -213Q251 -205 247 -201T230 -195Q216 -191 202 -185T177 -170T159 -147T152 -114Q152 -74 181 -51T259 -28Q307 -28 338 -51T370 -120Z" />
<glyph unicode="&#x139;" glyph-name="Lacute" horiz-adv-x="685" d="M242 694L370 813Q387 829 409 841T458 854Q496 854 513 833T531 785Q531 744 505 725T432 701L245 683L242 694ZM-39 11Q-29 12 -18 14T1 18Q33 25 53 51Q69 74 79 111T105 209L162 446Q175
497 183 537T191 600Q191 617 180 626T154 640Q146 642 138 643T122 646L124 657H568L566 646Q555 644 547 643T530 640Q514 635 501 627T476 601Q462 578 449 541T421 447L354 171Q345 134 338 105T331 59Q331 39 342 30T373 21H391Q404 21 421 29T461 58Q520
111 566 168T648 278H659L597 0H-41L-39 11Z" />
<glyph unicode="&#x13a;" glyph-name="lacute" horiz-adv-x="352" d="M492 819Q492 778 465 759T392 735Q339 730 299 726Q281 724 265 723T235 720Q220 718 206 717L202 727L212 736Q222 745 236 758T267 788T298 817T322 840L332 849Q349 865 370 877T418 889Q455
889 473 868T492 819ZM288 232Q280 209 272 186T258 141T247 104T242 81Q242 63 259 63Q270 63 292 78T335 127L347 119Q314 62 252 27T110 -9Q61 -9 36 12T11 72Q11 88 14 106T25 149L43 205Q53 237 67 279L161 570Q168 591 173 607T178 641Q178 663 166 668T139
673L143 684H429Q435 684 435 680Q435 676 433 670T424 646Q417 627 409 603L393 555L288 232Z" />
<glyph unicode="&#x13b;" glyph-name="Lcommaaccent" horiz-adv-x="685" d="M-39 11Q-29 12 -18 14T1 18Q33 25 53 51Q69 74 79 111T105 209L162 446Q175 497 183 537T191 600Q191 617 180 626T154 640Q146 642 138 643T122 646L124 657H568L566 646Q555 644 547
643T530 640Q514 635 501 627T476 601Q462 578 449 541T421 447L354 171Q345 134 338 105T331 59Q331 39 342 30T373 21H391Q404 21 421 29T461 58Q520 111 566 168T648 278H659L597 0H-41L-39 11ZM387 -134Q387 -171 368 -197T318 -243T246 -274T164 -295L161
-278Q211 -267 239 -254T268 -227Q268 -219 264 -215T247 -209Q233 -205 219 -199T194 -184T176 -161T169 -128Q169 -88 198 -65T276 -42Q324 -42 355 -65T387 -134Z" />
<glyph unicode="&#x13c;" glyph-name="lcommaaccent" horiz-adv-x="352" d="M288 232Q280 209 272 186T258 141T247 104T242 81Q242 63 259 63Q270 63 292 78T335 127L347 119Q314 62 252 27T110 -9Q61 -9 36 12T11 72Q11 88 14 106T25 149L43 205Q53 237 67 279L161
570Q168 591 173 607T178 641Q178 663 166 668T139 673L143 684H429Q435 684 435 680Q435 676 433 670T424 646Q417 627 409 603L393 555L288 232ZM466 -120Q466 -157 447 -183T397 -229T325 -260T243 -281L240 -264Q290 -253 318 -240T347 -213Q347 -205 343 -201T326
-195Q312 -191 298 -185T273 -170T255 -147T248 -114Q248 -74 277 -51T355 -28Q403 -28 434 -51T466 -120Z" />
<glyph unicode="&#x13d;" glyph-name="Lcaron" horiz-adv-x="685" d="M602 658H743Q705 616 661 571T570 481H552L602 658ZM-39 11Q-29 12 -18 14T1 18Q33 25 53 51Q69 74 79 111T105 209L162 446Q175 497 183 537T191 600Q191 617 180 626T154 640Q146 642 138
643T122 646L124 657H568L566 646Q555 644 547 643T530 640Q514 635 501 627T476 601Q462 578 449 541T421 447L354 171Q345 134 338 105T331 59Q331 39 342 30T373 21H391Q404 21 421 29T461 58Q520 111 566 168T648 278H659L597 0H-41L-39 11Z" />
<glyph unicode="&#x13e;" glyph-name="lcaron" horiz-adv-x="352" d="M471 684H612Q574 642 530 597T439 507H421L471 684ZM288 232Q280 209 272 186T258 141T247 104T242 81Q242 63 259 63Q270 63 292 78T335 127L347 119Q314 62 252 27T110 -9Q61 -9 36 12T11
72Q11 88 14 106T25 149L43 205Q53 237 67 279L161 570Q168 591 173 607T178 641Q178 663 166 668T139 673L143 684H429Q435 684 435 680Q435 676 433 670T424 646Q417 627 409 603L393 555L288 232Z" />
<glyph unicode="&#x13f;" glyph-name="Ldot" horiz-adv-x="687" d="M522 378Q522 416 547 442T617 469Q663 469 687 442T711 378Q711 339 687 312T618 285Q571 285 547 312T522 378ZM-39 11Q-29 12 -18 14T1 18Q33 25 53 51Q69 74 79 111T105 209L162 446Q175
497 183 537T191 600Q191 617 180 626T154 640Q146 642 138 643T122 646L124 657H568L566 646Q555 644 547 643T530 640Q514 635 501 627T476 601Q462 578 449 541T421 447L354 171Q345 134 338 105T331 59Q331 39 342 30T373 21H391Q404 21 423 29T465 58Q494
84 518 107T562 153T601 196T639 238H650L597 0H-41L-39 11Z" />
<glyph unicode="&#x140;" glyph-name="ldot" horiz-adv-x="544" d="M568 309Q568 271 541 246T466 220Q418 220 392 246T365 309Q365 345 392 371T468 398Q517 398 542 371T568 309ZM288 232Q280 209 272 186T258 141T247 104T242 81Q242 63 259 63Q270 63 292
78T335 127L347 119Q314 62 252 27T110 -9Q61 -9 36 12T11 72Q11 88 14 106T25 149L43 205Q53 237 67 279L161 570Q168 591 173 607T178 641Q178 663 166 668T139 673L143 684H429Q435 684 435 680Q435 676 433 670T424 646Q417 627 409 603L393 555L288 232Z"
/>
<glyph unicode="&#x141;" glyph-name="Lslash" horiz-adv-x="685" d="M-41 0L-39 11Q-29 12 -18 14T1 18Q33 25 53 51Q69 74 79 111T105 209L112 238L35 213L41 239L118 264L162 446Q175 497 183 537T191 600Q191 617 180 626T154 640Q146 642 138 643T122 646L124
657H568L566 646Q555 644 547 643T530 640Q514 635 501 627T476 601Q462 578 449 541T421 447L398 354L576 411L569 385L392 328L354 171Q345 134 338 105T331 59Q331 39 342 30T373 21H391Q404 21 421 29T461 58Q520 111 566 168T648 278H659L597 0H-41Z" />
<glyph unicode="&#x142;" glyph-name="lslash" horiz-adv-x="352" d="M110 -9Q61 -9 36 12T11 72Q11 88 14 106T25 149L43 205Q53 237 67 279L80 319L7 294L13 318L88 343L161 570Q168 591 173 607T178 641Q178 663 166 668T139 673L143 684H429Q435 684 435 680Q435
676 433 670T424 646Q417 627 409 603L393 555L353 432L432 459L426 436L345 409L288 232Q280 209 272 186T258 141T247 104T242 81Q242 63 259 63Q270 63 292 78T335 127L347 119Q314 62 252 27T110 -9Z" />
<glyph unicode="&#x143;" glyph-name="Nacute" horiz-adv-x="691" d="M370 694L498 813Q515 829 537 841T586 854Q624 854 641 833T659 785Q659 744 633 725T560 701L373 683L370 694ZM798 646Q787 645 776 644T757 640Q741 635 728 626T703 599Q691 582 680 557T658
487L540 -10H484L213 519H207L121 169Q112 133 109 111T105 70Q105 53 114 38T143 17Q151 15 162 14T181 11L179 0H-41L-39 11Q-30 12 -20 13T-2 17Q15 22 28 30T53 57Q64 74 74 97T96 169L171 474Q182 516 183 537T179 579Q175 599 166 613T138 636Q129 640 120
642T101 646L103 657H413L589 316H592L635 491Q643 525 646 545T650 583Q650 601 641 617T612 640Q599 644 580 646L582 657H800L798 646Z" />
<glyph unicode="&#x144;" glyph-name="nacute" horiz-adv-x="691" d="M625 604Q624 571 599 552T533 525L361 494L357 503L462 633Q478 652 499 667T552 682Q590 680 608 657T625 604ZM686 122Q667 92 639 68T578 26T508 0T434 -9Q390 -9 365 12T339 71Q339 99
353 137T391 231L430 321Q443 351 443 368Q443 386 429 386Q420 386 407 374T377 332T339 255T292 134Q281 102 270 69T246 0H8Q18 32 32 75T61 159T86 235T102 283Q113 316 119 337T125 378Q125 405 105 405Q88 405 67 381T29 325L15 334Q35 368 56 393T103 436T160
462T230 471Q282 471 312 446T343 372Q343 360 341 340T329 276H332Q358 341 387 379T446 438T504 465T555 471Q670 471 670 362Q670 328 657 289T616 190Q604 163 596 145T584 114T578 93T576 78Q576 63 592 63Q604 63 627 79T674 130L686 122Z" />
<glyph unicode="&#x145;" glyph-name="Ncommaaccent" horiz-adv-x="691" d="M798 646Q787 645 776 644T757 640Q741 635 728 626T703 599Q691 582 680 557T658 487L540 -10H484L213 519H207L121 169Q112 133 109 111T105 70Q105 53 114 38T143 17Q151 15 162 14T181
11L179 0H-41L-39 11Q-30 12 -20 13T-2 17Q15 22 28 30T53 57Q64 74 74 97T96 169L171 474Q182 516 183 537T179 579Q175 599 166 613T138 636Q129 640 120 642T101 646L103 657H413L589 316H592L635 491Q643 525 646 545T650 583Q650 601 641 617T612 640Q599
644 580 646L582 657H800L798 646ZM366 -134Q366 -171 347 -197T297 -243T225 -274T143 -295L140 -278Q190 -267 218 -254T247 -227Q247 -219 243 -215T226 -209Q212 -205 198 -199T173 -184T155 -161T148 -128Q148 -88 177 -65T255 -42Q303 -42 334 -65T366 -134Z"
/>
<glyph unicode="&#x146;" glyph-name="ncommaaccent" horiz-adv-x="691" d="M686 122Q667 92 639 68T578 26T508 0T434 -9Q390 -9 365 12T339 71Q339 99 353 137T391 231L430 321Q443 351 443 368Q443 386 429 386Q420 386 407 374T377 332T339 255T292 134Q281
102 270 69T246 0H8Q18 32 32 75T61 159T86 235T102 283Q113 316 119 337T125 378Q125 405 105 405Q88 405 67 381T29 325L15 334Q35 368 56 393T103 436T160 462T230 471Q282 471 312 446T343 372Q343 360 341 340T329 276H332Q358 341 387 379T446 438T504 465T555
471Q670 471 670 362Q670 328 657 289T616 190Q604 163 596 145T584 114T578 93T576 78Q576 63 592 63Q604 63 627 79T674 130L686 122ZM407 -120Q407 -157 388 -183T338 -229T266 -260T184 -281L181 -264Q231 -253 259 -240T288 -213Q288 -205 284 -201T267 -195Q253
-191 239 -185T214 -170T196 -147T189 -114Q189 -74 218 -51T296 -28Q344 -28 375 -51T407 -120Z" />
<glyph unicode="&#x147;" glyph-name="Ncaron" horiz-adv-x="691" d="M371 858L502 794L689 860L693 851L541 694H441L364 853L371 858ZM798 646Q787 645 776 644T757 640Q741 635 728 626T703 599Q691 582 680 557T658 487L540 -10H484L213 519H207L121 169Q112
133 109 111T105 70Q105 53 114 38T143 17Q151 15 162 14T181 11L179 0H-41L-39 11Q-30 12 -20 13T-2 17Q15 22 28 30T53 57Q64 74 74 97T96 169L171 474Q182 516 183 537T179 579Q175 599 166 613T138 636Q129 640 120 642T101 646L103 657H413L589 316H592L635
491Q643 525 646 545T650 583Q650 601 641 617T612 640Q599 644 580 646L582 657H800L798 646Z" />
<glyph unicode="&#x148;" glyph-name="ncaron" horiz-adv-x="691" d="M315 678L429 598L605 678L611 669L465 495H365L305 672L315 678ZM686 122Q667 92 639 68T578 26T508 0T434 -9Q390 -9 365 12T339 71Q339 99 353 137T391 231L430 321Q443 351 443 368Q443
386 429 386Q420 386 407 374T377 332T339 255T292 134Q281 102 270 69T246 0H8Q18 32 32 75T61 159T86 235T102 283Q113 316 119 337T125 378Q125 405 105 405Q88 405 67 381T29 325L15 334Q35 368 56 393T103 436T160 462T230 471Q282 471 312 446T343 372Q343
360 341 340T329 276H332Q358 341 387 379T446 438T504 465T555 471Q670 471 670 362Q670 328 657 289T616 190Q604 163 596 145T584 114T578 93T576 78Q576 63 592 63Q604 63 627 79T674 130L686 122Z" />
<glyph unicode="&#x149;" glyph-name="napostrophe" horiz-adv-x="811" d="M250 630Q317 649 354 667T391 711Q391 718 386 721T367 727Q311 740 292 765T272 823Q272 848 282 866T308 896T344 913T387 919Q437 919 469 889T501 808Q501 766 483 736T432 683T354
644T256 614L250 630ZM806 122Q787 92 759 68T698 26T628 0T554 -9Q510 -9 485 12T459 71Q459 99 473 137T511 231L550 321Q563 351 563 368Q563 386 549 386Q540 386 527 374T497 332T459 255T412 134Q401 102 390 69T366 0H128Q138 32 152 75T181 159T206 235T222
283Q233 316 239 337T245 378Q245 405 225 405Q208 405 187 381T149 325L135 334Q155 368 176 393T223 436T280 462T350 471Q402 471 432 446T463 372Q463 360 461 340T449 276H452Q478 341 507 379T566 438T624 465T675 471Q790 471 790 362Q790 328 777 289T736
190Q724 163 716 145T704 114T698 93T696 78Q696 63 712 63Q724 63 747 79T794 130L806 122Z" />
<glyph unicode="&#x14a;" glyph-name="Eng" horiz-adv-x="691" d="M383 -208Q335 -208 300 -193T243 -154T210 -102T199 -46Q199 -19 207 5T232 47T273 76T329 87Q352 87 373 79T411 56T437 20T447 -26Q447 -60 432 -84T397 -129Q384 -142 376 -148T368 -168Q368
-174 373 -179T388 -184Q408 -184 426 -175T459 -149T485 -110T503 -63L509 -40L213 519H207L121 169Q112 133 109 111T105 70Q105 53 114 38T143 17Q151 15 162 14T181 11L179 0H-41L-39 11Q-30 12 -20 13T-2 17Q15 22 28 30T53 57Q64 74 74 97T96 169L171 474Q182
516 183 537T179 579Q175 599 166 613T138 636Q129 640 120 642T101 646L103 657H413L592 328H595L635 491Q643 525 646 545T650 583Q650 601 641 617T612 640Q599 644 580 646L582 657H800L798 646Q787 645 776 644T757 640Q741 635 728 626T703 599Q691 582 680
557T658 487L526 -69Q509 -141 470 -174T383 -208Z" />
<glyph unicode="&#x14b;" glyph-name="eng" horiz-adv-x="681" d="M443 367Q443 386 429 386Q420 386 407 374T377 332T339 255T292 134Q280 102 269 69L246 0H8L102 283Q113 316 119 337T125 378Q125 405 105 405Q88 405 67 381T29 325L15 334Q34 367 55 392T102
435T159 462T230 471Q282 471 312 446T343 372Q343 360 341 338T329 276H332Q358 341 387 379T446 438T504 465T555 471Q612 471 641 443T670 362Q670 333 657 289T620 186Q594 124 572 78T530 -4T487 -67T439 -118Q419 -136 393 -153T336 -184T271 -206T199 -214Q111
-214 64 -181T16 -99Q16 -64 42 -40T121 -15Q148 -15 167 -22T199 -40T217 -66T223 -94Q223 -121 212 -136T183 -163Q173 -169 170 -172T167 -180Q167 -186 175 -190T195 -194Q208 -194 222 -187T253 -152Q260 -139 271 -112T296 -49T323 25T350 101T373 167T390
214Q412 274 427 312T443 367Z" />
<glyph unicode="&#x14c;" glyph-name="Omacron" horiz-adv-x="770" d="M346 698L368 783H669L647 698H346ZM778 374Q778 268 728 183T587 44Q561 28 531 17T470 -1T409 -11T354 -14Q285 -14 229 7T132 66T69 159T47 282Q47 328 58 373T92 461T152 542T241 611Q269
627 299 638T360 657T420 667T475 670Q543 670 599 647T694 583T756 489T778 374ZM538 599Q538 619 526 634T490 650Q461 650 446 635T421 600Q406 570 391 523T360 423T332 312T308 205T291 116T285 57Q285 35 296 20T332 5Q364 5 379 22T407 67Q421 99 436 145T465
242T493 346T516 448T532 536T538 599Z" />
<glyph unicode="&#x14d;" glyph-name="omacron" horiz-adv-x="609" d="M259 518L280 603H543L522 518H259ZM353 471Q406 471 452 456T532 413T586 346T606 259Q606 199 577 149T503 64Q460 31 399 10T271 -11Q215 -11 168 5T88 50T35 120T17 209Q19 269 46 315T116
394Q161 428 221 449T353 471ZM372 454Q361 454 352 446T331 413Q324 397 314 367T292 300T269 222T249 145T235 79T229 36Q229 6 251 6Q265 6 274 12T292 37Q301 57 312 90T335 161T358 240T377 317T391 382T396 426Q396 454 372 454Z" />
<glyph unicode="&#x14e;" glyph-name="Obreve" horiz-adv-x="770" d="M385 853Q400 821 427 807T504 793Q556 793 597 807T663 853L673 847Q658 772 614 729T502 685Q467 685 443 695T402 724T378 766T370 818V834Q370 843 372 851L385 853ZM778 374Q778 268 728
183T587 44Q561 28 531 17T470 -1T409 -11T354 -14Q285 -14 229 7T132 66T69 159T47 282Q47 328 58 373T92 461T152 542T241 611Q269 627 299 638T360 657T420 667T475 670Q543 670 599 647T694 583T756 489T778 374ZM538 599Q538 619 526 634T490 650Q461 650
446 635T421 600Q406 570 391 523T360 423T332 312T308 205T291 116T285 57Q285 35 296 20T332 5Q364 5 379 22T407 67Q421 99 436 145T465 242T493 346T516 448T532 536T538 599Z" />
<glyph unicode="&#x14f;" glyph-name="obreve" horiz-adv-x="609" d="M353 471Q406 471 452 456T532 413T586 346T606 259Q606 199 577 149T503 64Q460 31 399 10T271 -11Q215 -11 168 5T88 50T35 120T17 209Q19 269 46 315T116 394Q161 428 221 449T353 471ZM372
454Q361 454 352 446T331 413Q324 397 314 367T292 300T269 222T249 145T235 79T229 36Q229 6 251 6Q265 6 274 12T292 37Q301 57 312 90T335 161T358 240T377 317T391 382T396 426Q396 454 372 454ZM294 658Q305 626 331 611T405 595Q424 595 444 599T484 612T520
632T549 659L559 653Q539 569 495 531T389 493Q333 493 306 528T278 620Q278 625 278 635T281 654L294 658Z" />
<glyph unicode="&#x150;" glyph-name="Ohungarumlaut" horiz-adv-x="770" d="M565 825Q565 801 549 782T503 751L357 695H345L425 832Q439 856 456 870T501 885Q533 886 549 868T565 825ZM764 825Q764 776 701 751L555 695H543L624 832Q638 856 655 870T700 885Q732
886 748 868T764 825ZM778 374Q778 268 728 183T587 44Q561 28 531 17T470 -1T409 -11T354 -14Q285 -14 229 7T132 66T69 159T47 282Q47 328 58 373T92 461T152 542T241 611Q269 627 299 638T360 657T420 667T475 670Q543 670 599 647T694 583T756 489T778 374ZM538
599Q538 619 526 634T490 650Q461 650 446 635T421 600Q406 570 391 523T360 423T332 312T308 205T291 116T285 57Q285 35 296 20T332 5Q364 5 379 22T407 67Q421 99 436 145T465 242T493 346T516 448T532 536T538 599Z" />
<glyph unicode="&#x151;" glyph-name="ohungarumlaut" horiz-adv-x="609" d="M365 681Q397 681 417 663T438 613Q439 582 419 560T366 526L236 483L228 489L277 602Q283 615 290 629T307 654T332 673T365 681ZM573 681Q605 681 625 663T646 613Q647 581 627 559T574
526L444 483L436 489L485 602Q491 615 498 629T516 655T540 673T573 681ZM353 471Q406 471 452 456T532 413T586 346T606 259Q606 199 577 149T503 64Q460 31 399 10T271 -11Q215 -11 168 5T88 50T35 120T17 209Q19 269 46 315T116 394Q161 428 221 449T353 471ZM372
454Q361 454 352 446T331 413Q324 397 314 367T292 300T269 222T249 145T235 79T229 36Q229 6 251 6Q265 6 274 12T292 37Q301 57 312 90T335 161T358 240T377 317T391 382T396 426Q396 454 372 454Z" />
<glyph unicode="&#x152;" glyph-name="OE" horiz-adv-x="1052" d="M483 638Q457 638 440 612Q424 588 407 546T373 452T341 344T315 236T296 143T289 79Q289 47 302 34T336 20Q365 20 380 33T405 74Q413 99 425 140T451 231T478 334T502 436T519 525T526 590Q526
613 516 625T483 638ZM352 0Q283 0 227 20T131 78T69 167T47 283Q47 358 78 426T165 545T301 627T477 657H1058L1042 400H1031Q1023 419 1013 442T993 489T971 537T948 581Q930 613 912 624T861 635H843Q821 635 813 628T799 594L739 352H754Q779 352 797 359T836
384Q862 404 882 427T920 479H931L862 198H858Q853 228 845 251T820 300Q808 319 791 324T748 330H734L669 69Q664 46 673 34T715 22H732Q748 22 761 23T786 30T811 45T841 72Q862 93 884 118T930 171T975 227T1018 282H1028L961 0H352Z" />
<glyph unicode="&#x153;" glyph-name="oe" horiz-adv-x="880" d="M371 454Q360 454 351 446T330 413Q323 397 313 367T291 300T268 222T248 145T234 79T228 36Q228 6 250 6Q264 6 273 12T291 37Q300 57 311 90T334 161T357 240T376 317T390 382T395 426Q395 454
371 454ZM608 221Q618 224 625 226T640 232T655 241T672 257Q684 270 695 293T716 343T730 393T736 433Q736 446 733 450T721 454Q706 454 691 434T660 380T632 305T608 221ZM576 -9Q475 -9 430 50Q395 21 354 5T270 -11Q214 -11 167 5T87 50T34 120T16 209Q18
269 45 315T115 394Q160 428 220 449T352 471Q474 471 519 396Q569 434 623 452T721 471Q767 471 798 462T849 438T877 403T886 362Q886 329 864 304T806 262Q783 251 760 243T713 228T662 214T604 202Q598 173 595 149T592 102Q592 71 601 54T642 36Q675 36 706
49T762 80T807 118T837 154L849 145Q801 78 732 35T576 -9Z" />
<glyph unicode="&#x154;" glyph-name="Racute" horiz-adv-x="792" d="M339 694L467 813Q484 829 506 841T555 854Q593 854 610 833T628 785Q628 744 602 725T529 701L342 683L339 694ZM593 -12Q549 -12 520 0T472 31T444 73T432 121Q430 136 430 158T432 205T435
250T437 285Q437 308 425 315T395 323H379L316 76Q315 72 315 68T314 56Q314 30 330 22T378 11L376 0H-41L-39 11Q-30 12 -18 13T6 18Q24 24 37 35T57 76L181 577Q183 583 184 590T185 604Q185 623 171 633T120 646L122 657H508Q582 657 630 645T706 611T745 563T756
505Q756 454 727 419T648 363Q633 357 614 353T575 345T534 339T496 335L495 332Q507 332 525 330T564 323T603 312T636 296Q664 277 678 248T694 172Q695 141 697 122T704 92T715 77T732 73Q751 73 765 85T793 122L804 115Q798 101 783 79T742 37T680 3T593 -12ZM527
500Q537 545 537 571T532 612T515 631T491 635H479Q463 635 457 630T447 607L384 348H413Q436 348 451 353T480 378Q498 407 509 436T527 500Z" />
<glyph unicode="&#x155;" glyph-name="racute" horiz-adv-x="605" d="M538 604Q537 571 512 552T446 525L274 494L270 503L375 633Q391 652 412 667T465 682Q503 680 521 657T538 604ZM330 268Q354 329 374 368T417 430T462 462T516 471Q559 471 588 441T618 357Q618
303 590 270T514 237Q487 237 468 245T437 267T417 298T407 332Q405 344 403 348T396 352Q392 352 386 344T368 311T338 245T293 134Q280 101 269 68T245 0H7L100 283Q111 316 118 339T125 382Q125 392 120 398T105 405Q88 405 67 381T28 325L14 334Q52 399 102
435T229 471Q281 471 311 446T342 372Q342 351 338 327T324 268H330Z" />
<glyph unicode="&#x156;" glyph-name="Rcommaaccent" horiz-adv-x="792" d="M593 -12Q549 -12 520 0T472 31T444 73T432 121Q430 136 430 158T432 205T435 250T437 285Q437 308 425 315T395 323H379L316 76Q315 72 315 68T314 56Q314 30 330 22T378 11L376 0H-41L-39
11Q-30 12 -18 13T6 18Q24 24 37 35T57 76L181 577Q183 583 184 590T185 604Q185 623 171 633T120 646L122 657H508Q582 657 630 645T706 611T745 563T756 505Q756 454 727 419T648 363Q633 357 614 353T575 345T534 339T496 335L495 332Q507 332 525 330T564 323T603
312T636 296Q664 277 678 248T694 172Q695 141 697 122T704 92T715 77T732 73Q751 73 765 85T793 122L804 115Q798 101 783 79T742 37T680 3T593 -12ZM527 500Q537 545 537 571T532 612T515 631T491 635H479Q463 635 457 630T447 607L384 348H413Q436 348 451 353T480
378Q498 407 509 436T527 500ZM449 -134Q449 -171 430 -197T380 -243T308 -274T226 -295L223 -278Q273 -267 301 -254T330 -227Q330 -219 326 -215T309 -209Q295 -205 281 -199T256 -184T238 -161T231 -128Q231 -88 260 -65T338 -42Q386 -42 417 -65T449 -134Z"
/>
<glyph unicode="&#x157;" glyph-name="rcommaaccent" horiz-adv-x="605" d="M330 268Q354 329 374 368T417 430T462 462T516 471Q559 471 588 441T618 357Q618 303 590 270T514 237Q487 237 468 245T437 267T417 298T407 332Q405 344 403 348T396 352Q392 352
386 344T368 311T338 245T293 134Q280 101 269 68T245 0H7L100 283Q111 316 118 339T125 382Q125 392 120 398T105 405Q88 405 67 381T28 325L14 334Q52 399 102 435T229 471Q281 471 311 446T342 372Q342 351 338 327T324 268H330ZM468 -120Q468 -157 449 -183T399
-229T327 -260T245 -281L242 -264Q292 -253 320 -240T349 -213Q349 -205 345 -201T328 -195Q314 -191 300 -185T275 -170T257 -147T250 -114Q250 -74 279 -51T357 -28Q405 -28 436 -51T468 -120Z" />
<glyph unicode="&#x158;" glyph-name="Rcaron" horiz-adv-x="792" d="M343 858L474 794L661 860L665 851L513 694H413L336 853L343 858ZM593 -12Q549 -12 520 0T472 31T444 73T432 121Q430 136 430 158T432 205T435 250T437 285Q437 308 425 315T395 323H379L316
76Q315 72 315 68T314 56Q314 30 330 22T378 11L376 0H-41L-39 11Q-30 12 -18 13T6 18Q24 24 37 35T57 76L181 577Q183 583 184 590T185 604Q185 623 171 633T120 646L122 657H508Q582 657 630 645T706 611T745 563T756 505Q756 454 727 419T648 363Q633 357 614
353T575 345T534 339T496 335L495 332Q507 332 525 330T564 323T603 312T636 296Q664 277 678 248T694 172Q695 141 697 122T704 92T715 77T732 73Q751 73 765 85T793 122L804 115Q798 101 783 79T742 37T680 3T593 -12ZM527 500Q537 545 537 571T532 612T515 631T491
635H479Q463 635 457 630T447 607L384 348H413Q436 348 451 353T480 378Q498 407 509 436T527 500Z" />
<glyph unicode="&#x159;" glyph-name="rcaron" horiz-adv-x="605" d="M272 678L386 598L562 678L568 669L422 495H322L262 672L272 678ZM330 268Q354 329 374 368T417 430T462 462T516 471Q559 471 588 441T618 357Q618 303 590 270T514 237Q487 237 468 245T437
267T417 298T407 332Q405 344 403 348T396 352Q392 352 386 344T368 311T338 245T293 134Q280 101 269 68T245 0H7L100 283Q111 316 118 339T125 382Q125 392 120 398T105 405Q88 405 67 381T28 325L14 334Q52 399 102 435T229 471Q281 471 311 446T342 372Q342
351 338 327T324 268H330Z" />
<glyph unicode="&#x15a;" glyph-name="Sacute" horiz-adv-x="590" d="M555 425H545Q545 479 533 529T489 612Q472 629 446 637T394 645Q353 645 334 626T314 578Q314 562 317 549T331 523T361 494T410 458Q460 423 491 394T541 337T565 281T572 219Q572 178 553
137T496 62T401 7T269 -14Q206 -14 159 9T79 75H74L-1 -3H-10L48 258H59Q74 130 130 69T268 8Q311 8 340 23T369 77Q369 93 366 105T349 133T309 169T236 226Q170 277 136 330T102 446Q102 549 175 609T387 669Q418 669 445 663T494 646T529 623T551 601H554L609
654H621L555 425ZM290 694L418 813Q435 829 457 841T506 854Q544 854 561 833T579 785Q579 744 553 725T480 701L293 683L290 694Z" />
<glyph unicode="&#x15b;" glyph-name="sacute" horiz-adv-x="457" d="M466 604Q465 571 440 552T374 525L202 494L198 503L303 633Q319 652 340 667T393 682Q431 680 449 657T466 604ZM456 380Q456 357 442 339T398 320Q340 320 335 384Q332 417 320 435T276 454Q229
454 229 422Q229 409 234 399T252 378T283 354T329 321Q358 300 378 282T410 244T427 206T432 162Q432 118 413 86T361 32T281 0T180 -11Q87 -11 39 18T-9 95Q-9 118 5 138T54 158Q87 158 103 140T120 93Q121 76 122 61T126 35Q131 22 145 15T187 7Q215 7 233 16T252
46Q252 68 238 83T190 123L148 154Q126 171 108 191T77 237T65 296Q65 342 85 375T136 429T207 461T286 471Q364 471 410 447T456 380Z" />
<glyph unicode="&#x15c;" glyph-name="Scircumflex" horiz-adv-x="590" d="M537 687L406 749L219 685L215 694L370 851H470L544 692L537 687ZM555 425H545Q545 479 533 529T489 612Q472 629 446 637T394 645Q353 645 334 626T314 578Q314 562 317 549T331 523T361
494T410 458Q460 423 491 394T541 337T565 281T572 219Q572 178 553 137T496 62T401 7T269 -14Q206 -14 159 9T79 75H74L-1 -3H-10L48 258H59Q74 130 130 69T268 8Q311 8 340 23T369 77Q369 93 366 105T349 133T309 169T236 226Q170 277 136 330T102 446Q102 549
175 609T387 669Q418 669 445 663T494 646T529 623T551 601H554L609 654H621L555 425Z" />
<glyph unicode="&#x15d;" glyph-name="scircumflex" horiz-adv-x="457" d="M437 485L323 565L147 485L141 494L287 668H387L447 491L437 485ZM456 380Q456 357 442 339T398 320Q340 320 335 384Q332 417 320 435T276 454Q229 454 229 422Q229 409 234 399T252
378T283 354T329 321Q358 300 378 282T410 244T427 206T432 162Q432 118 413 86T361 32T281 0T180 -11Q87 -11 39 18T-9 95Q-9 118 5 138T54 158Q87 158 103 140T120 93Q121 76 122 61T126 35Q131 22 145 15T187 7Q215 7 233 16T252 46Q252 68 238 83T190 123L148
154Q126 171 108 191T77 237T65 296Q65 342 85 375T136 429T207 461T286 471Q364 471 410 447T456 380Z" />
<glyph unicode="&#x15e;" glyph-name="Scedilla" horiz-adv-x="590" d="M555 425H545Q545 479 533 529T489 612Q472 629 446 637T394 645Q353 645 334 626T314 578Q314 562 317 549T331 523T361 494T410 458Q460 423 491 394T541 337T565 281T572 219Q572 178
553 137T496 62T401 7T269 -14Q206 -14 159 9T79 75H74L-1 -3H-10L48 258H59Q74 130 130 69T268 8Q311 8 340 23T369 77Q369 93 366 105T349 133T309 169T236 226Q170 277 136 330T102 446Q102 549 175 609T387 669Q418 669 445 663T494 646T529 623T551 601H554L609
654H621L555 425ZM366 -108Q366 -124 358 -138T332 -164T283 -183T206 -190Q159 -190 138 -182T105 -166L113 -155Q124 -161 139 -167T178 -173Q209 -173 226 -153T243 -107Q243 -84 232 -72T207 -60Q197 -60 191 -63T180 -71L166 -62L206 2H225L194 -50Q202 -45
223 -40T269 -34Q315 -34 340 -52T366 -108Z" />
<glyph unicode="&#x15f;" glyph-name="scedilla" horiz-adv-x="457" d="M456 380Q456 357 442 339T398 320Q340 320 335 384Q332 417 320 435T276 454Q229 454 229 422Q229 409 234 399T252 378T283 354T329 321Q358 300 378 282T410 244T427 206T432 162Q432
118 413 86T361 32T281 0T180 -11Q87 -11 39 18T-9 95Q-9 118 5 138T54 158Q87 158 103 140T120 93Q121 76 122 61T126 35Q131 22 145 15T187 7Q215 7 233 16T252 46Q252 68 238 83T190 123L148 154Q126 171 108 191T77 237T65 296Q65 342 85 375T136 429T207 461T286
471Q364 471 410 447T456 380ZM309 -108Q309 -124 301 -138T275 -164T226 -183T149 -190Q102 -190 81 -182T48 -166L56 -155Q67 -161 82 -167T121 -173Q152 -173 169 -153T186 -107Q186 -84 175 -72T150 -60Q140 -60 134 -63T123 -71L109 -62L149 2H168L137 -50Q145
-45 166 -40T212 -34Q258 -34 283 -52T309 -108Z" />
<glyph unicode="&#x160;" glyph-name="Scaron" horiz-adv-x="590" d="M280 858L411 794L598 860L602 851L450 694H350L273 853L280 858ZM555 425H545Q545 479 533 529T489 612Q472 629 446 637T394 645Q353 645 334 626T314 578Q314 562 317 549T331 523T361 494T410
458Q460 423 491 394T541 337T565 281T572 219Q572 178 553 137T496 62T401 7T269 -14Q206 -14 159 9T79 75H74L-1 -3H-10L48 258H59Q74 130 130 69T268 8Q311 8 340 23T369 77Q369 93 366 105T349 133T309 169T236 226Q170 277 136 330T102 446Q102 549 175 609T387
669Q418 669 445 663T494 646T529 623T551 601H554L609 654H621L555 425Z" />
<glyph unicode="&#x161;" glyph-name="scaron" horiz-adv-x="457" d="M196 678L310 598L486 678L492 669L346 495H246L186 672L196 678ZM456 380Q456 357 442 339T398 320Q340 320 335 384Q332 417 320 435T276 454Q229 454 229 422Q229 409 234 399T252 378T283
354T329 321Q358 300 378 282T410 244T427 206T432 162Q432 118 413 86T361 32T281 0T180 -11Q87 -11 39 18T-9 95Q-9 118 5 138T54 158Q87 158 103 140T120 93Q121 76 122 61T126 35Q131 22 145 15T187 7Q215 7 233 16T252 46Q252 68 238 83T190 123L148 154Q126
171 108 191T77 237T65 296Q65 342 85 375T136 429T207 461T286 471Q364 471 410 447T456 380Z" />
<glyph unicode="&#x162;" glyph-name="Tcommaaccent" horiz-adv-x="761" d="M797 386H784Q783 403 778 427T765 479T747 532T726 580Q713 604 692 618T638 633H624L490 95Q487 83 485 75T483 57Q483 31 499 22T546 11L544 0H130L132 11Q140 12 150 13T172 18Q190
25 204 35T227 76L365 633H342Q321 633 296 622T239 575Q218 552 196 528T152 479T111 431T76 386H64L152 657H841L797 386ZM405 -134Q405 -171 386 -197T336 -243T264 -274T182 -295L179 -278Q229 -267 257 -254T286 -227Q286 -219 282 -215T265 -209Q251 -205
237 -199T212 -184T194 -161T187 -128Q187 -88 216 -65T294 -42Q342 -42 373 -65T405 -134Z" />
<glyph unicode="&#x163;" glyph-name="tcommaaccent" horiz-adv-x="411" d="M244 69Q244 61 248 58T259 55Q267 55 279 61T306 79T334 105T362 135L373 127Q323 57 257 23T116 -11Q72 -11 45 13T18 79Q18 105 29 141T59 226L140 434H58L68 462H151L196 580H423L379
462H491L481 434H369L295 230Q269 158 257 122T244 69ZM444 -120Q444 -157 425 -183T375 -229T303 -260T221 -281L218 -264Q268 -253 296 -240T325 -213Q325 -205 321 -201T304 -195Q290 -191 276 -185T251 -170T233 -147T226 -114Q226 -74 255 -51T333 -28Q381
-28 412 -51T444 -120Z" />
<glyph unicode="&#x164;" glyph-name="Tcaron" horiz-adv-x="761" d="M386 859L517 795L704 861L708 852L556 695H456L379 854L386 859ZM797 386H784Q783 403 778 427T765 479T747 532T726 580Q713 604 692 618T638 633H624L490 95Q487 83 485 75T483 57Q483 31
499 22T546 11L544 0H130L132 11Q140 12 150 13T172 18Q190 25 204 35T227 76L365 633H342Q321 633 296 622T239 575Q218 552 196 528T152 479T111 431T76 386H64L152 657H841L797 386Z" />
<glyph unicode="&#x165;" glyph-name="tcaron" horiz-adv-x="411" d="M485 684H626Q588 642 544 597T453 507H435L485 684ZM244 69Q244 61 248 58T259 55Q267 55 279 61T306 79T334 105T362 135L373 127Q323 57 257 23T116 -11Q72 -11 45 13T18 79Q18 105 29 141T59
226L140 434H58L68 462H151L196 580H423L379 462H491L481 434H369L295 230Q269 158 257 122T244 69Z" />
<glyph unicode="&#x166;" glyph-name="Tbar" horiz-adv-x="761" d="M544 0H130L132 11Q140 12 150 13T172 18Q190 25 204 35T227 76L303 383H196L203 412H310L365 633H342Q321 633 296 622T239 575Q218 552 196 528T152 479T111 431T76 386H64L152 657H841L797
386H784Q783 403 778 427T765 479T747 532T726 580Q713 604 692 618T638 633H624L569 412H676L669 383H562L490 95Q487 83 485 75T483 57Q483 31 499 22T546 11L544 0Z" />
<glyph unicode="&#x167;" glyph-name="tbar" horiz-adv-x="411" d="M373 127Q323 57 257 23T116 -11Q72 -11 45 13T18 79Q18 105 29 141T59 226L98 326H18L27 351H108L140 434H58L68 462H151L196 580H423L379 462H491L481 434H369L339 351H449L440 326H330L295
230Q269 158 257 122T244 69Q244 61 248 58T259 55Q267 55 279 61T306 79T334 105T362 135L373 127Z" />
<glyph unicode="&#x168;" glyph-name="Utilde" horiz-adv-x="696" d="M807 646Q780 643 763 637T729 611Q715 594 704 568T680 493L612 218Q600 171 583 129T536 56T458 6T338 -12Q273 -12 225 2T146 40T99 99T84 173Q84 186 85 200T89 232T97 276T111 338L170
580Q171 585 171 590T172 603Q172 629 154 636T111 646L113 657H528L526 646Q514 645 504 643T485 639Q475 635 467 631T452 621T440 606T431 581L351 261Q342 223 337 190T331 135Q331 93 353 65T423 36Q460 36 487 51T532 92T563 152T585 222L653 494Q661 528
664 547T668 581Q668 602 662 614T646 632T624 641T599 646L601 657H808L807 646ZM728 857Q720 824 708 796T679 746T638 713T579 701Q564 701 545 705T505 713T464 722T429 726Q405 726 387 717T356 685L342 687Q358 759 398 798T491 838Q508 838 525 835T560
827T597 819T641 815Q666 815 684 825T714 862L728 857Z" />
<glyph unicode="&#x169;" glyph-name="utilde" horiz-adv-x="678" d="M573 75Q573 61 583 61Q593 61 610 76T652 129L664 121Q629 59 580 25T469 -9Q424 -9 391 16T358 89Q358 117 364 141T374 181H370Q345 117 321 79T271 22T217 -3T156 -9Q132 -9 110 -2T71
20T44 56T34 105Q34 124 37 141T46 175T60 211T81 256Q94 283 102 301T116 333T123 356T125 377Q125 387 120 396T101 405Q87 405 68 382T28 326L14 335Q55 405 105 438T228 471Q296 471 326 440T357 365Q357 338 347 308T315 227Q289 168 278 141T266 101Q266
78 284 78Q304 78 334 138T410 326Q422 358 434 392T458 462H697Q686 429 674 392T650 319T627 251T607 193Q601 176 595 158T584 124T576 95T573 75ZM634 651Q624 618 612 591T584 543T545 512T493 500Q471 500 452 505T415 517T380 528T346 534Q328 534 313 526T286
491L270 494Q280 526 292 553T322 601T363 632T416 644Q434 644 452 639T487 627T521 616T552 610Q572 610 589 619T618 656L634 651Z" />
<glyph unicode="&#x16a;" glyph-name="Umacron" horiz-adv-x="696" d="M807 646Q780 643 763 637T729 611Q715 594 704 568T680 493L612 218Q600 171 583 129T536 56T458 6T338 -12Q273 -12 225 2T146 40T99 99T84 173Q84 186 85 200T89 232T97 276T111 338L170
580Q171 585 171 590T172 603Q172 629 154 636T111 646L113 657H528L526 646Q514 645 504 643T485 639Q475 635 467 631T452 621T440 606T431 581L351 261Q342 223 337 190T331 135Q331 93 353 65T423 36Q460 36 487 51T532 92T563 152T585 222L653 494Q661 528
664 547T668 581Q668 602 662 614T646 632T624 641T599 646L601 657H808L807 646ZM357 698L379 783H680L658 698H357Z" />
<glyph unicode="&#x16b;" glyph-name="umacron" horiz-adv-x="678" d="M573 75Q573 61 583 61Q593 61 610 76T652 129L664 121Q629 59 580 25T469 -9Q424 -9 391 16T358 89Q358 117 364 141T374 181H370Q345 117 321 79T271 22T217 -3T156 -9Q132 -9 110 -2T71
20T44 56T34 105Q34 124 37 141T46 175T60 211T81 256Q94 283 102 301T116 333T123 356T125 377Q125 387 120 396T101 405Q87 405 68 382T28 326L14 335Q55 405 105 438T228 471Q296 471 326 440T357 365Q357 338 347 308T315 227Q289 168 278 141T266 101Q266
78 284 78Q304 78 334 138T410 326Q422 358 434 392T458 462H697Q686 429 674 392T650 319T627 251T607 193Q601 176 595 158T584 124T576 95T573 75ZM293 518L314 603H577L556 518H293Z" />
<glyph unicode="&#x16c;" glyph-name="Ubreve" horiz-adv-x="696" d="M807 646Q780 643 763 637T729 611Q715 594 704 568T680 493L612 218Q600 171 583 129T536 56T458 6T338 -12Q273 -12 225 2T146 40T99 99T84 173Q84 186 85 200T89 232T97 276T111 338L170
580Q171 585 171 590T172 603Q172 629 154 636T111 646L113 657H528L526 646Q514 645 504 643T485 639Q475 635 467 631T452 621T440 606T431 581L351 261Q342 223 337 190T331 135Q331 93 353 65T423 36Q460 36 487 51T532 92T563 152T585 222L653 494Q661 528
664 547T668 581Q668 602 662 614T646 632T624 641T599 646L601 657H808L807 646ZM396 853Q411 821 438 807T515 793Q567 793 608 807T674 853L684 847Q669 772 625 729T513 685Q478 685 454 695T413 724T389 766T381 818V834Q381 843 383 851L396 853Z" />
<glyph unicode="&#x16d;" glyph-name="ubreve" horiz-adv-x="678" d="M573 75Q573 61 583 61Q593 61 610 76T652 129L664 121Q629 59 580 25T469 -9Q424 -9 391 16T358 89Q358 117 364 141T374 181H370Q345 117 321 79T271 22T217 -3T156 -9Q132 -9 110 -2T71
20T44 56T34 105Q34 124 37 141T46 175T60 211T81 256Q94 283 102 301T116 333T123 356T125 377Q125 387 120 396T101 405Q87 405 68 382T28 326L14 335Q55 405 105 438T228 471Q296 471 326 440T357 365Q357 338 347 308T315 227Q289 168 278 141T266 101Q266
78 284 78Q304 78 334 138T410 326Q422 358 434 392T458 462H697Q686 429 674 392T650 319T627 251T607 193Q601 176 595 158T584 124T576 95T573 75ZM314 658Q325 626 351 611T425 595Q444 595 464 599T504 612T540 632T569 659L579 653Q559 569 515 531T409 493Q353
493 326 528T298 620Q298 625 298 635T301 654L314 658Z" />
<glyph unicode="&#x16e;" glyph-name="Uring" horiz-adv-x="696" d="M807 646Q780 643 763 637T729 611Q715 594 704 568T680 493L612 218Q600 171 583 129T536 56T458 6T338 -12Q273 -12 225 2T146 40T99 99T84 173Q84 186 85 200T89 232T97 276T111 338L170
580Q171 585 171 590T172 603Q172 629 154 636T111 646L113 657H528L526 646Q514 645 504 643T485 639Q475 635 467 631T452 621T440 606T431 581L351 261Q342 223 337 190T331 135Q331 93 353 65T423 36Q460 36 487 51T532 92T563 152T585 222L653 494Q661 528
664 547T668 581Q668 602 662 614T646 632T624 641T599 646L601 657H808L807 646ZM594 785Q594 813 581 832T536 852Q504 852 491 833T478 785Q478 756 491 737T536 717Q568 717 581 736T594 785ZM637 785Q637 764 629 747T608 717T576 697T536 690Q492 690 464
716T435 785Q435 825 463 852T536 880Q581 880 609 854T637 785Z" />
<glyph unicode="&#x16f;" glyph-name="uring" horiz-adv-x="678" d="M485 587Q485 615 472 634T427 654Q395 654 382 635T369 587Q369 558 382 539T427 519Q459 519 472 538T485 587ZM528 587Q528 566 520 549T499 519T467 499T427 492Q383 492 355 518T326 587Q326
627 354 654T427 682Q472 682 500 656T528 587ZM573 75Q573 61 583 61Q593 61 610 76T652 129L664 121Q629 59 580 25T469 -9Q424 -9 391 16T358 89Q358 117 364 141T374 181H370Q345 117 321 79T271 22T217 -3T156 -9Q132 -9 110 -2T71 20T44 56T34 105Q34 124
37 141T46 175T60 211T81 256Q94 283 102 301T116 333T123 356T125 377Q125 387 120 396T101 405Q87 405 68 382T28 326L14 335Q55 405 105 438T228 471Q296 471 326 440T357 365Q357 338 347 308T315 227Q289 168 278 141T266 101Q266 78 284 78Q304 78 334 138T410
326Q422 358 434 392T458 462H697Q686 429 674 392T650 319T627 251T607 193Q601 176 595 158T584 124T576 95T573 75Z" />
<glyph unicode="&#x170;" glyph-name="Uhungarumlaut" horiz-adv-x="696" d="M581 825Q581 801 565 782T519 751L373 695H361L441 832Q455 856 472 870T517 885Q549 886 565 868T581 825ZM780 825Q780 776 717 751L571 695H559L640 832Q654 856 671 870T716 885Q748
886 764 868T780 825ZM807 646Q780 643 763 637T729 611Q715 594 704 568T680 493L612 218Q600 171 583 129T536 56T458 6T338 -12Q273 -12 225 2T146 40T99 99T84 173Q84 186 85 200T89 232T97 276T111 338L170 580Q171 585 171 590T172 603Q172 629 154 636T111
646L113 657H528L526 646Q514 645 504 643T485 639Q475 635 467 631T452 621T440 606T431 581L351 261Q342 223 337 190T331 135Q331 93 353 65T423 36Q460 36 487 51T532 92T563 152T585 222L653 494Q661 528 664 547T668 581Q668 602 662 614T646 632T624 641T599
646L601 657H808L807 646Z" />
<glyph unicode="&#x171;" glyph-name="uhungarumlaut" horiz-adv-x="678" d="M573 75Q573 61 583 61Q593 61 610 76T652 129L664 121Q629 59 580 25T469 -9Q424 -9 391 16T358 89Q358 117 364 141T374 181H370Q345 117 321 79T271 22T217 -3T156 -9Q132 -9 110
-2T71 20T44 56T34 105Q34 124 37 141T46 175T60 211T81 256Q94 283 102 301T116 333T123 356T125 377Q125 387 120 396T101 405Q87 405 68 382T28 326L14 335Q55 405 105 438T228 471Q296 471 326 440T357 365Q357 338 347 308T315 227Q289 168 278 141T266 101Q266
78 284 78Q304 78 334 138T410 326Q422 358 434 392T458 462H697Q686 429 674 392T650 319T627 251T607 193Q601 176 595 158T584 124T576 95T573 75ZM408 681Q440 681 460 663T481 613Q482 582 462 560T409 526L279 483L271 489L320 602Q326 615 333 629T350 654T375
673T408 681ZM616 681Q648 681 668 663T689 613Q690 581 670 559T617 526L487 483L479 489L528 602Q534 615 541 629T559 655T583 673T616 681Z" />
<glyph unicode="&#x172;" glyph-name="Uogonek" horiz-adv-x="696" d="M612 218Q603 180 591 148T561 89T520 43T464 9Q448 3 427 -12T387 -49T355 -96T342 -147Q342 -177 358 -191T401 -208L398 -218Q336 -221 293 -216T223 -200T184 -172T172 -136Q172 -115
189 -99T237 -68T314 -38T416 -4Q396 -8 379 -10T338 -12Q273 -12 225 2T146 40T99 99T84 173Q84 186 85 200T89 232T97 276T111 338L170 580Q171 585 171 590T172 603Q172 629 154 636T111 646L113 657H528L526 646Q514 645 504 643T485 639Q475 635 467 631T452
621T440 606T431 581L351 261Q342 223 337 190T331 135Q331 93 353 65T423 36Q460 36 487 51T532 92T563 152T585 222L653 494Q661 528 664 547T668 581Q668 602 662 614T646 632T624 641T599 646L601 657H808L807 646Q780 643 763 637T729 611Q715 594 704 568T680
493L612 218Z" />
<glyph unicode="&#x173;" glyph-name="uogonek" horiz-adv-x="678" d="M469 -9Q424 -9 391 16T358 89Q358 117 364 141T374 181H370Q345 117 321 79T271 22T217 -3T156 -9Q132 -9 110 -2T71 20T44 56T34 105Q34 124 37 141T46 175T60 211T81 256Q94 283 102 301T116
333T123 356T125 377Q125 387 120 396T101 405Q87 405 68 382T28 326L14 335Q55 405 105 438T228 471Q296 471 326 440T357 365Q357 338 347 308T315 227Q289 168 278 141T266 101Q266 78 284 78Q304 78 334 138T410 326Q422 358 434 392T458 462H697Q686 429 674
392T650 319T627 251T607 193Q601 176 595 158T584 124T576 95T573 75Q573 61 583 61Q593 61 610 76T652 129L664 121Q641 79 612 51T551 5Q530 -7 510 -23T473 -59T447 -101T437 -147Q437 -177 453 -191T496 -208L493 -218Q430 -221 387 -216T318 -200T279 -173T267
-136Q267 -114 284 -98T333 -67T407 -38T503 -6Q488 -9 469 -9Z" />
<glyph unicode="&#x174;" glyph-name="Wcircumflex" horiz-adv-x="1093" d="M911 687L780 749L593 685L589 694L744 851H844L918 692L911 687ZM584 490Q590 514 596 541T603 592Q603 622 587 633T550 647L552 657H959L957 647Q947 646 935 644T915 639Q902 634
893 628T876 605T860 559T838 478L771 214H777L1021 516Q1041 542 1057 564T1073 606Q1073 622 1057 632T1011 647L1013 657H1235L1233 647Q1221 645 1205 639T1176 627Q1146 611 1120 587T1069 532L641 0H453L567 426H564L220 0H36L167 506Q174 533 179 553T184
594Q184 621 170 632T121 647L123 657H527L525 647Q520 646 512 644T495 638Q480 631 471 621T453 592T438 546T419 477L353 216H359L584 490Z" />
<glyph unicode="&#x175;" glyph-name="wcircumflex" horiz-adv-x="864" d="M762 485L648 565L472 485L466 494L612 668H712L772 491L762 485ZM565 -8Q528 -8 492 0T429 31Q399 13 356 3T256 -8Q197 -8 158 5T96 37T62 78T52 120Q52 144 61 166T95 209T160 252T264
296Q250 303 228 319T165 359Q136 376 118 384T86 393Q72 393 72 383Q72 375 80 371T104 357Q117 349 126 338T135 303Q135 294 132 285T120 267T100 254T69 248Q40 248 24 265T7 307Q7 323 13 338T29 368T49 393T68 412Q93 436 131 453T205 471Q225 471 246 465T300
439Q318 428 330 419T351 404T367 395T382 391Q390 391 398 402T414 440Q417 451 422 460T443 470Q466 470 466 451Q466 442 460 434T445 418T427 403T411 387Q395 367 378 342T345 284T320 213T310 127Q310 91 327 67T378 43Q397 43 414 48Q398 68 390 93T381
152Q381 204 410 269T509 397Q548 432 585 451T661 471Q684 471 699 452T715 383Q715 318 692 263T636 167Q645 131 663 109T711 87Q751 87 781 138Q802 175 809 209T817 263Q817 280 813 293T801 317T786 337T771 355Q748 382 748 412Q748 431 763 448T806 466Q830
466 848 445T866 377Q866 330 849 264T797 131Q781 101 759 76T707 32T643 3T565 -8ZM664 440Q652 440 644 427T632 394T625 349T623 304Q623 288 624 257T630 192Q642 208 653 229T674 275T688 325T694 378Q694 411 686 425T664 440Z" />
<glyph unicode="&#x176;" glyph-name="Ycircumflex" horiz-adv-x="673" d="M781 646Q767 642 753 637T724 622Q703 609 681 584T627 512L487 305L431 77Q430 72 429 66T428 51Q428 30 450 22T496 11L494 0H73L75 11Q108 14 130 25Q139 29 145 33T156 42T165 56T173
76L229 305L187 540Q177 594 161 616T113 646L115 657H535L533 646Q495 642 475 632T454 590Q454 579 455 565T458 530L479 344H484L593 506Q616 542 629 566T643 610Q643 630 627 637T594 646L596 657H783L781 646ZM652 687L521 749L334 685L330 694L485 851H585L659
692L652 687Z" />
<glyph unicode="&#x177;" glyph-name="ycircumflex" horiz-adv-x="509" d="M82 391Q66 391 49 376T11 318L-3 327Q34 404 86 437T210 471Q247 471 273 461T318 432T347 385T365 319Q368 299 371 276T375 229T378 186T379 152H383Q400 177 412 196T432 232T443
264T447 296Q447 313 437 328T411 359Q388 382 388 414Q388 438 407 454T455 471Q481 471 500 454T519 398Q519 357 498 307T444 205T370 101T288 4T212 -78T154 -134Q121 -166 79 -189T-11 -213Q-64 -213 -94 -185T-124 -117Q-124 -72 -96 -49T-30 -25Q5 -25 26
-41T57 -77Q63 -89 66 -101T72 -122T79 -136T92 -142Q99 -142 109 -138T134 -122Q149 -110 165 -94T194 -64Q194 -56 190 -18T179 72T162 184T141 295Q130 343 117 367T82 391ZM455 485L341 565L165 485L159 494L305 668H405L465 491L455 485Z" />
<glyph unicode="&#x178;" glyph-name="Ydieresis" horiz-adv-x="673" d="M781 646Q767 642 753 637T724 622Q703 609 681 584T627 512L487 305L431 77Q430 72 429 66T428 51Q428 30 450 22T496 11L494 0H73L75 11Q108 14 130 25Q139 29 145 33T156 42T165 56T173
76L229 305L187 540Q177 594 161 616T113 646L115 657H535L533 646Q495 642 475 632T454 590Q454 579 455 565T458 530L479 344H484L593 506Q616 542 629 566T643 610Q643 630 627 637T594 646L596 657H783L781 646ZM626 850Q667 850 692 827T718 769Q718 734 694
711T626 688Q581 688 557 711T533 770Q533 805 558 827T626 850ZM388 850Q429 850 454 827T480 769Q480 734 456 711T388 688Q343 688 319 711T295 770Q295 805 320 827T388 850Z" />
<glyph unicode="&#x179;" glyph-name="Zacute" horiz-adv-x="636" d="M337 694L465 813Q482 829 504 841T553 854Q591 854 608 833T626 785Q626 744 600 725T527 701L340 683L337 694ZM723 645L266 26H321Q376 26 410 47T478 109Q527 167 563 215T615 292H628L565
0H-35L-33 12L420 631H393Q348 631 314 620T243 580Q173 523 108 420H96L150 657H725L723 645Z" />
<glyph unicode="&#x17a;" glyph-name="zacute" horiz-adv-x="556" d="M507 600Q506 567 481 547T415 520L335 510Q320 508 306 507T280 503Q267 501 256 500L251 509Q252 509 266 527T298 568T329 609L344 628Q360 647 381 662T434 677Q472 675 490 652T507 600ZM567
436Q567 414 553 402T525 384Q512 378 497 372T460 351Q434 335 380 302T253 220Q265 222 275 222T298 223Q317 223 340 220T383 209Q423 195 460 195Q495 195 514 225Q520 235 523 243T531 261L544 255Q531 205 515 158T476 74T422 15T345 -7Q325 -7 309 -5T279
4T251 22T223 49Q205 69 193 84T172 111T156 127T141 133Q130 133 123 126T111 106T102 76T92 38Q79 -7 36 -7Q10 -7 -1 7T-13 36Q-13 54 -5 64T17 86Q27 94 37 100T65 118L400 333Q386 330 366 328T325 325Q309 325 280 329T223 347Q190 363 170 372T123 381Q92
381 78 364T64 326Q64 313 69 304T79 293Q84 315 102 330T149 346Q177 346 195 327T213 283Q213 254 195 234T144 213Q124 213 107 222T76 246T56 282T48 325Q48 369 64 400T105 452T160 481T219 491Q259 491 287 477T335 440Q348 424 358 409T377 383T396 364T418
357Q434 357 446 368T467 419Q472 443 483 461T522 479Q542 479 554 467T567 436Z" />
<glyph unicode="&#x17b;" glyph-name="Zdotaccent" horiz-adv-x="636" d="M723 645L266 26H321Q376 26 410 47T478 109Q527 167 563 215T615 292H628L565 0H-35L-33 12L420 631H393Q348 631 314 620T243 580Q173 523 108 420H96L150 657H725L723 645ZM352 781Q352
821 382 845T464 870Q516 870 546 845T576 781Q576 740 547 715T464 690Q412 690 382 715T352 781Z" />
<glyph unicode="&#x17c;" glyph-name="zdotaccent" horiz-adv-x="556" d="M567 436Q567 414 553 402T525 384Q512 378 497 372T460 351Q434 335 380 302T253 220Q265 222 275 222T298 223Q317 223 340 220T383 209Q423 195 460 195Q495 195 514 225Q520 235 523
243T531 261L544 255Q531 205 515 158T476 74T422 15T345 -7Q325 -7 309 -5T279 4T251 22T223 49Q205 69 193 84T172 111T156 127T141 133Q130 133 123 126T111 106T102 76T92 38Q79 -7 36 -7Q10 -7 -1 7T-13 36Q-13 54 -5 64T17 86Q27 94 37 100T65 118L400 333Q386
330 366 328T325 325Q309 325 280 329T223 347Q190 363 170 372T123 381Q92 381 78 364T64 326Q64 313 69 304T79 293Q84 315 102 330T149 346Q177 346 195 327T213 283Q213 254 195 234T144 213Q124 213 107 222T76 246T56 282T48 325Q48 369 64 400T105 452T160
481T219 491Q259 491 287 477T335 440Q348 424 358 409T377 383T396 364T418 357Q434 357 446 368T467 419Q472 443 483 461T522 479Q542 479 554 467T567 436ZM472 574Q472 533 442 509T361 485Q311 485 281 509T250 573Q250 612 280 637T361 662Q411 662 441
638T472 574Z" />
<glyph unicode="&#x17d;" glyph-name="Zcaron" horiz-adv-x="636" d="M331 858L462 794L649 860L653 851L501 694H401L324 853L331 858ZM723 645L266 26H321Q376 26 410 47T478 109Q527 167 563 215T615 292H628L565 0H-35L-33 12L420 631H393Q348 631 314 620T243
580Q173 523 108 420H96L150 657H725L723 645Z" />
<glyph unicode="&#x17e;" glyph-name="zcaron" horiz-adv-x="556" d="M259 678L373 598L549 678L555 669L409 495H309L249 672L259 678ZM567 436Q567 414 553 402T525 384Q512 378 497 372T460 351Q434 335 380 302T253 220Q265 222 275 222T298 223Q317 223 340
220T383 209Q423 195 460 195Q495 195 514 225Q520 235 523 243T531 261L544 255Q531 205 515 158T476 74T422 15T345 -7Q325 -7 309 -5T279 4T251 22T223 49Q205 69 193 84T172 111T156 127T141 133Q130 133 123 126T111 106T102 76T92 38Q79 -7 36 -7Q10 -7 -1
7T-13 36Q-13 54 -5 64T17 86Q27 94 37 100T65 118L400 333Q386 330 366 328T325 325Q309 325 280 329T223 347Q190 363 170 372T123 381Q92 381 78 364T64 326Q64 313 69 304T79 293Q84 315 102 330T149 346Q177 346 195 327T213 283Q213 254 195 234T144 213Q124
213 107 222T76 246T56 282T48 325Q48 369 64 400T105 452T160 481T219 491Q259 491 287 477T335 440Q348 424 358 409T377 383T396 364T418 357Q434 357 446 368T467 419Q472 443 483 461T522 479Q542 479 554 467T567 436Z" />
<glyph unicode="&#x192;" glyph-name="florin" d="M707 542Q707 489 675 464T597 438Q571 438 552 446T519 466T500 495T493 527Q493 545 496 560T503 588T510 614T513 638Q513 658 500 658Q486 658 477 651T462 631T452 601T444 565Q440 545 436 524T429 482T422
445T417 415H498L493 389H412Q405 354 393 306T367 207T339 110T312 34Q294 -10 268 -49T206 -117T124 -164T19 -182Q-84 -182 -134 -145T-184 -53Q-184 -3 -154 22T-79 47Q-52 47 -33 39T-2 18T15 -13T21 -47Q21 -61 18 -75T10 -102T2 -126T-2 -144Q-2 -161 16
-161Q23 -161 29 -159T40 -148T50 -125T62 -84Q92 45 115 165T164 389H84L90 415H170Q187 491 221 542T301 625T399 669T507 682Q602 682 654 643T707 542Z" />
<glyph unicode="&#x1fa;" glyph-name="Aringacute" horiz-adv-x="669" d="M326 214H181L117 141Q100 121 86 99T71 54Q71 28 90 19Q99 15 109 14T126 11L124 0H-87L-84 11Q-75 13 -62 16T-38 26Q-12 40 19 70T82 138L528 657H695L550 77Q544 52 550 38T572 18Q582
15 592 14T611 11L609 0H218L220 11L235 13Q244 15 252 19Q266 26 276 37T292 76L326 214ZM203 239H332L380 437H375L203 239ZM492 903L620 1022Q637 1038 659 1050T708 1063Q746 1063 763 1042T781 994Q781 953 755 934T682 910L495 892L492 903ZM680 785Q680
813 667 832T622 852Q590 852 577 833T564 785Q564 756 577 737T622 717Q654 717 667 736T680 785ZM723 785Q723 764 715 747T694 717T662 697T622 690Q578 690 550 716T521 785Q521 825 549 852T622 880Q667 880 695 854T723 785Z" />
<glyph unicode="&#x1fb;" glyph-name="aringacute" horiz-adv-x="663" d="M424 428Q424 439 420 443T408 447Q400 447 391 440T365 403Q350 374 329 329T287 235T253 144T239 77Q239 55 254 55Q268 55 281 74T305 113Q316 136 328 166T351 225Q375 287 389 324T411
382T421 412T424 428ZM551 78Q551 68 555 66T564 63Q567 63 573 64T590 72T612 90T640 125L652 117Q610 50 546 21T416 -9Q362 -9 340 11T317 64Q317 75 318 86T321 106H317Q309 88 301 75T280 48Q254 18 221 5T143 -9Q83 -9 49 30T15 127Q15 199 46 262T128 371T240
444T366 471Q389 471 403 468T426 458T439 445T446 430H450L473 462H671Q665 443 656 417T637 360T616 299T595 238Q573 172 562 134T551 78ZM524 587Q524 615 511 634T466 654Q434 654 421 635T408 587Q408 558 421 539T466 519Q498 519 511 538T524 587ZM567
587Q567 566 559 549T538 519T506 499T466 492Q422 492 394 518T365 587Q365 627 393 654T466 682Q511 682 539 656T567 587ZM381 702L509 821Q526 837 548 849T597 862Q635 862 652 841T670 793Q670 752 644 733T571 709L384 691L381 702Z" />
<glyph unicode="&#x1fc;" glyph-name="AEacute" horiz-adv-x="1000" d="M610 694L738 813Q755 829 777 841T826 854Q864 854 881 833T899 785Q899 744 873 725T800 701L613 683L610 694ZM497 623H491L189 238H400L497 623ZM990 400H979Q971 419 961 442T941 489T919
537T896 581Q878 613 860 624T809 635H785Q763 635 755 628T741 594L681 352H702Q727 352 745 359T784 384Q810 404 830 427T868 479H879L810 198H800Q795 228 790 251T768 300Q756 319 739 324T696 330H676L611 69Q606 46 615 34T657 22H680Q696 22 709 23T734
30T759 45T789 72Q810 93 832 118T878 171T923 227T966 282H976L909 0H263L265 11Q273 12 284 13T308 18Q325 24 339 37T360 76L394 214H170L113 140Q93 114 82 94T71 54Q71 31 88 22T126 11L124 0H-87L-84 11Q-65 11 -40 21Q-15 32 19 65T85 138L471 634Q458 638
443 641T416 646L418 657H1006L990 400Z" />
<glyph unicode="&#x1fd;" glyph-name="aeacute" horiz-adv-x="884" d="M719 604Q718 571 693 552T627 525L455 494L451 503L556 633Q572 652 593 667T646 682Q684 680 702 657T719 604ZM890 362Q890 328 868 303T810 261Q793 253 745 236T608 202Q602 173 599
147T596 102Q596 71 606 54T645 36Q679 36 710 49T766 80T811 118T841 154L853 145Q806 78 733 35T550 -9Q508 -9 473 3T411 39T370 95T353 170H347Q327 120 312 94T283 50Q259 21 225 6T143 -10Q83 -10 49 29T15 127Q15 199 46 262T128 371T240 444T366 471Q388
471 402 468T424 460T435 447T441 431H448L466 461H608Q607 458 603 448L597 433H599Q634 454 667 462T725 471Q771 471 802 462T853 438T881 403T890 362ZM424 428Q424 439 420 443T408 447Q400 447 391 440T365 403Q350 374 329 329T287 235T253 144T239 77Q239
55 254 55Q268 55 281 74T305 113Q316 136 328 166T351 225Q375 287 389 324T411 382T421 412T424 428ZM740 433Q740 446 737 450T725 454Q711 454 695 434T664 380T636 305T612 221Q629 226 643 231T676 257Q688 270 699 293T720 343T734 393T740 433Z" />
<glyph unicode="&#x1fe;" glyph-name="Oslashacute" horiz-adv-x="770" d="M421 600Q403 562 384 501T346 370T314 234T292 119L537 609Q534 626 523 638T490 650Q461 650 446 635T421 600ZM332 5Q364 5 379 22T407 67Q425 110 445 174T484 308T515 444T535 556L285
58V57Q285 35 296 20T332 5ZM354 -14Q301 -14 255 -2L226 -60L206 -52L234 5Q147 34 97 106T47 282Q47 328 58 373T92 461T152 542T241 611Q269 627 299 638T360 657T420 667T475 670Q520 670 562 659L591 717L611 708L583 653Q628 637 664 610T725 546T764 466T778
374Q778 268 728 183T587 44Q561 28 531 17T470 -1T409 -11T354 -14ZM356 694L484 813Q501 829 523 841T572 854Q610 854 627 833T645 785Q645 744 619 725T546 701L359 683L356 694Z" />
<glyph unicode="&#x1ff;" glyph-name="oslashacute" horiz-adv-x="610" d="M331 413Q323 397 313 366T291 296T268 216T247 137L392 390Q394 401 395 410T396 426Q396 454 372 454Q361 454 352 446T331 413ZM251 6Q265 6 274 12T292 37Q302 58 313 92T337 167T360
249T380 329L233 72Q231 60 230 51T229 36Q229 6 251 6ZM271 -11Q228 -11 191 -2L161 -55L143 -45L171 4Q136 16 107 35T58 81T27 140T17 209Q19 269 46 315T116 394Q161 428 221 449T353 471Q397 471 433 461L463 514L481 506L452 456Q520 433 563 382T606 259Q606
199 577 149T503 64Q460 31 399 10T271 -11ZM545 604Q544 571 519 552T453 525L281 494L277 503L382 633Q398 652 419 667T472 682Q510 680 528 657T545 604Z" />
<glyph unicode="&#x218;" glyph-name="Scommaaccent" horiz-adv-x="590" d="M555 425H545Q545 479 533 529T489 612Q472 629 446 637T394 645Q353 645 334 626T314 578Q314 562 317 549T331 523T361 494T410 458Q460 423 491 394T541 337T565 281T572 219Q572
178 553 137T496 62T401 7T269 -14Q206 -14 159 9T79 75H74L-1 -3H-10L48 258H59Q74 130 130 69T268 8Q311 8 340 23T369 77Q369 93 366 105T349 133T309 169T236 226Q170 277 136 330T102 446Q102 549 175 609T387 669Q418 669 445 663T494 646T529 623T551 601H554L609
654H621L555 425ZM334 122Q334 85 315 59T265 13T193 -18T111 -39L108 -22Q158 -11 186 2T215 29Q215 37 211 41T194 47Q180 51 166 57T141 72T123 95T116 128Q116 168 145 191T223 214Q271 214 302 191T334 122Z" />
<glyph unicode="&#x219;" glyph-name="scommaaccent" horiz-adv-x="457" d="M456 380Q456 357 442 339T398 320Q340 320 335 384Q332 417 320 435T276 454Q229 454 229 422Q229 409 234 399T252 378T283 354T329 321Q358 300 378 282T410 244T427 206T432 162Q432
118 413 86T361 32T281 0T180 -11Q87 -11 39 18T-9 95Q-9 118 5 138T54 158Q87 158 103 140T120 93Q121 76 122 61T126 35Q131 22 145 15T187 7Q215 7 233 16T252 46Q252 68 238 83T190 123L148 154Q126 171 108 191T77 237T65 296Q65 342 85 375T136 429T207 461T286
471Q364 471 410 447T456 380ZM280 -120Q280 -157 261 -183T211 -229T139 -260T57 -281L54 -264Q104 -253 132 -240T161 -213Q161 -205 157 -201T140 -195Q126 -191 112 -185T87 -170T69 -147T62 -114Q62 -74 91 -51T169 -28Q217 -28 248 -51T280 -120Z" />
<glyph unicode="&#x21a;" glyph-name="uni021A" horiz-adv-x="761" d="M797 386H784Q783 403 778 427T765 479T747 532T726 580Q713 604 692 618T638 633H624L490 95Q487 83 485 75T483 57Q483 31 499 22T546 11L544 0H130L132 11Q140 12 150 13T172 18Q190 25
204 35T227 76L365 633H342Q321 633 296 622T239 575Q218 552 196 528T152 479T111 431T76 386H64L152 657H841L797 386ZM405 -134Q405 -171 386 -197T336 -243T264 -274T182 -295L179 -278Q229 -267 257 -254T286 -227Q286 -219 282 -215T265 -209Q251 -205 237
-199T212 -184T194 -161T187 -128Q187 -88 216 -65T294 -42Q342 -42 373 -65T405 -134Z" />
<glyph unicode="&#x21b;" glyph-name="uni021B" horiz-adv-x="411" d="M244 69Q244 61 248 58T259 55Q267 55 279 61T306 79T334 105T362 135L373 127Q323 57 257 23T116 -11Q72 -11 45 13T18 79Q18 105 29 141T59 226L140 434H58L68 462H151L196 580H423L379
462H491L481 434H369L295 230Q269 158 257 122T244 69ZM444 -120Q444 -157 425 -183T375 -229T303 -260T221 -281L218 -264Q268 -253 296 -240T325 -213Q325 -205 321 -201T304 -195Q290 -191 276 -185T251 -170T233 -147T226 -114Q226 -74 255 -51T333 -28Q381
-28 412 -51T444 -120Z" />
<glyph unicode="&#x237;" glyph-name="uni0237" horiz-adv-x="387" d="M295 118Q256 28 218 -30T141 -121Q99 -157 32 -185T-118 -213Q-194 -213 -234 -183T-274 -105Q-274 -72 -248 -45T-176 -18Q-133 -18 -109 -42T-84 -100Q-84 -121 -93 -137T-114 -165Q-119
-170 -122 -173T-126 -182Q-126 -193 -110 -193Q-96 -193 -82 -186T-51 -152Q-43 -139 -30 -109T-2 -39T29 45T60 129T86 202T103 251Q109 266 116 285T131 322T144 357T149 383Q149 402 134 402Q117 402 92 381T47 326L33 335Q76 404 136 437T268 471Q322 471
349 446T376 376Q376 331 356 271T295 118Z" />
<glyph unicode="&#x2c6;" glyph-name="circumflex" horiz-adv-x="400" d="M410 485L296 565L120 485L114 494L260 668H360L420 491L410 485Z" />
<glyph unicode="&#x2c7;" glyph-name="caron" horiz-adv-x="400" d="M170 678L284 598L460 678L466 669L320 495H220L160 672L170 678Z" />
<glyph unicode="&#x2d8;" glyph-name="breve" horiz-adv-x="400" d="M184 658Q195 626 221 611T295 595Q314 595 334 599T374 612T410 632T439 659L449 653Q429 569 385 531T279 493Q223 493 196 528T168 620Q168 625 168 635T171 654L184 658Z" />
<glyph unicode="&#x2d9;" glyph-name="dotaccent" horiz-adv-x="400" d="M402 574Q402 533 372 509T291 485Q241 485 211 509T180 573Q180 612 210 637T291 662Q341 662 371 638T402 574Z" />
<glyph unicode="&#x2da;" glyph-name="ring" horiz-adv-x="400" d="M363 587Q363 615 350 634T305 654Q273 654 260 635T247 587Q247 558 260 539T305 519Q337 519 350 538T363 587ZM406 587Q406 566 398 549T377 519T345 499T305 492Q261 492 233 518T204 587Q204
627 232 654T305 682Q350 682 378 656T406 587Z" />
<glyph unicode="&#x2db;" glyph-name="ogonek" horiz-adv-x="400" d="M1 -130Q1 -107 19 -90T72 -57T155 -27T263 6H284Q265 -7 245 -23T209 -57T182 -96T171 -141Q171 -171 187 -185T230 -202L227 -212Q164 -215 121 -210T52 -194T13 -167T1 -130Z" />
<glyph unicode="&#x2dc;" glyph-name="tilde" horiz-adv-x="400" d="M461 651Q451 618 439 591T411 543T372 512T320 500Q298 500 279 505T242 517T207 528T173 534Q155 534 140 526T113 491L97 494Q107 526 119 553T149 601T190 632T243 644Q261 644 279 639T314
627T348 616T379 610Q399 610 416 619T445 656L461 651Z" />
<glyph unicode="&#x2dd;" glyph-name="hungarumlaut" horiz-adv-x="400" d="M254 681Q286 681 306 663T327 613Q328 582 308 560T255 526L125 483L117 489L166 602Q172 615 179 629T196 654T221 673T254 681ZM462 681Q494 681 514 663T535 613Q536 581 516 559T463
526L333 483L325 489L374 602Q380 615 387 629T405 655T429 673T462 681Z" />
</font>
</defs>
</svg>
