<?xml version="1.0" standalone="no"?> <!DOCTYPE svg PUBLIC "-//W3C//DTD SVG 1.0//EN" "http://www.w3.org/TR/2001/REC-SVG-20010904/DTD/svg10.dtd" > <svg xmlns="http://www.w3.org/2000/svg" width="100%" height="100%">
<defs >
<font horiz-adv-x="593" ><font-face
    font-family=""
    units-per-em="1000"
    panose-1="2 2 11 3 7 7 2 3 4 3"
    ascent="787"
    descent="-213"
    alphabetic="0" />
<missing-glyph horiz-adv-x="100" />
<glyph unicode=" " glyph-name="space" horiz-adv-x="145" />
<glyph unicode="!" glyph-name="exclam" horiz-adv-x="320" d="M271 86Q271 42 241 15T157 -13Q105 -13 75 15T45 86Q45 127 76 155T159 184Q213 184 242 156T271 86ZM160 671Q202 671 229 660T273 632T296 595T303 554Q303 532 297 512T280 467T254 413T218 343Q207
322 200 307T188 278T178 252T169 226H152Q147 240 143 252T134 278T121 307T103 344Q83 384 67 413T40 467T23 511T17 554Q17 573 23 594T46 632T90 660T160 671Z" />
<glyph unicode="&quot;" glyph-name="quotedbl" horiz-adv-x="465" d="M245 583Q245 599 251 615T269 643T299 664T344 672Q370 672 389 665T420 645T439 616T445 583Q445 565 441 547T429 509T414 473T400 441Q385 407 373 379T350 324H337Q326 350 315 377T290
439Q276 473 261 509T245 583ZM119 672Q145 672 164 665T195 645T214 616T220 583Q220 565 216 547T204 509T189 473T175 441Q163 412 149 379T125 324H113Q102 350 91 377T65 439Q51 473 36 509T20 583Q20 599 26 615T44 643T74 664T119 672Z" />
<glyph unicode="#" glyph-name="numbersign" horiz-adv-x="604" d="M414 426H228L194 235H382L414 426ZM152 0H131L167 199H16V235H173L206 426H54V462H212L246 656H267L233 462H421L454 656H475L442 462H588V426H436L403 235H551V199H396L362 0H341L375 199H188L152 0Z" />
<glyph unicode="$" glyph-name="dollar" horiz-adv-x="600" d="M569 219Q569 157 547 113T488 40T404 -3T306 -20V-114H285V-21Q210 -21 159 -10T77 21T32 67T18 123Q18 170 46 194T113 219Q159 219 186 192T213 116Q213 103 210 90T207 58Q207 32 225 17T285
2V182L232 210Q176 238 137 264T74 318T38 378T26 452Q26 504 44 544T96 613T178 657T285 676V754H306V677Q376 676 423 668T500 644T542 605T555 553Q555 505 528 483T465 461Q422 461 400 486T377 552Q377 566 377 575T378 591Q378 610 372 622T356 641T332 652T306
655V492Q305 493 313 488T332 477T351 466T359 461Q411 430 450 406T516 356T556 298T569 219ZM285 654Q247 649 233 632T218 588Q218 560 235 542T285 505V654ZM375 72Q375 94 368 110T349 137T327 157T306 171V3Q341 8 358 26T375 72Z" />
<glyph unicode="%" glyph-name="percent" horiz-adv-x="822" d="M613 329Q590 329 584 293T578 168Q578 80 584 43T613 6Q635 6 641 43T648 168Q648 256 642 292T613 329ZM820 168Q820 126 802 93T754 36T687 1T612 -12Q566 -12 528 0T463 36T421 92T406 167Q406
211 424 245T472 301T538 335T613 347Q659 347 697 335T762 299T805 242T820 168ZM591 685L610 676L236 -14L217 -5L591 685ZM419 504Q419 462 401 429T352 372T285 337T210 324Q164 324 126 336T61 372T19 428T4 503Q4 547 22 581T70 637T136 671T211 683Q257
683 295 671T360 635T403 578T419 504ZM211 666Q188 666 182 629T176 504Q176 416 182 379T211 342Q234 342 240 379T247 504Q247 592 241 629T211 666Z" />
<glyph unicode="&amp;" glyph-name="ampersand" horiz-adv-x="772" d="M551 -15Q519 -15 494 -14T450 -8Q412 1 390 25Q362 6 325 -5T240 -16Q195 -16 152 -5T75 27T20 81T-1 155Q-1 189 15 214T57 259T118 293T190 321Q182 332 174 342T159 363Q145 383 131 414T116
494Q116 533 133 565T183 620T262 657T364 670Q447 670 491 646T537 570Q537 553 529 536T507 504T476 474T439 449Q459 429 478 409T511 367Q532 334 548 298T577 226Q583 233 588 245T598 271T605 300T608 330Q608 356 594 378T563 409Q555 414 544 417T523 422V433H760V422Q748
419 740 416T724 408Q708 399 698 390T679 369Q662 348 651 322T626 266Q615 239 606 224T589 198Q601 168 613 143T642 97Q653 83 669 73T714 62Q741 62 757 73T783 93L792 81Q781 62 761 45T710 14T640 -7T551 -15ZM422 466Q445 486 456 514T468 572Q468 601
451 622T401 643Q375 643 358 626T340 585Q340 568 347 553T365 524T391 495T422 466ZM209 297Q198 281 191 261T184 211Q184 174 193 143T221 89T268 53T334 40Q353 40 373 45Q362 59 353 74T336 104Q322 130 306 160T264 227Q253 244 238 261T209 297Z" />
<glyph unicode="&apos;" glyph-name="quotesingle" horiz-adv-x="240" d="M119 672Q145 672 164 665T195 645T214 616T220 583Q220 565 216 547T204 509T190 473T175 441Q161 410 148 379T125 324H113Q102 350 91 377T65 439Q51 473 36 509T20 583Q20 599 26 615T44
643T74 664T119 672Z" />
<glyph unicode="(" glyph-name="parenleft" horiz-adv-x="352" d="M340 -109Q282 -87 227 -57T128 18T59 128T32 283Q32 368 59 431T130 542T229 621T340 676L348 671Q312 602 296 501T280 283Q280 166 296 66T348 -104L340 -109Z" />
<glyph unicode=")" glyph-name="parenright" horiz-adv-x="352" d="M4 -104Q39 -35 55 65T72 282Q72 399 56 500T4 671L12 676Q67 654 122 622T221 542T292 431T319 282Q319 192 293 128T223 19T125 -57T12 -109L4 -104Z" />
<glyph unicode="*" glyph-name="asterisk" horiz-adv-x="464" d="M283 307Q283 288 271 274T231 260Q206 260 194 274T181 307Q181 323 186 337T200 368T216 406T230 457Q213 431 204 411T189 373T176 342T159 318Q145 304 126 304T89 320Q73 336 73 355T87 388Q98
399 112 405T143 418T182 433T228 460Q198 454 176 446T138 431T107 418T77 412Q58 412 44 424T30 463Q30 488 44 500T77 513Q92 513 106 508T137 494T176 478T228 464Q202 481 181 490T143 506T112 518T87 535Q73 549 73 568T89 605Q106 622 126 621T159 608Q170
597 176 583T188 551T203 513T230 467Q224 497 216 519T200 557T187 588T181 617Q181 636 193 650T232 665Q258 665 270 651T283 617Q283 602 278 588T264 557T248 518T234 466Q251 491 260 512T276 551T288 582T306 607Q320 621 339 621T375 605Q389 591 390 570T377
535Q366 524 352 518T321 506T283 491T237 464Q267 470 289 478T327 494T358 507T387 513Q406 513 420 501T435 462Q434 436 421 424T388 412Q372 412 358 417T327 431T289 447T237 461Q262 443 283 434T321 419T352 406T377 388Q391 375 391 356T375 319Q358 303
339 303T306 317Q295 328 289 342T276 373T261 412T234 457Q240 427 248 405T264 367T277 336T283 307Z" />
<glyph unicode="+" glyph-name="plus" horiz-adv-x="461" d="M255 239V63H207V239H32V283H207V461H255V283H430V239H255Z" />
<glyph unicode="," glyph-name="comma" horiz-adv-x="277" d="M258 76Q258 35 242 -1T199 -68T137 -119T62 -152L58 -136Q89 -124 110 -110T143 -81T161 -53T167 -28Q167 -20 164 -16T149 -11Q108 -8 84 1T46 24T28 54T24 87Q24 114 34 133T62 164T100 181T144
187Q195 187 226 158T258 76Z" />
<glyph unicode="-" glyph-name="hyphen" horiz-adv-x="333" d="M60 200V316H273V200H60Z" />
<glyph unicode="." glyph-name="period" horiz-adv-x="272" d="M250 84Q250 42 219 15T135 -13Q82 -13 53 15T23 84Q23 125 54 153T137 182Q191 182 220 153T250 84Z" />
<glyph unicode="/" glyph-name="slash" horiz-adv-x="371" d="M17 -104L-25 -85L354 691L396 671L17 -104Z" />
<glyph unicode="0" glyph-name="zero" horiz-adv-x="739" d="M29 328Q29 415 58 479T135 586T244 649T369 670Q433 670 494 649T604 586T681 479T710 328Q710 241 681 177T605 70T496 7T369 -14Q304 -14 243 6T135 69T58 175T29 328ZM428 328Q428 424 425 486T415
584T397 634T369 648Q353 648 342 634T324 584T314 486T311 328Q311 231 314 169T323 72T341 23T369 9Q385 9 396 22T415 71T425 169T428 328Z" />
<glyph unicode="1" glyph-name="one" horiz-adv-x="432" d="M10 0V11Q22 13 33 15T53 20Q65 25 72 30T82 50Q86 66 86 89T87 134V566Q87 582 85 594Q83 610 78 617T64 628Q51 633 35 635T8 638V649Q9 649 27 649T73 651T137 653T208 657Q225 658 246 659T287 661T321
664T339 665Q346 665 346 658Q346 652 346 642T345 621T345 599T344 580V134Q344 112 344 92T350 54Q353 41 360 34T379 22Q388 18 398 16T423 11V0H10Z" />
<glyph unicode="2" glyph-name="two" horiz-adv-x="659" d="M558 0H38V20Q47 28 57 38T82 64T117 103T168 163Q193 193 228 232T294 319T348 422T371 539Q371 598 349 621T294 645Q272 645 253 631T221 593T199 538T191 471Q191 386 232 386Q243 386 251 391T266
403T277 419T285 433L298 428Q291 402 279 378T248 334T203 302T141 290Q115 290 92 298T52 325T24 371T13 437Q13 482 34 524T98 599T201 652T343 672Q483 672 555 626T627 501Q627 438 590 387T467 293Q452 285 433 277T386 257T319 230T226 193V187H427Q453
187 473 189T510 198T542 213T575 235Q595 250 611 264T636 290H647L558 0Z" />
<glyph unicode="3" glyph-name="three" horiz-adv-x="654" d="M302 -14Q226 -14 173 -3T87 29T39 77T24 138Q24 186 56 218T139 250Q164 250 184 242T218 218T239 184T247 142Q247 98 228 63Q222 52 220 47T217 33Q217 14 252 14Q268 14 286 27T319 67T344 132T354
219Q354 255 350 276T340 308T324 322T302 325Q284 325 272 320T246 306L200 279L188 295L239 326Q269 344 288 368T319 421T335 482T340 546Q340 597 323 620T273 644Q238 644 214 617T189 533Q189 491 202 474T238 456Q253 456 264 466T280 488L291 482Q285 459
272 438T241 399T198 372T145 361Q94 361 65 391T35 472Q35 515 56 551T115 613T208 655T330 670Q386 670 433 662T515 638T569 595T588 532Q588 493 571 465T520 416T439 383T330 361V358Q383 362 437 357T534 332T605 277T633 187Q633 135 608 97T538 35T433
-2T302 -14Z" />
<glyph unicode="4" glyph-name="four" horiz-adv-x="675" d="M259 232V541H256L27 232H259ZM592 0H182V11Q193 13 203 14T223 19Q247 27 254 58Q258 75 258 93T259 134V213H5V236L315 657H515Q518 657 518 654Q518 643 517 627T516 591V232H533Q572 232 587 244T611
268Q622 283 631 309T643 354H653V90H643Q640 108 631 132T610 174Q606 179 601 185T588 198T566 208T533 212H516V133Q516 111 516 93T520 55Q522 42 529 35T550 21Q559 16 571 14T592 11V0Z" />
<glyph unicode="5" glyph-name="five" horiz-adv-x="599" d="M247 -16Q181 -16 135 -4T60 28T17 76T3 134Q3 181 31 211T112 242Q157 242 183 213T210 142Q210 122 206 106T191 66Q183 48 180 39T176 21Q176 5 210 5Q227 5 243 19T271 60T290 124T298 207Q298
249 287 275T260 315T226 333T193 338Q164 338 144 323T108 279L90 283L177 654H189Q203 647 224 641T272 630T328 622T385 619Q424 619 453 627T502 649T533 676T549 702L560 699Q553 642 536 593T488 508T410 452T297 431Q248 431 210 437T148 452L120 327L123
326Q133 339 152 350T195 369T250 382T313 387Q439 387 506 337T574 200Q574 137 546 95T471 29T366 -6T247 -16Z" />
<glyph unicode="6" glyph-name="six" horiz-adv-x="670" d="M641 552Q641 507 612 479T535 451Q506 451 486 459T454 481T436 510T430 541Q430 558 434 573T444 599Q453 616 458 626T463 645Q463 650 459 652T448 655Q415 655 390 631T346 569T319 489T307 407H311Q328
418 353 423T404 428Q453 428 498 418T577 384T631 321T651 224Q651 167 628 123T565 48T470 1T354 -16Q279 -16 219 5T118 65T55 161T33 288Q33 385 69 457T164 577T298 648T452 672Q504 672 540 663T598 638T631 600T641 552ZM353 402Q341 402 332 397T316 371T305
311T301 204Q301 135 305 96T317 36T334 11T353 6Q361 6 369 11T385 37T396 97T401 207Q401 275 398 314T389 372T374 397T353 402Z" />
<glyph unicode="7" glyph-name="seven" horiz-adv-x="537" d="M557 650Q500 569 466 486T413 329T386 199T371 114Q355 53 323 19T229 -16Q197 -16 172 -7T129 19T102 56T93 101Q93 155 119 195T201 274Q267 322 327 365T427 448V450H172Q149 450 129 448T91 436Q50
417 28 355H17L94 692H106Q112 678 125 667T170 656H557V650Z" />
<glyph unicode="8" glyph-name="eight" horiz-adv-x="607" d="M586 246Q586 185 564 137T503 54T411 2T295 -16Q232 -16 182 -6T95 25T40 73T21 138Q21 190 58 220T154 270Q104 304 76 345T47 449Q47 495 65 535T117 606T201 654T314 672Q359 672 399 666T468
647T515 611T533 557Q533 538 524 523T499 494T463 471T422 454Q456 438 486 419T538 376T573 320T586 246ZM397 465Q411 482 421 504T431 547Q431 597 405 624T311 651Q263 651 239 635T214 593Q214 571 228 555T266 525T320 499T381 473Q385 471 388 470T397
465ZM144 150Q144 109 158 81T194 36T243 12T297 5Q321 5 343 9T382 23T410 49T420 91Q420 112 412 127T382 157T324 189T232 230Q204 241 178 255Q159 235 152 208T144 150Z" />
<glyph unicode="9" glyph-name="nine" horiz-adv-x="666" d="M315 252Q327 252 337 258T353 284T364 344T368 452Q368 521 364 560T352 620T335 645T316 650Q308 650 300 645T284 619T273 559T268 449Q268 381 270 342T279 283T294 258T315 252ZM45 107Q45 152
74 180T151 208Q180 208 200 200T232 178T250 149T256 118Q256 101 252 86T242 60Q233 43 228 33T222 14Q222 8 227 6T238 3Q268 3 290 24T328 79T352 157T362 246H358Q326 225 267 225Q217 225 173 235T94 271T39 336T19 437Q19 492 42 535T105 609T199 656T315
672Q391 672 451 651T552 590T614 495T636 370Q636 267 603 194T517 74T396 6T257 -16Q200 -16 160 -7T94 19T57 58T45 107Z" />
<glyph unicode=":" glyph-name="colon" horiz-adv-x="272" d="M250 377Q250 335 219 307T135 279Q82 279 53 307T23 377Q23 417 54 445T137 474Q191 474 220 445T250 377ZM250 84Q250 42 219 14T135 -14Q82 -14 53 14T23 84Q23 125 54 153T137 182Q191 182 220
153T250 84Z" />
<glyph unicode=";" glyph-name="semicolon" horiz-adv-x="277" d="M259 76Q259 35 243 -1T200 -68T138 -119T64 -152L59 -136Q90 -124 111 -110T144 -81T162 -53T168 -28Q168 -20 165 -16T150 -11Q109 -8 85 1T47 24T29 54T25 87Q25 114 35 133T63 164T101 181T145
187Q196 187 227 158T259 76ZM251 377Q251 335 220 307T137 279Q84 279 54 307T24 377Q24 417 55 445T139 474Q193 474 222 445T251 377Z" />
<glyph unicode="&lt;" glyph-name="less" horiz-adv-x="396" d="M25 245V278L351 430V384L91 262L351 140V94L25 245Z" />
<glyph unicode="=" glyph-name="equal" horiz-adv-x="433" d="M32 310V353H402V310H32ZM32 164V207H402V164H32Z" />
<glyph unicode="&gt;" glyph-name="greater" horiz-adv-x="396" d="M45 94V140L305 262L45 384V430L371 278V245L45 94Z" />
<glyph unicode="?" glyph-name="question" horiz-adv-x="560" d="M315 85Q315 41 284 14T201 -14Q148 -14 118 14T88 85Q88 126 119 154T203 183Q257 183 286 155T315 85ZM546 471Q546 421 525 386T471 327T396 293T312 282Q274 282 248 287T202 302H200V219H179V324L191
332Q197 327 205 323T227 319Q243 319 254 334T273 377T284 443T288 528Q288 598 276 624T247 651Q239 651 236 647T230 632T227 606T224 564Q219 504 193 464T116 424Q63 424 36 453T8 526Q8 560 26 587T76 633T154 662T255 672Q300 672 336 666T404 649Q470 628
508 583T546 471Z" />
<glyph unicode="@" glyph-name="at" horiz-adv-x="905" d="M888 285Q888 221 867 167T807 72T712 9T584 -14Q532 -14 510 6T488 50Q488 64 489 72T492 87H489Q481 71 474 59T456 36Q431 9 402 -2T335 -14Q285 -14 257 19T228 103Q228 165 254 218T323 312T420
374T528 397Q566 397 580 388T599 366H603L611 378Q615 383 620 389H788Q783 373 775 350T759 302T741 249T723 198Q704 141 695 112T685 68Q685 44 703 44Q740 44 771 64T824 118T858 195T870 285Q870 353 845 403T776 487T671 537T537 554Q450 554 378 520T253
429T172 296T143 140Q143 59 166 -1T232 -100T338 -159T479 -179Q534 -179 583 -170T675 -146T751 -113T809 -76L816 -89Q795 -106 761 -124T683 -159T587 -185T477 -195Q370 -195 286 -172T143 -105T53 -1T22 138Q22 236 64 315T177 451T341 539T537 570Q616 570
681 551T792 496T863 406T888 285ZM576 360Q576 376 563 376Q558 376 549 370T524 336Q511 312 493 272T459 191T431 114T419 62Q419 43 433 43Q439 43 444 47T456 60Q468 73 477 92Q487 112 497 137T517 187Q525 206 530 221T541 251Q553 282 560 301T570 331T575
349T576 360Z" />
<glyph unicode="A" glyph-name="A" horiz-adv-x="683" d="M210 358H206L135 169H274L210 358ZM-26 11Q-18 13 -6 16T16 26Q26 32 34 40T54 63Q66 80 79 105T101 153L299 662H386L559 205Q570 176 578 157T592 122T605 95T620 70Q632 52 642 41T666 23Q675 18 686
16T707 11V0H226V11Q237 13 248 16T266 22Q280 27 290 37T301 68Q301 86 297 100T287 135L281 148H127L121 133Q115 119 111 106T107 75Q107 59 113 44T134 22Q143 17 156 15T178 11V0H-26V11Z" />
<glyph unicode="B" glyph-name="B" horiz-adv-x="756" d="M16 11Q24 12 33 13T54 18Q73 25 83 44Q88 52 90 64T93 103V555Q93 581 90 594T82 616Q70 632 54 639Q43 643 34 644T16 646V657H469Q516 657 559 650T634 624T686 576T705 500Q705 440 671 408T571 362Q554
359 540 358T498 355V354Q613 345 676 305T739 183Q739 133 719 99T664 42T585 10T491 0H16V11ZM376 364Q398 364 414 366T441 383Q448 394 452 410T459 445T461 480T462 511Q462 551 457 576T442 614T422 633T401 638H376Q369 638 366 638T359 634Q354 629 354
620T353 602V364H376ZM408 22Q442 22 452 45Q463 71 466 104T470 193Q470 238 461 271T430 324Q419 334 403 338T369 342H353V92Q353 75 355 60T366 33Q373 22 397 22H408Z" />
<glyph unicode="C" glyph-name="C" horiz-adv-x="679" d="M429 651Q400 651 385 643T362 625Q336 594 323 520T309 346Q309 254 321 185T368 80Q390 57 412 49T468 40Q498 40 524 54T572 90T611 141T641 197L664 187Q647 146 625 109T569 45T490 1T379 -16Q318
-16 256 1T144 58T62 164T30 328Q30 412 60 476T143 583T264 649T413 672Q473 672 516 657T588 604H592L631 666H639V435H629Q617 480 601 519T561 588T505 634T429 651Z" />
<glyph unicode="D" glyph-name="D" horiz-adv-x="784" d="M426 657Q483 657 531 649T618 617Q651 597 677 568T723 502T752 422T762 333Q762 290 754 248T729 167T687 96T625 41Q596 23 562 12T482 0H16V11Q24 12 33 13T54 18Q72 26 82 42Q87 50 90 63T93 103V555Q93
584 91 595T83 614Q77 623 71 629T54 639Q43 643 34 644T16 647V657H426ZM394 22Q414 22 430 32T455 67Q466 101 472 164T478 333Q478 412 473 477T456 582Q447 615 428 625T386 636H382Q369 636 365 634T357 627Q353 620 353 610T352 581V99Q352 74 352 62T355
43Q361 22 393 22H394Z" />
<glyph unicode="E" glyph-name="E" horiz-adv-x="704" d="M652 0H16V11Q24 12 33 13T54 18Q72 26 82 41Q87 49 90 63T93 103V555Q93 578 91 590T84 610Q74 632 54 639Q43 643 34 644T16 646V657H635L655 405H644Q630 424 613 448T577 497T540 544T507 582Q493
597 482 607T458 623T431 633T399 636H391Q372 636 365 634T354 623Q352 618 352 590V352H378Q420 352 453 385Q473 405 487 429T512 482H523V200H512Q499 230 487 251T451 299Q434 317 418 323T378 330H352V104Q352 83 352 72T356 49Q359 38 370 30T406 22H410Q421
22 431 24T452 34T476 54T508 88Q524 107 543 132T581 187T619 246T652 304H662L652 0Z" />
<glyph unicode="F" glyph-name="F" horiz-adv-x="683" d="M441 0H16V11Q24 12 34 13T54 18Q64 21 70 26T82 40Q88 48 90 62T93 103V555Q93 581 91 595T82 617Q76 625 70 630T54 639Q44 643 34 644T16 646V657H646L672 381H660Q645 403 628 427L595 475Q579 499
563 521T532 561Q515 582 502 596T475 620T446 632T410 636H388Q363 636 358 626T352 598V360H373Q395 360 412 367T447 392Q467 412 481 436T507 489H518V208H507Q494 237 482 258T446 307Q429 325 412 331T372 338H352V105Q352 79 353 67T359 46Q364 38 368 34T380
25Q390 19 407 17T441 12V0Z" />
<glyph unicode="G" glyph-name="G" horiz-adv-x="747" d="M440 183Q440 206 439 221T436 247T430 264T423 277Q410 296 382 306Q375 308 369 309T355 311V321H739V311Q728 310 717 308T695 298Q687 293 679 282T666 249Q663 235 663 218V64Q646 54 621 43T541
15Q528 10 505 5T457 -5T406 -13T364 -16Q287 -16 224 9T117 80T48 189T23 329Q23 401 50 463T127 571T243 643T388 670Q430 670 460 661T512 639T546 612T567 589H573L608 645H617V418H609Q597 461 579 501T535 573Q509 606 480 627T407 649Q383 649 369 637T343
604Q335 588 327 560T312 495T301 417T297 329Q297 255 298 200T308 102Q316 48 330 26T373 3Q393 3 403 7T424 21Q433 32 436 52T440 112V183Z" />
<glyph unicode="H" glyph-name="H" horiz-adv-x="836" d="M405 0H16V11Q24 12 33 13T54 18Q68 23 79 37Q87 45 90 61T93 112V545Q93 579 90 594T81 617Q70 633 54 639Q43 643 34 644T16 646V657H406V646Q400 645 393 644T378 638Q366 631 359 617Q355 609 354
594T352 545V344H484V545Q484 578 483 592T477 615Q473 623 469 628T458 638Q450 642 443 643T430 646V657H820V646Q812 645 803 644T782 639Q767 634 756 619Q749 611 746 596T743 545V112Q743 78 746 63T755 39Q761 31 767 26T782 18Q793 14 802 13T820 11V0H430V11Q436
12 443 13T458 19Q464 22 467 26T475 37Q480 45 482 60T484 112V316H352V112Q352 76 353 61T360 37Q368 24 378 19Q386 15 392 14T405 11V0Z" />
<glyph unicode="I" glyph-name="I" horiz-adv-x="454" d="M356 123Q356 81 359 63T369 37Q375 29 381 26T397 19Q408 15 419 14T438 11V0H16V11Q24 12 35 13T56 19Q66 22 72 25T85 37Q91 45 94 63T97 123V525Q97 549 97 564T95 590T92 607T87 617Q81 627 74 630T56
638Q46 642 35 643T16 646V657H438V646Q430 645 419 644T397 638Q386 634 379 630T366 614Q364 610 362 604T359 588T357 563T356 525V123Z" />
<glyph unicode="J" glyph-name="J" horiz-adv-x="624" d="M282 535Q282 567 280 585T272 611Q261 631 241 638Q230 642 220 643T201 646V657H627V646Q619 645 608 644T586 638Q575 634 569 628T555 610Q550 602 548 585T546 535V284Q546 231 540 193T523 126T497
79T461 43Q423 13 366 0T242 -14Q189 -14 147 -6T72 23Q43 41 23 72T3 143Q3 196 34 228T119 261Q168 261 196 234T226 159Q228 137 224 116T211 73Q202 51 200 45T198 30Q198 22 210 17T239 11Q254 11 264 19T277 49Q278 55 279 67T280 93T281 123T282 151V535Z"
/>
<glyph unicode="K" glyph-name="K" horiz-adv-x="782" d="M12 0V11Q20 12 30 13T52 19Q61 22 67 26T80 38Q86 46 89 62T93 113V555Q93 602 82 616Q70 631 52 638Q41 642 31 643T12 646V657H425V646Q417 645 408 644T388 638Q380 633 374 630T362 617Q352 603 352
555V321L497 511Q523 546 534 566T545 602Q545 619 538 626T518 638Q510 641 500 642T480 646V657H731V646Q714 642 687 634T637 613Q627 607 618 602T599 588T576 567T548 533L449 401V396Q503 390 548 377T631 332Q664 304 684 260T716 161Q723 126 729 104T742
68T755 46T770 31Q781 22 796 18T823 11V0H499Q486 14 472 46T453 137Q451 165 451 188T449 232T444 268T431 298Q423 306 416 311T398 317Q375 317 360 299L352 290V113Q352 79 354 62T363 37Q368 29 374 26T388 19Q398 15 407 14T425 11V0H12Z" />
<glyph unicode="L" glyph-name="L" horiz-adv-x="693" d="M16 11Q25 12 34 14T52 18Q69 23 78 32T95 56Q106 81 107 117T109 216V441Q109 500 107 537T95 598Q88 615 77 624T49 640Q34 644 17 646V657H461V646Q450 644 444 643T429 640Q396 630 383 598Q374 574
371 537T368 441V175Q368 137 368 107T374 60Q376 51 378 46T386 34Q391 27 400 25T422 22H423Q440 22 455 29T493 66Q512 91 534 124T577 190T616 252T646 299H656L646 0H16V11Z" />
<glyph unicode="M" glyph-name="M" horiz-adv-x="885" d="M869 646Q862 646 853 646T834 643Q820 639 811 631T794 601Q789 585 789 569T788 534V83Q788 65 790 60Q795 37 806 28T834 15Q843 13 850 13T869 11V0H451V11Q456 11 465 11T482 14Q497 17 507 27T524
59Q526 65 527 83T529 140V521H524L380 -1H306L143 502H137V167Q137 129 141 101T153 56Q161 39 171 31T196 17Q203 15 214 14T234 11V0H16V11Q23 12 33 13T50 17Q64 22 74 30T93 55Q101 72 106 100T112 167V458Q112 509 110 543T98 598Q82 633 50 641Q42 643 36
643T16 646V657H369L453 376H457L538 657H869V646Z" />
<glyph unicode="N" glyph-name="N" horiz-adv-x="726" d="M540 0L142 497H137V167Q137 90 153 56Q167 25 196 17Q204 15 215 14T237 11V0H14V11Q21 12 32 13T50 17Q64 21 75 29T94 55Q102 72 107 100T112 167V461Q112 560 90 594Q79 611 69 620T35 637Q26 640
16 642T-3 647V657H347L605 346H607V491Q607 536 602 561T589 603Q581 619 570 627T545 640Q537 642 527 643T509 646V657H730V646Q721 645 710 644T691 640Q663 632 649 601Q641 585 637 561T632 491V0H540Z" />
<glyph unicode="O" glyph-name="O" horiz-adv-x="772" d="M386 670Q466 670 532 647T646 581T720 474T746 330Q746 249 720 185T647 77T533 9T386 -14Q306 -14 240 9T127 76T53 185T26 330Q26 411 52 474T126 580T240 647T386 670ZM386 6Q407 6 417 15T433 36Q442
53 452 125T463 328Q463 458 453 531T433 621Q427 633 417 641T386 650Q365 650 355 642T339 621Q330 604 320 531T309 328Q309 198 319 126T339 36Q345 24 355 15T386 6Z" />
<glyph unicode="P" glyph-name="P" horiz-adv-x="742" d="M405 635Q391 635 384 633T372 624Q364 613 363 592T361 550V305Q363 304 368 303T381 302T394 301T405 300Q425 300 439 307T461 340Q471 372 473 410T476 481Q476 527 470 557T455 604T432 628T406 635H405ZM451
0H16V11Q25 12 32 13T47 16Q76 26 88 55Q96 77 98 111T101 190V468Q101 513 99 548T88 606Q82 621 72 628T49 641Q40 644 33 645T16 647V657H451Q594 657 662 615T731 479Q731 420 708 386T651 330Q633 319 613 310T566 293T500 282T407 278Q405 278 399 278T385
279T371 280T361 281V190Q361 145 362 111T374 54Q387 26 416 17Q426 14 433 13T451 11V0Z" />
<glyph unicode="Q" glyph-name="Q" horiz-adv-x="770" d="M594 -313Q533 -313 486 -291T392 -217Q360 -181 337 -156T295 -116T259 -93T220 -85Q209 -85 202 -89T194 -102Q194 -108 201 -112T222 -128Q247 -152 246 -194Q245 -230 224 -251T164 -272Q123 -272
102 -248T80 -185Q80 -156 91 -135T122 -98T166 -71T218 -49Q258 -36 287 -28T348 -11Q273 -6 213 19T112 88T48 192T26 330Q26 411 51 474T123 580T236 647T385 670Q468 670 534 647T647 581T719 474T744 330Q744 255 722 194T659 90T560 21T429 -10Q348 -28 299
-41T223 -66V-72Q239 -66 260 -62T303 -54T349 -50T393 -48Q438 -48 484 -53T572 -76Q603 -90 625 -100T664 -118T696 -128T726 -132Q751 -132 769 -119T799 -87L810 -92Q811 -116 803 -151T778 -215Q753 -262 704 -287T594 -313ZM307 328Q307 194 316 122T338
30Q346 17 355 12T385 6Q406 6 416 14T432 30Q444 50 453 122T463 328Q463 462 453 534T432 627Q426 638 416 644T385 650Q366 650 356 645T338 626Q327 606 317 534T307 328Z" />
<glyph unicode="R" glyph-name="R" horiz-adv-x="798" d="M379 636Q371 636 366 634T357 624T351 600T349 557V335H380Q401 335 417 341T442 368Q454 397 456 437T458 508Q458 552 453 577T439 616T419 632T397 636H379ZM424 0H13V11Q21 12 30 13T51 18Q69 25
80 41Q85 49 87 70T90 133V534Q90 575 88 591T80 616Q67 634 51 639Q40 643 31 644T13 646V657H435Q579 657 647 620T715 494Q715 432 681 397T596 344Q573 336 551 331T513 323V320Q542 318 577 312T642 293Q680 277 701 247T731 170Q742 111 750 78T771 27Q782
13 811 11V0H503Q489 20 482 52T469 138Q463 191 461 226T442 287Q429 306 412 308T375 311H349V133Q349 89 352 67T363 36Q372 24 388 18Q399 14 407 13T424 11V0Z" />
<glyph unicode="S" glyph-name="S" horiz-adv-x="602" d="M508 430Q503 444 498 454L489 474Q485 484 480 495T466 525Q437 578 401 612T312 646Q274 646 253 628T231 578Q231 553 240 536T267 505T310 481T365 456Q416 434 456 414T524 368T567 309T582 227Q582
166 560 121T499 47T407 3T291 -12Q222 -12 177 10T104 58H100L54 -4H41L36 260H51Q64 219 86 175T139 95T208 34T291 10Q329 10 355 26T381 77Q381 97 376 113T359 142T326 168T271 194Q224 212 182 234T109 286T58 354T39 444Q39 502 61 544T119 615T202 656T301
670Q331 670 353 666T393 654T423 637T449 617H453L502 655H515L521 430H508Z" />
<glyph unicode="T" glyph-name="T" horiz-adv-x="743" d="M501 143Q501 95 503 74T511 44Q521 25 540 18Q551 14 560 13T578 11V0H165V11Q173 12 183 13T204 18Q222 25 232 42Q238 50 240 72T242 143V634H234Q210 634 194 618T155 568Q122 516 92 461T39 365H27L35
657H709L717 365H704Q681 405 652 460T589 568Q566 602 550 618T509 634H501V143Z" />
<glyph unicode="U" glyph-name="U" horiz-adv-x="718" d="M630 222Q630 177 625 140T602 74Q591 56 575 40T533 13T473 -5T389 -12Q306 -12 239 7T130 80Q113 103 100 146T87 252V524Q87 563 85 583T78 611Q73 622 67 628T49 639Q38 643 29 644T11 646V657H424V646Q416
645 407 644T386 639Q365 631 356 609Q351 601 350 582T348 525V204Q348 159 353 136T364 101Q378 72 409 57T483 42Q529 42 554 63T589 118Q596 141 598 168T601 221V494Q601 541 597 564T584 603Q576 619 564 627T538 640Q525 644 503 646V657H729V646Q717 645
709 644T692 640Q681 637 669 628T648 602Q640 586 635 563T630 494V222Z" />
<glyph unicode="V" glyph-name="V" horiz-adv-x="700" d="M505 301H510L584 513Q592 536 595 550T598 575Q598 619 570 636Q560 642 550 644T532 647V657H722V647Q709 645 700 642T682 633Q664 621 649 592Q642 578 632 556T612 505L433 -1H319L135 477Q118 520
106 546T77 595Q53 628 31 638Q23 641 14 643T-4 646V657H474V647Q462 645 452 643T434 636Q421 629 413 619T404 584Q404 564 410 547T426 504L505 301Z" />
<glyph unicode="W" glyph-name="W" horiz-adv-x="1115" d="M564 492L419 -2H294L103 547Q89 580 78 597T52 625Q40 636 26 640T1 646V657H432V647Q410 644 401 636T392 604Q392 583 399 559T415 505L476 301H480L550 535L549 537Q548 541 546 547T542 558L541
563Q533 587 526 602T511 626T493 640T467 646V657H899V647Q871 643 857 634T842 595Q842 577 848 554T861 506L914 301H918L981 515Q987 535 991 551T995 583Q995 613 980 628T935 647V657H1118V647Q1093 641 1076 630T1044 596Q1035 581 1026 561T1007 507L855
-2H728L564 492Z" />
<glyph unicode="X" glyph-name="X" horiz-adv-x="704" d="M-11 11Q0 13 10 17T37 35Q42 40 48 45T63 59Q82 78 100 99T144 152L228 253L92 544Q79 570 69 587T47 616T20 635T-20 647V657H446V646Q415 644 399 631T382 596Q382 580 386 562T406 512L454 416L520
508Q537 532 548 552T559 590Q559 642 501 647V657H701V647Q656 635 622 597T551 507L468 392L594 123Q608 93 620 75T644 44T672 25T706 11V0H250V11Q280 13 296 25T313 55Q313 68 311 79T296 116L239 229L177 151Q157 126 147 108T136 63Q136 49 144 37T166 19Q173
16 179 14T194 11V0H-11V11Z" />
<glyph unicode="Y" glyph-name="Y" horiz-adv-x="661" d="M94 541Q82 568 71 586T48 617T21 636T-13 646V657H424V646Q399 644 381 635T363 596Q363 585 365 571T373 543L442 347H447L517 506Q531 537 537 557T543 597Q543 618 534 627T511 641Q501 644 496 644T485
646V657H670V646Q652 641 637 634T608 613T580 574T548 511L458 311V133Q458 92 460 71T469 42Q476 34 482 29T499 19Q509 15 520 14T539 11V0H117V11Q125 12 136 13T158 19Q167 22 173 27T186 40Q193 48 196 69T199 133V302L94 541Z" />
<glyph unicode="Z" glyph-name="Z" horiz-adv-x="696" d="M671 645L323 24H371Q401 24 423 30T464 48T498 75T528 109Q551 136 571 163T609 216T639 261T661 294H675L642 0H26V12L386 634H360Q333 634 313 631T275 620T241 602T206 576Q171 547 132 501T62 409H49L70
657H671V645Z" />
<glyph unicode="[" glyph-name="bracketleft" horiz-adv-x="376" d="M69 -98Q83 -64 100 -32T138 26T186 68T245 84Q269 84 290 77T328 54T354 17T364 -34Q364 -62 357 -82T341 -116T324 -137T311 -148H298Q301 -141 303 -135T305 -117Q305 -103 299 -94T284 -80T264
-73T243 -71Q211 -71 184 -77T131 -92T84 -112T40 -133V684Q61 674 85 664T136 644T188 629T241 623Q269 623 287 634T305 669Q305 681 303 687T298 699H311Q320 692 329 684T346 663T359 635T364 596Q364 564 355 540T330 500T297 476T260 468Q223 468 196 482T147
520T107 578T69 652V-98Z" />
<glyph unicode="\" glyph-name="backslash" horiz-adv-x="361" d="M7 691L385 -85L344 -104L-36 670L7 691Z" />
<glyph unicode="]" glyph-name="bracketright" horiz-adv-x="376" d="M307 652Q288 612 270 579T230 521T181 482T116 468Q98 468 80 476T46 500T22 540T12 596Q12 618 17 634T29 663T46 683T65 699H78Q76 694 74 688T71 669Q71 645 89 634T135 623Q161 623 187
629T240 644T290 663T336 684V-133Q315 -123 293 -112T245 -92T193 -77T133 -71Q123 -71 112 -73T92 -80T77 -94T71 -117Q71 -128 73 -134T78 -148H65Q61 -145 53 -138T35 -116T19 -82T12 -34Q12 -5 21 17T47 54T85 76T131 84Q163 84 189 68T237 27T276 -32T307
-98V652Z" />
<glyph unicode="^" glyph-name="asciicircum" horiz-adv-x="357" d="M168 657H189L331 404H278L178 579L79 404H26L168 657Z" />
<glyph unicode="_" glyph-name="underscore" horiz-adv-x="295" d="M-5 -174V-120H300V-174H-5Z" />
<glyph unicode="`" glyph-name="grave" horiz-adv-x="400" d="M68 611Q68 643 89 664T145 685Q180 685 203 663T245 612L319 498L312 489L154 525Q109 536 89 559T68 611Z" />
<glyph unicode="a" glyph-name="a" horiz-adv-x="588" d="M430 -7Q388 -7 370 -1T339 18Q323 34 319 65H315Q294 -9 178 -9Q105 -9 62 21T18 113Q18 139 25 161T50 199Q64 211 85 221T141 236Q188 244 219 250T269 264T296 285T306 318V395Q306 435 298 445T274
456Q259 456 248 454T236 438Q236 428 241 409T247 361Q247 312 221 290T148 267Q103 267 77 286T50 342Q50 393 89 423Q120 448 168 460T272 473Q353 473 403 459T481 424T519 378T529 332V121Q529 87 530 74T536 52Q540 44 548 40T566 36Q577 36 584 37T599 42L600
32Q589 21 547 7T430 -7ZM305 272Q300 267 295 265T277 254Q270 249 264 243T253 223Q249 210 248 193T246 143Q246 87 254 67T276 47Q290 47 297 57T305 83V272Z" />
<glyph unicode="b" glyph-name="b" horiz-adv-x="618" d="M328 428Q317 428 309 420T293 390Q286 369 284 338T281 274V156Q281 85 287 54Q292 29 301 20T320 10Q330 10 337 17T349 48T356 115T359 230Q359 296 357 335T352 394T342 421T328 428ZM277 684Q284
684 284 677Q284 660 283 629T281 561V414H284Q300 444 330 457T411 471Q446 471 480 458T542 418T587 349T604 247Q604 126 532 59T327 -9Q276 -9 232 7T160 61H157L51 0H41Q43 22 43 42T44 89V570Q44 597 44 614T41 642T36 658T26 667Q19 671 14 672T0 673V684H277Z"
/>
<glyph unicode="c" glyph-name="c" horiz-adv-x="531" d="M527 151Q519 123 505 95T464 43T397 6T300 -9Q238 -9 191 3T107 39Q60 70 36 117T11 224Q11 285 33 331T95 408T186 455T297 471Q332 471 358 468T403 461T435 451T458 441Q482 430 501 408T521 352Q521
329 513 313T492 286T461 270T424 265Q382 265 355 290T327 368Q326 406 322 430T299 454Q288 454 283 450T274 436Q266 419 262 375T258 238Q258 183 260 149T266 94T275 63T287 47Q297 37 310 30T349 23Q383 23 410 34T458 64T491 107T512 156L527 151Z" />
<glyph unicode="d" glyph-name="d" horiz-adv-x="621" d="M628 0H601Q579 0 548 0T481 -1T415 -2T364 -3H343Q338 -3 338 2V76H335Q324 33 300 12T225 -9Q183 -9 145 6T77 51T31 125T14 229Q14 280 29 324T72 400T136 452T218 471Q267 471 293 454T330 413H333V607Q333
635 331 643T325 657Q318 664 308 668T279 674V684H565Q571 684 571 680Q570 655 569 608T567 495V81Q567 65 569 54Q571 40 575 32T590 19Q599 14 609 12T628 9V0ZM333 327Q333 332 333 349T328 382Q323 401 314 414T291 428Q280 428 274 418T264 385T259 323T257
228Q257 166 258 128T263 69T273 41T290 33Q298 33 306 44T320 72T329 110T333 151V327Z" />
<glyph unicode="e" glyph-name="e" horiz-adv-x="544" d="M533 153Q525 126 510 97T469 45T402 6T304 -9Q235 -9 185 7T99 49Q54 81 33 127T11 226Q11 287 34 332T97 409T187 455T294 471Q354 471 399 454T474 409T519 344T534 269V257Q534 250 533 243H258Q258
192 259 158T264 102T272 68T283 49Q292 38 307 30T349 21Q386 21 414 34T464 67T498 111T518 159L533 153ZM313 262Q323 262 326 267T330 287Q330 341 330 377T322 437Q319 446 314 450T295 454Q276 454 270 436Q264 420 262 381T259 262H313Z" />
<glyph unicode="f" glyph-name="f" horiz-adv-x="401" d="M7 0V9Q27 11 34 14Q50 22 53 41Q57 61 57 124V434H-4V462H57V473Q59 526 80 569T140 641Q176 668 218 678T318 689Q369 689 405 683T465 666Q497 651 512 627T528 572Q528 537 506 515T445 492Q414 492
395 502T362 532Q355 542 351 555T342 581Q337 598 334 612T328 651Q326 665 323 667T315 670Q311 670 307 668T299 655Q293 632 293 553V462H378V434H293V103Q293 91 293 80T295 58T298 40Q303 21 314 16Q322 12 333 11T355 9V0H7Z" />
<glyph unicode="g" glyph-name="g" horiz-adv-x="590" d="M256 457Q247 457 241 453T230 434T223 392T221 320Q221 276 223 249T229 207T240 187T256 182Q265 182 271 187T282 207T289 249T291 320Q291 364 289 391T283 432T272 452T256 457ZM561 -2Q561 -49 535
-87T464 -154T357 -197T225 -213Q6 -213 6 -138Q6 -104 40 -86T139 -60V-56Q117 -52 97 -44T62 -21T37 13T28 59Q28 85 38 105T63 141T98 167T136 183V187Q113 194 93 205T58 232T35 269T26 319Q26 359 44 387T94 434T166 462T254 471Q302 471 347 461T422 427H427Q438
450 461 466T523 483Q571 483 590 462T609 410Q609 382 594 364T546 346Q516 346 501 361T478 405Q473 422 470 427T461 432Q452 432 448 427T443 413Q443 406 447 402T462 381Q470 367 475 354T481 321Q481 280 465 251T419 204T348 176T255 167Q218 167 196 170T154
178Q144 174 144 162Q144 136 196 136Q204 136 230 137T286 140T346 143T389 145Q437 145 470 134T523 102T552 56T561 -2ZM224 -197Q273 -197 311 -190T376 -170T417 -143T431 -111Q431 -84 413 -71T353 -57Q338 -57 312 -58T259 -60T208 -63T173 -66Q149 -68
134 -74T111 -90T99 -109T95 -129Q95 -167 131 -182T224 -197Z" />
<glyph unicode="h" glyph-name="h" horiz-adv-x="637" d="M599 124Q599 92 600 72T604 41Q607 21 622 15Q633 10 650 9V0H333V9Q344 11 352 17Q355 20 357 26T360 43T361 74V390Q361 408 357 414T342 421Q331 421 318 405T295 343Q291 324 289 303T286 251V124Q286
69 287 46T296 17Q302 11 315 9V0H-2V9Q8 10 14 11T25 15Q33 19 37 25T44 42Q46 53 47 72T48 124V605Q48 621 46 634Q43 659 30 667Q20 673 4 673V684H281Q287 684 287 677Q287 668 286 649T285 598V377H288Q290 388 296 403T316 432Q336 454 367 462T438 471Q474
471 508 460T566 420Q588 393 593 364T599 305V124Z" />
<glyph unicode="i" glyph-name="i" horiz-adv-x="331" d="M286 132Q286 98 287 76T291 42Q294 22 309 15Q320 10 337 9V0H-3V9Q16 10 25 15Q39 22 44 42Q46 54 47 76T48 132V386Q48 400 46 411Q44 425 40 432T29 444Q23 447 17 449T1 451V462H282Q287 462 287
454Q287 433 287 414T286 359V132ZM164 477Q107 477 74 504T41 576Q41 620 74 647T164 674Q221 674 253 647T286 576Q286 531 254 504T164 477Z" />
<glyph unicode="j" glyph-name="j" horiz-adv-x="342" d="M53 -51V386Q53 400 51 412Q49 425 45 432T34 444Q23 449 6 451V462H286Q292 462 292 454Q292 433 292 415T291 360V50Q291 5 283 -27T262 -83T231 -123T196 -153Q161 -179 110 -196T-8 -213Q-43 -213
-69 -210T-123 -197Q-155 -186 -175 -165T-196 -106Q-196 -69 -168 -45T-93 -21Q-41 -21 -16 -45T9 -105Q9 -122 6 -137T-5 -164Q-10 -170 -12 -173T-14 -184Q-14 -197 5 -197Q22 -197 32 -182T47 -141Q51 -122 52 -100T53 -51ZM168 477Q111 477 79 504T46 576Q46
619 78 646T168 674Q225 674 258 646T291 576Q291 531 259 504T168 477Z" />
<glyph unicode="k" glyph-name="k" horiz-adv-x="662" d="M343 0H-6V9Q4 10 11 11T24 15Q43 22 47 41Q49 52 49 72T50 124V608Q50 622 48 633Q46 647 41 654T28 666Q17 671 0 673V684H283Q289 684 289 676Q288 655 288 636T287 581V239L390 344Q410 364 421 380T433
415Q433 423 429 431T413 445Q405 449 396 450T379 453V462H584V453Q570 450 554 445T518 429Q504 421 489 410T447 373L403 329Q444 324 473 316T524 295T558 266T579 227Q589 195 596 170T609 123T621 82T639 44Q647 30 656 21T680 9V0H415Q403 9 395 21T381
54T369 104T358 174Q354 204 348 218T320 244L287 212V124Q287 92 289 72T293 41Q298 21 313 15Q322 11 343 9V0Z" />
<glyph unicode="l" glyph-name="l" horiz-adv-x="334" d="M287 124Q287 92 288 72T292 41Q297 21 312 15Q322 11 343 9V0H-6V9Q4 10 11 11T24 15Q40 20 45 41Q48 56 48 74T49 124V583Q49 595 49 608T46 633Q42 658 28 666Q21 670 14 671T-3 673V684H282Q288 684
288 676Q288 655 288 636T287 582V124Z" />
<glyph unicode="m" glyph-name="m" horiz-adv-x="939" d="M311 0H-3V9Q8 10 14 11T25 15Q41 21 44 42Q46 53 47 72T48 124V386Q48 400 46 411Q44 425 40 432T29 444Q23 447 17 449T1 451V462H280Q286 462 286 454Q286 434 286 417T285 377H288Q291 388 297 403T316
432Q337 453 366 462T444 471Q486 471 518 460T567 422Q577 406 581 396T587 373H590Q595 390 601 404T619 430Q639 451 668 461T750 471Q785 471 817 463T871 422Q890 396 894 366T898 304V124Q898 92 899 72T903 41Q906 22 921 15Q932 10 949 9V0H635V9Q648 11
652 18T659 42Q660 49 660 66V390Q660 407 657 413T644 420Q628 420 610 377T592 251V66Q592 49 593 42Q595 25 600 18T617 9V0H329V9Q340 11 345 18T353 42Q353 47 353 53T354 68V395Q354 409 351 414T338 420Q330 420 321 410T304 377T291 321T286 238V70Q286
62 286 56T288 43Q290 25 295 18T311 9V0Z" />
<glyph unicode="n" glyph-name="n" horiz-adv-x="640" d="M599 124Q599 61 603 41Q606 21 622 15Q627 13 633 12T650 9V0H333V9Q345 11 351 17Q358 23 360 42Q361 49 361 66V389Q361 401 361 406T355 417Q352 420 348 420T342 421Q329 421 317 404T295 343Q290
324 288 301T286 237V66Q286 49 287 43Q289 23 296 17Q302 11 315 9V0H-3V9Q16 10 25 15Q40 21 43 42Q45 53 46 72T48 124V386Q48 400 46 411Q44 425 40 432T29 444Q23 447 17 449T1 451V462H281Q287 462 287 454Q287 444 287 437T286 422T286 404T285 377H288Q291
388 297 403T317 433Q338 454 369 462T449 471Q478 471 511 460T566 419Q587 392 593 363T599 305V124Z" />
<glyph unicode="o" glyph-name="o" horiz-adv-x="580" d="M11 231Q11 286 31 330T88 405T176 454T290 471Q353 471 404 454T492 406T549 331T569 231Q569 175 550 131T494 56T406 8T290 -9Q226 -9 175 8T87 56T31 131T11 231ZM326 231Q326 328 324 382T308 450Q302
456 290 456Q277 456 271 449Q260 436 257 382T254 231Q254 134 257 80T271 13Q277 7 290 7Q302 7 308 13Q321 27 323 80T326 231Z" />
<glyph unicode="p" glyph-name="p" horiz-adv-x="620" d="M-13 -203Q4 -201 14 -197Q37 -186 42 -158Q45 -141 45 -120T46 -88V378Q46 397 44 408Q41 430 26 441Q16 448 5 450T-15 453V462H276Q283 462 283 454V393H284Q294 425 324 448T410 471Q450 471 485 456T548
410T590 336T606 235Q606 175 586 129T534 53T461 7T380 -9Q339 -9 320 -4T288 11H284V-88Q284 -99 284 -120T288 -158Q293 -186 316 -197Q326 -201 345 -203V-213H-13V-203ZM364 210Q364 277 363 318T359 381T350 411T333 419Q316 419 307 406T292 372T286 325T284
272V153Q284 133 284 118T285 91T287 68T292 45Q296 30 305 22T325 13Q338 13 345 20T357 49T362 109T364 210Z" />
<glyph unicode="q" glyph-name="q" horiz-adv-x="621" d="M337 335Q337 337 337 349T335 376T331 406T325 429Q320 441 314 444T299 448Q287 448 279 437T266 399T259 329T257 221Q257 158 258 119T264 59T275 30T293 23Q304 23 311 31T323 52Q327 61 330 72T334
101T336 144T337 208V335ZM442 381L566 472H586Q581 421 578 393T575 342V-89Q575 -104 575 -123T578 -160Q581 -187 601 -195Q610 -199 620 -200T635 -203V-213H274V-203Q281 -202 289 -201T306 -198Q317 -194 325 -185T337 -157Q339 -143 339 -126T340 -89V36H335Q318
9 291 -1T219 -11Q177 -11 140 3T75 47T31 122T14 227Q14 285 33 330T87 407T168 455T270 471Q334 471 376 445T438 381H442Z" />
<glyph unicode="r" glyph-name="r" horiz-adv-x="538" d="M287 354Q294 389 308 410T337 444Q350 455 371 463T424 471Q482 471 513 437Q537 408 537 364Q537 314 508 286T440 258Q398 258 376 272T343 314Q338 326 336 338T333 360T329 376T320 383Q310 383 302
358T289 298Q287 273 286 248T285 203V79Q285 62 286 48T298 23Q312 9 347 9V0H-3V9Q17 10 25 14Q42 22 45 42Q47 55 47 73T48 124V386Q48 400 46 411Q44 425 40 432T29 444Q23 447 17 449T1 451V462H280Q284 462 285 461T286 454Q286 434 285 410T284 354H287Z"
/>
<glyph unicode="s" glyph-name="s" horiz-adv-x="444" d="M433 166Q433 120 415 87T367 33T299 1T222 -9Q172 -9 141 3T81 38H77L37 3H29L20 176H29Q44 140 62 110T104 57T155 22T217 9Q238 9 252 19T266 47Q266 65 260 76T243 95T216 109T180 123Q139 139 109
156T58 196T28 245T17 310Q17 387 74 429T232 471Q276 471 306 457T356 425H359L381 458H388L396 312H386Q375 344 361 370T325 417Q307 434 283 444T230 454Q208 454 195 446T181 418Q181 408 184 400T197 383T226 366T277 345Q309 333 337 320T387 286T420 237T433
166Z" />
<glyph unicode="t" glyph-name="t" horiz-adv-x="388" d="M386 80Q378 67 365 52T332 23T282 0T213 -9Q165 -9 134 3T89 29Q56 60 48 96T39 164V187Q39 206 39 232T40 288T41 346T42 398T43 434Q27 436 9 436T-17 437V454Q79 473 146 521T254 628H281V462H367V434H281L277
135Q277 125 277 113T282 89T296 70T324 62Q342 62 355 70T376 89L386 80Z" />
<glyph unicode="u" glyph-name="u" horiz-adv-x="631" d="M35 324Q35 366 34 390T25 429Q15 450 -19 453V462H263Q272 462 272 456Q272 451 271 420T270 342V78Q270 42 292 42Q304 42 320 62T341 137Q343 157 344 184T345 255V368Q345 381 345 396T340 422Q337
433 332 438T320 448Q313 451 297 453V462H575Q584 462 584 456Q584 451 583 420T582 342V105Q582 92 582 78T585 52Q588 37 592 30T604 18Q609 15 615 13T629 11V0L353 -7Q348 -7 347 -6T346 2Q346 14 346 33T347 82H343Q340 68 335 56T315 28Q295 6 265 -1T188
-9Q150 -9 117 1T61 42Q42 68 39 97T35 164V324Z" />
<glyph unicode="v" glyph-name="v" horiz-adv-x="497" d="M520 453Q515 451 510 450T499 444Q485 434 476 420Q468 409 462 392T445 343L339 -1H202L69 322Q57 351 45 375T28 411Q20 425 17 430T6 442Q-3 450 -20 453V462H359V453Q349 451 343 450T331 444Q325
439 320 429T315 405Q315 391 318 377T327 342L373 185H375L423 339Q434 372 437 390T441 418Q441 429 437 435T424 446Q416 450 400 453V462H520V453Z" />
<glyph unicode="w" glyph-name="w" horiz-adv-x="822" d="M520 -2Q498 71 481 126T452 224T430 297T414 349L316 -2H162L58 322Q49 352 43 372T31 405T23 426T16 439Q10 448 2 449T-15 453V462H339V453Q335 451 332 450T324 446Q307 434 307 408Q307 392 311 373T321
325L350 196H352L404 379L396 403Q393 412 391 417T388 425T385 432Q381 440 379 443T371 449Q367 451 359 453V462H708V453Q699 451 690 445Q683 440 677 431T671 407Q671 393 673 380T681 342L708 197H710L747 339Q751 355 754 366T760 386T763 402T765 418Q765
430 761 436T748 446Q740 450 736 451T726 453V462H840V453Q825 450 816 443Q805 436 797 424Q789 411 784 395T768 343L675 -2H520Z" />
<glyph unicode="x" glyph-name="x" horiz-adv-x="520" d="M172 0H10V10Q18 11 29 14T47 21Q70 35 90 55T134 108L169 160L63 371Q52 394 40 412T13 441Q6 446 0 448T-17 452V462H342V452Q334 451 328 450T315 446Q303 441 303 428Q303 417 307 405T318 381L348
325L370 359Q387 384 392 397T397 424Q397 437 385 445Q375 451 357 452V462H502V452Q494 451 484 448T467 439Q448 428 431 407T390 352L358 305L465 85Q478 59 490 45T513 23Q520 18 527 15T546 10V0H192V10Q208 12 218 15Q224 17 228 21T233 33Q233 43 229 52T217
73L181 138L155 102Q142 85 134 70T125 39Q125 34 129 28T141 17Q149 13 156 12T172 10V0Z" />
<glyph unicode="y" glyph-name="y" horiz-adv-x="511" d="M265 -108Q254 -134 240 -156T206 -190Q167 -213 114 -213Q89 -213 66 -207T24 -187T-5 -153T-16 -106Q-16 -88 -10 -72T9 -44T38 -24T79 -16Q108 -16 131 -27T166 -58Q177 -76 179 -98T182 -138Q182 -149
184 -155T195 -162Q220 -162 235 -125Q240 -113 241 -102T242 -82Q242 -74 238 -64T230 -47L74 322Q62 351 50 374T27 411Q19 422 13 429T-2 443Q-8 447 -15 449T-31 453V462H353V453Q345 452 338 451T325 445Q309 435 309 417Q309 402 314 384T327 344L368 222H371L417
339Q428 365 431 380T435 410Q435 425 429 433T413 446Q400 452 392 453V462H537V453Q520 451 505 440T475 407Q469 396 462 383T445 345L427 300Q413 265 394 217T354 115T314 14T282 -67T265 -108Z" />
<glyph unicode="z" glyph-name="z" horiz-adv-x="525" d="M480 0H11V7L234 438V442H170Q147 442 137 437T112 410Q101 393 92 377T73 344T54 307T29 259H16L44 462H500V452L273 20V15H308Q344 15 368 28T419 79Q446 118 468 152T498 199H511L480 0Z" />
<glyph unicode="{" glyph-name="braceleft" horiz-adv-x="389" d="M370 -150Q308 -150 252 -145T152 -125T83 -81T57 -6Q57 24 63 50T78 101T93 148T100 191Q100 203 97 214T85 235Q75 246 53 249T16 252V269Q23 269 32 269T52 272T70 277T84 285Q93 294 96 306T100
330Q100 351 94 373T79 419T64 470T57 527Q57 574 83 602T152 646T252 666T370 671V657Q326 656 308 631T290 564Q290 541 294 519T302 474T311 432T315 395Q315 371 306 347T272 304T201 274T84 262V259Q156 259 201 248T271 217T306 174T315 126Q315 109 311
89T303 47T294 2T290 -43Q290 -85 306 -110T370 -136V-150Z" />
<glyph unicode="|" glyph-name="bar" horiz-adv-x="189" d="M69 -99V687H115V-99H69Z" />
<glyph unicode="}" glyph-name="braceright" horiz-adv-x="389" d="M19 -136Q66 -135 82 -110T98 -43Q98 -21 94 2T86 46T77 88T73 126Q73 150 82 174T117 217T188 247T305 259V262Q233 262 188 273T118 304T83 347T73 395Q73 412 77 432T85 474T94 518T98 564Q98
606 81 631T19 657V671Q80 671 136 666T236 646T305 603T331 527Q331 497 325 471T310 420T296 373T289 330Q289 318 292 306T306 285Q310 280 318 277T337 272T356 270T373 269V252Q358 252 336 249T304 236Q296 226 293 215T289 191Q289 170 295 148T310 102T324
51T331 -6Q331 -53 306 -81T237 -124T137 -145T19 -150V-136Z" />
<glyph unicode="~" glyph-name="asciitilde" horiz-adv-x="382" d="M368 349Q362 321 353 289T330 229T293 183T237 164Q217 164 199 167T163 175T131 183T101 187Q75 187 59 177T35 133L14 137Q18 166 25 199T47 259T86 305T148 324Q165 324 182 320T215 312T247
304T276 300Q304 300 321 313T347 355L368 349Z" />
<glyph unicode="&#xa0;" glyph-name="uni00A0" horiz-adv-x="650" />
<glyph unicode="&#xa1;" glyph-name="exclamdown" horiz-adv-x="320" d="M49 571Q49 615 79 642T163 670Q215 670 245 642T275 571Q275 530 244 502T161 473Q107 473 78 501T49 571ZM160 -14Q118 -14 91 -3T47 25T24 62T17 103Q17 125 23 145T40 190T66 244T102
314Q112 335 119 350T132 379T142 405T151 431H168Q172 417 176 405T186 379T199 350T217 313Q237 273 253 244T280 190T297 146T303 103Q303 83 297 63T274 25T230 -3T160 -14Z" />
<glyph unicode="&#xa2;" glyph-name="cent" horiz-adv-x="530" d="M298 -7Q241 -8 196 3T116 34Q64 65 37 114T10 226Q10 287 32 333T93 410T184 457T298 473V539H321V473Q378 471 408 462T457 444Q481 432 500 411T520 354Q520 315 496 294T433 272Q395 272 376
293T352 360Q347 399 341 423T321 455V24Q361 21 393 31T449 61T488 106T511 158L526 153Q519 126 506 99T468 50T408 12T321 -6V-94H298V-7ZM298 456Q287 455 282 451T273 438Q269 429 266 414T261 376T258 320T257 240Q257 185 259 150T264 94T271 63T282 46Q285
44 289 40T298 33V456Z" />
<glyph unicode="&#xa3;" glyph-name="sterling" horiz-adv-x="714" d="M473 667Q565 667 611 632T658 542Q658 516 649 496T623 461T585 439T540 431Q491 431 464 453T426 505L439 513Q457 488 487 488Q507 488 526 508T545 573Q545 600 530 623T478 646Q443 646
419 620T394 538Q394 513 401 492T417 448T436 400T448 343H545V319H449Q448 294 445 274T434 232Q470 229 507 229Q577 229 623 251T684 322L701 318Q698 262 685 202T642 91T565 8T441 -25Q396 -25 358 -10T290 33Q257 10 221 -5T147 -21Q72 -21 38 13T3 103Q3
138 15 166T50 213T102 243T167 253H179Q185 253 193 252Q179 264 167 281T144 319H62V343H136Q130 362 127 379T123 420Q123 480 153 526T232 604T344 651T473 667ZM103 175Q74 175 51 158T27 99Q27 52 57 26T141 -1Q169 -1 201 10T269 52Q266 56 260 62Q242 82
225 102T189 138T149 165T103 175Z" />
<glyph unicode="&#xa5;" glyph-name="yen" horiz-adv-x="706" d="M140 11Q149 13 160 15T184 22Q202 30 212 46Q220 57 221 70T223 104V191H94V220H223V284H94V312H219L109 544Q92 580 76 602T40 635Q32 640 23 643T2 649V660H433V649Q422 648 413 646T395 639Q371
625 371 593Q371 573 383 546L465 342H470L550 509Q565 541 571 563T578 600Q578 621 568 630T544 644Q533 647 528 647T518 649V660H709V649Q698 646 688 643T668 633Q648 619 627 593T581 514L485 312H611V284H480V220H611V191H480V104Q480 66 491 49Q503 29
520 22Q542 13 563 11V0H140V11Z" />
<glyph unicode="&#xa7;" glyph-name="section" horiz-adv-x="552" d="M275 670Q319 670 356 665T420 649T462 619T477 576Q477 547 460 530T410 513Q383 513 365 527T342 562Q337 581 337 600T334 629Q329 642 313 646T276 651Q245 651 231 636T216 601Q216 584
223 573T247 551T291 530T358 504Q407 484 440 467T492 430T520 386T529 329Q529 273 494 227T395 158Q442 134 468 102T495 10Q495 -24 480 -58T434 -120T357 -165T248 -182Q135 -182 86 -151T37 -70Q37 -41 56 -23T108 -4Q140 -4 159 -21T184 -58Q188 -80 188
-104T189 -137Q193 -150 209 -156T248 -163Q277 -163 297 -147T318 -106Q318 -88 313 -76T291 -53T248 -30T177 0Q130 19 98 38T46 78T18 123T9 179Q9 298 152 337Q129 349 110 363T77 395T55 438T47 495Q47 530 60 561T102 617T173 655T275 670ZM370 211Q370 220
366 227T349 242T311 263T246 296Q231 304 215 311T185 323Q180 316 178 306T175 287Q175 278 178 272T192 257T227 237T290 208Q291 208 302 203T326 193T350 182T362 177Q370 191 370 211Z" />
<glyph unicode="&#xa8;" glyph-name="dieresis" horiz-adv-x="400" d="M88 647Q129 647 154 624T180 565Q180 531 156 508T88 485Q43 485 19 508T-6 566Q-6 601 20 624T88 647ZM314 647Q356 647 381 624T407 565Q407 531 383 508T314 485Q269 485 245 508T221
566Q221 601 246 624T314 647Z" />
<glyph unicode="&#xa9;" glyph-name="copyright" horiz-adv-x="888" d="M858 261Q858 175 826 100T737 -32T606 -121T446 -154Q360 -154 285 -121T153 -32T63 99T30 261Q30 346 63 421T152 552T284 641T446 674Q531 674 606 642T737 553T825 421T858 261ZM829
261Q829 342 798 412T715 535T593 618T446 648Q369 648 299 618T175 536T91 413T59 261Q59 179 90 108T175 -15T298 -98T446 -128Q523 -128 592 -98T714 -16T798 108T829 261ZM668 195Q660 165 647 135T609 81T548 42T459 27Q418 27 385 34T327 53T284 80T254 112Q231
144 220 178T209 261Q209 319 231 363T292 437T380 482T486 497Q538 497 568 483T621 447H624L648 476H657V292H641Q635 325 626 358T603 417T569 459T521 476Q483 476 468 439Q449 390 449 280Q449 221 456 173T475 103Q483 86 496 77T529 67Q553 67 573 80T608
112T635 156T654 201L668 195Z" />
<glyph unicode="&#xaa;" glyph-name="ordfeminine" horiz-adv-x="538" d="M158 238Q92 238 54 264T15 347Q15 370 21 389T44 424Q69 447 130 460Q212 476 246 493T280 535L279 598Q279 636 272 646T247 656Q216 656 216 643Q216 632 222 614T228 570Q226 525 201
505T133 484Q91 484 67 501T42 552Q42 576 51 594T78 626Q107 649 153 660T248 671Q323 671 369 659T442 627T477 586T486 543V328Q486 318 486 312T488 302T492 294Q500 281 519 281Q527 281 532 282T546 286L547 278Q537 267 501 254T395 240Q357 240 339 245T309
263Q294 278 290 306H287Q265 238 158 238ZM279 493Q272 488 266 485T252 476Q245 471 240 464T232 445Q230 434 229 420T227 376Q227 326 234 308T253 289Q279 289 279 337V493Z" />
<glyph unicode="&#xab;" glyph-name="guillemotleft" horiz-adv-x="462" d="M232 417L244 405Q233 385 221 362T197 316T175 275L161 246Q166 234 176 213T199 169T222 124T243 86L232 74L17 239V252L232 417ZM421 412L434 400Q426 386 414 364T389 319T368 275T354
245Q357 236 366 217T387 174T411 129T433 91L421 79L220 240V250L421 412Z" />
<glyph unicode="&#xae;" glyph-name="registered" horiz-adv-x="522" d="M512 419Q512 368 492 323T438 243T359 189T262 169Q210 169 165 189T85 243T30 322T10 419Q10 470 30 515T84 595T164 649T262 669Q313 669 358 649T438 595T492 516T512 419ZM488 419Q488
465 470 507T422 580T350 629T262 648Q215 648 174 630T101 580T52 507T34 419Q34 372 52 331T101 258T173 208T262 189Q308 189 349 207T421 257T470 330T488 419ZM295 302Q289 313 286 329T281 357Q279 374 278 389T275 412Q273 418 271 420T260 423H253V362Q253
341 254 331T260 317Q264 314 269 313V302H118V313Q121 314 123 314T130 318Q138 323 139 331T140 362V497Q140 508 140 517T137 532Q133 540 128 542L118 546V557H297Q351 557 374 539T398 491Q398 461 373 448T293 432V429Q320 427 338 424T370 415T390 397T400
366Q405 336 406 328T413 317Q418 314 419 314T423 313V302H295ZM283 490Q283 521 279 531T262 542H253V437H261Q273 437 278 446T283 490Z" />
<glyph unicode="&#xaf;" glyph-name="macron" horiz-adv-x="400" d="M67 518V603H333V518H67Z" />
<glyph unicode="&#xb0;" glyph-name="degree" horiz-adv-x="332" d="M301 544Q301 515 290 492T261 452T217 426T165 416Q138 416 114 425T70 451T40 491T29 544Q29 572 40 596T70 636T113 662T165 672Q192 672 217 663T260 637T290 596T301 544ZM222 544Q222
598 210 626T165 655Q134 655 122 627T109 544Q109 490 121 462T165 434Q197 434 209 462T222 544Z" />
<glyph unicode="&#xb4;" glyph-name="acute" horiz-adv-x="400" d="M332 611Q332 582 312 559T246 525L88 489L81 498L155 612Q173 641 196 663T255 685Q289 685 310 664T332 611Z" />
<glyph unicode="&#xb6;" glyph-name="paragraph" horiz-adv-x="592" d="M504 635V-151H476V635H377V-151H349V132H329Q250 132 194 154T102 213T50 298T33 400Q33 464 55 512T115 592T206 640T317 657H589V635H504Z" />
<glyph unicode="&#xb7;" glyph-name="periodcentered" horiz-adv-x="368" d="M297 294Q297 252 267 224T183 195Q129 195 100 223T71 294Q71 335 101 364T185 393Q240 393 268 364T297 294Z" />
<glyph unicode="&#xb8;" glyph-name="cedilla" horiz-adv-x="400" d="M311 -110Q311 -137 298 -153T263 -177T217 -188T169 -191Q137 -191 109 -185T67 -170L73 -158Q85 -165 101 -169T132 -173Q155 -173 169 -159T183 -112Q183 -83 175 -72T151 -60Q143 -60 138
-62T128 -69L113 -63L131 2H150L134 -50Q139 -46 159 -40T211 -34Q256 -34 283 -54T311 -110Z" />
<glyph unicode="&#xba;" glyph-name="ordmasculine" horiz-adv-x="527" d="M517 456Q517 405 499 365T448 298T368 256T263 241Q206 241 159 255T79 297T27 365T9 456Q9 506 27 546T80 614T160 657T263 672Q320 672 366 658T446 615T498 547T517 456ZM296 455Q296
542 293 592T278 653Q275 655 272 656T263 658Q255 658 249 652Q238 641 235 592T231 455Q231 370 234 321T249 260Q252 258 255 257T263 255Q269 255 272 256T278 261Q289 272 292 321T296 455Z" />
<glyph unicode="&#xbb;" glyph-name="guillemotright" horiz-adv-x="462" d="M445 239L230 74L218 86Q228 104 240 127T264 172T285 214T300 244Q295 255 285 275T263 319L239 365Q227 388 218 405L230 417L445 252V239ZM242 241L41 79L28 91Q36 104 48 127T72
173T95 216T108 245Q105 255 96 274T74 317T50 362T29 400L41 412L242 251V241Z" />
<glyph unicode="&#xbf;" glyph-name="questiondown" horiz-adv-x="560" d="M245 573Q245 617 276 644T359 672Q412 672 442 644T472 573Q472 532 441 504T357 475Q303 475 274 503T245 573ZM14 187Q14 236 35 272T89 331T164 365T248 376Q286 376 312 371T358
356H360V439H381V334L369 326Q363 331 355 335T333 339Q317 339 306 324T287 281T276 215T272 130Q272 95 275 71T283 33T296 13T313 7Q321 7 324 11T330 26T333 52T336 94Q341 154 367 194T444 234Q497 234 524 205T552 132Q552 98 534 71T484 25T406 -4T305 -14Q260
-14 224 -8T156 9Q90 30 52 75T14 187Z" />
<glyph unicode="&#xc0;" glyph-name="Agrave" horiz-adv-x="683" d="M210 358H206L135 169H274L210 358ZM-26 11Q-18 13 -6 16T16 26Q26 32 34 40T54 63Q66 80 79 105T101 153L299 662H386L559 205Q570 176 578 157T592 122T605 95T620 70Q632 52 642 41T666 23Q675
18 686 16T707 11V0H226V11Q237 13 248 16T266 22Q280 27 290 37T301 68Q301 86 297 100T287 135L281 148H127L121 133Q115 119 111 106T107 75Q107 59 113 44T134 22Q143 17 156 15T178 11V0H-26V11ZM460 682L283 697Q191 704 191 780Q191 809 210 831T267 853Q294
853 313 841T350 812L465 695L460 682Z" />
<glyph unicode="&#xc1;" glyph-name="Aacute" horiz-adv-x="683" d="M210 358H206L135 169H274L210 358ZM-26 11Q-18 13 -6 16T16 26Q26 32 34 40T54 63Q66 80 79 105T101 153L299 662H386L559 205Q570 176 578 157T592 122T605 95T620 70Q632 52 642 41T666 23Q675
18 686 16T707 11V0H226V11Q237 13 248 16T266 22Q280 27 290 37T301 68Q301 86 297 100T287 135L281 148H127L121 133Q115 119 111 106T107 75Q107 59 113 44T134 22Q143 17 156 15T178 11V0H-26V11ZM415 853Q452 853 471 831T491 780Q491 744 469 723T399 698L222
683L217 695L329 810Q346 827 367 840T415 853Z" />
<glyph unicode="&#xc2;" glyph-name="Acircumflex" horiz-adv-x="683" d="M210 358H206L135 169H274L210 358ZM-26 11Q-18 13 -6 16T16 26Q26 32 34 40T54 63Q66 80 79 105T101 153L299 662H386L559 205Q570 176 578 157T592 122T605 95T620 70Q632 52 642 41T666
23Q675 18 686 16T707 11V0H226V11Q237 13 248 16T266 22Q280 27 290 37T301 68Q301 86 297 100T287 135L281 148H127L121 133Q115 119 111 106T107 75Q107 59 113 44T134 22Q143 17 156 15T178 11V0H-26V11ZM497 685L344 749L190 685L177 695L294 851H394L510
695L497 685Z" />
<glyph unicode="&#xc3;" glyph-name="Atilde" horiz-adv-x="683" d="M210 358H206L135 169H274L210 358ZM-26 11Q-18 13 -6 16T16 26Q26 32 34 40T54 63Q66 80 79 105T101 153L299 662H386L559 205Q570 176 578 157T592 122T605 95T620 70Q632 52 642 41T666 23Q675
18 686 16T707 11V0H226V11Q237 13 248 16T266 22Q280 27 290 37T301 68Q301 86 297 100T287 135L281 148H127L121 133Q115 119 111 106T107 75Q107 59 113 44T134 22Q143 17 156 15T178 11V0H-26V11ZM546 855Q543 830 533 804T505 755T465 718T411 703Q391 703
372 708T334 719T297 731T262 736Q236 736 219 722T196 686H174Q178 719 188 747T214 797T253 829T308 841Q327 841 346 836T384 825T421 813T456 808Q479 808 498 821T525 855H546Z" />
<glyph unicode="&#xc4;" glyph-name="Adieresis" horiz-adv-x="683" d="M210 358H206L135 169H274L210 358ZM-26 11Q-18 13 -6 16T16 26Q26 32 34 40T54 63Q66 80 79 105T101 153L299 662H386L559 205Q570 176 578 157T592 122T605 95T620 70Q632 52 642 41T666
23Q675 18 686 16T707 11V0H226V11Q237 13 248 16T266 22Q280 27 290 37T301 68Q301 86 297 100T287 135L281 148H127L121 133Q115 119 111 106T107 75Q107 59 113 44T134 22Q143 17 156 15T178 11V0H-26V11ZM226 850Q267 850 292 827T318 769Q318 734 294 711T226
688Q181 688 157 711T133 770Q133 805 158 827T226 850ZM464 850Q505 850 530 827T556 769Q556 734 532 711T464 688Q419 688 395 711T371 770Q371 805 396 827T464 850Z" />
<glyph unicode="&#xc5;" glyph-name="Aring" horiz-adv-x="683" d="M210 358H206L135 169H274L210 358ZM-26 11Q-18 13 -6 16T16 26Q26 32 34 40T54 63Q66 80 79 105T101 153L299 662H386L559 205Q570 176 578 157T592 122T605 95T620 70Q632 52 642 41T666 23Q675
18 686 16T707 11V0H226V11Q237 13 248 16T266 22Q280 27 290 37T301 68Q301 86 297 100T287 135L281 148H127L121 133Q115 119 111 106T107 75Q107 59 113 44T134 22Q143 17 156 15T178 11V0H-26V11ZM443 785Q443 764 435 747T414 717T382 697T342 690Q298 690
270 716T241 785Q241 825 269 852T342 880Q387 880 415 854T443 785ZM401 785Q401 813 388 832T342 852Q310 852 297 833T284 785Q284 756 297 737T342 717Q374 717 387 736T401 785Z" />
<glyph unicode="&#xc6;" glyph-name="AE" horiz-adv-x="1012" d="M330 0V11Q338 12 347 13T368 18Q387 25 397 45Q407 59 407 123V195H161L149 173Q131 141 122 118T113 71Q113 48 122 37T147 20Q161 15 170 14T188 11V0H-30V11Q-6 15 12 26T45 54T75 96T107 150L383
633L368 639Q357 643 347 644T328 646V657H943L962 405H951Q937 424 920 448T884 497T848 544T815 582Q801 597 789 607T764 624T737 633T702 636H697Q682 636 674 632T666 610V352H686Q728 352 761 385Q781 405 795 429T820 482H831V200H820Q807 230 795 251T759
299Q742 317 726 323T686 330H666V104Q666 83 666 68T671 45Q676 35 685 29T718 22H720Q732 22 742 24T763 32T787 52T818 88Q833 107 852 132T890 187T927 246T960 304H971L960 0H330ZM407 572Q407 592 405 598T398 612L173 216H407V572Z" />
<glyph unicode="&#xc7;" glyph-name="Ccedilla" horiz-adv-x="679" d="M504 -111Q504 -138 491 -154T456 -178T410 -189T362 -192Q330 -192 302 -186T260 -171L266 -159Q278 -166 294 -170T325 -174Q348 -174 362 -160T376 -113Q376 -84 368 -73T344 -61Q336 -61
331 -63T321 -70L306 -64L320 -12Q288 -8 256 1Q194 18 144 58T62 164T30 328Q30 412 60 476T143 583T264 649T413 672Q473 672 516 657T588 604H592L631 666H639V435H629Q617 480 601 519T561 588T505 634T429 651Q400 651 385 643T362 625Q336 594 323 520T309
346Q309 254 321 185T368 80Q390 57 412 49T468 40Q498 40 524 54T572 90T611 141T641 197L664 187Q647 146 625 109T569 45T490 1T379 -16Q359 -16 338 -14L327 -51Q332 -47 352 -41T404 -35Q449 -35 476 -55T504 -111Z" />
<glyph unicode="&#xc8;" glyph-name="Egrave" horiz-adv-x="704" d="M474 682L297 697Q205 704 205 780Q205 809 224 831T281 853Q308 853 327 841T364 812L479 695L474 682ZM652 0H16V11Q24 12 33 13T54 18Q72 26 82 41Q87 49 90 63T93 103V555Q93 578 91 590T84
610Q74 632 54 639Q43 643 34 644T16 646V657H635L655 405H644Q630 424 613 448T577 497T540 544T507 582Q493 597 482 607T458 623T431 633T399 636H391Q372 636 365 634T354 623Q352 618 352 590V352H378Q420 352 453 385Q473 405 487 429T512 482H523V200H512Q499
230 487 251T451 299Q434 317 418 323T378 330H352V104Q352 83 352 72T356 49Q359 38 370 30T406 22H410Q421 22 431 24T452 34T476 54T508 88Q524 107 543 132T581 187T619 246T652 304H662L652 0Z" />
<glyph unicode="&#xc9;" glyph-name="Eacute" horiz-adv-x="704" d="M430 853Q467 853 486 831T506 780Q506 744 484 723T414 698L237 683L232 695L344 810Q361 827 382 840T430 853ZM652 0H16V11Q24 12 33 13T54 18Q72 26 82 41Q87 49 90 63T93 103V555Q93 578
91 590T84 610Q74 632 54 639Q43 643 34 644T16 646V657H635L655 405H644Q630 424 613 448T577 497T540 544T507 582Q493 597 482 607T458 623T431 633T399 636H391Q372 636 365 634T354 623Q352 618 352 590V352H378Q420 352 453 385Q473 405 487 429T512 482H523V200H512Q499
230 487 251T451 299Q434 317 418 323T378 330H352V104Q352 83 352 72T356 49Q359 38 370 30T406 22H410Q421 22 431 24T452 34T476 54T508 88Q524 107 543 132T581 187T619 246T652 304H662L652 0Z" />
<glyph unicode="&#xca;" glyph-name="Ecircumflex" horiz-adv-x="704" d="M505 685L352 749L198 685L185 695L302 851H402L518 695L505 685ZM652 0H16V11Q24 12 33 13T54 18Q72 26 82 41Q87 49 90 63T93 103V555Q93 578 91 590T84 610Q74 632 54 639Q43 643 34
644T16 646V657H635L655 405H644Q630 424 613 448T577 497T540 544T507 582Q493 597 482 607T458 623T431 633T399 636H391Q372 636 365 634T354 623Q352 618 352 590V352H378Q420 352 453 385Q473 405 487 429T512 482H523V200H512Q499 230 487 251T451 299Q434
317 418 323T378 330H352V104Q352 83 352 72T356 49Q359 38 370 30T406 22H410Q421 22 431 24T452 34T476 54T508 88Q524 107 543 132T581 187T619 246T652 304H662L652 0Z" />
<glyph unicode="&#xcb;" glyph-name="Edieresis" horiz-adv-x="704" d="M652 0H16V11Q24 12 33 13T54 18Q72 26 82 41Q87 49 90 63T93 103V555Q93 578 91 590T84 610Q74 632 54 639Q43 643 34 644T16 646V657H635L655 405H644Q630 424 613 448T577 497T540 544T507
582Q493 597 482 607T458 623T431 633T399 636H391Q372 636 365 634T354 623Q352 618 352 590V352H378Q420 352 453 385Q473 405 487 429T512 482H523V200H512Q499 230 487 251T451 299Q434 317 418 323T378 330H352V104Q352 83 352 72T356 49Q359 38 370 30T406
22H410Q421 22 431 24T452 34T476 54T508 88Q524 107 543 132T581 187T619 246T652 304H662L652 0ZM235 850Q276 850 301 827T327 769Q327 734 303 711T235 688Q190 688 166 711T142 770Q142 805 167 827T235 850ZM473 850Q514 850 539 827T565 769Q565 734 541
711T473 688Q428 688 404 711T380 770Q380 805 405 827T473 850Z" />
<glyph unicode="&#xcc;" glyph-name="Igrave" horiz-adv-x="454" d="M356 123Q356 81 359 63T369 37Q375 29 381 26T397 19Q408 15 419 14T438 11V0H16V11Q24 12 35 13T56 19Q66 22 72 25T85 37Q91 45 94 63T97 123V525Q97 549 97 564T95 590T92 607T87 617Q81
627 74 630T56 638Q46 642 35 643T16 646V657H438V646Q430 645 419 644T397 638Q386 634 379 630T366 614Q364 610 362 604T359 588T357 563T356 525V123ZM353 682L176 697Q84 704 84 780Q84 809 103 831T160 853Q187 853 206 841T243 812L358 695L353 682Z" />
<glyph unicode="&#xcd;" glyph-name="Iacute" horiz-adv-x="454" d="M356 123Q356 81 359 63T369 37Q375 29 381 26T397 19Q408 15 419 14T438 11V0H16V11Q24 12 35 13T56 19Q66 22 72 25T85 37Q91 45 94 63T97 123V525Q97 549 97 564T95 590T92 607T87 617Q81
627 74 630T56 638Q46 642 35 643T16 646V657H438V646Q430 645 419 644T397 638Q386 634 379 630T366 614Q364 610 362 604T359 588T357 563T356 525V123ZM300 853Q337 853 356 831T376 780Q376 744 354 723T284 698L107 683L102 695L214 810Q231 827 252 840T300
853Z" />
<glyph unicode="&#xce;" glyph-name="Icircumflex" horiz-adv-x="454" d="M356 123Q356 81 359 63T369 37Q375 29 381 26T397 19Q408 15 419 14T438 11V0H16V11Q24 12 35 13T56 19Q66 22 72 25T85 37Q91 45 94 63T97 123V525Q97 549 97 564T95 590T92 607T87 617Q81
627 74 630T56 638Q46 642 35 643T16 646V657H438V646Q430 645 419 644T397 638Q386 634 379 630T366 614Q364 610 362 604T359 588T357 563T356 525V123ZM379 685L226 749L72 685L59 695L176 851H276L392 695L379 685Z" />
<glyph unicode="&#xcf;" glyph-name="Idieresis" horiz-adv-x="454" d="M117 841Q158 841 183 818T209 760Q209 725 185 702T117 679Q72 679 48 702T24 761Q24 796 49 818T117 841ZM337 841Q379 841 404 818T430 760Q430 725 406 702T337 679Q293 679 269 702T244
761Q244 796 269 818T337 841ZM356 123Q356 81 359 63T369 37Q375 29 381 26T397 19Q408 15 419 14T438 11V0H16V11Q24 12 35 13T56 19Q66 22 72 25T85 37Q91 45 94 63T97 123V525Q97 549 97 564T95 590T92 607T87 617Q81 627 74 630T56 638Q46 642 35 643T16 646V657H438V646Q430
645 419 644T397 638Q386 634 379 630T366 614Q364 610 362 604T359 588T357 563T356 525V123Z" />
<glyph unicode="&#xd0;" glyph-name="Eth" horiz-adv-x="784" d="M34 350H93V555Q93 584 91 595T83 614Q77 623 71 629T54 639Q43 643 34 644T16 647V657H426Q483 657 531 649T618 617Q651 597 677 568T723 502T752 422T762 333Q762 290 754 248T729 167T687 96T625
41Q596 23 562 12T482 0H16V11Q24 12 33 13T54 18Q72 26 82 42Q87 50 90 63T93 103V320H34V350ZM394 22Q414 22 430 32T455 67Q466 101 472 164T478 333Q478 412 473 477T456 582Q447 615 428 625T386 636H382Q369 636 365 634T357 627Q353 620 353 610T352 581V350H433V320H352V99Q352
74 352 62T355 43Q361 22 393 22H394Z" />
<glyph unicode="&#xd1;" glyph-name="Ntilde" horiz-adv-x="726" d="M596 855Q593 830 583 804T555 755T515 718T461 703Q441 703 422 708T384 719T347 731T312 736Q286 736 269 722T246 686H224Q228 719 238 747T264 797T303 829T358 841Q377 841 396 836T434
825T471 813T506 808Q529 808 548 821T575 855H596ZM540 0L142 497H137V167Q137 90 153 56Q167 25 196 17Q204 15 215 14T237 11V0H14V11Q21 12 32 13T50 17Q64 21 75 29T94 55Q102 72 107 100T112 167V461Q112 560 90 594Q79 611 69 620T35 637Q26 640 16 642T-3
647V657H347L605 346H607V491Q607 536 602 561T589 603Q581 619 570 627T545 640Q537 642 527 643T509 646V657H730V646Q721 645 710 644T691 640Q663 632 649 601Q641 585 637 561T632 491V0H540Z" />
<glyph unicode="&#xd2;" glyph-name="Ograve" horiz-adv-x="772" d="M514 682L337 697Q245 704 245 780Q245 809 264 831T321 853Q348 853 367 841T404 812L519 695L514 682ZM386 670Q466 670 532 647T646 581T720 474T746 330Q746 249 720 185T647 77T533 9T386
-14Q306 -14 240 9T127 76T53 185T26 330Q26 411 52 474T126 580T240 647T386 670ZM386 6Q407 6 417 15T433 36Q442 53 452 125T463 328Q463 458 453 531T433 621Q427 633 417 641T386 650Q365 650 355 642T339 621Q330 604 320 531T309 328Q309 198 319 126T339
36Q345 24 355 15T386 6Z" />
<glyph unicode="&#xd3;" glyph-name="Oacute" horiz-adv-x="772" d="M455 853Q492 853 511 831T531 780Q531 744 509 723T439 698L262 683L257 695L369 810Q386 827 407 840T455 853ZM386 670Q466 670 532 647T646 581T720 474T746 330Q746 249 720 185T647 77T533
9T386 -14Q306 -14 240 9T127 76T53 185T26 330Q26 411 52 474T126 580T240 647T386 670ZM386 6Q407 6 417 15T433 36Q442 53 452 125T463 328Q463 458 453 531T433 621Q427 633 417 641T386 650Q365 650 355 642T339 621Q330 604 320 531T309 328Q309 198 319
126T339 36Q345 24 355 15T386 6Z" />
<glyph unicode="&#xd4;" glyph-name="Ocircumflex" horiz-adv-x="772" d="M539 685L386 749L232 685L219 695L336 851H436L552 695L539 685ZM386 670Q466 670 532 647T646 581T720 474T746 330Q746 249 720 185T647 77T533 9T386 -14Q306 -14 240 9T127 76T53
185T26 330Q26 411 52 474T126 580T240 647T386 670ZM386 6Q407 6 417 15T433 36Q442 53 452 125T463 328Q463 458 453 531T433 621Q427 633 417 641T386 650Q365 650 355 642T339 621Q330 604 320 531T309 328Q309 198 319 126T339 36Q345 24 355 15T386 6Z" />
<glyph unicode="&#xd5;" glyph-name="Otilde" horiz-adv-x="772" d="M589 855Q586 830 576 804T548 755T508 718T454 703Q434 703 415 708T377 719T340 731T305 736Q279 736 262 722T239 686H217Q221 719 231 747T257 797T296 829T351 841Q370 841 389 836T427
825T464 813T499 808Q522 808 541 821T568 855H589ZM386 670Q466 670 532 647T646 581T720 474T746 330Q746 249 720 185T647 77T533 9T386 -14Q306 -14 240 9T127 76T53 185T26 330Q26 411 52 474T126 580T240 647T386 670ZM386 6Q407 6 417 15T433 36Q442 53
452 125T463 328Q463 458 453 531T433 621Q427 633 417 641T386 650Q365 650 355 642T339 621Q330 604 320 531T309 328Q309 198 319 126T339 36Q345 24 355 15T386 6Z" />
<glyph unicode="&#xd6;" glyph-name="Odieresis" horiz-adv-x="772" d="M268 850Q309 850 334 827T360 769Q360 734 336 711T268 688Q223 688 199 711T175 770Q175 805 200 827T268 850ZM506 850Q547 850 572 827T598 769Q598 734 574 711T506 688Q461 688 437
711T413 770Q413 805 438 827T506 850ZM386 670Q466 670 532 647T646 581T720 474T746 330Q746 249 720 185T647 77T533 9T386 -14Q306 -14 240 9T127 76T53 185T26 330Q26 411 52 474T126 580T240 647T386 670ZM386 6Q407 6 417 15T433 36Q442 53 452 125T463
328Q463 458 453 531T433 621Q427 633 417 641T386 650Q365 650 355 642T339 621Q330 604 320 531T309 328Q309 198 319 126T339 36Q345 24 355 15T386 6Z" />
<glyph unicode="&#xd7;" glyph-name="multiply" horiz-adv-x="410" d="M234 258L372 115L340 84L202 224L65 84L33 115L171 257L33 397L67 431L202 291L338 431L372 399L234 258Z" />
<glyph unicode="&#xd8;" glyph-name="Oslash" horiz-adv-x="772" d="M386 670Q466 670 532 647L536 646L577 716L595 706L556 638Q607 616 646 580Q694 537 720 474T746 330Q746 249 720 185T647 77T533 9T386 -14Q306 -14 240 9Q220 16 201 24L152 -61L135 -51L184
34Q152 52 126 76Q79 121 53 185T26 330Q26 411 52 474T126 580T240 647T386 670ZM386 6Q408 6 418 15T434 36Q443 53 454 125T465 328Q465 412 460 473L309 211Q312 161 318 125Q329 53 338 36Q344 24 354 15T386 6ZM454 531Q443 604 434 621Q428 633 418 641T386
650Q364 650 354 642T338 621Q329 604 318 531T307 328Q307 285 308 249L457 507Q455 520 454 531Z" />
<glyph unicode="&#xd9;" glyph-name="Ugrave" horiz-adv-x="718" d="M549 682L372 697Q280 704 280 780Q280 809 299 831T356 853Q383 853 402 841T439 812L554 695L549 682ZM630 222Q630 177 625 140T602 74Q591 56 575 40T533 13T473 -5T389 -12Q306 -12 239
7T130 80Q113 103 100 146T87 252V524Q87 563 85 583T78 611Q73 622 67 628T49 639Q38 643 29 644T11 646V657H424V646Q416 645 407 644T386 639Q365 631 356 609Q351 601 350 582T348 525V204Q348 159 353 136T364 101Q378 72 409 57T483 42Q529 42 554 63T589
118Q596 141 598 168T601 221V494Q601 541 597 564T584 603Q576 619 564 627T538 640Q525 644 503 646V657H729V646Q717 645 709 644T692 640Q681 637 669 628T648 602Q640 586 635 563T630 494V222Z" />
<glyph unicode="&#xda;" glyph-name="Uacute" horiz-adv-x="718" d="M514 853Q551 853 570 831T590 780Q590 744 568 723T498 698L321 683L316 695L428 810Q445 827 466 840T514 853ZM630 222Q630 177 625 140T602 74Q591 56 575 40T533 13T473 -5T389 -12Q306
-12 239 7T130 80Q113 103 100 146T87 252V524Q87 563 85 583T78 611Q73 622 67 628T49 639Q38 643 29 644T11 646V657H424V646Q416 645 407 644T386 639Q365 631 356 609Q351 601 350 582T348 525V204Q348 159 353 136T364 101Q378 72 409 57T483 42Q529 42 554
63T589 118Q596 141 598 168T601 221V494Q601 541 597 564T584 603Q576 619 564 627T538 640Q525 644 503 646V657H729V646Q717 645 709 644T692 640Q681 637 669 628T648 602Q640 586 635 563T630 494V222Z" />
<glyph unicode="&#xdb;" glyph-name="Ucircumflex" horiz-adv-x="718" d="M576 685L423 749L269 685L256 695L373 851H473L589 695L576 685ZM630 222Q630 177 625 140T602 74Q591 56 575 40T533 13T473 -5T389 -12Q306 -12 239 7T130 80Q113 103 100 146T87 252V524Q87
563 85 583T78 611Q73 622 67 628T49 639Q38 643 29 644T11 646V657H424V646Q416 645 407 644T386 639Q365 631 356 609Q351 601 350 582T348 525V204Q348 159 353 136T364 101Q378 72 409 57T483 42Q529 42 554 63T589 118Q596 141 598 168T601 221V494Q601 541
597 564T584 603Q576 619 564 627T538 640Q525 644 503 646V657H729V646Q717 645 709 644T692 640Q681 637 669 628T648 602Q640 586 635 563T630 494V222Z" />
<glyph unicode="&#xdc;" glyph-name="Udieresis" horiz-adv-x="718" d="M630 222Q630 177 625 140T602 74Q591 56 575 40T533 13T473 -5T389 -12Q306 -12 239 7T130 80Q113 103 100 146T87 252V524Q87 563 85 583T78 611Q73 622 67 628T49 639Q38 643 29 644T11
646V657H424V646Q416 645 407 644T386 639Q365 631 356 609Q351 601 350 582T348 525V204Q348 159 353 136T364 101Q378 72 409 57T483 42Q529 42 554 63T589 118Q596 141 598 168T601 221V494Q601 541 597 564T584 603Q576 619 564 627T538 640Q525 644 503 646V657H729V646Q717
645 709 644T692 640Q681 637 669 628T648 602Q640 586 635 563T630 494V222ZM321 850Q362 850 387 827T413 769Q413 734 389 711T321 688Q276 688 252 711T228 770Q228 805 253 827T321 850ZM559 850Q600 850 625 827T651 769Q651 734 627 711T559 688Q514 688
490 711T466 770Q466 805 491 827T559 850Z" />
<glyph unicode="&#xdd;" glyph-name="Yacute" horiz-adv-x="661" d="M94 541Q82 568 71 586T48 617T21 636T-13 646V657H424V646Q399 644 381 635T363 596Q363 585 365 571T373 543L442 347H447L517 506Q531 537 537 557T543 597Q543 618 534 627T511 641Q501
644 496 644T485 646V657H670V646Q652 641 637 634T608 613T580 574T548 511L458 311V133Q458 92 460 71T469 42Q476 34 482 29T499 19Q509 15 520 14T539 11V0H117V11Q125 12 136 13T158 19Q167 22 173 27T186 40Q193 48 196 69T199 133V302L94 541ZM465 853Q502
853 521 831T541 780Q541 744 519 723T449 698L272 683L267 695L379 810Q396 827 417 840T465 853Z" />
<glyph unicode="&#xde;" glyph-name="Thorn" horiz-adv-x="736" d="M464 350Q464 396 458 426T443 472T420 495T394 502Q377 502 367 487Q365 483 363 479T360 469Q356 456 355 440T353 410V176Q358 174 372 173T395 171Q410 172 425 178T450 210Q459 241 461
279T464 350ZM435 525Q578 525 648 484T718 348Q718 292 697 258T641 200Q624 188 604 179T556 163T490 153T398 149Q396 149 390 149T376 150T363 151T353 152V139Q352 107 354 89T366 50Q373 36 383 29T409 17Q420 14 428 13T448 11V0H9V11Q18 12 25 13T39 16Q68
26 80 55Q88 77 91 111T94 190V555Q94 572 91 588T83 612Q71 631 53 638Q42 642 32 643T13 646V657H436V646Q428 645 417 644T394 638Q374 631 363 611Q358 604 356 587T353 525H435Z" />
<glyph unicode="&#xdf;" glyph-name="germandbls" horiz-adv-x="670" d="M657 168Q657 127 643 95T605 39T547 4T475 -8Q446 -8 423 -1T374 26H369L354 5H345L332 131H345Q360 95 374 71T404 32T437 12T475 6Q495 6 505 14T515 36Q515 46 512 52T498 67T470 89T423
125Q399 144 379 163T345 204T322 250T314 304Q314 343 325 368T352 410T387 442T422 473T449 514T460 574Q460 604 454 622T435 651T407 666T370 670Q352 670 337 667T312 655T296 630T290 587V91Q290 78 291 68T293 48T297 28Q299 19 304 15T318 9V0H4V9Q14 10
20 11T31 14Q41 18 44 24T50 41Q54 61 54 124V434H-4V462H54V468Q54 525 71 565T124 631Q166 661 226 674T356 689Q398 689 438 684T508 666T558 635T577 589Q577 560 555 540T507 505T458 476T436 450Q436 443 439 437T453 420T486 394T546 350Q604 308 630 265T657
168Z" />
<glyph unicode="&#xe0;" glyph-name="agrave" horiz-adv-x="588" d="M430 -7Q388 -7 370 -1T339 18Q323 34 319 65H315Q294 -9 178 -9Q105 -9 62 21T18 113Q18 139 25 161T50 199Q64 211 85 221T141 236Q188 244 219 250T269 264T296 285T306 318V395Q306 435
298 445T274 456Q259 456 248 454T236 438Q236 428 241 409T247 361Q247 312 221 290T148 267Q103 267 77 286T50 342Q50 393 89 423Q120 448 168 460T272 473Q353 473 403 459T481 424T519 378T529 332V121Q529 87 530 74T536 52Q540 44 548 40T566 36Q577 36
584 37T599 42L600 32Q589 21 547 7T430 -7ZM305 272Q300 267 295 265T277 254Q270 249 264 243T253 223Q249 210 248 193T246 143Q246 87 254 67T276 47Q290 47 297 57T305 83V272ZM153 611Q153 643 174 664T230 685Q265 685 288 663T330 612L404 498L397 489L239
525Q194 536 174 559T153 611Z" />
<glyph unicode="&#xe1;" glyph-name="aacute" horiz-adv-x="588" d="M430 -7Q388 -7 370 -1T339 18Q323 34 319 65H315Q294 -9 178 -9Q105 -9 62 21T18 113Q18 139 25 161T50 199Q64 211 85 221T141 236Q188 244 219 250T269 264T296 285T306 318V395Q306 435
298 445T274 456Q259 456 248 454T236 438Q236 428 241 409T247 361Q247 312 221 290T148 267Q103 267 77 286T50 342Q50 393 89 423Q120 448 168 460T272 473Q353 473 403 459T481 424T519 378T529 332V121Q529 87 530 74T536 52Q540 44 548 40T566 36Q577 36
584 37T599 42L600 32Q589 21 547 7T430 -7ZM305 272Q300 267 295 265T277 254Q270 249 264 243T253 223Q249 210 248 193T246 143Q246 87 254 67T276 47Q290 47 297 57T305 83V272ZM447 611Q447 582 427 559T361 525L203 489L196 498L270 612Q288 641 311 663T370
685Q404 685 425 664T447 611Z" />
<glyph unicode="&#xe2;" glyph-name="acircumflex" horiz-adv-x="588" d="M430 -7Q388 -7 370 -1T339 18Q323 34 319 65H315Q294 -9 178 -9Q105 -9 62 21T18 113Q18 139 25 161T50 199Q64 211 85 221T141 236Q188 244 219 250T269 264T296 285T306 318V395Q306
435 298 445T274 456Q259 456 248 454T236 438Q236 428 241 409T247 361Q247 312 221 290T148 267Q103 267 77 286T50 342Q50 393 89 423Q120 448 168 460T272 473Q353 473 403 459T481 424T519 378T529 332V121Q529 87 530 74T536 52Q540 44 548 40T566 36Q577
36 584 37T599 42L600 32Q589 21 547 7T430 -7ZM305 272Q300 267 295 265T277 254Q270 249 264 243T253 223Q249 210 248 193T246 143Q246 87 254 67T276 47Q290 47 297 57T305 83V272ZM435 479L286 560L136 479L122 490L236 668H336L448 490L435 479Z" />
<glyph unicode="&#xe3;" glyph-name="atilde" horiz-adv-x="588" d="M430 -7Q388 -7 370 -1T339 18Q323 34 319 65H315Q294 -9 178 -9Q105 -9 62 21T18 113Q18 139 25 161T50 199Q64 211 85 221T141 236Q188 244 219 250T269 264T296 285T306 318V395Q306 435
298 445T274 456Q259 456 248 454T236 438Q236 428 241 409T247 361Q247 312 221 290T148 267Q103 267 77 286T50 342Q50 393 89 423Q120 448 168 460T272 473Q353 473 403 459T481 424T519 378T529 332V121Q529 87 530 74T536 52Q540 44 548 40T566 36Q577 36
584 37T599 42L600 32Q589 21 547 7T430 -7ZM305 272Q300 267 295 265T277 254Q270 249 264 243T253 223Q249 210 248 193T246 143Q246 87 254 67T276 47Q290 47 297 57T305 83V272ZM474 654Q471 628 463 602T439 553T402 517T350 503Q330 503 311 508T275 520T241
531T212 537Q185 537 173 521T155 487L134 488Q138 518 146 546T168 595T205 629T259 642Q277 642 295 637T330 625T363 614T395 608Q437 608 453 655L474 654Z" />
<glyph unicode="&#xe4;" glyph-name="adieresis" horiz-adv-x="588" d="M430 -7Q388 -7 370 -1T339 18Q323 34 319 65H315Q294 -9 178 -9Q105 -9 62 21T18 113Q18 139 25 161T50 199Q64 211 85 221T141 236Q188 244 219 250T269 264T296 285T306 318V395Q306 435
298 445T274 456Q259 456 248 454T236 438Q236 428 241 409T247 361Q247 312 221 290T148 267Q103 267 77 286T50 342Q50 393 89 423Q120 448 168 460T272 473Q353 473 403 459T481 424T519 378T529 332V121Q529 87 530 74T536 52Q540 44 548 40T566 36Q577 36
584 37T599 42L600 32Q589 21 547 7T430 -7ZM305 272Q300 267 295 265T277 254Q270 249 264 243T253 223Q249 210 248 193T246 143Q246 87 254 67T276 47Q290 47 297 57T305 83V272ZM175 647Q216 647 241 624T267 565Q267 531 243 508T175 485Q130 485 106 508T81
566Q81 601 107 624T175 647ZM401 647Q443 647 468 624T494 565Q494 531 470 508T401 485Q356 485 332 508T308 566Q308 601 333 624T401 647Z" />
<glyph unicode="&#xe5;" glyph-name="aring" horiz-adv-x="588" d="M430 -7Q388 -7 370 -1T339 18Q323 34 319 65H315Q294 -9 178 -9Q105 -9 62 21T18 113Q18 139 25 161T50 199Q64 211 85 221T141 236Q188 244 219 250T269 264T296 285T306 318V395Q306 435 298
445T274 456Q259 456 248 454T236 438Q236 428 241 409T247 361Q247 312 221 290T148 267Q103 267 77 286T50 342Q50 393 89 423Q120 448 168 460T272 473Q353 473 403 459T481 424T519 378T529 332V121Q529 87 530 74T536 52Q540 44 548 40T566 36Q577 36 584
37T599 42L600 32Q589 21 547 7T430 -7ZM305 272Q300 267 295 265T277 254Q270 249 264 243T253 223Q249 210 248 193T246 143Q246 87 254 67T276 47Q290 47 297 57T305 83V272ZM384 587Q384 566 376 549T355 519T323 499T283 492Q239 492 211 518T182 587Q182
627 210 654T283 682Q328 682 356 656T384 587ZM342 587Q342 615 329 634T283 654Q251 654 238 635T225 587Q225 558 238 539T283 519Q315 519 328 538T342 587Z" />
<glyph unicode="&#xe6;" glyph-name="ae" horiz-adv-x="831" d="M181 -9Q105 -9 62 21T18 113Q18 139 25 161T49 199Q63 211 83 220T139 236Q186 244 218 250T269 264T297 285T306 319V395Q306 435 298 445T274 456Q259 456 248 452T236 438Q236 427 241 408T247
362Q247 313 221 290T148 267Q103 267 77 286T50 341Q50 367 60 388T90 424Q121 448 168 460T272 473Q329 473 365 460T427 420Q453 444 493 457T581 471Q641 471 686 454T761 409T806 344T821 269V257Q821 250 820 243H545Q545 192 546 158T551 102T559 68T570
49Q579 38 594 30T636 21Q673 21 701 34T750 67T784 111T804 159L819 153Q811 126 796 97T755 45T690 6T592 -9Q511 -9 453 14T359 77Q336 30 288 11T181 -9ZM305 272Q300 268 295 265T276 253Q269 248 263 241T252 221Q249 208 248 191T246 141Q246 109 246 87T250
52T258 34T273 28Q288 28 296 39T305 77V272ZM617 287Q617 340 616 377T608 437Q605 446 600 450T582 454Q563 454 557 436Q551 420 549 381T546 262H599Q609 263 613 267T617 287Z" />
<glyph unicode="&#xe7;" glyph-name="ccedilla" horiz-adv-x="530" d="M266 -192Q234 -192 206 -186T164 -171L170 -159Q182 -166 198 -170T229 -174Q252 -174 266 -160T280 -113Q280 -84 272 -73T249 -61Q241 -61 236 -63T225 -70L210 -64L227 -4Q191 1 162 12T107
39Q60 70 36 117T11 224Q11 285 33 331T95 408T186 455T297 471Q332 471 358 468T403 461T435 451T458 441Q482 430 501 408T521 352Q521 329 513 313T492 286T461 270T424 265Q382 265 355 290T327 368Q326 406 322 430T299 454Q288 454 283 450T274 436Q266 419
262 375T258 238Q258 183 260 149T266 94T275 63T287 47Q297 37 310 30T349 23Q383 23 410 34T458 64T491 107T512 156L527 151Q519 123 505 95T464 43T397 6T300 -9Q270 -9 245 -6L232 -51Q237 -47 257 -41T309 -35Q354 -35 381 -55T409 -111Q409 -138 396 -154T361
-178T315 -189T266 -192Z" />
<glyph unicode="&#xe8;" glyph-name="egrave" horiz-adv-x="544" d="M533 153Q525 126 510 97T469 45T402 6T304 -9Q235 -9 185 7T99 49Q54 81 33 127T11 226Q11 287 34 332T97 409T187 455T294 471Q354 471 399 454T474 409T519 344T534 269V257Q534 250 533
243H258Q258 192 259 158T264 102T272 68T283 49Q292 38 307 30T349 21Q386 21 414 34T464 67T498 111T518 159L533 153ZM313 262Q323 262 326 267T330 287Q330 341 330 377T322 437Q319 446 314 450T295 454Q276 454 270 436Q264 420 262 381T259 262H313ZM158
611Q158 643 179 664T235 685Q270 685 293 663T335 612L409 498L402 489L244 525Q199 536 179 559T158 611Z" />
<glyph unicode="&#xe9;" glyph-name="eacute" horiz-adv-x="544" d="M427 611Q427 582 407 559T341 525L183 489L176 498L250 612Q268 641 291 663T350 685Q384 685 405 664T427 611ZM533 153Q525 126 510 97T469 45T402 6T304 -9Q235 -9 185 7T99 49Q54 81 33
127T11 226Q11 287 34 332T97 409T187 455T294 471Q354 471 399 454T474 409T519 344T534 269V257Q534 250 533 243H258Q258 192 259 158T264 102T272 68T283 49Q292 38 307 30T349 21Q386 21 414 34T464 67T498 111T518 159L533 153ZM313 262Q323 262 326 267T330
287Q330 341 330 377T322 437Q319 446 314 450T295 454Q276 454 270 436Q264 420 262 381T259 262H313Z" />
<glyph unicode="&#xea;" glyph-name="ecircumflex" horiz-adv-x="544" d="M441 479L292 560L142 479L128 490L242 668H342L454 490L441 479ZM533 153Q525 126 510 97T469 45T402 6T304 -9Q235 -9 185 7T99 49Q54 81 33 127T11 226Q11 287 34 332T97 409T187 455T294
471Q354 471 399 454T474 409T519 344T534 269V257Q534 250 533 243H258Q258 192 259 158T264 102T272 68T283 49Q292 38 307 30T349 21Q386 21 414 34T464 67T498 111T518 159L533 153ZM313 262Q323 262 326 267T330 287Q330 341 330 377T322 437Q319 446 314
450T295 454Q276 454 270 436Q264 420 262 381T259 262H313Z" />
<glyph unicode="&#xeb;" glyph-name="edieresis" horiz-adv-x="544" d="M180 647Q221 647 246 624T272 565Q272 531 248 508T180 485Q135 485 111 508T86 566Q86 601 112 624T180 647ZM406 647Q448 647 473 624T499 565Q499 531 475 508T406 485Q361 485 337 508T313
566Q313 601 338 624T406 647ZM533 153Q525 126 510 97T469 45T402 6T304 -9Q235 -9 185 7T99 49Q54 81 33 127T11 226Q11 287 34 332T97 409T187 455T294 471Q354 471 399 454T474 409T519 344T534 269V257Q534 250 533 243H258Q258 192 259 158T264 102T272 68T283
49Q292 38 307 30T349 21Q386 21 414 34T464 67T498 111T518 159L533 153ZM313 262Q323 262 326 267T330 287Q330 341 330 377T322 437Q319 446 314 450T295 454Q276 454 270 436Q264 420 262 381T259 262H313Z" />
<glyph unicode="&#xec;" glyph-name="igrave" horiz-adv-x="331" d="M286 132Q286 98 287 76T291 42Q294 22 309 15Q320 10 337 9V0H-3V9Q16 10 25 15Q39 22 44 42Q46 54 47 76T48 132V386Q48 400 46 411Q44 425 40 432T29 444Q23 447 17 449T1 451V462H282Q287
462 287 454Q287 433 287 414T286 359V132ZM273 611Q273 643 294 664T350 685Q385 685 408 663T450 612L524 498L517 489L359 525Q314 536 294 559T273 611Z" />
<glyph unicode="&#xed;" glyph-name="iacute" horiz-adv-x="331" d="M552 611Q552 582 532 559T466 525L308 489L301 498L375 612Q393 641 416 663T475 685Q509 685 530 664T552 611ZM286 132Q286 98 287 76T291 42Q294 22 309 15Q320 10 337 9V0H-3V9Q16 10 25
15Q39 22 44 42Q46 54 47 76T48 132V386Q48 400 46 411Q44 425 40 432T29 444Q23 447 17 449T1 451V462H282Q287 462 287 454Q287 433 287 414T286 359V132Z" />
<glyph unicode="&#xee;" glyph-name="icircumflex" horiz-adv-x="331" d="M560 479L411 560L261 479L247 490L361 668H461L573 490L560 479ZM286 132Q286 98 287 76T291 42Q294 22 309 15Q320 10 337 9V0H-3V9Q16 10 25 15Q39 22 44 42Q46 54 47 76T48 132V386Q48
400 46 411Q44 425 40 432T29 444Q23 447 17 449T1 451V462H282Q287 462 287 454Q287 433 287 414T286 359V132Z" />
<glyph unicode="&#xef;" glyph-name="idieresis" horiz-adv-x="331" d="M58 643Q98 643 121 621T145 563Q145 528 123 505T58 481Q14 481 -8 505T-31 564Q-31 599 -8 621T58 643ZM262 643Q303 643 326 621T350 563Q350 530 328 506T262 481Q218 481 196 505T174
564Q174 599 197 621T262 643ZM286 132Q286 98 287 76T291 42Q294 22 309 15Q320 10 337 9V0H-3V9Q16 10 25 15Q39 22 44 42Q46 54 47 76T48 132V386Q48 400 46 411Q44 425 40 432T29 444Q23 447 17 449T1 451V462H282Q287 462 287 454Q287 433 287 414T286 359V132Z"
/>
<glyph unicode="&#xf0;" glyph-name="eth" horiz-adv-x="586" d="M289 471H301Q307 471 314 470Q306 498 289 527Q278 547 264 566L154 513V533L253 581Q252 582 251 584Q229 611 203 635T148 678L158 684Q196 672 241 655Q284 640 327 617H328L415 660V640L347
607Q385 585 420 558Q463 526 496 482T548 382T568 255Q568 185 547 135T488 53T399 6T289 -9Q229 -9 179 6T91 52T32 127T11 231Q11 286 31 330T89 406T177 454T289 471ZM326 233Q326 327 324 380T311 447Q305 456 289 456Q274 456 268 447Q258 433 256 379T254
231Q254 137 256 84T268 16Q274 7 289 7Q305 7 311 16Q321 30 323 84T326 233Z" />
<glyph unicode="&#xf1;" glyph-name="ntilde" horiz-adv-x="640" d="M599 124Q599 61 603 41Q606 21 622 15Q627 13 633 12T650 9V0H333V9Q345 11 351 17Q358 23 360 42Q361 49 361 66V389Q361 401 361 406T355 417Q352 420 348 420T342 421Q329 421 317 404T295
343Q290 324 288 301T286 237V66Q286 49 287 43Q289 23 296 17Q302 11 315 9V0H-3V9Q16 10 25 15Q40 21 43 42Q45 53 46 72T48 124V386Q48 400 46 411Q44 425 40 432T29 444Q23 447 17 449T1 451V462H281Q287 462 287 454Q287 444 287 437T286 422T286 404T285
377H288Q291 388 297 403T317 433Q338 454 369 462T449 471Q478 471 511 460T566 419Q587 392 593 363T599 305V124ZM507 654Q504 628 496 602T472 553T435 517T383 503Q363 503 344 508T308 520T274 531T245 537Q218 537 206 521T188 487L167 488Q171 518 179
546T201 595T238 629T292 642Q310 642 328 637T363 625T396 614T428 608Q470 608 486 655L507 654Z" />
<glyph unicode="&#xf2;" glyph-name="ograve" horiz-adv-x="580" d="M11 231Q11 286 31 330T88 405T176 454T290 471Q353 471 404 454T492 406T549 331T569 231Q569 175 550 131T494 56T406 8T290 -9Q226 -9 175 8T87 56T31 131T11 231ZM326 231Q326 328 324 382T308
450Q302 456 290 456Q277 456 271 449Q260 436 257 382T254 231Q254 134 257 80T271 13Q277 7 290 7Q302 7 308 13Q321 27 323 80T326 231ZM162 611Q162 643 183 664T239 685Q274 685 297 663T339 612L413 498L406 489L248 525Q203 536 183 559T162 611Z" />
<glyph unicode="&#xf3;" glyph-name="oacute" horiz-adv-x="580" d="M422 611Q422 582 402 559T336 525L178 489L171 498L245 612Q263 641 286 663T345 685Q379 685 400 664T422 611ZM11 231Q11 286 31 330T88 405T176 454T290 471Q353 471 404 454T492 406T549
331T569 231Q569 175 550 131T494 56T406 8T290 -9Q226 -9 175 8T87 56T31 131T11 231ZM326 231Q326 328 324 382T308 450Q302 456 290 456Q277 456 271 449Q260 436 257 382T254 231Q254 134 257 80T271 13Q277 7 290 7Q302 7 308 13Q321 27 323 80T326 231Z"
/>
<glyph unicode="&#xf4;" glyph-name="ocircumflex" horiz-adv-x="580" d="M440 479L291 560L141 479L127 490L241 668H341L453 490L440 479ZM11 231Q11 286 31 330T88 405T176 454T290 471Q353 471 404 454T492 406T549 331T569 231Q569 175 550 131T494 56T406
8T290 -9Q226 -9 175 8T87 56T31 131T11 231ZM326 231Q326 328 324 382T308 450Q302 456 290 456Q277 456 271 449Q260 436 257 382T254 231Q254 134 257 80T271 13Q277 7 290 7Q302 7 308 13Q321 27 323 80T326 231Z" />
<glyph unicode="&#xf5;" glyph-name="otilde" horiz-adv-x="580" d="M11 231Q11 286 31 330T88 405T176 454T290 471Q353 471 404 454T492 406T549 331T569 231Q569 175 550 131T494 56T406 8T290 -9Q226 -9 175 8T87 56T31 131T11 231ZM326 231Q326 328 324 382T308
450Q302 456 290 456Q277 456 271 449Q260 436 257 382T254 231Q254 134 257 80T271 13Q277 7 290 7Q302 7 308 13Q321 27 323 80T326 231ZM463 654Q460 628 452 602T428 553T391 517T339 503Q319 503 300 508T264 520T230 531T201 537Q174 537 162 521T144 487L123
488Q127 518 135 546T157 595T194 629T248 642Q266 642 284 637T319 625T352 614T384 608Q426 608 442 655L463 654Z" />
<glyph unicode="&#xf6;" glyph-name="odieresis" horiz-adv-x="580" d="M178 647Q219 647 244 624T270 565Q270 531 246 508T178 485Q133 485 109 508T84 566Q84 601 110 624T178 647ZM404 647Q446 647 471 624T497 565Q497 531 473 508T404 485Q359 485 335 508T311
566Q311 601 336 624T404 647ZM11 231Q11 286 31 330T88 405T176 454T290 471Q353 471 404 454T492 406T549 331T569 231Q569 175 550 131T494 56T406 8T290 -9Q226 -9 175 8T87 56T31 131T11 231ZM326 231Q326 328 324 382T308 450Q302 456 290 456Q277 456 271
449Q260 436 257 382T254 231Q254 134 257 80T271 13Q277 7 290 7Q302 7 308 13Q321 27 323 80T326 231Z" />
<glyph unicode="&#xf7;" glyph-name="divide" horiz-adv-x="610" d="M415 440Q415 397 387 369T307 340Q256 340 230 369T203 440Q203 481 231 510T310 540Q363 540 389 511T415 440ZM36 246V290H581V246H36ZM415 93Q415 50 387 22T307 -7Q256 -7 230 22T203 93Q203
134 231 163T310 193Q363 193 389 164T415 93Z" />
<glyph unicode="&#xf8;" glyph-name="oslash" horiz-adv-x="577" d="M11 231Q11 286 31 330T88 405T176 454T290 471Q335 471 374 462L406 541L426 534L395 457Q400 455 404 454Q456 437 492 406T549 331T569 231Q569 175 550 131T494 56T406 8T290 -9Q247 -9
209 -1L171 -95L151 -88L188 4Q181 6 174 8Q123 25 87 56T31 131T11 231ZM327 382Q324 437 310 450Q304 456 290 456Q275 456 269 449Q256 436 253 382T250 231Q250 190 250 157L328 350Q328 368 327 382ZM330 231V297L251 104Q252 91 253 80Q256 26 269 13Q275
7 290 7Q304 7 310 13Q324 27 327 80T330 231Z" />
<glyph unicode="&#xf9;" glyph-name="ugrave" horiz-adv-x="631" d="M35 324Q35 366 34 390T25 429Q15 450 -19 453V462H263Q272 462 272 456Q272 451 271 420T270 342V78Q270 42 292 42Q304 42 320 62T341 137Q343 157 344 184T345 255V368Q345 381 345 396T340
422Q337 433 332 438T320 448Q313 451 297 453V462H575Q584 462 584 456Q584 451 583 420T582 342V105Q582 92 582 78T585 52Q588 37 592 30T604 18Q609 15 615 13T629 11V0L353 -7Q348 -7 347 -6T346 2Q346 14 346 33T347 82H343Q340 68 335 56T315 28Q295 6 265
-1T188 -9Q150 -9 117 1T61 42Q42 68 39 97T35 164V324ZM167 611Q167 643 188 664T244 685Q279 685 302 663T344 612L418 498L411 489L253 525Q208 536 188 559T167 611Z" />
<glyph unicode="&#xfa;" glyph-name="uacute" horiz-adv-x="631" d="M446 611Q446 582 426 559T360 525L202 489L195 498L269 612Q287 641 310 663T369 685Q403 685 424 664T446 611ZM35 324Q35 366 34 390T25 429Q15 450 -19 453V462H263Q272 462 272 456Q272
451 271 420T270 342V78Q270 42 292 42Q304 42 320 62T341 137Q343 157 344 184T345 255V368Q345 381 345 396T340 422Q337 433 332 438T320 448Q313 451 297 453V462H575Q584 462 584 456Q584 451 583 420T582 342V105Q582 92 582 78T585 52Q588 37 592 30T604
18Q609 15 615 13T629 11V0L353 -7Q348 -7 347 -6T346 2Q346 14 346 33T347 82H343Q340 68 335 56T315 28Q295 6 265 -1T188 -9Q150 -9 117 1T61 42Q42 68 39 97T35 164V324Z" />
<glyph unicode="&#xfb;" glyph-name="ucircumflex" horiz-adv-x="631" d="M446 479L297 560L147 479L133 490L247 668H347L459 490L446 479ZM35 324Q35 366 34 390T25 429Q15 450 -19 453V462H263Q272 462 272 456Q272 451 271 420T270 342V78Q270 42 292 42Q304
42 320 62T341 137Q343 157 344 184T345 255V368Q345 381 345 396T340 422Q337 433 332 438T320 448Q313 451 297 453V462H575Q584 462 584 456Q584 451 583 420T582 342V105Q582 92 582 78T585 52Q588 37 592 30T604 18Q609 15 615 13T629 11V0L353 -7Q348 -7
347 -6T346 2Q346 14 346 33T347 82H343Q340 68 335 56T315 28Q295 6 265 -1T188 -9Q150 -9 117 1T61 42Q42 68 39 97T35 164V324Z" />
<glyph unicode="&#xfc;" glyph-name="udieresis" horiz-adv-x="631" d="M184 647Q225 647 250 624T276 565Q276 531 252 508T184 485Q139 485 115 508T90 566Q90 601 116 624T184 647ZM410 647Q452 647 477 624T503 565Q503 531 479 508T410 485Q365 485 341 508T317
566Q317 601 342 624T410 647ZM35 324Q35 366 34 390T25 429Q15 450 -19 453V462H263Q272 462 272 456Q272 451 271 420T270 342V78Q270 42 292 42Q304 42 320 62T341 137Q343 157 344 184T345 255V368Q345 381 345 396T340 422Q337 433 332 438T320 448Q313 451
297 453V462H575Q584 462 584 456Q584 451 583 420T582 342V105Q582 92 582 78T585 52Q588 37 592 30T604 18Q609 15 615 13T629 11V0L353 -7Q348 -7 347 -6T346 2Q346 14 346 33T347 82H343Q340 68 335 56T315 28Q295 6 265 -1T188 -9Q150 -9 117 1T61 42Q42 68
39 97T35 164V324Z" />
<glyph unicode="&#xfd;" glyph-name="yacute" horiz-adv-x="511" d="M265 -108Q254 -134 240 -156T206 -190Q167 -213 114 -213Q89 -213 66 -207T24 -187T-5 -153T-16 -106Q-16 -88 -10 -72T9 -44T38 -24T79 -16Q108 -16 131 -27T166 -58Q177 -76 179 -98T182
-138Q182 -149 184 -155T195 -162Q220 -162 235 -125Q240 -113 241 -102T242 -82Q242 -74 238 -64T230 -47L74 322Q62 351 50 374T27 411Q19 422 13 429T-2 443Q-8 447 -15 449T-31 453V462H353V453Q345 452 338 451T325 445Q309 435 309 417Q309 402 314 384T327
344L368 222H371L417 339Q428 365 431 380T435 410Q435 425 429 433T413 446Q400 452 392 453V462H537V453Q520 451 505 440T475 407Q469 396 462 383T445 345L427 300Q413 265 394 217T354 115T314 14T282 -67T265 -108ZM491 611Q491 582 471 559T405 525L247
489L240 498L314 612Q332 641 355 663T414 685Q448 685 469 664T491 611Z" />
<glyph unicode="&#xfe;" glyph-name="thorn" horiz-adv-x="618" d="M44 -88V601Q44 620 42 636Q39 659 27 667Q17 673 0 673V684H277Q283 684 283 677Q283 672 283 660T282 632T281 600T280 572V394H282Q292 426 322 448T408 471Q448 471 484 456T546 410T588
336T604 235Q604 175 584 129T532 53T460 7T378 -9Q358 -9 344 -8T319 -5T301 2T286 11H282V-88Q282 -99 282 -118T286 -158Q290 -186 314 -197Q324 -201 344 -203V-213H-15V-203Q3 -201 12 -197Q23 -192 31 -182T41 -158Q43 -141 43 -120T44 -88ZM362 210Q362
277 361 318T357 381T348 411T331 419Q315 419 306 406T291 372T284 324T282 269V118Q282 103 283 91T286 68T291 45Q301 13 323 13Q336 13 343 20T355 49T360 109T362 210Z" />
<glyph unicode="&#xff;" glyph-name="ydieresis" horiz-adv-x="511" d="M265 -108Q254 -134 240 -156T206 -190Q167 -213 114 -213Q89 -213 66 -207T24 -187T-5 -153T-16 -106Q-16 -88 -10 -72T9 -44T38 -24T79 -16Q108 -16 131 -27T166 -58Q177 -76 179 -98T182
-138Q182 -149 184 -155T195 -162Q220 -162 235 -125Q240 -113 241 -102T242 -82Q242 -74 238 -64T230 -47L74 322Q62 351 50 374T27 411Q19 422 13 429T-2 443Q-8 447 -15 449T-31 453V462H353V453Q345 452 338 451T325 445Q309 435 309 417Q309 402 314 384T327
344L368 222H371L417 339Q428 365 431 380T435 410Q435 425 429 433T413 446Q400 452 392 453V462H537V453Q520 451 505 440T475 407Q469 396 462 383T445 345L427 300Q413 265 394 217T354 115T314 14T282 -67T265 -108ZM183 647Q224 647 249 624T275 565Q275
531 251 508T183 485Q138 485 114 508T89 566Q89 601 115 624T183 647ZM409 647Q451 647 476 624T502 565Q502 531 478 508T409 485Q364 485 340 508T316 566Q316 601 341 624T409 647Z" />
<glyph unicode="&#x100;" glyph-name="Amacron" horiz-adv-x="683" d="M210 358H206L135 169H274L210 358ZM-26 11Q-18 13 -6 16T16 26Q26 32 34 40T54 63Q66 80 79 105T101 153L299 662H386L559 205Q570 176 578 157T592 122T605 95T620 70Q632 52 642 41T666
23Q675 18 686 16T707 11V0H226V11Q237 13 248 16T266 22Q280 27 290 37T301 68Q301 86 297 100T287 135L281 148H127L121 133Q115 119 111 106T107 75Q107 59 113 44T134 22Q143 17 156 15T178 11V0H-26V11ZM183 698V783H502V698H183Z" />
<glyph unicode="&#x101;" glyph-name="amacron" horiz-adv-x="588" d="M430 -7Q388 -7 370 -1T339 18Q323 34 319 65H315Q294 -9 178 -9Q105 -9 62 21T18 113Q18 139 25 161T50 199Q64 211 85 221T141 236Q188 244 219 250T269 264T296 285T306 318V395Q306 435
298 445T274 456Q259 456 248 454T236 438Q236 428 241 409T247 361Q247 312 221 290T148 267Q103 267 77 286T50 342Q50 393 89 423Q120 448 168 460T272 473Q353 473 403 459T481 424T519 378T529 332V121Q529 87 530 74T536 52Q540 44 548 40T566 36Q577 36
584 37T599 42L600 32Q589 21 547 7T430 -7ZM305 272Q300 267 295 265T277 254Q270 249 264 243T253 223Q249 210 248 193T246 143Q246 87 254 67T276 47Q290 47 297 57T305 83V272ZM172 518V603H438V518H172Z" />
<glyph unicode="&#x102;" glyph-name="Abreve" horiz-adv-x="683" d="M210 358H206L135 169H274L210 358ZM-26 11Q-18 13 -6 16T16 26Q26 32 34 40T54 63Q66 80 79 105T101 153L299 662H386L559 205Q570 176 578 157T592 122T605 95T620 70Q632 52 642 41T666
23Q675 18 686 16T707 11V0H226V11Q237 13 248 16T266 22Q280 27 290 37T301 68Q301 86 297 100T287 135L281 148H127L121 133Q115 119 111 106T107 75Q107 59 113 44T134 22Q143 17 156 15T178 11V0H-26V11ZM484 851Q479 771 445 729T342 686Q273 686 239 728T199
851L210 858Q228 829 262 813T342 797Q385 797 419 812T471 858L484 851Z" />
<glyph unicode="&#x103;" glyph-name="abreve" horiz-adv-x="588" d="M430 -7Q388 -7 370 -1T339 18Q323 34 319 65H315Q294 -9 178 -9Q105 -9 62 21T18 113Q18 139 25 161T50 199Q64 211 85 221T141 236Q188 244 219 250T269 264T296 285T306 318V395Q306 435
298 445T274 456Q259 456 248 454T236 438Q236 428 241 409T247 361Q247 312 221 290T148 267Q103 267 77 286T50 342Q50 393 89 423Q120 448 168 460T272 473Q353 473 403 459T481 424T519 378T529 332V121Q529 87 530 74T536 52Q540 44 548 40T566 36Q577 36
584 37T599 42L600 32Q589 21 547 7T430 -7ZM305 272Q300 267 295 265T277 254Q270 249 264 243T253 223Q249 210 248 193T246 143Q246 87 254 67T276 47Q290 47 297 57T305 83V272ZM441 657Q434 577 401 535T298 493Q229 493 195 535T154 657L165 663Q185 634
218 617T298 599Q344 599 377 616T429 663L441 657Z" />
<glyph unicode="&#x104;" glyph-name="Aogonek" horiz-adv-x="683" d="M210 358H206L135 169H274L210 358ZM70 -131Q70 -107 81 -92T112 -64T162 -40T230 -13Q246 -7 259 -3T283 8T299 24T305 51Q305 73 299 94T287 135L281 148H127L121 133Q115 119 111 106T107
75Q107 59 113 44T134 22Q143 17 156 15T178 11V0H-26V11Q-18 13 -6 16T16 26Q26 32 34 40T54 63Q66 80 79 105T101 153L299 662H386L559 205Q570 176 578 157T592 122T605 95T620 70Q632 52 642 41T666 23Q675 18 686 16T707 11V0H387Q349 0 327 0T290 -5T269
-16T255 -38Q247 -56 243 -78T239 -127Q239 -149 245 -163T261 -186T283 -197T307 -202V-212Q239 -216 194 -211T121 -194T82 -166T70 -131Z" />
<glyph unicode="&#x105;" glyph-name="aogonek" horiz-adv-x="588" d="M305 272Q300 267 295 265T277 254Q270 249 264 243T253 223Q249 210 248 193T246 143Q246 87 254 67T276 47Q290 47 297 57T305 83V272ZM318 -128Q318 -106 328 -91T361 -63T422 -35T516
-1Q481 -9 433 -9Q391 -10 372 -4T339 16Q324 31 319 65H315Q294 -9 178 -9Q105 -9 62 21T18 113Q18 139 25 161T50 199Q64 211 85 221T141 236Q188 244 219 250T269 264T296 285T306 318V395Q306 435 298 445T274 456Q259 456 248 452T236 440Q235 428 241 409T247
361Q246 312 221 290T148 267Q103 267 77 286T50 342Q50 393 89 423Q120 448 168 460T272 473Q353 473 403 459T481 424T519 378T529 332V121Q529 87 530 74T536 52Q540 44 548 40T566 36Q577 36 584 37T599 42L600 32Q587 20 573 15T547 5Q515 -9 502 -41T488
-122Q488 -146 494 -161T509 -185T531 -197T555 -202V-212Q491 -215 446 -211T373 -195T331 -168T318 -128Z" />
<glyph unicode="&#x106;" glyph-name="Cacute" horiz-adv-x="679" d="M429 651Q400 651 385 643T362 625Q336 594 323 520T309 346Q309 254 321 185T368 80Q390 57 412 49T468 40Q498 40 524 54T572 90T611 141T641 197L664 187Q647 146 625 109T569 45T490 1T379
-16Q318 -16 256 1T144 58T62 164T30 328Q30 412 60 476T143 583T264 649T413 672Q473 672 516 657T588 604H592L631 666H639V435H629Q617 480 601 519T561 588T505 634T429 651ZM449 853Q486 853 505 831T525 780Q525 744 503 723T433 698L256 683L251 695L363
810Q380 827 401 840T449 853Z" />
<glyph unicode="&#x107;" glyph-name="cacute" horiz-adv-x="531" d="M423 611Q423 582 403 559T337 525L179 489L172 498L246 612Q264 641 287 663T346 685Q380 685 401 664T423 611ZM527 151Q519 123 505 95T464 43T397 6T300 -9Q238 -9 191 3T107 39Q60 70
36 117T11 224Q11 285 33 331T95 408T186 455T297 471Q332 471 358 468T403 461T435 451T458 441Q482 430 501 408T521 352Q521 329 513 313T492 286T461 270T424 265Q382 265 355 290T327 368Q326 406 322 430T299 454Q288 454 283 450T274 436Q266 419 262 375T258
238Q258 183 260 149T266 94T275 63T287 47Q297 37 310 30T349 23Q383 23 410 34T458 64T491 107T512 156L527 151Z" />
<glyph unicode="&#x108;" glyph-name="Ccircumflex" horiz-adv-x="679" d="M534 685L381 749L227 685L214 695L331 851H431L547 695L534 685ZM429 651Q400 651 385 643T362 625Q336 594 323 520T309 346Q309 254 321 185T368 80Q390 57 412 49T468 40Q498 40 524
54T572 90T611 141T641 197L664 187Q647 146 625 109T569 45T490 1T379 -16Q318 -16 256 1T144 58T62 164T30 328Q30 412 60 476T143 583T264 649T413 672Q473 672 516 657T588 604H592L631 666H639V435H629Q617 480 601 519T561 588T505 634T429 651Z" />
<glyph unicode="&#x109;" glyph-name="ccircumflex" horiz-adv-x="531" d="M435 479L286 560L136 479L122 490L236 668H336L448 490L435 479ZM527 151Q519 123 505 95T464 43T397 6T300 -9Q238 -9 191 3T107 39Q60 70 36 117T11 224Q11 285 33 331T95 408T186
455T297 471Q332 471 358 468T403 461T435 451T458 441Q482 430 501 408T521 352Q521 329 513 313T492 286T461 270T424 265Q382 265 355 290T327 368Q326 406 322 430T299 454Q288 454 283 450T274 436Q266 419 262 375T258 238Q258 183 260 149T266 94T275 63T287
47Q297 37 310 30T349 23Q383 23 410 34T458 64T491 107T512 156L527 151Z" />
<glyph unicode="&#x10a;" glyph-name="Cdotaccent" horiz-adv-x="679" d="M429 651Q400 651 385 643T362 625Q336 594 323 520T309 346Q309 254 321 185T368 80Q390 57 412 49T468 40Q498 40 524 54T572 90T611 141T641 197L664 187Q647 146 625 109T569 45T490
1T379 -16Q318 -16 256 1T144 58T62 164T30 328Q30 412 60 476T143 583T264 649T413 672Q473 672 516 657T588 604H592L631 666H639V435H629Q617 480 601 519T561 588T505 634T429 651ZM490 781Q490 740 461 715T377 690Q324 690 294 715T263 781Q263 821 293 845T377
870Q430 870 460 845T490 781Z" />
<glyph unicode="&#x10b;" glyph-name="cdotaccent" horiz-adv-x="531" d="M527 151Q519 123 505 95T464 43T397 6T300 -9Q238 -9 191 3T107 39Q60 70 36 117T11 224Q11 285 33 331T95 408T186 455T297 471Q332 471 358 468T403 461T435 451T458 441Q482 430 501
408T521 352Q521 329 513 313T492 286T461 270T424 265Q382 265 355 290T327 368Q326 406 322 430T299 454Q288 454 283 450T274 436Q266 419 262 375T258 238Q258 183 260 149T266 94T275 63T287 47Q297 37 310 30T349 23Q383 23 410 34T458 64T491 107T512 156L527
151ZM291 483Q238 483 208 508T177 574Q177 614 207 638T291 663Q344 663 374 638T404 574Q404 533 375 508T291 483Z" />
<glyph unicode="&#x10c;" glyph-name="Ccaron" horiz-adv-x="679" d="M227 860L382 796L534 860L547 850L431 694H331L214 850L227 860ZM429 651Q400 651 385 643T362 625Q336 594 323 520T309 346Q309 254 321 185T368 80Q390 57 412 49T468 40Q498 40 524 54T572
90T611 141T641 197L664 187Q647 146 625 109T569 45T490 1T379 -16Q318 -16 256 1T144 58T62 164T30 328Q30 412 60 476T143 583T264 649T413 672Q473 672 516 657T588 604H592L631 666H639V435H629Q617 480 601 519T561 588T505 634T429 651Z" />
<glyph unicode="&#x10d;" glyph-name="ccaron" horiz-adv-x="531" d="M340 495H240L127 674L141 684L291 598L438 684L451 674L340 495ZM527 151Q519 123 505 95T464 43T397 6T300 -9Q238 -9 191 3T107 39Q60 70 36 117T11 224Q11 285 33 331T95 408T186 455T297
471Q332 471 358 468T403 461T435 451T458 441Q482 430 501 408T521 352Q521 329 513 313T492 286T461 270T424 265Q382 265 355 290T327 368Q326 406 322 430T299 454Q288 454 283 450T274 436Q266 419 262 375T258 238Q258 183 260 149T266 94T275 63T287 47Q297
37 310 30T349 23Q383 23 410 34T458 64T491 107T512 156L527 151Z" />
<glyph unicode="&#x10e;" glyph-name="Dcaron" horiz-adv-x="784" d="M214 860L369 796L521 860L534 850L418 694H318L201 850L214 860ZM426 657Q483 657 531 649T618 617Q651 597 677 568T723 502T752 422T762 333Q762 290 754 248T729 167T687 96T625 41Q596
23 562 12T482 0H16V11Q24 12 33 13T54 18Q72 26 82 42Q87 50 90 63T93 103V555Q93 584 91 595T83 614Q77 623 71 629T54 639Q43 643 34 644T16 647V657H426ZM394 22Q414 22 430 32T455 67Q466 101 472 164T478 333Q478 412 473 477T456 582Q447 615 428 625T386
636H382Q369 636 365 634T357 627Q353 620 353 610T352 581V99Q352 74 352 62T355 43Q361 22 393 22H394Z" />
<glyph unicode="&#x10f;" glyph-name="dcaron" horiz-adv-x="621" d="M617 684H758Q718 630 686 589T618 507H600L617 684ZM628 0H601Q579 0 548 0T481 -1T415 -2T364 -3H343Q338 -3 338 2V76H335Q324 33 300 12T225 -9Q183 -9 145 6T77 51T31 125T14 229Q14 280
29 324T72 400T136 452T218 471Q267 471 293 454T330 413H333V607Q333 635 331 643T325 657Q318 664 308 668T279 674V684H565Q571 684 571 680Q570 655 569 608T567 495V81Q567 65 569 54Q571 40 575 32T590 19Q599 14 609 12T628 9V0ZM333 327Q333 332 333 349T328
382Q323 401 314 414T291 428Q280 428 274 418T264 385T259 323T257 228Q257 166 258 128T263 69T273 41T290 33Q298 33 306 44T320 72T329 110T333 151V327Z" />
<glyph unicode="&#x110;" glyph-name="Dcroat" horiz-adv-x="784" d="M34 350H93V555Q93 584 91 595T83 614Q77 623 71 629T54 639Q43 643 34 644T16 647V657H426Q483 657 531 649T618 617Q651 597 677 568T723 502T752 422T762 333Q762 290 754 248T729 167T687
96T625 41Q596 23 562 12T482 0H16V11Q24 12 33 13T54 18Q72 26 82 42Q87 50 90 63T93 103V320H34V350ZM394 22Q414 22 430 32T455 67Q466 101 472 164T478 333Q478 412 473 477T456 582Q447 615 428 625T386 636H382Q369 636 365 634T357 627Q353 620 353 610T352
581V350H433V320H352V99Q352 74 352 62T355 43Q361 22 393 22H394Z" />
<glyph unicode="&#x111;" glyph-name="dcroat" horiz-adv-x="621" d="M628 0H601Q579 0 548 0T481 -1T415 -2T364 -3H343Q338 -3 338 2V76H335Q324 33 300 12T225 -9Q183 -9 145 6T77 51T31 125T14 229Q14 280 29 324T72 400T136 452T218 471Q267 471 293 454T330
413H333V556H239V582H333V607Q333 635 331 643T325 657Q318 664 308 668T279 674V684H565Q571 685 571 680Q570 655 568 608Q568 595 567 582H622V556H567V495V81Q567 65 569 54Q571 40 575 32T590 19Q599 14 609 12T628 9V0ZM333 327Q333 332 333 349T328 382Q323
401 314 414T291 428Q280 428 274 418T264 385T259 323T257 228Q257 166 258 128T263 69T273 41T290 33Q298 33 306 44T320 72T329 110T333 151V327Z" />
<glyph unicode="&#x112;" glyph-name="Emacron" horiz-adv-x="704" d="M652 0H16V11Q24 12 33 13T54 18Q72 26 82 41Q87 49 90 63T93 103V555Q93 578 91 590T84 610Q74 632 54 639Q43 643 34 644T16 646V657H635L655 405H644Q630 424 613 448T577 497T540 544T507
582Q493 597 482 607T458 623T431 633T399 636H391Q372 636 365 634T354 623Q352 618 352 590V352H378Q420 352 453 385Q473 405 487 429T512 482H523V200H512Q499 230 487 251T451 299Q434 317 418 323T378 330H352V104Q352 83 352 72T356 49Q359 38 370 30T406
22H410Q421 22 431 24T452 34T476 54T508 88Q524 107 543 132T581 187T619 246T652 304H662L652 0ZM192 698V783H511V698H192Z" />
<glyph unicode="&#x113;" glyph-name="emacron" horiz-adv-x="544" d="M533 153Q525 126 510 97T469 45T402 6T304 -9Q235 -9 185 7T99 49Q54 81 33 127T11 226Q11 287 34 332T97 409T187 455T294 471Q354 471 399 454T474 409T519 344T534 269V257Q534 250 533
243H258Q258 192 259 158T264 102T272 68T283 49Q292 38 307 30T349 21Q386 21 414 34T464 67T498 111T518 159L533 153ZM313 262Q323 262 326 267T330 287Q330 341 330 377T322 437Q319 446 314 450T295 454Q276 454 270 436Q264 420 262 381T259 262H313ZM163
518V603H429V518H163Z" />
<glyph unicode="&#x114;" glyph-name="Ebreve" horiz-adv-x="704" d="M652 0H16V11Q24 12 33 13T54 18Q72 26 82 41Q87 49 90 63T93 103V555Q93 578 91 590T84 610Q74 632 54 639Q43 643 34 644T16 646V657H635L655 405H644Q630 424 613 448T577 497T540 544T507
582Q493 597 482 607T458 623T431 633T399 636H391Q372 636 365 634T354 623Q352 618 352 590V352H378Q420 352 453 385Q473 405 487 429T512 482H523V200H512Q499 230 487 251T451 299Q434 317 418 323T378 330H352V104Q352 83 352 72T356 49Q359 38 370 30T406
22H410Q421 22 431 24T452 34T476 54T508 88Q524 107 543 132T581 187T619 246T652 304H662L652 0ZM493 851Q488 771 454 729T351 686Q282 686 248 728T208 851L219 858Q237 829 271 813T351 797Q394 797 428 812T480 858L493 851Z" />
<glyph unicode="&#x115;" glyph-name="ebreve" horiz-adv-x="544" d="M533 153Q525 126 510 97T469 45T402 6T304 -9Q235 -9 185 7T99 49Q54 81 33 127T11 226Q11 287 34 332T97 409T187 455T294 471Q354 471 399 454T474 409T519 344T534 269V257Q534 250 533
243H258Q258 192 259 158T264 102T272 68T283 49Q292 38 307 30T349 21Q386 21 414 34T464 67T498 111T518 159L533 153ZM313 262Q323 262 326 267T330 287Q330 341 330 377T322 437Q319 446 314 450T295 454Q276 454 270 436Q264 420 262 381T259 262H313ZM437
657Q430 577 397 535T294 493Q225 493 191 535T150 657L161 663Q181 634 214 617T294 599Q340 599 373 616T425 663L437 657Z" />
<glyph unicode="&#x116;" glyph-name="Edotaccent" horiz-adv-x="704" d="M462 781Q462 740 433 715T349 690Q296 690 266 715T235 781Q235 821 265 845T349 870Q402 870 432 845T462 781ZM652 0H16V11Q24 12 33 13T54 18Q72 26 82 41Q87 49 90 63T93 103V555Q93
578 91 590T84 610Q74 632 54 639Q43 643 34 644T16 646V657H635L655 405H644Q630 424 613 448T577 497T540 544T507 582Q493 597 482 607T458 623T431 633T399 636H391Q372 636 365 634T354 623Q352 618 352 590V352H378Q420 352 453 385Q473 405 487 429T512
482H523V200H512Q499 230 487 251T451 299Q434 317 418 323T378 330H352V104Q352 83 352 72T356 49Q359 38 370 30T406 22H410Q421 22 431 24T452 34T476 54T508 88Q524 107 543 132T581 187T619 246T652 304H662L652 0Z" />
<glyph unicode="&#x117;" glyph-name="edotaccent" horiz-adv-x="544" d="M533 153Q525 126 510 97T469 45T402 6T304 -9Q235 -9 185 7T99 49Q54 81 33 127T11 226Q11 287 34 332T97 409T187 455T294 471Q354 471 399 454T474 409T519 344T534 269V257Q534 250
533 243H258Q258 192 259 158T264 102T272 68T283 49Q292 38 307 30T349 21Q386 21 414 34T464 67T498 111T518 159L533 153ZM313 262Q323 262 326 267T330 287Q330 341 330 377T322 437Q319 446 314 450T295 454Q276 454 270 436Q264 420 262 381T259 262H313ZM293
483Q240 483 210 508T179 574Q179 614 209 638T293 663Q346 663 376 638T406 574Q406 533 377 508T293 483Z" />
<glyph unicode="&#x118;" glyph-name="Eogonek" horiz-adv-x="704" d="M16 0V11Q24 12 33 13T54 18Q72 26 82 41Q87 49 90 63T93 103V555Q93 578 91 590T84 610Q74 632 54 639Q43 643 34 644T16 646V657H635L655 405H644Q630 424 613 448T577 497T540 544T507
582Q493 597 482 607T458 623T431 633T399 636H391Q372 636 365 634T354 623Q352 618 352 590V352H378Q420 352 453 385Q473 405 487 429T512 482H523V200H512Q499 230 487 251T451 299Q434 317 418 323T378 330H352V104Q352 83 352 72T356 49Q359 38 370 30T406
22H410Q421 22 431 24T452 34T476 54T508 88Q524 107 543 132T581 187T619 246T652 304H662L652 0H530Q516 -22 508 -52T500 -125Q500 -148 506 -162T521 -185T543 -197T567 -202V-212Q503 -215 459 -211T386 -195T344 -168T331 -128Q331 -109 338 -95T365 -66T420
-36T511 0H16Z" />
<glyph unicode="&#x119;" glyph-name="eogonek" horiz-adv-x="542" d="M184 -128Q184 -107 194 -91T227 -62T286 -34T373 -2Q358 -6 338 -7T303 -9Q244 -9 200 3T121 33Q65 65 38 116T10 226Q10 287 33 332T96 409T186 455T293 471Q353 471 398 454T473 409T518
344T533 269V257Q533 250 532 243H257Q257 192 258 158T263 103T271 69T282 49Q291 38 306 30T348 21Q385 21 413 34T463 67T497 111T517 159L532 153Q521 113 505 88T473 48T441 24T414 8Q376 -14 365 -45T354 -119Q354 -144 360 -160T375 -185T397 -197T421 -202V-212Q357
-215 312 -211T239 -195T197 -168T184 -128ZM312 262Q322 262 325 267T329 287Q329 341 329 377T321 437Q318 446 313 450T294 454Q275 454 269 436Q263 420 261 381T258 262H312Z" />
<glyph unicode="&#x11a;" glyph-name="Ecaron" horiz-adv-x="704" d="M197 860L352 796L504 860L517 850L401 694H301L184 850L197 860ZM652 0H16V11Q24 12 33 13T54 18Q72 26 82 41Q87 49 90 63T93 103V555Q93 578 91 590T84 610Q74 632 54 639Q43 643 34 644T16
646V657H635L655 405H644Q630 424 613 448T577 497T540 544T507 582Q493 597 482 607T458 623T431 633T399 636H391Q372 636 365 634T354 623Q352 618 352 590V352H378Q420 352 453 385Q473 405 487 429T512 482H523V200H512Q499 230 487 251T451 299Q434 317 418
323T378 330H352V104Q352 83 352 72T356 49Q359 38 370 30T406 22H410Q421 22 431 24T452 34T476 54T508 88Q524 107 543 132T581 187T619 246T652 304H662L652 0Z" />
<glyph unicode="&#x11b;" glyph-name="ecaron" horiz-adv-x="544" d="M345 495H245L132 674L146 684L296 598L443 684L456 674L345 495ZM533 153Q525 126 510 97T469 45T402 6T304 -9Q235 -9 185 7T99 49Q54 81 33 127T11 226Q11 287 34 332T97 409T187 455T294
471Q354 471 399 454T474 409T519 344T534 269V257Q534 250 533 243H258Q258 192 259 158T264 102T272 68T283 49Q292 38 307 30T349 21Q386 21 414 34T464 67T498 111T518 159L533 153ZM313 262Q323 262 326 267T330 287Q330 341 330 377T322 437Q319 446 314
450T295 454Q276 454 270 436Q264 420 262 381T259 262H313Z" />
<glyph unicode="&#x11c;" glyph-name="Gcircumflex" horiz-adv-x="747" d="M537 685L384 749L230 685L217 695L334 851H434L550 695L537 685ZM440 183Q440 206 439 221T436 247T430 264T423 277Q410 296 382 306Q375 308 369 309T355 311V321H739V311Q728 310
717 308T695 298Q687 293 679 282T666 249Q663 235 663 218V64Q646 54 621 43T541 15Q528 10 505 5T457 -5T406 -13T364 -16Q287 -16 224 9T117 80T48 189T23 329Q23 401 50 463T127 571T243 643T388 670Q430 670 460 661T512 639T546 612T567 589H573L608 645H617V418H609Q597
461 579 501T535 573Q509 606 480 627T407 649Q383 649 369 637T343 604Q335 588 327 560T312 495T301 417T297 329Q297 255 298 200T308 102Q316 48 330 26T373 3Q393 3 403 7T424 21Q433 32 436 52T440 112V183Z" />
<glyph unicode="&#x11d;" glyph-name="gcircumflex" horiz-adv-x="590" d="M407 479L258 560L108 479L94 490L208 668H308L420 490L407 479ZM256 457Q247 457 241 453T230 434T223 392T221 320Q221 276 223 249T229 207T240 187T256 182Q265 182 271 187T282 207T289
249T291 320Q291 364 289 391T283 432T272 452T256 457ZM561 -2Q561 -49 535 -87T464 -154T357 -197T225 -213Q6 -213 6 -138Q6 -104 40 -86T139 -60V-56Q117 -52 97 -44T62 -21T37 13T28 59Q28 85 38 105T63 141T98 167T136 183V187Q113 194 93 205T58 232T35
269T26 319Q26 359 44 387T94 434T166 462T254 471Q302 471 347 461T422 427H427Q438 450 461 466T523 483Q571 483 590 462T609 410Q609 382 594 364T546 346Q516 346 501 361T478 405Q473 422 470 427T461 432Q452 432 448 427T443 413Q443 406 447 402T462 381Q470
367 475 354T481 321Q481 280 465 251T419 204T348 176T255 167Q218 167 196 170T154 178Q144 174 144 162Q144 136 196 136Q204 136 230 137T286 140T346 143T389 145Q437 145 470 134T523 102T552 56T561 -2ZM224 -197Q273 -197 311 -190T376 -170T417 -143T431
-111Q431 -84 413 -71T353 -57Q338 -57 312 -58T259 -60T208 -63T173 -66Q149 -68 134 -74T111 -90T99 -109T95 -129Q95 -167 131 -182T224 -197Z" />
<glyph unicode="&#x11e;" glyph-name="Gbreve" horiz-adv-x="747" d="M521 851Q516 771 482 729T379 686Q310 686 276 728T236 851L247 858Q265 829 299 813T379 797Q422 797 456 812T508 858L521 851ZM440 183Q440 206 439 221T436 247T430 264T423 277Q410 296
382 306Q375 308 369 309T355 311V321H739V311Q728 310 717 308T695 298Q687 293 679 282T666 249Q663 235 663 218V64Q646 54 621 43T541 15Q528 10 505 5T457 -5T406 -13T364 -16Q287 -16 224 9T117 80T48 189T23 329Q23 401 50 463T127 571T243 643T388 670Q430
670 460 661T512 639T546 612T567 589H573L608 645H617V418H609Q597 461 579 501T535 573Q509 606 480 627T407 649Q383 649 369 637T343 604Q335 588 327 560T312 495T301 417T297 329Q297 255 298 200T308 102Q316 48 330 26T373 3Q393 3 403 7T424 21Q433 32
436 52T440 112V183Z" />
<glyph unicode="&#x11f;" glyph-name="gbreve" horiz-adv-x="590" d="M256 457Q247 457 241 453T230 434T223 392T221 320Q221 276 223 249T229 207T240 187T256 182Q265 182 271 187T282 207T289 249T291 320Q291 364 289 391T283 432T272 452T256 457ZM561 -2Q561
-49 535 -87T464 -154T357 -197T225 -213Q6 -213 6 -138Q6 -104 40 -86T139 -60V-56Q117 -52 97 -44T62 -21T37 13T28 59Q28 85 38 105T63 141T98 167T136 183V187Q113 194 93 205T58 232T35 269T26 319Q26 359 44 387T94 434T166 462T254 471Q302 471 347 461T422
427H427Q438 450 461 466T523 483Q571 483 590 462T609 410Q609 382 594 364T546 346Q516 346 501 361T478 405Q473 422 470 427T461 432Q452 432 448 427T443 413Q443 406 447 402T462 381Q470 367 475 354T481 321Q481 280 465 251T419 204T348 176T255 167Q218
167 196 170T154 178Q144 174 144 162Q144 136 196 136Q204 136 230 137T286 140T346 143T389 145Q437 145 470 134T523 102T552 56T561 -2ZM224 -197Q273 -197 311 -190T376 -170T417 -143T431 -111Q431 -84 413 -71T353 -57Q338 -57 312 -58T259 -60T208 -63T173
-66Q149 -68 134 -74T111 -90T99 -109T95 -129Q95 -167 131 -182T224 -197ZM399 657Q392 577 359 535T256 493Q187 493 153 535T112 657L123 663Q143 634 176 617T256 599Q302 599 335 616T387 663L399 657Z" />
<glyph unicode="&#x120;" glyph-name="Gdotaccent" horiz-adv-x="747" d="M496 781Q496 740 467 715T383 690Q330 690 300 715T269 781Q269 821 299 845T383 870Q436 870 466 845T496 781ZM440 183Q440 206 439 221T436 247T430 264T423 277Q410 296 382 306Q375
308 369 309T355 311V321H739V311Q728 310 717 308T695 298Q687 293 679 282T666 249Q663 235 663 218V64Q646 54 621 43T541 15Q528 10 505 5T457 -5T406 -13T364 -16Q287 -16 224 9T117 80T48 189T23 329Q23 401 50 463T127 571T243 643T388 670Q430 670 460
661T512 639T546 612T567 589H573L608 645H617V418H609Q597 461 579 501T535 573Q509 606 480 627T407 649Q383 649 369 637T343 604Q335 588 327 560T312 495T301 417T297 329Q297 255 298 200T308 102Q316 48 330 26T373 3Q393 3 403 7T424 21Q433 32 436 52T440
112V183Z" />
<glyph unicode="&#x121;" glyph-name="gdotaccent" horiz-adv-x="590" d="M256 457Q247 457 241 453T230 434T223 392T221 320Q221 276 223 249T229 207T240 187T256 182Q265 182 271 187T282 207T289 249T291 320Q291 364 289 391T283 432T272 452T256 457ZM561
-2Q561 -49 535 -87T464 -154T357 -197T225 -213Q6 -213 6 -138Q6 -104 40 -86T139 -60V-56Q117 -52 97 -44T62 -21T37 13T28 59Q28 85 38 105T63 141T98 167T136 183V187Q113 194 93 205T58 232T35 269T26 319Q26 359 44 387T94 434T166 462T254 471Q302 471 347
461T422 427H427Q438 450 461 466T523 483Q571 483 590 462T609 410Q609 382 594 364T546 346Q516 346 501 361T478 405Q473 422 470 427T461 432Q452 432 448 427T443 413Q443 406 447 402T462 381Q470 367 475 354T481 321Q481 280 465 251T419 204T348 176T255
167Q218 167 196 170T154 178Q144 174 144 162Q144 136 196 136Q204 136 230 137T286 140T346 143T389 145Q437 145 470 134T523 102T552 56T561 -2ZM224 -197Q273 -197 311 -190T376 -170T417 -143T431 -111Q431 -84 413 -71T353 -57Q338 -57 312 -58T259 -60T208
-63T173 -66Q149 -68 134 -74T111 -90T99 -109T95 -129Q95 -167 131 -182T224 -197ZM259 483Q206 483 176 508T145 574Q145 614 175 638T259 663Q312 663 342 638T372 574Q372 533 343 508T259 483Z" />
<glyph unicode="&#x122;" glyph-name="Gcommaaccent" horiz-adv-x="747" d="M477 -135Q477 -173 462 -199T422 -245T362 -277T289 -299L286 -284Q337 -271 356 -256T375 -227Q375 -211 355 -211Q311 -209 285 -188T258 -128Q258 -87 286 -65T365 -42Q412 -42 444
-66T477 -135ZM440 183Q440 206 439 221T436 247T430 264T423 277Q410 296 382 306Q375 308 369 309T355 311V321H739V311Q728 310 717 308T695 298Q687 293 679 282T666 249Q663 235 663 218V64Q646 54 621 43T541 15Q528 10 505 5T457 -5T406 -13T364 -16Q287
-16 224 9T117 80T48 189T23 329Q23 401 50 463T127 571T243 643T388 670Q430 670 460 661T512 639T546 612T567 589H573L608 645H617V418H609Q597 461 579 501T535 573Q509 606 480 627T407 649Q383 649 369 637T343 604Q335 588 327 560T312 495T301 417T297
329Q297 255 298 200T308 102Q316 48 330 26T373 3Q393 3 403 7T424 21Q433 32 436 52T440 112V183Z" />
<glyph unicode="&#x123;" glyph-name="gcommaaccent" horiz-adv-x="590" d="M256 457Q247 457 241 453T230 434T223 392T221 320Q221 276 223 249T229 207T240 187T256 182Q265 182 271 187T282 207T289 249T291 320Q291 364 289 391T283 432T272 452T256 457ZM561
-2Q561 -49 535 -87T464 -154T357 -197T225 -213Q6 -213 6 -138Q6 -104 40 -86T139 -60V-56Q117 -52 97 -44T62 -21T37 13T28 59Q28 85 38 105T63 141T98 167T136 183V187Q113 194 93 205T58 232T35 269T26 319Q26 359 44 387T94 434T166 462T254 471Q302 471 347
461T422 427H427Q438 450 461 466T523 483Q571 483 590 462T609 410Q609 382 594 364T546 346Q516 346 501 361T478 405Q473 422 470 427T461 432Q452 432 448 427T443 413Q443 406 447 402T462 381Q470 367 475 354T481 321Q481 280 465 251T419 204T348 176T255
167Q218 167 196 170T154 178Q144 174 144 162Q144 136 196 136Q204 136 230 137T286 140T346 143T389 145Q437 145 470 134T523 102T552 56T561 -2ZM224 -197Q273 -197 311 -190T376 -170T417 -143T431 -111Q431 -84 413 -71T353 -57Q338 -57 312 -58T259 -60T208
-63T173 -66Q149 -68 134 -74T111 -90T99 -109T95 -129Q95 -167 131 -182T224 -197ZM146 584Q146 619 161 645T201 690T261 723T335 746L338 731Q287 717 268 702T249 674Q249 659 269 658Q313 655 340 635T367 575Q367 534 339 512T259 489Q212 489 179 513T146
584Z" />
<glyph unicode="&#x124;" glyph-name="Hcircumflex" horiz-adv-x="836" d="M405 0H16V11Q24 12 33 13T54 18Q68 23 79 37Q87 45 90 61T93 112V545Q93 579 90 594T81 617Q70 633 54 639Q43 643 34 644T16 646V657H406V646Q400 645 393 644T378 638Q366 631 359
617Q355 609 354 594T352 545V344H484V545Q484 578 483 592T477 615Q473 623 469 628T458 638Q450 642 443 643T430 646V657H820V646Q812 645 803 644T782 639Q767 634 756 619Q749 611 746 596T743 545V112Q743 78 746 63T755 39Q761 31 767 26T782 18Q793 14
802 13T820 11V0H430V11Q436 12 443 13T458 19Q464 22 467 26T475 37Q480 45 482 60T484 112V316H352V112Q352 76 353 61T360 37Q368 24 378 19Q386 15 392 14T405 11V0ZM571 685L418 749L264 685L251 695L368 851H468L584 695L571 685Z" />
<glyph unicode="&#x125;" glyph-name="hcircumflex" horiz-adv-x="637" d="M599 124Q599 92 600 72T604 41Q607 21 622 15Q633 10 650 9V0H333V9Q344 11 352 17Q355 20 357 26T360 43T361 74V390Q361 408 357 414T342 421Q331 421 318 405T295 343Q291 324 289
303T286 251V124Q286 69 287 46T296 17Q302 11 315 9V0H-2V9Q8 10 14 11T25 15Q33 19 37 25T44 42Q46 53 47 72T48 124V605Q48 621 46 634Q43 659 30 667Q20 673 4 673V684H281Q287 684 287 677Q287 668 286 649T285 598V377H288Q290 388 296 403T316 432Q336 454
367 462T438 471Q474 471 508 460T566 420Q588 393 593 364T599 305V124ZM471 712L318 776L164 712L151 722L268 878H368L484 722L471 712Z" />
<glyph unicode="&#x126;" glyph-name="Hbar" horiz-adv-x="836" d="M405 0H16V11Q24 12 33 13T54 18Q68 23 79 37Q87 45 90 61T93 112V456H16V484H93V545Q93 579 90 594T81 617Q70 633 54 639Q43 643 34 644T16 646V657H406V646Q400 645 393 644T378 638Q366 631
359 617Q355 609 354 594T352 545V484H484V545Q484 578 483 592T477 615Q473 623 469 628T458 638Q450 642 443 643T430 646V657H820V646Q812 645 803 644T782 639Q767 634 756 619Q749 611 746 596T743 545V484H820V456H743V112Q743 78 746 63T755 39Q761 31 767
26T782 18Q793 14 802 13T820 11V0H430V11Q436 12 443 13T458 19Q464 22 467 26T475 37Q480 45 482 60T484 112V316H352V112Q352 76 353 61T360 37Q368 24 378 19Q386 15 392 14T405 11V0ZM484 344V456H352V344H484Z" />
<glyph unicode="&#x127;" glyph-name="hbar" horiz-adv-x="637" d="M599 124Q599 92 600 72T604 41Q607 21 622 15Q633 10 650 9V0H333V9Q344 11 352 17Q355 20 357 26T360 43T361 74V390Q361 408 357 414T342 421Q331 421 318 405T295 343Q291 324 289 303T286
251V124Q286 69 287 46T296 17Q302 11 315 9V0H-2V9Q8 10 14 11T25 15Q33 19 37 25T44 42Q46 53 47 72T48 124V556H-1V582H48V605Q48 621 46 634Q43 659 30 667Q20 673 4 673V684H281Q287 684 287 677Q287 668 286 649T285 598V582H381V556H285V377H288Q290 388
296 403T316 432Q336 454 367 462T438 471Q474 471 508 460T566 420Q588 393 593 364T599 305V124Z" />
<glyph unicode="&#x128;" glyph-name="Itilde" horiz-adv-x="454" d="M356 123Q356 81 359 63T369 37Q375 29 381 26T397 19Q408 15 419 14T438 11V0H16V11Q24 12 35 13T56 19Q66 22 72 25T85 37Q91 45 94 63T97 123V525Q97 549 97 564T95 590T92 607T87 617Q81
627 74 630T56 638Q46 642 35 643T16 646V657H438V646Q430 645 419 644T397 638Q386 634 379 630T366 614Q364 610 362 604T359 588T357 563T356 525V123ZM414 855Q411 830 401 804T373 755T333 718T279 703Q259 703 240 708T202 719T165 731T130 736Q104 736 87
722T64 686H42Q46 719 56 747T82 797T121 829T176 841Q195 841 214 836T252 825T289 813T324 808Q347 808 366 821T393 855H414Z" />
<glyph unicode="&#x129;" glyph-name="itilde" horiz-adv-x="331" d="M286 132Q286 98 287 76T291 42Q294 22 309 15Q320 10 337 9V0H-3V9Q16 10 25 15Q39 22 44 42Q46 54 47 76T48 132V386Q48 400 46 411Q44 425 40 432T29 444Q23 447 17 449T1 451V462H282Q287
462 287 454Q287 433 287 414T286 359V132ZM591 654Q588 628 580 602T556 553T519 517T467 503Q447 503 428 508T392 520T358 531T329 537Q302 537 290 521T272 487L251 488Q255 518 263 546T285 595T322 629T376 642Q394 642 412 637T447 625T480 614T512 608Q554
608 570 655L591 654Z" />
<glyph unicode="&#x12a;" glyph-name="Imacron" horiz-adv-x="454" d="M356 123Q356 81 359 63T369 37Q375 29 381 26T397 19Q408 15 419 14T438 11V0H16V11Q24 12 35 13T56 19Q66 22 72 25T85 37Q91 45 94 63T97 123V525Q97 549 97 564T95 590T92 607T87 617Q81
627 74 630T56 638Q46 642 35 643T16 646V657H438V646Q430 645 419 644T397 638Q386 634 379 630T366 614Q364 610 362 604T359 588T357 563T356 525V123ZM68 698V783H387V698H68Z" />
<glyph unicode="&#x12b;" glyph-name="imacron" horiz-adv-x="331" d="M25 603H299V518H25V603ZM286 132Q286 98 287 76T291 42Q294 22 309 15Q320 10 337 9V0H-3V9Q16 10 25 15Q39 22 44 42Q46 54 47 76T48 132V386Q48 400 46 411Q44 425 40 432T29 444Q23 447
17 449T1 451V462H282Q287 462 287 454Q287 433 287 414T286 359V132Z" />
<glyph unicode="&#x12c;" glyph-name="Ibreve" horiz-adv-x="454" d="M356 123Q356 81 359 63T369 37Q375 29 381 26T397 19Q408 15 419 14T438 11V0H16V11Q24 12 35 13T56 19Q66 22 72 25T85 37Q91 45 94 63T97 123V525Q97 549 97 564T95 590T92 607T87 617Q81
627 74 630T56 638Q46 642 35 643T16 646V657H438V646Q430 645 419 644T397 638Q386 634 379 630T366 614Q364 610 362 604T359 588T357 563T356 525V123ZM368 851Q363 771 329 729T226 686Q157 686 123 728T83 851L94 858Q112 829 146 813T226 797Q269 797 303
812T355 858L368 851Z" />
<glyph unicode="&#x12d;" glyph-name="ibreve" horiz-adv-x="331" d="M286 132Q286 98 287 76T291 42Q294 22 309 15Q320 10 337 9V0H-3V9Q16 10 25 15Q39 22 44 42Q46 54 47 76T48 132V386Q48 400 46 411Q44 425 40 432T29 444Q23 447 17 449T1 451V462H282Q287
462 287 454Q287 433 287 414T286 359V132ZM563 657Q556 577 523 535T420 493Q351 493 317 535T276 657L287 663Q307 634 340 617T420 599Q466 599 499 616T551 663L563 657Z" />
<glyph unicode="&#x12e;" glyph-name="Iogonek" horiz-adv-x="454" d="M16 0V11Q24 12 35 13T56 19Q66 22 72 25T85 37Q91 45 94 63T97 123V525Q97 549 97 564T95 590T92 607T87 617Q81 627 74 630T56 638Q46 642 35 643T16 646V657H438V646Q430 645 419 644T397
638Q386 634 379 630T366 614Q364 610 362 604T359 588T357 563T356 525V123Q356 81 359 63T369 37Q375 29 381 26T397 19Q408 15 419 14T438 11V0H335Q319 -22 310 -52T301 -125Q301 -148 307 -162T322 -185T344 -197T368 -202V-212Q304 -215 260 -211T187 -195T145
-168T132 -128Q132 -109 139 -95T167 -66T224 -36T317 0H16Z" />
<glyph unicode="&#x12f;" glyph-name="iogonek" horiz-adv-x="331" d="M-3 0V9Q16 10 25 15Q39 22 44 42Q46 54 47 76T48 132V386Q48 400 46 411Q44 425 40 432T29 444Q23 447 17 449T1 451V462H282Q287 462 287 454Q287 433 287 414T286 359V132Q286 98 287 76T291
42Q294 22 309 15Q320 10 337 9V0H282Q266 -22 257 -52T248 -125Q248 -148 254 -162T269 -185T291 -197T315 -202V-212Q251 -215 207 -211T134 -195T92 -168T79 -128Q79 -109 86 -95T114 -66T171 -36T264 0H-3ZM164 477Q107 477 74 504T41 576Q41 620 74 647T164
674Q221 674 253 647T286 576Q286 531 254 504T164 477Z" />
<glyph unicode="&#x130;" glyph-name="Idotaccent" horiz-adv-x="454" d="M356 123Q356 81 359 63T369 37Q375 29 381 26T397 19Q408 15 419 14T438 11V0H16V11Q24 12 35 13T56 19Q66 22 72 25T85 37Q91 45 94 63T97 123V525Q97 549 97 564T95 590T92 607T87 617Q81
627 74 630T56 638Q46 642 35 643T16 646V657H438V646Q430 645 419 644T397 638Q386 634 379 630T366 614Q364 610 362 604T359 588T357 563T356 525V123ZM342 781Q342 740 313 715T229 690Q176 690 146 715T115 781Q115 821 145 845T229 870Q282 870 312 845T342
781Z" />
<glyph unicode="&#x131;" glyph-name="dotlessi" horiz-adv-x="331" d="M286 132Q286 98 287 76T291 42Q294 22 309 15Q320 10 337 9V0H-3V9Q16 10 25 15Q39 22 44 42Q46 54 47 76T48 132V386Q48 400 46 411Q44 425 40 432T29 444Q23 447 17 449T1 451V462H282Q287
462 287 454Q287 433 287 414T286 359V132Z" />
<glyph unicode="&#x132;" glyph-name="IJ" horiz-adv-x="1012" d="M356 123Q356 81 359 63T369 37Q375 29 381 26T397 19Q408 15 419 14T438 11V0H16V11Q24 12 35 13T56 19Q66 22 72 25T85 37Q91 45 94 63T97 123V525Q97 549 97 564T95 590T92 607T87 617Q81 627
74 630T56 638Q46 642 35 643T16 646V657H438V646Q430 645 419 644T397 638Q386 634 379 630T366 614Q364 610 362 604T359 588T357 563T356 525V123ZM670 535Q670 567 668 585T660 611Q649 631 629 638Q618 642 608 643T589 646V657H1015V646Q1007 645 996 644T974
638Q963 634 957 628T943 610Q938 602 936 585T934 535V284Q934 231 928 193T911 126T885 79T849 43Q811 13 754 0T630 -14Q577 -14 535 -6T460 23Q431 41 411 72T391 143Q391 196 422 228T507 261Q556 261 584 234T614 159Q616 137 612 116T599 73Q590 51 588
45T586 30Q586 22 598 17T627 11Q642 11 652 19T665 49Q666 55 667 67T668 93T669 123T670 151V535Z" />
<glyph unicode="&#x133;" glyph-name="ij" horiz-adv-x="656" d="M286 132Q286 98 287 76T291 42Q294 22 309 15Q320 10 337 9V0H-3V9Q16 10 25 15Q39 22 44 42Q46 54 47 76T48 132V386Q48 400 46 411Q44 425 40 432T29 444Q23 447 17 449T1 451V462H282Q287 462
287 454Q287 433 287 414T286 359V132ZM164 477Q107 477 74 504T41 576Q41 620 74 647T164 674Q221 674 253 647T286 576Q286 531 254 504T164 477ZM368 -51V386Q368 400 366 412Q364 425 360 432T349 444Q338 449 321 451V462H601Q607 462 607 454Q607 433 607
415T606 360V50Q606 5 598 -27T577 -83T546 -123T511 -153Q476 -179 425 -196T307 -213Q272 -213 246 -210T192 -197Q160 -186 140 -165T119 -106Q119 -69 147 -45T222 -21Q274 -21 299 -45T324 -105Q324 -122 321 -137T310 -164Q305 -170 303 -173T301 -184Q301
-197 320 -197Q337 -197 347 -182T362 -141Q366 -122 367 -100T368 -51ZM483 477Q426 477 394 504T361 576Q361 619 393 646T483 674Q540 674 573 646T606 576Q606 531 574 504T483 477Z" />
<glyph unicode="&#x134;" glyph-name="Jcircumflex" horiz-adv-x="624" d="M567 685L414 749L260 685L247 695L364 851H464L580 695L567 685ZM282 535Q282 567 280 585T272 611Q261 631 241 638Q230 642 220 643T201 646V657H627V646Q619 645 608 644T586 638Q575
634 569 628T555 610Q550 602 548 585T546 535V284Q546 231 540 193T523 126T497 79T461 43Q423 13 366 0T242 -14Q189 -14 147 -6T72 23Q43 41 23 72T3 143Q3 196 34 228T119 261Q168 261 196 234T226 159Q228 137 224 116T211 73Q202 51 200 45T198 30Q198 22
210 17T239 11Q254 11 264 19T277 49Q278 55 279 67T280 93T281 123T282 151V535Z" />
<glyph unicode="&#x135;" glyph-name="jcircumflex" horiz-adv-x="342" d="M56 -51V386Q56 400 54 412Q52 425 48 432T37 444Q26 449 9 451V462H289Q295 462 295 454Q295 433 295 415T294 360V50Q294 5 286 -27T265 -83T234 -123T199 -153Q164 -179 113 -196T-5
-213Q-40 -213 -66 -210T-120 -197Q-152 -186 -172 -165T-193 -106Q-193 -69 -165 -45T-90 -21Q-38 -21 -13 -45T12 -105Q12 -122 9 -137T-2 -164Q-7 -170 -9 -173T-11 -184Q-11 -197 8 -197Q25 -197 35 -182T50 -141Q54 -122 55 -100T56 -51ZM563 479L414 560L264
479L250 490L364 668H464L576 490L563 479Z" />
<glyph unicode="&#x136;" glyph-name="Kcommaaccent" horiz-adv-x="782" d="M521 -135Q521 -173 506 -199T466 -245T406 -277T333 -299L330 -284Q381 -271 400 -256T419 -227Q419 -211 399 -211Q355 -209 329 -188T302 -128Q302 -87 330 -65T409 -42Q456 -42 488
-66T521 -135ZM12 0V11Q20 12 30 13T52 19Q61 22 67 26T80 38Q86 46 89 62T93 113V555Q93 602 82 616Q70 631 52 638Q41 642 31 643T12 646V657H425V646Q417 645 408 644T388 638Q380 633 374 630T362 617Q352 603 352 555V321L497 511Q523 546 534 566T545 602Q545
619 538 626T518 638Q510 641 500 642T480 646V657H731V646Q714 642 687 634T637 613Q627 607 618 602T599 588T576 567T548 533L449 401V396Q503 390 548 377T631 332Q664 304 684 260T716 161Q723 126 729 104T742 68T755 46T770 31Q781 22 796 18T823 11V0H499Q486
14 472 46T453 137Q451 165 451 188T449 232T444 268T431 298Q423 306 416 311T398 317Q375 317 360 299L352 290V113Q352 79 354 62T363 37Q368 29 374 26T388 19Q398 15 407 14T425 11V0H12Z" />
<glyph unicode="&#x137;" glyph-name="kcommaaccent" horiz-adv-x="662" d="M446 -120Q446 -158 431 -184T391 -230T331 -262T258 -284L255 -269Q306 -256 325 -241T344 -212Q344 -196 324 -196Q280 -194 254 -173T227 -113Q227 -72 255 -50T334 -27Q381 -27 413
-51T446 -120ZM343 0H-6V9Q4 10 11 11T24 15Q43 22 47 41Q49 52 49 72T50 124V608Q50 622 48 633Q46 647 41 654T28 666Q17 671 0 673V684H283Q289 684 289 676Q288 655 288 636T287 581V239L390 344Q410 364 421 380T433 415Q433 423 429 431T413 445Q405 449
396 450T379 453V462H584V453Q570 450 554 445T518 429Q504 421 489 410T447 373L403 329Q444 324 473 316T524 295T558 266T579 227Q589 195 596 170T609 123T621 82T639 44Q647 30 656 21T680 9V0H415Q403 9 395 21T381 54T369 104T358 174Q354 204 348 218T320
244L287 212V124Q287 92 289 72T293 41Q298 21 313 15Q322 11 343 9V0Z" />
<glyph unicode="&#x139;" glyph-name="Lacute" horiz-adv-x="693" d="M320 853Q357 853 376 831T396 780Q396 744 374 723T304 698L127 683L122 695L234 810Q251 827 272 840T320 853ZM16 11Q25 12 34 14T52 18Q69 23 78 32T95 56Q106 81 107 117T109 216V441Q109
500 107 537T95 598Q88 615 77 624T49 640Q34 644 17 646V657H461V646Q450 644 444 643T429 640Q396 630 383 598Q374 574 371 537T368 441V175Q368 137 368 107T374 60Q376 51 378 46T386 34Q391 27 400 25T422 22H423Q440 22 455 29T493 66Q512 91 534 124T577
190T616 252T646 299H656L646 0H16V11Z" />
<glyph unicode="&#x13a;" glyph-name="lacute" horiz-adv-x="334" d="M493 880Q530 880 549 858T569 807Q569 771 547 750T477 725L300 710L295 722L407 837Q424 854 445 867T493 880ZM287 124Q287 92 288 72T292 41Q297 21 312 15Q322 11 343 9V0H-6V9Q4 10 11
11T24 15Q40 20 45 41Q48 56 48 74T49 124V583Q49 595 49 608T46 633Q42 658 28 666Q21 670 14 671T-3 673V684H282Q288 684 288 676Q288 655 288 636T287 582V124Z" />
<glyph unicode="&#x13b;" glyph-name="Lcommaaccent" horiz-adv-x="693" d="M457 -135Q457 -173 442 -199T402 -245T342 -277T269 -299L266 -284Q317 -271 336 -256T355 -227Q355 -211 335 -211Q291 -209 265 -188T238 -128Q238 -87 266 -65T345 -42Q392 -42 424
-66T457 -135ZM16 11Q25 12 34 14T52 18Q69 23 78 32T95 56Q106 81 107 117T109 216V441Q109 500 107 537T95 598Q88 615 77 624T49 640Q34 644 17 646V657H461V646Q450 644 444 643T429 640Q396 630 383 598Q374 574 371 537T368 441V175Q368 137 368 107T374
60Q376 51 378 46T386 34Q391 27 400 25T422 22H423Q440 22 455 29T493 66Q512 91 534 124T577 190T616 252T646 299H656L646 0H16V11Z" />
<glyph unicode="&#x13c;" glyph-name="lcommaaccent" horiz-adv-x="334" d="M530 -120Q530 -158 515 -184T475 -230T415 -262T342 -284L339 -269Q390 -256 409 -241T428 -212Q428 -196 408 -196Q364 -194 338 -173T311 -113Q311 -72 339 -50T418 -27Q465 -27 497
-51T530 -120ZM287 124Q287 92 288 72T292 41Q297 21 312 15Q322 11 343 9V0H-6V9Q4 10 11 11T24 15Q40 20 45 41Q48 56 48 74T49 124V583Q49 595 49 608T46 633Q42 658 28 666Q21 670 14 671T-3 673V684H282Q288 684 288 676Q288 655 288 636T287 582V124Z" />
<glyph unicode="&#x13d;" glyph-name="Lcaron" horiz-adv-x="693" d="M492 658H633Q593 604 561 563T493 481H475L492 658ZM16 11Q25 12 34 14T52 18Q69 23 78 32T95 56Q106 81 107 117T109 216V441Q109 500 107 537T95 598Q88 615 77 624T49 640Q34 644 17 646V657H461V646Q450
644 444 643T429 640Q396 630 383 598Q374 574 371 537T368 441V175Q368 137 368 107T374 60Q376 51 378 46T386 34Q391 27 400 25T422 22H423Q440 22 455 29T493 66Q512 91 534 124T577 190T616 252T646 299H656L646 0H16V11Z" />
<glyph unicode="&#x13e;" glyph-name="lcaron" horiz-adv-x="334" d="M337 684H478Q438 630 406 589T338 507H320L337 684ZM287 124Q287 92 288 72T292 41Q297 21 312 15Q322 11 343 9V0H-6V9Q4 10 11 11T24 15Q40 20 45 41Q48 56 48 74T49 124V583Q49 595 49
608T46 633Q42 658 28 666Q21 670 14 671T-3 673V684H282Q288 684 288 676Q288 655 288 636T287 582V124Z" />
<glyph unicode="&#x13f;" glyph-name="Ldot" horiz-adv-x="693" d="M677 378Q677 339 653 313T583 286Q535 286 511 313T486 378Q486 417 511 444T582 471Q629 471 653 444T677 378ZM16 11Q25 12 34 14T52 18Q69 23 78 32T95 56Q106 81 107 117T109 216V441Q109
500 107 537T95 598Q88 615 77 624T49 640Q34 644 17 646V657H461V646Q450 644 444 643T429 640Q396 630 383 598Q374 574 371 537T368 441V175Q368 137 368 107T374 60Q376 51 378 46T386 34Q391 27 400 25T422 22H423Q439 22 455 29T497 62Q516 83 537 109T579
163T617 215T646 259H656L646 0H16V11Z" />
<glyph unicode="&#x140;" glyph-name="ldot" horiz-adv-x="557" d="M557 332Q557 290 528 263T446 235Q394 235 365 263T336 332Q336 351 344 368T366 399T401 419T448 427Q475 427 495 419T529 398T550 368T557 332ZM287 124Q287 92 288 72T292 41Q297 21 312
15Q322 11 343 9V0H-6V9Q4 10 11 11T24 15Q40 20 45 41Q48 56 48 74T49 124V583Q49 595 49 608T46 633Q42 658 28 666Q21 670 14 671T-3 673V684H282Q288 684 288 676Q288 655 288 636T287 582V124Z" />
<glyph unicode="&#x141;" glyph-name="Lslash" horiz-adv-x="688" d="M45 245L109 269V441Q109 500 107 537T95 598Q88 615 77 624T49 640Q34 644 17 646V657H461V646Q450 644 444 643T429 640Q396 630 383 598Q374 574 371 537T368 441V365L523 423V400L368 342V175Q368
137 368 108T373 61L378 46Q380 40 386 34Q391 27 400 25T422 22Q439 22 454 29T490 66Q509 91 531 124T576 190T616 252T646 299H656L646 0H16V11Q25 12 34 14T52 18Q69 23 78 32T95 56Q106 81 107 117T109 216V245L45 221V245Z" />
<glyph unicode="&#x142;" glyph-name="lslash" horiz-adv-x="334" d="M287 124Q287 92 288 72T292 41Q297 21 312 15Q322 11 343 9V0H-6V9Q4 10 11 11T24 15Q40 20 45 41Q48 56 48 74T49 124V324L-11 302V323L49 345V583Q49 595 49 608T46 633Q42 658 28 666Q21
670 14 671T-3 673V684H282Q288 684 288 676Q288 655 288 636T287 582V435L345 457V436L287 414V124Z" />
<glyph unicode="&#x143;" glyph-name="Nacute" horiz-adv-x="726" d="M475 853Q512 853 531 831T551 780Q551 744 529 723T459 698L282 683L277 695L389 810Q406 827 427 840T475 853ZM540 0L142 497H137V167Q137 90 153 56Q167 25 196 17Q204 15 215 14T237 11V0H14V11Q21
12 32 13T50 17Q64 21 75 29T94 55Q102 72 107 100T112 167V461Q112 560 90 594Q79 611 69 620T35 637Q26 640 16 642T-3 647V657H347L605 346H607V491Q607 536 602 561T589 603Q581 619 570 627T545 640Q537 642 527 643T509 646V657H730V646Q721 645 710 644T691
640Q663 632 649 601Q641 585 637 561T632 491V0H540Z" />
<glyph unicode="&#x144;" glyph-name="nacute" horiz-adv-x="640" d="M481 611Q481 582 461 559T395 525L237 489L230 498L304 612Q322 641 345 663T404 685Q438 685 459 664T481 611ZM599 124Q599 61 603 41Q606 21 622 15Q627 13 633 12T650 9V0H333V9Q345 11
351 17Q358 23 360 42Q361 49 361 66V389Q361 401 361 406T355 417Q352 420 348 420T342 421Q329 421 317 404T295 343Q290 324 288 301T286 237V66Q286 49 287 43Q289 23 296 17Q302 11 315 9V0H-3V9Q16 10 25 15Q40 21 43 42Q45 53 46 72T48 124V386Q48 400 46
411Q44 425 40 432T29 444Q23 447 17 449T1 451V462H281Q287 462 287 454Q287 444 287 437T286 422T286 404T285 377H288Q291 388 297 403T317 433Q338 454 369 462T449 471Q478 471 511 460T566 419Q587 392 593 363T599 305V124Z" />
<glyph unicode="&#x145;" glyph-name="Ncommaaccent" horiz-adv-x="726" d="M467 -135Q467 -173 452 -199T412 -245T352 -277T279 -299L276 -284Q327 -271 346 -256T365 -227Q365 -211 345 -211Q301 -209 275 -188T248 -128Q248 -87 276 -65T355 -42Q402 -42 434
-66T467 -135ZM540 0L142 497H137V167Q137 90 153 56Q167 25 196 17Q204 15 215 14T237 11V0H14V11Q21 12 32 13T50 17Q64 21 75 29T94 55Q102 72 107 100T112 167V461Q112 560 90 594Q79 611 69 620T35 637Q26 640 16 642T-3 647V657H347L605 346H607V491Q607
536 602 561T589 603Q581 619 570 627T545 640Q537 642 527 643T509 646V657H730V646Q721 645 710 644T691 640Q663 632 649 601Q641 585 637 561T632 491V0H540Z" />
<glyph unicode="&#x146;" glyph-name="ncommaaccent" horiz-adv-x="640" d="M427 -120Q427 -158 412 -184T372 -230T312 -262T239 -284L236 -269Q287 -256 306 -241T325 -212Q325 -196 305 -196Q261 -194 235 -173T208 -113Q208 -72 236 -50T315 -27Q362 -27 394
-51T427 -120ZM599 124Q599 61 603 41Q606 21 622 15Q627 13 633 12T650 9V0H333V9Q345 11 351 17Q358 23 360 42Q361 49 361 66V389Q361 401 361 406T355 417Q352 420 348 420T342 421Q329 421 317 404T295 343Q290 324 288 301T286 237V66Q286 49 287 43Q289
23 296 17Q302 11 315 9V0H-3V9Q16 10 25 15Q40 21 43 42Q45 53 46 72T48 124V386Q48 400 46 411Q44 425 40 432T29 444Q23 447 17 449T1 451V462H281Q287 462 287 454Q287 444 287 437T286 422T286 404T285 377H288Q291 388 297 403T317 433Q338 454 369 462T449
471Q478 471 511 460T566 419Q587 392 593 363T599 305V124Z" />
<glyph unicode="&#x147;" glyph-name="Ncaron" horiz-adv-x="726" d="M228 860L383 796L535 860L548 850L432 694H332L215 850L228 860ZM540 0L142 497H137V167Q137 90 153 56Q167 25 196 17Q204 15 215 14T237 11V0H14V11Q21 12 32 13T50 17Q64 21 75 29T94 55Q102
72 107 100T112 167V461Q112 560 90 594Q79 611 69 620T35 637Q26 640 16 642T-3 647V657H347L605 346H607V491Q607 536 602 561T589 603Q581 619 570 627T545 640Q537 642 527 643T509 646V657H730V646Q721 645 710 644T691 640Q663 632 649 601Q641 585 637 561T632
491V0H540Z" />
<glyph unicode="&#x148;" glyph-name="ncaron" horiz-adv-x="640" d="M373 495H273L160 674L174 684L324 598L471 684L484 674L373 495ZM599 124Q599 61 603 41Q606 21 622 15Q627 13 633 12T650 9V0H333V9Q345 11 351 17Q358 23 360 42Q361 49 361 66V389Q361
401 361 406T355 417Q352 420 348 420T342 421Q329 421 317 404T295 343Q290 324 288 301T286 237V66Q286 49 287 43Q289 23 296 17Q302 11 315 9V0H-3V9Q16 10 25 15Q40 21 43 42Q45 53 46 72T48 124V386Q48 400 46 411Q44 425 40 432T29 444Q23 447 17 449T1
451V462H281Q287 462 287 454Q287 444 287 437T286 422T286 404T285 377H288Q291 388 297 403T317 433Q338 454 369 462T449 471Q478 471 511 460T566 419Q587 392 593 363T599 305V124Z" />
<glyph unicode="&#x149;" glyph-name="napostrophe" horiz-adv-x="760" d="M403 565Q403 523 388 490T349 432T292 390T226 363L219 381Q267 401 290 423T314 466Q314 480 294 480Q257 480 234 489T197 512T178 543T172 576Q172 602 182 620T209 649T247 666T290
672Q340 672 371 644T403 565ZM719 124Q719 61 723 41Q726 21 742 15Q747 13 753 12T770 9V0H453V9Q465 11 471 17Q478 23 480 42Q481 49 481 66V389Q481 401 481 406T475 417Q472 420 468 420T462 421Q449 421 437 404T415 343Q410 324 408 301T406 237V66Q406
49 407 43Q409 23 416 17Q422 11 435 9V0H117V9Q136 10 145 15Q160 21 163 42Q165 53 166 72T168 124V386Q168 400 166 411Q164 425 160 432T149 444Q143 447 137 449T121 451V462H401Q407 462 407 454Q407 444 407 437T406 422T406 404T405 377H408Q411 388 417
403T437 433Q458 454 489 462T569 471Q598 471 631 460T686 419Q707 392 713 363T719 305V124Z" />
<glyph unicode="&#x14a;" glyph-name="Eng" horiz-adv-x="726" d="M730 646Q721 645 710 644T691 640Q663 632 649 601Q641 585 637 561T632 491V-48Q632 -121 590 -163T482 -206Q443 -206 403 -199T332 -171Q300 -151 280 -117T260 -41Q260 14 292 49T381 84Q431
84 461 55T493 -22Q495 -44 490 -66T475 -109Q463 -133 461 -143T458 -162Q460 -170 469 -176T492 -183Q516 -183 536 -174T571 -147Q588 -129 597 -104T607 -46V-1L142 497H137V167Q137 129 141 101T153 56Q167 25 196 17Q204 15 215 14T237 11V0H14V11Q21 12
32 13T50 17Q64 21 75 29T94 55Q102 72 107 100T112 167V461Q112 560 90 594Q79 611 69 620T35 637Q26 640 16 642T-3 647V657H347L605 369H607V491Q607 536 602 561T589 603Q581 619 570 627T545 640Q537 642 527 643T509 646V657H730V646Z" />
<glyph unicode="&#x14b;" glyph-name="eng" horiz-adv-x="644" d="M361 389Q361 401 361 406T355 417Q352 420 348 420T342 421Q329 421 317 404T295 343Q290 324 288 301T286 237V66Q286 49 287 43Q288 34 289 27T296 17Q301 14 307 12T328 9V0H-3V9Q16 10 25
15Q40 21 43 42Q45 53 46 72T48 124V386Q48 400 46 411Q44 425 40 432T29 444Q23 447 17 449T1 451V462H281Q287 462 287 454Q287 444 287 437T286 422T286 404T285 377H288Q291 388 297 403T317 433Q338 454 369 462T449 471Q478 471 511 460T566 419Q587 392
593 363T599 305V50Q599 5 591 -27T570 -83T539 -123T504 -153Q469 -179 418 -196T300 -213Q265 -213 239 -210T185 -197Q153 -186 133 -165T112 -106Q112 -69 140 -45T215 -21Q267 -21 292 -45T317 -105Q317 -122 314 -137T303 -164Q298 -170 296 -173T294 -184Q294
-197 313 -197Q330 -197 340 -182T355 -141Q359 -122 360 -100T361 -51V389Z" />
<glyph unicode="&#x14c;" glyph-name="Omacron" horiz-adv-x="772" d="M227 698V783H546V698H227ZM386 670Q466 670 532 647T646 581T720 474T746 330Q746 249 720 185T647 77T533 9T386 -14Q306 -14 240 9T127 76T53 185T26 330Q26 411 52 474T126 580T240 647T386
670ZM386 6Q407 6 417 15T433 36Q442 53 452 125T463 328Q463 458 453 531T433 621Q427 633 417 641T386 650Q365 650 355 642T339 621Q330 604 320 531T309 328Q309 198 319 126T339 36Q345 24 355 15T386 6Z" />
<glyph unicode="&#x14d;" glyph-name="omacron" horiz-adv-x="580" d="M157 518V603H423V518H157ZM11 231Q11 286 31 330T88 405T176 454T290 471Q353 471 404 454T492 406T549 331T569 231Q569 175 550 131T494 56T406 8T290 -9Q226 -9 175 8T87 56T31 131T11
231ZM326 231Q326 328 324 382T308 450Q302 456 290 456Q277 456 271 449Q260 436 257 382T254 231Q254 134 257 80T271 13Q277 7 290 7Q302 7 308 13Q321 27 323 80T326 231Z" />
<glyph unicode="&#x14e;" glyph-name="Obreve" horiz-adv-x="772" d="M529 851Q524 771 490 729T387 686Q318 686 284 728T244 851L255 858Q273 829 307 813T387 797Q430 797 464 812T516 858L529 851ZM386 670Q466 670 532 647T646 581T720 474T746 330Q746 249
720 185T647 77T533 9T386 -14Q306 -14 240 9T127 76T53 185T26 330Q26 411 52 474T126 580T240 647T386 670ZM386 6Q407 6 417 15T433 36Q442 53 452 125T463 328Q463 458 453 531T433 621Q427 633 417 641T386 650Q365 650 355 642T339 621Q330 604 320 531T309
328Q309 198 319 126T339 36Q345 24 355 15T386 6Z" />
<glyph unicode="&#x14f;" glyph-name="obreve" horiz-adv-x="580" d="M11 231Q11 286 31 330T88 405T176 454T290 471Q353 471 404 454T492 406T549 331T569 231Q569 175 550 131T494 56T406 8T290 -9Q226 -9 175 8T87 56T31 131T11 231ZM326 231Q326 328 324
382T308 450Q302 456 290 456Q277 456 271 449Q260 436 257 382T254 231Q254 134 257 80T271 13Q277 7 290 7Q302 7 308 13Q321 27 323 80T326 231ZM434 657Q427 577 394 535T291 493Q222 493 188 535T147 657L158 663Q178 634 211 617T291 599Q337 599 370 616T422
663L434 657Z" />
<glyph unicode="&#x150;" glyph-name="Ohungarumlaut" horiz-adv-x="772" d="M440 826Q440 799 424 774T368 736L235 692H223L273 818Q279 833 287 847T306 872T332 889T367 896Q396 896 418 877T440 826ZM646 826Q646 799 631 775T574 736L442 692H430L480 818Q486
833 493 847T512 872T538 889T573 896Q602 896 624 877T646 826ZM386 670Q466 670 532 647T646 581T720 474T746 330Q746 249 720 185T647 77T533 9T386 -14Q306 -14 240 9T127 76T53 185T26 330Q26 411 52 474T126 580T240 647T386 670ZM386 6Q407 6 417 15T433
36Q442 53 452 125T463 328Q463 458 453 531T433 621Q427 633 417 641T386 650Q365 650 355 642T339 621Q330 604 320 531T309 328Q309 198 319 126T339 36Q345 24 355 15T386 6Z" />
<glyph unicode="&#x151;" glyph-name="ohungarumlaut" horiz-adv-x="580" d="M273 685Q301 685 322 667T344 618Q344 589 328 565T271 526L138 480L129 489L178 605Q184 620 192 634T211 659T238 678T273 685ZM478 685Q506 685 528 667T550 618Q550 590 533 565T476
526L343 480L334 489L383 605Q389 620 397 634T416 659T443 678T478 685ZM11 231Q11 286 31 330T88 405T176 454T290 471Q353 471 404 454T492 406T549 331T569 231Q569 175 550 131T494 56T406 8T290 -9Q226 -9 175 8T87 56T31 131T11 231ZM326 231Q326 328 324
382T308 450Q302 456 290 456Q277 456 271 449Q260 436 257 382T254 231Q254 134 257 80T271 13Q277 7 290 7Q302 7 308 13Q321 27 323 80T326 231Z" />
<glyph unicode="&#x152;" glyph-name="OE" horiz-adv-x="1063" d="M1011 0H384Q303 0 237 21T124 84T52 187T26 330Q26 410 52 471T125 573T238 636T384 657H997L1017 405H1006Q992 424 975 448T939 497T903 544T870 582Q856 597 844 607T819 624T791 633T757
636H748Q725 636 721 624T716 578V352H742Q783 352 816 385Q836 405 850 429T876 482H887V200H876Q863 230 851 251T815 299Q798 317 782 323T742 330H716V137Q716 101 716 80T724 46Q726 43 728 40T735 33Q740 28 746 25T766 22H773Q785 22 795 23T815 31T839
51T870 86Q886 105 904 131T942 187T978 247T1010 304H1021L1011 0ZM387 638Q364 638 354 630T338 612Q325 592 317 518T309 328Q309 201 317 134T337 46Q345 35 355 28T387 20Q406 20 420 31T442 76T455 169T459 328Q459 423 455 483T441 578T419 625T387 638Z"
/>
<glyph unicode="&#x153;" glyph-name="oe" horiz-adv-x="847" d="M836 153Q828 126 813 97T772 45T705 6T607 -9Q538 -9 494 10Q463 24 442 44Q420 21 387 7Q348 -9 290 -9Q226 -9 175 8T87 56T31 131T11 231T31 330T88 405T176 454T290 471Q348 471 387 454Q420
440 442 417Q495 471 597 471Q657 471 702 454T777 409T822 344T837 269V257Q837 250 836 243H561Q561 192 562 158T567 102T575 68T586 49Q595 38 610 30T652 21Q689 21 717 34T767 67T801 111T821 159L836 153ZM326 231Q326 328 324 382T308 450Q302 456 290
456Q277 456 271 449Q260 436 257 382T254 231Q254 134 257 80T271 13Q277 7 290 7Q302 7 308 13Q321 27 323 80T326 231ZM616 262Q626 262 629 267T633 287Q633 341 633 377T625 437Q622 446 617 450T598 454Q579 454 573 436Q567 420 565 381T562 262H616Z" />
<glyph unicode="&#x154;" glyph-name="Racute" horiz-adv-x="798" d="M443 853Q480 853 499 831T519 780Q519 744 497 723T427 698L250 683L245 695L357 810Q374 827 395 840T443 853ZM379 636Q371 636 366 634T357 624T351 600T349 557V335H380Q401 335 417 341T442
368Q454 397 456 437T458 508Q458 552 453 577T439 616T419 632T397 636H379ZM424 0H13V11Q21 12 30 13T51 18Q69 25 80 41Q85 49 87 70T90 133V534Q90 575 88 591T80 616Q67 634 51 639Q40 643 31 644T13 646V657H435Q579 657 647 620T715 494Q715 432 681 397T596
344Q573 336 551 331T513 323V320Q542 318 577 312T642 293Q680 277 701 247T731 170Q742 111 750 78T771 27Q782 13 811 11V0H503Q489 20 482 52T469 138Q463 191 461 226T442 287Q429 306 412 308T375 311H349V133Q349 89 352 67T363 36Q372 24 388 18Q399 14
407 13T424 11V0Z" />
<glyph unicode="&#x155;" glyph-name="racute" horiz-adv-x="538" d="M426 611Q426 582 406 559T340 525L182 489L175 498L249 612Q267 641 290 663T349 685Q383 685 404 664T426 611ZM287 354Q294 389 308 410T337 444Q350 455 371 463T424 471Q482 471 513 437Q537
408 537 364Q537 314 508 286T440 258Q398 258 376 272T343 314Q338 326 336 338T333 360T329 376T320 383Q310 383 302 358T289 298Q287 273 286 248T285 203V79Q285 62 286 48T298 23Q312 9 347 9V0H-3V9Q17 10 25 14Q42 22 45 42Q47 55 47 73T48 124V386Q48
400 46 411Q44 425 40 432T29 444Q23 447 17 449T1 451V462H280Q284 462 285 461T286 454Q286 434 285 410T284 354H287Z" />
<glyph unicode="&#x156;" glyph-name="Rcommaaccent" horiz-adv-x="798" d="M509 -135Q509 -173 494 -199T454 -245T394 -277T321 -299L318 -284Q369 -271 388 -256T407 -227Q407 -211 387 -211Q343 -209 317 -188T290 -128Q290 -87 318 -65T397 -42Q444 -42 476
-66T509 -135ZM379 636Q371 636 366 634T357 624T351 600T349 557V335H380Q401 335 417 341T442 368Q454 397 456 437T458 508Q458 552 453 577T439 616T419 632T397 636H379ZM424 0H13V11Q21 12 30 13T51 18Q69 25 80 41Q85 49 87 70T90 133V534Q90 575 88 591T80
616Q67 634 51 639Q40 643 31 644T13 646V657H435Q579 657 647 620T715 494Q715 432 681 397T596 344Q573 336 551 331T513 323V320Q542 318 577 312T642 293Q680 277 701 247T731 170Q742 111 750 78T771 27Q782 13 811 11V0H503Q489 20 482 52T469 138Q463 191
461 226T442 287Q429 306 412 308T375 311H349V133Q349 89 352 67T363 36Q372 24 388 18Q399 14 407 13T424 11V0Z" />
<glyph unicode="&#x157;" glyph-name="rcommaaccent" horiz-adv-x="538" d="M529 -120Q529 -158 514 -184T474 -230T414 -262T341 -284L338 -269Q389 -256 408 -241T427 -212Q427 -196 407 -196Q363 -194 337 -173T310 -113Q310 -72 338 -50T417 -27Q464 -27 496
-51T529 -120ZM287 354Q294 389 308 410T337 444Q350 455 371 463T424 471Q482 471 513 437Q537 408 537 364Q537 314 508 286T440 258Q398 258 376 272T343 314Q338 326 336 338T333 360T329 376T320 383Q310 383 302 358T289 298Q287 273 286 248T285 203V79Q285
62 286 48T298 23Q312 9 347 9V0H-3V9Q17 10 25 14Q42 22 45 42Q47 55 47 73T48 124V386Q48 400 46 411Q44 425 40 432T29 444Q23 447 17 449T1 451V462H280Q284 462 285 461T286 454Q286 434 285 410T284 354H287Z" />
<glyph unicode="&#x158;" glyph-name="Rcaron" horiz-adv-x="798" d="M221 860L376 796L528 860L541 850L425 694H325L208 850L221 860ZM379 636Q371 636 366 634T357 624T351 600T349 557V335H380Q401 335 417 341T442 368Q454 397 456 437T458 508Q458 552 453
577T439 616T419 632T397 636H379ZM424 0H13V11Q21 12 30 13T51 18Q69 25 80 41Q85 49 87 70T90 133V534Q90 575 88 591T80 616Q67 634 51 639Q40 643 31 644T13 646V657H435Q579 657 647 620T715 494Q715 432 681 397T596 344Q573 336 551 331T513 323V320Q542
318 577 312T642 293Q680 277 701 247T731 170Q742 111 750 78T771 27Q782 13 811 11V0H503Q489 20 482 52T469 138Q463 191 461 226T442 287Q429 306 412 308T375 311H349V133Q349 89 352 67T363 36Q372 24 388 18Q399 14 407 13T424 11V0Z" />
<glyph unicode="&#x159;" glyph-name="rcaron" horiz-adv-x="538" d="M336 495H236L123 674L137 684L287 598L434 684L447 674L336 495ZM287 354Q294 389 308 410T337 444Q350 455 371 463T424 471Q482 471 513 437Q537 408 537 364Q537 314 508 286T440 258Q398
258 376 272T343 314Q338 326 336 338T333 360T329 376T320 383Q310 383 302 358T289 298Q287 273 286 248T285 203V79Q285 62 286 48T298 23Q312 9 347 9V0H-3V9Q17 10 25 14Q42 22 45 42Q47 55 47 73T48 124V386Q48 400 46 411Q44 425 40 432T29 444Q23 447 17
449T1 451V462H280Q284 462 285 461T286 454Q286 434 285 410T284 354H287Z" />
<glyph unicode="&#x15a;" glyph-name="Sacute" horiz-adv-x="602" d="M508 430Q503 444 498 454L489 474Q485 484 480 495T466 525Q437 578 401 612T312 646Q274 646 253 628T231 578Q231 553 240 536T267 505T310 481T365 456Q416 434 456 414T524 368T567 309T582
227Q582 166 560 121T499 47T407 3T291 -12Q222 -12 177 10T104 58H100L54 -4H41L36 260H51Q64 219 86 175T139 95T208 34T291 10Q329 10 355 26T381 77Q381 97 376 113T359 142T326 168T271 194Q224 212 182 234T109 286T58 354T39 444Q39 502 61 544T119 615T202
656T301 670Q331 670 353 666T393 654T423 637T449 617H453L502 655H515L521 430H508ZM376 853Q413 853 432 831T452 780Q452 744 430 723T360 698L183 683L178 695L290 810Q307 827 328 840T376 853Z" />
<glyph unicode="&#x15b;" glyph-name="sacute" horiz-adv-x="444" d="M366 611Q366 582 346 559T280 525L122 489L115 498L189 612Q207 641 230 663T289 685Q323 685 344 664T366 611ZM433 166Q433 120 415 87T367 33T299 1T222 -9Q172 -9 141 3T81 38H77L37 3H29L20
176H29Q44 140 62 110T104 57T155 22T217 9Q238 9 252 19T266 47Q266 65 260 76T243 95T216 109T180 123Q139 139 109 156T58 196T28 245T17 310Q17 387 74 429T232 471Q276 471 306 457T356 425H359L381 458H388L396 312H386Q375 344 361 370T325 417Q307 434
283 444T230 454Q208 454 195 446T181 418Q181 408 184 400T197 383T226 366T277 345Q309 333 337 320T387 286T420 237T433 166Z" />
<glyph unicode="&#x15c;" glyph-name="Scircumflex" horiz-adv-x="602" d="M459 685L306 749L152 685L139 695L256 851H356L472 695L459 685ZM508 430Q503 444 498 454L489 474Q485 484 480 495T466 525Q437 578 401 612T312 646Q274 646 253 628T231 578Q231
553 240 536T267 505T310 481T365 456Q416 434 456 414T524 368T567 309T582 227Q582 166 560 121T499 47T407 3T291 -12Q222 -12 177 10T104 58H100L54 -4H41L36 260H51Q64 219 86 175T139 95T208 34T291 10Q329 10 355 26T381 77Q381 97 376 113T359 142T326
168T271 194Q224 212 182 234T109 286T58 354T39 444Q39 502 61 544T119 615T202 656T301 670Q331 670 353 666T393 654T423 637T449 617H453L502 655H515L521 430H508Z" />
<glyph unicode="&#x15d;" glyph-name="scircumflex" horiz-adv-x="444" d="M373 479L224 560L74 479L60 490L174 668H274L386 490L373 479ZM433 166Q433 120 415 87T367 33T299 1T222 -9Q172 -9 141 3T81 38H77L37 3H29L20 176H29Q44 140 62 110T104 57T155 22T217
9Q238 9 252 19T266 47Q266 65 260 76T243 95T216 109T180 123Q139 139 109 156T58 196T28 245T17 310Q17 387 74 429T232 471Q276 471 306 457T356 425H359L381 458H388L396 312H386Q375 344 361 370T325 417Q307 434 283 444T230 454Q208 454 195 446T181 418Q181
408 184 400T197 383T226 366T277 345Q309 333 337 320T387 286T420 237T433 166Z" />
<glyph unicode="&#x15e;" glyph-name="Scedilla" horiz-adv-x="602" d="M508 430Q503 444 498 454L489 474Q485 484 480 495T466 525Q437 578 401 612T312 646Q274 646 253 628T231 578Q231 553 240 536T267 505T310 481T365 456Q416 434 456 414T524 368T567
309T582 227Q582 166 560 121T499 47T407 3T291 -12Q271 -12 253 -10L241 -51Q246 -47 266 -41T318 -35Q363 -35 390 -55T418 -111Q418 -138 405 -154T370 -178T324 -189T276 -192Q244 -192 216 -186T174 -171L180 -159Q192 -166 208 -170T239 -174Q262 -174 276
-160T290 -113Q290 -84 282 -73T258 -61Q250 -61 245 -63T235 -70L220 -64L235 -8Q202 -2 176 10Q131 32 104 58H100L54 -4H41L36 260H51Q64 219 86 175T139 95T208 34T291 10Q329 10 355 26T381 77Q381 97 376 113T359 142T326 168T271 194Q224 212 182 234T109
286T58 354T39 444Q39 502 61 544T119 615T202 656T301 670Q331 670 353 666T393 654T423 637T449 617H453L502 655H515L521 430H508Z" />
<glyph unicode="&#x15f;" glyph-name="scedilla" horiz-adv-x="444" d="M340 -111Q340 -138 327 -154T292 -178T246 -189T198 -192Q166 -192 138 -186T96 -171L102 -159Q114 -166 130 -170T161 -174Q184 -174 198 -160T212 -113Q212 -84 204 -73T180 -61Q172 -61
167 -63T157 -70L142 -64L159 -2Q149 0 141 3Q110 15 81 38H77L37 3H29L20 176H29Q44 140 62 110T104 57T155 22T217 9Q238 9 252 19T266 47Q266 65 260 76T243 95T216 109T180 123Q139 139 109 156T58 196T28 245T17 310Q17 387 74 429T232 471Q276 471 306 457T356
425H359L381 458H388L396 312H386Q375 344 361 370T325 417Q307 434 283 444T230 454Q208 454 195 446T181 418Q181 408 184 400T197 383T226 366T277 345Q309 333 337 320T387 286T420 237T433 166Q433 120 415 87T367 33T299 1T222 -9Q197 -9 177 -6L163 -51Q168
-47 188 -41T240 -35Q285 -35 312 -55T340 -111Z" />
<glyph unicode="&#x160;" glyph-name="Scaron" horiz-adv-x="602" d="M152 860L307 796L459 860L472 850L356 694H256L139 850L152 860ZM508 430Q503 444 498 454L489 474Q485 484 480 495T466 525Q437 578 401 612T312 646Q274 646 253 628T231 578Q231 553 240
536T267 505T310 481T365 456Q416 434 456 414T524 368T567 309T582 227Q582 166 560 121T499 47T407 3T291 -12Q222 -12 177 10T104 58H100L54 -4H41L36 260H51Q64 219 86 175T139 95T208 34T291 10Q329 10 355 26T381 77Q381 97 376 113T359 142T326 168T271
194Q224 212 182 234T109 286T58 354T39 444Q39 502 61 544T119 615T202 656T301 670Q331 670 353 666T393 654T423 637T449 617H453L502 655H515L521 430H508Z" />
<glyph unicode="&#x161;" glyph-name="scaron" horiz-adv-x="444" d="M276 495H176L63 674L77 684L227 598L374 684L387 674L276 495ZM433 166Q433 120 415 87T367 33T299 1T222 -9Q172 -9 141 3T81 38H77L37 3H29L20 176H29Q44 140 62 110T104 57T155 22T217
9Q238 9 252 19T266 47Q266 65 260 76T243 95T216 109T180 123Q139 139 109 156T58 196T28 245T17 310Q17 387 74 429T232 471Q276 471 306 457T356 425H359L381 458H388L396 312H386Q375 344 361 370T325 417Q307 434 283 444T230 454Q208 454 195 446T181 418Q181
408 184 400T197 383T226 366T277 345Q309 333 337 320T387 286T420 237T433 166Z" />
<glyph unicode="&#x162;" glyph-name="Tcommaaccent" horiz-adv-x="743" d="M480 -135Q480 -173 465 -199T425 -245T365 -277T292 -299L289 -284Q340 -271 359 -256T378 -227Q378 -211 358 -211Q314 -209 288 -188T261 -128Q261 -87 289 -65T368 -42Q415 -42 447
-66T480 -135ZM501 143Q501 95 503 74T511 44Q521 25 540 18Q551 14 560 13T578 11V0H165V11Q173 12 183 13T204 18Q222 25 232 42Q238 50 240 72T242 143V634H234Q210 634 194 618T155 568Q122 516 92 461T39 365H27L35 657H709L717 365H704Q681 405 652 460T589
568Q566 602 550 618T509 634H501V143Z" />
<glyph unicode="&#x163;" glyph-name="tcommaaccent" horiz-adv-x="388" d="M554 -120Q554 -158 539 -184T499 -230T439 -262T366 -284L363 -269Q414 -256 433 -241T452 -212Q452 -196 432 -196Q388 -194 362 -173T335 -113Q335 -72 363 -50T442 -27Q489 -27 521
-51T554 -120ZM386 80Q378 67 365 52T332 23T282 0T213 -9Q165 -9 134 3T89 29Q56 60 48 96T39 164V187Q39 206 39 232T40 288T41 346T42 398T43 434Q27 436 9 436T-17 437V454Q79 473 146 521T254 628H281V462H367V434H281L277 135Q277 125 277 113T282 89T296
70T324 62Q342 62 355 70T376 89L386 80Z" />
<glyph unicode="&#x164;" glyph-name="Tcaron" horiz-adv-x="743" d="M217 860L372 796L524 860L537 850L421 694H321L204 850L217 860ZM501 143Q501 95 503 74T511 44Q521 25 540 18Q551 14 560 13T578 11V0H165V11Q173 12 183 13T204 18Q222 25 232 42Q238 50
240 72T242 143V634H234Q210 634 194 618T155 568Q122 516 92 461T39 365H27L35 657H709L717 365H704Q681 405 652 460T589 568Q566 602 550 618T509 634H501V143Z" />
<glyph unicode="&#x165;" glyph-name="tcaron" horiz-adv-x="388" d="M331 684H472Q432 630 400 589T332 507H314L331 684ZM386 80Q378 67 365 52T332 23T282 0T213 -9Q165 -9 134 3T89 29Q56 60 48 96T39 164V187Q39 206 39 232T40 288T41 346T42 398T43 434Q27
436 9 436T-17 437V454Q79 473 146 521T254 628H281V462H367V434H281L277 135Q277 125 277 113T282 89T296 70T324 62Q342 62 355 70T376 89L386 80Z" />
<glyph unicode="&#x166;" glyph-name="Tbar" horiz-adv-x="743" d="M501 143Q501 95 503 74T511 44Q521 25 540 18Q551 14 560 13T578 11V0H165V11Q173 12 183 13T204 18Q222 25 232 42Q238 50 240 72T242 143V358H137V387H242V634H234Q210 634 194 618T155 568Q122
516 92 461T39 365H27L35 657H709L717 365H704Q681 405 652 460T589 568Q566 602 550 618T509 634H501V387H606V358H501V143Z" />
<glyph unicode="&#x167;" glyph-name="tbar" horiz-adv-x="388" d="M386 80Q378 67 365 52T332 23T282 0T213 -9Q165 -9 134 3T89 29Q56 60 48 96T39 164V187Q39 206 39 232T40 288Q41 307 41 325H-17V350H41Q42 376 42 398Q43 422 43 434Q27 436 9 436T-17 437V454Q79
473 146 521T254 628H281V462H367V434H281L280 350H367V325H279L277 135Q277 125 277 113T282 89T296 70T324 62Q342 62 355 70T376 89L386 80Z" />
<glyph unicode="&#x168;" glyph-name="Utilde" horiz-adv-x="718" d="M630 222Q630 177 625 140T602 74Q591 56 575 40T533 13T473 -5T389 -12Q306 -12 239 7T130 80Q113 103 100 146T87 252V524Q87 563 85 583T78 611Q73 622 67 628T49 639Q38 643 29 644T11
646V657H424V646Q416 645 407 644T386 639Q365 631 356 609Q351 601 350 582T348 525V204Q348 159 353 136T364 101Q378 72 409 57T483 42Q529 42 554 63T589 118Q596 141 598 168T601 221V494Q601 541 597 564T584 603Q576 619 564 627T538 640Q525 644 503 646V657H729V646Q717
645 709 644T692 640Q681 637 669 628T648 602Q640 586 635 563T630 494V222ZM643 855Q640 830 630 804T602 755T562 718T508 703Q488 703 469 708T431 719T394 731T359 736Q333 736 316 722T293 686H271Q275 719 285 747T311 797T350 829T405 841Q424 841 443
836T481 825T518 813T553 808Q576 808 595 821T622 855H643Z" />
<glyph unicode="&#x169;" glyph-name="utilde" horiz-adv-x="631" d="M35 324Q35 366 34 390T25 429Q15 450 -19 453V462H263Q272 462 272 456Q272 451 271 420T270 342V78Q270 42 292 42Q304 42 320 62T341 137Q343 157 344 184T345 255V368Q345 381 345 396T340
422Q337 433 332 438T320 448Q313 451 297 453V462H575Q584 462 584 456Q584 451 583 420T582 342V105Q582 92 582 78T585 52Q588 37 592 30T604 18Q609 15 615 13T629 11V0L353 -7Q348 -7 347 -6T346 2Q346 14 346 33T347 82H343Q340 68 335 56T315 28Q295 6 265
-1T188 -9Q150 -9 117 1T61 42Q42 68 39 97T35 164V324ZM472 654Q469 628 461 602T437 553T400 517T348 503Q328 503 309 508T273 520T239 531T210 537Q183 537 171 521T153 487L132 488Q136 518 144 546T166 595T203 629T257 642Q275 642 293 637T328 625T361
614T393 608Q435 608 451 655L472 654Z" />
<glyph unicode="&#x16a;" glyph-name="Umacron" horiz-adv-x="718" d="M630 222Q630 177 625 140T602 74Q591 56 575 40T533 13T473 -5T389 -12Q306 -12 239 7T130 80Q113 103 100 146T87 252V524Q87 563 85 583T78 611Q73 622 67 628T49 639Q38 643 29 644T11
646V657H424V646Q416 645 407 644T386 639Q365 631 356 609Q351 601 350 582T348 525V204Q348 159 353 136T364 101Q378 72 409 57T483 42Q529 42 554 63T589 118Q596 141 598 168T601 221V494Q601 541 597 564T584 603Q576 619 564 627T538 640Q525 644 503 646V657H729V646Q717
645 709 644T692 640Q681 637 669 628T648 602Q640 586 635 563T630 494V222ZM283 698V783H602V698H283Z" />
<glyph unicode="&#x16b;" glyph-name="umacron" horiz-adv-x="631" d="M35 324Q35 366 34 390T25 429Q15 450 -19 453V462H263Q272 462 272 456Q272 451 271 420T270 342V78Q270 42 292 42Q304 42 320 62T341 137Q343 157 344 184T345 255V368Q345 381 345 396T340
422Q337 433 332 438T320 448Q313 451 297 453V462H575Q584 462 584 456Q584 451 583 420T582 342V105Q582 92 582 78T585 52Q588 37 592 30T604 18Q609 15 615 13T629 11V0L353 -7Q348 -7 347 -6T346 2Q346 14 346 33T347 82H343Q340 68 335 56T315 28Q295 6 265
-1T188 -9Q150 -9 117 1T61 42Q42 68 39 97T35 164V324ZM172 518V603H438V518H172Z" />
<glyph unicode="&#x16c;" glyph-name="Ubreve" horiz-adv-x="718" d="M630 222Q630 177 625 140T602 74Q591 56 575 40T533 13T473 -5T389 -12Q306 -12 239 7T130 80Q113 103 100 146T87 252V524Q87 563 85 583T78 611Q73 622 67 628T49 639Q38 643 29 644T11
646V657H424V646Q416 645 407 644T386 639Q365 631 356 609Q351 601 350 582T348 525V204Q348 159 353 136T364 101Q378 72 409 57T483 42Q529 42 554 63T589 118Q596 141 598 168T601 221V494Q601 541 597 564T584 603Q576 619 564 627T538 640Q525 644 503 646V657H729V646Q717
645 709 644T692 640Q681 637 669 628T648 602Q640 586 635 563T630 494V222ZM580 851Q575 771 541 729T438 686Q369 686 335 728T295 851L306 858Q324 829 358 813T438 797Q481 797 515 812T567 858L580 851Z" />
<glyph unicode="&#x16d;" glyph-name="ubreve" horiz-adv-x="631" d="M35 324Q35 366 34 390T25 429Q15 450 -19 453V462H263Q272 462 272 456Q272 451 271 420T270 342V78Q270 42 292 42Q304 42 320 62T341 137Q343 157 344 184T345 255V368Q345 381 345 396T340
422Q337 433 332 438T320 448Q313 451 297 453V462H575Q584 462 584 456Q584 451 583 420T582 342V105Q582 92 582 78T585 52Q588 37 592 30T604 18Q609 15 615 13T629 11V0L353 -7Q348 -7 347 -6T346 2Q346 14 346 33T347 82H343Q340 68 335 56T315 28Q295 6 265
-1T188 -9Q150 -9 117 1T61 42Q42 68 39 97T35 164V324ZM446 657Q439 577 406 535T303 493Q234 493 200 535T159 657L170 663Q190 634 223 617T303 599Q349 599 382 616T434 663L446 657Z" />
<glyph unicode="&#x16e;" glyph-name="Uring" horiz-adv-x="718" d="M630 222Q630 177 625 140T602 74Q591 56 575 40T533 13T473 -5T389 -12Q306 -12 239 7T130 80Q113 103 100 146T87 252V524Q87 563 85 583T78 611Q73 622 67 628T49 639Q38 643 29 644T11 646V657H424V646Q416
645 407 644T386 639Q365 631 356 609Q351 601 350 582T348 525V204Q348 159 353 136T364 101Q378 72 409 57T483 42Q529 42 554 63T589 118Q596 141 598 168T601 221V494Q601 541 597 564T584 603Q576 619 564 627T538 640Q525 644 503 646V657H729V646Q717 645
709 644T692 640Q681 637 669 628T648 602Q640 586 635 563T630 494V222ZM526 785Q526 764 518 747T497 717T465 697T425 690Q381 690 353 716T324 785Q324 825 352 852T425 880Q470 880 498 854T526 785ZM484 785Q484 813 471 832T425 852Q393 852 380 833T367
785Q367 756 380 737T425 717Q457 717 470 736T484 785Z" />
<glyph unicode="&#x16f;" glyph-name="uring" horiz-adv-x="631" d="M397 587Q397 566 389 549T368 519T336 499T296 492Q252 492 224 518T195 587Q195 627 223 654T296 682Q341 682 369 656T397 587ZM355 587Q355 615 342 634T296 654Q264 654 251 635T238 587Q238
558 251 539T296 519Q328 519 341 538T355 587ZM35 324Q35 366 34 390T25 429Q15 450 -19 453V462H263Q272 462 272 456Q272 451 271 420T270 342V78Q270 42 292 42Q304 42 320 62T341 137Q343 157 344 184T345 255V368Q345 381 345 396T340 422Q337 433 332 438T320
448Q313 451 297 453V462H575Q584 462 584 456Q584 451 583 420T582 342V105Q582 92 582 78T585 52Q588 37 592 30T604 18Q609 15 615 13T629 11V0L353 -7Q348 -7 347 -6T346 2Q346 14 346 33T347 82H343Q340 68 335 56T315 28Q295 6 265 -1T188 -9Q150 -9 117
1T61 42Q42 68 39 97T35 164V324Z" />
<glyph unicode="&#x170;" glyph-name="Uhungarumlaut" horiz-adv-x="718" d="M486 826Q486 799 470 774T414 736L281 692H269L319 818Q325 833 333 847T352 872T378 889T413 896Q442 896 464 877T486 826ZM692 826Q692 799 677 775T620 736L488 692H476L526 818Q532
833 539 847T558 872T584 889T619 896Q648 896 670 877T692 826ZM630 222Q630 177 625 140T602 74Q591 56 575 40T533 13T473 -5T389 -12Q306 -12 239 7T130 80Q113 103 100 146T87 252V524Q87 563 85 583T78 611Q73 622 67 628T49 639Q38 643 29 644T11 646V657H424V646Q416
645 407 644T386 639Q365 631 356 609Q351 601 350 582T348 525V204Q348 159 353 136T364 101Q378 72 409 57T483 42Q529 42 554 63T589 118Q596 141 598 168T601 221V494Q601 541 597 564T584 603Q576 619 564 627T538 640Q525 644 503 646V657H729V646Q717 645
709 644T692 640Q681 637 669 628T648 602Q640 586 635 563T630 494V222Z" />
<glyph unicode="&#x171;" glyph-name="uhungarumlaut" horiz-adv-x="631" d="M35 324Q35 366 34 390T25 429Q15 450 -19 453V462H263Q272 462 272 456Q272 451 271 420T270 342V78Q270 42 292 42Q304 42 320 62T341 137Q343 157 344 184T345 255V368Q345 381 345
396T340 422Q337 433 332 438T320 448Q313 451 297 453V462H575Q584 462 584 456Q584 451 583 420T582 342V105Q582 92 582 78T585 52Q588 37 592 30T604 18Q609 15 615 13T629 11V0L353 -7Q348 -7 347 -6T346 2Q346 14 346 33T347 82H343Q340 68 335 56T315 28Q295
6 265 -1T188 -9Q150 -9 117 1T61 42Q42 68 39 97T35 164V324ZM265 685Q293 685 314 667T336 618Q336 589 320 565T263 526L130 480L121 489L170 605Q176 620 184 634T203 659T230 678T265 685ZM470 685Q498 685 520 667T542 618Q542 590 525 565T468 526L335 480L326
489L375 605Q381 620 389 634T408 659T435 678T470 685Z" />
<glyph unicode="&#x172;" glyph-name="Uogonek" horiz-adv-x="718" d="M309 -128Q309 -109 316 -95T345 -67T403 -37Q440 -21 498 1Q477 -4 450 -8Q422 -12 389 -12Q306 -12 239 7T130 80Q113 103 100 146T87 252V524Q87 565 85 585T77 614Q67 632 49 639Q38 643
29 644T11 646V657H424V646Q416 645 407 644T386 639Q366 631 358 615Q353 607 351 586T348 525V204Q348 159 353 136T364 101Q378 72 409 57T483 42Q529 42 554 63T589 118Q596 141 598 168T601 221V494Q601 541 597 564T584 603Q576 619 564 627T538 640Q525
644 503 646V657H729V646Q717 645 709 644T692 640Q681 637 669 628T648 602Q640 586 635 563T630 494V222Q630 177 625 140T602 74Q591 55 579 44T549 21Q506 -9 492 -41T478 -122Q478 -146 484 -161T499 -185T521 -197T545 -202V-212Q481 -215 437 -211T364 -195T322
-168T309 -128Z" />
<glyph unicode="&#x173;" glyph-name="uogonek" horiz-adv-x="631" d="M629 0H606Q596 0 584 0T556 -1T518 -2Q474 -3 442 -6T387 -21T353 -58T342 -125Q342 -148 348 -162T363 -185T385 -197T409 -202V-212Q344 -215 300 -211T227 -195T186 -168T173 -128Q173
-110 182 -96T213 -70T267 -47T347 -24V82H343Q340 68 335 56T315 28Q295 6 265 -1T188 -9Q150 -9 117 1T61 42Q42 68 39 97T35 164V324Q35 366 34 390T25 429Q15 450 -19 453V462H263Q272 462 272 456Q272 451 271 420T270 342V78Q270 42 292 42Q304 42 320 62T341
137Q343 157 344 184T345 255V368Q345 381 345 396T340 422Q337 433 332 438T320 448Q313 451 297 453V462H575Q584 462 584 456Q584 451 583 420T582 342V105Q582 92 582 78T585 52Q588 37 592 30T604 18Q609 15 615 13T629 11V0Z" />
<glyph unicode="&#x174;" glyph-name="Wcircumflex" horiz-adv-x="1115" d="M828 685L675 749L521 685L508 695L625 851H725L841 695L828 685ZM564 492L419 -2H294L103 547Q89 580 78 597T52 625Q40 636 26 640T1 646V657H432V647Q410 644 401 636T392 604Q392
583 399 559T415 505L476 301H480L550 535L549 537Q548 541 546 547T542 558L541 563Q533 587 526 602T511 626T493 640T467 646V657H899V647Q871 643 857 634T842 595Q842 577 848 554T861 506L914 301H918L981 515Q987 535 991 551T995 583Q995 613 980 628T935
647V657H1118V647Q1093 641 1076 630T1044 596Q1035 581 1026 561T1007 507L855 -2H728L564 492Z" />
<glyph unicode="&#x175;" glyph-name="wcircumflex" horiz-adv-x="822" d="M576 479L427 560L277 479L263 490L377 668H477L589 490L576 479ZM520 -2Q498 71 481 126T452 224T430 297T414 349L316 -2H162L58 322Q49 352 43 372T31 405T23 426T16 439Q10 448 2
449T-15 453V462H339V453Q335 451 332 450T324 446Q307 434 307 408Q307 392 311 373T321 325L350 196H352L404 379L396 403Q393 412 391 417T388 425T385 432Q381 440 379 443T371 449Q367 451 359 453V462H708V453Q699 451 690 445Q683 440 677 431T671 407Q671
393 673 380T681 342L708 197H710L747 339Q751 355 754 366T760 386T763 402T765 418Q765 430 761 436T748 446Q740 450 736 451T726 453V462H840V453Q825 450 816 443Q805 436 797 424Q789 411 784 395T768 343L675 -2H520Z" />
<glyph unicode="&#x176;" glyph-name="Ycircumflex" horiz-adv-x="661" d="M94 541Q82 568 71 586T48 617T21 636T-13 646V657H424V646Q399 644 381 635T363 596Q363 585 365 571T373 543L442 347H447L517 506Q531 537 537 557T543 597Q543 618 534 627T511 641Q501
644 496 644T485 646V657H670V646Q652 641 637 634T608 613T580 574T548 511L458 311V133Q458 92 460 71T469 42Q476 34 482 29T499 19Q509 15 520 14T539 11V0H117V11Q125 12 136 13T158 19Q167 22 173 27T186 40Q193 48 196 69T199 133V302L94 541ZM551 685L398
749L244 685L231 695L348 851H448L564 695L551 685Z" />
<glyph unicode="&#x177;" glyph-name="ycircumflex" horiz-adv-x="511" d="M265 -108Q254 -134 240 -156T206 -190Q167 -213 114 -213Q89 -213 66 -207T24 -187T-5 -153T-16 -106Q-16 -88 -10 -72T9 -44T38 -24T79 -16Q108 -16 131 -27T166 -58Q177 -76 179 -98T182
-138Q182 -149 184 -155T195 -162Q220 -162 235 -125Q240 -113 241 -102T242 -82Q242 -74 238 -64T230 -47L74 322Q62 351 50 374T27 411Q19 422 13 429T-2 443Q-8 447 -15 449T-31 453V462H353V453Q345 452 338 451T325 445Q309 435 309 417Q309 402 314 384T327
344L368 222H371L417 339Q428 365 431 380T435 410Q435 425 429 433T413 446Q400 452 392 453V462H537V453Q520 451 505 440T475 407Q469 396 462 383T445 345L427 300Q413 265 394 217T354 115T314 14T282 -67T265 -108ZM445 479L296 560L146 479L132 490L246
668H346L458 490L445 479Z" />
<glyph unicode="&#x178;" glyph-name="Ydieresis" horiz-adv-x="661" d="M94 541Q82 568 71 586T48 617T21 636T-13 646V657H424V646Q399 644 381 635T363 596Q363 585 365 571T373 543L442 347H447L517 506Q531 537 537 557T543 597Q543 618 534 627T511 641Q501
644 496 644T485 646V657H670V646Q652 641 637 634T608 613T580 574T548 511L458 311V133Q458 92 460 71T469 42Q476 34 482 29T499 19Q509 15 520 14T539 11V0H117V11Q125 12 136 13T158 19Q167 22 173 27T186 40Q193 48 196 69T199 133V302L94 541ZM269 850Q310
850 335 827T361 769Q361 734 337 711T269 688Q224 688 200 711T176 770Q176 805 201 827T269 850ZM507 850Q548 850 573 827T599 769Q599 734 575 711T507 688Q462 688 438 711T414 770Q414 805 439 827T507 850Z" />
<glyph unicode="&#x179;" glyph-name="Zacute" horiz-adv-x="696" d="M431 853Q468 853 487 831T507 780Q507 744 485 723T415 698L238 683L233 695L345 810Q362 827 383 840T431 853ZM671 645L323 24H371Q401 24 423 30T464 48T498 75T528 109Q551 136 571 163T609
216T639 261T661 294H675L642 0H26V12L386 634H360Q333 634 313 631T275 620T241 602T206 576Q171 547 132 501T62 409H49L70 657H671V645Z" />
<glyph unicode="&#x17a;" glyph-name="zacute" horiz-adv-x="525" d="M433 611Q433 582 413 559T347 525L189 489L182 498L256 612Q274 641 297 663T356 685Q390 685 411 664T433 611ZM480 0H11V7L234 438V442H170Q147 442 137 437T112 410Q101 393 92 377T73
344T54 307T29 259H16L44 462H500V452L273 20V15H308Q344 15 368 28T419 79Q446 118 468 152T498 199H511L480 0Z" />
<glyph unicode="&#x17b;" glyph-name="Zdotaccent" horiz-adv-x="696" d="M671 645L323 24H371Q401 24 423 30T464 48T498 75T528 109Q551 136 571 163T609 216T639 261T661 294H675L642 0H26V12L386 634H360Q333 634 313 631T275 620T241 602T206 576Q171 547
132 501T62 409H49L70 657H671V645ZM472 781Q472 740 443 715T359 690Q306 690 276 715T245 781Q245 821 275 845T359 870Q412 870 442 845T472 781Z" />
<glyph unicode="&#x17c;" glyph-name="zdotaccent" horiz-adv-x="525" d="M480 0H11V7L234 438V442H170Q147 442 137 437T112 410Q101 393 92 377T73 344T54 307T29 259H16L44 462H500V452L273 20V15H308Q344 15 368 28T419 79Q446 118 468 152T498 199H511L480
0ZM288 483Q235 483 205 508T174 574Q174 614 204 638T288 663Q341 663 371 638T401 574Q401 533 372 508T288 483Z" />
<glyph unicode="&#x17d;" glyph-name="Zcaron" horiz-adv-x="696" d="M205 860L360 796L512 860L525 850L409 694H309L192 850L205 860ZM671 645L323 24H371Q401 24 423 30T464 48T498 75T528 109Q551 136 571 163T609 216T639 261T661 294H675L642 0H26V12L386
634H360Q333 634 313 631T275 620T241 602T206 576Q171 547 132 501T62 409H49L70 657H671V645Z" />
<glyph unicode="&#x17e;" glyph-name="zcaron" horiz-adv-x="525" d="M341 495H241L128 674L142 684L292 598L439 684L452 674L341 495ZM480 0H11V7L234 438V442H170Q147 442 137 437T112 410Q101 393 92 377T73 344T54 307T29 259H16L44 462H500V452L273 20V15H308Q344
15 368 28T419 79Q446 118 468 152T498 199H511L480 0Z" />
<glyph unicode="&#x192;" glyph-name="florin" horiz-adv-x="727" d="M737 542Q737 489 705 464T627 438Q601 438 582 446T549 466T530 495T523 527Q523 541 527 556T535 585T544 614T548 639Q548 658 534 658Q522 658 513 649T497 627T486 597T478 565Q474 545
471 524T464 483T457 446T452 416H534L528 391H448Q433 311 419 253T393 154T371 85T354 37Q337 -7 316 -46T261 -116T178 -164T59 -182Q-38 -182 -87 -145T-137 -53Q-137 -3 -107 22T-32 47Q-5 47 14 39T45 18T62 -13T68 -47Q68 -61 64 -75T54 -102T45 -126T40
-144Q40 -161 58 -161Q65 -161 71 -159T82 -148T92 -125T103 -84Q130 42 151 165T199 391H120L125 416H205Q205 413 206 416T208 423T210 431T210 432Q228 500 260 547T335 625T428 668T535 682Q631 682 684 643T737 542Z" />
<glyph unicode="&#x1fa;" glyph-name="Aringacute" horiz-adv-x="683" d="M210 358H206L135 169H274L210 358ZM-26 11Q-18 13 -6 16T16 26Q26 32 34 40T54 63Q66 80 79 105T101 153L299 662H386L559 205Q570 176 578 157T592 122T605 95T620 70Q632 52 642 41T666
23Q675 18 686 16T707 11V0H226V11Q237 13 248 16T266 22Q280 27 290 37T301 68Q301 86 297 100T287 135L281 148H127L121 133Q115 119 111 106T107 75Q107 59 113 44T134 22Q143 17 156 15T178 11V0H-26V11ZM419 1062Q456 1062 475 1040T495 989Q495 953 473 932T403
907L226 892L221 904L333 1019Q350 1036 371 1049T419 1062ZM445 785Q445 764 437 747T416 717T384 697T344 690Q300 690 272 716T243 785Q243 825 271 852T344 880Q389 880 417 854T445 785ZM403 785Q403 813 390 832T344 852Q312 852 299 833T286 785Q286 756
299 737T344 717Q376 717 389 736T403 785Z" />
<glyph unicode="&#x1fb;" glyph-name="aringacute" horiz-adv-x="588" d="M430 -7Q388 -7 370 -1T339 18Q323 34 319 65H315Q294 -9 178 -9Q105 -9 62 21T18 113Q18 139 25 161T50 199Q64 211 85 221T141 236Q188 244 219 250T269 264T296 285T306 318V395Q306
435 298 445T274 456Q259 456 248 454T236 438Q236 428 241 409T247 361Q247 312 221 290T148 267Q103 267 77 286T50 342Q50 393 89 423Q120 448 168 460T272 473Q353 473 403 459T481 424T519 378T529 332V121Q529 87 530 74T536 52Q540 44 548 40T566 36Q577
36 584 37T599 42L600 32Q589 21 547 7T430 -7ZM305 272Q300 267 295 265T277 254Q270 249 264 243T253 223Q249 210 248 193T246 143Q246 87 254 67T276 47Q290 47 297 57T305 83V272ZM399 587Q399 566 391 549T370 519T338 499T298 492Q254 492 226 518T197 587Q197
627 225 654T298 682Q343 682 371 656T399 587ZM357 587Q357 615 344 634T298 654Q266 654 253 635T240 587Q240 558 253 539T298 519Q330 519 343 538T357 587ZM375 861Q412 861 431 839T451 788Q451 752 429 731T359 706L182 691L177 703L289 818Q306 835 327
848T375 861Z" />
<glyph unicode="&#x1fc;" glyph-name="AEacute" horiz-adv-x="1012" d="M721 853Q758 853 777 831T797 780Q797 744 775 723T705 698L528 683L523 695L635 810Q652 827 673 840T721 853ZM330 0V11Q338 12 347 13T368 18Q387 25 397 45Q407 59 407 123V195H161L149
173Q131 141 122 118T113 71Q113 48 122 37T147 20Q161 15 170 14T188 11V0H-30V11Q-6 15 12 26T45 54T75 96T107 150L383 633L368 639Q357 643 347 644T328 646V657H943L962 405H951Q937 424 920 448T884 497T848 544T815 582Q801 597 789 607T764 624T737 633T702
636H697Q682 636 674 632T666 610V352H686Q728 352 761 385Q781 405 795 429T820 482H831V200H820Q807 230 795 251T759 299Q742 317 726 323T686 330H666V104Q666 83 666 68T671 45Q676 35 685 29T718 22H720Q732 22 742 24T763 32T787 52T818 88Q833 107 852
132T890 187T927 246T960 304H971L960 0H330ZM407 572Q407 592 405 598T398 612L173 216H407V572Z" />
<glyph unicode="&#x1fd;" glyph-name="aeacute" horiz-adv-x="831" d="M585 611Q585 582 565 559T499 525L341 489L334 498L408 612Q426 641 449 663T508 685Q542 685 563 664T585 611ZM181 -9Q105 -9 62 21T18 113Q18 139 25 161T49 199Q63 211 83 220T139 236Q186
244 218 250T269 264T297 285T306 319V395Q306 435 298 445T274 456Q259 456 248 452T236 438Q236 427 241 408T247 362Q247 313 221 290T148 267Q103 267 77 286T50 341Q50 367 60 388T90 424Q121 448 168 460T272 473Q329 473 365 460T427 420Q453 444 493 457T581
471Q641 471 686 454T761 409T806 344T821 269V257Q821 250 820 243H545Q545 192 546 158T551 102T559 68T570 49Q579 38 594 30T636 21Q673 21 701 34T750 67T784 111T804 159L819 153Q811 126 796 97T755 45T690 6T592 -9Q511 -9 453 14T359 77Q336 30 288 11T181
-9ZM305 272Q300 268 295 265T276 253Q269 248 263 241T252 221Q249 208 248 191T246 141Q246 109 246 87T250 52T258 34T273 28Q288 28 296 39T305 77V272ZM617 287Q617 340 616 377T608 437Q605 446 600 450T582 454Q563 454 557 436Q551 420 549 381T546 262H599Q609
263 613 267T617 287Z" />
<glyph unicode="&#x1fe;" glyph-name="Oslashacute" horiz-adv-x="772" d="M386 670Q466 670 532 647L536 646L577 716L595 706L556 638Q607 616 646 580Q694 537 720 474T746 330Q746 249 720 185T647 77T533 9T386 -14Q306 -14 240 9Q220 16 201 24L152 -61L135
-51L184 34Q152 52 126 76Q79 121 53 185T26 330Q26 411 52 474T126 580T240 647T386 670ZM386 6Q408 6 418 15T434 36Q443 53 454 125T465 328Q465 412 460 473L309 211Q312 161 318 125Q329 53 338 36Q344 24 354 15T386 6ZM454 531Q443 604 434 621Q428 633
418 641T386 650Q364 650 354 642T338 621Q329 604 318 531T307 328Q307 285 308 249L457 507Q455 520 454 531ZM456 853Q493 853 512 831T532 780Q532 744 510 723T440 698L263 683L258 695L370 810Q387 827 408 840T456 853Z" />
<glyph unicode="&#x1ff;" glyph-name="oslashacute" horiz-adv-x="577" d="M11 231Q11 286 31 330T88 405T176 454T290 471Q335 471 374 462L406 541L426 534L395 457Q400 455 404 454Q456 437 492 406T549 331T569 231Q569 175 550 131T494 56T406 8T290 -9Q247
-9 209 -1L171 -95L151 -88L188 4Q181 6 174 8Q123 25 87 56T31 131T11 231ZM327 382Q324 437 310 450Q304 456 290 456Q275 456 269 449Q256 436 253 382T250 231Q250 190 250 157L328 350Q328 368 327 382ZM330 231V297L251 104Q252 91 253 80Q256 26 269 13Q275
7 290 7Q304 7 310 13Q324 27 327 80T330 231ZM422 611Q422 582 402 559T336 525L178 489L171 498L245 612Q263 641 286 663T345 685Q379 685 400 664T422 611Z" />
<glyph unicode="&#x218;" glyph-name="Scommaaccent" horiz-adv-x="602" d="M405 121Q405 83 390 57T350 11T290 -21T217 -43L214 -28Q265 -15 284 0T303 29Q303 45 283 45Q239 47 213 68T186 128Q186 169 214 191T293 214Q340 214 372 190T405 121ZM508 430Q503
444 498 454L489 474Q485 484 480 495T466 525Q437 578 401 612T312 646Q274 646 253 628T231 578Q231 553 240 536T267 505T310 481T365 456Q416 434 456 414T524 368T567 309T582 227Q582 166 560 121T499 47T407 3T291 -12Q222 -12 177 10T104 58H100L54 -4H41L36
260H51Q64 219 86 175T139 95T208 34T291 10Q329 10 355 26T381 77Q381 97 376 113T359 142T326 168T271 194Q224 212 182 234T109 286T58 354T39 444Q39 502 61 544T119 615T202 656T301 670Q331 670 353 666T393 654T423 637T449 617H453L502 655H515L521 430H508Z"
/>
<glyph unicode="&#x219;" glyph-name="scommaaccent" horiz-adv-x="444" d="M331 -120Q331 -158 316 -184T276 -230T216 -262T143 -284L140 -269Q191 -256 210 -241T229 -212Q229 -196 209 -196Q165 -194 139 -173T112 -113Q112 -72 140 -50T219 -27Q266 -27 298
-51T331 -120ZM433 166Q433 120 415 87T367 33T299 1T222 -9Q172 -9 141 3T81 38H77L37 3H29L20 176H29Q44 140 62 110T104 57T155 22T217 9Q238 9 252 19T266 47Q266 65 260 76T243 95T216 109T180 123Q139 139 109 156T58 196T28 245T17 310Q17 387 74 429T232
471Q276 471 306 457T356 425H359L381 458H388L396 312H386Q375 344 361 370T325 417Q307 434 283 444T230 454Q208 454 195 446T181 418Q181 408 184 400T197 383T226 366T277 345Q309 333 337 320T387 286T420 237T433 166Z" />
<glyph unicode="&#x21a;" glyph-name="uni021A" horiz-adv-x="743" d="M480 -135Q480 -173 465 -199T425 -245T365 -277T292 -299L289 -284Q340 -271 359 -256T378 -227Q378 -211 358 -211Q314 -209 288 -188T261 -128Q261 -87 289 -65T368 -42Q415 -42 447 -66T480
-135ZM501 143Q501 95 503 74T511 44Q521 25 540 18Q551 14 560 13T578 11V0H165V11Q173 12 183 13T204 18Q222 25 232 42Q238 50 240 72T242 143V634H234Q210 634 194 618T155 568Q122 516 92 461T39 365H27L35 657H709L717 365H704Q681 405 652 460T589 568Q566
602 550 618T509 634H501V143Z" />
<glyph unicode="&#x21b;" glyph-name="uni021B" horiz-adv-x="388" d="M554 -120Q554 -158 539 -184T499 -230T439 -262T366 -284L363 -269Q414 -256 433 -241T452 -212Q452 -196 432 -196Q388 -194 362 -173T335 -113Q335 -72 363 -50T442 -27Q489 -27 521 -51T554
-120ZM386 80Q378 67 365 52T332 23T282 0T213 -9Q165 -9 134 3T89 29Q56 60 48 96T39 164V187Q39 206 39 232T40 288T41 346T42 398T43 434Q27 436 9 436T-17 437V454Q79 473 146 521T254 628H281V462H367V434H281L277 135Q277 125 277 113T282 89T296 70T324
62Q342 62 355 70T376 89L386 80Z" />
<glyph unicode="&#x237;" glyph-name="uni0237" horiz-adv-x="342" d="M53 -51V386Q53 400 51 412Q49 425 45 432T34 444Q23 449 6 451V462H286Q292 462 292 454Q292 433 292 415T291 360V50Q291 5 283 -27T262 -83T231 -123T196 -153Q161 -179 110 -196T-8 -213Q-43
-213 -69 -210T-123 -197Q-155 -186 -175 -165T-196 -106Q-196 -69 -168 -45T-93 -21Q-41 -21 -16 -45T9 -105Q9 -122 6 -137T-5 -164Q-10 -170 -12 -173T-14 -184Q-14 -197 5 -197Q22 -197 32 -182T47 -141Q51 -122 52 -100T53 -51Z" />
<glyph unicode="&#x2c6;" glyph-name="circumflex" horiz-adv-x="400" d="M350 479L201 560L51 479L37 490L151 668H251L363 490L350 479Z" />
<glyph unicode="&#x2c7;" glyph-name="caron" horiz-adv-x="400" d="M251 495H151L38 674L52 684L202 598L349 684L362 674L251 495Z" />
<glyph unicode="&#x2d8;" glyph-name="breve" horiz-adv-x="400" d="M344 657Q337 577 304 535T201 493Q132 493 98 535T57 657L68 663Q88 634 121 617T201 599Q247 599 280 616T332 663L344 657Z" />
<glyph unicode="&#x2d9;" glyph-name="dotaccent" horiz-adv-x="400" d="M201 483Q148 483 118 508T87 574Q87 614 117 638T201 663Q254 663 284 638T314 574Q314 533 285 508T201 483Z" />
<glyph unicode="&#x2da;" glyph-name="ring" horiz-adv-x="400" d="M301 587Q301 566 293 549T272 519T240 499T200 492Q156 492 128 518T99 587Q99 627 127 654T200 682Q245 682 273 656T301 587ZM259 587Q259 615 246 634T200 654Q168 654 155 635T142 587Q142
558 155 539T200 519Q232 519 245 538T259 587Z" />
<glyph unicode="&#x2db;" glyph-name="ogonek" horiz-adv-x="400" d="M288 -212Q224 -215 180 -211T107 -195T65 -168T52 -128Q52 -106 63 -90T98 -60T163 -31T262 6H281Q249 -8 235 -40T221 -125Q221 -148 227 -162T242 -185T264 -197T288 -202V-212Z" />
<glyph unicode="&#x2dc;" glyph-name="tilde" horiz-adv-x="400" d="M370 654Q367 628 359 602T335 553T298 517T246 503Q226 503 207 508T171 520T137 531T108 537Q81 537 69 521T51 487L30 488Q34 518 42 546T64 595T101 629T155 642Q173 642 191 637T226 625T259
614T291 608Q333 608 349 655L370 654Z" />
<glyph unicode="&#x2dd;" glyph-name="hungarumlaut" horiz-adv-x="400" d="M162 685Q190 685 211 667T233 618Q233 589 217 565T160 526L27 480L18 489L67 605Q73 620 81 634T100 659T127 678T162 685ZM367 685Q395 685 417 667T439 618Q439 590 422 565T365
526L232 480L223 489L272 605Q278 620 286 634T305 659T332 678T367 685Z" />
</font>
</defs>
</svg>
