<?xml version="1.0" standalone="no"?> <!DOCTYPE svg PUBLIC "-//W3C//DTD SVG 1.0//EN" "http://www.w3.org/TR/2001/REC-SVG-20010904/DTD/svg10.dtd" > <svg xmlns="http://www.w3.org/2000/svg" width="100%" height="100%">
<defs >
<font horiz-adv-x="511" ><font-face
    font-family=""
    units-per-em="1000"
    panose-1="0 0 0 0 0 0 0 0 0 0"
    ascent="787"
    descent="-213"
    alphabetic="0" />
<missing-glyph horiz-adv-x="550" />
<glyph unicode=" " glyph-name="space" horiz-adv-x="193" />
<glyph unicode="!" glyph-name="exclam" horiz-adv-x="273" d="M291 597Q291 565 266 515T209 400Q180 337 153 277T108 171H91Q101 228 107 280T118 394Q124 458 125 503T131 580Q137 623 160 646T221 670Q253 670 272 650T291 597ZM124 47Q124 21 106 3T60 -16Q33
-16 15 2T-3 47Q-3 73 15 92T60 111Q87 111 105 92T124 47Z" />
<glyph unicode="&quot;" glyph-name="quotedbl" horiz-adv-x="311" d="M203 623Q203 606 189 578L161 522Q148 496 133 471T107 423H93Q94 446 94 475T95 532Q95 544 95 558T97 585T99 610T101 626Q106 649 121 660T156 671Q177 671 190 659T203 623ZM349 623Q349
606 335 578L307 522Q294 496 279 471T252 423H239Q240 446 240 475T241 532Q241 544 241 558T243 585T245 610T247 626Q252 649 267 660T302 671Q323 671 336 659T349 623Z" />
<glyph unicode="#" glyph-name="numbersign" horiz-adv-x="569" d="M443 431L389 230H534V206H383L328 0H305L360 206H178Q177 202 173 188T164 153T153 109T141 64T131 25T124 0H100L155 206H5V230H161L214 431H57V455H221L274 656H297L244 455H426L479 656H502L449
455H585V431H443ZM238 431L184 230H366L420 431H238Z" />
<glyph unicode="$" glyph-name="dollar" horiz-adv-x="504" d="M514 550Q514 513 495 493T450 473Q424 473 406 488T387 532Q387 543 390 554T398 574T407 592T411 606Q411 620 394 631T345 644L288 414Q318 386 345 364T394 317T427 265T439 197Q439 154 420
116T366 48T285 2T182 -15L160 -108H136L160 -14Q122 -11 92 1T41 30T9 70T-2 115Q-2 150 17 168T63 187Q90 187 105 170T121 123Q121 99 111 78T101 43Q101 29 120 20T165 7L232 278Q208 300 187 321T150 365T125 413T116 471Q116 512 132 547T177 608T244 649T328
665L346 738H368L350 665Q391 663 421 653T472 626T503 591T514 550ZM322 644Q278 641 249 613T219 538Q219 506 232 481T270 431L322 644ZM336 126Q336 149 332 165T318 195T292 224T251 262L188 6Q227 7 255 17T301 45T327 83T336 126Z" />
<glyph unicode="%" glyph-name="percent" horiz-adv-x="684" d="M352 548Q352 496 334 455T287 386T224 342T156 327Q105 327 75 360T44 443Q44 495 62 536T109 605T173 649T241 664Q292 664 322 631T352 548ZM270 588Q270 611 264 628T238 646Q227 646 214 641T187
618Q175 600 164 575T144 522T131 462T126 403Q126 380 132 363T158 345Q169 345 183 350T209 373Q222 391 233 416T252 469T265 528T270 588ZM120 -19L102 -6L576 663L594 650L120 -19ZM660 205Q660 153 642 112T595 43T531 -1T463 -16Q412 -16 382 17T352 100Q352
152 370 193T417 262T481 306T549 321Q600 321 630 288T660 205ZM578 246Q578 269 572 286T546 303Q535 303 522 298T495 275Q483 257 472 232T452 179T439 119T434 60Q434 37 440 20T466 3Q477 3 490 8T517 30Q529 48 540 73T560 127T573 186T578 246Z" />
<glyph unicode="&amp;" glyph-name="ampersand" horiz-adv-x="749" d="M775 530Q775 500 766 473T740 426T698 393T642 380Q626 380 597 384T540 396Q559 384 572 366T593 327T605 286T609 250Q609 212 591 166T536 80T439 12T297 -15Q230 -15 179 3T94 53T42
130T24 226Q24 265 37 297T70 354T115 395T163 421Q150 439 142 466T133 519Q133 550 144 577T175 623T225 654T292 665Q353 665 386 639T419 562Q419 536 402 513T362 480L355 488Q373 501 373 532Q373 558 354 576T292 594Q241 594 210 563T179 465Q179 456 181
448T187 431Q197 436 209 439T231 442Q288 442 288 396Q288 381 277 372T248 363Q227 363 209 374T176 402Q155 387 138 359T120 289Q120 247 132 212T170 150T235 109T330 94Q385 94 428 112T502 160T547 225T563 296Q563 332 551 354T520 390T481 407T444 412Q401
412 377 389T352 334Q352 319 357 308T369 290T384 278T399 274Q397 284 396 293T397 313Q400 337 416 349T457 362Q482 362 497 344T512 300Q512 274 491 253T434 232Q411 232 392 241T359 266T337 302T329 347Q329 384 344 411T383 456T434 482T487 491Q507 491
528 489T565 485Q575 484 587 482T611 479T632 476T647 475Q695 475 715 497T736 551Q736 580 722 599T694 620Q692 591 676 570T634 548Q608 548 593 563T577 604Q577 630 597 645T644 661Q665 661 688 652T730 626T762 585T775 530Z" />
<glyph unicode="&apos;" glyph-name="quotesingle" horiz-adv-x="172" d="M203 623Q203 606 189 579T161 523Q148 497 133 472T107 423H93Q94 446 94 476T95 533Q95 545 95 559T97 586T99 611T101 627Q106 650 121 661T156 672Q177 672 190 659T203 623Z" />
<glyph unicode="(" glyph-name="parenleft" horiz-adv-x="277" d="M152 -104Q131 -78 111 -45T74 27T47 111T37 209Q37 293 64 365T135 497T234 603T347 681L362 671Q306 629 260 573T181 452T130 315T112 167Q112 99 129 28T173 -97L152 -104Z" />
<glyph unicode=")" glyph-name="parenright" horiz-adv-x="277" d="M120 680Q141 654 161 621T197 549T224 465T234 368Q234 283 207 211T136 79T37 -27T-76 -104L-91 -94Q-35 -52 11 4T90 125T141 262T159 410Q159 478 142 549T99 673L120 680Z" />
<glyph unicode="*" glyph-name="asterisk" horiz-adv-x="382" d="M225 304Q210 304 201 312T192 335Q192 345 195 361T203 396T213 436T220 477Q208 462 197 444T175 409T156 378T140 357Q130 347 119 347T96 358Q85 369 85 381T94 403Q101 410 115 419T146 438T181
459T214 483Q194 481 174 477T134 468T98 460T72 456Q58 456 50 464T42 488Q42 503 50 511T72 520Q82 520 98 517T133 508T173 499T214 492Q199 504 181 515T146 537T115 557T94 573Q73 594 95 618Q119 640 140 619Q147 612 156 598T175 567T196 532T220 499Q218
518 214 539T205 579T197 614T193 640Q193 654 201 662T225 671Q240 671 248 663T257 640Q257 630 254 614T245 579T236 539T229 499Q241 514 252 532T274 567T294 598T310 619Q331 640 355 617Q377 594 356 573Q349 566 335 557T304 538T269 516T236 492Q250 493
270 498T310 507T349 516T377 520Q391 520 399 512T408 487Q408 472 400 464T378 455Q368 455 352 458T317 467T276 477T236 484Q251 472 269 461T304 439T334 419T355 403Q365 393 365 382T354 359Q343 348 332 348T310 357Q303 364 294 378T275 409T253 444T229
477Q231 458 236 437T245 397T253 361T257 335Q257 321 249 313T225 304Z" />
<glyph unicode="+" glyph-name="plus" horiz-adv-x="462" d="M230 251V78H210V251H37V271H210V446H230V271H404V251H230Z" />
<glyph unicode="," glyph-name="comma" horiz-adv-x="208" d="M142 42Q142 12 126 -15T82 -66T22 -106T-46 -133L-50 -119Q-34 -114 -14 -104T25 -81T56 -56T69 -31Q69 -20 62 -16Q39 -13 23 5T6 47Q6 79 27 97T76 115Q105 115 123 96T142 42Z" />
<glyph unicode="-" glyph-name="hyphen" horiz-adv-x="325" d="M264 225H50L67 291H281L264 225Z" />
<glyph unicode="." glyph-name="period" horiz-adv-x="206" d="M141 50Q141 22 123 4T77 -14Q50 -14 32 4T14 50Q14 77 32 95T77 114Q105 114 123 96T141 50Z" />
<glyph unicode="/" glyph-name="slash" horiz-adv-x="260" d="M-84 -100L-109 -88L330 688L356 675L-84 -100Z" />
<glyph unicode="0" glyph-name="zero" horiz-adv-x="603" d="M391 670Q444 670 481 651T541 600T574 525T585 432Q585 342 555 261T475 119T359 22T222 -14Q169 -14 132 5T72 56T39 132T28 225Q28 285 42 341T80 447T139 537T213 608T299 653T391 670ZM225 8Q272
8 307 52Q336 86 363 140T413 260T448 399T461 543Q461 596 441 622T388 649Q343 649 307 605Q276 569 248 513T199 391T165 252T152 113Q152 60 172 34T225 8Z" />
<glyph unicode="1" glyph-name="one" horiz-adv-x="362" d="M165 510Q167 517 170 528T176 552T181 576T184 594Q186 605 184 610T174 620Q170 622 161 624T142 627T123 630T110 631L112 642Q123 642 140 643T175 646T213 650T250 655Q261 657 274 659T299 663T320
666T332 667Q339 667 337 659Q334 648 329 627T318 586L213 165Q197 107 197 77Q197 50 208 37T233 19Q242 15 254 13L274 11L272 0H-54L-52 11Q-44 12 -34 13T-15 18Q-1 22 12 30T37 53Q52 75 61 101T81 168L165 510Z" />
<glyph unicode="2" glyph-name="two" horiz-adv-x="537" d="M54 104Q84 130 120 160T194 224T265 296T327 375T370 462T386 555Q386 603 365 624T304 646Q278 646 252 635T204 602T168 547T154 471Q154 440 169 422T208 404Q240 404 260 424T295 474L307 468Q300
447 286 426T253 387T209 358T154 347Q107 347 81 377T55 452Q55 495 74 534T129 604T216 652T333 670Q385 670 422 657T484 623T520 574T532 516Q532 470 507 426T443 343T362 272T284 217Q265 205 247 195T208 174T164 151T111 124L112 120H310Q345 120 373 132T422
159Q443 174 461 194T491 234H505L397 0H-65Q-60 4 -43 18T-7 50T29 82T54 104Z" />
<glyph unicode="3" glyph-name="three" horiz-adv-x="501" d="M486 545Q486 512 469 483T420 428T347 383T254 350V347Q346 350 400 312T455 208Q455 161 435 121T376 50T282 3T157 -14Q112 -14 78 -3T20 28T-15 71T-27 121Q-27 151 -9 171T37 191Q69 191 84 173T100
126Q100 115 97 103T88 77Q86 70 83 61T79 45Q79 37 85 31T102 20T124 12T147 9Q186 9 216 26T268 72T300 140T311 225Q311 280 288 301T223 323Q211 323 199 320T173 311L142 296L134 312L202 345Q236 361 266 381T318 429T354 489T368 564Q368 602 350 624T289
647Q268 647 247 639T209 616T182 576T171 518Q171 489 184 475T218 461Q244 461 259 471T289 499L298 493Q292 479 282 465T256 439T220 420T176 412Q155 412 139 419T111 439T94 468T88 502Q88 538 106 568T154 621T222 657T300 670Q349 670 384 661T442 634T475
595T486 545Z" />
<glyph unicode="4" glyph-name="four" horiz-adv-x="541" d="M213 237L287 533H285L7 237H213ZM387 0H63L65 11Q75 12 84 13T101 18Q135 29 156 60Q168 79 176 101T193 157L209 217H-26L-21 235L373 657H449Q452 657 451 654Q448 640 444 624T434 588L345 237H380Q418
237 433 245T459 264Q473 278 486 299T508 343H520L460 106H447Q450 128 449 150T440 187Q432 201 420 209T375 217H341L325 154Q320 132 317 112T313 77Q313 50 323 38T348 20Q357 16 369 14T390 11L387 0Z" />
<glyph unicode="5" glyph-name="five" horiz-adv-x="508" d="M163 -14Q118 -14 83 -3T25 27T-11 69T-24 117Q-24 149 -5 170T43 191Q75 191 89 172T104 125Q104 113 101 99T94 74Q92 68 90 59T87 44Q87 29 107 20T151 10Q185 10 215 25T267 70T303 148T317 261Q317
315 296 346T226 378Q183 378 147 355T92 301L73 309L206 656H217Q238 638 276 629T358 619Q392 619 417 626T461 643T490 666T508 691L520 688Q501 645 480 612T431 557T368 523T287 511Q259 511 231 514T180 526L115 356L118 355Q146 381 184 396T267 412Q362
412 410 365T459 241Q459 192 439 146T381 65T287 8T163 -14Z" />
<glyph unicode="6" glyph-name="six" horiz-adv-x="553" d="M568 570Q568 536 549 515T500 493Q471 493 457 509T442 549Q442 561 445 571T453 589Q458 600 461 607T464 620Q464 631 455 639T422 648Q390 648 358 627T297 568T245 480T206 373H210Q234 402 272
416T346 430Q383 430 412 418T462 383T492 333T503 272Q503 223 485 173T431 81T342 13T220 -14Q167 -14 130 5T70 55T37 124T26 200Q26 269 44 331T94 445T166 539T251 610T341 654T426 670Q471 670 498 661T541 637T562 604T568 570ZM373 321Q373 355 357 376T308
398Q284 398 261 386T221 349Q207 328 194 298T170 234T154 166T148 103Q148 64 167 36T220 8Q246 8 266 20T301 53Q316 76 329 109T352 178T367 252T373 321Z" />
<glyph unicode="7" glyph-name="seven" horiz-adv-x="458" d="M128 -14Q109 -14 97 -8T77 9T66 33T62 60Q62 82 74 108T105 160T144 210T183 253Q211 283 243 320T307 394T371 468T430 533V536H207Q190 536 171 534T136 525Q112 516 94 500T56 449H42L130 692H141Q145
678 157 668T198 657H554L550 642Q486 575 439 507T355 369T291 231T235 93Q214 39 190 13T128 -14Z" />
<glyph unicode="8" glyph-name="eight" horiz-adv-x="524" d="M10 138Q10 173 26 201T68 251T127 288T194 311Q154 343 126 382T97 478Q97 522 115 557T164 618T236 656T324 670Q411 670 454 635T497 543Q497 513 483 488T448 443T400 409T350 386Q377 364 398
345T435 305T457 258T465 198Q465 159 447 121T395 53T316 5T212 -14Q117 -14 64 28T10 138ZM332 398Q380 421 400 458T421 544Q421 594 397 621T320 649Q270 649 238 623T205 549Q205 526 213 508T237 473T273 441T319 407Q321 406 325 403T332 398ZM213 297Q190
290 168 276T129 242T101 196T90 138Q90 74 123 41T211 8Q274 8 313 40T353 125Q353 150 346 169T322 207T282 244T225 288Q223 290 219 292T213 297Z" />
<glyph unicode="9" glyph-name="nine" horiz-adv-x="555" d="M192 339Q192 305 209 284T258 262Q287 262 312 279T356 328Q368 348 378 377T397 437T410 499T415 554Q415 593 397 620T344 648Q314 648 292 633T253 588Q241 565 230 534T210 468T197 401T192 339ZM-7
89Q-7 123 12 143T60 163Q89 163 103 148T117 108Q117 97 114 88T107 68Q102 57 100 50T97 36Q97 25 107 17T140 9Q179 9 214 33T277 96T327 184T359 285H355Q331 256 294 243T221 229Q179 229 149 243T100 281T72 333T63 390Q63 439 80 489T133 579T221 645T344
670Q397 670 434 651T494 600T527 531T538 455Q538 378 521 314T473 197T403 106T319 40T229 0T140 -14Q99 -14 71 -4T25 21T1 54T-7 89Z" />
<glyph unicode=":" glyph-name="colon" horiz-adv-x="230" d="M218 379Q218 351 200 333T154 315Q127 315 109 333T91 379Q91 406 109 424T154 443Q182 443 200 425T218 379ZM128 50Q128 22 110 4T64 -14Q36 -14 19 4T1 50Q1 77 19 95T64 114Q91 114 109 96T128 50Z" />
<glyph unicode=";" glyph-name="semicolon" horiz-adv-x="238" d="M131 44Q131 14 115 -13T71 -64T11 -104T-57 -131L-62 -117Q-46 -112 -25 -102T14 -79T45 -54T58 -29Q58 -19 51 -15Q28 -11 12 7T-5 49Q-5 81 16 99T64 117Q93 117 112 98T131 44ZM215 379Q215
351 197 333T151 315Q124 315 106 333T88 379Q88 406 106 424T151 443Q179 443 197 425T215 379Z" />
<glyph unicode="&lt;" glyph-name="less" horiz-adv-x="380" d="M34 251V273L330 424V402L53 262L330 122V100L34 251Z" />
<glyph unicode="=" glyph-name="equal" horiz-adv-x="434" d="M45 335V355H379V335H45ZM45 162V182H379V162H45Z" />
<glyph unicode="&gt;" glyph-name="greater" horiz-adv-x="373" d="M45 100V122L323 262L45 402V424L341 273V251L45 100Z" />
<glyph unicode="?" glyph-name="question" horiz-adv-x="431" d="M467 526Q467 481 452 447T411 387T347 341T266 305Q231 292 205 282T161 261T134 237T125 207Q125 187 138 177T171 167Q202 167 219 180T248 206L257 198Q243 175 216 155T147 135Q100 135 69
165T38 244Q38 278 53 302T93 345T154 377T228 405Q273 420 301 435T345 466T367 502T373 543Q373 591 347 620T262 649Q209 649 177 619T144 541Q144 503 163 484T206 465Q216 465 225 471T236 485Q225 490 213 502T200 535Q200 558 214 573T252 589Q275 589 289
575T303 535Q303 519 294 503T268 473T228 452T178 443Q138 443 112 467T86 529Q86 559 101 585T144 629T207 659T286 670Q329 670 363 659T420 629T455 583T467 526ZM167 44Q167 20 150 3T108 -15Q82 -15 66 2T49 44Q49 68 65 85T108 102Q133 102 150 85T167 44Z"
/>
<glyph unicode="@" glyph-name="at" horiz-adv-x="760" d="M732 267Q732 210 711 159T655 70T575 9T480 -14Q453 -14 431 2T409 55Q409 66 411 79T417 105H413Q401 82 390 64T364 32Q341 9 319 -2T270 -14Q250 -14 233 -7T202 15T182 53T174 111Q174 157 194 207T249
300T329 369T423 396Q452 396 466 381T483 343H490Q496 355 501 366T512 388H608Q596 351 583 308T551 208Q530 145 521 111T512 59Q512 32 534 32Q564 32 595 50T653 99T697 174T714 267Q714 329 695 379T638 463T547 516T425 535Q346 535 279 506T163 426T87
306T59 155Q59 77 82 18T149 -80T252 -140T385 -161Q431 -161 472 -154T550 -136T617 -110T672 -82L679 -97Q657 -111 626 -125T556 -150T474 -169T384 -177Q301 -177 233 -154T116 -89T40 15T13 154Q13 251 48 325T142 450T273 526T424 552Q500 552 557 531T654
472T712 382T732 267ZM467 317Q467 344 459 360T433 377Q414 377 397 362T359 312Q342 284 329 251T306 185T291 125T285 81Q285 54 293 42T315 30Q338 30 368 68Q386 91 398 112T422 160Q444 211 455 248T467 317Z" />
<glyph unicode="A" glyph-name="A" horiz-adv-x="609" d="M206 273H365L428 525H423L206 273ZM360 249H185L95 143Q79 124 70 106T60 68Q60 54 66 43T84 25Q97 19 109 16T138 11L135 0H-124L-121 11Q-99 14 -78 24Q-42 41 -8 73T54 137L506 657H597L483 199Q472
153 466 123T460 75Q460 52 469 40T495 21Q506 16 517 14T537 11L534 0H211L214 11Q223 12 232 14T249 18Q283 30 301 60Q315 83 326 118T349 203L360 249Z" />
<glyph unicode="B" glyph-name="B" horiz-adv-x="630" d="M602 522Q602 485 587 457T546 407T483 373T404 353L403 350Q441 345 473 332T528 300T565 256T579 201Q579 160 560 124T507 60T424 16T317 0H-57L-55 11Q-46 12 -35 14T-15 18Q2 23 16 33T40 60Q55 83
66 118T90 203L154 462Q165 508 171 536T177 582Q177 605 168 617T141 637Q130 641 119 643T100 646L102 657H385Q434 657 474 650T543 626T586 584T602 522ZM441 247Q441 266 435 283T415 312T379 332T322 339H258L216 169Q208 135 204 116T200 80Q200 52 213
39Q221 30 235 27T268 23H287Q323 23 351 39T400 86T430 157T441 247ZM480 550Q480 589 461 611T398 634H377Q370 634 363 633T349 628Q335 622 328 606T314 564L264 362H337Q370 362 394 373T436 402Q480 453 480 550Z" />
<glyph unicode="C" glyph-name="C" horiz-adv-x="580" d="M559 412H547Q551 533 514 590T415 647Q377 647 349 629T297 584Q278 564 255 522T210 424T175 305T161 177Q161 92 203 50Q218 36 237 30T277 24Q319 24 356 41T425 86T481 149T523 219L539 210Q521 169
494 129T430 58T351 6T260 -14Q198 -14 154 7T81 63T39 143T26 236Q26 326 57 405T141 543T264 636T415 670Q445 670 468 664T508 648T538 626T557 602H561L608 647H620L559 412Z" />
<glyph unicode="D" glyph-name="D" horiz-adv-x="688" d="M674 407Q674 353 662 304T627 211T572 131T501 68Q459 39 405 20T289 0H-57L-55 11Q-46 12 -34 14T-14 18Q21 29 41 60Q55 83 66 118T90 203L155 462Q166 508 171 536T177 582Q177 605 168 617T142 637Q131
641 120 643T100 646L103 657H412Q479 657 528 636T610 581T658 501T674 407ZM535 471Q535 508 527 545T502 602Q485 620 462 627T407 634H379Q347 634 335 614T314 559L217 169Q208 135 204 116T200 80Q200 54 213 39Q229 23 265 23H287Q316 23 352 38T424 95Q445
120 464 158T500 244T525 349T535 471Z" />
<glyph unicode="E" glyph-name="E" horiz-adv-x="601" d="M586 451H574Q568 489 555 524T524 585Q510 604 488 619T427 634H400Q358 634 340 611T310 545L262 352H290Q333 352 355 359T394 381Q417 400 435 428T461 481H472L401 197H390Q391 209 391 223T390 252T384
278T374 300Q365 312 346 320T287 329H257L217 169Q208 133 204 111T202 73Q204 44 221 34T269 23H296Q333 23 366 40T428 82Q470 118 500 156T546 221H558L489 0H-57L-55 11Q-46 12 -35 14T-15 18Q21 29 40 60Q55 83 66 118T90 203L154 462Q165 508 171 536T177
582Q177 605 168 617T142 637Q131 642 120 643T100 646L102 657H593L586 451Z" />
<glyph unicode="F" glyph-name="F" horiz-adv-x="561" d="M589 439H577Q574 456 569 475T556 512T541 548T524 578Q507 603 485 618T429 634H397Q329 634 307 545L262 365H293Q336 365 358 371T398 393Q421 413 439 441T465 494H476L405 209H393Q394 221 394 235T393
264T388 291T378 313Q369 325 350 333T291 342H257L221 199Q210 153 204 123T198 75Q198 52 207 40T234 20Q245 15 256 14T276 11L273 0H-57L-55 11Q-46 12 -36 14T-18 18Q-1 24 13 33T37 60Q52 83 63 118T87 203L151 462Q162 508 168 536T174 582Q174 605 165
617T138 637Q127 641 116 643T97 646L100 657H598L589 439Z" />
<glyph unicode="G" glyph-name="G" horiz-adv-x="628" d="M641 288Q624 287 609 282Q595 277 584 270T563 249Q551 233 543 212T526 156L492 16H483Q478 20 469 25T447 30Q436 30 418 24T385 11Q364 1 333 -6T272 -14Q210 -14 164 7T87 63T40 143T24 237Q24 325
55 404T140 542T265 635T417 670Q479 670 515 649T566 603H571L615 647H627L568 416H556Q558 476 549 519T522 591T477 634T420 648Q375 648 349 631T296 583Q278 564 255 522T210 423T175 302T160 172Q160 132 167 101T198 44Q214 28 236 20T279 12Q310 12 330
19T363 42Q376 57 384 77T397 121L408 166Q413 188 415 203T417 229Q417 248 410 258T389 276Q372 285 347 288L349 298H644L641 288Z" />
<glyph unicode="H" glyph-name="H" horiz-adv-x="733" d="M804 646Q795 645 784 643T764 639Q747 634 733 624T707 597Q693 574 682 539T659 454L596 199Q585 153 579 123T573 75Q573 52 582 40T609 21Q620 16 631 14T650 11L648 0H325L327 11Q336 12 345 14T361
18Q378 24 391 33T414 59Q428 82 438 117T462 202L491 319H254L223 197Q212 151 206 121T200 74Q200 51 208 40T233 20Q241 16 250 14T267 11L265 0H-57L-55 11Q-46 12 -35 14T-15 18Q2 24 16 34T40 60Q55 83 66 118T90 203L153 458Q164 504 170 534T176 582Q176
605 167 617T141 637Q130 641 119 643T99 646L101 657H424L421 646Q413 645 405 643L389 639Q372 633 359 623T334 597Q320 574 310 540T287 455L260 346H498L526 460Q537 506 543 535T549 583Q549 603 541 616T516 637Q507 642 499 643T482 646L484 657H807L804
646Z" />
<glyph unicode="I" glyph-name="I" horiz-adv-x="361" d="M432 646Q423 645 411 643T391 639Q374 634 360 624T335 597Q321 574 310 539T287 454L224 198Q213 152 207 122T201 75Q201 52 210 40T236 20Q247 15 258 14T278 11L275 0H-57L-55 11Q-46 12 -35 14T-15
18Q2 23 16 33T40 60Q55 83 66 118T90 203L153 459Q164 504 170 534T176 582Q176 605 167 617T141 637Q130 642 119 643T99 646L102 657H434L432 646Z" />
<glyph unicode="J" glyph-name="J" horiz-adv-x="448" d="M535 646Q526 645 515 643T495 639Q478 634 464 623T439 596Q424 573 414 538T390 454L323 182Q314 143 294 108T242 45T170 2T78 -14Q42 -14 14 -4T-32 23T-61 62T-71 109Q-71 147 -49 170T8 193Q39 193
60 173T81 120Q81 97 72 84T58 63Q51 55 44 47T36 32Q36 21 48 14T72 7Q92 7 106 13T135 35Q152 55 161 83T179 146L256 458Q267 504 273 534T279 582Q279 605 270 617T244 637Q233 641 222 643T203 646L205 657H538L535 646Z" />
<glyph unicode="K" glyph-name="K" horiz-adv-x="665" d="M506 -14Q472 -14 450 -1T415 34T395 86T386 148Q384 175 384 193T383 224V249Q383 261 382 274Q380 310 364 323T325 336Q305 336 286 324T247 295L224 199Q213 153 207 122T200 74Q200 51 208 40T233
20Q241 16 252 14T272 11L269 0H-57L-55 11Q-46 12 -35 14T-15 18Q19 29 40 60Q54 83 65 118T90 203L153 458Q164 504 170 534T176 582Q176 605 168 617T142 637Q131 641 119 643T99 646L101 657H429L426 646Q418 645 408 643T389 639Q372 633 359 623T334 597Q320
574 310 539T286 454L255 327L467 507Q500 536 522 559T545 606Q545 629 522 639Q514 643 505 644T485 646L488 657H737L734 646Q717 644 695 637T652 619Q626 606 593 582T512 516L327 362V357Q338 363 354 367T386 371Q416 371 440 362T482 331T511 275T525 189Q528
148 531 120T541 74T556 48T580 40Q600 40 616 58T640 96L653 92Q646 72 634 53T604 19T562 -5T506 -14Z" />
<glyph unicode="L" glyph-name="L" horiz-adv-x="560" d="M-55 11Q-46 12 -35 14T-15 19Q21 30 40 60Q55 83 66 118T90 203L153 459Q164 504 170 534T176 582Q176 605 167 617T141 637Q130 642 119 643T99 646L102 657H433L430 646Q421 645 409 643T388 637Q374
632 359 622T334 597Q320 574 310 539T287 454L216 170Q208 138 204 116T199 78Q199 53 212 40Q228 23 268 23H289Q326 23 358 40T420 82Q462 118 493 155T539 218H550L481 0H-57L-55 11Z" />
<glyph unicode="M" glyph-name="M" horiz-adv-x="839" d="M271 -4L216 569H212L113 172Q106 145 103 118T99 77Q99 51 109 37T137 17Q145 15 155 14T176 11L173 0H-55L-52 11Q-44 12 -34 13T-16 17Q13 25 36 54Q47 68 61 97T87 174L160 464Q166 487 170 504T176
534T180 559T181 581Q181 601 172 616T141 639Q134 641 123 643T104 646L106 657H341L387 187H392L673 657H909L906 646Q897 645 886 643T866 639Q849 634 835 624T809 597Q795 574 784 539T761 454L698 198Q676 110 676 77Q676 34 711 20Q722 15 733 14T752 11L749
0H427L430 11Q439 12 448 14T465 18Q481 24 494 33T517 59Q531 82 541 117T564 201L654 569H648L312 -4H271Z" />
<glyph unicode="N" glyph-name="N" horiz-adv-x="649" d="M719 646Q712 645 704 644T688 640Q674 635 662 628T638 604Q629 592 618 565T592 484L470 -8H442L204 525H199L111 172Q103 143 100 118T97 78Q97 52 107 37T135 17Q143 15 153 14T174 11L171 0H-57L-55
11Q-47 12 -37 13T-19 17Q9 24 33 54Q44 68 58 97T83 174L156 462Q162 484 165 499T171 527T174 549T175 571Q175 592 161 611T125 638Q117 641 106 643T87 646L89 657H302L495 214H498L563 477Q572 512 576 538T580 578Q580 603 568 617T538 639Q531 642 521 643T499
646L501 657H722L719 646Z" />
<glyph unicode="O" glyph-name="O" horiz-adv-x="643" d="M630 414Q630 367 620 318T589 223T538 136T470 65Q424 28 371 7T257 -14Q207 -14 165 3T92 54T44 134T26 243Q26 289 36 338T67 434T118 521T187 592Q232 628 285 649T398 670Q448 670 490 653T564 602T612
522T630 414ZM497 506Q497 579 471 613T399 648Q365 648 337 629T288 582Q272 562 250 517T208 412T174 285T160 150Q160 77 186 43T258 8Q292 8 320 27T368 75Q384 95 406 140T448 244T483 372T497 506Z" />
<glyph unicode="P" glyph-name="P" horiz-adv-x="580" d="M613 510Q613 483 604 458T579 410T540 368T490 335Q460 321 416 311T301 301H247L221 198Q199 110 199 76Q199 53 208 41T234 20Q245 16 257 14T277 11L274 0H-57L-55 11Q-46 12 -36 14T-18 18Q-1 23
13 33T37 60Q52 83 63 118T87 203L151 462Q162 508 168 536T174 583Q174 605 165 617T139 637Q128 642 117 644T97 647L100 657H408Q465 657 504 646T568 614T602 568T613 510ZM478 554Q478 590 460 612T401 634H376Q362 634 352 631T332 616Q325 608 321 595T311
559L252 324H305Q349 324 375 337T419 371Q432 386 443 407T461 454T473 505T478 554Z" />
<glyph unicode="Q" glyph-name="Q" horiz-adv-x="644" d="M541 -282Q512 -282 486 -275T432 -254T374 -218T309 -170Q279 -146 255 -127T210 -96T169 -76T123 -69Q111 -69 95 -76T79 -94Q79 -100 86 -107T98 -120Q105 -127 109 -136T114 -163Q114 -190 97 -204T57
-218Q33 -218 16 -203T-2 -156Q-2 -127 17 -106T61 -70T110 -47T143 -35Q162 -29 184 -22T230 -7V-4Q137 5 82 70T27 249Q27 295 38 344T71 439T123 526T193 597Q286 670 402 670Q454 670 496 652T569 600T615 518T631 411Q631 367 621 321T592 231T545 148T480
80Q411 25 340 3Q325 -2 303 -8T255 -21L205 -36Q180 -44 160 -51V-53Q211 -53 249 -57T319 -70T379 -89T440 -116Q489 -136 529 -149T611 -163Q660 -163 689 -135T734 -70L747 -76Q735 -118 715 -159T668 -229Q650 -250 617 -266T541 -282ZM497 507Q497 576 472
612T401 648Q367 648 339 629T291 581Q275 561 253 518T211 417T176 292T161 159Q161 90 189 53T263 16Q296 16 322 35T369 82Q385 102 407 146T449 248T483 373T497 507Z" />
<glyph unicode="R" glyph-name="R" horiz-adv-x="649" d="M500 -13Q466 -13 443 -2T405 29T383 78T376 141Q375 186 374 220T362 281Q353 301 339 311T290 322H251L221 198Q210 153 204 123T198 75Q198 53 207 41T234 21Q245 16 257 14T278 11L276 0H-57L-55 11Q-46
12 -36 14T-18 18Q-1 23 13 33T37 60Q52 83 63 118T87 203L151 462Q162 508 168 536T174 583Q174 605 165 617T138 637Q127 642 116 644T97 647L99 657H403Q459 657 498 648T561 620T596 577T607 522Q607 468 573 427T482 359Q463 351 440 345T383 333L382 329Q409
325 425 318T459 299Q482 282 497 252T516 177Q519 136 522 110T532 67T546 45T568 38Q588 38 604 56T630 96L643 91Q635 71 623 53T594 20T553 -4T500 -13ZM474 555Q474 591 458 612T406 634H378Q365 634 355 631T336 620Q323 605 312 564L257 345H306Q350 345
376 353T422 384Q434 398 443 419T460 463T470 511T474 555Z" />
<glyph unicode="S" glyph-name="S" horiz-adv-x="517" d="M476 449H463Q462 493 452 535T425 603Q411 623 390 636T329 649Q281 649 253 622T225 548Q225 525 232 506T253 471T282 439T317 409Q352 380 379 357T424 309T451 258T461 194Q461 147 442 109T389 44T313
1T221 -14Q169 -14 127 7T61 63H56L2 3H-8L45 246H58Q62 192 73 148T103 73T152 25T222 8Q282 8 314 40T347 121Q347 144 340 163T318 200T281 239T227 285Q203 306 182 326T146 368T121 417T112 479Q112 516 126 550T168 612T236 655T330 671Q382 671 417 651T467
609H469L508 655H520L476 449Z" />
<glyph unicode="T" glyph-name="T" horiz-adv-x="604" d="M640 449H627Q622 485 611 519T576 583Q532 634 465 634H443L335 199Q313 110 313 75Q313 52 322 40T348 20Q359 15 370 14T389 11L386 0H54L57 11Q66 12 77 14T97 18Q132 29 152 60Q166 83 177 118T201
203L308 634H284Q250 634 219 621T160 584Q128 556 100 521T45 449H33L102 657H667L640 449Z" />
<glyph unicode="U" glyph-name="U" horiz-adv-x="661" d="M738 646Q731 645 723 644T707 640Q693 635 681 628T658 604Q648 592 636 561T610 476L544 214Q530 158 510 116T458 45T385 1T285 -14Q179 -14 124 34T68 174Q68 183 70 198T75 230T81 266T89 299L128
459Q139 504 145 534T151 583Q151 605 142 617T116 637Q105 642 94 643T74 646L77 657H401L398 646Q390 645 381 644T364 639Q347 633 334 623T309 597Q296 577 286 544T264 461L205 218Q194 171 194 124Q194 75 223 46T308 16Q354 16 388 30T447 69T488 132T517
215L582 475Q591 510 595 536T599 577Q599 602 587 617T557 639Q549 642 539 643T518 646L520 657H741L738 646Z" />
<glyph unicode="V" glyph-name="V" horiz-adv-x="607" d="M747 646Q736 644 723 641T699 632Q663 615 632 586T569 520L123 0H26L140 458Q151 504 157 534T163 582Q163 605 154 617T127 637Q116 641 105 643T86 646L89 657H413L410 646Q401 645 392 643T374 639Q358
633 345 624T322 597Q308 574 297 539T274 454L194 125H199L532 514Q549 534 558 552T568 589Q568 603 561 614T541 632Q529 638 518 641T490 646L492 657H749L747 646Z" />
<glyph unicode="W" glyph-name="W" horiz-adv-x="938" d="M383 0L497 458H494L105 0H17L131 459Q142 504 148 534T154 582Q154 605 145 617T118 637Q107 642 96 643T77 646L80 657H403L400 646Q391 645 382 643T365 639Q348 633 336 624T313 598Q299 575 288 539T265
455L190 143H196L507 510Q511 530 514 550T518 582Q518 605 509 617T483 637Q472 642 463 643T445 646L448 657H767L764 646Q755 645 746 643T729 639Q712 633 700 624T677 598Q663 575 652 539T629 455L556 143H562L868 514Q886 535 895 553T904 589Q904 619 878
632Q865 639 854 641T826 646L828 657H1086L1084 646Q1073 644 1060 641T1036 632Q1000 615 968 585T905 518L473 0H383Z" />
<glyph unicode="X" glyph-name="X" horiz-adv-x="607" d="M261 273L152 154Q118 117 104 96T90 54Q90 43 95 34T112 19Q120 15 128 14T143 11L141 0H-78L-76 11Q-59 13 -41 21Q-27 28 -16 34T3 47Q27 64 58 94T119 156L253 300L187 516Q179 544 171 563T154 595Q143
611 134 619T109 636Q100 641 89 643T70 646L72 657H397L393 646Q376 644 361 640Q336 632 328 620T319 585Q319 574 322 557T334 508L368 401L462 508Q478 526 489 539T507 564T517 584T520 604Q520 614 514 623T497 639Q489 642 481 643T466 646L468 657H691L688
646Q671 644 653 636Q638 630 627 624T607 611Q596 604 581 592T550 563L519 532Q504 517 493 504L377 375L445 143Q454 114 462 96T479 63Q490 46 499 38T523 22Q533 17 543 15T563 11L560 0H234L237 11Q246 12 256 13T274 17Q297 25 306 38T315 73Q315 84 312
101T299 149L261 273Z" />
<glyph unicode="Y" glyph-name="Y" horiz-adv-x="547" d="M676 646Q665 644 652 641T627 632Q614 626 601 618T571 594T536 556T491 498L335 278L316 199Q305 153 299 123T293 75Q293 52 302 40T328 21Q339 16 350 14T370 11L367 0H35L37 11Q46 12 57 14T77 18Q94
23 108 33T132 60Q147 83 159 119T182 203L199 277L124 553Q110 604 87 622T32 646L34 657H339L336 646Q328 645 316 643T295 637Q284 632 274 623T264 593Q264 578 269 559T279 518L330 321H335L469 507Q494 542 504 565T515 606Q515 618 509 626T492 639Q485
642 478 643T462 646L464 657H679L676 646Z" />
<glyph unicode="Z" glyph-name="Z" horiz-adv-x="556" d="M610 646L121 22H185Q239 22 283 35T366 77Q420 114 451 148T507 212H518L438 0H-55L-53 11L437 634H361Q317 634 277 622T194 582Q163 562 132 530T72 466H61L139 657H612L610 646Z" />
<glyph unicode="[" glyph-name="bracketleft" horiz-adv-x="397" d="M481 652Q481 604 450 572T364 538Q340 538 316 545T271 565T232 594T205 628L29 -75Q66 -33 115 -10T212 14Q309 15 309 -62Q309 -80 302 -96T285 -124T265 -144T249 -156L238 -153Q243 -145
247 -135T252 -115Q252 -92 236 -79T185 -65Q137 -65 86 -78T-13 -113L181 664Q200 654 224 647T275 634T328 626T379 623Q410 624 429 641T448 686Q448 696 444 708H457Q462 702 471 688T481 652Z" />
<glyph unicode="\" glyph-name="backslash" horiz-adv-x="285" d="M243 -100L44 679L72 686L271 -92L243 -100Z" />
<glyph unicode="]" glyph-name="bracketright" horiz-adv-x="403" d="M218 -113Q199 -103 175 -96T125 -83T72 -75T21 -72Q-10 -73 -29 -90T-49 -135Q-49 -145 -45 -156H-57Q-63 -151 -72 -137T-81 -101Q-81 -53 -50 -21T35 13Q59 13 83 6T129 -14T168 -43T194
-77L370 626Q333 584 284 561T187 537Q140 536 116 555T91 613Q91 631 98 647T115 675T134 695T150 708L161 704Q156 696 152 686T148 666Q148 643 164 630T215 616Q263 616 314 629T413 664L218 -113Z" />
<glyph unicode="^" glyph-name="asciicircum" horiz-adv-x="353" d="M199 657H222L348 409H324L210 636L96 409H73L199 657Z" />
<glyph unicode="_" glyph-name="underscore" horiz-adv-x="312" d="M-88 -162L-82 -137H226L219 -162H-88Z" />
<glyph unicode="`" glyph-name="grave" horiz-adv-x="379" d="M203 669Q223 669 237 660T269 627Q289 604 309 577T360 510L354 502Q325 513 293 527L229 555Q201 567 181 585T161 624Q161 644 173 656T203 669Z" />
<glyph unicode="a" glyph-name="a" horiz-adv-x="493" d="M322 361Q322 422 287 422Q268 422 251 408T212 358Q195 330 179 291T151 213T131 140T123 87Q123 58 131 48T153 37Q167 37 180 47T208 75Q225 96 235 113T258 156Q270 182 281 211T302 268T316 320T322
361ZM361 66Q361 43 379 43Q391 43 404 50T430 70T457 99T481 132L493 125Q478 99 459 75T416 33T366 3T311 -9Q285 -9 267 7T249 58Q249 69 252 84T258 111H254Q241 87 230 72T203 39Q158 -9 107 -9Q87 -9 69 -3T37 18T15 57T7 116Q7 167 30 224T92 330T178 411T278
443Q308 443 323 428T343 389H347Q353 401 358 411T370 433H470Q458 395 441 342T404 231Q383 168 372 126T361 66Z" />
<glyph unicode="b" glyph-name="b" horiz-adv-x="460" d="M442 301Q442 276 435 246T416 186T388 127T351 77Q310 35 263 13T158 -9Q120 -9 93 3T49 34T23 77T15 126Q15 149 21 184T42 263L143 568Q151 591 154 605T158 630Q158 652 147 662Q142 667 132 669T109
674L112 684H293Q299 684 299 679Q299 675 295 666T285 642Q281 632 278 624T272 606T264 584T255 556L195 369H201Q225 407 257 425T321 443Q375 443 408 408T442 301ZM327 358Q327 413 289 413Q273 413 260 405T233 382Q217 366 206 348T183 306Q171 281 160
249T139 185T125 125T119 78Q119 9 159 9Q190 9 214 33T260 106Q269 126 280 156T302 221T320 291T327 358Z" />
<glyph unicode="c" glyph-name="c" horiz-adv-x="399" d="M401 357Q401 334 388 318T348 301Q325 301 313 314T300 348Q300 355 302 363T306 377Q308 385 310 392T313 405Q313 424 288 424Q268 424 249 409T212 365Q196 339 182 307T158 241T141 173T135 109Q135
71 151 51T199 30Q222 30 243 40T282 65T315 98T341 132L353 124Q337 97 316 73T269 30T211 2T141 -9Q111 -9 87 2T47 34T22 81T13 140Q13 176 22 210T48 274T86 330T131 376Q171 410 214 426T290 443Q342 443 371 419T401 357Z" />
<glyph unicode="d" glyph-name="d" horiz-adv-x="504" d="M325 367Q322 423 287 423Q267 423 249 409T211 359Q194 331 179 292T150 213T130 139T122 88Q122 60 131 49T152 37Q166 37 179 47T207 74Q224 96 235 114T258 157Q270 184 282 214T303 273T318 326T325
367ZM254 113Q241 89 230 73T203 39Q180 15 155 3T105 -9Q63 -9 35 21T6 118Q6 171 30 228T95 333T184 412T285 443Q310 443 323 432T342 406H346L399 568Q407 591 410 605T414 630Q414 652 403 662Q398 667 387 669T364 674L368 684H548Q554 684 554 679Q554 675
550 666T541 642Q537 632 534 624T527 606T519 584T510 556Q504 538 497 515T481 465T463 412T446 359Q427 298 407 234Q388 175 377 131T365 64Q365 44 381 44Q393 44 406 51T432 71T458 99T482 133L495 126Q480 100 460 76T417 33T368 3T313 -9Q287 -9 268 7T248
59Q248 70 251 86T257 113H254Z" />
<glyph unicode="e" glyph-name="e" horiz-adv-x="391" d="M351 125Q336 99 316 75T270 32T212 2T141 -9Q82 -9 47 33T12 144Q12 219 48 278T138 381Q176 411 214 427T283 443Q341 443 365 421T389 364Q389 343 378 324T346 288Q333 277 312 265T263 241T206 219T145
199Q140 172 137 145T134 93Q134 61 147 43T185 24Q214 24 238 35T281 62T314 97T339 132L351 125ZM149 218Q181 229 211 244T259 276Q270 286 278 300T292 330T300 359T303 385Q303 402 298 413T278 424Q258 424 239 408T202 363T172 297T149 218Z" />
<glyph unicode="f" glyph-name="f" horiz-adv-x="282" d="M241 408Q222 335 200 261T152 117T95 -11T28 -115T-53 -184T-148 -210Q-190 -210 -222 -191T-254 -130Q-254 -103 -239 -91T-206 -79Q-182 -79 -171 -91T-158 -121Q-157 -135 -159 -147T-160 -170Q-159
-181 -153 -186T-135 -191Q-110 -191 -92 -178T-57 -139Q-17 -77 18 55T102 381Q106 394 109 408H36L43 433H116Q136 505 163 553T223 631T290 674T360 687Q414 687 444 666T474 612Q474 591 461 578T425 564Q379 564 377 608Q376 618 378 630T380 652Q380 670
358 670Q347 670 334 663T312 638Q305 624 298 606T284 564T267 507T247 433H343L336 408H241Z" />
<glyph unicode="g" glyph-name="g" horiz-adv-x="426" d="M128 -213Q86 -213 50 -206T-13 -186T-55 -152T-70 -104Q-70 -88 -60 -73T-31 -46T12 -25T68 -13V-10Q34 1 18 24T1 77Q1 97 10 113T34 141T68 161T109 173Q82 190 67 219T51 283Q51 322 68 351T111 401T171
432T238 443Q274 443 301 429T345 392H348Q353 420 375 437T427 454Q453 454 468 440T484 404Q484 381 472 372T445 362Q431 362 422 369T404 389Q397 399 393 406T380 413Q374 413 368 404T361 377Q361 369 363 362T368 347Q370 339 372 329T374 310Q374 271 358
242T314 192T254 162T188 151Q168 151 153 155T127 163Q107 159 95 150T82 127Q82 107 108 100T189 83Q239 75 274 65T332 40T364 4T374 -48Q374 -87 355 -118T302 -170T224 -202T128 -213ZM131 -195Q164 -195 193 -189T245 -170T279 -141T292 -101Q292 -74 265
-61T172 -35Q156 -32 136 -28L96 -20Q80 -23 63 -28T32 -44T8 -70T-1 -109Q-1 -153 33 -174T131 -195ZM237 425Q200 425 178 376Q172 361 166 343T156 304T149 265T146 231Q146 203 155 186T188 169Q226 169 248 217Q254 232 260 251T270 290T276 329T279 363Q279
391 270 408T237 425Z" />
<glyph unicode="h" glyph-name="h" horiz-adv-x="514" d="M-15 0Q-14 4 -1 43T31 139T72 264T114 394T150 503T172 568Q180 591 183 605T187 630Q187 653 177 662Q172 667 161 669T138 674L141 684H321Q326 684 326 679Q326 675 322 666T313 642Q309 632 306 624T300
606T292 584T283 556L194 280H200Q249 370 298 406T388 443Q427 443 444 422T462 366Q462 336 450 300T416 205Q407 181 399 159T385 117T376 84T372 62Q372 43 386 43Q396 43 409 50T437 70T465 98T490 133L502 125Q487 99 466 75T420 33T367 3T310 -9Q282 -9
265 7T248 53Q248 66 253 86T266 129T284 179T303 231Q323 282 336 318T349 372Q349 385 344 389T330 394Q318 394 300 381T260 340T213 266T162 156Q156 140 149 121T134 80T119 39T105 0H-15Z" />
<glyph unicode="i" glyph-name="i" horiz-adv-x="290" d="M291 589Q291 560 272 544T228 527Q203 527 184 544T165 589Q165 616 184 634T228 653Q252 653 271 636T291 589ZM125 371Q125 395 106 395Q94 395 73 377T22 311L9 318Q45 383 92 413T180 443Q210 443
225 426T241 378Q241 358 228 315T196 219Q187 193 179 168T164 121T154 85T150 62Q150 43 164 43Q174 43 187 50T215 70T242 98T267 133L279 125Q264 99 243 75T198 32T145 2T88 -10Q60 -10 44 7T27 53Q27 66 32 86T45 131T62 180T81 230Q88 251 96 272T110 312T121
346T125 371Z" />
<glyph unicode="j" glyph-name="j" horiz-adv-x="256" d="M300 591Q300 562 281 545T237 528Q212 528 193 546T174 591Q174 618 193 636T237 654Q261 654 280 637T300 591ZM178 143Q154 76 136 30T101 -48T70 -103T37 -143Q8 -173 -31 -193T-116 -213Q-163 -213
-195 -189T-228 -124Q-228 -98 -212 -80T-170 -62Q-140 -62 -126 -79T-112 -117Q-112 -130 -115 -139T-122 -157Q-125 -163 -127 -169T-130 -178Q-130 -185 -125 -189T-112 -193Q-94 -193 -80 -184T-50 -150Q-43 -140 -34 -117T-13 -65T10 -2T32 63T52 120T66 163Q76
191 87 224T108 288T124 340T130 371Q130 394 110 394Q98 394 77 376T26 311L13 318Q49 383 96 413T184 443Q216 443 232 426T248 378Q248 366 241 339T224 277T201 207T178 143Z" />
<glyph unicode="k" glyph-name="k" horiz-adv-x="499" d="M316 -9Q289 -9 271 8T253 51Q253 77 260 104T272 151Q276 163 278 175T281 198Q281 226 268 237T224 248H186L106 0H-14L173 568Q181 591 184 605T188 630Q188 652 177 662Q172 667 161 669T138 674L142
684H325Q330 684 330 679Q330 675 327 666T318 642Q314 632 311 624T305 607T297 585T287 556L192 266H233Q254 266 270 274T298 293T318 317T333 341Q345 366 356 384T381 417Q407 443 441 443Q471 443 488 424T506 375Q506 345 490 328T454 311Q434 311 420 322T406
357Q406 360 407 368T412 383Q414 390 416 395T419 403Q419 410 411 410Q396 410 382 388T348 329Q334 304 317 286T275 259V255Q330 246 355 219T382 150Q382 143 381 131T377 105Q374 88 373 79T373 63Q374 42 391 42Q408 42 434 66T483 126L495 118Q481 94 462
71T419 31T369 2T316 -9Z" />
<glyph unicode="l" glyph-name="l" horiz-adv-x="279" d="M177 219Q157 161 143 119T129 62Q129 43 143 43Q154 43 168 50T197 70T226 98T252 133L265 126Q250 100 229 76T182 33T128 3T69 -9Q40 -9 24 8T7 54Q7 67 13 89T27 137T46 189T64 239Q69 254 78 281T99
340T122 408T145 474T164 531T177 568Q183 584 188 601T193 630Q193 652 182 662Q177 667 166 669T143 674L146 684H330Q335 684 335 679Q335 675 331 666T322 642Q318 632 315 624T309 605T302 584T292 556Q268 487 248 429T213 326T189 254T177 219Z" />
<glyph unicode="m" glyph-name="m" horiz-adv-x="778" d="M512 53Q512 66 517 86T530 129T548 178T567 230Q587 281 600 317T613 371Q613 383 608 387T594 392Q582 392 561 373T514 317T461 227T408 107Q407 103 403 89T392 58T381 25T373 0H250Q264 45 277 85T300
156T317 207T326 232Q343 283 355 319T368 371Q368 383 363 387T349 392Q338 392 320 378T280 334T233 255T181 138Q177 129 171 113T158 78T144 39T131 0H13Q23 33 36 72L84 217Q95 249 101 266Q113 302 118 326T123 368Q123 396 103 396Q91 396 69 377T18 311L5
318Q40 383 83 413T167 443Q200 443 215 426T230 378Q230 355 225 325T210 259H217Q242 311 267 346T317 402T365 433T410 443Q449 443 464 422T479 365Q479 349 473 323T455 259H460Q512 360 560 401T650 443Q689 443 707 422T726 365Q726 336 714 300T680 205Q671
181 663 159T649 117T640 84T636 62Q636 43 649 43Q659 43 672 50T700 70T729 98T754 133L766 125Q751 99 730 75T684 33T631 3T574 -9Q546 -9 529 7T512 53Z" />
<glyph unicode="n" glyph-name="n" horiz-adv-x="537" d="M525 125Q510 99 489 75T442 33T389 3T332 -9Q304 -9 287 7T270 53Q270 66 275 86T288 129T307 178T326 230Q345 281 358 317T372 370Q372 383 367 387T353 392Q341 392 323 378T282 333T233 254T180 138Q154
73 130 0H12Q22 33 35 72T61 148T84 217T101 266Q112 302 117 326T123 368Q123 396 103 396Q90 396 69 378T18 312L5 319Q40 384 83 413T166 443Q199 443 214 426T230 378Q230 355 224 324T209 256H215Q267 358 317 400T411 443Q450 443 467 422T484 365Q484 336
472 299T438 204Q420 156 407 116T394 62Q394 43 408 43Q418 43 431 50T459 70T487 98T512 133L525 125Z" />
<glyph unicode="o" glyph-name="o" horiz-adv-x="437" d="M160 -9Q91 -9 52 35T12 153Q12 215 36 275T105 377Q137 408 179 425T268 443Q337 443 376 398T415 277Q415 217 391 158T323 57Q291 26 249 9T160 -9ZM269 426Q249 426 233 413T202 372Q189 348 174 309T147
226T126 139T118 65Q118 39 127 24T159 8Q197 8 225 61Q238 85 253 123T280 205T301 291T310 368Q310 426 269 426Z" />
<glyph unicode="p" glyph-name="p" horiz-adv-x="510" d="M231 329Q260 389 298 416T371 443Q395 443 416 437T454 414T481 369T491 297Q491 264 483 231T459 165T423 104T375 53Q343 24 305 8T221 -9Q193 -9 172 -4T140 9Q138 4 134 -9T125 -38T114 -66L108 -86Q102
-103 98 -121T94 -154Q94 -167 99 -178T119 -196Q126 -200 137 -202T160 -207L158 -217H-123L-120 -207Q-104 -205 -90 -201T-65 -189Q-49 -178 -40 -161T-21 -113Q-19 -107 -9 -76T16 -2T46 91T77 184T101 257T112 291Q119 313 123 332T127 366Q127 396 106 396Q94
396 71 375T18 306L5 313Q41 378 85 410T170 443Q202 443 217 425T232 376Q232 368 230 354T226 329H231ZM379 352Q379 410 340 410Q325 410 313 403T288 383Q271 366 255 338T229 281L210 224Q199 191 189 158T168 94T152 43Q160 29 175 21T207 12Q228 12 245
23T279 61Q296 81 313 117T345 194T369 278T379 352Z" />
<glyph unicode="q" glyph-name="q" horiz-adv-x="467" d="M310 -86Q304 -103 300 -121T296 -154Q296 -168 301 -178T321 -196Q329 -201 340 -203L362 -207L359 -217H74L77 -207Q94 -205 110 -200T137 -187Q154 -174 164 -154T185 -104L256 106H252Q239 83 228
68T200 36Q156 -9 107 -9Q65 -9 37 21T8 117Q8 168 32 225T96 330T186 411T288 443Q310 443 326 437T353 420T369 396T377 371H384L462 437H483Q482 434 474 411T454 351T427 270T397 177T366 85T339 3T319 -58T310 -86ZM324 363Q324 422 288 422Q268 422 251 408T213
358Q196 330 181 291T153 213T133 140T125 87Q125 59 133 48T154 36Q168 36 182 46T210 74Q224 94 236 112T259 156Q271 183 283 213T304 271T318 323T324 363Z" />
<glyph unicode="r" glyph-name="r" horiz-adv-x="415" d="M213 255Q234 312 253 348T290 406T328 435T367 443Q399 443 419 425T439 372Q439 341 424 324T386 306Q367 306 353 316T331 352Q326 367 323 374T312 382Q302 382 291 369T264 327T229 250T181 135Q168
103 156 70T131 0H14Q24 33 37 72L85 217Q96 249 102 266Q114 302 118 326T123 368Q123 396 103 396Q90 396 69 377T17 311L5 318Q40 383 83 413T165 443Q198 443 212 426T227 378Q227 352 221 321T206 255H213Z" />
<glyph unicode="s" glyph-name="s" horiz-adv-x="347" d="M341 359Q341 337 329 324T296 310Q277 310 265 321T251 349Q249 365 252 374T252 396Q250 408 240 416T212 425Q183 425 171 408T158 368Q158 343 174 321T222 266Q261 225 282 195T303 130Q303 98 288
72T249 28T194 1T132 -9Q73 -9 35 18T-4 91Q-4 118 10 134T46 150Q66 150 77 139T91 108Q92 88 86 75T80 48Q81 27 98 18T136 8Q169 8 189 26T210 77Q210 89 206 99T192 121T167 148T131 185Q101 217 87 244T72 311Q72 342 84 367T117 408T163 434T218 443Q242
443 264 438T304 422T331 396T341 359Z" />
<glyph unicode="t" glyph-name="t" horiz-adv-x="292" d="M128 61Q128 43 143 43Q154 43 168 50T197 71T226 100T252 134L265 126Q250 100 229 76T182 33T129 3T71 -9Q43 -9 26 7T9 53Q9 66 14 87T27 132T44 181T61 230Q74 263 85 296Q95 324 105 354T123 408H60L67
433H131Q133 440 140 459T154 501T168 545T178 575H293Q290 566 284 545T269 501L255 459Q249 440 247 433H346L338 408H240Q232 383 222 351T200 289Q188 255 175 219Q156 162 142 119T128 61Z" />
<glyph unicode="u" glyph-name="u" horiz-adv-x="541" d="M397 67Q397 41 418 41Q441 41 470 69T522 133L534 125Q519 99 499 75T456 33T407 3T352 -9Q320 -9 303 10T286 64Q286 87 292 113T307 172H300Q273 119 247 84T196 29T148 0T103 -9Q72 -9 53 12T33 68Q33
83 36 99T45 135T59 177T79 229Q97 277 110 316T124 372Q124 396 107 396Q95 396 73 377T22 311L9 319Q45 383 90 413T174 443Q209 443 226 426T244 377Q244 364 240 345T228 303T212 255T193 204Q173 153 161 118T148 65Q148 42 167 42Q179 42 197 56T237 102T286
182T339 299Q352 331 364 364T389 433H506Q495 400 483 361T457 285T433 215L417 166Q406 130 402 108T397 67Z" />
<glyph unicode="v" glyph-name="v" horiz-adv-x="425" d="M76 228Q94 276 107 316T121 372Q121 396 104 396Q91 396 70 377T18 311L5 319Q41 383 86 413T170 443Q205 443 222 424T240 374Q240 348 224 303T188 202Q170 154 158 121T146 71Q146 57 152 47T176 36Q209
36 243 58T305 116T352 196T370 282Q370 302 366 319T351 360Q343 375 340 384T336 402Q336 420 347 431T374 443Q419 443 419 366Q419 342 413 312T396 249T371 186T341 131Q323 104 299 79T245 34T184 3T119 -9Q80 -9 55 13T30 80Q30 109 43 143T76 228Z" />
<glyph unicode="w" glyph-name="w" horiz-adv-x="706" d="M442 -9Q401 -9 374 7T330 53Q292 25 253 8T168 -9Q120 -9 89 20T58 103Q58 136 71 168T104 230T145 284T184 326Q171 330 154 339T117 361Q100 372 85 381T59 391Q56 391 53 389T50 382Q50 378 55 372T66
359Q71 351 75 344T79 328Q79 309 69 298T41 286Q21 286 12 298T2 331Q2 347 14 366T42 400Q58 417 80 430T124 443Q140 443 155 435T184 416Q203 403 215 397T238 390Q247 390 252 396T263 411Q271 428 277 435T294 443Q300 443 305 439T310 427Q310 418 302 412T287
400Q279 395 271 388T256 369Q243 349 230 321T205 259T187 191T180 121Q180 82 197 62T243 42Q260 42 279 50T318 74Q303 104 303 139Q303 183 312 222T335 295T366 354T401 400Q422 423 442 433T474 443Q498 443 512 424T526 368Q526 311 497 251T424 137Q448
49 512 49Q537 49 557 61T594 97Q620 134 634 184T648 285Q648 305 641 324T624 366Q617 381 615 387T613 402Q613 417 623 429T650 442Q670 442 682 423T695 366Q695 342 690 308T675 235T648 157T609 85Q580 44 540 18T442 -9ZM463 409Q455 409 446 402T428 379T414
341T408 287Q408 252 410 223T417 165Q450 209 474 258T498 346Q498 380 488 394T463 409Z" />
<glyph unicode="x" glyph-name="x" horiz-adv-x="505" d="M523 376Q523 360 518 343T503 310T483 279T461 252L450 256Q461 279 469 310T477 364Q477 387 471 402T445 417Q431 417 413 403T377 365Q339 309 314 215Q301 167 298 139T294 95Q294 65 303 53T331
40Q349 40 364 49T394 72T419 104T439 136L451 129Q438 103 420 79T379 35T332 3T280 -9Q230 -9 209 19T187 98Q187 107 188 117T191 137H186Q176 112 161 86T126 39T83 5T36 -9Q8 -9 -7 9T-23 59Q-23 91 -4 124T39 181L50 176Q45 165 40 151T31 121T25 92T22 68Q22
45 28 30T55 15Q69 15 87 28T122 65Q161 121 187 218Q199 266 202 295T206 339Q206 368 197 380T171 393Q154 393 139 384T109 361T84 330T64 298L52 305Q64 330 83 355T125 399T173 431T223 443Q273 443 293 414T314 334Q314 326 313 316T310 298H314Q324 323
340 348T376 395T418 429T464 443Q491 443 507 425T523 376Z" />
<glyph unicode="y" glyph-name="y" horiz-adv-x="404" d="M71 379Q44 379 7 311L-6 318Q20 373 55 408T135 443Q189 443 218 367Q225 349 232 320T246 253T258 170T265 77H269Q303 135 324 191T345 295Q345 315 340 332T327 366Q324 372 320 382T315 401Q315 421
326 432T354 443Q374 443 383 428T392 392Q392 309 363 229T291 78T197 -50T104 -144Q66 -176 30 -194T-37 -213Q-69 -213 -90 -196T-111 -151Q-111 -124 -95 -111T-61 -97Q-41 -97 -29 -105T-3 -130Q4 -139 14 -147T35 -155Q45 -155 59 -148T88 -129Q105 -115
125 -95T166 -50Q164 -8 160 40T149 137T133 229T114 306Q103 341 94 360T71 379Z" />
<glyph unicode="z" glyph-name="z" horiz-adv-x="455" d="M458 413Q458 397 445 380T413 350Q412 349 398 337T363 307T319 268T275 229T240 199T224 185Q216 179 205 172T182 156L159 140Q148 132 140 126Q155 127 175 126Q192 124 214 121T250 115Q273 110 293
105T333 100Q352 100 368 107T400 134Q413 152 425 176L439 170Q428 139 415 108T383 50T338 8T277 -9Q245 -9 223 3T180 38Q161 60 145 76T112 93Q103 93 95 87T80 70T68 48T59 25Q55 12 44 2T17 -9Q1 -9 -6 1T-13 24Q-13 38 -4 49T19 68L46 86Q64 98 75 103L323
312Q317 310 309 309T293 308Q267 308 238 318T180 342Q161 352 141 362T107 373Q86 373 71 359T56 318Q56 309 59 304T67 296Q73 316 87 326T116 336Q136 336 151 325T166 287Q166 267 151 252T115 237Q83 237 61 261T39 330Q39 355 48 375T72 411T107 434T150
443Q185 443 207 430T251 397Q261 388 272 378T293 357T314 341T332 334Q345 334 354 341T370 361T380 386L389 412Q394 426 405 434T428 443Q444 443 451 434T458 413Z" />
<glyph unicode="{" glyph-name="braceleft" horiz-adv-x="365" d="M261 -141Q164 -137 112 -101T60 3Q60 18 67 43T83 96T99 149T107 189Q106 229 88 247T28 272L32 288Q53 290 71 294T103 306Q125 320 138 346T162 410Q168 434 171 457T182 511Q191 553 215 584T275
637T356 670T455 681L452 667Q427 665 406 658T368 636T339 595T317 530Q314 516 312 506T308 487T304 468L299 443Q285 372 229 331T92 281L90 276Q155 266 190 233T226 152Q226 131 219 103T203 45T187 -8T180 -46Q180 -87 204 -105T264 -127L261 -141Z" />
<glyph unicode="|" glyph-name="bar" horiz-adv-x="202" d="M95 -99V687H121V-99H95Z" />
<glyph unicode="}" glyph-name="braceright" horiz-adv-x="345" d="M-108 -127Q-83 -126 -63 -119T-25 -96T4 -55T26 9Q29 23 31 33T36 52T39 72T44 97Q51 132 69 160T115 209T176 242T251 259L253 264Q188 274 153 307T117 388Q117 409 124 437T140 495T156 548T163
586Q163 607 157 621T139 645T112 660T79 667L82 681Q179 677 230 642T282 539Q282 524 275 499T260 445T244 391T237 350Q237 311 255 293T315 268L311 251Q289 250 271 246T239 233Q218 219 205 193T182 130Q175 106 172 82T162 28Q153 -13 129 -44T68 -97T-14
-130T-112 -141L-108 -127Z" />
<glyph unicode="~" glyph-name="asciitilde" horiz-adv-x="354" d="M225 221Q208 221 192 225T160 234T129 244T97 248Q75 248 59 238T30 203L16 206Q22 226 30 246T50 283T79 310T119 321Q134 321 149 317T181 309T212 300T243 296Q269 296 285 306T313 340L328
338Q323 317 316 296T296 259T266 232T225 221Z" />
<glyph unicode="&#xa0;" glyph-name="uni00A0" horiz-adv-x="380" />
<glyph unicode="&#xa1;" glyph-name="exclamdown" horiz-adv-x="270" d="M302 606Q302 580 285 562T240 543Q212 543 194 561T176 606Q176 632 194 651T240 670Q267 670 284 651T302 606ZM79 -16Q47 -16 28 4T8 57Q8 89 33 139T91 254Q120 317 146 377T192 483H209Q198
426 193 374T182 260Q176 196 175 151T169 74Q163 31 140 8T79 -16Z" />
<glyph unicode="&#xa2;" glyph-name="cent" horiz-adv-x="412" d="M414 359Q414 336 401 320T361 303Q338 303 325 315T312 351Q312 358 314 366L318 382Q325 399 325 407Q325 415 317 419T297 424L191 30Q198 29 206 29T222 32Q241 35 260 45T296 70T326 101T349
132L361 125Q347 99 329 77T289 36T239 7T181 -7L156 -97L135 -95L158 -8L140 -6Q131 -5 122 -3Q73 8 43 47T13 139Q13 175 23 210T50 276T89 335T137 383Q172 410 208 425T280 443L302 526L324 523L302 443Q351 441 382 418T414 359ZM135 109Q135 82 144 64T171
37L274 421Q240 412 214 368Q197 344 183 311T158 243T141 172T135 109Z" />
<glyph unicode="&#xa3;" glyph-name="sterling" horiz-adv-x="645" d="M666 555Q666 525 656 503T629 465T591 443T545 435Q528 435 510 440T475 456T447 480T431 512L445 518Q452 498 475 487T521 475Q553 475 574 499T595 565Q595 600 578 621T531 642Q505 642
484 629T446 594T416 541T394 478Q383 437 372 391T347 297H494L488 272H338Q324 230 308 198T267 131Q301 123 336 117T398 111Q467 111 506 132T568 195L582 191Q578 149 561 110T516 41T450 -8T365 -27Q340 -27 316 -21T269 -5T226 17T189 41Q157 16 121 1T39
-14Q-8 -14 -39 8T-71 70Q-71 90 -61 107T-34 137T7 157T60 164Q85 164 113 160T172 150Q180 179 184 211T193 272H86L93 297H197Q199 314 202 330T210 364Q227 426 258 480T332 576T424 641T528 665Q594 665 630 635T666 555ZM155 70Q126 93 98 110T39 128Q13
128 -5 113T-24 71Q-24 43 -5 26T48 9Q81 9 108 26T155 70Z" />
<glyph unicode="&#xa5;" glyph-name="yen" horiz-adv-x="518" d="M15 194L22 219H170L189 301H43L50 326H181L111 550Q97 598 76 616T21 642L24 653H321L319 642Q311 641 300 639T281 635Q269 630 258 620T246 589Q246 574 250 555T262 514L314 346H319L446 503Q475
540 486 562T497 602Q497 616 490 623T472 635Q465 638 456 639T440 642L443 653H659L656 642Q646 640 635 638T612 630Q598 624 584 615T554 590T517 551T470 494L333 326H483L476 301H324L303 219H455L448 194H298Q276 106 276 75Q276 51 286 39T313 19Q322 15
333 14T353 11L350 0H18L21 11Q31 12 42 13T61 18Q78 23 92 33T117 61Q131 82 142 115T165 194H15Z" />
<glyph unicode="&#xa7;" glyph-name="section" horiz-adv-x="418" d="M442 586Q442 566 430 550T392 534Q367 534 354 548T340 582Q340 593 342 604T344 628Q344 639 331 644T298 650Q266 650 246 628T225 570Q225 548 230 530T246 495T269 462T299 426Q317 405
333 384T363 341T384 294T392 244Q392 218 382 194T353 150T311 115T260 90Q291 40 291 -15Q291 -54 274 -85T231 -139T171 -174T106 -186Q35 -186 2 -161T-32 -100Q-32 -80 -19 -64T19 -48Q44 -48 57 -62T70 -97Q70 -108 69 -118T67 -141Q67 -152 79 -159T110
-166Q146 -166 167 -143T189 -84Q189 -59 183 -40T166 -3T141 32T112 67Q71 113 44 156T17 252Q17 278 28 302T57 347T99 383T149 407Q123 450 123 501Q123 540 139 571T180 624T238 658T302 670Q375 670 408 645T442 586ZM117 319Q117 297 124 279T143 242T172
205T209 162Q220 148 230 135T250 106Q268 116 280 135T292 174Q292 195 285 213T266 250T237 288T201 331Q190 345 179 359T159 389Q140 380 129 361T117 319Z" />
<glyph unicode="&#xa8;" glyph-name="dieresis" horiz-adv-x="374" d="M75 585Q75 609 91 626T132 644Q157 644 173 627T190 587Q190 563 174 546T132 528Q108 528 92 545T75 585ZM243 585Q243 609 259 626T300 644Q325 644 341 627T358 587Q358 563 342 546T300
528Q275 528 259 545T243 585Z" />
<glyph unicode="&#xa9;" glyph-name="copyright" horiz-adv-x="886" d="M866 259Q866 173 834 98T745 -34T613 -123T453 -156Q367 -156 292 -123T160 -34T70 97T37 259Q37 344 70 419T159 550T291 639T453 672Q538 672 613 640T744 551T833 419T866 259ZM839 259Q839
340 808 411T723 534T600 617T453 647Q375 647 305 617T181 535T96 411T64 259Q64 176 95 105T180 -19T304 -102T453 -133Q530 -133 600 -103T723 -20T807 104T839 259ZM648 190Q641 158 627 129T589 76T534 39T459 25Q412 25 375 37T310 70Q268 99 242 147T216
261Q216 318 236 361T291 434T370 479T464 494Q518 494 552 478T607 438H610L631 473H640V302H626Q618 332 608 362T580 417T536 457T470 472Q450 472 431 463T397 437Q374 411 362 369T350 264Q350 226 355 198T367 148T384 112T404 87Q420 70 438 65T479 59Q531
59 569 90T631 195L648 190Z" />
<glyph unicode="&#xaa;" glyph-name="ordfeminine" horiz-adv-x="440" d="M475 385Q461 362 445 341T408 303T364 277T316 267Q294 267 277 281T260 329Q260 338 262 351T268 376H264Q253 354 243 340T218 310Q178 267 131 267Q114 267 98 272T70 291T51 326T44
380Q44 424 65 474T120 566T197 637T285 665Q312 665 325 651T341 616H345Q351 627 356 636T367 657H456Q445 623 430 575T397 476Q360 365 360 336Q360 315 377 315Q398 315 421 338T463 391L475 385ZM322 592Q322 617 315 631T292 646Q276 646 261 634T227 591Q212
566 198 532T173 463T156 400T149 355Q149 329 155 320T173 310Q195 310 222 342Q236 361 246 377T266 415Q277 438 287 463T305 511T317 556T322 592Z" />
<glyph unicode="&#xab;" glyph-name="guillemotleft" horiz-adv-x="429" d="M314 242L385 95L374 85L215 239L218 252L430 406L439 395L314 242ZM132 242L203 95L193 85L33 239L37 252L248 406L258 395L132 242Z" />
<glyph unicode="&#xae;" glyph-name="registered" horiz-adv-x="546" d="M545 421Q545 370 525 325T471 245T391 191T294 171Q242 171 197 191T117 245T62 324T42 421Q42 472 62 517T116 597T196 651T294 671Q345 671 391 651T471 597T525 518T545 421ZM520 421Q520
467 502 509T454 582T382 632T294 651Q247 651 206 633T134 583T85 509T67 421Q67 374 85 333T133 260T205 211T294 192Q340 192 381 210T453 260T502 332T520 421ZM355 290Q348 299 342 314T334 349Q332 370 329 385T317 412Q305 430 279 430H257V357Q257 332
260 322Q262 317 264 313T272 306Q276 304 283 304T295 303V290H159V303Q163 303 169 303T180 306Q186 308 188 312T193 322Q195 327 195 335V528Q195 537 193 542Q190 553 180 557Q176 559 170 560T159 561V573H299Q348 573 374 556T401 504Q401 477 380 460T319
438V437Q354 433 372 419T399 362Q404 333 410 325T425 311Q428 309 437 306T452 303V290H355ZM332 504Q332 533 322 545T284 557H257V444H281Q309 444 320 461T332 504Z" />
<glyph unicode="&#xaf;" glyph-name="macron" horiz-adv-x="351" d="M80 549L92 595H330L318 549H80Z" />
<glyph unicode="&#xb0;" glyph-name="degree" horiz-adv-x="300" d="M317 544Q317 515 307 492T279 452T239 426T191 416Q166 416 144 425T104 451T76 491T65 544Q65 572 75 596T103 636T143 662T191 672Q216 672 238 663T278 637T306 596T317 544ZM274 544Q274
598 252 626T191 654Q153 654 131 626T109 544Q109 491 131 463T191 434Q229 434 251 462T274 544Z" />
<glyph unicode="&#xb4;" glyph-name="acute" horiz-adv-x="372" d="M351 623Q351 600 336 587T293 561Q264 549 224 535T129 501L124 510Q145 531 160 547T188 577T212 601T236 624Q259 646 274 656T307 666Q327 666 339 656T351 623Z" />
<glyph unicode="&#xb6;" glyph-name="paragraph" horiz-adv-x="510" d="M589 638H509L313 -151H287L484 638H384L187 -151H162L264 260H242Q198 260 163 274T104 311T66 365T53 430Q53 480 73 522T128 594T211 640T317 657H594L589 638Z" />
<glyph unicode="&#xb7;" glyph-name="periodcentered" horiz-adv-x="262" d="M200 266Q200 237 180 219T133 201Q107 201 88 219T68 266Q68 294 87 313T133 332Q159 332 179 314T200 266Z" />
<glyph unicode="&#xb8;" glyph-name="cedilla" horiz-adv-x="350" d="M218 -101Q218 -141 182 -162T85 -184Q63 -184 43 -178T12 -163L20 -151Q30 -156 45 -160T76 -164Q111 -164 132 -150T153 -101Q153 -81 143 -70T117 -59Q98 -59 87 -69L72 -62L107 1H128L101
-49Q109 -44 121 -41T147 -37Q182 -37 200 -54T218 -101Z" />
<glyph unicode="&#xba;" glyph-name="ordmasculine" horiz-adv-x="375" d="M400 516Q400 490 394 464T377 412T351 365T318 325Q291 298 253 282T175 266Q115 266 81 304T46 409Q46 436 52 463T69 515T95 563T129 604Q157 631 193 647T271 663Q331 663 365 623T400
516ZM306 595Q306 647 272 647Q254 647 241 635T214 600Q203 579 190 545T165 472T147 396T139 333Q140 309 147 296T174 282Q206 282 231 328Q243 349 256 383T280 454T298 529T306 595Z" />
<glyph unicode="&#xbb;" glyph-name="guillemotright" horiz-adv-x="426" d="M402 239L190 85L181 96L307 249L236 396L246 406L406 252L402 239ZM221 239L9 85L-1 96L125 249L54 396L64 406L224 252L221 239Z" />
<glyph unicode="&#xbf;" glyph-name="questiondown" horiz-adv-x="427" d="M417 611Q417 587 401 570T359 552Q334 552 317 569T300 611Q300 635 317 652T359 669Q384 669 400 652T417 611ZM428 410Q428 375 413 351T373 309T313 276T239 249Q194 234 166 219T121
188T99 152T93 111Q93 63 120 35T206 6Q258 6 290 37T323 113Q323 151 303 170T260 189Q250 189 241 183T231 168Q243 164 256 152T270 116Q270 92 255 77T216 62Q193 62 178 77T162 118Q162 134 172 150T201 180T243 202T293 211Q333 211 358 187T383 125Q383
95 366 69T321 25T257 -5T181 -16Q138 -16 105 -5T48 25T12 71T-1 128Q-1 173 14 207T56 267T120 312T201 349Q235 362 261 372T306 393T333 417T342 447Q342 467 328 476T295 486Q264 486 247 473T218 448L210 456Q224 479 251 499T320 519Q366 519 397 489T428
410Z" />
<glyph unicode="&#xc0;" glyph-name="Agrave" horiz-adv-x="609" d="M206 273H365L428 525H423L206 273ZM360 249H185L95 143Q79 124 70 106T60 68Q60 54 66 43T84 25Q97 19 109 16T138 11L135 0H-124L-121 11Q-99 14 -78 24Q-42 41 -8 73T54 137L506 657H597L483
199Q472 153 466 123T460 75Q460 52 469 40T495 21Q506 16 517 14T537 11L534 0H211L214 11Q223 12 232 14T249 18Q283 30 301 60Q315 83 326 118T349 203L360 249ZM637 703Q609 709 587 714T547 723T513 732T480 741Q448 749 427 762T406 799Q406 820 418 833T451
847Q469 847 481 840T516 815Q542 795 570 771T642 712L637 703Z" />
<glyph unicode="&#xc1;" glyph-name="Aacute" horiz-adv-x="609" d="M206 273H365L428 525H423L206 273ZM360 249H185L95 143Q79 124 70 106T60 68Q60 54 66 43T84 25Q97 19 109 16T138 11L135 0H-124L-121 11Q-99 14 -78 24Q-42 41 -8 73T54 137L506 657H597L483
199Q472 153 466 123T460 75Q460 52 469 40T495 21Q506 16 517 14T537 11L534 0H211L214 11Q223 12 232 14T249 18Q283 30 301 60Q315 83 326 118T349 203L360 249ZM462 712Q509 748 538 772T593 816Q616 833 629 839T659 846Q678 846 690 834T703 799Q703 777
686 765T644 744Q615 735 574 726T467 703L462 712Z" />
<glyph unicode="&#xc2;" glyph-name="Acircumflex" horiz-adv-x="609" d="M206 273H365L428 525H423L206 273ZM360 249H185L95 143Q79 124 70 106T60 68Q60 54 66 43T84 25Q97 19 109 16T138 11L135 0H-124L-121 11Q-99 14 -78 24Q-42 41 -8 73T54 137L506 657H597L483
199Q472 153 466 123T460 75Q460 52 469 40T495 21Q506 16 517 14T537 11L534 0H211L214 11Q223 12 232 14T249 18Q283 30 301 60Q315 83 326 118T349 203L360 249ZM669 706L571 773L421 706L416 714Q420 717 431 727T457 751T489 780T520 808T544 830T556 841H609Q610
838 620 820T643 779T665 737T678 713L669 706Z" />
<glyph unicode="&#xc3;" glyph-name="Atilde" horiz-adv-x="609" d="M206 273H365L428 525H423L206 273ZM360 249H185L95 143Q79 124 70 106T60 68Q60 54 66 43T84 25Q97 19 109 16T138 11L135 0H-124L-121 11Q-99 14 -78 24Q-42 41 -8 73T54 137L506 657H597L483
199Q472 153 466 123T460 75Q460 52 469 40T495 21Q506 16 517 14T537 11L534 0H211L214 11Q223 12 232 14T249 18Q283 30 301 60Q315 83 326 118T349 203L360 249ZM726 831Q711 783 683 752T610 721Q593 721 577 725T544 735T513 745T484 750Q464 750 445 742T408
709L396 713Q414 762 445 791T521 820Q535 820 549 816T578 807T608 798T638 794Q663 794 680 800T714 833L726 831Z" />
<glyph unicode="&#xc4;" glyph-name="Adieresis" horiz-adv-x="609" d="M206 273H365L428 525H423L206 273ZM360 249H185L95 143Q79 124 70 106T60 68Q60 54 66 43T84 25Q97 19 109 16T138 11L135 0H-124L-121 11Q-99 14 -78 24Q-42 41 -8 73T54 137L506 657H597L483
199Q472 153 466 123T460 75Q460 52 469 40T495 21Q506 16 517 14T537 11L534 0H211L214 11Q223 12 232 14T249 18Q283 30 301 60Q315 83 326 118T349 203L360 249ZM385 775Q385 800 402 818T446 837Q472 837 490 819T508 776Q508 750 490 732T446 714Q420 714
403 732T385 775ZM605 775Q605 800 622 818T666 837Q692 837 709 819T727 776Q727 750 710 732T666 714Q640 714 623 732T605 775Z" />
<glyph unicode="&#xc5;" glyph-name="Aring" horiz-adv-x="609" d="M206 273H365L428 525H423L206 273ZM360 249H185L95 143Q79 124 70 106T60 68Q60 54 66 43T84 25Q97 19 109 16T138 11L135 0H-124L-121 11Q-99 14 -78 24Q-42 41 -8 73T54 137L506 657H597L483
199Q472 153 466 123T460 75Q460 52 469 40T495 21Q506 16 517 14T537 11L534 0H211L214 11Q223 12 232 14T249 18Q283 30 301 60Q315 83 326 118T349 203L360 249ZM658 787Q658 748 633 725T574 702Q541 702 515 724T489 787Q489 806 496 822T515 848T542 865T573
871Q589 871 604 866T632 849T651 823T658 787ZM631 786Q631 816 615 832T573 849Q549 849 533 833T516 787Q516 757 532 741T573 725Q598 725 614 740T631 786Z" />
<glyph unicode="&#xc6;" glyph-name="AE" horiz-adv-x="881" d="M475 608H469Q466 604 447 581T399 523T338 449T275 374T223 311T193 275H393L475 608ZM866 451H854Q848 489 835 524T804 585Q790 605 768 619T707 634H684Q653 634 635 620Q624 611 614 596T595
545L547 352H569Q612 352 634 359T674 381Q697 400 714 428T741 481H752L681 197H670Q671 209 671 223T669 252T663 278T653 300Q645 312 626 320T567 329H541L501 169Q493 135 489 115T484 78Q484 52 496 40Q512 23 553 23H575Q613 23 646 40T709 82Q752 118 781
156T827 221H838L769 0H227L230 11Q239 12 250 14T270 18Q304 29 325 60Q339 83 350 118T375 203L386 249H171Q167 244 154 227T124 191Q106 169 84 143Q68 123 59 104T50 68Q50 54 56 43T74 25Q87 19 99 16T128 11L125 0H-135L-133 11Q-122 14 -110 19T-86 30Q-51
50 -19 79T38 137L446 622Q441 626 432 630T412 637T392 643T380 646L382 657H873L866 451Z" />
<glyph unicode="&#xc7;" glyph-name="Ccedilla" horiz-adv-x="580" d="M293 -102Q293 -142 257 -163T160 -185Q138 -185 118 -179T87 -164L95 -152Q105 -157 120 -161T151 -165Q186 -165 207 -151T228 -102Q228 -82 218 -71T192 -60Q173 -60 162 -70L147 -63L180
-3Q166 1 153 7Q109 28 81 63T39 143T26 236Q26 326 57 405T141 543T264 636T415 670Q445 670 468 664T508 648T538 626T557 602H561L608 647H620L559 412H547Q551 533 514 590T415 647Q377 647 349 629T297 584Q278 564 255 522T210 424T175 305T161 177Q161 92
203 50Q218 36 237 30T277 24Q319 24 356 41T425 86T481 149T523 219L539 210Q521 169 494 129T430 58T351 6T260 -14Q227 -14 198 -8L176 -50Q184 -45 196 -42T222 -38Q257 -38 275 -55T293 -102Z" />
<glyph unicode="&#xc8;" glyph-name="Egrave" horiz-adv-x="601" d="M474 703Q446 709 424 714T384 723T350 732T317 741Q285 749 264 762T243 799Q243 820 255 833T288 847Q306 847 318 840T353 815Q379 795 407 771T479 712L474 703ZM586 451H574Q568 489 555
524T524 585Q510 604 488 619T427 634H400Q358 634 340 611T310 545L262 352H290Q333 352 355 359T394 381Q417 400 435 428T461 481H472L401 197H390Q391 209 391 223T390 252T384 278T374 300Q365 312 346 320T287 329H257L217 169Q208 133 204 111T202 73Q204
44 221 34T269 23H296Q333 23 366 40T428 82Q470 118 500 156T546 221H558L489 0H-57L-55 11Q-46 12 -35 14T-15 18Q21 29 40 60Q55 83 66 118T90 203L154 462Q165 508 171 536T177 582Q177 605 168 617T142 637Q131 642 120 643T100 646L102 657H593L586 451Z"
/>
<glyph unicode="&#xc9;" glyph-name="Eacute" horiz-adv-x="601" d="M302 712Q349 748 378 772T433 816Q456 833 469 839T499 846Q518 846 530 834T543 799Q543 777 526 765T484 744Q455 735 414 726T307 703L302 712ZM586 451H574Q568 489 555 524T524 585Q510
604 488 619T427 634H400Q358 634 340 611T310 545L262 352H290Q333 352 355 359T394 381Q417 400 435 428T461 481H472L401 197H390Q391 209 391 223T390 252T384 278T374 300Q365 312 346 320T287 329H257L217 169Q208 133 204 111T202 73Q204 44 221 34T269
23H296Q333 23 366 40T428 82Q470 118 500 156T546 221H558L489 0H-57L-55 11Q-46 12 -35 14T-15 18Q21 29 40 60Q55 83 66 118T90 203L154 462Q165 508 171 536T177 582Q177 605 168 617T142 637Q131 642 120 643T100 646L102 657H593L586 451Z" />
<glyph unicode="&#xca;" glyph-name="Ecircumflex" horiz-adv-x="601" d="M507 706L409 773L259 706L254 714Q258 717 269 727T295 751T327 780T358 808T382 830T394 841H447Q448 838 458 820T481 779T503 737T516 713L507 706ZM586 451H574Q568 489 555 524T524
585Q510 604 488 619T427 634H400Q358 634 340 611T310 545L262 352H290Q333 352 355 359T394 381Q417 400 435 428T461 481H472L401 197H390Q391 209 391 223T390 252T384 278T374 300Q365 312 346 320T287 329H257L217 169Q208 133 204 111T202 73Q204 44 221
34T269 23H296Q333 23 366 40T428 82Q470 118 500 156T546 221H558L489 0H-57L-55 11Q-46 12 -35 14T-15 18Q21 29 40 60Q55 83 66 118T90 203L154 462Q165 508 171 536T177 582Q177 605 168 617T142 637Q131 642 120 643T100 646L102 657H593L586 451Z" />
<glyph unicode="&#xcb;" glyph-name="Edieresis" horiz-adv-x="601" d="M586 451H574Q568 489 555 524T524 585Q510 604 488 619T427 634H400Q358 634 340 611T310 545L262 352H290Q333 352 355 359T394 381Q417 400 435 428T461 481H472L401 197H390Q391 209
391 223T390 252T384 278T374 300Q365 312 346 320T287 329H257L217 169Q208 133 204 111T202 73Q204 44 221 34T269 23H296Q333 23 366 40T428 82Q470 118 500 156T546 221H558L489 0H-57L-55 11Q-46 12 -35 14T-15 18Q21 29 40 60Q55 83 66 118T90 203L154 462Q165
508 171 536T177 582Q177 605 168 617T142 637Q131 642 120 643T100 646L102 657H593L586 451ZM226 775Q226 800 243 818T287 837Q313 837 331 819T349 776Q349 750 331 732T287 714Q261 714 244 732T226 775ZM446 775Q446 800 463 818T507 837Q533 837 550 819T568
776Q568 750 551 732T507 714Q481 714 464 732T446 775Z" />
<glyph unicode="&#xcc;" glyph-name="Igrave" horiz-adv-x="361" d="M432 646Q423 645 411 643T391 639Q374 634 360 624T335 597Q321 574 310 539T287 454L224 198Q213 152 207 122T201 75Q201 52 210 40T236 20Q247 15 258 14T278 11L275 0H-57L-55 11Q-46 12
-35 14T-15 18Q2 23 16 33T40 60Q55 83 66 118T90 203L153 459Q164 504 170 534T176 582Q176 605 167 617T141 637Q130 642 119 643T99 646L102 657H434L432 646ZM627 703Q599 709 577 714T537 723T503 732T470 741Q438 749 417 762T396 799Q396 820 408 833T441
847Q459 847 471 840T506 815Q532 795 560 771T632 712L627 703Z" />
<glyph unicode="&#xcd;" glyph-name="Iacute" horiz-adv-x="361" d="M432 646Q423 645 411 643T391 639Q374 634 360 624T335 597Q321 574 310 539T287 454L224 198Q213 152 207 122T201 75Q201 52 210 40T236 20Q247 15 258 14T278 11L275 0H-57L-55 11Q-46 12
-35 14T-15 18Q2 23 16 33T40 60Q55 83 66 118T90 203L153 459Q164 504 170 534T176 582Q176 605 167 617T141 637Q130 642 119 643T99 646L102 657H434L432 646ZM196 712Q243 748 272 772T327 816Q350 833 363 839T393 846Q412 846 424 834T437 799Q437 777 420
765T378 744Q349 735 308 726T201 703L196 712Z" />
<glyph unicode="&#xce;" glyph-name="Icircumflex" horiz-adv-x="361" d="M432 646Q423 645 411 643T391 639Q374 634 360 624T335 597Q321 574 310 539T287 454L224 198Q213 152 207 122T201 75Q201 52 210 40T236 20Q247 15 258 14T278 11L275 0H-57L-55 11Q-46
12 -35 14T-15 18Q2 23 16 33T40 60Q55 83 66 118T90 203L153 459Q164 504 170 534T176 582Q176 605 167 617T141 637Q130 642 119 643T99 646L102 657H434L432 646ZM402 706L304 773L154 706L149 714Q153 717 164 727T190 751T222 780T253 808T277 830T289 841H342Q343
838 353 820T376 779T398 737T411 713L402 706Z" />
<glyph unicode="&#xcf;" glyph-name="Idieresis" horiz-adv-x="361" d="M432 646Q423 645 411 643T391 639Q374 634 360 624T335 597Q321 574 310 539T287 454L224 198Q213 152 207 122T201 75Q201 52 210 40T236 20Q247 15 258 14T278 11L275 0H-57L-55 11Q-46
12 -35 14T-15 18Q2 23 16 33T40 60Q55 83 66 118T90 203L153 459Q164 504 170 534T176 582Q176 605 167 617T141 637Q130 642 119 643T99 646L102 657H434L432 646ZM378 775Q378 800 395 818T439 837Q465 837 483 819T501 776Q501 750 483 732T439 714Q413 714
396 732T378 775ZM598 775Q598 800 615 818T659 837Q685 837 702 819T720 776Q720 750 703 732T659 714Q633 714 616 732T598 775Z" />
<glyph unicode="&#xd0;" glyph-name="Eth" horiz-adv-x="688" d="M31 322L38 350H127L155 462Q166 508 171 536T177 582Q177 605 168 617T142 637Q131 641 120 643T100 646L103 657H412Q479 657 528 636T610 581T658 501T674 407Q674 298 627 210T501 68Q459 39
405 20T289 0H-57L-55 11Q-46 12 -34 14T-14 18Q21 29 41 60Q55 83 66 118T90 203L120 322H31ZM535 471Q535 507 528 544T503 601Q486 620 463 627T407 634H379Q347 634 335 614T314 559L262 350H393L387 322H255L217 169Q208 135 204 116T200 80Q200 54 213 39Q229
23 265 23H287Q316 23 352 38T423 95Q444 120 464 158T499 244T525 349T535 471Z" />
<glyph unicode="&#xd1;" glyph-name="Ntilde" horiz-adv-x="649" d="M613 831Q598 783 570 752T497 721Q480 721 464 725T431 735T400 745T371 750Q351 750 332 742T295 709L283 713Q301 762 332 791T408 820Q422 820 436 816T465 807T495 798T525 794Q550 794
567 800T601 833L613 831ZM719 646Q712 645 704 644T688 640Q674 635 662 628T638 604Q629 592 618 565T592 484L470 -8H442L204 525H199L111 172Q103 143 100 118T97 78Q97 52 107 37T135 17Q143 15 153 14T174 11L171 0H-57L-55 11Q-47 12 -37 13T-19 17Q9 24
33 54Q44 68 58 97T83 174L156 462Q162 484 165 499T171 527T174 549T175 571Q175 592 161 611T125 638Q117 641 106 643T87 646L89 657H302L495 214H498L563 477Q572 512 576 538T580 578Q580 603 568 617T538 639Q531 642 521 643T499 646L501 657H722L719 646Z"
/>
<glyph unicode="&#xd2;" glyph-name="Ograve" horiz-adv-x="643" d="M505 703Q477 709 455 714T415 723T381 732T348 741Q316 749 295 762T274 799Q274 820 286 833T319 847Q337 847 349 840T384 815Q410 795 438 771T510 712L505 703ZM630 414Q630 367 620 318T589
223T538 136T470 65Q424 28 371 7T257 -14Q207 -14 165 3T92 54T44 134T26 243Q26 289 36 338T67 434T118 521T187 592Q232 628 285 649T398 670Q448 670 490 653T564 602T612 522T630 414ZM497 506Q497 579 471 613T399 648Q365 648 337 629T288 582Q272 562 250
517T208 412T174 285T160 150Q160 77 186 43T258 8Q292 8 320 27T368 75Q384 95 406 140T448 244T483 372T497 506Z" />
<glyph unicode="&#xd3;" glyph-name="Oacute" horiz-adv-x="643" d="M332 712Q379 748 408 772T463 816Q486 833 499 839T529 846Q548 846 560 834T573 799Q573 777 556 765T514 744Q485 735 444 726T337 703L332 712ZM630 414Q630 367 620 318T589 223T538 136T470
65Q424 28 371 7T257 -14Q207 -14 165 3T92 54T44 134T26 243Q26 289 36 338T67 434T118 521T187 592Q232 628 285 649T398 670Q448 670 490 653T564 602T612 522T630 414ZM497 506Q497 579 471 613T399 648Q365 648 337 629T288 582Q272 562 250 517T208 412T174
285T160 150Q160 77 186 43T258 8Q292 8 320 27T368 75Q384 95 406 140T448 244T483 372T497 506Z" />
<glyph unicode="&#xd4;" glyph-name="Ocircumflex" horiz-adv-x="643" d="M536 706L438 773L288 706L283 714Q287 717 298 727T324 751T356 780T387 808T411 830T423 841H476Q477 838 487 820T510 779T532 737T545 713L536 706ZM630 414Q630 367 620 318T589 223T538
136T470 65Q424 28 371 7T257 -14Q207 -14 165 3T92 54T44 134T26 243Q26 289 36 338T67 434T118 521T187 592Q232 628 285 649T398 670Q448 670 490 653T564 602T612 522T630 414ZM497 506Q497 579 471 613T399 648Q365 648 337 629T288 582Q272 562 250 517T208
412T174 285T160 150Q160 77 186 43T258 8Q292 8 320 27T368 75Q384 95 406 140T448 244T483 372T497 506Z" />
<glyph unicode="&#xd5;" glyph-name="Otilde" horiz-adv-x="643" d="M595 831Q580 783 552 752T479 721Q462 721 446 725T413 735T382 745T353 750Q333 750 314 742T277 709L265 713Q283 762 314 791T390 820Q404 820 418 816T447 807T477 798T507 794Q532 794
549 800T583 833L595 831ZM630 414Q630 367 620 318T589 223T538 136T470 65Q424 28 371 7T257 -14Q207 -14 165 3T92 54T44 134T26 243Q26 289 36 338T67 434T118 521T187 592Q232 628 285 649T398 670Q448 670 490 653T564 602T612 522T630 414ZM497 506Q497
579 471 613T399 648Q365 648 337 629T288 582Q272 562 250 517T208 412T174 285T160 150Q160 77 186 43T258 8Q292 8 320 27T368 75Q384 95 406 140T448 244T483 372T497 506Z" />
<glyph unicode="&#xd6;" glyph-name="Odieresis" horiz-adv-x="643" d="M255 775Q255 800 272 818T316 837Q342 837 360 819T378 776Q378 750 360 732T316 714Q290 714 273 732T255 775ZM475 775Q475 800 492 818T536 837Q562 837 579 819T597 776Q597 750 580
732T536 714Q510 714 493 732T475 775ZM630 414Q630 367 620 318T589 223T538 136T470 65Q424 28 371 7T257 -14Q207 -14 165 3T92 54T44 134T26 243Q26 289 36 338T67 434T118 521T187 592Q232 628 285 649T398 670Q448 670 490 653T564 602T612 522T630 414ZM497
506Q497 579 471 613T399 648Q365 648 337 629T288 582Q272 562 250 517T208 412T174 285T160 150Q160 77 186 43T258 8Q292 8 320 27T368 75Q384 95 406 140T448 244T483 372T497 506Z" />
<glyph unicode="&#xd7;" glyph-name="multiply" horiz-adv-x="447" d="M225 259L368 114L353 100L210 245L70 102L55 116L196 259L55 403L69 418L211 274L353 419L368 405L225 259Z" />
<glyph unicode="&#xd8;" glyph-name="Oslash" horiz-adv-x="643" d="M630 414Q630 367 620 318T589 223T538 136T470 65Q424 28 371 7T257 -14Q211 -14 172 0L139 -65L117 -56L150 10Q117 27 92 54Q61 87 44 134T26 243Q26 288 36 335T65 428T113 514T177 585Q224
624 279 647T398 670Q440 670 476 658L506 717L528 707L499 649Q536 631 564 602Q595 569 612 522T630 414ZM497 506Q497 570 476 605L190 37Q216 8 258 8Q292 8 320 27T368 75Q384 95 406 140T448 244T483 372T497 506ZM399 648Q365 648 337 629T288 582Q272 562
250 517T208 412T174 285T160 150Q160 94 176 60L460 625Q435 648 399 648Z" />
<glyph unicode="&#xd9;" glyph-name="Ugrave" horiz-adv-x="661" d="M546 703Q518 709 496 714T456 723T422 732T389 741Q357 749 336 762T315 799Q315 820 327 833T360 847Q378 847 390 840T425 815Q451 795 479 771T551 712L546 703ZM738 646Q731 645 723 644T707
640Q693 635 681 628T658 604Q648 592 636 561T610 476L544 214Q530 158 510 116T458 45T385 1T285 -14Q179 -14 124 34T68 174Q68 183 70 198T75 230T81 266T89 299L128 459Q139 504 145 534T151 583Q151 605 142 617T116 637Q105 642 94 643T74 646L77 657H401L398
646Q390 645 381 644T364 639Q347 633 334 623T309 597Q296 577 286 544T264 461L205 218Q194 171 194 124Q194 75 223 46T308 16Q354 16 388 30T447 69T488 132T517 215L582 475Q591 510 595 536T599 577Q599 602 587 617T557 639Q549 642 539 643T518 646L520
657H741L738 646Z" />
<glyph unicode="&#xda;" glyph-name="Uacute" horiz-adv-x="661" d="M367 712Q414 748 443 772T498 816Q521 833 534 839T564 846Q583 846 595 834T608 799Q608 777 591 765T549 744Q520 735 479 726T372 703L367 712ZM738 646Q731 645 723 644T707 640Q693 635
681 628T658 604Q648 592 636 561T610 476L544 214Q530 158 510 116T458 45T385 1T285 -14Q179 -14 124 34T68 174Q68 183 70 198T75 230T81 266T89 299L128 459Q139 504 145 534T151 583Q151 605 142 617T116 637Q105 642 94 643T74 646L77 657H401L398 646Q390
645 381 644T364 639Q347 633 334 623T309 597Q296 577 286 544T264 461L205 218Q194 171 194 124Q194 75 223 46T308 16Q354 16 388 30T447 69T488 132T517 215L582 475Q591 510 595 536T599 577Q599 602 587 617T557 639Q549 642 539 643T518 646L520 657H741L738
646Z" />
<glyph unicode="&#xdb;" glyph-name="Ucircumflex" horiz-adv-x="661" d="M574 706L476 773L326 706L321 714Q325 717 336 727T362 751T394 780T425 808T449 830T461 841H514Q515 838 525 820T548 779T570 737T583 713L574 706ZM738 646Q731 645 723 644T707 640Q693
635 681 628T658 604Q648 592 636 561T610 476L544 214Q530 158 510 116T458 45T385 1T285 -14Q179 -14 124 34T68 174Q68 183 70 198T75 230T81 266T89 299L128 459Q139 504 145 534T151 583Q151 605 142 617T116 637Q105 642 94 643T74 646L77 657H401L398 646Q390
645 381 644T364 639Q347 633 334 623T309 597Q296 577 286 544T264 461L205 218Q194 171 194 124Q194 75 223 46T308 16Q354 16 388 30T447 69T488 132T517 215L582 475Q591 510 595 536T599 577Q599 602 587 617T557 639Q549 642 539 643T518 646L520 657H741L738
646Z" />
<glyph unicode="&#xdc;" glyph-name="Udieresis" horiz-adv-x="661" d="M738 646Q731 645 723 644T707 640Q693 635 681 628T658 604Q648 592 636 561T610 476L544 214Q530 158 510 116T458 45T385 1T285 -14Q179 -14 124 34T68 174Q68 183 70 198T75 230T81 266T89
299L128 459Q139 504 145 534T151 583Q151 605 142 617T116 637Q105 642 94 643T74 646L77 657H401L398 646Q390 645 381 644T364 639Q347 633 334 623T309 597Q296 577 286 544T264 461L205 218Q194 171 194 124Q194 75 223 46T308 16Q354 16 388 30T447 69T488
132T517 215L582 475Q591 510 595 536T599 577Q599 602 587 617T557 639Q549 642 539 643T518 646L520 657H741L738 646ZM293 775Q293 800 310 818T354 837Q380 837 398 819T416 776Q416 750 398 732T354 714Q328 714 311 732T293 775ZM513 775Q513 800 530 818T574
837Q600 837 617 819T635 776Q635 750 618 732T574 714Q548 714 531 732T513 775Z" />
<glyph unicode="&#xdd;" glyph-name="Yacute" horiz-adv-x="547" d="M676 646Q665 644 652 641T627 632Q614 626 601 618T571 594T536 556T491 498L335 278L316 199Q305 153 299 123T293 75Q293 52 302 40T328 21Q339 16 350 14T370 11L367 0H35L37 11Q46 12 57
14T77 18Q94 23 108 33T132 60Q147 83 159 119T182 203L199 277L124 553Q110 604 87 622T32 646L34 657H339L336 646Q328 645 316 643T295 637Q284 632 274 623T264 593Q264 578 269 559T279 518L330 321H335L469 507Q494 542 504 565T515 606Q515 618 509 626T492
639Q485 642 478 643T462 646L464 657H679L676 646ZM315 712Q362 748 391 772T446 816Q469 833 482 839T512 846Q531 846 543 834T556 799Q556 777 539 765T497 744Q468 735 427 726T320 703L315 712Z" />
<glyph unicode="&#xde;" glyph-name="Thorn" horiz-adv-x="581" d="M216 166Q211 144 206 118T200 74Q200 51 209 40T236 20Q244 16 254 14T273 11L271 0H-57L-55 11Q-46 12 -35 14T-15 18Q2 24 16 34T40 60Q55 83 66 118T90 203L153 458Q164 504 170 534T176
582Q176 605 167 617T141 637Q130 641 119 643T99 646L101 657H425L423 646Q415 645 406 643T389 639Q372 633 358 624T334 597Q321 575 314 553T302 513H370Q427 513 466 503T530 473T564 427T575 370Q575 316 542 272T454 200Q423 185 380 176T265 166H216ZM385
236Q398 251 408 271T426 316T437 365T441 413Q441 449 422 469T362 490H346Q331 490 320 486T299 471Q292 462 287 449T277 412L221 189H270Q315 189 341 202T385 236Z" />
<glyph unicode="&#xdf;" glyph-name="germandbls" horiz-adv-x="534" d="M533 581Q533 557 521 538T490 502T449 470T409 440T378 408T365 373Q365 359 371 346T388 320T410 294T435 266Q454 244 467 227T489 194T502 163T506 132Q506 99 493 73T459 29T408 1T348
-9Q320 -9 296 -2T253 17T225 48T214 90Q214 117 228 133T264 149Q284 149 296 139T310 107Q311 88 304 75T298 48Q299 27 316 18T352 9Q384 9 399 26T414 75Q414 87 411 97T399 119T378 146T344 185Q321 211 305 239T289 299Q289 329 301 351T332 394T372 432T412
471T442 517T455 576Q455 627 437 649T386 671Q363 671 342 658T307 622Q284 586 269 536T240 430Q221 356 199 280T151 132T93 -3T24 -114T-58 -188T-154 -216Q-175 -216 -194 -211T-229 -196T-252 -170T-261 -134Q-261 -107 -245 -95T-212 -82Q-188 -82 -177
-95T-164 -125Q-163 -139 -165 -151T-167 -174Q-164 -194 -141 -194Q-117 -194 -99 -182T-63 -142Q-42 -110 -22 -53T20 79T63 244T110 430Q130 502 161 551T230 631T307 674T383 688Q453 688 493 659T533 581Z" />
<glyph unicode="&#xe0;" glyph-name="agrave" horiz-adv-x="493" d="M322 361Q322 422 287 422Q268 422 251 408T212 358Q195 330 179 291T151 213T131 140T123 87Q123 58 131 48T153 37Q167 37 180 47T208 75Q225 96 235 113T258 156Q270 182 281 211T302 268T316
320T322 361ZM361 66Q361 43 379 43Q391 43 404 50T430 70T457 99T481 132L493 125Q478 99 459 75T416 33T366 3T311 -9Q285 -9 267 7T249 58Q249 69 252 84T258 111H254Q241 87 230 72T203 39Q158 -9 107 -9Q87 -9 69 -3T37 18T15 57T7 116Q7 167 30 224T92 330T178
411T278 443Q308 443 323 428T343 389H347Q353 401 358 411T370 433H470Q458 395 441 342T404 231Q383 168 372 126T361 66ZM240 669Q260 669 274 660T306 627Q326 604 346 577T397 510L391 502Q362 513 330 527L266 555Q238 567 218 585T198 624Q198 644 210 656T240
669Z" />
<glyph unicode="&#xe1;" glyph-name="aacute" horiz-adv-x="493" d="M322 361Q322 422 287 422Q268 422 251 408T212 358Q195 330 179 291T151 213T131 140T123 87Q123 58 131 48T153 37Q167 37 180 47T208 75Q225 96 235 113T258 156Q270 182 281 211T302 268T316
320T322 361ZM361 66Q361 43 379 43Q391 43 404 50T430 70T457 99T481 132L493 125Q478 99 459 75T416 33T366 3T311 -9Q285 -9 267 7T249 58Q249 69 252 84T258 111H254Q241 87 230 72T203 39Q158 -9 107 -9Q87 -9 69 -3T37 18T15 57T7 116Q7 167 30 224T92 330T178
411T278 443Q308 443 323 428T343 389H347Q353 401 358 411T370 433H470Q458 395 441 342T404 231Q383 168 372 126T361 66ZM474 623Q474 600 459 587T416 561Q387 549 347 535T252 501L247 510Q268 531 283 547T311 577T335 601T359 624Q382 646 397 656T430 666Q450
666 462 656T474 623Z" />
<glyph unicode="&#xe2;" glyph-name="acircumflex" horiz-adv-x="493" d="M322 361Q322 422 287 422Q268 422 251 408T212 358Q195 330 179 291T151 213T131 140T123 87Q123 58 131 48T153 37Q167 37 180 47T208 75Q225 96 235 113T258 156Q270 182 281 211T302
268T316 320T322 361ZM361 66Q361 43 379 43Q391 43 404 50T430 70T457 99T481 132L493 125Q478 99 459 75T416 33T366 3T311 -9Q285 -9 267 7T249 58Q249 69 252 84T258 111H254Q241 87 230 72T203 39Q158 -9 107 -9Q87 -9 69 -3T37 18T15 57T7 116Q7 167 30 224T92
330T178 411T278 443Q308 443 323 428T343 389H347Q353 401 358 411T370 433H470Q458 395 441 342T404 231Q383 168 372 126T361 66ZM438 497L336 586L183 497L176 505Q192 522 215 546T260 595T301 640T328 668H380Q384 659 392 639T410 594T429 546T446 503L438
497Z" />
<glyph unicode="&#xe3;" glyph-name="atilde" horiz-adv-x="493" d="M322 361Q322 422 287 422Q268 422 251 408T212 358Q195 330 179 291T151 213T131 140T123 87Q123 58 131 48T153 37Q167 37 180 47T208 75Q225 96 235 113T258 156Q270 182 281 211T302 268T316
320T322 361ZM361 66Q361 43 379 43Q391 43 404 50T430 70T457 99T481 132L493 125Q478 99 459 75T416 33T366 3T311 -9Q285 -9 267 7T249 58Q249 69 252 84T258 111H254Q241 87 230 72T203 39Q158 -9 107 -9Q87 -9 69 -3T37 18T15 57T7 116Q7 167 30 224T92 330T178
411T278 443Q308 443 323 428T343 389H347Q353 401 358 411T370 433H470Q458 395 441 342T404 231Q383 168 372 126T361 66ZM488 640Q473 592 445 561T373 529Q356 529 340 533T308 543T277 552T248 557Q229 557 209 547T172 512L160 516Q178 566 209 597T285 629Q299
629 313 625T342 616T372 607T402 603Q427 603 443 610T477 643L488 640Z" />
<glyph unicode="&#xe4;" glyph-name="adieresis" horiz-adv-x="493" d="M322 361Q322 422 287 422Q268 422 251 408T212 358Q195 330 179 291T151 213T131 140T123 87Q123 58 131 48T153 37Q167 37 180 47T208 75Q225 96 235 113T258 156Q270 182 281 211T302
268T316 320T322 361ZM361 66Q361 43 379 43Q391 43 404 50T430 70T457 99T481 132L493 125Q478 99 459 75T416 33T366 3T311 -9Q285 -9 267 7T249 58Q249 69 252 84T258 111H254Q241 87 230 72T203 39Q158 -9 107 -9Q87 -9 69 -3T37 18T15 57T7 116Q7 167 30 224T92
330T178 411T278 443Q308 443 323 428T343 389H347Q353 401 358 411T370 433H470Q458 395 441 342T404 231Q383 168 372 126T361 66ZM182 585Q182 609 198 626T239 644Q264 644 280 627T297 587Q297 563 281 546T239 528Q215 528 199 545T182 585ZM350 585Q350
609 366 626T407 644Q432 644 448 627T465 587Q465 563 449 546T407 528Q382 528 366 545T350 585Z" />
<glyph unicode="&#xe5;" glyph-name="aring" horiz-adv-x="493" d="M322 361Q322 422 287 422Q268 422 251 408T212 358Q195 330 179 291T151 213T131 140T123 87Q123 58 131 48T153 37Q167 37 180 47T208 75Q225 96 235 113T258 156Q270 182 281 211T302 268T316
320T322 361ZM361 66Q361 43 379 43Q391 43 404 50T430 70T457 99T481 132L493 125Q478 99 459 75T416 33T366 3T311 -9Q285 -9 267 7T249 58Q249 69 252 84T258 111H254Q241 87 230 72T203 39Q158 -9 107 -9Q87 -9 69 -3T37 18T15 57T7 116Q7 167 30 224T92 330T178
411T278 443Q308 443 323 428T343 389H347Q353 401 358 411T370 433H470Q458 395 441 342T404 231Q383 168 372 126T361 66ZM406 590Q406 571 400 556T381 529T354 511T322 505Q289 505 263 527T237 590Q237 630 263 652T322 675Q354 675 380 653T406 590ZM379
590Q379 620 363 636T321 653Q297 653 281 637T264 590Q264 561 280 545T321 529Q346 529 362 544T379 590Z" />
<glyph unicode="&#xe6;" glyph-name="ae" horiz-adv-x="664" d="M662 365Q662 343 651 324T619 288Q605 277 583 265T534 241T477 218T418 199Q413 172 410 145T407 93Q407 27 457 27Q484 27 507 37T550 63T585 97T611 132L623 125Q608 98 588 74T542 31T484 2T414
-9Q351 -9 318 31T282 135H277Q263 104 245 77T207 31Q187 13 162 2T111 -9Q91 -9 73 -2T41 20T19 59T11 117Q11 168 34 225T96 330T183 411T282 443Q312 443 326 428T343 389H347Q354 401 359 412T371 434H447Q447 432 445 426T440 413T436 399T433 391H436Q465
415 496 429T556 443Q613 443 637 421T662 365ZM577 385Q577 403 571 413T551 424Q531 424 512 408T476 363T445 297T421 218Q453 229 486 245T537 278Q548 289 556 303T568 332T575 360T577 385ZM326 362Q326 423 292 423Q272 423 255 408T217 358Q200 330 184
292T155 214T135 141T127 88Q127 59 137 48T161 37Q175 37 188 46T213 70Q230 91 241 109T263 153Q273 175 284 203T304 260T320 315T326 362Z" />
<glyph unicode="&#xe7;" glyph-name="ccedilla" horiz-adv-x="399" d="M212 -102Q212 -142 176 -163T79 -185Q57 -185 37 -179T6 -164L14 -152Q24 -157 39 -161T70 -165Q105 -165 126 -151T147 -102Q147 -82 137 -71T111 -60Q92 -60 81 -70L66 -63L99 -2Q93 0
87 2Q63 14 47 34T22 81T13 140Q13 176 22 210T48 274T86 330T131 376Q171 410 214 426T290 443Q342 443 371 419T401 357Q401 334 388 318T348 301Q325 301 313 314T300 348Q300 355 302 363T306 377Q308 385 310 392T313 405Q313 424 288 424Q268 424 249 409T212
365Q196 339 182 307T158 241T141 173T135 109Q135 71 151 51T199 30Q222 30 243 40T282 65T315 98T341 132L353 124Q337 97 316 73T269 30T211 2T141 -9Q129 -9 118 -7L95 -50Q103 -45 115 -42T141 -38Q176 -38 194 -55T212 -102Z" />
<glyph unicode="&#xe8;" glyph-name="egrave" horiz-adv-x="391" d="M351 125Q336 99 316 75T270 32T212 2T141 -9Q82 -9 47 33T12 144Q12 219 48 278T138 381Q176 411 214 427T283 443Q341 443 365 421T389 364Q389 343 378 324T346 288Q333 277 312 265T263
241T206 219T145 199Q140 172 137 145T134 93Q134 61 147 43T185 24Q214 24 238 35T281 62T314 97T339 132L351 125ZM149 218Q181 229 211 244T259 276Q270 286 278 300T292 330T300 359T303 385Q303 402 298 413T278 424Q258 424 239 408T202 363T172 297T149
218ZM455 669Q475 669 489 660T521 627Q541 604 561 577T612 510L606 502Q577 513 545 527L481 555Q453 567 433 585T413 624Q413 644 425 656T455 669Z" />
<glyph unicode="&#xe9;" glyph-name="eacute" horiz-adv-x="391" d="M432 623Q432 600 417 587T374 561Q345 549 305 535T210 501L205 510Q226 531 241 547T269 577T293 601T317 624Q340 646 355 656T388 666Q408 666 420 656T432 623ZM351 125Q336 99 316 75T270
32T212 2T141 -9Q82 -9 47 33T12 144Q12 219 48 278T138 381Q176 411 214 427T283 443Q341 443 365 421T389 364Q389 343 378 324T346 288Q333 277 312 265T263 241T206 219T145 199Q140 172 137 145T134 93Q134 61 147 43T185 24Q214 24 238 35T281 62T314 97T339
132L351 125ZM149 218Q181 229 211 244T259 276Q270 286 278 300T292 330T300 359T303 385Q303 402 298 413T278 424Q258 424 239 408T202 363T172 297T149 218Z" />
<glyph unicode="&#xea;" glyph-name="ecircumflex" horiz-adv-x="391" d="M396 497L294 586L141 497L134 505Q150 522 173 546T218 595T259 640T286 668H338Q342 659 350 639T368 594T387 546T404 503L396 497ZM351 125Q336 99 316 75T270 32T212 2T141 -9Q82
-9 47 33T12 144Q12 219 48 278T138 381Q176 411 214 427T283 443Q341 443 365 421T389 364Q389 343 378 324T346 288Q333 277 312 265T263 241T206 219T145 199Q140 172 137 145T134 93Q134 61 147 43T185 24Q214 24 238 35T281 62T314 97T339 132L351 125ZM149
218Q181 229 211 244T259 276Q270 286 278 300T292 330T300 359T303 385Q303 402 298 413T278 424Q258 424 239 408T202 363T172 297T149 218Z" />
<glyph unicode="&#xeb;" glyph-name="edieresis" horiz-adv-x="391" d="M142 585Q142 609 158 626T199 644Q224 644 240 627T257 587Q257 563 241 546T199 528Q175 528 159 545T142 585ZM310 585Q310 609 326 626T367 644Q392 644 408 627T425 587Q425 563 409
546T367 528Q342 528 326 545T310 585ZM351 125Q336 99 316 75T270 32T212 2T141 -9Q82 -9 47 33T12 144Q12 219 48 278T138 381Q176 411 214 427T283 443Q341 443 365 421T389 364Q389 343 378 324T346 288Q333 277 312 265T263 241T206 219T145 199Q140 172 137
145T134 93Q134 61 147 43T185 24Q214 24 238 35T281 62T314 97T339 132L351 125ZM149 218Q181 229 211 244T259 276Q270 286 278 300T292 330T300 359T303 385Q303 402 298 413T278 424Q258 424 239 408T202 363T172 297T149 218Z" />
<glyph unicode="&#xec;" glyph-name="igrave" horiz-adv-x="290" d="M279 125Q264 99 243 75T197 32T144 2T87 -10Q60 -10 43 7T26 53Q26 66 31 86T44 129T62 179T81 230Q88 251 96 272T110 312T121 346T125 371Q125 395 106 395Q94 395 73 377T22 311L9 318Q45
383 92 413T180 443Q210 443 225 426T241 378Q241 358 229 315T196 219Q187 193 179 168T164 121T153 85T149 62Q149 43 164 43Q174 43 187 50T214 70T242 98T267 133L279 125ZM392 669Q412 669 426 660T458 627Q478 604 498 577T549 510L543 502Q514 513 482 527L418
555Q390 567 370 585T350 624Q350 644 362 656T392 669Z" />
<glyph unicode="&#xed;" glyph-name="iacute" horiz-adv-x="290" d="M367 623Q367 600 352 587T309 561Q280 549 240 535T145 501L140 510Q161 531 176 547T204 577T228 601T252 624Q275 646 290 656T323 666Q343 666 355 656T367 623ZM279 125Q264 99 243 75T197
32T144 2T87 -10Q60 -10 43 7T26 53Q26 66 31 86T44 129T62 179T81 230Q88 251 96 272T110 312T121 346T125 371Q125 395 106 395Q94 395 73 377T22 311L9 318Q45 383 92 413T180 443Q210 443 225 426T241 378Q241 358 229 315T196 219Q187 193 179 168T164 121T153
85T149 62Q149 43 164 43Q174 43 187 50T214 70T242 98T267 133L279 125Z" />
<glyph unicode="&#xee;" glyph-name="icircumflex" horiz-adv-x="290" d="M589 497L487 586L334 497L327 505Q343 522 366 546T411 595T452 640T479 668H531Q535 659 543 639T561 594T580 546T597 503L589 497ZM279 125Q264 99 243 75T197 32T144 2T87 -10Q60
-10 43 7T26 53Q26 66 31 86T44 129T62 179T81 230Q88 251 96 272T110 312T121 346T125 371Q125 395 106 395Q94 395 73 377T22 311L9 318Q45 383 92 413T180 443Q210 443 225 426T241 378Q241 358 229 315T196 219Q187 193 179 168T164 121T153 85T149 62Q149
43 164 43Q174 43 187 50T214 70T242 98T267 133L279 125Z" />
<glyph unicode="&#xef;" glyph-name="idieresis" horiz-adv-x="290" d="M79 585Q79 609 95 626T136 644Q161 644 177 627T194 587Q194 563 178 546T136 528Q112 528 96 545T79 585ZM247 585Q247 609 263 626T304 644Q329 644 345 627T362 587Q362 563 346 546T304
528Q279 528 263 545T247 585ZM279 125Q264 99 243 75T197 32T144 2T87 -10Q60 -10 43 7T26 53Q26 66 31 86T44 129T62 179T81 230Q88 251 96 272T110 312T121 346T125 371Q125 395 106 395Q94 395 73 377T22 311L9 318Q45 383 92 413T180 443Q210 443 225 426T241
378Q241 358 229 315T196 219Q187 193 179 168T164 121T153 85T149 62Q149 43 164 43Q174 43 187 50T214 70T242 98T267 133L279 125Z" />
<glyph unicode="&#xf0;" glyph-name="eth" horiz-adv-x="432" d="M140 543L224 582Q205 610 184 633Q160 661 136 684H150Q195 663 242 629Q258 618 273 605L369 650L364 627L289 592Q309 572 328 550Q366 505 390 448T415 323Q415 232 387 165T316 56Q286 26
244 9T157 -9Q88 -9 50 36T12 153Q12 216 37 276T106 378Q137 409 178 426T265 443Q275 443 283 441T298 434Q287 471 269 506Q254 538 235 567L135 520L140 543ZM307 368Q307 426 267 426Q229 426 199 370Q186 346 172 306T145 221T124 134T116 64Q116 38 125
23T155 8Q177 8 192 22T222 63Q236 88 250 127T277 209T298 294T307 368Z" />
<glyph unicode="&#xf1;" glyph-name="ntilde" horiz-adv-x="537" d="M525 125Q510 99 489 75T442 33T389 3T332 -9Q304 -9 287 7T270 53Q270 66 275 86T288 129T307 178T326 230Q345 281 358 317T372 370Q372 383 367 387T353 392Q341 392 323 378T282 333T233
254T180 138Q154 73 130 0H12Q22 33 35 72T61 148T84 217T101 266Q112 302 117 326T123 368Q123 396 103 396Q90 396 69 378T18 312L5 319Q40 384 83 413T166 443Q199 443 214 426T230 378Q230 355 224 324T209 256H215Q267 358 317 400T411 443Q450 443 467 422T484
365Q484 336 472 299T438 204Q420 156 407 116T394 62Q394 43 408 43Q418 43 431 50T459 70T487 98T512 133L525 125ZM495 640Q480 592 452 561T380 529Q363 529 347 533T315 543T284 552T255 557Q236 557 216 547T179 512L167 516Q185 566 216 597T292 629Q306
629 320 625T349 616T379 607T409 603Q434 603 450 610T484 643L495 640Z" />
<glyph unicode="&#xf2;" glyph-name="ograve" horiz-adv-x="437" d="M160 -9Q91 -9 52 35T12 153Q12 215 36 275T105 377Q137 408 179 425T268 443Q337 443 376 398T415 277Q415 217 391 158T323 57Q291 26 249 9T160 -9ZM269 426Q249 426 233 413T202 372Q189
348 174 309T147 226T126 139T118 65Q118 39 127 24T159 8Q197 8 225 61Q238 85 253 123T280 205T301 291T310 368Q310 426 269 426ZM212 669Q232 669 246 660T278 627Q298 604 318 577T369 510L363 502Q334 513 302 527L238 555Q210 567 190 585T170 624Q170 644
182 656T212 669Z" />
<glyph unicode="&#xf3;" glyph-name="oacute" horiz-adv-x="437" d="M442 623Q442 600 427 587T384 561Q355 549 315 535T220 501L215 510Q236 531 251 547T279 577T303 601T327 624Q350 646 365 656T398 666Q418 666 430 656T442 623ZM160 -9Q91 -9 52 35T12
153Q12 215 36 275T105 377Q137 408 179 425T268 443Q337 443 376 398T415 277Q415 217 391 158T323 57Q291 26 249 9T160 -9ZM269 426Q249 426 233 413T202 372Q189 348 174 309T147 226T126 139T118 65Q118 39 127 24T159 8Q197 8 225 61Q238 85 253 123T280
205T301 291T310 368Q310 426 269 426Z" />
<glyph unicode="&#xf4;" glyph-name="ocircumflex" horiz-adv-x="437" d="M407 497L305 586L152 497L145 505Q161 522 184 546T229 595T270 640T297 668H349Q353 659 361 639T379 594T398 546T415 503L407 497ZM160 -9Q91 -9 52 35T12 153Q12 215 36 275T105 377Q137
408 179 425T268 443Q337 443 376 398T415 277Q415 217 391 158T323 57Q291 26 249 9T160 -9ZM269 426Q249 426 233 413T202 372Q189 348 174 309T147 226T126 139T118 65Q118 39 127 24T159 8Q197 8 225 61Q238 85 253 123T280 205T301 291T310 368Q310 426 269
426Z" />
<glyph unicode="&#xf5;" glyph-name="otilde" horiz-adv-x="437" d="M160 -9Q91 -9 52 35T12 153Q12 215 36 275T105 377Q137 408 179 425T268 443Q337 443 376 398T415 277Q415 217 391 158T323 57Q291 26 249 9T160 -9ZM269 426Q249 426 233 413T202 372Q189
348 174 309T147 226T126 139T118 65Q118 39 127 24T159 8Q197 8 225 61Q238 85 253 123T280 205T301 291T310 368Q310 426 269 426ZM457 640Q442 592 414 561T342 529Q325 529 309 533T277 543T246 552T217 557Q198 557 178 547T141 512L129 516Q147 566 178 597T254
629Q268 629 282 625T311 616T341 607T371 603Q396 603 412 610T446 643L457 640Z" />
<glyph unicode="&#xf6;" glyph-name="odieresis" horiz-adv-x="437" d="M153 585Q153 609 169 626T210 644Q235 644 251 627T268 587Q268 563 252 546T210 528Q186 528 170 545T153 585ZM321 585Q321 609 337 626T378 644Q403 644 419 627T436 587Q436 563 420
546T378 528Q353 528 337 545T321 585ZM160 -9Q91 -9 52 35T12 153Q12 215 36 275T105 377Q137 408 179 425T268 443Q337 443 376 398T415 277Q415 217 391 158T323 57Q291 26 249 9T160 -9ZM269 426Q249 426 233 413T202 372Q189 348 174 309T147 226T126 139T118
65Q118 39 127 24T159 8Q197 8 225 61Q238 85 253 123T280 205T301 291T310 368Q310 426 269 426Z" />
<glyph unicode="&#xf7;" glyph-name="divide" horiz-adv-x="492" d="M25 249V274H442V249H25ZM297 401Q297 371 277 356T234 340Q211 340 191 356T171 401Q171 430 191 447T234 464Q257 464 277 448T297 401ZM297 130Q297 100 277 84T234 68Q211 68 191 85T171
130Q171 158 191 175T234 192Q257 192 277 176T297 130Z" />
<glyph unicode="&#xf8;" glyph-name="oslash" horiz-adv-x="435" d="M415 277Q416 217 391 158T323 57Q291 26 249 9T160 -9Q136 -9 115 -4L86 -62L67 -52L95 3Q70 15 52 35Q14 80 12 153Q11 214 36 274T105 377Q137 408 179 425T268 443Q293 443 315 436L347
499L366 490L335 429Q358 418 376 397Q415 352 415 277ZM269 426Q249 426 233 413T202 372Q189 348 174 309T147 226T126 139T118 65Q118 57 118 50L301 409Q291 426 269 426ZM310 368V379L128 21Q138 8 159 8Q197 8 225 61Q238 85 253 123T280 205T301 291T310
368Z" />
<glyph unicode="&#xf9;" glyph-name="ugrave" horiz-adv-x="541" d="M397 67Q397 41 418 41Q441 41 470 69T522 133L534 125Q519 99 499 75T456 33T407 3T352 -9Q320 -9 303 10T286 64Q286 87 292 113T307 172H300Q273 119 247 84T196 29T148 0T103 -9Q72 -9 53
12T33 68Q33 83 36 99T45 135T59 177T79 229Q97 277 110 316T124 372Q124 396 107 396Q95 396 73 377T22 311L9 319Q45 383 90 413T174 443Q209 443 226 426T244 377Q244 364 240 345T228 303T212 255T193 204Q173 153 161 118T148 65Q148 42 167 42Q179 42 197
56T237 102T286 182T339 299Q352 331 364 364T389 433H506Q495 400 483 361T457 285T433 215L417 166Q406 130 402 108T397 67ZM249 669Q269 669 283 660T315 627Q335 604 355 577T406 510L400 502Q371 513 339 527L275 555Q247 567 227 585T207 624Q207 644 219
656T249 669Z" />
<glyph unicode="&#xfa;" glyph-name="uacute" horiz-adv-x="541" d="M481 623Q481 600 466 587T423 561Q394 549 354 535T259 501L254 510Q275 531 290 547T318 577T342 601T366 624Q389 646 404 656T437 666Q457 666 469 656T481 623ZM397 67Q397 41 418 41Q441
41 470 69T522 133L534 125Q519 99 499 75T456 33T407 3T352 -9Q320 -9 303 10T286 64Q286 87 292 113T307 172H300Q273 119 247 84T196 29T148 0T103 -9Q72 -9 53 12T33 68Q33 83 36 99T45 135T59 177T79 229Q97 277 110 316T124 372Q124 396 107 396Q95 396 73
377T22 311L9 319Q45 383 90 413T174 443Q209 443 226 426T244 377Q244 364 240 345T228 303T212 255T193 204Q173 153 161 118T148 65Q148 42 167 42Q179 42 197 56T237 102T286 182T339 299Q352 331 364 364T389 433H506Q495 400 483 361T457 285T433 215L417
166Q406 130 402 108T397 67Z" />
<glyph unicode="&#xfb;" glyph-name="ucircumflex" horiz-adv-x="541" d="M446 497L344 586L191 497L184 505Q200 522 223 546T268 595T309 640T336 668H388Q392 659 400 639T418 594T437 546T454 503L446 497ZM397 67Q397 41 418 41Q441 41 470 69T522 133L534
125Q519 99 499 75T456 33T407 3T352 -9Q320 -9 303 10T286 64Q286 87 292 113T307 172H300Q273 119 247 84T196 29T148 0T103 -9Q72 -9 53 12T33 68Q33 83 36 99T45 135T59 177T79 229Q97 277 110 316T124 372Q124 396 107 396Q95 396 73 377T22 311L9 319Q45
383 90 413T174 443Q209 443 226 426T244 377Q244 364 240 345T228 303T212 255T193 204Q173 153 161 118T148 65Q148 42 167 42Q179 42 197 56T237 102T286 182T339 299Q352 331 364 364T389 433H506Q495 400 483 361T457 285T433 215L417 166Q406 130 402 108T397
67Z" />
<glyph unicode="&#xfc;" glyph-name="udieresis" horiz-adv-x="541" d="M192 585Q192 609 208 626T249 644Q274 644 290 627T307 587Q307 563 291 546T249 528Q225 528 209 545T192 585ZM360 585Q360 609 376 626T417 644Q442 644 458 627T475 587Q475 563 459
546T417 528Q392 528 376 545T360 585ZM397 67Q397 41 418 41Q441 41 470 69T522 133L534 125Q519 99 499 75T456 33T407 3T352 -9Q320 -9 303 10T286 64Q286 87 292 113T307 172H300Q273 119 247 84T196 29T148 0T103 -9Q72 -9 53 12T33 68Q33 83 36 99T45 135T59
177T79 229Q97 277 110 316T124 372Q124 396 107 396Q95 396 73 377T22 311L9 319Q45 383 90 413T174 443Q209 443 226 426T244 377Q244 364 240 345T228 303T212 255T193 204Q173 153 161 118T148 65Q148 42 167 42Q179 42 197 56T237 102T286 182T339 299Q352
331 364 364T389 433H506Q495 400 483 361T457 285T433 215L417 166Q406 130 402 108T397 67Z" />
<glyph unicode="&#xfd;" glyph-name="yacute" horiz-adv-x="404" d="M71 379Q44 379 7 311L-6 318Q20 373 55 408T135 443Q189 443 218 367Q225 349 232 320T246 253T258 170T265 77H269Q303 135 324 191T345 295Q345 315 340 332T327 366Q324 372 320 382T315
401Q315 421 326 432T354 443Q374 443 383 428T392 392Q392 309 363 229T291 78T197 -50T104 -144Q66 -176 30 -194T-37 -213Q-69 -213 -90 -196T-111 -151Q-111 -124 -95 -111T-61 -97Q-41 -97 -29 -105T-3 -130Q4 -139 14 -147T35 -155Q45 -155 59 -148T88 -129Q105
-115 125 -95T166 -50Q164 -8 160 40T149 137T133 229T114 306Q103 341 94 360T71 379ZM416 623Q416 600 401 587T358 561Q329 549 289 535T194 501L189 510Q210 531 225 547T253 577T277 601T301 624Q324 646 339 656T372 666Q392 666 404 656T416 623Z" />
<glyph unicode="&#xfe;" glyph-name="thorn" horiz-adv-x="457" d="M321 443Q344 443 365 436T402 413T429 368T439 297Q439 265 431 233T409 169T374 110T329 59Q297 27 257 9T168 -9Q140 -9 119 -4T87 9Q85 4 81 -9T72 -38T61 -66L55 -86Q49 -103 45 -121T41
-154Q41 -167 46 -178T66 -196Q73 -200 84 -202T108 -207L105 -217H-176L-172 -207Q-157 -205 -143 -201T-118 -189Q-102 -178 -93 -161T-73 -113Q-20 53 26 193Q45 253 64 312T100 423T129 512T148 568Q156 591 159 605T163 630Q163 652 152 662Q147 667 136 669T113
674L117 684H297Q302 684 302 679Q302 675 298 666T289 642Q285 632 282 624T276 606T268 584T259 556L198 367H203Q226 405 258 424T321 443ZM326 352Q326 410 288 410Q272 410 259 403T233 382Q217 365 202 338T176 281Q169 261 158 228T136 159T115 91T99 43Q107
29 122 21T154 12Q175 12 192 23T226 61Q243 81 260 117T292 194T316 278T326 352Z" />
<glyph unicode="&#xff;" glyph-name="ydieresis" horiz-adv-x="404" d="M71 379Q44 379 7 311L-6 318Q20 373 55 408T135 443Q189 443 218 367Q225 349 232 320T246 253T258 170T265 77H269Q303 135 324 191T345 295Q345 315 340 332T327 366Q324 372 320 382T315
401Q315 421 326 432T354 443Q374 443 383 428T392 392Q392 309 363 229T291 78T197 -50T104 -144Q66 -176 30 -194T-37 -213Q-69 -213 -90 -196T-111 -151Q-111 -124 -95 -111T-61 -97Q-41 -97 -29 -105T-3 -130Q4 -139 14 -147T35 -155Q45 -155 59 -148T88 -129Q105
-115 125 -95T166 -50Q164 -8 160 40T149 137T133 229T114 306Q103 341 94 360T71 379ZM118 585Q118 609 134 626T175 644Q200 644 216 627T233 587Q233 563 217 546T175 528Q151 528 135 545T118 585ZM286 585Q286 609 302 626T343 644Q368 644 384 627T401 587Q401
563 385 546T343 528Q318 528 302 545T286 585Z" />
<glyph unicode="&#x100;" glyph-name="Amacron" horiz-adv-x="609" d="M206 273H365L428 525H423L206 273ZM360 249H185L95 143Q79 124 70 106T60 68Q60 54 66 43T84 25Q97 19 109 16T138 11L135 0H-124L-121 11Q-99 14 -78 24Q-42 41 -8 73T54 137L506 657H597L483
199Q472 153 466 123T460 75Q460 52 469 40T495 21Q506 16 517 14T537 11L534 0H211L214 11Q223 12 232 14T249 18Q283 30 301 60Q315 83 326 118T349 203L360 249ZM417 718L428 764H694L683 718H417Z" />
<glyph unicode="&#x101;" glyph-name="amacron" horiz-adv-x="493" d="M322 361Q322 422 287 422Q268 422 251 408T212 358Q195 330 179 291T151 213T131 140T123 87Q123 58 131 48T153 37Q167 37 180 47T208 75Q225 96 235 113T258 156Q270 182 281 211T302 268T316
320T322 361ZM361 66Q361 43 379 43Q391 43 404 50T430 70T457 99T481 132L493 125Q478 99 459 75T416 33T366 3T311 -9Q285 -9 267 7T249 58Q249 69 252 84T258 111H254Q241 87 230 72T203 39Q158 -9 107 -9Q87 -9 69 -3T37 18T15 57T7 116Q7 167 30 224T92 330T178
411T278 443Q308 443 323 428T343 389H347Q353 401 358 411T370 433H470Q458 395 441 342T404 231Q383 168 372 126T361 66ZM207 549L219 595H457L445 549H207Z" />
<glyph unicode="&#x102;" glyph-name="Abreve" horiz-adv-x="609" d="M206 273H365L428 525H423L206 273ZM360 249H185L95 143Q79 124 70 106T60 68Q60 54 66 43T84 25Q97 19 109 16T138 11L135 0H-124L-121 11Q-99 14 -78 24Q-42 41 -8 73T54 137L506 657H597L483
199Q472 153 466 123T460 75Q460 52 469 40T495 21Q506 16 517 14T537 11L534 0H211L214 11Q223 12 232 14T249 18Q283 30 301 60Q315 83 326 118T349 203L360 249ZM457 846Q465 809 494 792T562 775Q604 775 639 791T695 845L705 839Q696 780 658 743T554 705Q508
705 476 731T442 804Q442 822 445 840L457 846Z" />
<glyph unicode="&#x103;" glyph-name="abreve" horiz-adv-x="493" d="M322 361Q322 422 287 422Q268 422 251 408T212 358Q195 330 179 291T151 213T131 140T123 87Q123 58 131 48T153 37Q167 37 180 47T208 75Q225 96 235 113T258 156Q270 182 281 211T302 268T316
320T322 361ZM361 66Q361 43 379 43Q391 43 404 50T430 70T457 99T481 132L493 125Q478 99 459 75T416 33T366 3T311 -9Q285 -9 267 7T249 58Q249 69 252 84T258 111H254Q241 87 230 72T203 39Q158 -9 107 -9Q87 -9 69 -3T37 18T15 57T7 116Q7 167 30 224T92 330T178
411T278 443Q308 443 323 428T343 389H347Q353 401 358 411T370 433H470Q458 395 441 342T404 231Q383 168 372 126T361 66ZM226 673Q235 632 265 614T330 595Q408 595 456 673L468 667Q463 638 452 612T423 567T380 536T323 524Q275 524 243 552T211 631Q211 649
214 667L226 673Z" />
<glyph unicode="&#x104;" glyph-name="Aogonek" horiz-adv-x="609" d="M206 273H365L428 525H423L206 273ZM360 249H185L95 143Q79 124 70 106T60 68Q60 54 66 43T84 25Q97 19 109 16T138 11L135 0H-124L-121 11Q-99 14 -78 24Q-42 41 -8 73T54 137L506 657H597L483
199Q472 153 466 123T460 75Q460 52 469 40T495 21Q506 16 517 14T537 11L534 0H363Q332 0 311 -1T275 -6T249 -14T227 -26Q201 -43 183 -74T165 -143Q165 -197 228 -204L226 -214Q148 -217 112 -196T76 -139Q76 -117 88 -100T121 -68T165 -42T212 -18Q245 -1 265
14T300 54Q314 77 325 115T349 203L360 249Z" />
<glyph unicode="&#x105;" glyph-name="aogonek" horiz-adv-x="493" d="M168 -139Q168 -115 183 -97T222 -63T273 -34T325 -8Q320 -9 317 -9H310Q284 -9 267 7T249 58Q249 69 252 84T258 111H254Q241 87 230 72T203 39Q158 -9 107 -9Q87 -9 69 -3T37 18T15 57T7
116Q7 167 30 224T92 330T178 411T278 443Q308 443 323 428T343 389H347Q349 392 352 398T358 411T365 424T370 433H470Q469 429 465 415T453 380T439 335T424 290T412 253T404 231Q383 168 372 126T361 66Q361 43 379 43Q391 43 404 50T430 70T457 99T481 132L493
125Q472 89 444 58T380 9Q356 -4 334 -20T295 -55T268 -96T257 -143Q257 -197 319 -204L317 -214Q239 -217 204 -196T168 -139ZM322 361Q322 422 287 422Q268 422 251 408T212 358Q195 330 179 291T151 213T131 140T123 87Q123 58 131 48T153 37Q167 37 180 47T208
75Q225 96 235 113T258 156Q270 182 281 211T302 268T316 320T322 361Z" />
<glyph unicode="&#x106;" glyph-name="Cacute" horiz-adv-x="580" d="M559 412H547Q551 533 514 590T415 647Q377 647 349 629T297 584Q278 564 255 522T210 424T175 305T161 177Q161 92 203 50Q218 36 237 30T277 24Q319 24 356 41T425 86T481 149T523 219L539
210Q521 169 494 129T430 58T351 6T260 -14Q198 -14 154 7T81 63T39 143T26 236Q26 326 57 405T141 543T264 636T415 670Q445 670 468 664T508 648T538 626T557 602H561L608 647H620L559 412ZM336 712Q383 748 412 772T467 816Q490 833 503 839T533 846Q552 846
564 834T577 799Q577 777 560 765T518 744Q489 735 448 726T341 703L336 712Z" />
<glyph unicode="&#x107;" glyph-name="cacute" horiz-adv-x="399" d="M443 623Q443 600 428 587T385 561Q356 549 316 535T221 501L216 510Q237 531 252 547T280 577T304 601T328 624Q351 646 366 656T399 666Q419 666 431 656T443 623ZM401 357Q401 334 388 318T348
301Q325 301 313 314T300 348Q300 355 302 363T306 377Q308 385 310 392T313 405Q313 424 288 424Q268 424 249 409T212 365Q196 339 182 307T158 241T141 173T135 109Q135 71 151 51T199 30Q222 30 243 40T282 65T315 98T341 132L353 124Q337 97 316 73T269 30T211
2T141 -9Q111 -9 87 2T47 34T22 81T13 140Q13 176 22 210T48 274T86 330T131 376Q171 410 214 426T290 443Q342 443 371 419T401 357Z" />
<glyph unicode="&#x108;" glyph-name="Ccircumflex" horiz-adv-x="580" d="M541 706L443 773L293 706L288 714Q292 717 303 727T329 751T361 780T392 808T416 830T428 841H481Q482 838 492 820T515 779T537 737T550 713L541 706ZM559 412H547Q551 533 514 590T415
647Q377 647 349 629T297 584Q278 564 255 522T210 424T175 305T161 177Q161 92 203 50Q218 36 237 30T277 24Q319 24 356 41T425 86T481 149T523 219L539 210Q521 169 494 129T430 58T351 6T260 -14Q198 -14 154 7T81 63T39 143T26 236Q26 326 57 405T141 543T264
636T415 670Q445 670 468 664T508 648T538 626T557 602H561L608 647H620L559 412Z" />
<glyph unicode="&#x109;" glyph-name="ccircumflex" horiz-adv-x="399" d="M408 497L306 586L153 497L146 505Q162 522 185 546T230 595T271 640T298 668H350Q354 659 362 639T380 594T399 546T416 503L408 497ZM401 357Q401 334 388 318T348 301Q325 301 313
314T300 348Q300 355 302 363T306 377Q308 385 310 392T313 405Q313 424 288 424Q268 424 249 409T212 365Q196 339 182 307T158 241T141 173T135 109Q135 71 151 51T199 30Q222 30 243 40T282 65T315 98T341 132L353 124Q337 97 316 73T269 30T211 2T141 -9Q111
-9 87 2T47 34T22 81T13 140Q13 176 22 210T48 274T86 330T131 376Q171 410 214 426T290 443Q342 443 371 419T401 357Z" />
<glyph unicode="&#x10a;" glyph-name="Cdotaccent" horiz-adv-x="580" d="M559 412H547Q551 533 514 590T415 647Q377 647 349 629T297 584Q278 564 255 522T210 424T175 305T161 177Q161 92 203 50Q218 36 237 30T277 24Q319 24 356 41T425 86T481 149T523 219L539
210Q521 169 494 129T430 58T351 6T260 -14Q198 -14 154 7T81 63T39 143T26 236Q26 326 57 405T141 543T264 636T415 670Q445 670 468 664T508 648T538 626T557 602H561L608 647H620L559 412ZM361 779Q361 808 380 826T426 845Q453 845 473 827T493 779Q493 750
473 732T426 714Q400 714 381 732T361 779Z" />
<glyph unicode="&#x10b;" glyph-name="cdotaccent" horiz-adv-x="399" d="M401 357Q401 334 388 318T348 301Q325 301 313 314T300 348Q300 355 302 363T306 377Q308 385 310 392T313 405Q313 424 288 424Q268 424 249 409T212 365Q196 339 182 307T158 241T141
173T135 109Q135 71 151 51T199 30Q222 30 243 40T282 65T315 98T341 132L353 124Q337 97 316 73T269 30T211 2T141 -9Q111 -9 87 2T47 34T22 81T13 140Q13 176 22 210T48 274T86 330T131 376Q171 410 214 426T290 443Q342 443 371 419T401 357ZM359 589Q359 560
339 544T295 527Q270 527 252 544T233 589Q233 616 252 634T295 653Q319 653 339 636T359 589Z" />
<glyph unicode="&#x10c;" glyph-name="Ccaron" horiz-adv-x="580" d="M337 843L436 776L585 844L591 836Q585 831 563 812T517 770T473 730T451 708H398Q396 711 386 730T363 771T341 813T328 837L337 843ZM559 412H547Q551 533 514 590T415 647Q377 647 349 629T297
584Q278 564 255 522T210 424T175 305T161 177Q161 92 203 50Q218 36 237 30T277 24Q319 24 356 41T425 86T481 149T523 219L539 210Q521 169 494 129T430 58T351 6T260 -14Q198 -14 154 7T81 63T39 143T26 236Q26 326 57 405T141 543T264 636T415 670Q445 670
468 664T508 648T538 626T557 602H561L608 647H620L559 412Z" />
<glyph unicode="&#x10d;" glyph-name="ccaron" horiz-adv-x="399" d="M203 663L305 571L458 663L465 655Q448 638 425 614T380 565T339 520T313 492H260Q257 501 249 521T231 566T211 614T194 656L203 663ZM401 357Q401 334 388 318T348 301Q325 301 313 314T300
348Q300 355 302 363T306 377Q308 385 310 392T313 405Q313 424 288 424Q268 424 249 409T212 365Q196 339 182 307T158 241T141 173T135 109Q135 71 151 51T199 30Q222 30 243 40T282 65T315 98T341 132L353 124Q337 97 316 73T269 30T211 2T141 -9Q111 -9 87
2T47 34T22 81T13 140Q13 176 22 210T48 274T86 330T131 376Q171 410 214 426T290 443Q342 443 371 419T401 357Z" />
<glyph unicode="&#x10e;" glyph-name="Dcaron" horiz-adv-x="688" d="M334 843L433 776L582 844L588 836Q582 831 560 812T514 770T470 730T448 708H395Q393 711 383 730T360 771T338 813T325 837L334 843ZM674 407Q674 353 662 304T627 211T572 131T501 68Q459
39 405 20T289 0H-57L-55 11Q-46 12 -34 14T-14 18Q21 29 41 60Q55 83 66 118T90 203L155 462Q166 508 171 536T177 582Q177 605 168 617T142 637Q131 641 120 643T100 646L103 657H412Q479 657 528 636T610 581T658 501T674 407ZM535 471Q535 508 527 545T502
602Q485 620 462 627T407 634H379Q347 634 335 614T314 559L217 169Q208 135 204 116T200 80Q200 54 213 39Q229 23 265 23H287Q316 23 352 38T424 95Q445 120 464 158T500 244T525 349T535 471Z" />
<glyph unicode="&#x10f;" glyph-name="dcaron" horiz-adv-x="504" d="M604 684H686Q657 639 625 595T551 490H537L604 684ZM325 367Q322 423 287 423Q267 423 249 409T211 359Q194 331 179 292T150 213T130 139T122 88Q122 60 131 49T152 37Q166 37 179 47T207
74Q224 96 235 114T258 157Q270 184 282 214T303 273T318 326T325 367ZM254 113Q241 89 230 73T203 39Q180 15 155 3T105 -9Q63 -9 35 21T6 118Q6 171 30 228T95 333T184 412T285 443Q310 443 323 432T342 406H346L399 568Q407 591 410 605T414 630Q414 652 403
662Q398 667 387 669T364 674L368 684H548Q554 684 554 679Q554 675 550 666T541 642Q537 632 534 624T527 606T519 584T510 556Q504 538 497 515T481 465T463 412T446 359Q427 298 407 234Q388 175 377 131T365 64Q365 44 381 44Q393 44 406 51T432 71T458 99T482
133L495 126Q480 100 460 76T417 33T368 3T313 -9Q287 -9 268 7T248 59Q248 70 251 86T257 113H254Z" />
<glyph unicode="&#x110;" glyph-name="Dcroat" horiz-adv-x="688" d="M38 350H126L155 462Q166 508 171 536T177 582Q177 605 168 617T142 637Q131 641 120 643T100 646L103 657H412Q479 657 528 636T610 581T658 501T674 407Q674 298 627 210T501 68Q459 39 405
20T289 0H-57L-55 11Q-46 12 -34 14T-14 18Q21 29 41 60Q55 83 66 118T90 203L120 322H31L38 350ZM423 95Q444 120 464 158T499 244T525 349T535 471Q535 508 527 545T502 602Q485 620 462 627T407 634H379Q347 634 335 614T314 559L261 350H393L387 322H255L217
169Q208 135 204 116T200 80Q200 54 213 39Q229 23 265 23H287Q316 23 352 38T423 95Z" />
<glyph unicode="&#x111;" glyph-name="dcroat" horiz-adv-x="504" d="M568 539H258L265 561H575L568 539ZM325 367Q322 423 287 423Q267 423 249 409T211 359Q194 331 179 292T150 213T130 139T122 88Q122 60 131 49T152 37Q166 37 179 47T207 74Q224 96 235 114T258
157Q270 184 282 214T303 273T318 326T325 367ZM254 113Q241 89 230 73T203 39Q180 15 155 3T105 -9Q63 -9 35 21T6 118Q6 171 30 228T95 333T184 412T285 443Q310 443 323 432T342 406H346L399 568Q407 591 410 605T414 630Q414 652 403 662Q398 667 387 669T364
674L368 684H548Q554 684 554 679Q554 675 550 666T541 642Q537 632 534 624T527 606T519 584T510 556Q504 538 497 515T481 465T463 412T446 359Q427 298 407 234Q388 175 377 131T365 64Q365 44 381 44Q393 44 406 51T432 71T458 99T482 133L495 126Q480 100
460 76T417 33T368 3T313 -9Q287 -9 268 7T248 59Q248 70 251 86T257 113H254Z" />
<glyph unicode="&#x112;" glyph-name="Emacron" horiz-adv-x="601" d="M586 451H574Q568 489 555 524T524 585Q510 604 488 619T427 634H400Q358 634 340 611T310 545L262 352H290Q333 352 355 359T394 381Q417 400 435 428T461 481H472L401 197H390Q391 209 391
223T390 252T384 278T374 300Q365 312 346 320T287 329H257L217 169Q208 133 204 111T202 73Q204 44 221 34T269 23H296Q333 23 366 40T428 82Q470 118 500 156T546 221H558L489 0H-57L-55 11Q-46 12 -35 14T-15 18Q21 29 40 60Q55 83 66 118T90 203L154 462Q165
508 171 536T177 582Q177 605 168 617T142 637Q131 642 120 643T100 646L102 657H593L586 451ZM257 718L268 764H534L523 718H257Z" />
<glyph unicode="&#x113;" glyph-name="emacron" horiz-adv-x="391" d="M351 125Q336 99 316 75T270 32T212 2T141 -9Q82 -9 47 33T12 144Q12 219 48 278T138 381Q176 411 214 427T283 443Q341 443 365 421T389 364Q389 343 378 324T346 288Q333 277 312 265T263
241T206 219T145 199Q140 172 137 145T134 93Q134 61 147 43T185 24Q214 24 238 35T281 62T314 97T339 132L351 125ZM149 218Q181 229 211 244T259 276Q270 286 278 300T292 330T300 359T303 385Q303 402 298 413T278 424Q258 424 239 408T202 363T172 297T149
218ZM166 549L178 595H416L404 549H166Z" />
<glyph unicode="&#x114;" glyph-name="Ebreve" horiz-adv-x="601" d="M586 451H574Q568 489 555 524T524 585Q510 604 488 619T427 634H400Q358 634 340 611T310 545L262 352H290Q333 352 355 359T394 381Q417 400 435 428T461 481H472L401 197H390Q391 209 391
223T390 252T384 278T374 300Q365 312 346 320T287 329H257L217 169Q208 133 204 111T202 73Q204 44 221 34T269 23H296Q333 23 366 40T428 82Q470 118 500 156T546 221H558L489 0H-57L-55 11Q-46 12 -35 14T-15 18Q21 29 40 60Q55 83 66 118T90 203L154 462Q165
508 171 536T177 582Q177 605 168 617T142 637Q131 642 120 643T100 646L102 657H593L586 451ZM298 846Q306 809 335 792T403 775Q445 775 480 791T536 845L546 839Q537 780 499 743T395 705Q349 705 317 731T283 804Q283 822 286 840L298 846Z" />
<glyph unicode="&#x115;" glyph-name="ebreve" horiz-adv-x="391" d="M351 125Q336 99 316 75T270 32T212 2T141 -9Q82 -9 47 33T12 144Q12 219 48 278T138 381Q176 411 214 427T283 443Q341 443 365 421T389 364Q389 343 378 324T346 288Q333 277 312 265T263
241T206 219T145 199Q140 172 137 145T134 93Q134 61 147 43T185 24Q214 24 238 35T281 62T314 97T339 132L351 125ZM149 218Q181 229 211 244T259 276Q270 286 278 300T292 330T300 359T303 385Q303 402 298 413T278 424Q258 424 239 408T202 363T172 297T149
218ZM185 673Q194 632 224 614T289 595Q367 595 415 673L427 667Q422 638 411 612T382 567T339 536T282 524Q234 524 202 552T170 631Q170 649 173 667L185 673Z" />
<glyph unicode="&#x116;" glyph-name="Edotaccent" horiz-adv-x="601" d="M325 779Q325 808 344 826T390 845Q417 845 437 827T457 779Q457 750 437 732T390 714Q364 714 345 732T325 779ZM586 451H574Q568 489 555 524T524 585Q510 604 488 619T427 634H400Q358
634 340 611T310 545L262 352H290Q333 352 355 359T394 381Q417 400 435 428T461 481H472L401 197H390Q391 209 391 223T390 252T384 278T374 300Q365 312 346 320T287 329H257L217 169Q208 133 204 111T202 73Q204 44 221 34T269 23H296Q333 23 366 40T428 82Q470
118 500 156T546 221H558L489 0H-57L-55 11Q-46 12 -35 14T-15 18Q21 29 40 60Q55 83 66 118T90 203L154 462Q165 508 171 536T177 582Q177 605 168 617T142 637Q131 642 120 643T100 646L102 657H593L586 451Z" />
<glyph unicode="&#x117;" glyph-name="edotaccent" horiz-adv-x="391" d="M351 125Q336 99 316 75T270 32T212 2T141 -9Q82 -9 47 33T12 144Q12 219 48 278T138 381Q176 411 214 427T283 443Q341 443 365 421T389 364Q389 343 378 324T346 288Q333 277 312 265T263
241T206 219T145 199Q140 172 137 145T134 93Q134 61 147 43T185 24Q214 24 238 35T281 62T314 97T339 132L351 125ZM149 218Q181 229 211 244T259 276Q270 286 278 300T292 330T300 359T303 385Q303 402 298 413T278 424Q258 424 239 408T202 363T172 297T149
218ZM347 589Q347 560 327 544T283 527Q258 527 240 544T221 589Q221 616 240 634T283 653Q307 653 327 636T347 589Z" />
<glyph unicode="&#x118;" glyph-name="Eogonek" horiz-adv-x="601" d="M586 451H574Q568 489 555 524T524 585Q510 604 488 619T427 634H400Q358 634 340 611T310 545L262 352H290Q333 352 355 359T394 381Q417 400 435 428T461 481H472L401 197H390Q391 209 391
223T390 252T384 278T374 300Q365 312 346 320T287 329H257L217 169Q208 133 204 111T202 73Q204 44 221 34T269 23H296Q333 23 366 40T428 82Q470 118 500 156T546 221H558L489 0H396Q379 -13 362 -28T330 -62T308 -100T299 -143Q299 -197 362 -204L360 -214Q282
-217 246 -196T210 -139Q210 -113 227 -93T271 -57T325 -27T377 0H-57L-55 11Q-46 12 -35 14T-15 18Q21 29 40 60Q55 83 66 118T90 203L154 462Q165 508 171 536T177 582Q177 605 168 617T142 637Q131 642 120 643T100 646L102 657H593L586 451Z" />
<glyph unicode="&#x119;" glyph-name="eogonek" horiz-adv-x="391" d="M161 -214Q83 -216 48 -195T12 -139Q12 -115 28 -96T70 -61T124 -32T177 -6Q168 -8 159 -8T141 -9Q82 -9 47 33T12 144Q12 181 22 216T51 283T94 340T145 388Q181 415 217 429T283 443Q341
443 365 421T389 364Q389 341 376 321T340 283Q312 262 259 239T145 199Q140 172 137 145T134 93Q134 61 147 43T185 24Q214 24 238 35T281 62T314 97T339 132L351 125Q331 90 303 61T240 13Q213 -1 188 -16T144 -50T113 -92T101 -143Q101 -170 116 -185T164 -204L161
-214ZM303 385Q303 402 298 413T278 424Q258 424 239 408T202 363T172 297T149 218Q178 228 201 238T241 262Q257 274 268 289T287 320T299 354T303 385Z" />
<glyph unicode="&#x11a;" glyph-name="Ecaron" horiz-adv-x="601" d="M302 843L401 776L550 844L556 836Q550 831 528 812T482 770T438 730T416 708H363Q361 711 351 730T328 771T306 813T293 837L302 843ZM586 451H574Q568 489 555 524T524 585Q510 604 488 619T427
634H400Q358 634 340 611T310 545L262 352H290Q333 352 355 359T394 381Q417 400 435 428T461 481H472L401 197H390Q391 209 391 223T390 252T384 278T374 300Q365 312 346 320T287 329H257L217 169Q208 133 204 111T202 73Q204 44 221 34T269 23H296Q333 23 366
40T428 82Q470 118 500 156T546 221H558L489 0H-57L-55 11Q-46 12 -35 14T-15 18Q21 29 40 60Q55 83 66 118T90 203L154 462Q165 508 171 536T177 582Q177 605 168 617T142 637Q131 642 120 643T100 646L102 657H593L586 451Z" />
<glyph unicode="&#x11b;" glyph-name="ecaron" horiz-adv-x="391" d="M191 663L293 571L446 663L453 655Q436 638 413 614T368 565T327 520T301 492H248Q245 501 237 521T219 566T199 614T182 656L191 663ZM351 125Q336 99 316 75T270 32T212 2T141 -9Q82 -9 47
33T12 144Q12 219 48 278T138 381Q176 411 214 427T283 443Q341 443 365 421T389 364Q389 343 378 324T346 288Q333 277 312 265T263 241T206 219T145 199Q140 172 137 145T134 93Q134 61 147 43T185 24Q214 24 238 35T281 62T314 97T339 132L351 125ZM149 218Q181
229 211 244T259 276Q270 286 278 300T292 330T300 359T303 385Q303 402 298 413T278 424Q258 424 239 408T202 363T172 297T149 218Z" />
<glyph unicode="&#x11c;" glyph-name="Gcircumflex" horiz-adv-x="628" d="M535 706L437 773L287 706L282 714Q286 717 297 727T323 751T355 780T386 808T410 830T422 841H475Q476 838 486 820T509 779T531 737T544 713L535 706ZM641 288Q624 287 609 282Q595
277 584 270T563 249Q551 233 543 212T526 156L492 16H483Q478 20 469 25T447 30Q436 30 418 24T385 11Q364 1 333 -6T272 -14Q210 -14 164 7T87 63T40 143T24 237Q24 325 55 404T140 542T265 635T417 670Q479 670 515 649T566 603H571L615 647H627L568 416H556Q558
476 549 519T522 591T477 634T420 648Q375 648 349 631T296 583Q278 564 255 522T210 423T175 302T160 172Q160 132 167 101T198 44Q214 28 236 20T279 12Q310 12 330 19T363 42Q376 57 384 77T397 121L408 166Q413 188 415 203T417 229Q417 248 410 258T389 276Q372
285 347 288L349 298H644L641 288Z" />
<glyph unicode="&#x11d;" glyph-name="gcircumflex" horiz-adv-x="426" d="M393 497L291 586L138 497L131 505Q147 522 170 546T215 595T256 640T283 668H335Q339 659 347 639T365 594T384 546T401 503L393 497ZM128 -213Q86 -213 50 -206T-13 -186T-55 -152T-70
-104Q-70 -88 -60 -73T-31 -46T12 -25T68 -13V-10Q34 1 18 24T1 77Q1 97 10 113T34 141T68 161T109 173Q82 190 67 219T51 283Q51 322 68 351T111 401T171 432T238 443Q274 443 301 429T345 392H348Q353 420 375 437T427 454Q453 454 468 440T484 404Q484 381 472
372T445 362Q431 362 422 369T404 389Q397 399 393 406T380 413Q374 413 368 404T361 377Q361 369 363 362T368 347Q370 339 372 329T374 310Q374 271 358 242T314 192T254 162T188 151Q168 151 153 155T127 163Q107 159 95 150T82 127Q82 107 108 100T189 83Q239
75 274 65T332 40T364 4T374 -48Q374 -87 355 -118T302 -170T224 -202T128 -213ZM131 -195Q164 -195 193 -189T245 -170T279 -141T292 -101Q292 -74 265 -61T172 -35Q156 -32 136 -28L96 -20Q80 -23 63 -28T32 -44T8 -70T-1 -109Q-1 -153 33 -174T131 -195ZM237
425Q200 425 178 376Q172 361 166 343T156 304T149 265T146 231Q146 203 155 186T188 169Q226 169 248 217Q254 232 260 251T270 290T276 329T279 363Q279 391 270 408T237 425Z" />
<glyph unicode="&#x11e;" glyph-name="Gbreve" horiz-adv-x="628" d="M328 846Q336 809 365 792T433 775Q475 775 510 791T566 845L576 839Q567 780 529 743T425 705Q379 705 347 731T313 804Q313 822 316 840L328 846ZM641 288Q624 287 609 282Q595 277 584 270T563
249Q551 233 543 212T526 156L492 16H483Q478 20 469 25T447 30Q436 30 418 24T385 11Q364 1 333 -6T272 -14Q210 -14 164 7T87 63T40 143T24 237Q24 325 55 404T140 542T265 635T417 670Q479 670 515 649T566 603H571L615 647H627L568 416H556Q558 476 549 519T522
591T477 634T420 648Q375 648 349 631T296 583Q278 564 255 522T210 423T175 302T160 172Q160 132 167 101T198 44Q214 28 236 20T279 12Q310 12 330 19T363 42Q376 57 384 77T397 121L408 166Q413 188 415 203T417 229Q417 248 410 258T389 276Q372 285 347 288L349
298H644L641 288Z" />
<glyph unicode="&#x11f;" glyph-name="gbreve" horiz-adv-x="426" d="M128 -213Q86 -213 50 -206T-13 -186T-55 -152T-70 -104Q-70 -88 -60 -73T-31 -46T12 -25T68 -13V-10Q34 1 18 24T1 77Q1 97 10 113T34 141T68 161T109 173Q82 190 67 219T51 283Q51 322 68
351T111 401T171 432T238 443Q274 443 301 429T345 392H348Q353 420 375 437T427 454Q453 454 468 440T484 404Q484 381 472 372T445 362Q431 362 422 369T404 389Q397 399 393 406T380 413Q374 413 368 404T361 377Q361 369 363 362T368 347Q370 339 372 329T374
310Q374 271 358 242T314 192T254 162T188 151Q168 151 153 155T127 163Q107 159 95 150T82 127Q82 107 108 100T189 83Q239 75 274 65T332 40T364 4T374 -48Q374 -87 355 -118T302 -170T224 -202T128 -213ZM131 -195Q164 -195 193 -189T245 -170T279 -141T292
-101Q292 -74 265 -61T172 -35Q156 -32 136 -28L96 -20Q80 -23 63 -28T32 -44T8 -70T-1 -109Q-1 -153 33 -174T131 -195ZM237 425Q200 425 178 376Q172 361 166 343T156 304T149 265T146 231Q146 203 155 186T188 169Q226 169 248 217Q254 232 260 251T270 290T276
329T279 363Q279 391 270 408T237 425ZM180 673Q189 632 219 614T284 595Q362 595 410 673L422 667Q417 638 406 612T377 567T334 536T277 524Q229 524 197 552T165 631Q165 649 168 667L180 673Z" />
<glyph unicode="&#x120;" glyph-name="Gdotaccent" horiz-adv-x="628" d="M355 779Q355 808 374 826T420 845Q447 845 467 827T487 779Q487 750 467 732T420 714Q394 714 375 732T355 779ZM641 288Q624 287 609 282Q595 277 584 270T563 249Q551 233 543 212T526
156L492 16H483Q478 20 469 25T447 30Q436 30 418 24T385 11Q364 1 333 -6T272 -14Q210 -14 164 7T87 63T40 143T24 237Q24 325 55 404T140 542T265 635T417 670Q479 670 515 649T566 603H571L615 647H627L568 416H556Q558 476 549 519T522 591T477 634T420 648Q375
648 349 631T296 583Q278 564 255 522T210 423T175 302T160 172Q160 132 167 101T198 44Q214 28 236 20T279 12Q310 12 330 19T363 42Q376 57 384 77T397 121L408 166Q413 188 415 203T417 229Q417 248 410 258T389 276Q372 285 347 288L349 298H644L641 288Z"
/>
<glyph unicode="&#x121;" glyph-name="gdotaccent" horiz-adv-x="426" d="M128 -213Q86 -213 50 -206T-13 -186T-55 -152T-70 -104Q-70 -88 -60 -73T-31 -46T12 -25T68 -13V-10Q34 1 18 24T1 77Q1 97 10 113T34 141T68 161T109 173Q82 190 67 219T51 283Q51 322
68 351T111 401T171 432T238 443Q274 443 301 429T345 392H348Q353 420 375 437T427 454Q453 454 468 440T484 404Q484 381 472 372T445 362Q431 362 422 369T404 389Q397 399 393 406T380 413Q374 413 368 404T361 377Q361 369 363 362T368 347Q370 339 372 329T374
310Q374 271 358 242T314 192T254 162T188 151Q168 151 153 155T127 163Q107 159 95 150T82 127Q82 107 108 100T189 83Q239 75 274 65T332 40T364 4T374 -48Q374 -87 355 -118T302 -170T224 -202T128 -213ZM131 -195Q164 -195 193 -189T245 -170T279 -141T292
-101Q292 -74 265 -61T172 -35Q156 -32 136 -28L96 -20Q80 -23 63 -28T32 -44T8 -70T-1 -109Q-1 -153 33 -174T131 -195ZM237 425Q200 425 178 376Q172 361 166 343T156 304T149 265T146 231Q146 203 155 186T188 169Q226 169 248 217Q254 232 260 251T270 290T276
329T279 363Q279 391 270 408T237 425ZM342 589Q342 560 322 544T278 527Q253 527 235 544T216 589Q216 616 235 634T278 653Q302 653 322 636T342 589Z" />
<glyph unicode="&#x122;" glyph-name="Gcommaaccent" horiz-adv-x="628" d="M300 -104Q300 -162 259 -196T151 -249L146 -234Q186 -222 214 -205T242 -168Q242 -159 228 -153Q207 -148 193 -133T178 -96Q178 -68 196 -53T241 -37Q265 -37 282 -54T300 -104ZM641
288Q624 287 609 282Q595 277 584 270T563 249Q551 233 543 212T526 156L492 16H483Q478 20 469 25T447 30Q436 30 418 24T385 11Q364 1 333 -6T272 -14Q210 -14 164 7T87 63T40 143T24 237Q24 325 55 404T140 542T265 635T417 670Q479 670 515 649T566 603H571L615
647H627L568 416H556Q558 476 549 519T522 591T477 634T420 648Q375 648 349 631T296 583Q278 564 255 522T210 423T175 302T160 172Q160 132 167 101T198 44Q214 28 236 20T279 12Q310 12 330 19T363 42Q376 57 384 77T397 121L408 166Q413 188 415 203T417 229Q417
248 410 258T389 276Q372 285 347 288L349 298H644L641 288Z" />
<glyph unicode="&#x123;" glyph-name="gcommaaccent" horiz-adv-x="426" d="M213 589Q213 646 253 678T361 727L365 712Q326 701 299 686T271 652Q271 642 284 636Q306 631 320 617T335 580Q335 552 317 536T272 520Q248 520 231 538T213 589ZM128 -213Q86 -213
50 -206T-13 -186T-55 -152T-70 -104Q-70 -88 -60 -73T-31 -46T12 -25T68 -13V-10Q34 1 18 24T1 77Q1 97 10 113T34 141T68 161T109 173Q82 190 67 219T51 283Q51 322 68 351T111 401T171 432T238 443Q274 443 301 429T345 392H348Q353 420 375 437T427 454Q453
454 468 440T484 404Q484 381 472 372T445 362Q431 362 422 369T404 389Q397 399 393 406T380 413Q374 413 368 404T361 377Q361 369 363 362T368 347Q370 339 372 329T374 310Q374 271 358 242T314 192T254 162T188 151Q168 151 153 155T127 163Q107 159 95 150T82
127Q82 107 108 100T189 83Q239 75 274 65T332 40T364 4T374 -48Q374 -87 355 -118T302 -170T224 -202T128 -213ZM131 -195Q164 -195 193 -189T245 -170T279 -141T292 -101Q292 -74 265 -61T172 -35Q156 -32 136 -28L96 -20Q80 -23 63 -28T32 -44T8 -70T-1 -109Q-1
-153 33 -174T131 -195ZM237 425Q200 425 178 376Q172 361 166 343T156 304T149 265T146 231Q146 203 155 186T188 169Q226 169 248 217Q254 232 260 251T270 290T276 329T279 363Q279 391 270 408T237 425Z" />
<glyph unicode="&#x124;" glyph-name="Hcircumflex" horiz-adv-x="733" d="M804 646Q795 645 784 643T764 639Q747 634 733 624T707 597Q693 574 682 539T659 454L596 199Q585 153 579 123T573 75Q573 52 582 40T609 21Q620 16 631 14T650 11L648 0H325L327 11Q336
12 345 14T361 18Q378 24 391 33T414 59Q428 82 438 117T462 202L491 319H254L223 197Q212 151 206 121T200 74Q200 51 208 40T233 20Q241 16 250 14T267 11L265 0H-57L-55 11Q-46 12 -35 14T-15 18Q2 24 16 34T40 60Q55 83 66 118T90 203L153 458Q164 504 170
534T176 582Q176 605 167 617T141 637Q130 641 119 643T99 646L101 657H424L421 646Q413 645 405 643L389 639Q372 633 359 623T334 597Q320 574 310 540T287 455L260 346H498L526 460Q537 506 543 535T549 583Q549 603 541 616T516 637Q507 642 499 643T482 646L484
657H807L804 646ZM588 706L490 773L340 706L335 714Q339 717 350 727T376 751T408 780T439 808T463 830T475 841H528Q529 838 539 820T562 779T584 737T597 713L588 706Z" />
<glyph unicode="&#x125;" glyph-name="hcircumflex" horiz-adv-x="514" d="M-15 0Q-14 4 -1 43T31 139T72 264T114 394T150 503T172 568Q180 591 183 605T187 630Q187 653 177 662Q172 667 161 669T138 674L141 684H321Q326 684 326 679Q326 675 322 666T313 642Q309
632 306 624T300 606T292 584T283 556L194 280H200Q249 370 298 406T388 443Q427 443 444 422T462 366Q462 336 450 300T416 205Q407 181 399 159T385 117T376 84T372 62Q372 43 386 43Q396 43 409 50T437 70T465 98T490 133L502 125Q487 99 466 75T420 33T367
3T310 -9Q282 -9 265 7T248 53Q248 66 253 86T266 129T284 179T303 231Q323 282 336 318T349 372Q349 385 344 389T330 394Q318 394 300 381T260 340T213 266T162 156Q156 140 149 121T134 80T119 39T105 0H-15ZM496 711L398 778L248 711L243 719Q247 722 258 732T284
756T316 785T347 813T371 835T383 846H436Q437 843 447 825T470 784T492 742T505 718L496 711Z" />
<glyph unicode="&#x126;" glyph-name="Hbar" horiz-adv-x="733" d="M804 646Q795 645 784 643T764 639Q747 634 733 624T707 597Q695 578 686 550T667 486H763L757 460H661L658 448Q655 437 651 419T640 377T628 329L596 199Q585 153 579 123T573 75Q573 52 582
40T609 21Q620 16 631 14T650 11L648 0H325L327 11Q336 12 345 14T361 18Q378 24 391 33T414 59Q428 82 438 117T462 202L491 319H254L223 197Q212 151 206 121T200 74Q200 51 208 40T233 20Q241 16 250 14T267 11L265 0H-57L-55 11Q-46 12 -35 14T-15 18Q2 24
16 34T40 60Q55 83 66 118T90 203L153 460H55L61 486H160Q168 520 172 544T176 582Q176 605 167 617T141 637Q130 641 119 643T99 646L101 657H424L421 646Q413 645 405 643L389 639Q372 633 359 623T334 597Q322 578 313 551T295 486H532Q540 520 544 544T549
583Q549 603 541 616T516 637Q507 642 499 643T482 646L484 657H807L804 646ZM260 346H498L525 460H289L260 346Z" />
<glyph unicode="&#x127;" glyph-name="hbar" horiz-adv-x="514" d="M502 125Q487 99 466 75T420 33T367 3T310 -9Q282 -9 265 7T248 53Q248 66 253 86T266 129T284 179T303 231Q323 282 336 318T349 372Q349 385 344 389T330 394Q318 394 300 381T260 340T213
266T162 156Q156 140 149 121T134 80T119 39T105 0H-15Q-14 4 -1 43T31 139T72 264T114 394T150 503Q157 524 162 539H94L101 561H169Q171 565 172 568Q180 591 183 605T187 630Q187 653 177 662Q172 667 161 669T138 674L141 684H321Q326 684 326 679Q326 675
322 666T313 642Q306 623 300 605Q294 589 284 561H407L400 539H277L194 280H200Q249 370 298 406T388 443Q427 443 444 422T462 366Q462 336 450 300T416 205Q407 181 399 159T385 117T376 84T372 62Q372 43 386 43Q396 43 409 50T437 70T465 98T490 133L502 125Z"
/>
<glyph unicode="&#x128;" glyph-name="Itilde" horiz-adv-x="361" d="M432 646Q423 645 411 643T391 639Q374 634 360 624T335 597Q321 574 310 539T287 454L224 198Q213 152 207 122T201 75Q201 52 210 40T236 20Q247 15 258 14T278 11L275 0H-57L-55 11Q-46
12 -35 14T-15 18Q2 23 16 33T40 60Q55 83 66 118T90 203L153 459Q164 504 170 534T176 582Q176 605 167 617T141 637Q130 642 119 643T99 646L102 657H434L432 646ZM460 831Q445 783 417 752T344 721Q327 721 311 725T278 735T247 745T218 750Q198 750 179 742T142
709L130 713Q148 762 179 791T255 820Q269 820 283 816T312 807T342 798T372 794Q397 794 414 800T448 833L460 831Z" />
<glyph unicode="&#x129;" glyph-name="itilde" horiz-adv-x="290" d="M279 125Q264 99 243 75T197 32T144 2T87 -10Q60 -10 43 7T26 53Q26 66 31 86T44 129T62 179T81 230Q88 251 96 272T110 312T121 346T125 371Q125 395 106 395Q94 395 73 377T22 311L9 318Q45
383 92 413T180 443Q210 443 225 426T241 378Q241 358 229 315T196 219Q187 193 179 168T164 121T153 85T149 62Q149 43 164 43Q174 43 187 50T214 70T242 98T267 133L279 125ZM633 640Q618 592 590 561T518 529Q501 529 485 533T453 543T422 552T393 557Q374 557
354 547T317 512L305 516Q323 566 354 597T430 629Q444 629 458 625T487 616T517 607T547 603Q572 603 588 610T622 643L633 640Z" />
<glyph unicode="&#x12a;" glyph-name="Imacron" horiz-adv-x="361" d="M432 646Q423 645 411 643T391 639Q374 634 360 624T335 597Q321 574 310 539T287 454L224 198Q213 152 207 122T201 75Q201 52 210 40T236 20Q247 15 258 14T278 11L275 0H-57L-55 11Q-46
12 -35 14T-15 18Q2 23 16 33T40 60Q55 83 66 118T90 203L153 459Q164 504 170 534T176 582Q176 605 167 617T141 637Q130 642 119 643T99 646L102 657H434L432 646ZM152 718L163 764H429L418 718H152Z" />
<glyph unicode="&#x12b;" glyph-name="imacron" horiz-adv-x="290" d="M85 549L97 595H318L307 549H85ZM279 125Q264 99 243 75T197 32T144 2T87 -10Q60 -10 43 7T26 53Q26 66 31 86T44 129T62 179T81 230Q88 251 96 272T110 312T121 346T125 371Q125 395 106
395Q94 395 73 377T22 311L9 318Q45 383 92 413T180 443Q210 443 225 426T241 378Q241 358 229 315T196 219Q187 193 179 168T164 121T153 85T149 62Q149 43 164 43Q174 43 187 50T214 70T242 98T267 133L279 125Z" />
<glyph unicode="&#x12c;" glyph-name="Ibreve" horiz-adv-x="361" d="M432 646Q423 645 411 643T391 639Q374 634 360 624T335 597Q321 574 310 539T287 454L224 198Q213 152 207 122T201 75Q201 52 210 40T236 20Q247 15 258 14T278 11L275 0H-57L-55 11Q-46
12 -35 14T-15 18Q2 23 16 33T40 60Q55 83 66 118T90 203L153 459Q164 504 170 534T176 582Q176 605 167 617T141 637Q130 642 119 643T99 646L102 657H434L432 646ZM193 846Q201 809 230 792T298 775Q340 775 375 791T431 845L441 839Q432 780 394 743T290 705Q244
705 212 731T178 804Q178 822 181 840L193 846Z" />
<glyph unicode="&#x12d;" glyph-name="ibreve" horiz-adv-x="290" d="M279 125Q264 99 243 75T197 32T144 2T87 -10Q60 -10 43 7T26 53Q26 66 31 86T44 129T62 179T81 230Q88 251 96 272T110 312T121 346T125 371Q125 395 106 395Q94 395 73 377T22 311L9 318Q45
383 92 413T180 443Q210 443 225 426T241 378Q241 358 229 315T196 219Q187 193 179 168T164 121T153 85T149 62Q149 43 164 43Q174 43 187 50T214 70T242 98T267 133L279 125ZM121 673Q130 632 160 614T225 595Q303 595 351 673L363 667Q358 638 347 612T318 567T275
536T218 524Q170 524 138 552T106 631Q106 649 109 667L121 673Z" />
<glyph unicode="&#x12e;" glyph-name="Iogonek" horiz-adv-x="361" d="M432 646Q423 645 411 643T391 639Q374 634 360 624T335 597Q321 574 310 539T287 454L224 198Q213 152 207 122T201 75Q201 52 210 40T236 20Q247 15 258 14T278 11L275 0H173Q140 -27 114
-62T87 -143Q87 -197 150 -204L148 -214Q70 -217 34 -196T-2 -139Q-2 -114 14 -95T54 -59T105 -28T154 0H-57L-55 11Q-46 12 -35 14T-15 18Q2 23 16 33T40 60Q55 83 66 118T90 203L153 459Q164 504 170 534T176 582Q176 605 167 617T141 637Q130 642 119 643T99
646L102 657H434L432 646Z" />
<glyph unicode="&#x12f;" glyph-name="iogonek" horiz-adv-x="290" d="M-47 -139Q-47 -115 -31 -97T8 -62T59 -33Q86 -20 109 -7Q98 -10 88 -10Q60 -9 44 7T27 53Q27 66 32 86T45 131T62 180T81 230Q88 251 96 272T110 312T121 346T125 371Q125 395 106 395Q94
395 73 377T22 311L9 318Q45 383 92 413T180 443Q210 443 225 426T241 378Q241 358 228 315T196 219Q187 193 179 168T164 121T154 85T150 62Q150 43 164 43Q174 43 187 50T215 70T242 98T267 133L279 125Q259 91 231 62T168 12Q145 -1 123 -16T82 -51T53 -93T42
-143Q42 -197 105 -204L103 -214Q25 -217 -11 -196T-47 -139ZM228 527Q203 527 184 544T165 589Q165 616 184 634T228 653Q252 653 271 636T291 589Q291 560 272 544T228 527Z" />
<glyph unicode="&#x130;" glyph-name="Idotaccent" horiz-adv-x="361" d="M432 646Q423 645 411 643T391 639Q374 634 360 624T335 597Q321 574 310 539T287 454L224 198Q213 152 207 122T201 75Q201 52 210 40T236 20Q247 15 258 14T278 11L275 0H-57L-55 11Q-46
12 -35 14T-15 18Q2 23 16 33T40 60Q55 83 66 118T90 203L153 459Q164 504 170 534T176 582Q176 605 167 617T141 637Q130 642 119 643T99 646L102 657H434L432 646ZM220 779Q220 808 239 826T285 845Q312 845 332 827T352 779Q352 750 332 732T285 714Q259 714
240 732T220 779Z" />
<glyph unicode="&#x131;" glyph-name="dotlessi" horiz-adv-x="290" d="M279 125Q264 99 243 75T197 32T144 2T87 -10Q60 -10 43 7T26 53Q26 66 31 86T44 129T62 179T81 230Q88 251 96 272T110 312T121 346T125 371Q125 395 106 395Q94 395 73 377T22 311L9 318Q45
383 92 413T180 443Q210 443 225 426T241 378Q241 358 229 315T196 219Q187 193 179 168T164 121T153 85T149 62Q149 43 164 43Q174 43 187 50T214 70T242 98T267 133L279 125Z" />
<glyph unicode="&#x132;" glyph-name="IJ" horiz-adv-x="781" d="M432 646Q423 645 411 643T391 639Q374 634 360 624T335 597Q321 574 310 539T287 454L224 198Q213 152 207 122T201 75Q201 52 210 40T236 20Q247 15 258 14T278 11L275 0H-57L-55 11Q-46 12 -35
14T-15 18Q2 23 16 33T40 60Q55 83 66 118T90 203L153 459Q164 504 170 534T176 582Q176 605 167 617T141 637Q130 642 119 643T99 646L102 657H434L432 646ZM869 646Q860 645 848 643T828 639Q793 628 772 596Q757 573 747 538T724 454L657 185Q647 144 627 108T577
45T507 2T416 -14Q380 -14 353 -4T309 23T284 62T275 107Q275 145 298 168T355 191Q386 191 406 171T427 119Q427 96 418 82T403 61Q396 53 389 45T381 29Q381 18 390 13T410 7Q444 7 468 34Q484 53 494 81T512 146L589 458Q600 504 606 534T613 582Q613 605 604
617T577 637Q566 641 555 643T536 646L539 657H871L869 646Z" />
<glyph unicode="&#x133;" glyph-name="ij" horiz-adv-x="537" d="M291 589Q291 560 272 544T228 527Q203 527 184 544T165 589Q165 616 184 634T228 653Q252 653 271 636T291 589ZM125 371Q125 395 106 395Q94 395 73 377T22 311L9 318Q45 383 92 413T180 443Q210
443 225 426T241 378Q241 358 228 315T196 219Q187 193 179 168T164 121T154 85T150 62Q150 43 164 43Q174 43 187 50T215 70T242 98T267 133L279 125Q264 99 243 75T198 32T145 2T88 -10Q60 -10 44 7T27 53Q27 66 32 86T45 131T62 180T81 230Q88 251 96 272T110
312T121 346T125 371ZM581 591Q581 562 562 545T518 528Q493 528 474 546T455 591Q455 618 474 636T518 654Q542 654 561 637T581 591ZM459 143Q435 76 417 30T382 -48T351 -103T318 -143Q289 -173 250 -193T165 -213Q118 -213 86 -189T53 -124Q53 -98 69 -80T111
-62Q141 -62 155 -79T169 -117Q169 -130 166 -139T159 -157Q156 -163 154 -169T151 -178Q151 -185 156 -189T169 -193Q187 -193 201 -184T231 -150Q238 -140 247 -117T268 -65T291 -2T313 63T333 120T347 163Q357 191 368 224T389 288T405 340T411 371Q411 394
391 394Q379 394 358 376T307 311L294 318Q330 383 377 413T465 443Q497 443 513 426T529 378Q529 366 522 339T505 277T482 207T459 143Z" />
<glyph unicode="&#x134;" glyph-name="Jcircumflex" horiz-adv-x="448" d="M506 706L408 773L258 706L253 714Q257 717 268 727T294 751T326 780T357 808T381 830T393 841H446Q447 838 457 820T480 779T502 737T515 713L506 706ZM535 646Q526 645 515 643T495
639Q478 634 464 623T439 596Q424 573 414 538T390 454L323 182Q314 143 294 108T242 45T170 2T78 -14Q42 -14 14 -4T-32 23T-61 62T-71 109Q-71 147 -49 170T8 193Q39 193 60 173T81 120Q81 97 72 84T58 63Q51 55 44 47T36 32Q36 21 48 14T72 7Q92 7 106 13T135
35Q152 55 161 83T179 146L256 458Q267 504 273 534T279 582Q279 605 270 617T244 637Q233 641 222 643T203 646L205 657H538L535 646Z" />
<glyph unicode="&#x135;" glyph-name="jcircumflex" horiz-adv-x="256" d="M248 378Q248 366 241 339T224 277T201 207T178 143Q154 76 136 30T101 -48T70 -103T37 -143Q8 -173 -31 -193T-116 -213Q-163 -213 -195 -189T-228 -124Q-228 -98 -212 -80T-170 -62Q-140
-62 -126 -79T-112 -117Q-112 -130 -115 -139T-122 -157Q-125 -163 -127 -169T-130 -178Q-130 -185 -125 -189T-112 -193Q-94 -193 -80 -184T-50 -150Q-43 -140 -34 -117T-13 -65T10 -2T32 63T52 120T66 163Q76 191 87 224T108 288T124 340T130 371Q130 394 110
394Q98 394 77 376T26 311L13 318Q49 383 96 413T184 443Q216 443 232 426T248 378ZM592 497L490 586L337 497L330 505Q346 522 369 546T414 595T455 640T482 668H534Q538 659 546 639T564 594T583 546T600 503L592 497Z" />
<glyph unicode="&#x136;" glyph-name="Kcommaaccent" horiz-adv-x="665" d="M361 -104Q361 -162 320 -196T212 -249L207 -234Q247 -222 275 -205T303 -168Q303 -159 289 -153Q268 -148 254 -133T239 -96Q239 -68 257 -53T302 -37Q326 -37 343 -54T361 -104ZM506
-14Q472 -14 450 -1T415 34T395 86T386 148Q384 175 384 193T383 224V249Q383 261 382 274Q380 310 364 323T325 336Q305 336 286 324T247 295L224 199Q213 153 207 122T200 74Q200 51 208 40T233 20Q241 16 252 14T272 11L269 0H-57L-55 11Q-46 12 -35 14T-15
18Q19 29 40 60Q54 83 65 118T90 203L153 458Q164 504 170 534T176 582Q176 605 168 617T142 637Q131 641 119 643T99 646L101 657H429L426 646Q418 645 408 643T389 639Q372 633 359 623T334 597Q320 574 310 539T286 454L255 327L467 507Q500 536 522 559T545
606Q545 629 522 639Q514 643 505 644T485 646L488 657H737L734 646Q717 644 695 637T652 619Q626 606 593 582T512 516L327 362V357Q338 363 354 367T386 371Q416 371 440 362T482 331T511 275T525 189Q528 148 531 120T541 74T556 48T580 40Q600 40 616 58T640
96L653 92Q646 72 634 53T604 19T562 -5T506 -14Z" />
<glyph unicode="&#x137;" glyph-name="kcommaaccent" horiz-adv-x="499" d="M226 155Q226 97 185 63T77 10L72 25Q112 37 140 54T168 91Q168 100 154 106Q133 111 119 126T104 163Q104 191 122 206T167 222Q191 222 208 205T226 155ZM316 -9Q289 -9 271 8T253
51Q253 77 260 104T272 151Q276 163 278 175T281 198Q281 226 268 237T224 248H186L106 0H-14L173 568Q181 591 184 605T188 630Q188 652 177 662Q172 667 161 669T138 674L142 684H325Q330 684 330 679Q330 675 327 666T318 642Q314 632 311 624T305 607T297 585T287
556L192 266H233Q254 266 270 274T298 293T318 317T333 341Q345 366 356 384T381 417Q407 443 441 443Q471 443 488 424T506 375Q506 345 490 328T454 311Q434 311 420 322T406 357Q406 360 407 368T412 383Q414 390 416 395T419 403Q419 410 411 410Q396 410 382
388T348 329Q334 304 317 286T275 259V255Q330 246 355 219T382 150Q382 143 381 131T377 105Q374 88 373 79T373 63Q374 42 391 42Q408 42 434 66T483 126L495 118Q481 94 462 71T419 31T369 2T316 -9Z" />
<glyph unicode="&#x139;" glyph-name="Lacute" horiz-adv-x="560" d="M194 712Q241 748 270 772T325 816Q348 833 361 839T391 846Q410 846 422 834T435 799Q435 777 418 765T376 744Q347 735 306 726T199 703L194 712ZM-55 11Q-46 12 -35 14T-15 19Q21 30 40
60Q55 83 66 118T90 203L153 459Q164 504 170 534T176 582Q176 605 167 617T141 637Q130 642 119 643T99 646L102 657H433L430 646Q421 645 409 643T388 637Q374 632 359 622T334 597Q320 574 310 539T287 454L216 170Q208 138 204 116T199 78Q199 53 212 40Q228
23 268 23H289Q326 23 358 40T420 82Q462 118 493 155T539 218H550L481 0H-57L-55 11Z" />
<glyph unicode="&#x13a;" glyph-name="lacute" horiz-adv-x="279" d="M421 828Q421 805 406 791T363 766Q334 754 294 740T199 706L194 715Q215 736 230 752T258 782T282 806T306 829Q329 851 344 861T376 871Q397 871 409 861T421 828ZM177 219Q157 161 143 119T129
62Q129 43 143 43Q154 43 168 50T197 70T226 98T252 133L265 126Q250 100 229 76T182 33T128 3T69 -9Q40 -9 24 8T7 54Q7 67 13 89T27 137T46 189T64 239Q69 254 78 281T99 340T122 408T145 474T164 531T177 568Q183 584 188 601T193 630Q193 652 182 662Q177 667
166 669T143 674L146 684H330Q335 684 335 679Q335 675 331 666T322 642Q318 632 315 624T309 605T302 584T292 556Q268 487 248 429T213 326T189 254T177 219Z" />
<glyph unicode="&#x13b;" glyph-name="Lcommaaccent" horiz-adv-x="560" d="M294 -104Q294 -162 253 -196T145 -249L140 -234Q180 -222 208 -205T236 -168Q236 -159 222 -153Q201 -148 187 -133T172 -96Q172 -68 190 -53T235 -37Q259 -37 276 -54T294 -104ZM-55
11Q-46 12 -35 14T-15 19Q21 30 40 60Q55 83 66 118T90 203L153 459Q164 504 170 534T176 582Q176 605 167 617T141 637Q130 642 119 643T99 646L102 657H433L430 646Q421 645 409 643T388 637Q374 632 359 622T334 597Q320 574 310 539T287 454L216 170Q208 138
204 116T199 78Q199 53 212 40Q228 23 268 23H289Q326 23 358 40T420 82Q462 118 493 155T539 218H550L481 0H-57L-55 11Z" />
<glyph unicode="&#x13c;" glyph-name="lcommaaccent" horiz-adv-x="279" d="M365 155Q365 97 324 63T216 10L211 25Q251 37 279 54T307 91Q307 100 293 106Q272 111 258 126T243 163Q243 191 261 206T306 222Q330 222 347 205T365 155ZM177 219Q157 161 143 119T129
62Q129 43 143 43Q154 43 168 50T197 70T226 98T252 133L265 126Q250 100 229 76T182 33T128 3T69 -9Q40 -9 24 8T7 54Q7 67 13 89T27 137T46 189T64 239Q69 254 78 281T99 340T122 408T145 474T164 531T177 568Q183 584 188 601T193 630Q193 652 182 662Q177 667
166 669T143 674L146 684H330Q335 684 335 679Q335 675 331 666T322 642Q318 632 315 624T309 605T302 584T292 556Q268 487 248 429T213 326T189 254T177 219Z" />
<glyph unicode="&#x13d;" glyph-name="Lcaron" horiz-adv-x="560" d="M498 658H580Q551 613 519 569T445 464H431L498 658ZM-55 11Q-46 12 -35 14T-15 19Q21 30 40 60Q55 83 66 118T90 203L153 459Q164 504 170 534T176 582Q176 605 167 617T141 637Q130 642 119
643T99 646L102 657H433L430 646Q421 645 409 643T388 637Q374 632 359 622T334 597Q320 574 310 539T287 454L216 170Q208 138 204 116T199 78Q199 53 212 40Q228 23 268 23H289Q326 23 358 40T420 82Q462 118 493 155T539 218H550L481 0H-57L-55 11Z" />
<glyph unicode="&#x13e;" glyph-name="lcaron" horiz-adv-x="279" d="M388 684H470Q441 639 409 595T335 490H321L388 684ZM177 219Q157 161 143 119T129 62Q129 43 143 43Q154 43 168 50T197 70T226 98T252 133L265 126Q250 100 229 76T182 33T128 3T69 -9Q40
-9 24 8T7 54Q7 67 13 89T27 137T46 189T64 239Q69 254 78 281T99 340T122 408T145 474T164 531T177 568Q183 584 188 601T193 630Q193 652 182 662Q177 667 166 669T143 674L146 684H330Q335 684 335 679Q335 675 331 666T322 642Q318 632 315 624T309 605T302
584T292 556Q268 487 248 429T213 326T189 254T177 219Z" />
<glyph unicode="&#x13f;" glyph-name="Ldot" horiz-adv-x="560" d="M415 353Q415 381 434 400T480 419Q506 419 526 401T547 353Q547 324 527 306T480 288Q454 288 435 306T415 353ZM-55 11Q-46 12 -35 14T-15 19Q21 30 40 60Q55 83 66 118T90 203L153 459Q164
504 170 534T176 582Q176 605 167 617T141 637Q130 642 119 643T99 646L102 657H433L430 646Q421 645 409 643T388 637Q374 632 359 622T334 597Q320 574 310 539T287 454L216 170Q208 138 204 116T199 78Q199 53 212 40Q228 23 268 23H289Q326 23 358 39T419 79Q461
114 491 148T537 209H547L481 0H-57L-55 11Z" />
<glyph unicode="&#x140;" glyph-name="ldot" horiz-adv-x="279" d="M385 320Q385 293 366 276T321 259Q297 259 279 276T260 320Q260 347 278 365T321 383Q346 383 365 366T385 320ZM177 219Q157 161 143 119T129 62Q129 43 143 43Q154 43 168 50T197 70T226 98T252
133L265 126Q250 100 229 76T182 33T128 3T69 -9Q40 -9 24 8T7 54Q7 67 13 89T27 137T46 189T64 239Q69 254 78 281T99 340T122 408T145 474T164 531T177 568Q183 584 188 601T193 630Q193 652 182 662Q177 667 166 669T143 674L146 684H330Q335 684 335 679Q335
675 331 666T322 642Q318 632 315 624T309 605T302 584T292 556Q268 487 248 429T213 326T189 254T177 219Z" />
<glyph unicode="&#x141;" glyph-name="Lslash" horiz-adv-x="560" d="M-55 11Q-46 12 -35 14T-15 19Q21 30 40 60Q55 83 66 118T90 203L104 260L2 224L8 251L110 287L153 459Q164 504 170 534T176 582Q176 605 167 617T141 637Q130 642 119 643T99 646L102 657H433L430
646Q421 645 409 643T388 637Q374 632 359 622T334 597Q320 574 310 539T287 454L258 339L480 417L474 390L251 312L216 170Q208 138 204 116T199 78Q199 53 212 40Q228 23 268 23H289Q326 23 358 40T420 82Q462 118 493 155T539 218H550L481 0H-57L-55 11Z" />
<glyph unicode="&#x142;" glyph-name="lslash" horiz-adv-x="280" d="M28 316L102 347Q112 376 123 408Q135 443 146 474T165 531T178 568Q184 584 189 601T194 630Q194 652 183 662Q178 667 167 669T144 674L147 684H331Q336 684 336 679Q336 675 332 666T323
642Q315 622 310 605T293 556Q269 487 249 428Q245 418 241 408L321 442L316 418L233 382Q223 351 214 325Q199 281 190 254T178 219Q158 161 144 119T130 62Q130 43 144 43Q155 43 169 50T198 70T227 98T253 133L265 126Q250 100 229 76T183 33T129 3T70 -9Q40
-9 24 8T7 54Q7 67 13 89T28 137T46 189T64 238Q69 253 78 280Q85 300 92 322L22 292L28 316Z" />
<glyph unicode="&#x143;" glyph-name="Nacute" horiz-adv-x="649" d="M349 712Q396 748 425 772T480 816Q503 833 516 839T546 846Q565 846 577 834T590 799Q590 777 573 765T531 744Q502 735 461 726T354 703L349 712ZM719 646Q712 645 704 644T688 640Q674 635
662 628T638 604Q629 592 618 565T592 484L470 -8H442L204 525H199L111 172Q103 143 100 118T97 78Q97 52 107 37T135 17Q143 15 153 14T174 11L171 0H-57L-55 11Q-47 12 -37 13T-19 17Q9 24 33 54Q44 68 58 97T83 174L156 462Q162 484 165 499T171 527T174 549T175
571Q175 592 161 611T125 638Q117 641 106 643T87 646L89 657H302L495 214H498L563 477Q572 512 576 538T580 578Q580 603 568 617T538 639Q531 642 521 643T499 646L501 657H722L719 646Z" />
<glyph unicode="&#x144;" glyph-name="nacute" horiz-adv-x="537" d="M484 623Q484 600 469 587T426 561Q397 549 357 535T262 501L257 510Q278 531 293 547T321 577T345 601T369 624Q392 646 407 656T440 666Q460 666 472 656T484 623ZM525 125Q510 99 489 75T442
33T389 3T332 -9Q304 -9 287 7T270 53Q270 66 275 86T288 129T307 178T326 230Q345 281 358 317T372 370Q372 383 367 387T353 392Q341 392 323 378T282 333T233 254T180 138Q154 73 130 0H12Q22 33 35 72T61 148T84 217T101 266Q112 302 117 326T123 368Q123 396
103 396Q90 396 69 378T18 312L5 319Q40 384 83 413T166 443Q199 443 214 426T230 378Q230 355 224 324T209 256H215Q267 358 317 400T411 443Q450 443 467 422T484 365Q484 336 472 299T438 204Q420 156 407 116T394 62Q394 43 408 43Q418 43 431 50T459 70T487
98T512 133L525 125Z" />
<glyph unicode="&#x145;" glyph-name="Ncommaaccent" horiz-adv-x="649" d="M315 -104Q315 -162 274 -196T166 -249L161 -234Q201 -222 229 -205T257 -168Q257 -159 243 -153Q222 -148 208 -133T193 -96Q193 -68 211 -53T256 -37Q280 -37 297 -54T315 -104ZM719
646Q712 645 704 644T688 640Q674 635 662 628T638 604Q629 592 618 565T592 484L470 -8H442L204 525H199L111 172Q103 143 100 118T97 78Q97 52 107 37T135 17Q143 15 153 14T174 11L171 0H-57L-55 11Q-47 12 -37 13T-19 17Q9 24 33 54Q44 68 58 97T83 174L156
462Q162 484 165 499T171 527T174 549T175 571Q175 592 161 611T125 638Q117 641 106 643T87 646L89 657H302L495 214H498L563 477Q572 512 576 538T580 578Q580 603 568 617T538 639Q531 642 521 643T499 646L501 657H722L719 646Z" />
<glyph unicode="&#x146;" glyph-name="ncommaaccent" horiz-adv-x="537" d="M253 155Q253 97 212 63T104 10L99 25Q139 37 167 54T195 91Q195 100 181 106Q160 111 146 126T131 163Q131 191 149 206T194 222Q218 222 235 205T253 155ZM525 125Q510 99 489 75T442
33T389 3T332 -9Q304 -9 287 7T270 53Q270 66 275 86T288 129T307 178T326 230Q345 281 358 317T372 370Q372 383 367 387T353 392Q341 392 323 378T282 333T233 254T180 138Q154 73 130 0H12Q22 33 35 72T61 148T84 217T101 266Q112 302 117 326T123 368Q123 396
103 396Q90 396 69 378T18 312L5 319Q40 384 83 413T166 443Q199 443 214 426T230 378Q230 355 224 324T209 256H215Q267 358 317 400T411 443Q450 443 467 422T484 365Q484 336 472 299T438 204Q420 156 407 116T394 62Q394 43 408 43Q418 43 431 50T459 70T487
98T512 133L525 125Z" />
<glyph unicode="&#x147;" glyph-name="Ncaron" horiz-adv-x="649" d="M349 843L448 776L597 844L603 836Q597 831 575 812T529 770T485 730T463 708H410Q408 711 398 730T375 771T353 813T340 837L349 843ZM719 646Q712 645 704 644T688 640Q674 635 662 628T638
604Q629 592 618 565T592 484L470 -8H442L204 525H199L111 172Q103 143 100 118T97 78Q97 52 107 37T135 17Q143 15 153 14T174 11L171 0H-57L-55 11Q-47 12 -37 13T-19 17Q9 24 33 54Q44 68 58 97T83 174L156 462Q162 484 165 499T171 527T174 549T175 571Q175
592 161 611T125 638Q117 641 106 643T87 646L89 657H302L495 214H498L563 477Q572 512 576 538T580 578Q580 603 568 617T538 639Q531 642 521 643T499 646L501 657H722L719 646Z" />
<glyph unicode="&#x148;" glyph-name="ncaron" horiz-adv-x="537" d="M238 663L340 571L493 663L500 655Q483 638 460 614T415 565T374 520T348 492H295Q292 501 284 521T266 566T246 614T229 656L238 663ZM525 125Q510 99 489 75T442 33T389 3T332 -9Q304 -9
287 7T270 53Q270 66 275 86T288 129T307 178T326 230Q345 281 358 317T372 370Q372 383 367 387T353 392Q341 392 323 378T282 333T233 254T180 138Q154 73 130 0H12Q22 33 35 72T61 148T84 217T101 266Q112 302 117 326T123 368Q123 396 103 396Q90 396 69 378T18
312L5 319Q40 384 83 413T166 443Q199 443 214 426T230 378Q230 355 224 324T209 256H215Q267 358 317 400T411 443Q450 443 467 422T484 365Q484 336 472 299T438 204Q420 156 407 116T394 62Q394 43 408 43Q418 43 431 50T459 70T487 98T512 133L525 125Z" />
<glyph unicode="&#x149;" glyph-name="napostrophe" horiz-adv-x="535" d="M235 466Q249 470 266 477T299 494T325 514T339 536Q340 544 330 552Q305 558 294 575T282 614Q282 642 300 659T346 676Q372 676 391 658T410 606Q410 577 396 553T357 510T302 476T238
452L235 466ZM525 125Q510 99 489 75T442 33T389 3T332 -9Q304 -9 287 7T270 53Q270 66 275 86T288 129T307 178T326 230Q345 281 358 317T372 370Q372 383 367 387T353 392Q341 392 323 378T282 333T233 254T180 138Q154 73 130 0H12Q22 33 35 72T61 148T84 217T101
266Q112 302 117 326T123 368Q123 396 103 396Q90 396 69 378T18 312L5 319Q40 384 83 413T166 443Q199 443 214 426T230 378Q230 355 224 324T209 256H215Q267 358 317 400T411 443Q450 443 467 422T484 365Q484 336 472 299T438 204Q420 156 407 116T394 62Q394
43 408 43Q418 43 431 50T459 70T487 98T512 133L525 125Z" />
<glyph unicode="&#x14a;" glyph-name="Eng" horiz-adv-x="649" d="M303 -178Q400 -178 438 -29L444 -4L204 525H199L111 172Q103 143 100 118T97 78Q97 52 107 37T135 17Q143 15 152 14T172 11L170 0H-57L-55 11Q-47 12 -37 13T-19 17Q9 24 33 54Q44 68 58 97T83
174L156 462Q162 484 165 499T171 527T174 549T175 571Q175 592 161 611T125 638Q117 641 106 643T87 646L89 657H302L496 217H499L563 477Q572 512 576 538T580 578Q580 603 568 617T538 639Q531 642 521 643T499 646L501 657H722L719 646Q712 645 704 644T688
640Q674 635 662 628T638 604Q629 592 618 565T592 484L468 -18Q458 -59 445 -92T413 -150T366 -187T299 -200Q268 -200 244 -191T204 -166T178 -129T169 -83Q169 -45 192 -24T244 -3Q274 -3 294 -21T314 -71Q314 -94 305 -107T290 -128Q282 -136 276 -144T269
-157Q269 -168 279 -173T303 -178Z" />
<glyph unicode="&#x14b;" glyph-name="eng" horiz-adv-x="513" d="M372 371Q372 392 353 392Q341 392 323 378T282 333T233 254T180 138Q154 73 130 0H12Q22 33 35 72T61 148T84 217T101 266Q112 302 117 326T123 368Q123 396 103 396Q90 396 69 378T18 312L5
319Q40 384 83 413T166 443Q199 443 214 426T230 378Q230 355 224 324T209 256H215Q267 358 317 400T411 443Q450 443 467 422T485 365Q485 335 469 283T431 174Q407 107 387 56T349 -33T313 -98T278 -143Q249 -173 210 -193T125 -213Q78 -213 46 -189T13 -124Q13
-97 29 -80T72 -62Q101 -62 115 -79T129 -116Q129 -130 126 -139T119 -157Q116 -162 114 -168T111 -178Q111 -185 116 -189T129 -193Q147 -193 161 -184T192 -150Q198 -140 208 -115T231 -56T257 14T282 87T303 150T319 195Q328 219 337 246T354 299T367 343T372
371Z" />
<glyph unicode="&#x14c;" glyph-name="Omacron" horiz-adv-x="643" d="M286 718L297 764H563L552 718H286ZM630 414Q630 367 620 318T589 223T538 136T470 65Q424 28 371 7T257 -14Q207 -14 165 3T92 54T44 134T26 243Q26 289 36 338T67 434T118 521T187 592Q232
628 285 649T398 670Q448 670 490 653T564 602T612 522T630 414ZM497 506Q497 579 471 613T399 648Q365 648 337 629T288 582Q272 562 250 517T208 412T174 285T160 150Q160 77 186 43T258 8Q292 8 320 27T368 75Q384 95 406 140T448 244T483 372T497 506Z" />
<glyph unicode="&#x14d;" glyph-name="omacron" horiz-adv-x="437" d="M178 549L190 595H428L416 549H178ZM160 -9Q91 -9 52 35T12 153Q12 215 36 275T105 377Q137 408 179 425T268 443Q337 443 376 398T415 277Q415 217 391 158T323 57Q291 26 249 9T160 -9ZM269
426Q249 426 233 413T202 372Q189 348 174 309T147 226T126 139T118 65Q118 39 127 24T159 8Q197 8 225 61Q238 85 253 123T280 205T301 291T310 368Q310 426 269 426Z" />
<glyph unicode="&#x14e;" glyph-name="Obreve" horiz-adv-x="643" d="M326 846Q334 809 363 792T431 775Q473 775 508 791T564 845L574 839Q565 780 527 743T423 705Q377 705 345 731T311 804Q311 822 314 840L326 846ZM630 414Q630 367 620 318T589 223T538 136T470
65Q424 28 371 7T257 -14Q207 -14 165 3T92 54T44 134T26 243Q26 289 36 338T67 434T118 521T187 592Q232 628 285 649T398 670Q448 670 490 653T564 602T612 522T630 414ZM497 506Q497 579 471 613T399 648Q365 648 337 629T288 582Q272 562 250 517T208 412T174
285T160 150Q160 77 186 43T258 8Q292 8 320 27T368 75Q384 95 406 140T448 244T483 372T497 506Z" />
<glyph unicode="&#x14f;" glyph-name="obreve" horiz-adv-x="437" d="M160 -9Q91 -9 52 35T12 153Q12 215 36 275T105 377Q137 408 179 425T268 443Q337 443 376 398T415 277Q415 217 391 158T323 57Q291 26 249 9T160 -9ZM269 426Q249 426 233 413T202 372Q189
348 174 309T147 226T126 139T118 65Q118 39 127 24T159 8Q197 8 225 61Q238 85 253 123T280 205T301 291T310 368Q310 426 269 426ZM196 673Q205 632 235 614T300 595Q378 595 426 673L438 667Q433 638 422 612T393 567T350 536T293 524Q245 524 213 552T181 631Q181
649 184 667L196 673Z" />
<glyph unicode="&#x150;" glyph-name="Ohungarumlaut" horiz-adv-x="643" d="M500 835Q500 815 484 801T447 774Q437 768 426 762T400 748T366 730T321 706H302Q321 731 333 747T355 776T372 799T391 823Q411 848 427 860T460 872Q500 872 500 835ZM663 835Q663
815 647 801T610 774Q600 768 589 762T563 748T529 730T484 706H465Q484 731 496 747T518 776T535 799T554 823Q574 848 590 860T623 872Q663 872 663 835ZM630 414Q630 367 620 318T589 223T538 136T470 65Q424 28 371 7T257 -14Q207 -14 165 3T92 54T44 134T26
243Q26 289 36 338T67 434T118 521T187 592Q232 628 285 649T398 670Q448 670 490 653T564 602T612 522T630 414ZM497 506Q497 579 471 613T399 648Q365 648 337 629T288 582Q272 562 250 517T208 412T174 285T160 150Q160 77 186 43T258 8Q292 8 320 27T368 75Q384
95 406 140T448 244T483 372T497 506Z" />
<glyph unicode="&#x151;" glyph-name="ohungarumlaut" horiz-adv-x="437" d="M314 671Q332 671 343 660T355 628Q355 611 346 599T319 574Q296 557 263 536T174 480L165 488Q181 514 194 534T217 571T236 600T253 626Q267 649 279 660T314 671ZM483 671Q502 671
513 660T525 628Q525 611 516 599T489 574Q466 557 433 536T344 480L335 488Q351 514 364 534T387 571T406 600T423 626Q437 649 449 660T483 671ZM160 -9Q91 -9 52 35T12 153Q12 215 36 275T105 377Q137 408 179 425T268 443Q337 443 376 398T415 277Q415 217
391 158T323 57Q291 26 249 9T160 -9ZM269 426Q249 426 233 413T202 372Q189 348 174 309T147 226T126 139T118 65Q118 39 127 24T159 8Q197 8 225 61Q238 85 253 123T280 205T301 291T310 368Q310 426 269 426Z" />
<glyph unicode="&#x152;" glyph-name="OE" horiz-adv-x="927" d="M408 0Q394 0 374 -1T331 -2T288 -4T251 -5Q207 -5 167 9T95 54T45 131T26 244Q26 327 54 402T132 534T253 625T409 659Q423 659 445 659T490 658T536 658T572 657H919L912 451H900Q894 489 881
524T850 585Q836 604 814 619T753 634H729Q700 634 681 621Q669 613 659 597T639 545L591 352H617Q660 352 682 359T722 381Q745 400 762 428T788 481H800L729 197H717Q718 209 718 223T717 252T711 278T701 300Q693 312 675 320T616 329H586L545 169Q537 135 533
115T528 78Q528 47 545 35T598 23H620Q657 23 690 40T752 82Q794 118 824 156T871 221H882L813 0H408ZM411 637Q380 637 358 628T319 603Q294 584 272 545T230 457T197 352T173 247T162 154T164 88Q173 49 197 33T254 17Q286 17 308 28T347 60Q358 74 374 112T407
202T440 311T469 422T486 518T485 582Q478 610 461 623T411 637Z" />
<glyph unicode="&#x153;" glyph-name="oe" horiz-adv-x="657" d="M655 365Q655 343 644 324T612 288Q598 277 576 266T527 242T469 219T411 199Q406 172 403 145T400 93Q400 27 449 27Q476 27 500 37T544 63T579 97T605 132L616 125Q601 98 581 74T536 31T479
2T411 -9Q374 -9 346 12T308 63H305Q277 31 238 11T159 -9Q90 -9 52 35T12 153Q11 214 36 274T105 377Q137 408 179 425T267 443Q312 443 339 418T381 356H385Q399 373 419 389T461 417T506 436T549 443Q606 443 630 421T655 365ZM570 385Q570 403 564 413T544
424Q524 424 505 408T469 363T438 297T414 218Q427 222 443 228T476 243T507 261T530 278Q541 289 549 303T561 332T568 360T570 385ZM308 368Q310 426 268 426Q248 426 233 413T202 372Q189 349 174 310T147 226T126 139T118 65Q118 39 127 24T158 8Q178 8 194
21T224 61Q237 85 251 123T278 205T299 291T308 368Z" />
<glyph unicode="&#x154;" glyph-name="Racute" horiz-adv-x="649" d="M308 712Q355 748 384 772T439 816Q462 833 475 839T505 846Q524 846 536 834T549 799Q549 777 532 765T490 744Q461 735 420 726T313 703L308 712ZM500 -13Q466 -13 443 -2T405 29T383 78T376
141Q375 186 374 220T362 281Q353 301 339 311T290 322H251L221 198Q210 153 204 123T198 75Q198 53 207 41T234 21Q245 16 257 14T278 11L276 0H-57L-55 11Q-46 12 -36 14T-18 18Q-1 23 13 33T37 60Q52 83 63 118T87 203L151 462Q162 508 168 536T174 583Q174
605 165 617T138 637Q127 642 116 644T97 647L99 657H403Q459 657 498 648T561 620T596 577T607 522Q607 468 573 427T482 359Q463 351 440 345T383 333L382 329Q409 325 425 318T459 299Q482 282 497 252T516 177Q519 136 522 110T532 67T546 45T568 38Q588 38
604 56T630 96L643 91Q635 71 623 53T594 20T553 -4T500 -13ZM474 555Q474 591 458 612T406 634H378Q365 634 355 631T336 620Q323 605 312 564L257 345H306Q350 345 376 353T422 384Q434 398 443 419T460 463T470 511T474 555Z" />
<glyph unicode="&#x155;" glyph-name="racute" horiz-adv-x="415" d="M440 623Q440 600 425 587T382 561Q353 549 313 535T218 501L213 510Q234 531 249 547T277 577T301 601T325 624Q348 646 363 656T396 666Q416 666 428 656T440 623ZM213 255Q234 312 253 348T290
406T328 435T367 443Q399 443 419 425T439 372Q439 341 424 324T386 306Q367 306 353 316T331 352Q326 367 323 374T312 382Q302 382 291 369T264 327T229 250T181 135Q168 103 156 70T131 0H14Q24 33 37 72L85 217Q96 249 102 266Q114 302 118 326T123 368Q123
396 103 396Q90 396 69 377T17 311L5 318Q40 383 83 413T165 443Q198 443 212 426T227 378Q227 352 221 321T206 255H213Z" />
<glyph unicode="&#x156;" glyph-name="Rcommaaccent" horiz-adv-x="649" d="M350 -104Q350 -162 309 -196T201 -249L196 -234Q236 -222 264 -205T292 -168Q292 -159 278 -153Q257 -148 243 -133T228 -96Q228 -68 246 -53T291 -37Q315 -37 332 -54T350 -104ZM500
-13Q466 -13 443 -2T405 29T383 78T376 141Q375 186 374 220T362 281Q353 301 339 311T290 322H251L221 198Q210 153 204 123T198 75Q198 53 207 41T234 21Q245 16 257 14T278 11L276 0H-57L-55 11Q-46 12 -36 14T-18 18Q-1 23 13 33T37 60Q52 83 63 118T87 203L151
462Q162 508 168 536T174 583Q174 605 165 617T138 637Q127 642 116 644T97 647L99 657H403Q459 657 498 648T561 620T596 577T607 522Q607 468 573 427T482 359Q463 351 440 345T383 333L382 329Q409 325 425 318T459 299Q482 282 497 252T516 177Q519 136 522
110T532 67T546 45T568 38Q588 38 604 56T630 96L643 91Q635 71 623 53T594 20T553 -4T500 -13ZM474 555Q474 591 458 612T406 634H378Q365 634 355 631T336 620Q323 605 312 564L257 345H306Q350 345 376 353T422 384Q434 398 443 419T460 463T470 511T474 555Z"
/>
<glyph unicode="&#x157;" glyph-name="rcommaaccent" horiz-adv-x="415" d="M374 155Q374 97 333 63T225 10L220 25Q260 37 288 54T316 91Q316 100 302 106Q281 111 267 126T252 163Q252 191 270 206T315 222Q339 222 356 205T374 155ZM213 255Q234 312 253 348T290
406T328 435T367 443Q399 443 419 425T439 372Q439 341 424 324T386 306Q367 306 353 316T331 352Q326 367 323 374T312 382Q302 382 291 369T264 327T229 250T181 135Q168 103 156 70T131 0H14Q24 33 37 72L85 217Q96 249 102 266Q114 302 118 326T123 368Q123
396 103 396Q90 396 69 377T17 311L5 318Q40 383 83 413T165 443Q198 443 212 426T227 378Q227 352 221 321T206 255H213Z" />
<glyph unicode="&#x158;" glyph-name="Rcaron" horiz-adv-x="649" d="M311 843L410 776L559 844L565 836Q559 831 537 812T491 770T447 730T425 708H372Q370 711 360 730T337 771T315 813T302 837L311 843ZM500 -13Q466 -13 443 -2T405 29T383 78T376 141Q375
186 374 220T362 281Q353 301 339 311T290 322H251L221 198Q210 153 204 123T198 75Q198 53 207 41T234 21Q245 16 257 14T278 11L276 0H-57L-55 11Q-46 12 -36 14T-18 18Q-1 23 13 33T37 60Q52 83 63 118T87 203L151 462Q162 508 168 536T174 583Q174 605 165
617T138 637Q127 642 116 644T97 647L99 657H403Q459 657 498 648T561 620T596 577T607 522Q607 468 573 427T482 359Q463 351 440 345T383 333L382 329Q409 325 425 318T459 299Q482 282 497 252T516 177Q519 136 522 110T532 67T546 45T568 38Q588 38 604 56T630
96L643 91Q635 71 623 53T594 20T553 -4T500 -13ZM474 555Q474 591 458 612T406 634H378Q365 634 355 631T336 620Q323 605 312 564L257 345H306Q350 345 376 353T422 384Q434 398 443 419T460 463T470 511T474 555Z" />
<glyph unicode="&#x159;" glyph-name="rcaron" horiz-adv-x="415" d="M193 663L295 571L448 663L455 655Q438 638 415 614T370 565T329 520T303 492H250Q247 501 239 521T221 566T201 614T184 656L193 663ZM213 255Q234 312 253 348T290 406T328 435T367 443Q399
443 419 425T439 372Q439 341 424 324T386 306Q367 306 353 316T331 352Q326 367 323 374T312 382Q302 382 291 369T264 327T229 250T181 135Q168 103 156 70T131 0H14Q24 33 37 72L85 217Q96 249 102 266Q114 302 118 326T123 368Q123 396 103 396Q90 396 69 377T17
311L5 318Q40 383 83 413T165 443Q198 443 212 426T227 378Q227 352 221 321T206 255H213Z" />
<glyph unicode="&#x15a;" glyph-name="Sacute" horiz-adv-x="517" d="M476 449H463Q462 493 452 535T425 603Q411 623 390 636T329 649Q281 649 253 622T225 548Q225 525 232 506T253 471T282 439T317 409Q352 380 379 357T424 309T451 258T461 194Q461 147 442
109T389 44T313 1T221 -14Q169 -14 127 7T61 63H56L2 3H-8L45 246H58Q62 192 73 148T103 73T152 25T222 8Q282 8 314 40T347 121Q347 144 340 163T318 200T281 239T227 285Q203 306 182 326T146 368T121 417T112 479Q112 516 126 550T168 612T236 655T330 671Q382
671 417 651T467 609H469L508 655H520L476 449ZM267 712Q314 748 343 772T398 816Q421 833 434 839T464 846Q483 846 495 834T508 799Q508 777 491 765T449 744Q420 735 379 726T272 703L267 712Z" />
<glyph unicode="&#x15b;" glyph-name="sacute" horiz-adv-x="347" d="M399 623Q399 600 384 587T341 561Q312 549 272 535T177 501L172 510Q193 531 208 547T236 577T260 601T284 624Q307 646 322 656T355 666Q375 666 387 656T399 623ZM341 359Q341 337 329 324T296
310Q277 310 265 321T251 349Q249 365 252 374T252 396Q250 408 240 416T212 425Q183 425 171 408T158 368Q158 343 174 321T222 266Q261 225 282 195T303 130Q303 98 288 72T249 28T194 1T132 -9Q73 -9 35 18T-4 91Q-4 118 10 134T46 150Q66 150 77 139T91 108Q92
88 86 75T80 48Q81 27 98 18T136 8Q169 8 189 26T210 77Q210 89 206 99T192 121T167 148T131 185Q101 217 87 244T72 311Q72 342 84 367T117 408T163 434T218 443Q242 443 264 438T304 422T331 396T341 359Z" />
<glyph unicode="&#x15c;" glyph-name="Scircumflex" horiz-adv-x="517" d="M474 706L376 773L226 706L221 714Q225 717 236 727T262 751T294 780T325 808T349 830T361 841H414Q415 838 425 820T448 779T470 737T483 713L474 706ZM476 449H463Q462 493 452 535T425
603Q411 623 390 636T329 649Q281 649 253 622T225 548Q225 525 232 506T253 471T282 439T317 409Q352 380 379 357T424 309T451 258T461 194Q461 147 442 109T389 44T313 1T221 -14Q169 -14 127 7T61 63H56L2 3H-8L45 246H58Q62 192 73 148T103 73T152 25T222
8Q282 8 314 40T347 121Q347 144 340 163T318 200T281 239T227 285Q203 306 182 326T146 368T121 417T112 479Q112 516 126 550T168 612T236 655T330 671Q382 671 417 651T467 609H469L508 655H520L476 449Z" />
<glyph unicode="&#x15d;" glyph-name="scircumflex" horiz-adv-x="347" d="M365 497L263 586L110 497L103 505Q119 522 142 546T187 595T228 640T255 668H307Q311 659 319 639T337 594T356 546T373 503L365 497ZM341 359Q341 337 329 324T296 310Q277 310 265
321T251 349Q249 365 252 374T252 396Q250 408 240 416T212 425Q183 425 171 408T158 368Q158 343 174 321T222 266Q261 225 282 195T303 130Q303 98 288 72T249 28T194 1T132 -9Q73 -9 35 18T-4 91Q-4 118 10 134T46 150Q66 150 77 139T91 108Q92 88 86 75T80
48Q81 27 98 18T136 8Q169 8 189 26T210 77Q210 89 206 99T192 121T167 148T131 185Q101 217 87 244T72 311Q72 342 84 367T117 408T163 434T218 443Q242 443 264 438T304 422T331 396T341 359Z" />
<glyph unicode="&#x15e;" glyph-name="Scedilla" horiz-adv-x="517" d="M476 449H463Q462 493 452 535T425 603Q411 623 390 636T329 649Q281 649 253 622T225 548Q225 525 232 506T253 471T282 439T317 409Q352 380 379 357T424 309T451 258T461 194Q461 147
442 109T389 44T313 1T221 -14Q169 -14 127 7T61 63H56L2 3H-8L45 246H58Q62 192 73 148T103 73T152 25T222 8Q282 8 314 40T347 121Q347 144 340 163T318 200T281 239T227 285Q203 306 182 326T146 368T121 417T112 479Q112 516 126 550T168 612T236 655T330 671Q382
671 417 651T467 609H469L508 655H520L476 449ZM270 -101Q270 -141 234 -162T137 -184Q115 -184 95 -178T64 -163L72 -151Q82 -156 97 -160T128 -164Q163 -164 184 -150T205 -101Q205 -81 195 -70T169 -59Q150 -59 139 -69L124 -62L159 1H180L153 -49Q161 -44 173
-41T199 -37Q234 -37 252 -54T270 -101Z" />
<glyph unicode="&#x15f;" glyph-name="scedilla" horiz-adv-x="347" d="M341 359Q341 337 329 324T296 310Q277 310 265 321T251 349Q249 365 252 374T252 396Q250 408 240 416T212 425Q183 425 171 408T158 368Q158 343 174 321T222 266Q261 225 282 195T303
130Q303 98 288 72T249 28T194 1T132 -9Q73 -9 35 18T-4 91Q-4 118 10 134T46 150Q66 150 77 139T91 108Q92 88 86 75T80 48Q81 27 98 18T136 8Q169 8 189 26T210 77Q210 89 206 99T192 121T167 148T131 185Q101 217 87 244T72 311Q72 342 84 367T117 408T163 434T218
443Q242 443 264 438T304 422T331 396T341 359ZM458 -101Q458 -141 422 -162T325 -184Q303 -184 283 -178T252 -163L260 -151Q270 -156 285 -160T316 -164Q351 -164 372 -150T393 -101Q393 -81 383 -70T357 -59Q338 -59 327 -69L312 -62L347 1H368L341 -49Q349
-44 361 -41T387 -37Q422 -37 440 -54T458 -101Z" />
<glyph unicode="&#x160;" glyph-name="Scaron" horiz-adv-x="517" d="M267 843L366 776L515 844L521 836Q515 831 493 812T447 770T403 730T381 708H328Q326 711 316 730T293 771T271 813T258 837L267 843ZM476 449H463Q462 493 452 535T425 603Q411 623 390 636T329
649Q281 649 253 622T225 548Q225 525 232 506T253 471T282 439T317 409Q352 380 379 357T424 309T451 258T461 194Q461 147 442 109T389 44T313 1T221 -14Q169 -14 127 7T61 63H56L2 3H-8L45 246H58Q62 192 73 148T103 73T152 25T222 8Q282 8 314 40T347 121Q347
144 340 163T318 200T281 239T227 285Q203 306 182 326T146 368T121 417T112 479Q112 516 126 550T168 612T236 655T330 671Q382 671 417 651T467 609H469L508 655H520L476 449Z" />
<glyph unicode="&#x161;" glyph-name="scaron" horiz-adv-x="347" d="M159 663L261 571L414 663L421 655Q404 638 381 614T336 565T295 520T269 492H216Q213 501 205 521T187 566T167 614T150 656L159 663ZM341 359Q341 337 329 324T296 310Q277 310 265 321T251
349Q249 365 252 374T252 396Q250 408 240 416T212 425Q183 425 171 408T158 368Q158 343 174 321T222 266Q261 225 282 195T303 130Q303 98 288 72T249 28T194 1T132 -9Q73 -9 35 18T-4 91Q-4 118 10 134T46 150Q66 150 77 139T91 108Q92 88 86 75T80 48Q81 27
98 18T136 8Q169 8 189 26T210 77Q210 89 206 99T192 121T167 148T131 185Q101 217 87 244T72 311Q72 342 84 367T117 408T163 434T218 443Q242 443 264 438T304 422T331 396T341 359Z" />
<glyph unicode="&#x162;" glyph-name="Tcommaaccent" horiz-adv-x="604" d="M261 152Q261 94 220 60T112 7L107 22Q147 34 175 51T203 88Q203 97 189 103Q168 108 154 123T139 160Q139 188 157 203T202 219Q226 219 243 202T261 152ZM640 449H627Q622 485 611
519T576 583Q532 634 465 634H443L335 199Q313 110 313 75Q313 52 322 40T348 20Q359 15 370 14T389 11L386 0H54L57 11Q66 12 77 14T97 18Q132 29 152 60Q166 83 177 118T201 203L308 634H284Q250 634 219 621T160 584Q128 556 100 521T45 449H33L102 657H667L640
449Z" />
<glyph unicode="&#x163;" glyph-name="tcommaaccent" horiz-adv-x="292" d="M365 155Q365 97 324 63T216 10L211 25Q251 37 279 54T307 91Q307 100 293 106Q272 111 258 126T243 163Q243 191 261 206T306 222Q330 222 347 205T365 155ZM128 61Q128 43 143 43Q154
43 168 50T197 71T226 100T252 134L265 126Q250 100 229 76T182 33T129 3T71 -9Q43 -9 26 7T9 53Q9 66 14 87T27 132T44 181T61 230Q74 263 85 296Q95 324 105 354T123 408H60L67 433H131Q133 440 140 459T154 501T168 545T178 575H293Q290 566 284 545T269 501L255
459Q249 440 247 433H346L338 408H240Q232 383 222 351T200 289Q188 255 175 219Q156 162 142 119T128 61Z" />
<glyph unicode="&#x164;" glyph-name="Tcaron" horiz-adv-x="604" d="M307 843L406 776L555 844L561 836Q555 831 533 812T487 770T443 730T421 708H368Q366 711 356 730T333 771T311 813T298 837L307 843ZM640 449H627Q622 485 611 519T576 583Q532 634 465 634H443L335
199Q313 110 313 75Q313 52 322 40T348 20Q359 15 370 14T389 11L386 0H54L57 11Q66 12 77 14T97 18Q132 29 152 60Q166 83 177 118T201 203L308 634H284Q250 634 219 621T160 584Q128 556 100 521T45 449H33L102 657H667L640 449Z" />
<glyph unicode="&#x165;" glyph-name="tcaron" horiz-adv-x="292" d="M386 685H468Q439 640 407 596T333 491H319L386 685ZM128 61Q128 43 143 43Q154 43 168 50T197 71T226 100T252 134L265 126Q250 100 229 76T182 33T129 3T71 -9Q43 -9 26 7T9 53Q9 66 14 87T27
132T44 181T61 230Q74 263 85 296Q95 324 105 354T123 408H60L67 433H131Q133 440 140 459T154 501T168 545T178 575H293Q290 566 284 545T269 501L255 459Q249 440 247 433H346L338 408H240Q232 383 222 351T200 289Q188 255 175 219Q156 162 142 119T128 61Z"
/>
<glyph unicode="&#x166;" glyph-name="Tbar" horiz-adv-x="604" d="M640 449H627Q622 485 611 519T576 583Q532 634 465 634H443L388 415H517L510 389H382L335 199Q313 110 313 75Q313 52 322 40T348 20Q359 15 370 14T389 11L386 0H54L57 11Q66 12 77 14T97 18Q132
29 152 60Q166 83 177 118T201 203L247 389H121L127 415H253L308 634H284Q250 634 219 621T160 584Q128 556 100 521T45 449H33L102 657H667L640 449Z" />
<glyph unicode="&#x167;" glyph-name="tbar" horiz-adv-x="292" d="M239 408Q237 403 234 392T226 368T218 345T213 330H320L312 308H206L197 281Q192 266 187 252L176 219Q157 162 143 119T129 61Q129 43 143 43Q154 43 168 50T198 71T227 100T253 134L265 126Q250
100 229 76T183 33T130 3T71 -9Q44 -9 27 7T10 53Q10 66 15 87T28 132T45 181T62 230L72 260Q77 272 81 285L89 308H30L37 330H96Q97 334 101 344T109 367T117 391T123 408H60L67 433H132L179 575H294L248 433H346L338 408H239Z" />
<glyph unicode="&#x168;" glyph-name="Utilde" horiz-adv-x="661" d="M738 646Q731 645 723 644T707 640Q693 635 681 628T658 604Q648 592 636 561T610 476L544 214Q530 158 510 116T458 45T385 1T285 -14Q179 -14 124 34T68 174Q68 183 70 198T75 230T81 266T89
299L128 459Q139 504 145 534T151 583Q151 605 142 617T116 637Q105 642 94 643T74 646L77 657H401L398 646Q390 645 381 644T364 639Q347 633 334 623T309 597Q296 577 286 544T264 461L205 218Q194 171 194 124Q194 75 223 46T308 16Q354 16 388 30T447 69T488
132T517 215L582 475Q591 510 595 536T599 577Q599 602 587 617T557 639Q549 642 539 643T518 646L520 657H741L738 646ZM633 831Q618 783 590 752T517 721Q500 721 484 725T451 735T420 745T391 750Q371 750 352 742T315 709L303 713Q321 762 352 791T428 820Q442
820 456 816T485 807T515 798T545 794Q570 794 587 800T621 833L633 831Z" />
<glyph unicode="&#x169;" glyph-name="utilde" horiz-adv-x="541" d="M397 67Q397 41 418 41Q441 41 470 69T522 133L534 125Q519 99 499 75T456 33T407 3T352 -9Q320 -9 303 10T286 64Q286 87 292 113T307 172H300Q273 119 247 84T196 29T148 0T103 -9Q72 -9
53 12T33 68Q33 83 36 99T45 135T59 177T79 229Q97 277 110 316T124 372Q124 396 107 396Q95 396 73 377T22 311L9 319Q45 383 90 413T174 443Q209 443 226 426T244 377Q244 364 240 345T228 303T212 255T193 204Q173 153 161 118T148 65Q148 42 167 42Q179 42
197 56T237 102T286 182T339 299Q352 331 364 364T389 433H506Q495 400 483 361T457 285T433 215L417 166Q406 130 402 108T397 67ZM489 640Q474 592 446 561T374 529Q357 529 341 533T309 543T278 552T249 557Q230 557 210 547T173 512L161 516Q179 566 210 597T286
629Q300 629 314 625T343 616T373 607T403 603Q428 603 444 610T478 643L489 640Z" />
<glyph unicode="&#x16a;" glyph-name="Umacron" horiz-adv-x="661" d="M738 646Q731 645 723 644T707 640Q693 635 681 628T658 604Q648 592 636 561T610 476L544 214Q530 158 510 116T458 45T385 1T285 -14Q179 -14 124 34T68 174Q68 183 70 198T75 230T81 266T89
299L128 459Q139 504 145 534T151 583Q151 605 142 617T116 637Q105 642 94 643T74 646L77 657H401L398 646Q390 645 381 644T364 639Q347 633 334 623T309 597Q296 577 286 544T264 461L205 218Q194 171 194 124Q194 75 223 46T308 16Q354 16 388 30T447 69T488
132T517 215L582 475Q591 510 595 536T599 577Q599 602 587 617T557 639Q549 642 539 643T518 646L520 657H741L738 646ZM325 718L336 764H602L591 718H325Z" />
<glyph unicode="&#x16b;" glyph-name="umacron" horiz-adv-x="541" d="M397 67Q397 41 418 41Q441 41 470 69T522 133L534 125Q519 99 499 75T456 33T407 3T352 -9Q320 -9 303 10T286 64Q286 87 292 113T307 172H300Q273 119 247 84T196 29T148 0T103 -9Q72 -9
53 12T33 68Q33 83 36 99T45 135T59 177T79 229Q97 277 110 316T124 372Q124 396 107 396Q95 396 73 377T22 311L9 319Q45 383 90 413T174 443Q209 443 226 426T244 377Q244 364 240 345T228 303T212 255T193 204Q173 153 161 118T148 65Q148 42 167 42Q179 42
197 56T237 102T286 182T339 299Q352 331 364 364T389 433H506Q495 400 483 361T457 285T433 215L417 166Q406 130 402 108T397 67ZM216 549L228 595H466L454 549H216Z" />
<glyph unicode="&#x16c;" glyph-name="Ubreve" horiz-adv-x="661" d="M738 646Q731 645 723 644T707 640Q693 635 681 628T658 604Q648 592 636 561T610 476L544 214Q530 158 510 116T458 45T385 1T285 -14Q179 -14 124 34T68 174Q68 183 70 198T75 230T81 266T89
299L128 459Q139 504 145 534T151 583Q151 605 142 617T116 637Q105 642 94 643T74 646L77 657H401L398 646Q390 645 381 644T364 639Q347 633 334 623T309 597Q296 577 286 544T264 461L205 218Q194 171 194 124Q194 75 223 46T308 16Q354 16 388 30T447 69T488
132T517 215L582 475Q591 510 595 536T599 577Q599 602 587 617T557 639Q549 642 539 643T518 646L520 657H741L738 646ZM365 846Q373 809 402 792T470 775Q512 775 547 791T603 845L613 839Q604 780 566 743T462 705Q416 705 384 731T350 804Q350 822 353 840L365
846Z" />
<glyph unicode="&#x16d;" glyph-name="ubreve" horiz-adv-x="541" d="M397 67Q397 41 418 41Q441 41 470 69T522 133L534 125Q519 99 499 75T456 33T407 3T352 -9Q320 -9 303 10T286 64Q286 87 292 113T307 172H300Q273 119 247 84T196 29T148 0T103 -9Q72 -9
53 12T33 68Q33 83 36 99T45 135T59 177T79 229Q97 277 110 316T124 372Q124 396 107 396Q95 396 73 377T22 311L9 319Q45 383 90 413T174 443Q209 443 226 426T244 377Q244 364 240 345T228 303T212 255T193 204Q173 153 161 118T148 65Q148 42 167 42Q179 42
197 56T237 102T286 182T339 299Q352 331 364 364T389 433H506Q495 400 483 361T457 285T433 215L417 166Q406 130 402 108T397 67ZM235 673Q244 632 274 614T339 595Q417 595 465 673L477 667Q472 638 461 612T432 567T389 536T332 524Q284 524 252 552T220 631Q220
649 223 667L235 673Z" />
<glyph unicode="&#x16e;" glyph-name="Uring" horiz-adv-x="661" d="M738 646Q731 645 723 644T707 640Q693 635 681 628T658 604Q648 592 636 561T610 476L544 214Q530 158 510 116T458 45T385 1T285 -14Q179 -14 124 34T68 174Q68 183 70 198T75 230T81 266T89
299L128 459Q139 504 145 534T151 583Q151 605 142 617T116 637Q105 642 94 643T74 646L77 657H401L398 646Q390 645 381 644T364 639Q347 633 334 623T309 597Q296 577 286 544T264 461L205 218Q194 171 194 124Q194 75 223 46T308 16Q354 16 388 30T447 69T488
132T517 215L582 475Q591 510 595 536T599 577Q599 602 587 617T557 639Q549 642 539 643T518 646L520 657H741L738 646ZM552 762Q552 723 527 700T468 677Q435 677 409 699T383 762Q383 781 390 797T409 823T436 840T467 846Q483 846 498 841T526 824T545 798T552
762ZM525 761Q525 791 509 807T467 824Q443 824 427 808T410 762Q410 732 426 716T467 700Q492 700 508 715T525 761Z" />
<glyph unicode="&#x16f;" glyph-name="uring" horiz-adv-x="541" d="M416 590Q416 571 410 556T391 529T364 511T332 505Q299 505 273 527T247 590Q247 630 273 652T332 675Q364 675 390 653T416 590ZM389 590Q389 620 373 636T331 653Q307 653 291 637T274 590Q274
561 290 545T331 529Q356 529 372 544T389 590ZM397 67Q397 41 418 41Q441 41 470 69T522 133L534 125Q519 99 499 75T456 33T407 3T352 -9Q320 -9 303 10T286 64Q286 87 292 113T307 172H300Q273 119 247 84T196 29T148 0T103 -9Q72 -9 53 12T33 68Q33 83 36 99T45
135T59 177T79 229Q97 277 110 316T124 372Q124 396 107 396Q95 396 73 377T22 311L9 319Q45 383 90 413T174 443Q209 443 226 426T244 377Q244 364 240 345T228 303T212 255T193 204Q173 153 161 118T148 65Q148 42 167 42Q179 42 197 56T237 102T286 182T339
299Q352 331 364 364T389 433H506Q495 400 483 361T457 285T433 215L417 166Q406 130 402 108T397 67Z" />
<glyph unicode="&#x170;" glyph-name="Uhungarumlaut" horiz-adv-x="661" d="M539 835Q539 815 523 801T486 774Q476 768 465 762T439 748T405 730T360 706H341Q360 731 372 747T394 776T411 799T430 823Q450 848 466 860T499 872Q539 872 539 835ZM702 835Q702
815 686 801T649 774Q639 768 628 762T602 748T568 730T523 706H504Q523 731 535 747T557 776T574 799T593 823Q613 848 629 860T662 872Q702 872 702 835ZM738 646Q731 645 723 644T707 640Q693 635 681 628T658 604Q648 592 636 561T610 476L544 214Q530 158
510 116T458 45T385 1T285 -14Q179 -14 124 34T68 174Q68 183 70 198T75 230T81 266T89 299L128 459Q139 504 145 534T151 583Q151 605 142 617T116 637Q105 642 94 643T74 646L77 657H401L398 646Q390 645 381 644T364 639Q347 633 334 623T309 597Q296 577 286
544T264 461L205 218Q194 171 194 124Q194 75 223 46T308 16Q354 16 388 30T447 69T488 132T517 215L582 475Q591 510 595 536T599 577Q599 602 587 617T557 639Q549 642 539 643T518 646L520 657H741L738 646Z" />
<glyph unicode="&#x171;" glyph-name="uhungarumlaut" horiz-adv-x="541" d="M397 67Q397 41 418 41Q441 41 470 69T522 133L534 125Q519 99 499 75T456 33T407 3T352 -9Q320 -9 303 10T286 64Q286 87 292 113T307 172H300Q273 119 247 84T196 29T148 0T103 -9Q72
-9 53 12T33 68Q33 83 36 99T45 135T59 177T79 229Q97 277 110 316T124 372Q124 396 107 396Q95 396 73 377T22 311L9 319Q45 383 90 413T174 443Q209 443 226 426T244 377Q244 364 240 345T228 303T212 255T193 204Q173 153 161 118T148 65Q148 42 167 42Q179
42 197 56T237 102T286 182T339 299Q352 331 364 364T389 433H506Q495 400 483 361T457 285T433 215L417 166Q406 130 402 108T397 67ZM353 671Q371 671 382 660T394 628Q394 611 385 599T358 574Q335 557 302 536T213 480L204 488Q220 514 233 534T256 571T275
600T292 626Q306 649 318 660T353 671ZM522 671Q541 671 552 660T564 628Q564 611 555 599T528 574Q505 557 472 536T383 480L374 488Q390 514 403 534T426 571T445 600T462 626Q476 649 488 660T522 671Z" />
<glyph unicode="&#x172;" glyph-name="Uogonek" horiz-adv-x="661" d="M317 -214Q239 -217 204 -196T168 -139Q168 -116 182 -98T217 -64T265 -36T316 -12Q309 -13 301 -13T286 -14Q179 -14 124 35T68 174Q68 183 70 198T75 230T81 266T89 299L128 459Q139 504
145 534T151 583Q151 605 142 617T116 637Q105 642 94 643T74 646L77 657H401L398 646Q390 645 381 644T364 639Q347 633 334 623T309 597Q296 577 286 544T264 461L205 218Q194 171 194 124Q194 75 223 46T308 16Q354 16 388 30T447 69T488 132T517 215L582 475Q591
510 595 536T599 577Q599 602 587 617T557 639Q549 642 539 643T518 646L520 657H741L738 646Q731 645 723 644T707 640Q693 635 681 628T658 604Q648 592 636 561T610 476L544 214Q521 122 481 70T376 -2Q323 -19 290 -58T256 -143Q256 -197 319 -204L317 -214Z"
/>
<glyph unicode="&#x173;" glyph-name="uogonek" horiz-adv-x="541" d="M362 -214Q284 -217 249 -196T213 -139Q213 -116 228 -97T267 -62T318 -33T370 -7Q364 -9 360 -9H352Q320 -9 303 11T286 64Q286 87 292 113T307 172H300Q273 119 247 84T196 29T148 0T103
-9Q72 -9 53 12T33 68Q33 83 36 99T45 135T59 177T79 229Q97 277 110 316T124 372Q124 396 107 396Q95 396 73 377T22 311L9 319Q45 383 90 413T174 443Q209 443 226 426T244 377Q244 364 240 345T228 303T212 255T193 204Q173 153 161 118T148 65Q148 42 167 42Q179
42 197 56T237 102T286 182T339 299Q352 331 364 364T389 433H506Q495 400 483 361T457 285T433 215L417 166Q406 130 402 108T397 67Q397 41 418 41Q441 41 470 69T522 133L534 125Q513 90 485 59T422 9Q401 -3 380 -18T341 -53T313 -95T302 -143Q302 -197 364
-204L362 -214Z" />
<glyph unicode="&#x174;" glyph-name="Wcircumflex" horiz-adv-x="938" d="M733 706L635 773L485 706L480 714Q484 717 495 727T521 751T553 780T584 808T608 830T620 841H673Q674 838 684 820T707 779T729 737T742 713L733 706ZM383 0L497 458H494L105 0H17L131
459Q142 504 148 534T154 582Q154 605 145 617T118 637Q107 642 96 643T77 646L80 657H403L400 646Q391 645 382 643T365 639Q348 633 336 624T313 598Q299 575 288 539T265 455L190 143H196L507 510Q511 530 514 550T518 582Q518 605 509 617T483 637Q472 642
463 643T445 646L448 657H767L764 646Q755 645 746 643T729 639Q712 633 700 624T677 598Q663 575 652 539T629 455L556 143H562L868 514Q886 535 895 553T904 589Q904 619 878 632Q865 639 854 641T826 646L828 657H1086L1084 646Q1073 644 1060 641T1036 632Q1000
615 968 585T905 518L473 0H383Z" />
<glyph unicode="&#x175;" glyph-name="wcircumflex" horiz-adv-x="706" d="M598 497L496 586L343 497L336 505Q352 522 375 546T420 595T461 640T488 668H540Q544 659 552 639T570 594T589 546T606 503L598 497ZM442 -9Q401 -9 374 7T330 53Q292 25 253 8T168
-9Q120 -9 89 20T58 103Q58 136 71 168T104 230T145 284T184 326Q171 330 154 339T117 361Q100 372 85 381T59 391Q56 391 53 389T50 382Q50 378 55 372T66 359Q71 351 75 344T79 328Q79 309 69 298T41 286Q21 286 12 298T2 331Q2 347 14 366T42 400Q58 417 80
430T124 443Q140 443 155 435T184 416Q203 403 215 397T238 390Q247 390 252 396T263 411Q271 428 277 435T294 443Q300 443 305 439T310 427Q310 418 302 412T287 400Q279 395 271 388T256 369Q243 349 230 321T205 259T187 191T180 121Q180 82 197 62T243 42Q260
42 279 50T318 74Q303 104 303 139Q303 183 312 222T335 295T366 354T401 400Q422 423 442 433T474 443Q498 443 512 424T526 368Q526 311 497 251T424 137Q448 49 512 49Q537 49 557 61T594 97Q620 134 634 184T648 285Q648 305 641 324T624 366Q617 381 615 387T613
402Q613 417 623 429T650 442Q670 442 682 423T695 366Q695 342 690 308T675 235T648 157T609 85Q580 44 540 18T442 -9ZM463 409Q455 409 446 402T428 379T414 341T408 287Q408 252 410 223T417 165Q450 209 474 258T498 346Q498 380 488 394T463 409Z" />
<glyph unicode="&#x176;" glyph-name="Ycircumflex" horiz-adv-x="547" d="M676 646Q665 644 652 641T627 632Q614 626 601 618T571 594T536 556T491 498L335 278L316 199Q305 153 299 123T293 75Q293 52 302 40T328 21Q339 16 350 14T370 11L367 0H35L37 11Q46
12 57 14T77 18Q94 23 108 33T132 60Q147 83 159 119T182 203L199 277L124 553Q110 604 87 622T32 646L34 657H339L336 646Q328 645 316 643T295 637Q284 632 274 623T264 593Q264 578 269 559T279 518L330 321H335L469 507Q494 542 504 565T515 606Q515 618 509
626T492 639Q485 642 478 643T462 646L464 657H679L676 646ZM522 706L424 773L274 706L269 714Q273 717 284 727T310 751T342 780T373 808T397 830T409 841H462Q463 838 473 820T496 779T518 737T531 713L522 706Z" />
<glyph unicode="&#x177;" glyph-name="ycircumflex" horiz-adv-x="404" d="M71 379Q44 379 7 311L-6 318Q20 373 55 408T135 443Q189 443 218 367Q225 349 232 320T246 253T258 170T265 77H269Q303 135 324 191T345 295Q345 315 340 332T327 366Q324 372 320 382T315
401Q315 421 326 432T354 443Q374 443 383 428T392 392Q392 309 363 229T291 78T197 -50T104 -144Q66 -176 30 -194T-37 -213Q-69 -213 -90 -196T-111 -151Q-111 -124 -95 -111T-61 -97Q-41 -97 -29 -105T-3 -130Q4 -139 14 -147T35 -155Q45 -155 59 -148T88 -129Q105
-115 125 -95T166 -50Q164 -8 160 40T149 137T133 229T114 306Q103 341 94 360T71 379ZM379 497L277 586L124 497L117 505Q133 522 156 546T201 595T242 640T269 668H321Q325 659 333 639T351 594T370 546T387 503L379 497Z" />
<glyph unicode="&#x178;" glyph-name="Ydieresis" horiz-adv-x="547" d="M676 646Q665 644 652 641T627 632Q614 626 601 618T571 594T536 556T491 498L335 278L316 199Q305 153 299 123T293 75Q293 52 302 40T328 21Q339 16 350 14T370 11L367 0H35L37 11Q46
12 57 14T77 18Q94 23 108 33T132 60Q147 83 159 119T182 203L199 277L124 553Q110 604 87 622T32 646L34 657H339L336 646Q328 645 316 643T295 637Q284 632 274 623T264 593Q264 578 269 559T279 518L330 321H335L469 507Q494 542 504 565T515 606Q515 618 509
626T492 639Q485 642 478 643T462 646L464 657H679L676 646ZM240 775Q240 800 257 818T301 837Q327 837 345 819T363 776Q363 750 345 732T301 714Q275 714 258 732T240 775ZM460 775Q460 800 477 818T521 837Q547 837 564 819T582 776Q582 750 565 732T521 714Q495
714 478 732T460 775Z" />
<glyph unicode="&#x179;" glyph-name="Zacute" horiz-adv-x="556" d="M289 712Q336 748 365 772T420 816Q443 833 456 839T486 846Q505 846 517 834T530 799Q530 777 513 765T471 744Q442 735 401 726T294 703L289 712ZM610 646L121 22H185Q239 22 283 35T366
77Q420 114 451 148T507 212H518L438 0H-55L-53 11L437 634H361Q317 634 277 622T194 582Q163 562 132 530T72 466H61L139 657H612L610 646Z" />
<glyph unicode="&#x17a;" glyph-name="zacute" horiz-adv-x="455" d="M440 623Q440 600 425 586T381 560Q353 548 313 534T218 500L213 509Q234 531 249 547T277 576T301 601T325 624Q348 646 363 656T395 666Q416 666 428 656T440 623ZM458 413Q458 397 445 380T413
350Q412 349 398 337T363 307T319 268T275 229T240 199T224 185Q216 179 205 172T182 156L159 140Q148 132 140 126Q155 127 175 126Q192 124 214 121T250 115Q273 110 293 105T333 100Q352 100 368 107T400 134Q413 152 425 176L439 170Q428 139 415 108T383 50T338
8T277 -9Q245 -9 223 3T180 38Q161 60 145 76T112 93Q103 93 95 87T80 70T68 48T59 25Q55 12 44 2T17 -9Q1 -9 -6 1T-13 24Q-13 38 -4 49T19 68L46 86Q64 98 75 103L323 312Q317 310 309 309T293 308Q267 308 238 318T180 342Q161 352 141 362T107 373Q86 373 71
359T56 318Q56 309 59 304T67 296Q73 316 87 326T116 336Q136 336 151 325T166 287Q166 267 151 252T115 237Q83 237 61 261T39 330Q39 355 48 375T72 411T107 434T150 443Q185 443 207 430T251 397Q261 388 272 378T293 357T314 341T332 334Q345 334 354 341T370
361T380 386L389 412Q394 426 405 434T428 443Q444 443 451 434T458 413Z" />
<glyph unicode="&#x17b;" glyph-name="Zdotaccent" horiz-adv-x="556" d="M610 646L121 22H185Q239 22 283 35T366 77Q420 114 451 148T507 212H518L438 0H-55L-53 11L437 634H361Q317 634 277 622T194 582Q163 562 132 530T72 466H61L139 657H612L610 646ZM314
779Q314 808 333 826T379 845Q406 845 426 827T446 779Q446 750 426 732T379 714Q353 714 334 732T314 779Z" />
<glyph unicode="&#x17c;" glyph-name="zdotaccent" horiz-adv-x="455" d="M458 413Q458 397 445 380T413 350Q412 349 398 337T363 307T319 268T275 229T240 199T224 185Q216 179 205 172T182 156L159 140Q148 132 140 126Q155 127 175 126Q192 124 214 121T250
115Q273 110 293 105T333 100Q352 100 368 107T400 134Q413 152 425 176L439 170Q428 139 415 108T383 50T338 8T277 -9Q245 -9 223 3T180 38Q161 60 145 76T112 93Q103 93 95 87T80 70T68 48T59 25Q55 12 44 2T17 -9Q1 -9 -6 1T-13 24Q-13 38 -4 49T19 68L46 86Q64
98 75 103L323 312Q317 310 309 309T293 308Q267 308 238 318T180 342Q161 352 141 362T107 373Q86 373 71 359T56 318Q56 309 59 304T67 296Q73 316 87 326T116 336Q136 336 151 325T166 287Q166 267 151 252T115 237Q83 237 61 261T39 330Q39 355 48 375T72 411T107
434T150 443Q185 443 207 430T251 397Q261 388 272 378T293 357T314 341T332 334Q345 334 354 341T370 361T380 386L389 412Q394 426 405 434T428 443Q444 443 451 434T458 413ZM357 589Q357 560 337 544T293 527Q268 527 250 544T231 589Q231 616 250 634T293
653Q317 653 337 636T357 589Z" />
<glyph unicode="&#x17d;" glyph-name="Zcaron" horiz-adv-x="556" d="M291 843L390 776L539 844L545 836Q539 831 517 812T471 770T427 730T405 708H352Q350 711 340 730T317 771T295 813T282 837L291 843ZM610 646L121 22H185Q239 22 283 35T366 77Q420 114 451
148T507 212H518L438 0H-55L-53 11L437 634H361Q317 634 277 622T194 582Q163 562 132 530T72 466H61L139 657H612L610 646Z" />
<glyph unicode="&#x17e;" glyph-name="zcaron" horiz-adv-x="455" d="M201 663L303 571L456 663L463 655Q446 638 423 614T378 565T337 520T311 492H258Q255 501 247 521T229 566T209 614T192 656L201 663ZM458 413Q458 397 445 380T413 350Q412 349 398 337T363
307T319 268T275 229T240 199T224 185Q216 179 205 172T182 156L159 140Q148 132 140 126Q155 127 175 126Q192 124 214 121T250 115Q273 110 293 105T333 100Q352 100 368 107T400 134Q413 152 425 176L439 170Q428 139 415 108T383 50T338 8T277 -9Q245 -9 223
3T180 38Q161 60 145 76T112 93Q103 93 95 87T80 70T68 48T59 25Q55 12 44 2T17 -9Q1 -9 -6 1T-13 24Q-13 38 -4 49T19 68L46 86Q64 98 75 103L323 312Q317 310 309 309T293 308Q267 308 238 318T180 342Q161 352 141 362T107 373Q86 373 71 359T56 318Q56 309
59 304T67 296Q73 316 87 326T116 336Q136 336 151 325T166 287Q166 267 151 252T115 237Q83 237 61 261T39 330Q39 355 48 375T72 411T107 434T150 443Q185 443 207 430T251 397Q261 388 272 378T293 357T314 341T332 334Q345 334 354 341T370 361T380 386L389
412Q394 426 405 434T428 443Q444 443 451 434T458 413Z" />
<glyph unicode="&#x192;" glyph-name="florin" horiz-adv-x="392" d="M482 584Q482 555 467 543T428 530Q399 530 387 544T373 579Q372 589 376 604T379 630Q378 648 361 648Q339 648 322 617Q308 588 294 544T263 425H357L351 403H258Q250 365 239 318T215 220T187
118T156 22Q122 -78 67 -130T-63 -182Q-117 -182 -150 -159T-183 -97Q-183 -65 -166 -54T-130 -42Q-104 -42 -92 -57T-78 -91Q-77 -103 -79 -115T-80 -139Q-78 -150 -74 -155T-57 -160Q-41 -160 -25 -143T2 -91Q20 -31 36 32T67 159T96 284T124 403H53L59 425H129Q133
441 136 449T143 472Q159 523 183 559T238 619T301 654T366 666Q419 666 450 644T482 584Z" />
<glyph unicode="&#x1fa;" glyph-name="Aringacute" horiz-adv-x="609" d="M206 273H365L428 525H423L206 273ZM360 249H185L95 143Q79 124 70 106T60 68Q60 54 66 43T84 25Q97 19 109 16T138 11L135 0H-124L-121 11Q-99 14 -78 24Q-42 41 -8 73T54 137L506 657H597L483
199Q472 153 466 123T460 75Q460 52 469 40T495 21Q506 16 517 14T537 11L534 0H211L214 11Q223 12 232 14T249 18Q283 30 301 60Q315 83 326 118T349 203L360 249ZM507 900Q554 936 583 960T638 1004Q661 1021 674 1027T704 1034Q723 1034 735 1022T748 987Q748
965 731 953T689 932Q660 923 619 914T512 891L507 900ZM658 787Q658 748 633 725T574 702Q541 702 515 724T489 787Q489 806 496 822T515 848T542 865T573 871Q589 871 604 866T632 849T651 823T658 787ZM631 786Q631 816 615 832T573 849Q549 849 533 833T516
787Q516 757 532 741T573 725Q598 725 614 740T631 786Z" />
<glyph unicode="&#x1fb;" glyph-name="aringacute" horiz-adv-x="493" d="M322 361Q322 422 287 422Q268 422 251 408T212 358Q195 330 179 291T151 213T131 140T123 87Q123 58 131 48T153 37Q167 37 180 47T208 75Q225 96 235 113T258 156Q270 182 281 211T302
268T316 320T322 361ZM361 66Q361 43 379 43Q391 43 404 50T430 70T457 99T481 132L493 125Q478 99 459 75T416 33T366 3T311 -9Q285 -9 267 7T249 58Q249 69 252 84T258 111H254Q241 87 230 72T203 39Q158 -9 107 -9Q87 -9 69 -3T37 18T15 57T7 116Q7 167 30 224T92
330T178 411T278 443Q308 443 323 428T343 389H347Q353 401 358 411T370 433H470Q458 395 441 342T404 231Q383 168 372 126T361 66ZM407 590Q407 571 401 556T382 529T355 511T323 505Q290 505 264 527T238 590Q238 630 264 652T323 675Q355 675 381 653T407 590ZM380
590Q380 620 364 636T322 653Q298 653 282 637T265 590Q265 561 281 545T322 529Q347 529 363 544T380 590ZM262 967Q309 1003 338 1027T393 1071Q416 1088 429 1094T459 1101Q478 1101 490 1089T503 1054Q503 1032 486 1020T444 999Q415 990 374 981T267 958L262
967Z" />
<glyph unicode="&#x1fc;" glyph-name="AEacute" horiz-adv-x="881" d="M573 712Q620 748 649 772T704 816Q727 833 740 839T770 846Q789 846 801 834T814 799Q814 777 797 765T755 744Q726 735 685 726T578 703L573 712ZM475 608H469Q466 604 447 581T399 523T338
449T275 374T223 311T193 275H393L475 608ZM866 451H854Q848 489 835 524T804 585Q790 605 768 619T707 634H684Q653 634 635 620Q624 611 614 596T595 545L547 352H569Q612 352 634 359T674 381Q697 400 714 428T741 481H752L681 197H670Q671 209 671 223T669
252T663 278T653 300Q645 312 626 320T567 329H541L501 169Q493 135 489 115T484 78Q484 52 496 40Q512 23 553 23H575Q613 23 646 40T709 82Q752 118 781 156T827 221H838L769 0H227L230 11Q239 12 250 14T270 18Q304 29 325 60Q339 83 350 118T375 203L386 249H171Q167
244 154 227T124 191Q106 169 84 143Q68 123 59 104T50 68Q50 54 56 43T74 25Q87 19 99 16T128 11L125 0H-135L-133 11Q-122 14 -110 19T-86 30Q-51 50 -19 79T38 137L446 622Q441 626 432 630T412 637T392 643T380 646L382 657H873L866 451Z" />
<glyph unicode="&#x1fd;" glyph-name="aeacute" horiz-adv-x="664" d="M580 623Q580 600 565 587T522 561Q493 549 453 535T358 501L353 510Q374 531 389 547T417 577T441 601T465 624Q488 646 503 656T536 666Q556 666 568 656T580 623ZM662 365Q662 343 651
324T619 288Q605 277 583 265T534 241T477 218T418 199Q413 172 410 145T407 93Q407 27 457 27Q484 27 507 37T550 63T585 97T611 132L623 125Q608 98 588 74T542 31T484 2T414 -9Q351 -9 318 31T282 135H277Q263 104 245 77T207 31Q187 13 162 2T111 -9Q91 -9
73 -2T41 20T19 59T11 117Q11 168 34 225T96 330T183 411T282 443Q312 443 326 428T343 389H347Q354 401 359 412T371 434H447Q447 432 445 426T440 413T436 399T433 391H436Q465 415 496 429T556 443Q613 443 637 421T662 365ZM577 385Q577 403 571 413T551 424Q531
424 512 408T476 363T445 297T421 218Q453 229 486 245T537 278Q548 289 556 303T568 332T575 360T577 385ZM326 362Q326 423 292 423Q272 423 255 408T217 358Q200 330 184 292T155 214T135 141T127 88Q127 59 137 48T161 37Q175 37 188 46T213 70Q230 91 241
109T263 153Q273 175 284 203T304 260T320 315T326 362Z" />
<glyph unicode="&#x1fe;" glyph-name="Oslashacute" horiz-adv-x="643" d="M630 414Q630 367 620 318T589 223T538 136T470 65Q424 28 371 7T257 -14Q211 -14 172 0L139 -65L117 -56L150 10Q117 27 92 54Q61 87 44 134T26 243Q26 288 36 335T65 428T113 514T177
585Q224 624 279 647T398 670Q440 670 476 658L506 717L528 707L499 649Q536 631 564 602Q595 569 612 522T630 414ZM497 506Q497 570 476 605L190 37Q216 8 258 8Q292 8 320 27T368 75Q384 95 406 140T448 244T483 372T497 506ZM399 648Q365 648 337 629T288 582Q272
562 250 517T208 412T174 285T160 150Q160 94 176 60L460 625Q435 648 399 648ZM330 712Q377 748 406 772T461 816Q484 833 497 839T527 846Q546 846 558 834T571 799Q571 777 554 765T512 744Q483 735 442 726T335 703L330 712Z" />
<glyph unicode="&#x1ff;" glyph-name="oslashacute" horiz-adv-x="435" d="M415 277Q416 217 391 158T323 57Q291 26 249 9T160 -9Q136 -9 115 -4L86 -62L67 -52L95 3Q70 15 52 35Q14 80 12 153Q11 214 36 274T105 377Q137 408 179 425T268 443Q293 443 315 436L347
499L366 490L335 429Q358 418 376 397Q415 352 415 277ZM269 426Q249 426 233 413T202 372Q189 348 174 309T147 226T126 139T118 65Q118 57 118 50L301 409Q291 426 269 426ZM310 368V379L128 21Q138 8 159 8Q197 8 225 61Q238 85 253 123T280 205T301 291T310
368ZM444 623Q444 600 429 587T386 561Q357 549 317 535T222 501L217 510Q238 531 253 547T281 577T305 601T329 624Q352 646 367 656T400 666Q420 666 432 656T444 623Z" />
<glyph unicode="&#x218;" glyph-name="Scommaaccent" horiz-adv-x="517" d="M227 152Q227 94 186 60T78 7L73 22Q113 34 141 51T169 88Q169 97 155 103Q134 108 120 123T105 160Q105 188 123 203T168 219Q192 219 209 202T227 152ZM476 449H463Q462 493 452 535T425
603Q411 623 390 636T329 649Q281 649 253 622T225 548Q225 525 232 506T253 471T282 439T317 409Q352 380 379 357T424 309T451 258T461 194Q461 147 442 109T389 44T313 1T221 -14Q169 -14 127 7T61 63H56L2 3H-8L45 246H58Q62 192 73 148T103 73T152 25T222
8Q282 8 314 40T347 121Q347 144 340 163T318 200T281 239T227 285Q203 306 182 326T146 368T121 417T112 479Q112 516 126 550T168 612T236 655T330 671Q382 671 417 651T467 609H469L508 655H520L476 449Z" />
<glyph unicode="&#x219;" glyph-name="scommaaccent" horiz-adv-x="347" d="M162 155Q162 97 121 63T13 10L8 25Q48 37 76 54T104 91Q104 100 90 106Q69 111 55 126T40 163Q40 191 58 206T103 222Q127 222 144 205T162 155ZM341 359Q341 337 329 324T296 310Q277
310 265 321T251 349Q249 365 252 374T252 396Q250 408 240 416T212 425Q183 425 171 408T158 368Q158 343 174 321T222 266Q261 225 282 195T303 130Q303 98 288 72T249 28T194 1T132 -9Q73 -9 35 18T-4 91Q-4 118 10 134T46 150Q66 150 77 139T91 108Q92 88 86
75T80 48Q81 27 98 18T136 8Q169 8 189 26T210 77Q210 89 206 99T192 121T167 148T131 185Q101 217 87 244T72 311Q72 342 84 367T117 408T163 434T218 443Q242 443 264 438T304 422T331 396T341 359Z" />
<glyph unicode="&#x21a;" glyph-name="uni021A" horiz-adv-x="604" d="M261 152Q261 94 220 60T112 7L107 22Q147 34 175 51T203 88Q203 97 189 103Q168 108 154 123T139 160Q139 188 157 203T202 219Q226 219 243 202T261 152ZM640 449H627Q622 485 611 519T576
583Q532 634 465 634H443L335 199Q313 110 313 75Q313 52 322 40T348 20Q359 15 370 14T389 11L386 0H54L57 11Q66 12 77 14T97 18Q132 29 152 60Q166 83 177 118T201 203L308 634H284Q250 634 219 621T160 584Q128 556 100 521T45 449H33L102 657H667L640 449Z"
/>
<glyph unicode="&#x21b;" glyph-name="uni021B" horiz-adv-x="292" d="M365 155Q365 97 324 63T216 10L211 25Q251 37 279 54T307 91Q307 100 293 106Q272 111 258 126T243 163Q243 191 261 206T306 222Q330 222 347 205T365 155ZM128 61Q128 43 143 43Q154 43
168 50T197 71T226 100T252 134L265 126Q250 100 229 76T182 33T129 3T71 -9Q43 -9 26 7T9 53Q9 66 14 87T27 132T44 181T61 230Q74 263 85 296Q95 324 105 354T123 408H60L67 433H131Q133 440 140 459T154 501T168 545T178 575H293Q290 566 284 545T269 501L255
459Q249 440 247 433H346L338 408H240Q232 383 222 351T200 289Q188 255 175 219Q156 162 142 119T128 61Z" />
<glyph unicode="&#x237;" glyph-name="uni0237" horiz-adv-x="256" d="M248 378Q248 366 241 339T224 277T201 207T178 143Q154 76 136 30T101 -48T70 -103T37 -143Q8 -173 -31 -193T-116 -213Q-163 -213 -195 -189T-228 -124Q-228 -98 -212 -80T-170 -62Q-140
-62 -126 -79T-112 -117Q-112 -130 -115 -139T-122 -157Q-125 -163 -127 -169T-130 -178Q-130 -185 -125 -189T-112 -193Q-94 -193 -80 -184T-50 -150Q-43 -140 -34 -117T-13 -65T10 -2T32 63T52 120T66 163Q76 191 87 224T108 288T124 340T130 371Q130 394 110
394Q98 394 77 376T26 311L13 318Q49 383 96 413T184 443Q216 443 232 426T248 378Z" />
<glyph unicode="&#x2c6;" glyph-name="circumflex" horiz-adv-x="350" d="M341 497L239 586L86 497L79 505Q95 522 118 546T163 595T204 640T231 668H283Q287 659 295 639T313 594T332 546T349 503L341 497Z" />
<glyph unicode="&#x2c7;" glyph-name="caron" horiz-adv-x="351" d="M105 663L207 571L360 663L367 655Q350 638 327 614T282 565T241 520T215 492H162Q159 501 151 521T133 566T113 614T96 656L105 663Z" />
<glyph unicode="&#x2d8;" glyph-name="breve" horiz-adv-x="310" d="M102 673Q111 632 141 614T206 595Q284 595 332 673L344 667Q339 638 328 612T299 567T256 536T199 524Q151 524 119 552T87 631Q87 649 90 667L102 673Z" />
<glyph unicode="&#x2d9;" glyph-name="dotaccent" horiz-adv-x="294" d="M274 589Q274 560 254 544T210 527Q185 527 167 544T148 589Q148 616 167 634T210 653Q234 653 254 636T274 589Z" />
<glyph unicode="&#x2da;" glyph-name="ring" horiz-adv-x="358" d="M291 590Q291 571 285 556T266 529T239 511T207 505Q174 505 148 527T122 590Q122 630 148 652T207 675Q239 675 265 653T291 590ZM264 590Q264 620 248 636T206 653Q182 653 166 637T149 590Q149
561 165 545T206 529Q231 529 247 544T264 590Z" />
<glyph unicode="&#x2db;" glyph-name="ogonek" horiz-adv-x="289" d="M31 -139Q31 -113 48 -93T92 -57T146 -27T198 0H216Q199 -13 182 -28T151 -62T129 -100T120 -143Q120 -197 182 -204L180 -214Q102 -217 67 -196T31 -139Z" />
<glyph unicode="&#x2dc;" glyph-name="tilde" horiz-adv-x="343" d="M388 640Q373 592 345 561T273 529Q256 529 240 533T208 543T177 552T148 557Q129 557 109 547T72 512L60 516Q78 566 109 597T185 629Q199 629 213 625T242 616T272 607T302 603Q327 603 343
610T377 643L388 640Z" />
<glyph unicode="&#x2dd;" glyph-name="hungarumlaut" horiz-adv-x="441" d="M255 671Q273 671 284 660T296 628Q296 611 287 599T260 574Q237 557 204 536T115 480L106 488Q122 514 135 534T158 571T177 600T194 626Q208 649 220 660T255 671ZM424 671Q443 671
454 660T466 628Q466 611 457 599T430 574Q407 557 374 536T285 480L276 488Q292 514 305 534T328 571T347 600T364 626Q378 649 390 660T424 671Z" />
</font>
</defs>
</svg>
