<?xml version="1.0" standalone="no"?> <!DOCTYPE svg PUBLIC "-//W3C//DTD SVG 1.0//EN" "http://www.w3.org/TR/2001/REC-SVG-20010904/DTD/svg10.dtd" > <svg xmlns="http://www.w3.org/2000/svg" width="100%" height="100%">
<defs >
<font horiz-adv-x="476" ><font-face
    font-family=""
    units-per-em="1000"
    panose-1="0 0 0 0 0 0 0 0 0 0"
    ascent="787"
    descent="-213"
    alphabetic="0" />
<missing-glyph horiz-adv-x="250" />
<glyph unicode=" " glyph-name="space" horiz-adv-x="208" />
<glyph unicode="!" glyph-name="exclam" horiz-adv-x="240" d="M258 614Q258 586 239 540T195 431Q166 356 137 282T85 150H69Q84 226 94 294T114 419Q123 479 127 526T139 605Q150 643 169 656T208 669Q230 669 244 656T258 614ZM95 37Q95 15 80 0T42 -16Q21
-16 6 -1T-9 37Q-9 58 6 73T42 89Q64 89 79 74T95 37Z" />
<glyph unicode="&quot;" glyph-name="quotedbl" horiz-adv-x="274" d="M306 631Q306 625 303 615T293 591T281 564T268 536Q257 513 247 492T228 453H215Q217 471 218 493T221 539Q222 551 223 565T226 592T228 617T231 633Q235 650 246 660T270 670Q306 670 306
631ZM183 631Q183 625 180 615T170 591T158 564T145 536Q134 513 124 492T105 453H92Q94 471 95 493T98 539Q99 551 100 565T103 592T105 617T108 633Q112 650 123 660T147 670Q183 670 183 631Z" />
<glyph unicode="#" glyph-name="numbersign" horiz-adv-x="571" d="M443 435L388 226H535V209H383L327 0H306L362 209H178L123 0H101L157 209H5V226H161L217 435H57V453H222L276 656H297L243 453H427L481 656H502L448 453H588V435H443ZM239 435L183 226H366L422 435H239Z" />
<glyph unicode="$" glyph-name="dollar" horiz-adv-x="485" d="M490 553Q490 524 475 507T437 489Q414 489 400 501T386 536Q386 544 389 552T396 569T403 584T406 596Q406 611 387 624T331 639L270 397Q300 367 325 343T369 295T398 245T409 183Q409 142 390
106T339 44T262 3T167 -14L144 -108H122L146 -13Q112 -11 84 -1T36 26T4 64T-7 108Q-7 135 8 150T48 166Q73 166 84 152T95 118Q95 100 89 80T83 46Q83 29 104 20T151 8L226 306Q207 325 190 344T159 384T137 428T128 481Q128 519 143 551T184 607T243 645T315
660L335 738H356L337 660Q415 657 452 626T490 553ZM329 144Q329 168 325 184T310 216T283 248L243 289L173 7Q212 8 241 20T289 51T319 94T329 144ZM309 639Q260 635 231 604T201 526Q201 492 215 467T253 415L309 639Z" />
<glyph unicode="%" glyph-name="percent" horiz-adv-x="647" d="M330 551Q330 504 314 464T273 394T214 348T148 331Q106 331 78 360T50 440Q50 487 66 527T107 597T166 643T232 660Q274 660 302 630T330 551ZM266 571Q266 600 260 621T230 642Q219 642 206 638T178
617Q165 601 154 578T133 529T119 474T114 419Q114 390 120 369T150 348Q161 348 175 353T202 374Q215 390 226 412T247 461T261 516T266 571ZM107 -19L90 -6L566 664L582 651L107 -19ZM622 206Q622 159 606 119T564 49T505 4T439 -13Q397 -13 369 16T341 96Q341
143 357 183T399 252T458 298T524 315Q566 315 594 286T622 206ZM558 227Q558 256 551 277T521 298Q510 298 497 294T470 273Q457 257 445 234T424 185T410 130T405 75Q405 46 411 25T441 4Q452 4 466 8T493 29Q506 45 518 68T539 117T553 172T558 227Z" />
<glyph unicode="&amp;" glyph-name="ampersand" horiz-adv-x="722" d="M745 526Q745 466 710 429T612 392Q596 392 574 395T530 405Q545 394 557 376Q569 358 576 337T587 296T591 260Q591 235 584 205T562 144T523 85T466 34T388 -1T289 -15Q226 -15 177 3T93
55T41 133T23 230Q23 270 34 302T64 360T104 402T150 428Q142 446 137 468T132 516Q132 547 144 574T177 620T227 651T290 662Q347 662 378 638T410 560Q410 534 394 513T356 484L349 492Q371 507 371 537Q371 569 352 588T284 608Q260 608 239 600T202 576T177
533T167 470Q167 462 169 454T173 437Q184 440 193 441T211 442Q273 442 273 396Q273 381 262 372T234 363Q214 363 196 375T163 408Q137 391 117 357T97 274Q97 232 109 194T147 128T215 83T316 66Q375 66 419 88T492 145T536 222T551 303Q551 339 539 362T508
398T470 417T433 423Q390 423 365 400T340 345Q340 316 356 301T386 286Q384 297 384 307T388 326Q393 343 406 353T442 364Q462 364 476 350T490 312Q490 286 469 267T414 247Q392 247 375 255T345 276T326 308T319 345Q319 378 332 402T365 443T409 467T458 475Q478
475 495 473T528 469Q548 466 568 463T599 459Q652 459 675 483T699 540Q699 557 695 572T685 599T673 618T660 627Q658 598 642 577T600 556Q577 556 562 570T547 607Q547 632 567 646T610 661Q630 661 653 652T697 625T731 582T745 526Z" />
<glyph unicode="&apos;" glyph-name="quotesingle" horiz-adv-x="151" d="M183 634Q183 628 180 618T170 594T158 567T145 539Q134 516 124 495T105 456H92Q94 474 95 496T98 542Q99 554 100 568T103 595T105 620T108 636Q112 653 123 662T147 672Q183 672 183 634Z" />
<glyph unicode="(" glyph-name="parenleft" horiz-adv-x="242" d="M126 -103Q97 -37 75 39T53 209Q53 286 72 354T126 481T206 591T306 682L320 665Q265 621 221 572T145 465T97 344T80 209Q80 173 85 133T100 53T121 -24T149 -91L126 -103Z" />
<glyph unicode=")" glyph-name="parenright" horiz-adv-x="242" d="M122 681Q151 615 172 540T194 370Q194 293 175 225T121 98T41 -12T-59 -103L-73 -86Q37 1 102 114T167 370Q167 406 162 446T147 526T126 603T98 670L122 681Z" />
<glyph unicode="*" glyph-name="asterisk" horiz-adv-x="361" d="M217 309Q191 309 191 334Q191 344 193 360T199 395T205 435T211 476Q199 461 187 444T163 411T143 382T126 362Q107 343 89 362Q72 381 88 399Q95 406 108 415T137 436T171 459T204 485Q184 483
163 480T123 473T87 467T61 464Q36 464 36 490Q36 516 61 516Q71 516 87 514T122 509T162 502T203 496Q188 508 171 520T138 544T109 565T88 582Q71 601 89 619Q109 637 125 619Q132 612 141 599T162 570T186 537T211 504Q209 524 206 545T199 585T194 620T191
646Q191 671 217 671Q243 671 243 646Q243 636 241 620T235 585T228 544T222 503Q235 518 247 535T271 569T292 598T309 619Q327 637 346 618Q363 600 345 582Q338 575 325 565T296 544T263 521T230 496Q250 498 271 501T311 508T347 513T373 516Q398 516 398 490Q398
464 373 464Q363 464 347 466T312 472T271 479T230 485Q245 472 262 460T296 436T325 416T345 399Q363 380 345 362Q325 344 309 362Q302 369 292 382T271 411T248 444T222 477Q224 457 227 436T234 396T240 360T243 334Q243 309 217 309Z" />
<glyph unicode="+" glyph-name="plus" horiz-adv-x="461" d="M221 252V79H202V252H29V270H202V444H221V270H394V252H221Z" />
<glyph unicode="," glyph-name="comma" horiz-adv-x="188" d="M132 32Q132 3 118 -22T81 -67T28 -103T-31 -128L-36 -115Q-23 -111 -5 -102T31 -81T60 -56T72 -31Q72 -22 68 -18Q45 -15 32 1T19 37Q19 59 34 76T77 94Q100 94 116 78T132 32Z" />
<glyph unicode="-" glyph-name="hyphen" horiz-adv-x="338" d="M276 233H63L77 283H290L276 233Z" />
<glyph unicode="." glyph-name="period" horiz-adv-x="187" d="M127 39Q127 15 112 1T74 -14Q53 -14 38 1T22 39Q22 62 37 77T74 93Q96 93 111 79T127 39Z" />
<glyph unicode="/" glyph-name="slash" horiz-adv-x="239" d="M-91 -99L-111 -90L325 686L345 677L-91 -99Z" />
<glyph unicode="0" glyph-name="zero" horiz-adv-x="588" d="M378 670Q428 670 463 653T520 605T553 531T564 434Q564 350 536 270T459 126T349 25T217 -14Q167 -14 132 3T74 51T41 126T30 223Q30 279 43 334T79 438T135 530T206 604T288 652T378 670ZM219 8Q268
8 306 41Q340 71 370 117T422 224T457 358T470 516Q470 586 444 617T375 649Q328 649 289 615Q251 582 221 533T169 422T136 289T124 140Q124 70 151 39T219 8Z" />
<glyph unicode="1" glyph-name="one" horiz-adv-x="330" d="M162 494Q163 501 166 514T174 542T180 570T183 589Q183 597 181 602T172 611Q168 613 159 615T139 618T119 621T105 622L107 632Q132 634 163 639T224 649Q248 654 267 659T294 664Q302 664 300 656Q297
645 293 630T284 595L170 137Q159 95 159 72Q159 43 170 32T194 16Q200 14 214 13T238 10L236 0H-50L-48 10Q-40 11 -32 12T-16 15Q-2 18 12 25T37 45Q51 62 59 85T76 144L162 494Z" />
<glyph unicode="2" glyph-name="two" horiz-adv-x="515" d="M38 75Q68 98 107 127T186 191T264 266T332 351T380 447T398 552Q398 603 376 625T309 648Q280 648 250 635T194 597T154 535T138 450Q138 418 154 400T197 382Q216 382 232 389T260 408T283 435T302
469L314 463Q306 442 292 420T259 379T215 349T161 337Q135 337 117 346T86 370T68 405T62 447Q62 487 79 527T129 598T211 650T326 670Q408 670 455 629T503 519Q503 482 487 445T444 372T384 305T318 246T256 197T207 163Q186 149 159 133T94 94L95 91H298Q330
91 354 100T399 124Q418 138 432 156T460 194H472L380 0H-60L-42 13Q-28 24 -12 37T19 61T38 75Z" />
<glyph unicode="3" glyph-name="three" horiz-adv-x="473" d="M450 547Q450 515 431 485T381 429T310 381T228 345V343Q272 344 307 333T368 303T407 257T421 200Q421 162 405 124T354 56T270 6T150 -14Q112 -14 80 -4T25 25T-11 66T-24 116Q-24 143 -10 159T29
175Q54 175 65 160T76 121Q76 116 74 105T70 83Q68 77 66 68T63 53Q63 44 71 36T91 22T119 11T150 7Q187 7 217 21T270 62T305 125T318 209Q318 275 292 299T220 324Q191 324 159 307L129 292L120 308L188 344Q216 359 246 378T302 422T344 478T360 551Q360 571
356 589T342 620T315 641T273 649Q250 649 229 640T190 614T162 573T151 519Q151 487 165 473T201 459Q232 459 249 470T284 505L293 499Q286 485 275 471T248 444T213 425T169 417Q149 417 134 424T109 444T94 473T89 505Q89 542 107 572T154 624T216 658T281
670Q327 670 359 660T411 634T441 595T450 547Z" />
<glyph unicode="4" glyph-name="four" horiz-adv-x="515" d="M358 0H73L75 10Q83 11 92 12T108 15Q144 24 166 57Q177 73 184 94T199 145L217 218H-23L-18 232L377 657H419Q423 657 421 653Q417 638 413 622L317 238H356Q393 238 409 246T437 265Q451 279 463
298T484 340H494L437 108H426Q430 128 429 149T420 186Q412 201 397 209T350 218H313L293 137Q282 95 282 72Q282 43 293 32T317 17Q323 15 337 13T361 10L358 0ZM222 238L297 542H296L13 238H222Z" />
<glyph unicode="5" glyph-name="five" horiz-adv-x="499" d="M153 -14Q115 -14 84 -4T30 23T-5 63T-18 110Q-18 137 -4 154T35 172Q60 172 71 157T82 117Q82 112 80 100T76 77Q74 71 74 62T73 47Q73 38 80 31T98 19T124 10T153 7Q186 7 219 19T280 60T324 138T341
259Q341 287 337 310T321 350T293 376T248 386Q224 386 202 379T159 360T123 333T97 301L79 308L211 656H222Q266 620 351 620Q385 620 410 626T452 643T481 666T498 691L509 688Q491 649 471 621T426 573T370 545T296 535Q268 535 243 539T194 550L122 356L124
355Q151 381 188 397T262 413Q344 413 393 368T443 239Q443 191 423 146T366 65T274 8T153 -14Z" />
<glyph unicode="6" glyph-name="six" horiz-adv-x="530" d="M526 577Q526 550 510 530T470 510Q448 510 436 523T424 556Q424 570 433 588Q438 599 440 605T443 617Q443 631 431 640T393 649Q358 649 324 625T259 560T204 465T164 352H169Q198 390 239 408T323
426Q357 426 385 415T433 383T465 335T477 272Q477 228 461 178T413 85T331 14T215 -14Q166 -14 131 4T74 52T40 117T29 189Q29 258 47 320T94 436T162 533T241 606T324 653T400 670Q440 670 465 661T503 639T521 609T526 577ZM380 295Q380 335 359 365T296 395Q268
395 241 383T193 347Q161 312 143 260T124 138Q124 113 130 90T147 48T175 19T215 8Q273 8 312 55Q345 95 362 154T380 295Z" />
<glyph unicode="7" glyph-name="seven" horiz-adv-x="447" d="M111 -14Q87 -14 75 3T63 43Q63 65 77 93T110 151T152 208L190 256Q217 288 246 328T306 409T367 491T427 565V568H202Q163 568 135 557Q111 548 94 530T59 480H46L111 691H120Q124 677 134 667T173
656H527L523 640Q460 574 412 509T327 375T258 234T196 80Q177 30 159 8T111 -14Z" />
<glyph unicode="8" glyph-name="eight" horiz-adv-x="508" d="M10 144Q10 184 28 215T73 270T135 309T203 333Q184 348 167 365T136 403T114 447T106 497Q106 537 120 569T161 623T224 658T305 670Q388 670 428 635T469 540Q469 505 454 478T415 430T364 395T311
371Q342 345 364 325T402 283T424 236T431 175Q431 145 417 112T373 51T301 5T201 -14Q151 -14 115 0T56 36T21 87T10 144ZM295 384Q343 404 371 440T399 540Q399 591 376 620T299 649Q276 649 255 643T217 624T190 590T180 541Q180 518 187 499T207 463T240 428T285
392Q287 390 290 388T295 384ZM222 319Q195 311 170 295T126 257T95 206T83 144Q83 77 115 43T201 8Q233 8 260 18T308 45T339 87T350 139Q350 189 319 227T233 309Q232 311 228 314T222 319Z" />
<glyph unicode="9" glyph-name="nine" horiz-adv-x="523" d="M151 368Q151 328 172 298T235 267Q270 267 302 287T357 344Q380 377 392 420T404 519Q404 544 398 567T381 608T352 637T312 648Q276 648 248 629T199 576Q175 537 163 487T151 368ZM-8 84Q-8 111
8 128T48 146Q70 146 81 134T93 102Q93 87 85 68Q75 47 75 39Q75 25 88 17T128 9Q172 9 211 38T283 111T336 208T366 308H361Q332 270 291 253T208 235Q167 235 139 249T91 287T64 339T55 394Q55 439 70 487T117 576T197 643T312 670Q361 670 396 651T454 601T488
534T499 462Q499 381 481 314T434 194T366 102T286 37T204 -1T127 -14Q89 -14 63 -5T21 20T-1 52T-8 84Z" />
<glyph unicode=":" glyph-name="colon" horiz-adv-x="207" d="M200 380Q200 355 185 341T148 326Q126 326 111 341T95 380Q95 403 110 418T148 433Q169 433 184 419T200 380ZM109 39Q109 15 94 1T57 -14Q35 -14 20 1T4 39Q4 62 19 77T57 93Q78 93 93 79T109 39Z" />
<glyph unicode=";" glyph-name="semicolon" horiz-adv-x="219" d="M115 32Q115 3 101 -22T63 -67T11 -103T-48 -128L-53 -115Q-40 -111 -22 -102T14 -81T43 -56T55 -31Q55 -24 51 -18Q28 -15 15 1T1 37Q1 59 17 76T60 94Q83 94 99 78T115 32ZM199 380Q199 355
184 341T147 326Q125 326 110 341T95 380Q95 403 110 418T147 433Q169 433 184 419T199 380Z" />
<glyph unicode="&lt;" glyph-name="less" horiz-adv-x="379" d="M34 251V272L327 422V403L49 262L327 121V102L34 251Z" />
<glyph unicode="=" glyph-name="equal" horiz-adv-x="433" d="M43 337V355H380V337H43ZM43 162V180H380V162H43Z" />
<glyph unicode="&gt;" glyph-name="greater" horiz-adv-x="372" d="M49 102V121L327 262L49 403V422L342 272V251L49 102Z" />
<glyph unicode="?" glyph-name="question" horiz-adv-x="400" d="M445 538Q445 496 431 466T390 412T328 369T249 331Q213 315 184 302T135 276T104 247T93 211Q93 184 109 173T148 162Q167 162 181 166T205 177T222 191L236 205L245 197Q237 186 226 175T199
154T167 138T132 132Q90 132 63 161T35 234Q35 268 51 292T93 335T154 368T226 398Q268 416 296 431T340 463T363 497T370 536Q370 590 342 619T258 649Q199 649 169 617T138 541Q138 504 155 483T199 462Q208 462 218 467T229 479Q219 484 208 496T197 527Q197
548 210 564T246 580Q266 580 280 568T295 528Q295 511 286 496T260 469T222 450T178 443Q140 443 116 464T91 528Q91 558 106 584T148 628T208 658T281 669Q320 669 350 659T402 631T434 589T445 538ZM151 37Q151 16 136 1T98 -15Q76 -15 61 0T46 37Q46 59 61
74T98 90Q120 90 135 75T151 37Z" />
<glyph unicode="@" glyph-name="at" horiz-adv-x="736" d="M709 260Q709 202 687 152T630 65T552 7T465 -14Q440 -14 420 1T400 54Q400 62 403 77T411 107H407Q380 59 352 31Q329 8 308 -3T262 -14Q246 -14 230 -8T201 12T180 49T172 109Q172 151 190 201T240
293T314 364T405 393Q431 393 447 376T467 331H474Q481 345 486 358T498 386H568Q562 367 557 349T545 312T532 269T515 217Q494 154 484 111T473 54Q473 24 498 24Q528 24 562 40T625 86T673 160T692 260Q692 393 619 464T411 536Q336 536 269 508T150 429T69
309T39 160Q39 83 63 23T132 -78T239 -140T376 -162Q467 -162 535 -141T654 -91L661 -105Q614 -132 542 -154T374 -177Q291 -177 225 -153T111 -86T39 19T13 157Q13 245 46 317T135 442T261 522T410 551Q485 551 541 530T634 471T690 380T709 260ZM451 301Q451
335 441 356T407 378Q381 378 360 359T317 304Q300 276 288 245T269 183T258 126T254 83Q254 50 264 36T290 21Q318 21 352 58Q385 94 411 149Q433 193 442 232T451 301Z" />
<glyph unicode="A" glyph-name="A" horiz-adv-x="575" d="M212 271H371L434 522H429L212 271ZM367 250H192L99 141Q84 123 74 105T64 67Q64 36 88 24Q100 17 112 15T141 10L139 0H-113L-111 10Q-101 12 -92 14T-72 21Q-54 30 -36 43T-1 73T32 105T59 136L517 657H565L451
193Q440 147 434 116T427 67Q427 47 436 37T462 18Q471 15 483 13T503 10L501 0H216L218 10Q237 12 251 16Q267 21 281 31T306 57Q321 80 332 117T355 202L367 250Z" />
<glyph unicode="B" glyph-name="B" horiz-adv-x="598" d="M573 526Q573 489 558 460T517 409T457 373T383 353L382 349Q461 338 504 296T548 201Q548 165 530 129T478 65T399 18T295 0H-49L-47 10Q-38 11 -27 12T-8 16Q9 21 23 30T49 56Q63 79 74 116T98 202L164
470Q175 516 181 544T188 590Q188 610 179 620T152 639Q144 642 132 644T111 647L114 657H372Q412 657 448 651T513 629T557 589T573 526ZM449 239Q449 281 417 310T312 340H229L188 170Q180 138 176 117T172 79Q172 52 185 39Q194 30 211 26T251 22H275Q359 22
404 77T449 239ZM480 543Q480 584 458 609T382 635H355Q347 635 339 634T322 629Q305 621 298 602T281 547L235 362H331Q364 362 391 374T437 404Q460 428 470 461T480 543Z" />
<glyph unicode="C" glyph-name="C" horiz-adv-x="557" d="M542 419H530Q535 537 501 591T404 646Q369 646 338 631T282 594Q260 574 234 537T186 450T148 339T133 211Q133 107 182 55Q201 36 223 30T269 23Q312 23 348 40T414 86T467 148T505 215L522 206Q505
169 479 130T419 59T344 7T254 -14Q194 -14 152 6T83 60T45 140T33 235Q33 325 65 404T150 542T270 636T408 670Q438 670 460 664T499 648T527 627T546 603H550L589 647H601L542 419Z" />
<glyph unicode="D" glyph-name="D" horiz-adv-x="670" d="M659 407Q659 287 609 203T473 61Q431 32 381 16T270 0H-48L-46 10Q-38 11 -27 12T-7 16Q9 21 24 30T50 56Q64 79 75 116T99 202L165 470Q176 516 182 544T188 590Q188 610 179 620T153 639Q145 642 132
644T112 647L115 657H395Q459 657 508 636T591 581T642 501T659 407ZM557 436Q557 457 555 480T547 525T533 566T514 597Q493 620 463 627T391 635H355Q335 635 323 628T303 609T291 581T282 547L189 170Q181 138 177 117T172 79Q172 53 186 39Q203 22 247 22H275Q289
22 308 24T348 34T393 55T437 91Q461 116 483 149T521 224T547 318T557 436Z" />
<glyph unicode="E" glyph-name="E" horiz-adv-x="573" d="M562 463H551Q544 501 532 535T502 593Q497 600 490 607T471 621T444 631T408 635H382Q358 635 341 628T311 607T292 574T278 532L233 352H262Q305 352 328 357T368 376Q391 395 408 422T433 474H444L377
206H367Q370 230 367 257T352 301Q343 313 325 321T262 330H228L188 170Q179 134 176 110T176 70Q180 41 197 32T247 22H279Q321 22 354 38T410 72Q448 103 478 141T526 209H537L467 0H-49L-46 10Q-38 11 -27 12T-8 16Q9 21 23 31T49 57Q63 80 74 117T98 202L164
470Q175 516 181 544T188 590Q188 610 179 621T153 639Q144 643 132 644T111 647L113 657H559L562 463Z" />
<glyph unicode="F" glyph-name="F" horiz-adv-x="532" d="M567 466H556Q548 495 537 527T507 587Q491 610 469 622T414 635H377Q339 635 312 610T272 532L231 364H270Q313 364 335 369T376 389Q399 408 416 435T441 487H451L384 218H374Q377 242 375 270T360 314Q351
326 332 334T269 342H225L189 193Q178 147 172 116T165 67Q165 47 174 36T200 18Q209 14 221 13T241 10L239 0H-49L-47 10Q-38 11 -29 12T-12 16Q4 21 18 30T44 56Q59 79 70 116T93 202L159 470Q170 516 176 544T183 590Q183 610 174 620T147 639Q139 642 127 644T107
647L109 657H569L567 466Z" />
<glyph unicode="G" glyph-name="G" horiz-adv-x="600" d="M612 287Q602 286 596 285T581 281Q566 276 553 267T529 240Q519 222 512 201T497 148L464 15H456Q454 17 447 21T432 25Q424 25 412 21T385 11Q363 0 333 -7T273 -14Q213 -14 168 6T92 61T46 141T30 236Q30
326 63 405T150 543T273 636T413 670Q445 670 469 664T511 648T541 627T561 603H565L602 647H613L556 426H545Q550 543 514 595T413 648Q389 648 371 645T337 634T309 617T281 594Q260 576 234 538T185 448T147 332T131 203Q131 153 139 115T177 46Q196 26 223
17T274 8Q310 8 331 17T366 42Q380 57 387 78T401 122L412 168Q418 194 420 207T422 234Q422 251 415 260T392 277Q384 282 372 284T353 287L355 297H615L612 287Z" />
<glyph unicode="H" glyph-name="H" horiz-adv-x="694" d="M766 647Q758 646 747 645T728 641Q712 636 696 626T669 600Q654 576 644 540T622 455L558 193Q547 147 541 116T534 67Q534 47 543 37T570 18Q578 15 590 13T610 10L608 0H322L324 10Q343 12 357 16Q373
21 388 31T413 57Q428 80 439 117T463 202L492 322H225L193 193Q182 147 176 116T169 67Q169 47 178 37T204 18Q223 12 238 10L236 0H-49L-47 10Q-38 11 -27 12T-8 16Q9 21 23 31T49 57Q63 80 74 117T98 202L162 464Q173 510 179 541T186 590Q186 610 177 620T151
639Q142 642 130 644T109 647L112 657H398L395 647Q378 645 363 641Q347 636 331 626T304 600Q290 576 280 540T257 455L231 346H498L527 464Q538 510 544 541T550 590Q550 610 541 620T515 639Q498 645 481 647L483 657H769L766 647Z" />
<glyph unicode="I" glyph-name="I" horiz-adv-x="328" d="M402 647Q394 646 383 645T363 641Q347 636 331 626T304 600Q290 576 280 540T257 455L194 192Q183 146 176 115T169 67Q169 47 178 36T204 18Q213 14 225 13T246 10L244 0H-49L-47 10Q-38 11 -27 12T-8
16Q9 21 23 30T49 56Q63 79 75 116T98 202L162 465Q173 511 179 542T186 590Q186 610 177 621T151 639Q142 643 130 644T109 647L112 657H404L402 647Z" />
<glyph unicode="J" glyph-name="J" horiz-adv-x="404" d="M490 647Q482 646 471 645T451 641Q435 636 419 626T393 599Q378 575 368 539T346 455L273 155Q265 123 248 93T205 39T143 1T63 -14Q35 -14 11 -6T-32 16T-60 51T-70 98Q-70 128 -53 150T-5 172Q26 172
41 152T57 111Q57 92 50 82T37 64Q29 56 23 49T16 35Q16 23 31 15T60 7Q80 7 97 12T128 35Q145 55 155 86T171 143L250 464Q261 510 267 541T274 590Q274 610 265 620T239 639Q231 642 219 644T199 647L201 657H492L490 647Z" />
<glyph unicode="K" glyph-name="K" horiz-adv-x="634" d="M501 -14Q450 -14 425 28T396 143Q394 170 394 188T393 221T392 248T391 273Q388 318 369 333T321 348Q295 348 268 331T217 293L193 193Q182 147 176 116T169 67Q169 47 178 37T204 18Q213 15 225 13T245
10L243 0H-49L-47 10Q-38 11 -27 12T-8 16Q9 21 23 31T48 57Q63 80 74 117T98 202L161 464Q173 510 179 541T186 590Q186 610 178 620T153 639Q145 642 131 644T109 647L112 657H405L402 647Q394 646 383 645T363 641Q347 636 331 626T304 600Q290 576 280 540T257
455L224 321L450 506Q487 536 512 560T537 611Q537 623 533 629T517 641Q510 644 500 645L480 647L483 657H720L718 647Q702 645 681 639T639 621Q626 614 610 604T578 582T545 558T514 533L307 365L306 361Q317 366 330 369T359 373Q425 373 457 328T498 183Q502
143 505 114T512 64T525 34T547 24Q558 24 568 30T586 47T600 68T610 90L623 86Q608 43 580 15T501 -14Z" />
<glyph unicode="L" glyph-name="L" horiz-adv-x="535" d="M-47 10Q-38 11 -27 13T-8 17Q9 22 23 31T49 57Q63 80 74 117T98 202L162 465Q173 511 179 542T186 590Q186 610 177 621T151 639Q142 643 130 644T110 647L113 657H405L402 647Q394 646 383 645T363 641Q347
636 331 626T304 600Q290 576 280 540T257 455L188 171Q180 138 176 117T171 79Q171 52 185 40Q203 22 247 22H273Q315 22 348 39T404 73Q442 103 473 138T521 203H531L461 0H-49L-47 10Z" />
<glyph unicode="M" glyph-name="M" horiz-adv-x="824" d="M292 -4L224 570H220L120 167Q113 140 110 115T107 76Q107 50 117 36T145 16Q153 14 163 13T184 10L181 0H-44L-42 10Q-34 11 -24 12T-6 16Q24 25 46 53Q57 66 70 93T96 169L173 471Q178 493 181 509T187
537T191 560T192 582Q192 625 152 639Q145 641 134 643T114 647L116 657H313L374 131H379L698 657H895L892 647Q884 646 873 645T854 641Q837 636 821 626T795 600Q780 576 770 540T748 455L684 192Q673 146 667 117T661 70Q661 32 695 18Q704 14 716 12L736 10L734
0H448L450 10Q469 12 483 16Q499 21 513 30T539 56Q554 79 565 116T589 202L678 570H672L326 -4H292Z" />
<glyph unicode="N" glyph-name="N" horiz-adv-x="647" d="M713 647Q705 645 698 645T682 641Q668 636 656 629T633 605Q623 594 612 567T587 489L464 -8H443L209 518H204L116 167Q109 140 106 115T103 76Q103 50 113 36T141 16Q149 14 159 13T180 10L178 0H-49L-47
10Q-27 12 -11 16Q17 24 40 53Q51 66 65 93T90 169L166 467Q171 488 174 503T180 529T182 549T183 570Q183 593 169 611T133 639Q125 641 114 643T95 647L97 657H267L479 165H482L560 479Q569 515 572 540T576 579Q576 604 564 618T534 640Q527 643 517 644T495
647L497 657H716L713 647Z" />
<glyph unicode="O" glyph-name="O" horiz-adv-x="620" d="M608 415Q608 372 598 325T568 233T522 147T461 76Q413 34 361 10T251 -14Q207 -14 168 2T98 50T51 129T33 241Q33 284 43 331T73 423T119 510T180 581Q228 623 279 646T388 670Q432 670 472 654T542 606T590
527T608 415ZM510 482Q510 528 500 560T473 611T434 639T387 648Q351 648 320 630T269 592Q249 572 225 531T180 433T145 311T131 174Q131 127 141 96T167 45T206 17T253 8Q289 8 320 26T371 64Q390 83 414 125T460 223T495 345T510 482Z" />
<glyph unicode="P" glyph-name="P" horiz-adv-x="544" d="M578 514Q578 458 548 414T462 341Q432 326 391 316T279 305H248Q238 305 229 305T217 306L188 191Q166 103 166 68Q166 48 175 37T201 18Q209 14 222 13T243 10L240 0H-49L-46 10Q-38 11 -29 12T-12 16Q4
21 18 30T44 56Q59 79 70 116T93 202L159 470Q170 516 176 545T183 591Q183 611 174 621T148 639Q140 643 127 645T107 648L109 657H383Q435 657 472 646T533 616T567 570T578 514ZM475 541Q475 585 453 610T380 635H350Q333 635 323 631T302 616Q294 606 289 589T276
547L222 328Q225 328 234 328T253 327H284Q335 327 366 341T415 373Q428 386 439 405T458 446T470 492T475 541Z" />
<glyph unicode="Q" glyph-name="Q" horiz-adv-x="620" d="M550 -294Q497 -294 447 -272T333 -197Q300 -170 276 -148T230 -111T186 -88T133 -79Q126 -79 117 -81T100 -87T87 -96T81 -107Q81 -113 87 -119T98 -131Q104 -138 107 -148T111 -173Q111 -198 95 -211T58
-224Q35 -224 19 -210T3 -167Q3 -137 23 -116T69 -79T118 -56T150 -44Q167 -38 190 -30T235 -15V-13Q190 -10 153 8T89 59T48 138T33 245Q33 288 44 335T75 429T124 516T186 587Q279 670 393 670Q441 670 481 652T549 600T592 518T608 409Q608 366 598 318T567
224T516 136T447 65Q377 12 322 -6Q312 -9 291 -16T245 -30T198 -45T161 -58V-60Q208 -59 244 -65T311 -82T371 -109T435 -145Q480 -171 517 -186T595 -201Q645 -201 675 -174T722 -110L734 -115Q721 -149 701 -186T656 -249Q639 -266 612 -280T550 -294ZM509 481Q509
567 475 607T392 648Q356 648 325 630T273 591Q253 571 229 530T183 432T146 310T131 173Q131 130 141 99T169 48T210 17T257 7Q293 7 322 25T371 64Q390 83 414 124T459 222T494 344T509 481Z" />
<glyph unicode="R" glyph-name="R" horiz-adv-x="624" d="M490 -14Q439 -14 413 20T384 134Q383 185 382 222T363 285Q356 294 349 301T332 313T308 320T271 323H221L188 192Q165 100 165 68Q165 48 174 37T200 18Q209 15 221 13T241 10L239 0H-49L-47 10Q-38
11 -29 12T-12 16Q4 21 18 31T44 57Q59 80 70 117T93 202L159 470Q170 516 176 545T183 591Q183 611 174 621T147 639Q139 643 127 645T106 648L108 657H387Q488 657 533 623T579 530Q579 474 542 431T448 359Q432 351 412 345T359 333V329Q372 327 381 325T397
319T411 311T426 301Q449 286 465 253T486 172Q490 132 493 104T500 58T512 32T533 24Q543 24 553 30T573 47T588 68T599 90L613 85Q596 43 566 15T490 -14ZM477 542Q477 587 455 611T390 635H356Q339 635 326 631T302 616Q294 606 288 589T275 546L226 346H282Q340
346 372 355T425 386Q437 398 446 416T462 457T473 501T477 542Z" />
<glyph unicode="S" glyph-name="S" horiz-adv-x="500" d="M466 456H454Q454 475 451 496T443 536T432 572T420 599Q408 620 387 634T323 649Q271 649 240 621T208 541Q208 514 217 493T239 455T269 423T299 395Q329 367 354 344T397 298T426 248T437 185Q437 137
417 100T365 38T293 -1T214 -14Q160 -14 120 8T60 57H55L5 4H-4L48 235H61Q67 125 102 67T217 8Q250 8 275 19T317 48T342 89T351 137Q351 162 343 182T320 222T284 262T238 305Q217 324 197 342T162 383T137 431T127 494Q127 526 139 558T177 615T238 655T323
671Q369 671 404 654T456 613H458L494 657H505L466 456Z" />
<glyph unicode="T" glyph-name="T" horiz-adv-x="573" d="M614 471H602Q598 500 591 532T557 593Q536 616 507 625T440 635H413L304 193Q281 99 281 67Q281 47 290 36T316 18Q324 14 336 12L356 10L353 0H63L65 10Q73 11 84 12T104 16Q120 21 134 30T159 56Q174
79 185 116T209 202L316 635H284Q250 635 218 625T159 593Q127 567 100 533T51 471H40L102 657H639L614 471Z" />
<glyph unicode="U" glyph-name="U" horiz-adv-x="647" d="M727 647Q719 645 711 645T695 641Q682 636 670 628T646 605Q637 593 625 562T600 480L533 214Q519 157 498 115T446 44T373 1T275 -14Q182 -14 125 30T67 165Q67 174 68 187T72 216T78 249T85 281L130
464Q153 558 153 590Q153 610 144 620T118 639Q110 642 98 644T78 647L81 657H367L364 647Q345 645 331 641Q315 636 299 626T272 600Q257 576 247 540T225 455L168 217Q157 171 157 123Q157 70 189 41T282 11Q337 11 374 25T437 67T479 131T506 215L572 478Q581
515 584 540T588 579Q588 603 576 618T546 640Q538 642 528 644T507 647L509 657H729L727 647Z" />
<glyph unicode="V" glyph-name="V" horiz-adv-x="564" d="M705 647Q695 645 683 642T660 634Q623 617 592 587T531 520L79 0H23L137 464Q160 558 160 590Q160 610 151 620T125 639Q117 642 105 644T85 647L87 657H374L371 647Q363 646 354 645T337 641Q321 636
306 626T281 600Q266 577 255 540T232 455L152 119H157L498 516Q515 536 524 554T533 590Q533 604 526 615T506 633Q493 640 483 642T455 647L457 657H707L705 647Z" />
<glyph unicode="W" glyph-name="W" horiz-adv-x="876" d="M359 -1L477 482H473L55 -1H8L122 465Q133 511 139 542T145 590Q145 610 136 621T110 639Q102 643 90 644L70 647L73 657H359L356 647Q337 645 323 641Q307 636 292 627T267 601Q252 578 241 541T217 455L139
134H144L486 532Q489 549 491 564T494 590Q494 610 485 621T459 639Q451 643 439 644L419 647L422 657H708L705 647Q697 646 688 645T671 641Q655 636 640 627T615 601Q600 578 589 541T565 455L491 134H496L820 516Q838 538 846 555T855 591Q855 605 848 616T828
634Q815 640 805 642T777 647L779 657H1029L1027 647Q1017 645 1005 642T981 634Q945 617 913 585T850 518L410 -1H359Z" />
<glyph unicode="X" glyph-name="X" horiz-adv-x="573" d="M263 289L151 156Q119 117 103 96T87 53Q87 42 92 33T109 18Q117 14 125 13T141 10L139 0H-70L-68 10Q-60 11 -49 14T-28 22Q-11 30 -1 37T20 53Q24 57 35 67T61 93T91 125T121 158L255 314L184 519Q175
547 168 564T152 594Q141 611 132 619T107 636Q97 641 87 643T67 647L68 657H359L356 647Q347 646 338 645T321 641Q295 633 286 621T276 585Q276 565 292 511L335 389L435 508Q451 527 461 541T478 565T488 585T491 604Q491 615 485 624T468 639Q460 643 452 644T436
647L438 657H649L647 647Q639 646 628 643T607 635Q590 627 579 620T558 605Q553 601 543 591T519 567T490 536T461 503L345 368L420 138Q429 110 436 94T452 64Q463 47 472 38T497 21Q507 16 517 14T537 10L535 0H242L245 10Q254 11 264 12T283 16Q309 24 318
37T328 72Q328 83 324 100T311 146L263 289Z" />
<glyph unicode="Y" glyph-name="Y" horiz-adv-x="504" d="M640 647Q632 646 619 643T596 636Q581 630 568 623T539 601T503 563T456 501L299 281L279 193Q268 147 261 116T254 67Q254 47 263 37T289 18Q298 15 310 13T330 10L328 0H37L39 10Q47 11 58 12T77 16Q93
21 108 31T133 57Q148 80 160 117T183 202L201 285L123 565Q116 590 108 605T88 628T64 640T34 647L35 657H299L298 647Q290 646 277 644T256 638Q245 633 235 624T225 594Q225 579 230 561T240 521L294 318H299L434 508Q457 540 468 564T480 608Q480 632 457 642Q450
645 444 645T429 647L431 657H642L640 647Z" />
<glyph unicode="Z" glyph-name="Z" horiz-adv-x="543" d="M590 646L78 21H148Q182 21 209 24T259 32T301 46T341 66Q368 81 388 96T426 128T458 161T489 197H501L411 0H-53L-50 11L467 635H364Q312 635 271 622T195 588Q164 568 136 541T73 476H62L153 657H593L590 646Z" />
<glyph unicode="[" glyph-name="bracketleft" horiz-adv-x="390" d="M485 662Q485 619 458 589T377 559Q354 559 329 566T282 583T241 606T213 630L37 -75Q54 -61 76 -48T122 -26T170 -10T216 -4Q260 -4 284 -21T308 -75Q308 -101 292 -124T262 -158L252 -153Q257
-146 261 -137T266 -115Q266 -92 248 -79T194 -66Q151 -66 97 -76T-4 -108L189 661Q208 651 233 644T285 633T338 627T386 625Q421 625 439 644T458 689Q458 695 458 699T455 709H468Q474 702 479 690T485 662Z" />
<glyph unicode="\" glyph-name="backslash" horiz-adv-x="308" d="M242 -99L76 679L97 684L264 -94L242 -99Z" />
<glyph unicode="]" glyph-name="bracketright" horiz-adv-x="401" d="M216 -108Q197 -98 172 -91T120 -80T67 -74T19 -72Q-16 -72 -35 -91T-54 -136Q-54 -142 -54 -146T-51 -156H-64Q-70 -149 -76 -137T-82 -109Q-82 -66 -55 -36T27 -5Q50 -5 75 -12T122 -29T163
-52T191 -76L367 628Q350 614 328 602T282 579T234 564T188 558Q144 558 120 575T96 629Q96 642 100 655T112 679T127 698T142 711L152 706Q147 699 143 690T138 669Q138 646 156 633T210 619Q253 619 307 629T408 661L216 -108Z" />
<glyph unicode="^" glyph-name="asciicircum" horiz-adv-x="357" d="M205 657H226L352 409H332L216 642L100 409H80L205 657Z" />
<glyph unicode="_" glyph-name="underscore" horiz-adv-x="301" d="M-92 -160L-86 -138H219L213 -160H-92Z" />
<glyph unicode="`" glyph-name="grave" horiz-adv-x="400" d="M249 661Q267 661 278 652T307 622Q316 611 325 601T344 579T366 552T393 517L388 510Q358 524 329 538T272 568Q263 572 254 578T236 591T222 608T216 627Q216 641 224 651T249 661Z" />
<glyph unicode="a" glyph-name="a" horiz-adv-x="444" d="M302 339Q302 374 292 394T258 415Q232 415 212 397T169 344Q152 316 138 281T113 210T96 142T90 89Q90 56 100 42T127 27Q143 27 157 36T188 63Q202 78 214 95T240 135Q253 159 264 188T284 245T297 297T302
339ZM311 58Q311 35 330 35Q344 35 358 43T386 64T412 95T436 130L449 123Q435 100 418 77T381 34T338 3T290 -9Q267 -9 252 4T236 53Q236 64 239 79T246 108H242Q229 85 216 68T188 35Q166 13 146 2T100 -9Q84 -9 68 -3T39 17T18 54T9 112Q9 155 30 210T85 315T165
399T258 433Q286 433 301 416T321 371H323Q330 385 336 397T349 424H419Q407 386 390 333T353 222Q332 159 322 116T311 58Z" />
<glyph unicode="b" glyph-name="b" horiz-adv-x="411" d="M389 293Q389 268 383 240T366 182T339 126T304 76Q270 37 224 14T135 -9Q106 -9 84 1T45 28T21 67T12 115Q12 138 18 169T38 243L144 566Q152 592 157 607T162 631Q162 653 152 662Q147 667 136 669T113
674L116 684H258Q263 684 263 679Q263 675 259 667T250 644Q246 634 243 626T237 608T229 586T220 558L156 360H162Q186 398 217 415T278 433Q332 433 360 398T389 293ZM307 336Q307 375 296 391T259 408Q242 408 227 399T198 376Q166 345 144 297Q132 271 122
243T103 187T91 137T86 99Q86 52 99 31T137 9Q174 9 202 37T254 115Q273 156 290 214T307 336Z" />
<glyph unicode="c" glyph-name="c" horiz-adv-x="345" d="M346 358Q346 340 337 325T305 310Q285 310 277 321T268 348Q268 353 270 360T273 371Q275 378 278 384T281 395Q281 415 251 415Q234 415 217 405T185 375Q167 352 150 319T120 247T100 168T92 91Q92
55 109 38T152 20Q176 20 197 30T236 55T266 89T289 123L302 115Q289 90 271 68T231 28T182 1T124 -9Q96 -9 75 2T40 32T18 76T11 130Q11 166 20 200T44 265T79 323T122 371Q155 403 191 418T254 433Q292 433 319 415T346 358Z" />
<glyph unicode="d" glyph-name="d" horiz-adv-x="460" d="M306 347Q304 377 292 396T257 415Q231 415 210 397T167 344Q150 316 136 279T111 206T95 138T89 90Q89 57 99 43T126 28Q141 28 155 36T187 63Q214 90 240 137Q253 161 264 191T285 250T299 305T306 347ZM242
111Q216 64 188 36Q165 13 144 2T98 -9Q82 -9 66 -3T37 17T16 55T7 115Q7 163 28 218T83 321T163 401T256 433Q284 433 299 419T319 381H324L385 566Q402 616 402 631Q402 642 401 649T393 662Q388 667 377 669T354 674L357 684H498Q503 684 503 679Q503 675 500
667T491 644Q487 634 484 626T477 608T469 586T460 558L357 227Q339 169 328 125T316 57Q316 36 333 36Q347 36 361 44T389 65T415 96T439 131L451 123Q437 100 420 77T383 34T339 3T291 -9Q267 -9 251 5T234 55Q234 65 238 81T246 111H242Z" />
<glyph unicode="e" glyph-name="e" horiz-adv-x="337" d="M299 116Q286 91 268 69T228 29T178 1T120 -9Q93 -9 73 2T38 32T17 76T10 130Q10 201 41 260T124 368Q157 400 189 416T249 433Q298 433 316 415T335 365Q335 346 323 327T293 292Q278 280 256 267T209
240T156 216T103 196Q91 142 91 91Q91 56 105 38T143 19Q170 19 192 29T233 54T264 88T287 123L299 116ZM107 213Q125 220 143 228T179 246T210 266T233 286Q251 306 259 331T268 376Q268 393 262 404T242 415Q221 415 202 399T164 355T132 291T107 213Z" />
<glyph unicode="f" glyph-name="f" horiz-adv-x="248" d="M202 402Q185 338 165 268T121 129T67 0T3 -107T-70 -181T-156 -209Q-197 -209 -226 -192T-255 -138Q-255 -113 -242 -103T-214 -93Q-196 -93 -186 -104T-175 -130Q-174 -142 -175 -150T-175 -170Q-173
-180 -166 -185T-148 -190Q-99 -190 -62 -138Q-18 -75 20 51T106 373Q108 381 110 388L114 402H37L43 424H119Q138 497 161 547T213 629T271 675T335 689Q377 689 403 673T430 627Q430 607 420 598T392 589Q356 589 354 625Q353 632 354 641T356 656Q354 673 332
673Q318 673 304 665T280 640Q263 611 246 560T206 424H300L295 402H202Z" />
<glyph unicode="g" glyph-name="g" horiz-adv-x="388" d="M127 -213Q42 -213 -7 -183T-56 -101Q-56 -86 -46 -71T-18 -43T24 -20T76 -5V-2Q46 6 30 28T13 77Q13 110 38 133T102 166Q76 183 62 210T47 273Q47 307 60 336T97 386T151 420T214 433Q245 433 268 421T306
385H310Q316 410 337 425T387 441Q411 441 422 428T434 399Q434 379 425 371T401 362Q389 362 380 368T365 385Q359 395 355 399T342 404Q335 404 329 394T322 371Q322 364 323 358L331 326Q334 316 334 307Q334 273 320 244T283 194T230 160T166 147Q143 147 120
157Q94 152 81 139T68 111Q68 87 91 80T166 64Q211 56 244 48T300 25T334 -10T345 -64Q345 -100 329 -127T285 -174T216 -203T127 -213ZM131 -195Q161 -195 189 -189T238 -171T272 -139T285 -94Q285 -65 264 -51T186 -25Q169 -22 147 -18T100 -9Q85 -13 68 -19T37
-37T14 -65T4 -106Q4 -151 37 -173T131 -195ZM213 416Q168 416 141 357Q127 328 121 298T115 243Q115 209 125 187T168 165Q214 165 239 223Q253 252 259 282T265 337Q265 372 255 394T213 416Z" />
<glyph unicode="h" glyph-name="h" horiz-adv-x="456" d="M-18 0Q-16 6 -4 43T26 133T65 250T106 374T143 486T170 566Q178 592 182 607T187 631Q187 642 186 649T178 662Q173 667 162 669T138 674L142 684H281Q286 684 286 679Q286 675 282 667T273 644Q269 634
266 626T260 608T252 586T243 558L150 270H156Q207 360 254 397T343 435Q372 435 386 417T400 369Q400 341 388 304T354 205Q346 182 338 158T324 113T313 76T309 53Q309 34 322 34Q334 34 348 42T377 63T406 94T431 130L444 123Q430 100 412 77T371 34T325 3T275
-9Q251 -9 238 5T224 45Q224 58 229 79T243 125T261 177T280 231Q297 279 310 318T324 375Q324 388 319 392T305 397Q292 397 271 383T225 339T172 262T117 146Q104 114 90 75T63 0H-18Z" />
<glyph unicode="i" glyph-name="i" horiz-adv-x="252" d="M250 595Q250 570 233 559T199 547Q182 547 166 559T150 595Q150 618 166 631T199 645Q216 645 233 633T250 595ZM124 369Q124 395 104 395Q92 395 73 378T21 310L9 317Q42 379 82 406T151 433Q204 433
204 376Q204 353 191 310T159 215Q150 188 141 162T126 113T115 75T111 53Q111 35 125 35Q137 35 151 43T180 64T208 95T233 130L245 123Q231 100 213 77T174 34T128 3T77 -9Q54 -9 41 6T27 46Q27 59 32 80T46 127T64 179T83 231Q100 281 112 318T124 369Z" />
<glyph unicode="j" glyph-name="j" horiz-adv-x="217" d="M257 596Q257 571 241 559T207 547Q190 547 174 560T157 596Q157 619 173 632T207 645Q224 645 240 633T257 596ZM142 148Q118 74 100 24T66 -59T38 -114T10 -152Q-16 -181 -49 -197T-117 -213Q-159 -213
-184 -191T-210 -136Q-210 -116 -198 -102T-166 -88Q-143 -88 -132 -101T-121 -130Q-121 -140 -122 -146T-126 -160Q-128 -165 -128 -171T-129 -180Q-129 -185 -124 -189T-111 -193Q-92 -193 -78 -185T-48 -152Q-42 -142 -33 -119T-12 -66T11 -1T33 66T53 125T67
168Q80 205 90 238T109 298T121 343T126 368Q126 394 106 394Q93 394 74 377T23 309L11 316Q44 378 84 405T153 433Q208 433 208 376Q208 365 201 338T184 277T163 209T142 148Z" />
<glyph unicode="k" glyph-name="k" horiz-adv-x="436" d="M273 -9Q247 -9 235 8T223 43Q223 66 230 94L243 142Q246 153 247 165T249 187Q249 224 232 234T182 244H144L63 0H-18L169 566Q178 592 182 607T187 631Q187 653 177 662Q172 667 161 669T138 674L142
684H286Q292 684 292 679Q292 675 288 667T279 644Q275 634 272 626T266 608T258 586T249 558L150 262H194Q212 262 227 269T254 287T274 310T288 333Q300 357 311 376T337 410Q361 434 389 434Q413 434 427 417T441 375Q441 352 430 338T403 324Q389 324 378 332T366
359Q366 361 367 367T370 380Q372 385 372 389T373 395Q373 402 364 402Q349 402 335 378T301 319Q288 294 273 278T232 254V250Q259 245 276 235T303 213T318 185T322 154Q322 148 320 134T313 99Q308 79 306 69T304 53Q304 42 309 37T321 32Q341 32 367 57T417
118L429 111Q417 90 400 69T362 30T318 2T273 -9Z" />
<glyph unicode="l" glyph-name="l" horiz-adv-x="251" d="M148 215Q125 154 110 111T95 54Q95 35 108 35Q121 35 136 43T167 64T198 95T224 130L236 123Q222 100 203 77T161 34T113 3T61 -9Q37 -9 24 7T10 48Q10 62 16 83T31 129T50 181T70 234Q76 250 86 279T108
343T134 414T158 482T177 536T188 566Q196 587 201 605T206 631Q206 642 205 649T197 662Q192 667 181 669T158 674L161 684H305Q311 684 311 679Q311 675 307 667T298 644Q294 634 291 626T285 607T278 586T268 558Q233 458 210 393T173 287Q156 240 148 215Z"
/>
<glyph unicode="m" glyph-name="m" horiz-adv-x="693" d="M461 45Q461 58 466 79T480 125T498 177T517 230Q534 278 548 317T562 374Q562 387 557 391T542 396Q529 396 506 377T455 322T398 232T345 108Q343 102 339 90T330 62T320 30T309 0H225Q255 96 275 155T300
230Q308 254 316 277T330 319T341 353T345 374Q345 387 340 391T326 396Q313 396 293 381T247 334T195 253T143 135Q141 130 136 115T123 81T108 40T94 0H13Q23 33 36 72T62 148T86 218T103 268Q116 307 120 330T124 368Q124 395 105 395Q93 395 72 378T18 309L6
317Q39 379 78 406T145 433Q195 433 195 377Q195 353 190 324T173 254H180Q229 352 276 392T365 433Q393 433 405 416T418 369Q418 352 410 324T389 254H395Q448 351 492 392T578 433Q606 433 622 416T638 369Q638 341 625 304T591 205Q583 182 575 158T561 113T550
76T546 53Q546 35 559 35Q571 35 585 43T614 64T643 95T668 130L681 123Q667 100 649 77T608 34T562 3T512 -9Q488 -9 475 5T461 45Z" />
<glyph unicode="n" glyph-name="n" horiz-adv-x="482" d="M470 123Q456 100 438 77T397 34T351 3T301 -9Q277 -9 264 5T250 45Q250 58 255 78T269 124T287 176T306 229Q323 277 336 317T350 374Q350 387 345 391T331 396Q318 396 297 381T251 334T197 253T142
136Q129 104 117 70T93 0H13Q23 33 36 72T62 148T85 218T102 268Q115 307 119 331T124 369Q124 396 104 396Q92 396 71 379T18 311L6 318Q39 379 77 406T145 433Q195 433 195 378Q195 354 189 323T171 250H178Q232 348 278 390T370 433Q398 433 412 415T426 368Q426
340 414 302T380 203Q372 180 364 157T350 112T339 76T335 53Q335 35 348 35Q360 35 374 43T404 64T433 95T458 130L470 123Z" />
<glyph unicode="o" glyph-name="o" horiz-adv-x="385" d="M132 -9Q75 -9 44 29T11 135Q9 198 32 261T99 369Q128 399 165 416T241 433Q300 433 331 393T362 284Q362 223 339 162T274 56Q245 26 209 9T132 -9ZM239 417Q211 417 193 400T161 360Q147 337 133 303T108
229T89 151T82 80Q83 45 95 27T133 8Q161 8 179 25T211 65Q225 87 239 121T264 193T283 269T291 340Q293 417 239 417Z" />
<glyph unicode="p" glyph-name="p" horiz-adv-x="453" d="M194 329Q209 360 226 380T261 412T294 428T322 433Q344 433 364 428T399 406T423 363T432 292Q432 258 423 223T398 155T360 93T311 42Q282 19 250 5T180 -9Q155 -9 134 -4T101 9Q98 1 94 -11T85 -38T76
-66T68 -90Q62 -107 58 -125T54 -158Q54 -185 80 -198Q88 -202 98 -204T122 -208L119 -217H-125L-121 -208Q-105 -206 -91 -203T-67 -192Q-48 -179 -38 -159T-18 -109Q-15 -100 -4 -67T22 12T54 108T85 202T109 276T120 310Q125 326 127 341T130 365Q130 382 125
388T110 395Q99 395 75 374T18 301L6 308Q40 371 80 402T152 433Q177 433 187 418T197 374Q197 366 195 353T190 329H194ZM353 327Q353 368 341 386T304 404Q289 404 275 398T250 380Q232 364 216 336T189 276Q180 248 170 217T150 155T130 95T113 43Q124 28 142
19T176 10Q198 10 216 18T248 41Q269 60 288 94T321 169T344 251T353 327Z" />
<glyph unicode="q" glyph-name="q" horiz-adv-x="415" d="M260 -90Q247 -127 247 -158Q247 -186 272 -198Q280 -202 291 -204T314 -208L312 -217H67L71 -208Q87 -206 101 -203T125 -192Q144 -179 153 -161T174 -112L248 109H244Q231 85 219 68T191 36Q168 13 148
2T102 -9Q86 -9 70 -3T41 17T19 54T10 113Q10 142 19 177T46 247T86 316T136 376T195 417T258 433Q291 433 309 412T331 361H337L407 424H429Q426 416 414 378T384 285T346 169T307 53T276 -41T260 -90ZM304 340Q304 375 293 394T259 414Q233 414 213 397T170 344Q153
316 139 281T114 210T99 142T93 89Q93 56 103 42T129 27Q145 27 159 36T191 63Q205 78 217 95T243 136Q256 160 267 189T286 246T299 298T304 340Z" />
<glyph unicode="r" glyph-name="r" horiz-adv-x="363" d="M177 252Q198 307 217 342T255 397T291 425T328 433Q354 433 371 418T389 375Q389 350 377 339T350 327Q336 327 325 336T307 371Q304 383 302 389T291 395Q278 395 264 380T232 334T194 253T145 136Q132
104 120 70T95 0H16Q26 33 39 72T65 148T88 218T105 268Q118 307 121 330T124 368Q124 394 104 394Q92 394 71 377T17 309L6 316Q39 378 77 405T144 433Q170 433 180 419T191 377Q191 353 186 323T170 252H177Z" />
<glyph unicode="s" glyph-name="s" horiz-adv-x="307" d="M306 356Q306 338 297 326T270 314Q256 314 247 322T235 345Q233 359 237 367T239 387Q237 399 227 408T199 417Q165 417 153 397T140 350Q140 325 153 303T189 246Q222 196 238 169T255 116Q255 85 242
62T207 23T160 -1T109 -9Q59 -9 26 17T-8 87Q-8 111 3 126T35 142Q51 142 61 133T71 106Q71 95 68 88T62 75T55 63T52 50Q52 27 70 17T109 7Q143 7 163 28T183 83Q183 96 179 107T167 131T147 159T120 197Q107 216 99 231T85 259T77 287T74 318Q74 343 84 364T111
400T152 424T203 433Q223 433 241 428T274 413T297 389T306 356Z" />
<glyph unicode="t" glyph-name="t" horiz-adv-x="255" d="M93 54Q93 36 106 36Q118 36 133 44T163 65T192 96T218 131L230 124Q216 101 198 78T157 35T111 3T60 -9Q37 -9 24 6T10 45Q10 58 15 79T29 126T46 178T64 231L80 279Q88 302 98 333T120 402H62L66 424H126Q129
435 135 454T148 494T161 536T172 573H252Q247 558 241 537T228 495T215 454T206 424H303L298 402H200Q174 319 157 267Q147 238 139 215Q131 189 123 163T108 115T97 77T93 54Z" />
<glyph unicode="u" glyph-name="u" horiz-adv-x="485" d="M334 60Q334 47 340 40T355 33Q369 33 384 41T414 63T443 94T468 130L480 123Q466 100 448 77T408 34T362 3T312 -9Q285 -9 273 9T260 53Q260 77 265 103T281 168H274Q248 118 222 85T172 30T126 0T84
-9Q58 -9 43 9T28 56Q28 84 40 121T74 220Q82 243 90 267T106 312T118 350T123 374Q123 394 108 394Q96 394 75 377T21 310L9 317Q43 379 83 406T153 433Q176 433 189 421T203 380Q203 367 198 346T185 301T168 249T149 196Q132 148 119 109T105 53Q105 28 125
28Q138 28 158 43T204 91T257 172T312 290Q325 322 337 355T362 424H441Q430 391 418 352T392 276T368 207L352 158Q339 119 337 97T334 60Z" />
<glyph unicode="v" glyph-name="v" horiz-adv-x="387" d="M70 219Q78 241 87 265T103 312T115 350T120 374Q120 394 104 394Q92 394 71 377T17 310L5 317Q21 348 40 370T79 406T117 426T149 433Q172 433 185 422T198 381Q198 367 194 347T182 302T164 249L144
193Q129 151 117 116T105 64Q105 51 110 40T135 29Q173 29 209 51T273 110T319 190T336 278Q336 298 333 317T320 360Q314 376 312 383T309 398Q309 411 317 422T341 433Q381 433 381 357Q381 333 376 303T360 240T337 178T307 123Q289 96 265 72T215 30T161 2T108
-9Q71 -9 48 11T25 74Q25 98 38 134T70 219Z" />
<glyph unicode="w" glyph-name="w" horiz-adv-x="642" d="M398 -9Q356 -9 329 10T288 65Q252 32 215 12T136 -9Q97 -9 72 16T47 86Q47 119 58 155T87 225T124 290T160 343Q147 346 133 352T99 371Q86 379 71 388T48 398Q45 398 42 396T39 390Q39 388 42 382T50
368Q60 348 60 339Q60 323 51 315T31 307Q-1 307 -1 344Q-1 356 9 374T34 407Q46 418 62 425T93 433Q104 433 116 428T141 414Q158 403 169 398T187 393Q193 393 196 395T201 402Q210 418 216 425T234 433Q239 433 243 430T248 419Q248 411 242 406T228 396Q220
391 212 384T196 366Q184 346 171 316T148 251T132 182T125 119Q125 74 144 56T188 37Q208 37 232 49T282 85Q279 96 278 108T277 135Q277 181 284 220T302 292T327 350T354 393Q371 416 387 424T413 433Q436 433 446 415T457 368Q457 339 449 309T427 249T394
190T353 133Q364 86 384 61T439 35Q489 35 526 83Q555 121 571 174T588 283Q588 322 569 366Q562 382 561 387T559 400Q559 413 567 423T589 433Q630 433 630 358Q630 333 625 298T609 223T581 144T539 71Q513 36 478 14T398 -9ZM398 400Q390 400 380 392T361 367T346
327T340 274Q340 242 341 213T348 158Q363 179 378 203T405 251T424 296T431 335Q431 370 422 385T398 400Z" />
<glyph unicode="x" glyph-name="x" horiz-adv-x="455" d="M473 369Q473 338 454 304T415 243L404 248Q415 271 424 302T433 356Q433 379 427 394T401 410Q385 410 368 397T333 359Q315 331 298 295T269 211Q256 163 252 126T248 74Q248 48 258 39T280 30Q299 30
316 40T347 65T374 98T397 135L408 128Q395 102 377 78T338 34T294 3T249 -9Q213 -9 192 16T170 87Q170 96 171 106T174 126H170Q162 103 149 80T117 36T78 4T33 -9Q6 -9 -8 9T-22 56Q-22 71 -17 87T-3 120T16 152T36 180L47 175Q41 164 36 150T27 120T20 91T17
67Q17 43 23 28T50 13Q65 13 82 26T116 62Q136 88 153 126T184 213Q196 261 200 298T204 350Q204 376 195 385T175 394Q156 394 140 384T108 359T81 326T59 289L47 296Q59 321 78 346T118 390T162 421T206 433Q241 433 261 408T282 337Q282 318 279 302H283Q291
324 305 347T336 390T374 421T418 433Q445 433 459 415T473 369Z" />
<glyph unicode="y" glyph-name="y" horiz-adv-x="370" d="M67 379Q53 379 38 359T6 309L-7 317Q4 340 17 361T45 398T76 423T107 433Q123 433 138 424T169 381Q177 365 186 335T204 263T219 166T229 48H233Q250 79 265 111T292 175T310 237T317 295Q317 315 311
330T299 364Q297 368 294 378T291 397Q291 413 300 423T325 433Q345 433 351 418T358 383Q358 300 333 221T269 73T181 -53T86 -148Q9 -213 -45 -213Q-68 -213 -88 -200T-108 -157Q-108 -134 -94 -121T-63 -108Q-49 -108 -36 -115T-11 -140Q3 -159 18 -159Q29 -159
43 -152T74 -132Q91 -118 113 -95T159 -44Q157 7 153 57T141 153T126 239T108 310Q97 343 87 361T67 379Z" />
<glyph unicode="z" glyph-name="z" horiz-adv-x="415" d="M412 407Q412 391 396 371T359 333L103 96H106Q119 96 137 93Q155 91 174 88T204 82Q227 77 246 73T289 68Q306 68 322 75T358 105Q371 121 385 149L398 142Q388 117 375 91T344 42T303 6T250 -9Q222 -9
202 2T165 34Q151 51 135 65T104 80Q87 80 76 64T59 25Q55 12 44 2T18 -9Q2 -9 -5 1T-13 24Q-13 38 -4 49T19 68Q28 73 39 78T63 88L302 311Q297 310 288 310Q278 310 264 313T235 323T206 336T179 350Q161 361 141 372T106 384Q85 384 71 370T57 329Q57 320 60
314T66 306Q71 326 84 334T110 343Q128 343 141 334T155 299Q155 281 141 268T110 255Q79 255 60 277T40 338Q40 358 47 375T68 405T98 425T134 433Q166 433 186 421T230 390Q240 382 252 372T275 354T295 339T310 333Q323 333 329 341T339 361T345 385T351 407Q357
420 367 426T387 433Q412 433 412 407Z" />
<glyph unicode="{" glyph-name="braceleft" horiz-adv-x="341" d="M237 -140Q159 -135 112 -99T65 0Q65 15 71 38T86 88T101 138T108 179Q108 262 28 275L31 291Q77 294 107 311Q133 326 147 350T172 415Q177 435 181 464T192 522Q200 559 222 588T276 638T348
670T432 683L428 669Q404 667 383 661T344 641T313 603T293 539Q290 525 288 516L285 499Q284 491 283 481T278 455Q271 417 253 388T210 337T153 302T88 283L86 278Q105 272 125 262T161 237T187 204T197 163Q197 137 190 106T174 47T158 -6T151 -43Q151 -64 158
-79T178 -104T207 -119T239 -126L237 -140Z" />
<glyph unicode="|" glyph-name="bar" horiz-adv-x="198" d="M100 -99V687H122V-99H100Z" />
<glyph unicode="}" glyph-name="braceright" horiz-adv-x="338" d="M-99 -126Q-75 -124 -54 -118T-15 -98T16 -60T37 4Q40 18 41 26T43 43T46 61T51 88Q58 126 76 155T119 206T176 241T242 260L243 265Q223 271 204 281T168 306T142 339T132 380Q132 406 139 437T155
496T171 549T179 586Q179 607 171 622T151 647T122 662T90 669L93 683Q171 678 217 642T264 543Q264 528 258 505T243 455T228 405T221 364Q221 281 302 268L297 252Q249 249 220 231Q196 216 182 192T158 128Q153 108 149 79T138 21Q130 -16 108 -45T54 -95T-19
-127T-102 -140L-99 -126Z" />
<glyph unicode="~" glyph-name="asciitilde" horiz-adv-x="341" d="M214 239Q195 239 180 243T150 253T121 262T88 267Q71 267 56 258T26 225L17 230Q23 247 31 263T50 292T74 312T104 320Q122 320 137 316T166 307T194 298T224 294Q248 294 262 302T290 334L300
331Q292 295 272 267T214 239Z" />
<glyph unicode="&#xa0;" glyph-name="uni00A0" horiz-adv-x="500" />
<glyph unicode="&#xa1;" glyph-name="exclamdown" horiz-adv-x="244" d="M277 617Q277 595 262 580T225 565Q204 565 188 580T172 617Q172 639 188 654T225 669Q247 669 262 654T277 617ZM60 -16Q39 -16 24 -3T9 38Q9 66 28 112T73 222Q88 259 102 297T131 372T158
442T182 504H199Q183 427 173 359T154 234Q145 175 141 128T128 49Q117 11 99 -2T60 -16Z" />
<glyph unicode="&#xa2;" glyph-name="cent" horiz-adv-x="360" d="M362 360Q362 342 353 327T322 312Q282 312 282 352Q282 357 284 364T288 377Q295 393 295 398Q295 406 286 410T263 416L156 16Q172 16 189 22Q208 28 225 39T257 65T283 94T303 123L314 116Q288
66 248 30T150 -9L127 -96H106L130 -8Q116 -7 99 0Q58 14 35 50T11 128Q11 163 20 199T46 269T84 332T132 383Q160 406 188 419T248 434L271 519H291L268 434Q286 433 302 428T332 414T354 392T362 360ZM92 91Q92 62 105 44T137 19L242 413Q227 411 213 402T185
375Q167 352 150 319T120 247T100 168T92 91Z" />
<glyph unicode="&#xa3;" glyph-name="sterling" horiz-adv-x="624" d="M621 555Q621 525 612 503T587 465T550 443T506 435Q491 435 474 440T441 455T413 479T397 511L410 517Q416 497 439 484T489 471Q521 471 540 495T560 561Q560 595 541 616T498 638Q467 638
444 621T402 576T369 511T344 437Q334 401 325 361T304 281H480L473 256H296Q279 207 259 171T206 96Q251 83 297 74T378 65Q441 65 474 87T528 151L540 147Q533 110 517 78T477 23T421 -13T351 -27Q329 -27 304 -21T254 -4T204 19T159 46Q128 19 94 3T18 -14Q-30
-14 -55 7T-81 58Q-81 89 -51 109T25 130Q54 130 85 125T149 112Q164 145 175 184T194 256H73L80 281H200Q204 295 207 309T216 340Q232 395 256 452T314 555T394 631T500 661Q556 661 588 630T621 555ZM125 69Q101 85 78 96T34 108Q9 108 -6 94T-21 59Q-21 37
-6 24T33 11Q62 11 84 25T125 69Z" />
<glyph unicode="&#xa5;" glyph-name="yen" horiz-adv-x="505" d="M24 193L31 217H184L203 301H52L59 325H195L121 560Q113 583 105 597T87 619T64 632T35 640L37 650H294L292 640Q284 639 272 637T251 631Q240 626 230 617T220 587Q220 572 224 554T235 514L291
342H295L423 501Q451 537 464 559T477 601Q477 613 472 620T455 632Q448 635 438 637T420 640L422 650H635L633 640Q625 639 612 636T589 629Q574 623 561 615T531 591T494 553T446 494L309 325H466L458 301H301L281 217H437L430 193H275Q264 145 258 115T252 67Q252
47 260 37T285 18Q294 15 306 13T326 10L324 0H34L36 10Q45 11 56 12T75 16Q91 21 106 31T131 57Q145 80 156 113T179 193H24Z" />
<glyph unicode="&#xa7;" glyph-name="section" horiz-adv-x="357" d="M382 593Q382 576 372 563T341 550Q319 550 307 562T295 592Q295 602 296 610T297 631Q297 642 284 646T257 651Q222 651 199 626T175 556Q175 530 181 510T197 470T220 433T248 394Q261 376
276 354T305 309T328 261T338 216Q338 192 329 170T303 128T266 94T222 71Q233 49 239 25T246 -27Q246 -61 233 -90T197 -140T147 -174T89 -186Q56 -186 33 -180T-4 -162T-24 -137T-31 -109Q-31 -92 -21 -79T10 -66Q32 -66 44 -78T56 -108Q56 -118 55 -126T54 -147Q54
-158 66 -162T92 -167Q127 -167 152 -144T178 -75Q178 -50 172 -28T157 13T134 51T105 90Q89 112 73 135T43 181T22 227T13 273Q13 297 22 320T47 362T84 396T128 419Q118 439 113 461T107 509Q107 543 120 572T154 623T203 657T261 670Q295 670 318 664T355 646T375
621T382 593ZM79 322Q79 300 86 280T106 240T136 197T171 149Q182 134 193 118T215 84Q239 95 254 118T270 165Q270 186 263 206T243 247T214 289T181 335Q170 351 158 368T134 405Q109 394 94 371T79 322Z" />
<glyph unicode="&#xa8;" glyph-name="dieresis" horiz-adv-x="333" d="M86 595Q86 615 99 628T131 642Q152 642 165 629T179 597Q179 577 165 564T131 550Q112 550 99 563T86 595ZM236 595Q236 615 249 628T282 642Q302 642 315 629T329 597Q329 577 316 564T282
550Q263 550 250 563T236 595Z" />
<glyph unicode="&#xa9;" glyph-name="copyright" horiz-adv-x="888" d="M868 258Q868 172 835 97T746 -35T615 -124T454 -157Q368 -157 293 -124T161 -35T71 96T38 258Q38 343 71 418T160 549T292 638T454 671Q539 671 614 639T746 550T835 418T868 258ZM839 258Q839
339 808 409T724 532T601 615T454 645Q377 645 307 615T184 533T100 410T68 258Q68 176 99 105T184 -19T307 -102T454 -132Q531 -132 601 -102T724 -20T808 104T839 258ZM652 189Q644 156 630 126T592 74T537 38T462 24Q392 24 337 57Q286 85 256 136T226 259Q226
315 246 358T299 432T375 477T466 493Q520 493 554 476T608 436H612L632 472H641V308H629Q620 338 609 367T580 420T535 457T466 472Q418 472 383 437Q356 410 340 366T323 259Q323 218 329 188T344 135T366 99T389 76Q409 60 430 56T475 52Q499 52 521 58T564
80T602 123T633 193L652 189Z" />
<glyph unicode="&#xaa;" glyph-name="ordfeminine" horiz-adv-x="396" d="M435 382Q423 360 408 339T376 302T339 275T297 265Q279 265 263 277T246 325Q246 333 249 347T257 374H253Q241 351 228 335T201 304Q180 283 163 274T123 265Q109 265 95 270T70 288T51
322T44 376Q44 414 62 462T111 554T182 626T266 656Q290 656 303 641T320 600H323Q329 612 334 623T346 648H410Q399 614 383 566T350 466Q331 409 323 375T314 328Q314 306 332 306Q359 306 381 331T423 387L435 382ZM303 571Q303 600 294 620T265 640Q242 640
225 625T187 578Q172 553 159 521T137 458T122 399T117 355Q117 299 148 299Q171 299 202 330Q227 355 249 396Q261 418 271 442T288 490T299 535T303 571Z" />
<glyph unicode="&#xab;" glyph-name="guillemotleft" horiz-adv-x="410" d="M292 242L368 102L359 91L205 239L208 252L412 400L420 388L292 242ZM121 242L197 102L187 91L33 239L37 252L240 400L249 388L121 242Z" />
<glyph unicode="&#xae;" glyph-name="registered" horiz-adv-x="550" d="M550 422Q550 371 530 326T476 246T395 192T298 172Q246 172 201 192T121 246T67 325T47 422Q47 473 67 518T121 598T200 652T298 672Q349 672 395 652T475 598T530 519T550 422ZM525 422Q525
468 507 510T458 583T386 632T298 651Q251 651 210 633T138 583T89 510T71 422Q71 375 89 334T137 261T209 211T298 192Q344 192 385 210T458 260T507 333T525 422ZM374 291Q367 299 360 314T351 348Q347 390 329 412Q314 430 285 430H256V357Q256 332 259 322Q261
317 263 313T271 306Q275 304 282 304T294 303V291H177V303Q181 303 188 303T199 306Q205 308 207 312T211 322Q213 327 213 335V529Q213 538 211 543Q209 548 207 552T199 558Q195 560 188 561T177 562V574H300Q344 574 370 557T396 504Q396 477 376 461T322 439V437Q351
434 368 420T393 362Q396 348 399 340T405 326T412 319T421 313Q425 311 436 307T453 303V291H374ZM349 504Q349 534 336 546T290 558H256V444H285Q318 444 333 462T349 504Z" />
<glyph unicode="&#xaf;" glyph-name="macron" horiz-adv-x="321" d="M69 558L77 593H307L299 558H69Z" />
<glyph unicode="&#xb0;" glyph-name="degree" horiz-adv-x="299" d="M317 544Q317 515 307 492T279 452T239 426T191 416Q166 416 143 425T103 451T76 491T65 544Q65 572 75 596T103 636T143 662T191 672Q216 672 238 663T278 637T306 596T317 544ZM274 544Q274
598 252 626T191 655Q153 655 131 627T108 544Q108 490 130 462T191 434Q229 434 251 462T274 544Z" />
<glyph unicode="&#xb4;" glyph-name="acute" horiz-adv-x="400" d="M369 626Q369 606 357 595T317 571Q290 558 258 544T171 507L166 515Q187 536 202 550T228 576T250 598T273 620Q296 642 309 649T336 657Q369 657 369 626Z" />
<glyph unicode="&#xb6;" glyph-name="paragraph" horiz-adv-x="497" d="M574 639H495L299 -151H275L471 639H375L179 -151H155L263 282H239Q197 282 164 296T109 333T74 385T62 446Q62 492 81 530T133 597T210 641T307 657H579L574 639Z" />
<glyph unicode="&#xb7;" glyph-name="periodcentered" horiz-adv-x="226" d="M168 257Q168 233 151 220T115 207Q97 207 80 220T63 257Q63 280 80 294T115 309Q134 309 151 296T168 257Z" />
<glyph unicode="&#xb8;" glyph-name="cedilla" horiz-adv-x="343" d="M208 -95Q208 -117 197 -132T167 -158T127 -172T83 -177Q62 -177 42 -170T10 -155L19 -144Q29 -150 44 -154T76 -158Q111 -158 134 -145T158 -96Q158 -75 148 -66T122 -57Q104 -57 91 -69L76
-62L109 1H130L105 -48Q122 -37 145 -37Q180 -37 194 -54T208 -95Z" />
<glyph unicode="&#xba;" glyph-name="ordmasculine" horiz-adv-x="324" d="M351 522Q351 468 329 415T271 324Q246 298 213 282T148 266Q99 266 72 300T43 396Q42 423 48 451T65 506T91 557T124 600Q150 626 182 641T247 657Q297 657 324 621T351 522ZM288 571Q288
641 245 641Q221 641 206 626T177 591Q165 571 153 540T130 475T113 406T106 347Q107 282 149 282Q172 282 188 297T216 332Q228 352 241 382T264 445T281 512T288 571Z" />
<glyph unicode="&#xbb;" glyph-name="guillemotright" horiz-adv-x="399" d="M379 239L175 91L166 103L294 249L219 389L228 400L382 252L379 239ZM207 239L3 91L-5 103L123 249L48 389L56 400L211 252L207 239Z" />
<glyph unicode="&#xbf;" glyph-name="questiondown" horiz-adv-x="400" d="M398 616Q398 595 383 580T346 564Q324 564 309 579T293 616Q293 638 308 653T346 669Q368 669 383 654T398 616ZM410 420Q410 385 394 361T351 319T290 286T218 256Q176 238 148 223T104
191T81 157T74 118Q74 64 102 34T186 4Q216 4 238 12T276 36T298 71T306 113Q306 148 287 169T245 191Q236 191 226 186T216 174Q227 170 240 157T253 122Q253 98 238 83T200 68Q180 68 163 82T146 124Q146 141 156 156T183 184T222 203T267 211Q304 211 330 189T357
125Q357 95 341 69T298 25T236 -5T163 -16Q124 -16 94 -6T42 23T10 65T-1 116Q-1 158 13 188T54 242T116 285T195 323Q231 339 260 352T309 378T341 407T352 443Q352 470 336 480T297 491Q277 491 263 487T239 476T222 462T208 449L199 457Q207 468 219 479T245
500T277 516T313 522Q355 522 382 493T410 420Z" />
<glyph unicode="&#xc0;" glyph-name="Agrave" horiz-adv-x="575" d="M212 271H371L434 522H429L212 271ZM367 250H192L99 141Q84 123 74 105T64 67Q64 36 88 24Q100 17 112 15T141 10L139 0H-113L-111 10Q-101 12 -92 14T-72 21Q-54 30 -36 43T-1 73T32 105T59
136L517 657H565L451 193Q440 147 434 116T427 67Q427 47 436 37T462 18Q471 15 483 13T503 10L501 0H216L218 10Q237 12 251 16Q267 21 281 31T306 57Q321 80 332 117T355 202L367 250ZM607 710Q572 719 549 725T509 736T479 745T451 755Q425 764 410 775T394
806Q394 820 403 831T430 842Q444 842 453 837T484 817Q497 808 510 798T537 776T570 750T612 718L607 710Z" />
<glyph unicode="&#xc1;" glyph-name="Aacute" horiz-adv-x="575" d="M212 271H371L434 522H429L212 271ZM367 250H192L99 141Q84 123 74 105T64 67Q64 36 88 24Q100 17 112 15T141 10L139 0H-113L-111 10Q-101 12 -92 14T-72 21Q-54 30 -36 43T-1 73T32 105T59
136L517 657H565L451 193Q440 147 434 116T427 67Q427 47 436 37T462 18Q471 15 483 13T503 10L501 0H216L218 10Q237 12 251 16Q267 21 281 31T306 57Q321 80 332 117T355 202L367 250ZM460 719Q484 737 502 751T535 776T563 798T591 817Q613 831 622 836T646
842Q663 842 672 832T681 807Q681 788 666 777T625 756Q611 751 597 747T565 737T523 726T464 711L460 719Z" />
<glyph unicode="&#xc2;" glyph-name="Acircumflex" horiz-adv-x="575" d="M212 271H371L434 522H429L212 271ZM367 250H192L99 141Q84 123 74 105T64 67Q64 36 88 24Q100 17 112 15T141 10L139 0H-113L-111 10Q-101 12 -92 14T-72 21Q-54 30 -36 43T-1 73T32 105T59
136L517 657H565L451 193Q440 147 434 116T427 67Q427 47 436 37T462 18Q471 15 483 13T503 10L501 0H216L218 10Q237 12 251 16Q267 21 281 31T306 57Q321 80 332 117T355 202L367 250ZM641 709L559 781L420 708L414 716Q423 724 443 742T484 780T522 816T544
837H589L600 814Q609 797 619 778T638 740T650 714L641 709Z" />
<glyph unicode="&#xc3;" glyph-name="Atilde" horiz-adv-x="575" d="M212 271H371L434 522H429L212 271ZM367 250H192L99 141Q84 123 74 105T64 67Q64 36 88 24Q100 17 112 15T141 10L139 0H-113L-111 10Q-101 12 -92 14T-72 21Q-54 30 -36 43T-1 73T32 105T59
136L517 657H565L451 193Q440 147 434 116T427 67Q427 47 436 37T462 18Q471 15 483 13T503 10L501 0H216L218 10Q237 12 251 16Q267 21 281 31T306 57Q321 80 332 117T355 202L367 250ZM695 816Q680 776 655 749T593 722Q576 722 560 727T529 737T499 748T468
753Q451 753 432 743T394 710L386 714Q406 756 435 782T499 808Q515 808 529 804T557 794T584 785T612 780Q636 780 653 788T687 820L695 816Z" />
<glyph unicode="&#xc4;" glyph-name="Adieresis" horiz-adv-x="575" d="M212 271H371L434 522H429L212 271ZM367 250H192L99 141Q84 123 74 105T64 67Q64 36 88 24Q100 17 112 15T141 10L139 0H-113L-111 10Q-101 12 -92 14T-72 21Q-54 30 -36 43T-1 73T32 105T59
136L517 657H565L451 193Q440 147 434 116T427 67Q427 47 436 37T462 18Q471 15 483 13T503 10L501 0H216L218 10Q237 12 251 16Q267 21 281 31T306 57Q321 80 332 117T355 202L367 250ZM386 775Q386 795 400 810T436 826Q459 826 473 812T488 777Q488 754 474
739T436 724Q415 724 401 739T386 775ZM595 775Q595 795 609 810T646 826Q668 826 682 812T697 777Q697 754 683 739T646 724Q624 724 610 739T595 775Z" />
<glyph unicode="&#xc5;" glyph-name="Aring" horiz-adv-x="575" d="M212 271H371L434 522H429L212 271ZM367 250H192L99 141Q84 123 74 105T64 67Q64 36 88 24Q100 17 112 15T141 10L139 0H-113L-111 10Q-101 12 -92 14T-72 21Q-54 30 -36 43T-1 73T32 105T59
136L517 657H565L451 193Q440 147 434 116T427 67Q427 47 436 37T462 18Q471 15 483 13T503 10L501 0H216L218 10Q237 12 251 16Q267 21 281 31T306 57Q321 80 332 117T355 202L367 250ZM637 782Q637 743 614 723T560 702Q546 702 533 707T508 722T490 747T483
782Q483 821 507 841T560 862Q573 862 587 857T612 842T630 817T637 782ZM615 782Q615 813 599 828T560 844Q538 844 521 829T504 782Q504 751 520 736T560 720Q582 720 598 735T615 782Z" />
<glyph unicode="&#xc6;" glyph-name="AE" horiz-adv-x="838" d="M468 608H462L184 274H387L468 608ZM827 463H816Q810 501 797 535T767 593Q757 607 736 621T674 635H653Q639 635 625 632T599 620Q587 611 574 594T549 532L505 352H528Q571 352 593 357T634 376Q657
395 674 422T699 474H709L642 206H632Q635 230 633 257T618 301Q609 313 590 321T527 330H499L460 170Q452 138 448 117T443 79Q443 52 456 40Q474 22 518 22H544Q586 22 619 38T675 72Q713 103 744 141T793 209H803L733 0H222L225 10Q233 11 244 12T264 16Q280
21 295 31T320 57Q335 80 346 117T370 202L381 250H164L74 141Q60 124 51 103T42 67Q42 36 66 24Q78 17 90 15T119 10L117 0H-135L-133 10Q-112 17 -90 31Q-55 52 -23 82T30 136L442 625Q438 629 429 632T411 639T393 644T381 647L383 657H824L827 463Z" />
<glyph unicode="&#xc7;" glyph-name="Ccedilla" horiz-adv-x="557" d="M275 -96Q275 -118 264 -133T234 -159T194 -173T150 -178Q129 -178 109 -171T77 -156L86 -145Q96 -151 111 -155T143 -159Q178 -159 201 -146T225 -97Q225 -76 215 -67T189 -58Q171 -58 158
-70L143 -63L174 -3Q162 1 151 6Q109 26 83 60T45 140T33 235Q33 325 65 404T150 542T270 636T408 670Q438 670 460 664T499 648T527 627T546 603H550L589 647H601L542 419H530Q535 537 501 591T404 646Q369 646 338 631T282 594Q260 574 234 537T186 450T148 339T133
211Q133 107 182 55Q201 36 223 30T269 23Q312 23 348 40T414 86T467 148T505 215L522 206Q505 169 479 130T419 59T344 7T254 -14Q221 -14 193 -8L172 -49Q189 -38 212 -38Q247 -38 261 -55T275 -96Z" />
<glyph unicode="&#xc8;" glyph-name="Egrave" horiz-adv-x="573" d="M445 710Q410 719 387 725T347 736T317 745T289 755Q263 764 248 775T232 806Q232 820 241 831T268 842Q282 842 291 837T322 817Q335 808 348 798T375 776T408 750T450 718L445 710ZM562 463H551Q544
501 532 535T502 593Q497 600 490 607T471 621T444 631T408 635H382Q358 635 341 628T311 607T292 574T278 532L233 352H262Q305 352 328 357T368 376Q391 395 408 422T433 474H444L377 206H367Q370 230 367 257T352 301Q343 313 325 321T262 330H228L188 170Q179
134 176 110T176 70Q180 41 197 32T247 22H279Q321 22 354 38T410 72Q448 103 478 141T526 209H537L467 0H-49L-46 10Q-38 11 -27 12T-8 16Q9 21 23 31T49 57Q63 80 74 117T98 202L164 470Q175 516 181 544T188 590Q188 610 179 621T153 639Q144 643 132 644T111
647L113 657H559L562 463Z" />
<glyph unicode="&#xc9;" glyph-name="Eacute" horiz-adv-x="573" d="M299 719Q323 737 341 751T374 776T402 798T430 817Q452 831 461 836T485 842Q502 842 511 832T520 807Q520 788 505 777T464 756Q450 751 436 747T404 737T362 726T303 711L299 719ZM562 463H551Q544
501 532 535T502 593Q497 600 490 607T471 621T444 631T408 635H382Q358 635 341 628T311 607T292 574T278 532L233 352H262Q305 352 328 357T368 376Q391 395 408 422T433 474H444L377 206H367Q370 230 367 257T352 301Q343 313 325 321T262 330H228L188 170Q179
134 176 110T176 70Q180 41 197 32T247 22H279Q321 22 354 38T410 72Q448 103 478 141T526 209H537L467 0H-49L-46 10Q-38 11 -27 12T-8 16Q9 21 23 31T49 57Q63 80 74 117T98 202L164 470Q175 516 181 544T188 590Q188 610 179 621T153 639Q144 643 132 644T111
647L113 657H559L562 463Z" />
<glyph unicode="&#xca;" glyph-name="Ecircumflex" horiz-adv-x="573" d="M478 709L396 781L257 708L251 716Q260 724 280 742T321 780T359 816T381 837H426L437 814Q446 797 456 778T475 740T487 714L478 709ZM562 463H551Q544 501 532 535T502 593Q497 600 490
607T471 621T444 631T408 635H382Q358 635 341 628T311 607T292 574T278 532L233 352H262Q305 352 328 357T368 376Q391 395 408 422T433 474H444L377 206H367Q370 230 367 257T352 301Q343 313 325 321T262 330H228L188 170Q179 134 176 110T176 70Q180 41 197
32T247 22H279Q321 22 354 38T410 72Q448 103 478 141T526 209H537L467 0H-49L-46 10Q-38 11 -27 12T-8 16Q9 21 23 31T49 57Q63 80 74 117T98 202L164 470Q175 516 181 544T188 590Q188 610 179 621T153 639Q144 643 132 644T111 647L113 657H559L562 463Z" />
<glyph unicode="&#xcb;" glyph-name="Edieresis" horiz-adv-x="573" d="M562 463H551Q544 501 532 535T502 593Q497 600 490 607T471 621T444 631T408 635H382Q358 635 341 628T311 607T292 574T278 532L233 352H262Q305 352 328 357T368 376Q391 395 408 422T433
474H444L377 206H367Q370 230 367 257T352 301Q343 313 325 321T262 330H228L188 170Q179 134 176 110T176 70Q180 41 197 32T247 22H279Q321 22 354 38T410 72Q448 103 478 141T526 209H537L467 0H-49L-46 10Q-38 11 -27 12T-8 16Q9 21 23 31T49 57Q63 80 74 117T98
202L164 470Q175 516 181 544T188 590Q188 610 179 621T153 639Q144 643 132 644T111 647L113 657H559L562 463ZM225 775Q225 795 239 810T275 826Q298 826 312 812T327 777Q327 754 313 739T275 724Q254 724 240 739T225 775ZM434 775Q434 795 448 810T485 826Q507
826 521 812T536 777Q536 754 522 739T485 724Q463 724 449 739T434 775Z" />
<glyph unicode="&#xcc;" glyph-name="Igrave" horiz-adv-x="328" d="M402 647Q394 646 383 645T363 641Q347 636 331 626T304 600Q290 576 280 540T257 455L194 192Q183 146 176 115T169 67Q169 47 178 36T204 18Q213 14 225 13T246 10L244 0H-49L-47 10Q-38 11
-27 12T-8 16Q9 21 23 30T49 56Q63 79 75 116T98 202L162 465Q173 511 179 542T186 590Q186 610 177 621T151 639Q142 643 130 644T109 647L112 657H404L402 647ZM604 710Q569 719 546 725T506 736T476 745T448 755Q422 764 407 775T391 806Q391 820 400 831T427
842Q441 842 450 837T481 817Q494 808 507 798T534 776T567 750T609 718L604 710Z" />
<glyph unicode="&#xcd;" glyph-name="Iacute" horiz-adv-x="328" d="M402 647Q394 646 383 645T363 641Q347 636 331 626T304 600Q290 576 280 540T257 455L194 192Q183 146 176 115T169 67Q169 47 178 36T204 18Q213 14 225 13T246 10L244 0H-49L-47 10Q-38 11
-27 12T-8 16Q9 21 23 30T49 56Q63 79 75 116T98 202L162 465Q173 511 179 542T186 590Q186 610 177 621T151 639Q142 643 130 644T109 647L112 657H404L402 647ZM199 719Q223 737 241 751T274 776T302 798T330 817Q352 831 361 836T385 842Q402 842 411 832T420
807Q420 788 405 777T364 756Q350 751 336 747T304 737T262 726T203 711L199 719Z" />
<glyph unicode="&#xce;" glyph-name="Icircumflex" horiz-adv-x="328" d="M402 647Q394 646 383 645T363 641Q347 636 331 626T304 600Q290 576 280 540T257 455L194 192Q183 146 176 115T169 67Q169 47 178 36T204 18Q213 14 225 13T246 10L244 0H-49L-47 10Q-38
11 -27 12T-8 16Q9 21 23 30T49 56Q63 79 75 116T98 202L162 465Q173 511 179 542T186 590Q186 610 177 621T151 639Q142 643 130 644T109 647L112 657H404L402 647ZM636 709L554 781L415 708L409 716Q418 724 438 742T479 780T517 816T539 837H584L595 814Q604
797 614 778T633 740T645 714L636 709Z" />
<glyph unicode="&#xcf;" glyph-name="Idieresis" horiz-adv-x="328" d="M402 647Q394 646 383 645T363 641Q347 636 331 626T304 600Q290 576 280 540T257 455L194 192Q183 146 176 115T169 67Q169 47 178 36T204 18Q213 14 225 13T246 10L244 0H-49L-47 10Q-38
11 -27 12T-8 16Q9 21 23 30T49 56Q63 79 75 116T98 202L162 465Q173 511 179 542T186 590Q186 610 177 621T151 639Q142 643 130 644T109 647L112 657H404L402 647ZM383 775Q383 795 397 810T433 826Q456 826 470 812T485 777Q485 754 471 739T433 724Q412 724
398 739T383 775ZM592 775Q592 795 606 810T643 826Q665 826 679 812T694 777Q694 754 680 739T643 724Q621 724 607 739T592 775Z" />
<glyph unicode="&#xd0;" glyph-name="Eth" horiz-adv-x="670" d="M36 325L42 351H136L165 470Q176 516 182 544T188 590Q188 610 179 620T153 639Q145 642 132 644T112 647L115 657H395Q459 657 508 636T591 581T642 501T659 407Q659 287 609 203T472 61Q430 32
380 16T270 0H-48L-46 10Q-38 11 -27 12T-7 16Q9 21 24 30T50 56Q64 79 75 116T99 202L129 325H36ZM557 436Q557 457 555 480T547 525T533 566T514 597Q493 620 463 627T391 635H355Q335 635 323 628T303 609T291 581T282 547L233 351H383L377 325H227L189 170Q181
138 177 117T172 79Q172 53 186 39Q203 22 247 22H275Q289 22 308 24T348 34T392 55T436 91Q461 116 483 149T521 224T547 318T557 436Z" />
<glyph unicode="&#xd1;" glyph-name="Ntilde" horiz-adv-x="647" d="M593 816Q578 776 553 749T491 722Q474 722 458 727T427 737T397 748T366 753Q349 753 330 743T292 710L284 714Q304 756 333 782T397 808Q413 808 427 804T455 794T482 785T510 780Q534 780
551 788T585 820L593 816ZM713 647Q705 645 698 645T682 641Q668 636 656 629T633 605Q623 594 612 567T587 489L464 -8H443L209 518H204L116 167Q109 140 106 115T103 76Q103 50 113 36T141 16Q149 14 159 13T180 10L178 0H-49L-47 10Q-27 12 -11 16Q17 24 40
53Q51 66 65 93T90 169L166 467Q171 488 174 503T180 529T182 549T183 570Q183 593 169 611T133 639Q125 641 114 643T95 647L97 657H267L479 165H482L560 479Q569 515 572 540T576 579Q576 604 564 618T534 640Q527 643 517 644T495 647L497 657H716L713 647Z"
/>
<glyph unicode="&#xd2;" glyph-name="Ograve" horiz-adv-x="620" d="M486 710Q451 719 428 725T388 736T358 745T330 755Q304 764 289 775T273 806Q273 820 282 831T309 842Q323 842 332 837T363 817Q376 808 389 798T416 776T449 750T491 718L486 710ZM608 415Q608
372 598 325T568 233T522 147T461 76Q413 34 361 10T251 -14Q207 -14 168 2T98 50T51 129T33 241Q33 284 43 331T73 423T119 510T180 581Q228 623 279 646T388 670Q432 670 472 654T542 606T590 527T608 415ZM510 482Q510 528 500 560T473 611T434 639T387 648Q351
648 320 630T269 592Q249 572 225 531T180 433T145 311T131 174Q131 127 141 96T167 45T206 17T253 8Q289 8 320 26T371 64Q390 83 414 125T460 223T495 345T510 482Z" />
<glyph unicode="&#xd3;" glyph-name="Oacute" horiz-adv-x="620" d="M340 719Q364 737 382 751T415 776T443 798T471 817Q493 831 502 836T526 842Q543 842 552 832T561 807Q561 788 546 777T505 756Q491 751 477 747T445 737T403 726T344 711L340 719ZM608 415Q608
372 598 325T568 233T522 147T461 76Q413 34 361 10T251 -14Q207 -14 168 2T98 50T51 129T33 241Q33 284 43 331T73 423T119 510T180 581Q228 623 279 646T388 670Q432 670 472 654T542 606T590 527T608 415ZM510 482Q510 528 500 560T473 611T434 639T387 648Q351
648 320 630T269 592Q249 572 225 531T180 433T145 311T131 174Q131 127 141 96T167 45T206 17T253 8Q289 8 320 26T371 64Q390 83 414 125T460 223T495 345T510 482Z" />
<glyph unicode="&#xd4;" glyph-name="Ocircumflex" horiz-adv-x="620" d="M518 709L436 781L297 708L291 716Q300 724 320 742T361 780T399 816T421 837H466L477 814Q486 797 496 778T515 740T527 714L518 709ZM608 415Q608 372 598 325T568 233T522 147T461 76Q413
34 361 10T251 -14Q207 -14 168 2T98 50T51 129T33 241Q33 284 43 331T73 423T119 510T180 581Q228 623 279 646T388 670Q432 670 472 654T542 606T590 527T608 415ZM510 482Q510 528 500 560T473 611T434 639T387 648Q351 648 320 630T269 592Q249 572 225 531T180
433T145 311T131 174Q131 127 141 96T167 45T206 17T253 8Q289 8 320 26T371 64Q390 83 414 125T460 223T495 345T510 482Z" />
<glyph unicode="&#xd5;" glyph-name="Otilde" horiz-adv-x="620" d="M574 816Q559 776 534 749T472 722Q455 722 439 727T408 737T378 748T347 753Q330 753 311 743T273 710L265 714Q285 756 314 782T378 808Q394 808 408 804T436 794T463 785T491 780Q515 780
532 788T566 820L574 816ZM608 415Q608 372 598 325T568 233T522 147T461 76Q413 34 361 10T251 -14Q207 -14 168 2T98 50T51 129T33 241Q33 284 43 331T73 423T119 510T180 581Q228 623 279 646T388 670Q432 670 472 654T542 606T590 527T608 415ZM510 482Q510
528 500 560T473 611T434 639T387 648Q351 648 320 630T269 592Q249 572 225 531T180 433T145 311T131 174Q131 127 141 96T167 45T206 17T253 8Q289 8 320 26T371 64Q390 83 414 125T460 223T495 345T510 482Z" />
<glyph unicode="&#xd6;" glyph-name="Odieresis" horiz-adv-x="620" d="M264 775Q264 795 278 810T314 826Q337 826 351 812T366 777Q366 754 352 739T314 724Q293 724 279 739T264 775ZM473 775Q473 795 487 810T524 826Q546 826 560 812T575 777Q575 754 561
739T524 724Q502 724 488 739T473 775ZM608 415Q608 372 598 325T568 233T522 147T461 76Q413 34 361 10T251 -14Q207 -14 168 2T98 50T51 129T33 241Q33 284 43 331T73 423T119 510T180 581Q228 623 279 646T388 670Q432 670 472 654T542 606T590 527T608 415ZM510
482Q510 528 500 560T473 611T434 639T387 648Q351 648 320 630T269 592Q249 572 225 531T180 433T145 311T131 174Q131 127 141 96T167 45T206 17T253 8Q289 8 320 26T371 64Q390 83 414 125T460 223T495 345T510 482Z" />
<glyph unicode="&#xd7;" glyph-name="multiply" horiz-adv-x="425" d="M212 257L350 114L337 102L198 244L59 101L46 113L186 257L46 400L59 413L198 270L337 413L351 400L212 257Z" />
<glyph unicode="&#xd8;" glyph-name="Oslash" horiz-adv-x="620" d="M608 415Q608 372 598 325T568 233T522 147T461 76Q413 34 361 10T251 -14Q207 -14 167 2Q166 2 165 2L132 -65L112 -57L146 12Q120 26 98 50Q68 82 51 129T33 241Q33 284 43 331T73 423T119
510T180 581Q228 623 279 646T388 670Q429 670 467 656L497 717L517 708L487 647Q518 632 542 606Q572 574 590 527T608 415ZM510 482Q510 528 500 560T473 611Q471 613 470 614L180 32Q192 22 206 16Q229 8 253 8Q289 8 320 26T371 64Q390 83 414 125T460 223T495
345T510 482ZM433 639Q411 648 387 648Q351 648 320 630T269 592Q249 572 225 531T180 433T145 311T131 174Q131 127 141 95Q150 67 164 48L453 629Q444 635 433 639Z" />
<glyph unicode="&#xd9;" glyph-name="Ugrave" horiz-adv-x="647" d="M527 710Q492 719 469 725T429 736T399 745T371 755Q345 764 330 775T314 806Q314 820 323 831T350 842Q364 842 373 837T404 817Q417 808 430 798T457 776T490 750T532 718L527 710ZM727 647Q719
645 711 645T695 641Q682 636 670 628T646 605Q637 593 625 562T600 480L533 214Q519 157 498 115T446 44T373 1T275 -14Q182 -14 125 30T67 165Q67 174 68 187T72 216T78 249T85 281L130 464Q153 558 153 590Q153 610 144 620T118 639Q110 642 98 644T78 647L81
657H367L364 647Q345 645 331 641Q315 636 299 626T272 600Q257 576 247 540T225 455L168 217Q157 171 157 123Q157 70 189 41T282 11Q337 11 374 25T437 67T479 131T506 215L572 478Q581 515 584 540T588 579Q588 603 576 618T546 640Q538 642 528 644T507 647L509
657H729L727 647Z" />
<glyph unicode="&#xda;" glyph-name="Uacute" horiz-adv-x="647" d="M371 719Q395 737 413 751T446 776T474 798T502 817Q524 831 533 836T557 842Q574 842 583 832T592 807Q592 788 577 777T536 756Q522 751 508 747T476 737T434 726T375 711L371 719ZM727 647Q719
645 711 645T695 641Q682 636 670 628T646 605Q637 593 625 562T600 480L533 214Q519 157 498 115T446 44T373 1T275 -14Q182 -14 125 30T67 165Q67 174 68 187T72 216T78 249T85 281L130 464Q153 558 153 590Q153 610 144 620T118 639Q110 642 98 644T78 647L81
657H367L364 647Q345 645 331 641Q315 636 299 626T272 600Q257 576 247 540T225 455L168 217Q157 171 157 123Q157 70 189 41T282 11Q337 11 374 25T437 67T479 131T506 215L572 478Q581 515 584 540T588 579Q588 603 576 618T546 640Q538 642 528 644T507 647L509
657H729L727 647Z" />
<glyph unicode="&#xdb;" glyph-name="Ucircumflex" horiz-adv-x="647" d="M554 709L472 781L333 708L327 716Q336 724 356 742T397 780T435 816T457 837H502L513 814Q522 797 532 778T551 740T563 714L554 709ZM727 647Q719 645 711 645T695 641Q682 636 670 628T646
605Q637 593 625 562T600 480L533 214Q519 157 498 115T446 44T373 1T275 -14Q182 -14 125 30T67 165Q67 174 68 187T72 216T78 249T85 281L130 464Q153 558 153 590Q153 610 144 620T118 639Q110 642 98 644T78 647L81 657H367L364 647Q345 645 331 641Q315 636
299 626T272 600Q257 576 247 540T225 455L168 217Q157 171 157 123Q157 70 189 41T282 11Q337 11 374 25T437 67T479 131T506 215L572 478Q581 515 584 540T588 579Q588 603 576 618T546 640Q538 642 528 644T507 647L509 657H729L727 647Z" />
<glyph unicode="&#xdc;" glyph-name="Udieresis" horiz-adv-x="647" d="M727 647Q719 645 711 645T695 641Q682 636 670 628T646 605Q637 593 625 562T600 480L533 214Q519 157 498 115T446 44T373 1T275 -14Q182 -14 125 30T67 165Q67 174 68 187T72 216T78 249T85
281L130 464Q153 558 153 590Q153 610 144 620T118 639Q110 642 98 644T78 647L81 657H367L364 647Q345 645 331 641Q315 636 299 626T272 600Q257 576 247 540T225 455L168 217Q157 171 157 123Q157 70 189 41T282 11Q337 11 374 25T437 67T479 131T506 215L572
478Q581 515 584 540T588 579Q588 603 576 618T546 640Q538 642 528 644T507 647L509 657H729L727 647ZM299 775Q299 795 313 810T349 826Q372 826 386 812T401 777Q401 754 387 739T349 724Q328 724 314 739T299 775ZM508 775Q508 795 522 810T559 826Q581 826
595 812T610 777Q610 754 596 739T559 724Q537 724 523 739T508 775Z" />
<glyph unicode="&#xdd;" glyph-name="Yacute" horiz-adv-x="504" d="M640 647Q632 646 619 643T596 636Q581 630 568 623T539 601T503 563T456 501L299 281L279 193Q268 147 261 116T254 67Q254 47 263 37T289 18Q298 15 310 13T330 10L328 0H37L39 10Q47 11 58
12T77 16Q93 21 108 31T133 57Q148 80 160 117T183 202L201 285L123 565Q116 590 108 605T88 628T64 640T34 647L35 657H299L298 647Q290 646 277 644T256 638Q245 633 235 624T225 594Q225 579 230 561T240 521L294 318H299L434 508Q457 540 468 564T480 608Q480
632 457 642Q450 645 444 645T429 647L431 657H642L640 647ZM298 719Q322 737 340 751T373 776T401 798T429 817Q451 831 460 836T484 842Q501 842 510 832T519 807Q519 788 504 777T463 756Q449 751 435 747T403 737T361 726T302 711L298 719Z" />
<glyph unicode="&#xde;" glyph-name="Thorn" horiz-adv-x="545" d="M188 172Q185 160 182 146T176 117T172 90T170 68Q170 48 179 37T205 19Q213 15 223 13T241 10L239 0H-49L-47 10Q-38 11 -27 12T-8 16Q9 21 23 31T49 57Q63 80 74 117T98 202L162 464Q173 510
179 541T186 590Q186 610 177 620T151 639Q142 642 130 644T109 647L112 657H399L397 647Q389 646 380 645T363 641Q347 636 331 626T304 600Q291 577 284 552T272 512H343Q395 512 432 502T494 472T529 428T540 373Q540 317 511 277T426 208Q396 192 356 182T244
172H188ZM381 241Q407 266 422 309T438 401Q438 490 340 490H322Q305 490 293 486T272 470Q263 459 257 442T244 398L193 194H249Q303 194 333 209T381 241Z" />
<glyph unicode="&#xdf;" glyph-name="germandbls" horiz-adv-x="475" d="M503 577Q503 554 490 534T456 496T413 460T369 424T336 386T322 344Q322 319 335 299T372 246Q389 222 401 204T421 171T432 144T436 118Q436 87 424 64T393 24T350 0T300 -9Q277 -9 256
-3T219 16T193 46T183 85Q183 109 195 125T227 141Q243 141 253 132T264 105Q264 94 261 87T255 74T248 62T245 49Q245 27 263 17T301 7Q335 7 350 27T365 84Q365 110 350 133T304 197Q284 225 275 246T266 292Q266 323 279 347T311 392T353 432T395 472T428 519T441
577Q441 633 420 654T365 675Q341 675 317 662T278 627Q253 589 236 538T202 422Q185 358 165 285T120 141T66 5T2 -110T-73 -189T-160 -219Q-201 -219 -229 -200T-258 -144Q-258 -119 -245 -110T-217 -100Q-199 -100 -190 -111T-178 -136Q-178 -148 -179 -156T-178
-176Q-177 -187 -170 -192T-151 -197Q-102 -197 -66 -144Q-20 -78 22 66T117 422Q135 496 164 547T226 630T296 676T366 690Q429 690 466 661T503 577Z" />
<glyph unicode="&#xe0;" glyph-name="agrave" horiz-adv-x="444" d="M302 339Q302 374 292 394T258 415Q232 415 212 397T169 344Q152 316 138 281T113 210T96 142T90 89Q90 56 100 42T127 27Q143 27 157 36T188 63Q202 78 214 95T240 135Q253 159 264 188T284
245T297 297T302 339ZM311 58Q311 35 330 35Q344 35 358 43T386 64T412 95T436 130L449 123Q435 100 418 77T381 34T338 3T290 -9Q267 -9 252 4T236 53Q236 64 239 79T246 108H242Q229 85 216 68T188 35Q166 13 146 2T100 -9Q84 -9 68 -3T39 17T18 54T9 112Q9 155
30 210T85 315T165 399T258 433Q286 433 301 416T321 371H323Q330 385 336 397T349 424H419Q407 386 390 333T353 222Q332 159 322 116T311 58ZM476 661Q494 661 505 652T534 622Q543 611 552 601T571 579T593 552T620 517L615 510Q585 524 556 538T499 568Q490
572 481 578T463 591T449 608T443 627Q443 641 451 651T476 661Z" />
<glyph unicode="&#xe1;" glyph-name="aacute" horiz-adv-x="444" d="M302 339Q302 374 292 394T258 415Q232 415 212 397T169 344Q152 316 138 281T113 210T96 142T90 89Q90 56 100 42T127 27Q143 27 157 36T188 63Q202 78 214 95T240 135Q253 159 264 188T284
245T297 297T302 339ZM311 58Q311 35 330 35Q344 35 358 43T386 64T412 95T436 130L449 123Q435 100 418 77T381 34T338 3T290 -9Q267 -9 252 4T236 53Q236 64 239 79T246 108H242Q229 85 216 68T188 35Q166 13 146 2T100 -9Q84 -9 68 -3T39 17T18 54T9 112Q9 155
30 210T85 315T165 399T258 433Q286 433 301 416T321 371H323Q330 385 336 397T349 424H419Q407 386 390 333T353 222Q332 159 322 116T311 58ZM429 626Q429 606 417 595T377 571Q350 558 318 544T231 507L226 515Q247 536 262 550T288 576T310 598T333 620Q356
642 369 649T396 657Q429 657 429 626Z" />
<glyph unicode="&#xe2;" glyph-name="acircumflex" horiz-adv-x="444" d="M302 339Q302 374 292 394T258 415Q232 415 212 397T169 344Q152 316 138 281T113 210T96 142T90 89Q90 56 100 42T127 27Q143 27 157 36T188 63Q202 78 214 95T240 135Q253 159 264 188T284
245T297 297T302 339ZM311 58Q311 35 330 35Q344 35 358 43T386 64T412 95T436 130L449 123Q435 100 418 77T381 34T338 3T290 -9Q267 -9 252 4T236 53Q236 64 239 79T246 108H242Q229 85 216 68T188 35Q166 13 146 2T100 -9Q84 -9 68 -3T39 17T18 54T9 112Q9 155
30 210T85 315T165 399T258 433Q286 433 301 416T321 371H323Q330 385 336 397T349 424H419Q407 386 390 333T353 222Q332 159 322 116T311 58ZM398 505L310 601L166 505L160 512Q188 541 209 563T246 605T276 639T303 668H348Q360 639 372 604T408 511L398 505Z"
/>
<glyph unicode="&#xe3;" glyph-name="atilde" horiz-adv-x="444" d="M302 339Q302 374 292 394T258 415Q232 415 212 397T169 344Q152 316 138 281T113 210T96 142T90 89Q90 56 100 42T127 27Q143 27 157 36T188 63Q202 78 214 95T240 135Q253 159 264 188T284
245T297 297T302 339ZM311 58Q311 35 330 35Q344 35 358 43T386 64T412 95T436 130L449 123Q435 100 418 77T381 34T338 3T290 -9Q267 -9 252 4T236 53Q236 64 239 79T246 108H242Q229 85 216 68T188 35Q166 13 146 2T100 -9Q84 -9 68 -3T39 17T18 54T9 112Q9 155
30 210T85 315T165 399T258 433Q286 433 301 416T321 371H323Q330 385 336 397T349 424H419Q407 386 390 333T353 222Q332 159 322 116T311 58ZM442 625Q427 584 403 559T341 533Q324 533 309 537T278 548T247 558T217 563Q200 563 181 554T143 522L135 526Q155
568 184 593T247 618Q263 618 277 614T305 605T332 595T360 591Q384 591 400 598T434 628L442 625Z" />
<glyph unicode="&#xe4;" glyph-name="adieresis" horiz-adv-x="444" d="M302 339Q302 374 292 394T258 415Q232 415 212 397T169 344Q152 316 138 281T113 210T96 142T90 89Q90 56 100 42T127 27Q143 27 157 36T188 63Q202 78 214 95T240 135Q253 159 264 188T284
245T297 297T302 339ZM311 58Q311 35 330 35Q344 35 358 43T386 64T412 95T436 130L449 123Q435 100 418 77T381 34T338 3T290 -9Q267 -9 252 4T236 53Q236 64 239 79T246 108H242Q229 85 216 68T188 35Q166 13 146 2T100 -9Q84 -9 68 -3T39 17T18 54T9 112Q9 155
30 210T85 315T165 399T258 433Q286 433 301 416T321 371H323Q330 385 336 397T349 424H419Q407 386 390 333T353 222Q332 159 322 116T311 58ZM176 595Q176 615 189 628T221 642Q242 642 255 629T269 597Q269 577 255 564T221 550Q202 550 189 563T176 595ZM326
595Q326 615 339 628T372 642Q392 642 405 629T419 597Q419 577 406 564T372 550Q353 550 340 563T326 595Z" />
<glyph unicode="&#xe5;" glyph-name="aring" horiz-adv-x="444" d="M302 339Q302 374 292 394T258 415Q232 415 212 397T169 344Q152 316 138 281T113 210T96 142T90 89Q90 56 100 42T127 27Q143 27 157 36T188 63Q202 78 214 95T240 135Q253 159 264 188T284
245T297 297T302 339ZM311 58Q311 35 330 35Q344 35 358 43T386 64T412 95T436 130L449 123Q435 100 418 77T381 34T338 3T290 -9Q267 -9 252 4T236 53Q236 64 239 79T246 108H242Q229 85 216 68T188 35Q166 13 146 2T100 -9Q84 -9 68 -3T39 17T18 54T9 112Q9 155
30 210T85 315T165 399T258 433Q286 433 301 416T321 371H323Q330 385 336 397T349 424H419Q407 386 390 333T353 222Q332 159 322 116T311 58ZM368 591Q368 552 345 532T291 511Q277 511 264 516T239 531T221 556T214 591Q214 630 238 650T291 671Q304 671 318
666T343 651T361 626T368 591ZM347 591Q347 622 331 637T291 653Q269 653 252 638T235 591Q235 560 251 545T291 529Q314 529 330 544T347 591Z" />
<glyph unicode="&#xe6;" glyph-name="ae" horiz-adv-x="593" d="M591 366Q591 346 579 327T549 292Q534 280 512 267T465 240T412 216T359 196Q347 142 347 91Q347 56 361 38T400 19Q426 19 448 29T488 54T519 88T542 123L554 116Q541 91 523 69T483 29T433 1T375
-9Q323 -9 293 28T262 122H259Q229 55 185 22Q167 8 146 0T100 -9Q84 -9 68 -3T39 17T18 54T9 113Q9 156 30 211T85 316T165 400T258 434Q286 434 301 417T320 372H323Q330 386 336 398T349 425H399Q399 423 396 416T390 399T385 382T381 371H384Q413 401 446 417T505
434Q553 434 572 416T591 366ZM524 377Q524 394 518 405T498 416Q479 416 459 400T421 356T388 291T363 213Q379 219 397 227T433 246T465 266T489 287Q507 307 515 332T524 377ZM302 339Q302 374 292 395T258 416Q232 416 212 398T169 345Q152 317 138 282T113
211T96 143T90 90Q90 57 102 43T134 28Q148 28 162 36T188 56Q216 83 242 131Q251 149 261 175T281 231T296 288T302 339Z" />
<glyph unicode="&#xe7;" glyph-name="ccedilla" horiz-adv-x="345" d="M185 -96Q185 -118 174 -133T144 -159T104 -173T60 -178Q39 -178 19 -171T-13 -156L-4 -145Q6 -151 21 -155T53 -159Q88 -159 111 -146T135 -97Q135 -76 125 -67T99 -58Q81 -58 68 -70L53
-63L84 -2Q79 0 75 2Q54 13 40 32T18 76T11 130Q11 166 20 200T44 265T79 323T122 371Q155 403 191 418T254 433Q292 433 319 415T346 358Q346 340 337 325T305 310Q285 310 277 321T268 348Q268 353 270 360T273 371Q275 378 278 384T281 395Q281 415 251 415Q234
415 217 405T185 375Q167 352 150 319T120 247T100 168T92 91Q92 55 109 38T152 20Q176 20 197 30T236 55T266 89T289 123L302 115Q289 90 271 68T231 28T182 1T124 -9Q113 -9 103 -7L82 -49Q99 -38 122 -38Q157 -38 171 -55T185 -96Z" />
<glyph unicode="&#xe8;" glyph-name="egrave" horiz-adv-x="337" d="M299 116Q286 91 268 69T228 29T178 1T120 -9Q93 -9 73 2T38 32T17 76T10 130Q10 201 41 260T124 368Q157 400 189 416T249 433Q298 433 316 415T335 365Q335 346 323 327T293 292Q278 280 256
267T209 240T156 216T103 196Q91 142 91 91Q91 56 105 38T143 19Q170 19 192 29T233 54T264 88T287 123L299 116ZM107 213Q125 220 143 228T179 246T210 266T233 286Q251 306 259 331T268 376Q268 393 262 404T242 415Q221 415 202 399T164 355T132 291T107 213ZM431
661Q449 661 460 652T489 622Q498 611 507 601T526 579T548 552T575 517L570 510Q540 524 511 538T454 568Q445 572 436 578T418 591T404 608T398 627Q398 641 406 651T431 661Z" />
<glyph unicode="&#xe9;" glyph-name="eacute" horiz-adv-x="337" d="M387 626Q387 606 375 595T335 571Q308 558 276 544T189 507L184 515Q205 536 220 550T246 576T268 598T291 620Q314 642 327 649T354 657Q387 657 387 626ZM299 116Q286 91 268 69T228 29T178
1T120 -9Q93 -9 73 2T38 32T17 76T10 130Q10 201 41 260T124 368Q157 400 189 416T249 433Q298 433 316 415T335 365Q335 346 323 327T293 292Q278 280 256 267T209 240T156 216T103 196Q91 142 91 91Q91 56 105 38T143 19Q170 19 192 29T233 54T264 88T287 123L299
116ZM107 213Q125 220 143 228T179 246T210 266T233 286Q251 306 259 331T268 376Q268 393 262 404T242 415Q221 415 202 399T164 355T132 291T107 213Z" />
<glyph unicode="&#xea;" glyph-name="ecircumflex" horiz-adv-x="337" d="M353 505L265 601L121 505L115 512Q143 541 164 563T201 605T231 639T258 668H303Q315 639 327 604T363 511L353 505ZM299 116Q286 91 268 69T228 29T178 1T120 -9Q93 -9 73 2T38 32T17
76T10 130Q10 201 41 260T124 368Q157 400 189 416T249 433Q298 433 316 415T335 365Q335 346 323 327T293 292Q278 280 256 267T209 240T156 216T103 196Q91 142 91 91Q91 56 105 38T143 19Q170 19 192 29T233 54T264 88T287 123L299 116ZM107 213Q125 220 143
228T179 246T210 266T233 286Q251 306 259 331T268 376Q268 393 262 404T242 415Q221 415 202 399T164 355T132 291T107 213Z" />
<glyph unicode="&#xeb;" glyph-name="edieresis" horiz-adv-x="337" d="M133 595Q133 615 146 628T178 642Q199 642 212 629T226 597Q226 577 212 564T178 550Q159 550 146 563T133 595ZM283 595Q283 615 296 628T329 642Q349 642 362 629T376 597Q376 577 363
564T329 550Q310 550 297 563T283 595ZM299 116Q286 91 268 69T228 29T178 1T120 -9Q93 -9 73 2T38 32T17 76T10 130Q10 201 41 260T124 368Q157 400 189 416T249 433Q298 433 316 415T335 365Q335 346 323 327T293 292Q278 280 256 267T209 240T156 216T103 196Q91
142 91 91Q91 56 105 38T143 19Q170 19 192 29T233 54T264 88T287 123L299 116ZM107 213Q125 220 143 228T179 246T210 266T233 286Q251 306 259 331T268 376Q268 393 262 404T242 415Q221 415 202 399T164 355T132 291T107 213Z" />
<glyph unicode="&#xec;" glyph-name="igrave" horiz-adv-x="252" d="M245 123Q231 100 213 77T174 34T128 3T77 -9Q54 -9 41 6T27 46Q27 59 32 80T46 127T64 179T83 231Q100 281 112 318T124 369Q124 395 104 395Q92 395 73 378T21 310L9 317Q42 379 82 406T151
433Q204 433 204 376Q204 353 191 310T159 215Q150 188 141 162T126 113T115 75T111 53Q111 35 125 35Q137 35 151 43T180 64T208 95T233 130L245 123ZM382 661Q400 661 411 652T440 622Q449 611 458 601T477 579T499 552T526 517L521 510Q491 524 462 538T405
568Q396 572 387 578T369 591T355 608T349 627Q349 641 357 651T382 661Z" />
<glyph unicode="&#xed;" glyph-name="iacute" horiz-adv-x="252" d="M596 626Q596 606 584 595T544 571Q517 558 485 544T398 507L393 515Q414 536 429 550T455 576T477 598T500 620Q523 642 536 649T563 657Q596 657 596 626ZM245 123Q231 100 213 77T174 34T128
3T77 -9Q54 -9 41 6T27 46Q27 59 32 80T46 127T64 179T83 231Q100 281 112 318T124 369Q124 395 104 395Q92 395 73 378T21 310L9 317Q42 379 82 406T151 433Q204 433 204 376Q204 353 191 310T159 215Q150 188 141 162T126 113T115 75T111 53Q111 35 125 35Q137
35 151 43T180 64T208 95T233 130L245 123Z" />
<glyph unicode="&#xee;" glyph-name="icircumflex" horiz-adv-x="252" d="M565 505L477 601L333 505L327 512Q355 541 376 563T413 605T443 639T470 668H515Q527 639 539 604T575 511L565 505ZM245 123Q231 100 213 77T174 34T128 3T77 -9Q54 -9 41 6T27 46Q27
59 32 80T46 127T64 179T83 231Q100 281 112 318T124 369Q124 395 104 395Q92 395 73 378T21 310L9 317Q42 379 82 406T151 433Q204 433 204 376Q204 353 191 310T159 215Q150 188 141 162T126 113T115 75T111 53Q111 35 125 35Q137 35 151 43T180 64T208 95T233
130L245 123Z" />
<glyph unicode="&#xef;" glyph-name="idieresis" horiz-adv-x="252" d="M88 595Q88 615 101 628T133 642Q154 642 167 629T181 597Q181 577 167 564T133 550Q114 550 101 563T88 595ZM238 595Q238 615 251 628T284 642Q304 642 317 629T331 597Q331 577 318 564T284
550Q265 550 252 563T238 595ZM245 123Q231 100 213 77T174 34T128 3T77 -9Q54 -9 41 6T27 46Q27 59 32 80T46 127T64 179T83 231Q100 281 112 318T124 369Q124 395 104 395Q92 395 73 378T21 310L9 317Q42 379 82 406T151 433Q204 433 204 376Q204 353 191 310T159
215Q150 188 141 162T126 113T115 75T111 53Q111 35 125 35Q137 35 151 43T180 64T208 95T233 130L245 123Z" />
<glyph unicode="&#xf0;" glyph-name="eth" horiz-adv-x="380" d="M111 556L192 596Q178 615 163 632Q139 661 114 684H127Q163 664 204 630Q214 621 224 612L318 658L313 636L237 599Q260 577 280 550Q316 505 339 450T362 333Q362 288 355 247T334 170T303 105T266
54Q239 25 202 8T128 -9Q71 -9 41 30T11 135Q11 201 34 264T101 372Q129 401 166 417T239 433Q260 433 276 422Q266 462 249 500T209 571Q206 576 202 581L106 534L111 556ZM287 339Q288 417 237 417Q210 417 190 399T157 357Q143 333 130 297T105 222T87 145T80
79Q80 8 130 8Q159 8 177 27T209 69Q224 93 237 128T262 200T279 274T287 339Z" />
<glyph unicode="&#xf1;" glyph-name="ntilde" horiz-adv-x="482" d="M470 123Q456 100 438 77T397 34T351 3T301 -9Q277 -9 264 5T250 45Q250 58 255 78T269 124T287 176T306 229Q323 277 336 317T350 374Q350 387 345 391T331 396Q318 396 297 381T251 334T197
253T142 136Q129 104 117 70T93 0H13Q23 33 36 72T62 148T85 218T102 268Q115 307 119 331T124 369Q124 396 104 396Q92 396 71 379T18 311L6 318Q39 379 77 406T145 433Q195 433 195 378Q195 354 189 323T171 250H178Q232 348 278 390T370 433Q398 433 412 415T426
368Q426 340 414 302T380 203Q372 180 364 157T350 112T339 76T335 53Q335 35 348 35Q360 35 374 43T404 64T433 95T458 130L470 123ZM446 625Q431 584 407 559T345 533Q328 533 313 537T282 548T251 558T221 563Q204 563 185 554T147 522L139 526Q159 568 188
593T251 618Q267 618 281 614T309 605T336 595T364 591Q388 591 404 598T438 628L446 625Z" />
<glyph unicode="&#xf2;" glyph-name="ograve" horiz-adv-x="385" d="M132 -9Q75 -9 44 29T11 135Q9 198 32 261T99 369Q128 399 165 416T241 433Q300 433 331 393T362 284Q362 223 339 162T274 56Q245 26 209 9T132 -9ZM239 417Q211 417 193 400T161 360Q147 337
133 303T108 229T89 151T82 80Q83 45 95 27T133 8Q161 8 179 25T211 65Q225 87 239 121T264 193T283 269T291 340Q293 417 239 417ZM449 661Q467 661 478 652T507 622Q516 611 525 601T544 579T566 552T593 517L588 510Q558 524 529 538T472 568Q463 572 454 578T436
591T422 608T416 627Q416 641 424 651T449 661Z" />
<glyph unicode="&#xf3;" glyph-name="oacute" horiz-adv-x="385" d="M401 626Q401 606 389 595T349 571Q322 558 290 544T203 507L198 515Q219 536 234 550T260 576T282 598T305 620Q328 642 341 649T368 657Q401 657 401 626ZM132 -9Q75 -9 44 29T11 135Q9 198
32 261T99 369Q128 399 165 416T241 433Q300 433 331 393T362 284Q362 223 339 162T274 56Q245 26 209 9T132 -9ZM239 417Q211 417 193 400T161 360Q147 337 133 303T108 229T89 151T82 80Q83 45 95 27T133 8Q161 8 179 25T211 65Q225 87 239 121T264 193T283 269T291
340Q293 417 239 417Z" />
<glyph unicode="&#xf4;" glyph-name="ocircumflex" horiz-adv-x="385" d="M371 505L283 601L139 505L133 512Q161 541 182 563T219 605T249 639T276 668H321Q333 639 345 604T381 511L371 505ZM132 -9Q75 -9 44 29T11 135Q9 198 32 261T99 369Q128 399 165 416T241
433Q300 433 331 393T362 284Q362 223 339 162T274 56Q245 26 209 9T132 -9ZM239 417Q211 417 193 400T161 360Q147 337 133 303T108 229T89 151T82 80Q83 45 95 27T133 8Q161 8 179 25T211 65Q225 87 239 121T264 193T283 269T291 340Q293 417 239 417Z" />
<glyph unicode="&#xf5;" glyph-name="otilde" horiz-adv-x="385" d="M132 -9Q75 -9 44 29T11 135Q9 198 32 261T99 369Q128 399 165 416T241 433Q300 433 331 393T362 284Q362 223 339 162T274 56Q245 26 209 9T132 -9ZM239 417Q211 417 193 400T161 360Q147 337
133 303T108 229T89 151T82 80Q83 45 95 27T133 8Q161 8 179 25T211 65Q225 87 239 121T264 193T283 269T291 340Q293 417 239 417ZM414 625Q399 584 375 559T313 533Q296 533 281 537T250 548T219 558T189 563Q172 563 153 554T115 522L107 526Q127 568 156 593T219
618Q235 618 249 614T277 605T304 595T332 591Q356 591 372 598T406 628L414 625Z" />
<glyph unicode="&#xf6;" glyph-name="odieresis" horiz-adv-x="385" d="M149 595Q149 615 162 628T194 642Q215 642 228 629T242 597Q242 577 228 564T194 550Q175 550 162 563T149 595ZM299 595Q299 615 312 628T345 642Q365 642 378 629T392 597Q392 577 379
564T345 550Q326 550 313 563T299 595ZM132 -9Q75 -9 44 29T11 135Q9 198 32 261T99 369Q128 399 165 416T241 433Q300 433 331 393T362 284Q362 223 339 162T274 56Q245 26 209 9T132 -9ZM239 417Q211 417 193 400T161 360Q147 337 133 303T108 229T89 151T82
80Q83 45 95 27T133 8Q161 8 179 25T211 65Q225 87 239 121T264 193T283 269T291 340Q293 417 239 417Z" />
<glyph unicode="&#xf7;" glyph-name="divide" horiz-adv-x="455" d="M24 252V270H403V252H24ZM265 390Q265 365 249 353T213 340Q194 340 179 353T163 390Q163 413 178 427T213 441Q232 441 248 428T265 390ZM265 142Q265 117 249 105T213 92Q194 92 179 105T163
142Q163 165 178 179T213 193Q232 193 248 180T265 142Z" />
<glyph unicode="&#xf8;" glyph-name="oslash" horiz-adv-x="383" d="M362 284Q363 223 340 162T274 56Q245 26 209 9T132 -9Q113 -9 97 -5L69 -65L51 -56L78 1Q58 11 44 29Q13 68 11 135Q9 198 32 261T99 369Q128 399 165 416T241 433Q264 433 282 427L311 487L329
478L301 419Q318 409 330 393Q361 353 362 284ZM239 417Q211 417 193 400T161 360Q147 337 133 303T108 229T89 151T82 80Q83 48 92 30L272 405Q259 417 239 417ZM291 340Q291 368 285 386L107 14Q117 8 133 8Q161 8 179 25T211 65Q225 87 239 121T264 193T283
269T291 340Z" />
<glyph unicode="&#xf9;" glyph-name="ugrave" horiz-adv-x="485" d="M334 60Q334 47 340 40T355 33Q369 33 384 41T414 63T443 94T468 130L480 123Q466 100 448 77T408 34T362 3T312 -9Q285 -9 273 9T260 53Q260 77 265 103T281 168H274Q248 118 222 85T172 30T126
0T84 -9Q58 -9 43 9T28 56Q28 84 40 121T74 220Q82 243 90 267T106 312T118 350T123 374Q123 394 108 394Q96 394 75 377T21 310L9 317Q43 379 83 406T153 433Q176 433 189 421T203 380Q203 367 198 346T185 301T168 249T149 196Q132 148 119 109T105 53Q105 28
125 28Q138 28 158 43T204 91T257 172T312 290Q325 322 337 355T362 424H441Q430 391 418 352T392 276T368 207L352 158Q339 119 337 97T334 60ZM474 661Q492 661 503 652T532 622Q541 611 550 601T569 579T591 552T618 517L613 510Q583 524 554 538T497 568Q488
572 479 578T461 591T447 608T441 627Q441 641 449 651T474 661Z" />
<glyph unicode="&#xfa;" glyph-name="uacute" horiz-adv-x="485" d="M429 626Q429 606 417 595T377 571Q350 558 318 544T231 507L226 515Q247 536 262 550T288 576T310 598T333 620Q356 642 369 649T396 657Q429 657 429 626ZM334 60Q334 47 340 40T355 33Q369
33 384 41T414 63T443 94T468 130L480 123Q466 100 448 77T408 34T362 3T312 -9Q285 -9 273 9T260 53Q260 77 265 103T281 168H274Q248 118 222 85T172 30T126 0T84 -9Q58 -9 43 9T28 56Q28 84 40 121T74 220Q82 243 90 267T106 312T118 350T123 374Q123 394 108
394Q96 394 75 377T21 310L9 317Q43 379 83 406T153 433Q176 433 189 421T203 380Q203 367 198 346T185 301T168 249T149 196Q132 148 119 109T105 53Q105 28 125 28Q138 28 158 43T204 91T257 172T312 290Q325 322 337 355T362 424H441Q430 391 418 352T392 276T368
207L352 158Q339 119 337 97T334 60Z" />
<glyph unicode="&#xfb;" glyph-name="ucircumflex" horiz-adv-x="485" d="M398 505L310 601L166 505L160 512Q188 541 209 563T246 605T276 639T303 668H348Q360 639 372 604T408 511L398 505ZM334 60Q334 47 340 40T355 33Q369 33 384 41T414 63T443 94T468 130L480
123Q466 100 448 77T408 34T362 3T312 -9Q285 -9 273 9T260 53Q260 77 265 103T281 168H274Q248 118 222 85T172 30T126 0T84 -9Q58 -9 43 9T28 56Q28 84 40 121T74 220Q82 243 90 267T106 312T118 350T123 374Q123 394 108 394Q96 394 75 377T21 310L9 317Q43
379 83 406T153 433Q176 433 189 421T203 380Q203 367 198 346T185 301T168 249T149 196Q132 148 119 109T105 53Q105 28 125 28Q138 28 158 43T204 91T257 172T312 290Q325 322 337 355T362 424H441Q430 391 418 352T392 276T368 207L352 158Q339 119 337 97T334
60Z" />
<glyph unicode="&#xfc;" glyph-name="udieresis" horiz-adv-x="485" d="M177 595Q177 615 190 628T222 642Q243 642 256 629T270 597Q270 577 256 564T222 550Q203 550 190 563T177 595ZM327 595Q327 615 340 628T373 642Q393 642 406 629T420 597Q420 577 407
564T373 550Q354 550 341 563T327 595ZM334 60Q334 47 340 40T355 33Q369 33 384 41T414 63T443 94T468 130L480 123Q466 100 448 77T408 34T362 3T312 -9Q285 -9 273 9T260 53Q260 77 265 103T281 168H274Q248 118 222 85T172 30T126 0T84 -9Q58 -9 43 9T28 56Q28
84 40 121T74 220Q82 243 90 267T106 312T118 350T123 374Q123 394 108 394Q96 394 75 377T21 310L9 317Q43 379 83 406T153 433Q176 433 189 421T203 380Q203 367 198 346T185 301T168 249T149 196Q132 148 119 109T105 53Q105 28 125 28Q138 28 158 43T204 91T257
172T312 290Q325 322 337 355T362 424H441Q430 391 418 352T392 276T368 207L352 158Q339 119 337 97T334 60Z" />
<glyph unicode="&#xfd;" glyph-name="yacute" horiz-adv-x="370" d="M67 379Q53 379 38 359T6 309L-7 317Q4 340 17 361T45 398T76 423T107 433Q123 433 138 424T169 381Q177 365 186 335T204 263T219 166T229 48H233Q250 79 265 111T292 175T310 237T317 295Q317
315 311 330T299 364Q297 368 294 378T291 397Q291 413 300 423T325 433Q345 433 351 418T358 383Q358 300 333 221T269 73T181 -53T86 -148Q9 -213 -45 -213Q-68 -213 -88 -200T-108 -157Q-108 -134 -94 -121T-63 -108Q-49 -108 -36 -115T-11 -140Q3 -159 18 -159Q29
-159 43 -152T74 -132Q91 -118 113 -95T159 -44Q157 7 153 57T141 153T126 239T108 310Q97 343 87 361T67 379ZM384 626Q384 606 372 595T332 571Q305 558 273 544T186 507L181 515Q202 536 217 550T243 576T265 598T288 620Q311 642 324 649T351 657Q384 657 384
626Z" />
<glyph unicode="&#xfe;" glyph-name="thorn" horiz-adv-x="397" d="M272 433Q292 433 310 427T343 405T367 362T376 292Q376 260 368 227T346 162T311 102T266 52Q235 23 201 7T124 -9Q99 -9 78 -4T46 9Q43 1 39 -11T30 -38T20 -66T12 -90Q7 -107 3 -125T-1 -158Q-1
-186 24 -198Q32 -202 43 -204T66 -208L64 -217H-181L-177 -208Q-161 -206 -147 -203T-123 -192Q-104 -179 -94 -159T-73 -109L144 566Q153 592 157 607T162 631Q162 653 152 662Q147 667 136 669T113 674L117 684H257Q262 684 262 679Q262 675 258 667T249 644Q245
634 242 626T236 608T228 586T219 558L154 357H158Q181 399 212 416T272 433ZM298 327Q298 368 286 386T249 404Q233 404 218 397T191 378Q174 361 159 334T133 276Q127 256 117 224T95 156T73 90T57 43Q68 28 86 19T121 10Q143 10 160 18T192 41Q213 60 232 94T265
169T289 251T298 327Z" />
<glyph unicode="&#xff;" glyph-name="ydieresis" horiz-adv-x="370" d="M67 379Q53 379 38 359T6 309L-7 317Q4 340 17 361T45 398T76 423T107 433Q123 433 138 424T169 381Q177 365 186 335T204 263T219 166T229 48H233Q250 79 265 111T292 175T310 237T317 295Q317
315 311 330T299 364Q297 368 294 378T291 397Q291 413 300 423T325 433Q345 433 351 418T358 383Q358 300 333 221T269 73T181 -53T86 -148Q9 -213 -45 -213Q-68 -213 -88 -200T-108 -157Q-108 -134 -94 -121T-63 -108Q-49 -108 -36 -115T-11 -140Q3 -159 18 -159Q29
-159 43 -152T74 -132Q91 -118 113 -95T159 -44Q157 7 153 57T141 153T126 239T108 310Q97 343 87 361T67 379ZM125 595Q125 615 138 628T170 642Q191 642 204 629T218 597Q218 577 204 564T170 550Q151 550 138 563T125 595ZM275 595Q275 615 288 628T321 642Q341
642 354 629T368 597Q368 577 355 564T321 550Q302 550 289 563T275 595Z" />
<glyph unicode="&#x100;" glyph-name="Amacron" horiz-adv-x="575" d="M212 271H371L434 522H429L212 271ZM367 250H192L99 141Q84 123 74 105T64 67Q64 36 88 24Q100 17 112 15T141 10L139 0H-113L-111 10Q-101 12 -92 14T-72 21Q-54 30 -36 43T-1 73T32 105T59
136L517 657H565L451 193Q440 147 434 116T427 67Q427 47 436 37T462 18Q471 15 483 13T503 10L501 0H216L218 10Q237 12 251 16Q267 21 281 31T306 57Q321 80 332 117T355 202L367 250ZM411 726L420 761H670L661 726H411Z" />
<glyph unicode="&#x101;" glyph-name="amacron" horiz-adv-x="444" d="M302 339Q302 374 292 394T258 415Q232 415 212 397T169 344Q152 316 138 281T113 210T96 142T90 89Q90 56 100 42T127 27Q143 27 157 36T188 63Q202 78 214 95T240 135Q253 159 264 188T284
245T297 297T302 339ZM311 58Q311 35 330 35Q344 35 358 43T386 64T412 95T436 130L449 123Q435 100 418 77T381 34T338 3T290 -9Q267 -9 252 4T236 53Q236 64 239 79T246 108H242Q229 85 216 68T188 35Q166 13 146 2T100 -9Q84 -9 68 -3T39 17T18 54T9 112Q9 155
30 210T85 315T165 399T258 433Q286 433 301 416T321 371H323Q330 385 336 397T349 424H419Q407 386 390 333T353 222Q332 159 322 116T311 58ZM185 558L193 593H423L415 558H185Z" />
<glyph unicode="&#x102;" glyph-name="Abreve" horiz-adv-x="575" d="M212 271H371L434 522H429L212 271ZM367 250H192L99 141Q84 123 74 105T64 67Q64 36 88 24Q100 17 112 15T141 10L139 0H-113L-111 10Q-101 12 -92 14T-72 21Q-54 30 -36 43T-1 73T32 105T59
136L517 657H565L451 193Q440 147 434 116T427 67Q427 47 436 37T462 18Q471 15 483 13T503 10L501 0H216L218 10Q237 12 251 16Q267 21 281 31T306 57Q321 80 332 117T355 202L367 250ZM448 838Q451 819 460 806T482 785T513 774T547 770Q586 770 620 785T675
838L685 832Q682 808 671 786T642 747T597 719T538 709Q519 709 501 714T467 731T443 759T434 800Q434 815 437 832L448 838Z" />
<glyph unicode="&#x103;" glyph-name="abreve" horiz-adv-x="444" d="M302 339Q302 374 292 394T258 415Q232 415 212 397T169 344Q152 316 138 281T113 210T96 142T90 89Q90 56 100 42T127 27Q143 27 157 36T188 63Q202 78 214 95T240 135Q253 159 264 188T284
245T297 297T302 339ZM311 58Q311 35 330 35Q344 35 358 43T386 64T412 95T436 130L449 123Q435 100 418 77T381 34T338 3T290 -9Q267 -9 252 4T236 53Q236 64 239 79T246 108H242Q229 85 216 68T188 35Q166 13 146 2T100 -9Q84 -9 68 -3T39 17T18 54T9 112Q9 155
30 210T85 315T165 399T258 433Q286 433 301 416T321 371H323Q330 385 336 397T349 424H419Q407 386 390 333T353 222Q332 159 322 116T311 58ZM196 673Q204 627 234 611T299 594Q338 594 366 613T421 674L431 668Q428 644 419 620T392 575T351 543T293 530Q270
530 250 536T214 556T191 589T182 635Q182 650 185 667L196 673Z" />
<glyph unicode="&#x104;" glyph-name="Aogonek" horiz-adv-x="575" d="M212 271H371L434 522H429L212 271ZM367 250H192L99 141Q84 123 74 105T64 67Q64 36 88 24Q100 17 112 15T141 10L139 0H-113L-111 10Q-101 12 -92 14T-72 21Q-54 30 -36 43T-1 73T32 105T59
136L517 657H565L451 193Q440 147 434 116T427 67Q427 47 436 37T462 18Q471 15 483 13T503 10L501 0H346Q321 0 304 -1T273 -5T249 -12T228 -24Q201 -39 180 -70T159 -141Q159 -167 174 -182T225 -203L223 -211Q188 -213 163 -208T121 -193T98 -168T90 -138Q90
-116 102 -99T133 -66T176 -38T224 -12Q253 4 272 18T306 57Q321 80 332 117T355 202L367 250Z" />
<glyph unicode="&#x105;" glyph-name="aogonek" horiz-adv-x="444" d="M165 -138Q165 -116 177 -98T209 -64T252 -35T298 -9H289Q267 -9 252 4T236 53Q236 64 239 79T246 108H242Q229 85 216 68T188 35Q166 13 146 2T100 -9Q84 -9 68 -3T39 17T18 54T9 112Q9 155
30 210T85 315T165 399T258 433Q286 433 301 416T321 371H323Q324 373 328 380T336 397T344 414T349 424H419Q418 420 413 406T402 371T387 326T373 281T361 244T353 222Q332 159 322 116T311 58Q311 35 330 35Q344 35 358 43T386 64T412 95T436 130L449 123Q430
90 406 59T352 10Q328 -4 307 -19T270 -53T244 -93T234 -141Q234 -167 249 -182T299 -203L298 -211Q263 -213 238 -208T196 -193T173 -168T165 -138ZM302 339Q302 374 292 394T258 415Q232 415 212 397T169 344Q152 316 138 281T113 210T96 142T90 89Q90 56 100
42T127 27Q143 27 157 36T188 63Q202 78 214 95T240 135Q253 159 264 188T284 245T297 297T302 339Z" />
<glyph unicode="&#x106;" glyph-name="Cacute" horiz-adv-x="557" d="M542 419H530Q535 537 501 591T404 646Q369 646 338 631T282 594Q260 574 234 537T186 450T148 339T133 211Q133 107 182 55Q201 36 223 30T269 23Q312 23 348 40T414 86T467 148T505 215L522
206Q505 169 479 130T419 59T344 7T254 -14Q194 -14 152 6T83 60T45 140T33 235Q33 325 65 404T150 542T270 636T408 670Q438 670 460 664T499 648T527 627T546 603H550L589 647H601L542 419ZM341 719Q365 737 383 751T416 776T444 798T472 817Q494 831 503 836T527
842Q544 842 553 832T562 807Q562 788 547 777T506 756Q492 751 478 747T446 737T404 726T345 711L341 719Z" />
<glyph unicode="&#x107;" glyph-name="cacute" horiz-adv-x="345" d="M398 626Q398 606 386 595T346 571Q319 558 287 544T200 507L195 515Q216 536 231 550T257 576T279 598T302 620Q325 642 338 649T365 657Q398 657 398 626ZM346 358Q346 340 337 325T305 310Q285
310 277 321T268 348Q268 353 270 360T273 371Q275 378 278 384T281 395Q281 415 251 415Q234 415 217 405T185 375Q167 352 150 319T120 247T100 168T92 91Q92 55 109 38T152 20Q176 20 197 30T236 55T266 89T289 123L302 115Q289 90 271 68T231 28T182 1T124
-9Q96 -9 75 2T40 32T18 76T11 130Q11 166 20 200T44 265T79 323T122 371Q155 403 191 418T254 433Q292 433 319 415T346 358Z" />
<glyph unicode="&#x108;" glyph-name="Ccircumflex" horiz-adv-x="557" d="M520 709L438 781L299 708L293 716Q302 724 322 742T363 780T401 816T423 837H468L479 814Q488 797 498 778T517 740T529 714L520 709ZM542 419H530Q535 537 501 591T404 646Q369 646
338 631T282 594Q260 574 234 537T186 450T148 339T133 211Q133 107 182 55Q201 36 223 30T269 23Q312 23 348 40T414 86T467 148T505 215L522 206Q505 169 479 130T419 59T344 7T254 -14Q194 -14 152 6T83 60T45 140T33 235Q33 325 65 404T150 542T270 636T408
670Q438 670 460 664T499 648T527 627T546 603H550L589 647H601L542 419Z" />
<glyph unicode="&#x109;" glyph-name="ccircumflex" horiz-adv-x="345" d="M368 505L280 601L136 505L130 512Q158 541 179 563T216 605T246 639T273 668H318Q330 639 342 604T378 511L368 505ZM346 358Q346 340 337 325T305 310Q285 310 277 321T268 348Q268
353 270 360T273 371Q275 378 278 384T281 395Q281 415 251 415Q234 415 217 405T185 375Q167 352 150 319T120 247T100 168T92 91Q92 55 109 38T152 20Q176 20 197 30T236 55T266 89T289 123L302 115Q289 90 271 68T231 28T182 1T124 -9Q96 -9 75 2T40 32T18 76T11
130Q11 166 20 200T44 265T79 323T122 371Q155 403 191 418T254 433Q292 433 319 415T346 358Z" />
<glyph unicode="&#x10a;" glyph-name="Cdotaccent" horiz-adv-x="557" d="M542 419H530Q535 537 501 591T404 646Q369 646 338 631T282 594Q260 574 234 537T186 450T148 339T133 211Q133 107 182 55Q201 36 223 30T269 23Q312 23 348 40T414 86T467 148T505 215L522
206Q505 169 479 130T419 59T344 7T254 -14Q194 -14 152 6T83 60T45 140T33 235Q33 325 65 404T150 542T270 636T408 670Q438 670 460 664T499 648T527 627T546 603H550L589 647H601L542 419ZM364 775Q364 799 380 813T416 827Q436 827 453 814T470 775Q470 750
453 737T416 724Q397 724 381 738T364 775Z" />
<glyph unicode="&#x10b;" glyph-name="cdotaccent" horiz-adv-x="345" d="M346 358Q346 340 337 325T305 310Q285 310 277 321T268 348Q268 353 270 360T273 371Q275 378 278 384T281 395Q281 415 251 415Q234 415 217 405T185 375Q167 352 150 319T120 247T100
168T92 91Q92 55 109 38T152 20Q176 20 197 30T236 55T266 89T289 123L302 115Q289 90 271 68T231 28T182 1T124 -9Q96 -9 75 2T40 32T18 76T11 130Q11 166 20 200T44 265T79 323T122 371Q155 403 191 418T254 433Q292 433 319 415T346 358ZM321 595Q321 570 304
559T270 547Q253 547 237 559T221 595Q221 618 237 631T270 645Q287 645 304 633T321 595Z" />
<glyph unicode="&#x10c;" glyph-name="Ccaron" horiz-adv-x="557" d="M339 840L423 768L560 841L566 833Q557 825 537 807T496 769T458 733T436 712H391L379 735Q371 752 361 771T342 809T330 835L339 840ZM542 419H530Q535 537 501 591T404 646Q369 646 338 631T282
594Q260 574 234 537T186 450T148 339T133 211Q133 107 182 55Q201 36 223 30T269 23Q312 23 348 40T414 86T467 148T505 215L522 206Q505 169 479 130T419 59T344 7T254 -14Q194 -14 152 6T83 60T45 140T33 235Q33 325 65 404T150 542T270 636T408 670Q438 670
460 664T499 648T527 627T546 603H550L589 647H601L542 419Z" />
<glyph unicode="&#x10d;" glyph-name="ccaron" horiz-adv-x="345" d="M188 661L277 565L420 661L427 654Q399 625 378 603T341 561T311 527T284 498H239Q233 513 227 528T215 562T200 603T179 655L188 661ZM346 358Q346 340 337 325T305 310Q285 310 277 321T268
348Q268 353 270 360T273 371Q275 378 278 384T281 395Q281 415 251 415Q234 415 217 405T185 375Q167 352 150 319T120 247T100 168T92 91Q92 55 109 38T152 20Q176 20 197 30T236 55T266 89T289 123L302 115Q289 90 271 68T231 28T182 1T124 -9Q96 -9 75 2T40
32T18 76T11 130Q11 166 20 200T44 265T79 323T122 371Q155 403 191 418T254 433Q292 433 319 415T346 358Z" />
<glyph unicode="&#x10e;" glyph-name="Dcaron" horiz-adv-x="670" d="M341 840L425 768L562 841L568 833Q559 825 539 807T498 769T460 733T438 712H393L381 735Q373 752 363 771T344 809T332 835L341 840ZM659 407Q659 287 609 203T473 61Q431 32 381 16T270
0H-48L-46 10Q-38 11 -27 12T-7 16Q9 21 24 30T50 56Q64 79 75 116T99 202L165 470Q176 516 182 544T188 590Q188 610 179 620T153 639Q145 642 132 644T112 647L115 657H395Q459 657 508 636T591 581T642 501T659 407ZM557 436Q557 457 555 480T547 525T533 566T514
597Q493 620 463 627T391 635H355Q335 635 323 628T303 609T291 581T282 547L189 170Q181 138 177 117T172 79Q172 53 186 39Q203 22 247 22H275Q289 22 308 24T348 34T393 55T437 91Q461 116 483 149T521 224T547 318T557 436Z" />
<glyph unicode="&#x10f;" glyph-name="dcaron" horiz-adv-x="460" d="M555 684H616Q596 645 564 598T496 494H485L555 684ZM306 347Q304 377 292 396T257 415Q231 415 210 397T167 344Q150 316 136 279T111 206T95 138T89 90Q89 57 99 43T126 28Q141 28 155 36T187
63Q214 90 240 137Q253 161 264 191T285 250T299 305T306 347ZM242 111Q216 64 188 36Q165 13 144 2T98 -9Q82 -9 66 -3T37 17T16 55T7 115Q7 163 28 218T83 321T163 401T256 433Q284 433 299 419T319 381H324L385 566Q402 616 402 631Q402 642 401 649T393 662Q388
667 377 669T354 674L357 684H498Q503 684 503 679Q503 675 500 667T491 644Q487 634 484 626T477 608T469 586T460 558L357 227Q339 169 328 125T316 57Q316 36 333 36Q347 36 361 44T389 65T415 96T439 131L451 123Q437 100 420 77T383 34T339 3T291 -9Q267 -9
251 5T234 55Q234 65 238 81T246 111H242Z" />
<glyph unicode="&#x110;" glyph-name="Dcroat" horiz-adv-x="670" d="M42 351H135L165 470Q176 516 182 544T188 590Q188 610 179 620T153 639Q145 642 132 644T112 647L115 657H395Q459 657 508 636T591 581T642 501T659 407Q659 287 609 203T472 61Q430 32 380
16T270 0H-48L-46 10Q-38 11 -27 12T-7 16Q9 21 24 30T50 56Q64 79 75 116T99 202L129 325H36L42 351ZM436 91Q461 116 483 149T521 224T547 318T557 436Q557 457 555 480T547 525T533 566T514 597Q493 620 463 627T391 635H355Q335 635 323 628T303 609T291 581T282
547L233 351H383L377 325H227L189 170Q181 138 177 117T172 79Q172 53 186 39Q203 22 247 22H275Q289 22 308 24T348 34T392 55T436 91Z" />
<glyph unicode="&#x111;" glyph-name="dcroat" horiz-adv-x="460" d="M522 535H238L244 554H528L522 535ZM306 347Q304 377 292 396T257 415Q231 415 210 397T167 344Q150 316 136 279T111 206T95 138T89 90Q89 57 99 43T126 28Q141 28 155 36T187 63Q214 90 240
137Q253 161 264 191T285 250T299 305T306 347ZM242 111Q216 64 188 36Q165 13 144 2T98 -9Q82 -9 66 -3T37 17T16 55T7 115Q7 163 28 218T83 321T163 401T256 433Q284 433 299 419T319 381H324L385 566Q402 616 402 631Q402 642 401 649T393 662Q388 667 377 669T354
674L357 684H498Q503 684 503 679Q503 675 500 667T491 644Q487 634 484 626T477 608T469 586T460 558L357 227Q339 169 328 125T316 57Q316 36 333 36Q347 36 361 44T389 65T415 96T439 131L451 123Q437 100 420 77T383 34T339 3T291 -9Q267 -9 251 5T234 55Q234
65 238 81T246 111H242Z" />
<glyph unicode="&#x112;" glyph-name="Emacron" horiz-adv-x="573" d="M562 463H551Q544 501 532 535T502 593Q497 600 490 607T471 621T444 631T408 635H382Q358 635 341 628T311 607T292 574T278 532L233 352H262Q305 352 328 357T368 376Q391 395 408 422T433
474H444L377 206H367Q370 230 367 257T352 301Q343 313 325 321T262 330H228L188 170Q179 134 176 110T176 70Q180 41 197 32T247 22H279Q321 22 354 38T410 72Q448 103 478 141T526 209H537L467 0H-49L-46 10Q-38 11 -27 12T-8 16Q9 21 23 31T49 57Q63 80 74 117T98
202L164 470Q175 516 181 544T188 590Q188 610 179 621T153 639Q144 643 132 644T111 647L113 657H559L562 463ZM249 726L258 761H508L499 726H249Z" />
<glyph unicode="&#x113;" glyph-name="emacron" horiz-adv-x="337" d="M299 116Q286 91 268 69T228 29T178 1T120 -9Q93 -9 73 2T38 32T17 76T10 130Q10 201 41 260T124 368Q157 400 189 416T249 433Q298 433 316 415T335 365Q335 346 323 327T293 292Q278 280
256 267T209 240T156 216T103 196Q91 142 91 91Q91 56 105 38T143 19Q170 19 192 29T233 54T264 88T287 123L299 116ZM107 213Q125 220 143 228T179 246T210 266T233 286Q251 306 259 331T268 376Q268 393 262 404T242 415Q221 415 202 399T164 355T132 291T107
213ZM142 558L150 593H380L372 558H142Z" />
<glyph unicode="&#x114;" glyph-name="Ebreve" horiz-adv-x="573" d="M562 463H551Q544 501 532 535T502 593Q497 600 490 607T471 621T444 631T408 635H382Q358 635 341 628T311 607T292 574T278 532L233 352H262Q305 352 328 357T368 376Q391 395 408 422T433
474H444L377 206H367Q370 230 367 257T352 301Q343 313 325 321T262 330H228L188 170Q179 134 176 110T176 70Q180 41 197 32T247 22H279Q321 22 354 38T410 72Q448 103 478 141T526 209H537L467 0H-49L-46 10Q-38 11 -27 12T-8 16Q9 21 23 31T49 57Q63 80 74 117T98
202L164 470Q175 516 181 544T188 590Q188 610 179 621T153 639Q144 643 132 644T111 647L113 657H559L562 463ZM287 838Q290 819 299 806T321 785T352 774T386 770Q425 770 459 785T514 838L524 832Q521 808 510 786T481 747T436 719T377 709Q358 709 340 714T306
731T282 759T273 800Q273 815 276 832L287 838Z" />
<glyph unicode="&#x115;" glyph-name="ebreve" horiz-adv-x="337" d="M299 116Q286 91 268 69T228 29T178 1T120 -9Q93 -9 73 2T38 32T17 76T10 130Q10 201 41 260T124 368Q157 400 189 416T249 433Q298 433 316 415T335 365Q335 346 323 327T293 292Q278 280
256 267T209 240T156 216T103 196Q91 142 91 91Q91 56 105 38T143 19Q170 19 192 29T233 54T264 88T287 123L299 116ZM107 213Q125 220 143 228T179 246T210 266T233 286Q251 306 259 331T268 376Q268 393 262 404T242 415Q221 415 202 399T164 355T132 291T107
213ZM154 673Q162 627 192 611T257 594Q296 594 324 613T379 674L389 668Q386 644 377 620T350 575T309 543T251 530Q228 530 208 536T172 556T149 589T140 635Q140 650 143 667L154 673Z" />
<glyph unicode="&#x116;" glyph-name="Edotaccent" horiz-adv-x="573" d="M321 775Q321 799 337 813T373 827Q393 827 410 814T427 775Q427 750 410 737T373 724Q354 724 338 738T321 775ZM562 463H551Q544 501 532 535T502 593Q497 600 490 607T471 621T444 631T408
635H382Q358 635 341 628T311 607T292 574T278 532L233 352H262Q305 352 328 357T368 376Q391 395 408 422T433 474H444L377 206H367Q370 230 367 257T352 301Q343 313 325 321T262 330H228L188 170Q179 134 176 110T176 70Q180 41 197 32T247 22H279Q321 22 354
38T410 72Q448 103 478 141T526 209H537L467 0H-49L-46 10Q-38 11 -27 12T-8 16Q9 21 23 31T49 57Q63 80 74 117T98 202L164 470Q175 516 181 544T188 590Q188 610 179 621T153 639Q144 643 132 644T111 647L113 657H559L562 463Z" />
<glyph unicode="&#x117;" glyph-name="edotaccent" horiz-adv-x="337" d="M299 116Q286 91 268 69T228 29T178 1T120 -9Q93 -9 73 2T38 32T17 76T10 130Q10 201 41 260T124 368Q157 400 189 416T249 433Q298 433 316 415T335 365Q335 346 323 327T293 292Q278
280 256 267T209 240T156 216T103 196Q91 142 91 91Q91 56 105 38T143 19Q170 19 192 29T233 54T264 88T287 123L299 116ZM107 213Q125 220 143 228T179 246T210 266T233 286Q251 306 259 331T268 376Q268 393 262 404T242 415Q221 415 202 399T164 355T132 291T107
213ZM308 595Q308 570 291 559T257 547Q240 547 224 559T208 595Q208 618 224 631T257 645Q274 645 291 633T308 595Z" />
<glyph unicode="&#x118;" glyph-name="Eogonek" horiz-adv-x="573" d="M562 463H551Q544 501 532 535T502 593Q497 600 490 607T471 621T444 631T408 635H382Q358 635 341 628T311 607T292 574T278 532L233 352H262Q305 352 328 357T368 376Q391 395 408 422T433
474H444L377 206H367Q370 230 367 257T352 301Q343 313 325 321T262 330H228L188 170Q179 133 176 110T176 70Q180 41 197 32T247 22H279Q321 22 354 38T410 72Q448 103 478 141T526 209H537L467 0H383Q367 -12 351 -27T321 -59T300 -96T291 -141Q291 -167 306
-182T357 -203L356 -211Q285 -215 254 -193T223 -138Q223 -114 237 -95T273 -59T319 -28T365 0H-49L-46 10Q-38 11 -27 12T-8 16Q9 21 23 31T49 57Q63 80 74 117T98 202L164 470Q175 516 181 544T188 590Q188 610 179 621T153 639Q144 643 132 644T111 647L113
657H559L562 463Z" />
<glyph unicode="&#x119;" glyph-name="eogonek" horiz-adv-x="337" d="M136 -211Q64 -214 34 -193T3 -138Q3 -115 16 -97T51 -63T97 -33Q121 -20 143 -7Q137 -9 131 -9H120Q93 -9 73 2T38 32T17 76T10 130Q10 165 20 200T47 267T87 327T136 379Q165 405 194 419T249
433Q298 433 316 415T335 365Q335 343 320 323T283 284Q251 259 203 236T103 196Q91 142 91 91Q91 56 105 38T143 19Q170 19 192 29T233 54T264 88T287 123L299 116Q281 81 255 53T196 8Q172 -4 149 -18T109 -51T82 -91T71 -141Q71 -167 86 -182T137 -203L136 -211ZM268
376Q268 393 262 404T242 415Q221 415 202 399T164 355T132 291T107 213Q136 224 161 236T204 263Q236 286 252 315T268 376Z" />
<glyph unicode="&#x11a;" glyph-name="Ecaron" horiz-adv-x="573" d="M297 840L381 768L518 841L524 833Q515 825 495 807T454 769T416 733T394 712H349L337 735Q329 752 319 771T300 809T288 835L297 840ZM562 463H551Q544 501 532 535T502 593Q497 600 490 607T471
621T444 631T408 635H382Q358 635 341 628T311 607T292 574T278 532L233 352H262Q305 352 328 357T368 376Q391 395 408 422T433 474H444L377 206H367Q370 230 367 257T352 301Q343 313 325 321T262 330H228L188 170Q179 134 176 110T176 70Q180 41 197 32T247
22H279Q321 22 354 38T410 72Q448 103 478 141T526 209H537L467 0H-49L-46 10Q-38 11 -27 12T-8 16Q9 21 23 31T49 57Q63 80 74 117T98 202L164 470Q175 516 181 544T188 590Q188 610 179 621T153 639Q144 643 132 644T111 647L113 657H559L562 463Z" />
<glyph unicode="&#x11b;" glyph-name="ecaron" horiz-adv-x="337" d="M173 661L262 565L405 661L412 654Q384 625 363 603T326 561T296 527T269 498H224Q218 513 212 528T200 562T185 603T164 655L173 661ZM299 116Q286 91 268 69T228 29T178 1T120 -9Q93 -9 73
2T38 32T17 76T10 130Q10 201 41 260T124 368Q157 400 189 416T249 433Q298 433 316 415T335 365Q335 346 323 327T293 292Q278 280 256 267T209 240T156 216T103 196Q91 142 91 91Q91 56 105 38T143 19Q170 19 192 29T233 54T264 88T287 123L299 116ZM107 213Q125
220 143 228T179 246T210 266T233 286Q251 306 259 331T268 376Q268 393 262 404T242 415Q221 415 202 399T164 355T132 291T107 213Z" />
<glyph unicode="&#x11c;" glyph-name="Gcircumflex" horiz-adv-x="600" d="M520 709L438 781L299 708L293 716Q302 724 322 742T363 780T401 816T423 837H468L479 814Q488 797 498 778T517 740T529 714L520 709ZM612 287Q602 286 596 285T581 281Q566 276 553
267T529 240Q519 222 512 201T497 148L464 15H456Q454 17 447 21T432 25Q424 25 412 21T385 11Q363 0 333 -7T273 -14Q213 -14 168 6T92 61T46 141T30 236Q30 326 63 405T150 543T273 636T413 670Q445 670 469 664T511 648T541 627T561 603H565L602 647H613L556
426H545Q550 543 514 595T413 648Q389 648 371 645T337 634T309 617T281 594Q260 576 234 538T185 448T147 332T131 203Q131 153 139 115T177 46Q196 26 223 17T274 8Q310 8 331 17T366 42Q380 57 387 78T401 122L412 168Q418 194 420 207T422 234Q422 251 415
260T392 277Q384 282 372 284T353 287L355 297H615L612 287Z" />
<glyph unicode="&#x11d;" glyph-name="gcircumflex" horiz-adv-x="388" d="M363 505L275 601L131 505L125 512Q153 541 174 563T211 605T241 639T268 668H313Q325 639 337 604T373 511L363 505ZM127 -213Q42 -213 -7 -183T-56 -101Q-56 -86 -46 -71T-18 -43T24
-20T76 -5V-2Q46 6 30 28T13 77Q13 110 38 133T102 166Q76 183 62 210T47 273Q47 307 60 336T97 386T151 420T214 433Q245 433 268 421T306 385H310Q316 410 337 425T387 441Q411 441 422 428T434 399Q434 379 425 371T401 362Q389 362 380 368T365 385Q359 395
355 399T342 404Q335 404 329 394T322 371Q322 364 323 358L331 326Q334 316 334 307Q334 273 320 244T283 194T230 160T166 147Q143 147 120 157Q94 152 81 139T68 111Q68 87 91 80T166 64Q211 56 244 48T300 25T334 -10T345 -64Q345 -100 329 -127T285 -174T216
-203T127 -213ZM131 -195Q161 -195 189 -189T238 -171T272 -139T285 -94Q285 -65 264 -51T186 -25Q169 -22 147 -18T100 -9Q85 -13 68 -19T37 -37T14 -65T4 -106Q4 -151 37 -173T131 -195ZM213 416Q168 416 141 357Q127 328 121 298T115 243Q115 209 125 187T168
165Q214 165 239 223Q253 252 259 282T265 337Q265 372 255 394T213 416Z" />
<glyph unicode="&#x11e;" glyph-name="Gbreve" horiz-adv-x="600" d="M329 838Q332 819 341 806T363 785T394 774T428 770Q467 770 501 785T556 838L566 832Q563 808 552 786T523 747T478 719T419 709Q400 709 382 714T348 731T324 759T315 800Q315 815 318 832L329
838ZM612 287Q602 286 596 285T581 281Q566 276 553 267T529 240Q519 222 512 201T497 148L464 15H456Q454 17 447 21T432 25Q424 25 412 21T385 11Q363 0 333 -7T273 -14Q213 -14 168 6T92 61T46 141T30 236Q30 326 63 405T150 543T273 636T413 670Q445 670 469
664T511 648T541 627T561 603H565L602 647H613L556 426H545Q550 543 514 595T413 648Q389 648 371 645T337 634T309 617T281 594Q260 576 234 538T185 448T147 332T131 203Q131 153 139 115T177 46Q196 26 223 17T274 8Q310 8 331 17T366 42Q380 57 387 78T401
122L412 168Q418 194 420 207T422 234Q422 251 415 260T392 277Q384 282 372 284T353 287L355 297H615L612 287Z" />
<glyph unicode="&#x11f;" glyph-name="gbreve" horiz-adv-x="388" d="M127 -213Q42 -213 -7 -183T-56 -101Q-56 -86 -46 -71T-18 -43T24 -20T76 -5V-2Q46 6 30 28T13 77Q13 110 38 133T102 166Q76 183 62 210T47 273Q47 307 60 336T97 386T151 420T214 433Q245
433 268 421T306 385H310Q316 410 337 425T387 441Q411 441 422 428T434 399Q434 379 425 371T401 362Q389 362 380 368T365 385Q359 395 355 399T342 404Q335 404 329 394T322 371Q322 364 323 358L331 326Q334 316 334 307Q334 273 320 244T283 194T230 160T166
147Q143 147 120 157Q94 152 81 139T68 111Q68 87 91 80T166 64Q211 56 244 48T300 25T334 -10T345 -64Q345 -100 329 -127T285 -174T216 -203T127 -213ZM131 -195Q161 -195 189 -189T238 -171T272 -139T285 -94Q285 -65 264 -51T186 -25Q169 -22 147 -18T100 -9Q85
-13 68 -19T37 -37T14 -65T4 -106Q4 -151 37 -173T131 -195ZM213 416Q168 416 141 357Q127 328 121 298T115 243Q115 209 125 187T168 165Q214 165 239 223Q253 252 259 282T265 337Q265 372 255 394T213 416ZM159 673Q167 627 197 611T262 594Q301 594 329 613T384
674L394 668Q391 644 382 620T355 575T314 543T256 530Q233 530 213 536T177 556T154 589T145 635Q145 650 148 667L159 673Z" />
<glyph unicode="&#x120;" glyph-name="Gdotaccent" horiz-adv-x="600" d="M364 775Q364 799 380 813T416 827Q436 827 453 814T470 775Q470 750 453 737T416 724Q397 724 381 738T364 775ZM612 287Q602 286 596 285T581 281Q566 276 553 267T529 240Q519 222 512
201T497 148L464 15H456Q454 17 447 21T432 25Q424 25 412 21T385 11Q363 0 333 -7T273 -14Q213 -14 168 6T92 61T46 141T30 236Q30 326 63 405T150 543T273 636T413 670Q445 670 469 664T511 648T541 627T561 603H565L602 647H613L556 426H545Q550 543 514 595T413
648Q389 648 371 645T337 634T309 617T281 594Q260 576 234 538T185 448T147 332T131 203Q131 153 139 115T177 46Q196 26 223 17T274 8Q310 8 331 17T366 42Q380 57 387 78T401 122L412 168Q418 194 420 207T422 234Q422 251 415 260T392 277Q384 282 372 284T353
287L355 297H615L612 287Z" />
<glyph unicode="&#x121;" glyph-name="gdotaccent" horiz-adv-x="388" d="M127 -213Q42 -213 -7 -183T-56 -101Q-56 -86 -46 -71T-18 -43T24 -20T76 -5V-2Q46 6 30 28T13 77Q13 110 38 133T102 166Q76 183 62 210T47 273Q47 307 60 336T97 386T151 420T214 433Q245
433 268 421T306 385H310Q316 410 337 425T387 441Q411 441 422 428T434 399Q434 379 425 371T401 362Q389 362 380 368T365 385Q359 395 355 399T342 404Q335 404 329 394T322 371Q322 364 323 358L331 326Q334 316 334 307Q334 273 320 244T283 194T230 160T166
147Q143 147 120 157Q94 152 81 139T68 111Q68 87 91 80T166 64Q211 56 244 48T300 25T334 -10T345 -64Q345 -100 329 -127T285 -174T216 -203T127 -213ZM131 -195Q161 -195 189 -189T238 -171T272 -139T285 -94Q285 -65 264 -51T186 -25Q169 -22 147 -18T100 -9Q85
-13 68 -19T37 -37T14 -65T4 -106Q4 -151 37 -173T131 -195ZM213 416Q168 416 141 357Q127 328 121 298T115 243Q115 209 125 187T168 165Q214 165 239 223Q253 252 259 282T265 337Q265 372 255 394T213 416ZM314 595Q314 570 297 559T263 547Q246 547 230 559T214
595Q214 618 230 631T263 645Q280 645 297 633T314 595Z" />
<glyph unicode="&#x122;" glyph-name="Gcommaaccent" horiz-adv-x="600" d="M279 -97Q279 -124 269 -146T240 -184T198 -213T145 -234L140 -221Q178 -210 202 -192T227 -154Q227 -146 221 -141Q199 -137 187 -123T175 -91Q175 -68 189 -54T230 -39Q248 -39 263
-54T279 -97ZM612 287Q602 286 596 285T581 281Q566 276 553 267T529 240Q519 222 512 201T497 148L464 15H456Q454 17 447 21T432 25Q424 25 412 21T385 11Q363 0 333 -7T273 -14Q213 -14 168 6T92 61T46 141T30 236Q30 326 63 405T150 543T273 636T413 670Q445
670 469 664T511 648T541 627T561 603H565L602 647H613L556 426H545Q550 543 514 595T413 648Q389 648 371 645T337 634T309 617T281 594Q260 576 234 538T185 448T147 332T131 203Q131 153 139 115T177 46Q196 26 223 17T274 8Q310 8 331 17T366 42Q380 57 387
78T401 122L412 168Q418 194 420 207T422 234Q422 251 415 260T392 277Q384 282 372 284T353 287L355 297H615L612 287Z" />
<glyph unicode="&#x123;" glyph-name="gcommaaccent" horiz-adv-x="388" d="M194 596Q194 623 204 644T232 680T274 705T327 722L332 710Q294 699 271 684T247 652Q247 643 253 639Q274 635 286 621T299 588Q299 566 285 552T244 537Q225 537 210 552T194 596ZM127
-213Q42 -213 -7 -183T-56 -101Q-56 -86 -46 -71T-18 -43T24 -20T76 -5V-2Q46 6 30 28T13 77Q13 110 38 133T102 166Q76 183 62 210T47 273Q47 307 60 336T97 386T151 420T214 433Q245 433 268 421T306 385H310Q316 410 337 425T387 441Q411 441 422 428T434 399Q434
379 425 371T401 362Q389 362 380 368T365 385Q359 395 355 399T342 404Q335 404 329 394T322 371Q322 364 323 358L331 326Q334 316 334 307Q334 273 320 244T283 194T230 160T166 147Q143 147 120 157Q94 152 81 139T68 111Q68 87 91 80T166 64Q211 56 244 48T300
25T334 -10T345 -64Q345 -100 329 -127T285 -174T216 -203T127 -213ZM131 -195Q161 -195 189 -189T238 -171T272 -139T285 -94Q285 -65 264 -51T186 -25Q169 -22 147 -18T100 -9Q85 -13 68 -19T37 -37T14 -65T4 -106Q4 -151 37 -173T131 -195ZM213 416Q168 416
141 357Q127 328 121 298T115 243Q115 209 125 187T168 165Q214 165 239 223Q253 252 259 282T265 337Q265 372 255 394T213 416Z" />
<glyph unicode="&#x124;" glyph-name="Hcircumflex" horiz-adv-x="694" d="M766 647Q758 646 747 645T728 641Q712 636 696 626T669 600Q654 576 644 540T622 455L558 193Q547 147 541 116T534 67Q534 47 543 37T570 18Q578 15 590 13T610 10L608 0H322L324 10Q343
12 357 16Q373 21 388 31T413 57Q428 80 439 117T463 202L492 322H225L193 193Q182 147 176 116T169 67Q169 47 178 37T204 18Q223 12 238 10L236 0H-49L-47 10Q-38 11 -27 12T-8 16Q9 21 23 31T49 57Q63 80 74 117T98 202L162 464Q173 510 179 541T186 590Q186
610 177 620T151 639Q142 642 130 644T109 647L112 657H398L395 647Q378 645 363 641Q347 636 331 626T304 600Q290 576 280 540T257 455L231 346H498L527 464Q538 510 544 541T550 590Q550 610 541 620T515 639Q498 645 481 647L483 657H769L766 647ZM562 709L480
781L341 708L335 716Q344 724 364 742T405 780T443 816T465 837H510L521 814Q530 797 540 778T559 740T571 714L562 709Z" />
<glyph unicode="&#x125;" glyph-name="hcircumflex" horiz-adv-x="456" d="M-18 0Q-16 6 -4 43T26 133T65 250T106 374T143 486T170 566Q178 592 182 607T187 631Q187 642 186 649T178 662Q173 667 162 669T138 674L142 684H281Q286 684 286 679Q286 675 282 667T273
644Q269 634 266 626T260 608T252 586T243 558L150 270H156Q207 360 254 397T343 435Q372 435 386 417T400 369Q400 341 388 304T354 205Q346 182 338 158T324 113T313 76T309 53Q309 34 322 34Q334 34 348 42T377 63T406 94T431 130L444 123Q430 100 412 77T371
34T325 3T275 -9Q251 -9 238 5T224 45Q224 58 229 79T243 125T261 177T280 231Q297 279 310 318T324 375Q324 388 319 392T305 397Q292 397 271 383T225 339T172 262T117 146Q104 114 90 75T63 0H-18ZM449 709L367 781L228 708L222 716Q231 724 251 742T292 780T330
816T352 837H397L408 814Q417 797 427 778T446 740T458 714L449 709Z" />
<glyph unicode="&#x126;" glyph-name="Hbar" horiz-adv-x="694" d="M231 346H498L526 463H259L231 346ZM766 647Q758 646 747 645T728 641Q712 636 696 626T669 600Q657 581 648 552T629 486H725L720 463H624L558 193Q547 147 541 116T534 67Q534 47 543 37T570
18Q578 15 590 13T610 10L608 0H322L324 10Q343 12 357 16Q373 21 388 31T413 57Q428 80 439 117T463 202L492 322H225L193 193Q182 147 176 116T169 67Q169 47 178 37T204 18Q223 12 238 10L236 0H-49L-47 10Q-38 11 -27 12T-8 16Q9 21 23 31T49 57Q63 80 74 117T98
202L161 463H62L68 486H168Q176 522 181 548T186 590Q186 610 177 620T151 639Q142 642 130 644T109 647L112 657H398L395 647Q378 645 363 641Q347 636 331 626T304 600Q292 581 283 551T265 486H531Q540 521 545 548T550 590Q550 610 541 620T515 639Q498 645
481 647L483 657H769L766 647Z" />
<glyph unicode="&#x127;" glyph-name="hbar" horiz-adv-x="456" d="M444 123Q430 100 412 77T371 34T325 3T275 -9Q251 -9 238 5T224 45Q224 58 229 79T243 125T261 177T280 231Q297 279 310 318T324 375Q324 388 319 392T305 397Q292 397 271 383T225 339T172
262T117 146Q104 114 90 75T63 0H-18Q-16 6 -4 43T26 133T65 250T106 374T143 486Q152 513 159 535H90L96 554H165Q168 560 170 566Q178 592 182 607T187 631Q187 642 186 649T178 662Q173 667 162 669T138 674L142 684H281Q286 684 286 679Q286 675 282 667T273
644Q269 634 266 626T260 608T252 586T243 558L241 554H373L367 535H235L150 270H156Q207 360 254 397T343 435Q372 435 386 417T400 369Q400 341 388 304T354 205Q346 182 338 158T324 113T313 76T309 53Q309 34 322 34Q334 34 348 42T377 63T406 94T431 130L444
123Z" />
<glyph unicode="&#x128;" glyph-name="Itilde" horiz-adv-x="328" d="M402 647Q394 646 383 645T363 641Q347 636 331 626T304 600Q290 576 280 540T257 455L194 192Q183 146 176 115T169 67Q169 47 178 36T204 18Q213 14 225 13T246 10L244 0H-49L-47 10Q-38
11 -27 12T-8 16Q9 21 23 30T49 56Q63 79 75 116T98 202L162 465Q173 511 179 542T186 590Q186 610 177 621T151 639Q142 643 130 644T109 647L112 657H404L402 647ZM435 816Q420 776 395 749T333 722Q316 722 300 727T269 737T239 748T208 753Q191 753 172 743T134
710L126 714Q146 756 175 782T239 808Q255 808 269 804T297 794T324 785T352 780Q376 780 393 788T427 820L435 816Z" />
<glyph unicode="&#x129;" glyph-name="itilde" horiz-adv-x="252" d="M245 123Q231 100 213 77T174 34T128 3T77 -9Q54 -9 41 6T27 46Q27 59 32 80T46 127T64 179T83 231Q100 281 112 318T124 369Q124 395 104 395Q92 395 73 378T21 310L9 317Q42 379 82 406T151
433Q204 433 204 376Q204 353 191 310T159 215Q150 188 141 162T126 113T115 75T111 53Q111 35 125 35Q137 35 151 43T180 64T208 95T233 130L245 123ZM597 625Q582 584 558 559T496 533Q479 533 464 537T433 548T402 558T372 563Q355 563 336 554T298 522L290
526Q310 568 339 593T402 618Q418 618 432 614T460 605T487 595T515 591Q539 591 555 598T589 628L597 625Z" />
<glyph unicode="&#x12a;" glyph-name="Imacron" horiz-adv-x="328" d="M402 647Q394 646 383 645T363 641Q347 636 331 626T304 600Q290 576 280 540T257 455L194 192Q183 146 176 115T169 67Q169 47 178 36T204 18Q213 14 225 13T246 10L244 0H-49L-47 10Q-38
11 -27 12T-8 16Q9 21 23 30T49 56Q63 79 75 116T98 202L162 465Q173 511 179 542T186 590Q186 610 177 621T151 639Q142 643 130 644T109 647L112 657H404L402 647ZM151 726L160 761H410L401 726H151Z" />
<glyph unicode="&#x12b;" glyph-name="imacron" horiz-adv-x="252" d="M77 558L85 593H286L277 558H77ZM245 123Q231 100 213 77T174 34T128 3T77 -9Q54 -9 41 6T27 46Q27 59 32 80T46 127T64 179T83 231Q100 281 112 318T124 369Q124 395 104 395Q92 395 73 378T21
310L9 317Q42 379 82 406T151 433Q204 433 204 376Q204 353 191 310T159 215Q150 188 141 162T126 113T115 75T111 53Q111 35 125 35Q137 35 151 43T180 64T208 95T233 130L245 123Z" />
<glyph unicode="&#x12c;" glyph-name="Ibreve" horiz-adv-x="328" d="M402 647Q394 646 383 645T363 641Q347 636 331 626T304 600Q290 576 280 540T257 455L194 192Q183 146 176 115T169 67Q169 47 178 36T204 18Q213 14 225 13T246 10L244 0H-49L-47 10Q-38
11 -27 12T-8 16Q9 21 23 30T49 56Q63 79 75 116T98 202L162 465Q173 511 179 542T186 590Q186 610 177 621T151 639Q142 643 130 644T109 647L112 657H404L402 647ZM188 838Q191 819 200 806T222 785T253 774T287 770Q326 770 360 785T415 838L425 832Q422 808
411 786T382 747T337 719T278 709Q259 709 241 714T207 731T183 759T174 800Q174 815 177 832L188 838Z" />
<glyph unicode="&#x12d;" glyph-name="ibreve" horiz-adv-x="252" d="M245 123Q231 100 213 77T174 34T128 3T77 -9Q54 -9 41 6T27 46Q27 59 32 80T46 127T64 179T83 231Q100 281 112 318T124 369Q124 395 104 395Q92 395 73 378T21 310L9 317Q42 379 82 406T151
433Q204 433 204 376Q204 353 191 310T159 215Q150 188 141 162T126 113T115 75T111 53Q111 35 125 35Q137 35 151 43T180 64T208 95T233 130L245 123ZM107 673Q115 627 145 611T210 594Q249 594 277 613T332 674L342 668Q339 644 330 620T303 575T262 543T204
530Q181 530 161 536T125 556T102 589T93 635Q93 650 96 667L107 673Z" />
<glyph unicode="&#x12e;" glyph-name="Iogonek" horiz-adv-x="328" d="M402 647Q394 646 383 645T363 641Q347 636 331 626T304 600Q290 576 280 540T257 455L194 192Q183 146 176 115T169 67Q169 47 178 36T204 18Q213 14 225 13T246 10L244 0H143Q112 -26 86
-61T60 -141Q60 -167 75 -182T126 -203L125 -211Q54 -215 23 -193T-9 -138Q-9 -115 4 -96T37 -61T80 -29T124 0H-49L-47 10Q-38 11 -27 12T-8 16Q9 21 23 30T49 56Q63 79 75 116T98 202L162 465Q173 511 179 542T186 590Q186 610 177 621T151 639Q142 643 130 644T109
647L112 657H404L402 647Z" />
<glyph unicode="&#x12f;" glyph-name="iogonek" horiz-adv-x="252" d="M-46 -138Q-46 -116 -33 -98T0 -64T44 -35T89 -8Q86 -9 82 -9H76Q53 -9 40 6T27 46Q27 59 32 80T46 127T64 179T83 231Q100 281 112 318T124 369Q124 395 104 395Q92 395 73 378T21 310L9
317Q42 379 82 406T151 433Q204 433 204 376Q204 353 191 310T159 215Q150 188 141 162T126 113T115 75T111 53Q111 35 125 35Q137 35 151 43T180 64T208 95T233 130L245 123Q226 91 199 60T139 9Q118 -3 97 -18T60 -51T33 -92T23 -141Q23 -167 38 -182T88 -203L87
-211Q52 -213 27 -208T-15 -193T-38 -168T-46 -138ZM199 547Q182 547 166 559T150 595Q150 618 166 631T199 645Q216 645 233 633T250 595Q250 570 233 559T199 547Z" />
<glyph unicode="&#x130;" glyph-name="Idotaccent" horiz-adv-x="328" d="M402 647Q394 646 383 645T363 641Q347 636 331 626T304 600Q290 576 280 540T257 455L194 192Q183 146 176 115T169 67Q169 47 178 36T204 18Q213 14 225 13T246 10L244 0H-49L-47 10Q-38
11 -27 12T-8 16Q9 21 23 30T49 56Q63 79 75 116T98 202L162 465Q173 511 179 542T186 590Q186 610 177 621T151 639Q142 643 130 644T109 647L112 657H404L402 647ZM223 775Q223 799 239 813T275 827Q295 827 312 814T329 775Q329 750 312 737T275 724Q256 724
240 738T223 775Z" />
<glyph unicode="&#x131;" glyph-name="dotlessi" horiz-adv-x="252" d="M245 123Q231 100 213 77T174 34T128 3T77 -9Q54 -9 41 6T27 46Q27 59 32 80T46 127T64 179T83 231Q100 281 112 318T124 369Q124 395 104 395Q92 395 73 378T21 310L9 317Q42 379 82 406T151
433Q204 433 204 376Q204 353 191 310T159 215Q150 188 141 162T126 113T115 75T111 53Q111 35 125 35Q137 35 151 43T180 64T208 95T233 130L245 123Z" />
<glyph unicode="&#x132;" glyph-name="IJ" horiz-adv-x="711" d="M402 647Q394 646 383 645T363 641Q347 636 331 626T304 600Q290 576 280 540T257 455L194 192Q183 146 176 115T169 67Q169 47 178 36T204 18Q213 14 225 13T246 10L244 0H-49L-47 10Q-38 11 -27
12T-8 16Q9 21 23 30T49 56Q63 79 75 116T98 202L162 465Q173 511 179 542T186 590Q186 610 177 621T151 639Q142 643 130 644T109 647L112 657H404L402 647ZM797 647Q789 646 778 645T758 641Q742 636 726 626T700 599Q685 575 675 539T653 455L581 160Q572 126
555 95T512 39T452 1T373 -14Q316 -14 285 17T253 95Q253 125 271 147T320 169Q351 169 365 149T380 108Q380 89 373 78T360 60Q352 51 345 44T337 31Q337 20 348 14T371 7Q389 7 405 13T433 34Q449 52 459 82T478 143L557 464Q568 510 574 541T581 590Q581 610
572 620T546 639Q538 642 526 644T505 647L508 657H799L797 647Z" />
<glyph unicode="&#x133;" glyph-name="ij" horiz-adv-x="461" d="M250 595Q250 570 233 559T199 547Q182 547 166 559T150 595Q150 618 166 631T199 645Q216 645 233 633T250 595ZM124 369Q124 395 104 395Q92 395 73 378T21 310L9 317Q42 379 82 406T151 433Q204
433 204 376Q204 353 191 310T159 215Q150 188 141 162T126 113T115 75T111 53Q111 35 125 35Q137 35 151 43T180 64T208 95T233 130L245 123Q231 100 213 77T174 34T128 3T77 -9Q54 -9 41 6T27 46Q27 59 32 80T46 127T64 179T83 231Q100 281 112 318T124 369ZM501
596Q501 571 485 559T451 547Q434 547 418 560T401 596Q401 619 417 632T451 645Q468 645 484 633T501 596ZM386 148Q362 74 344 24T310 -59T282 -114T254 -152Q228 -181 195 -197T127 -213Q85 -213 60 -191T34 -136Q34 -116 46 -102T78 -88Q101 -88 112 -101T123
-130Q123 -140 122 -146T118 -160Q116 -165 116 -171T115 -180Q115 -185 120 -189T133 -193Q152 -193 166 -185T196 -152Q202 -142 211 -119T232 -66T255 -1T277 66T297 125T311 168Q324 205 334 238T353 298T365 343T370 368Q370 394 350 394Q337 394 318 377T267
309L255 316Q288 378 328 405T397 433Q452 433 452 376Q452 365 445 338T428 277T407 209T386 148Z" />
<glyph unicode="&#x134;" glyph-name="Jcircumflex" horiz-adv-x="404" d="M466 709L384 781L245 708L239 716Q248 724 268 742T309 780T347 816T369 837H414L425 814Q434 797 444 778T463 740T475 714L466 709ZM490 647Q482 646 471 645T451 641Q435 636 419
626T393 599Q378 575 368 539T346 455L273 155Q265 123 248 93T205 39T143 1T63 -14Q35 -14 11 -6T-32 16T-60 51T-70 98Q-70 128 -53 150T-5 172Q26 172 41 152T57 111Q57 92 50 82T37 64Q29 56 23 49T16 35Q16 23 31 15T60 7Q80 7 97 12T128 35Q145 55 155 86T171
143L250 464Q261 510 267 541T274 590Q274 610 265 620T239 639Q231 642 219 644T199 647L201 657H492L490 647Z" />
<glyph unicode="&#x135;" glyph-name="jcircumflex" horiz-adv-x="217" d="M208 376Q208 365 201 338T184 277T163 209T142 148Q118 74 100 24T66 -59T38 -114T10 -152Q-16 -181 -49 -197T-117 -213Q-159 -213 -184 -191T-210 -136Q-210 -116 -198 -102T-166 -88Q-143
-88 -132 -101T-121 -130Q-121 -140 -122 -146T-126 -160Q-128 -165 -128 -171T-129 -180Q-129 -185 -124 -189T-111 -193Q-92 -193 -78 -185T-48 -152Q-42 -142 -33 -119T-12 -66T11 -1T33 66T53 125T67 168Q80 205 90 238T109 298T121 343T126 368Q126 394 106
394Q93 394 74 377T23 309L11 316Q44 378 84 405T153 433Q208 433 208 376ZM562 505L474 601L330 505L324 512Q352 541 373 563T410 605T440 639T467 668H512Q524 639 536 604T572 511L562 505Z" />
<glyph unicode="&#x136;" glyph-name="Kcommaaccent" horiz-adv-x="634" d="M346 -97Q346 -124 336 -146T307 -184T265 -213T212 -234L207 -221Q245 -210 269 -192T294 -154Q294 -146 288 -141Q266 -137 254 -123T242 -91Q242 -68 256 -54T297 -39Q315 -39 330
-54T346 -97ZM501 -14Q450 -14 425 28T396 143Q394 170 394 188T393 221T392 248T391 273Q388 318 369 333T321 348Q295 348 268 331T217 293L193 193Q182 147 176 116T169 67Q169 47 178 37T204 18Q213 15 225 13T245 10L243 0H-49L-47 10Q-38 11 -27 12T-8 16Q9
21 23 31T48 57Q63 80 74 117T98 202L161 464Q173 510 179 541T186 590Q186 610 178 620T153 639Q145 642 131 644T109 647L112 657H405L402 647Q394 646 383 645T363 641Q347 636 331 626T304 600Q290 576 280 540T257 455L224 321L450 506Q487 536 512 560T537
611Q537 623 533 629T517 641Q510 644 500 645L480 647L483 657H720L718 647Q702 645 681 639T639 621Q626 614 610 604T578 582T545 558T514 533L307 365L306 361Q317 366 330 369T359 373Q425 373 457 328T498 183Q502 143 505 114T512 64T525 34T547 24Q558
24 568 30T586 47T600 68T610 90L623 86Q608 43 580 15T501 -14Z" />
<glyph unicode="&#x137;" glyph-name="kcommaaccent" horiz-adv-x="436" d="M181 159Q181 132 171 110T142 72T100 43T47 22L42 35Q80 46 104 64T129 102Q129 110 123 115Q101 119 89 133T77 165Q77 188 91 202T132 217Q150 217 165 202T181 159ZM273 -9Q247 -9
235 8T223 43Q223 66 230 94L243 142Q246 153 247 165T249 187Q249 224 232 234T182 244H144L63 0H-18L169 566Q178 592 182 607T187 631Q187 653 177 662Q172 667 161 669T138 674L142 684H286Q292 684 292 679Q292 675 288 667T279 644Q275 634 272 626T266 608T258
586T249 558L150 262H194Q212 262 227 269T254 287T274 310T288 333Q300 357 311 376T337 410Q361 434 389 434Q413 434 427 417T441 375Q441 352 430 338T403 324Q389 324 378 332T366 359Q366 361 367 367T370 380Q372 385 372 389T373 395Q373 402 364 402Q349
402 335 378T301 319Q288 294 273 278T232 254V250Q259 245 276 235T303 213T318 185T322 154Q322 148 320 134T313 99Q308 79 306 69T304 53Q304 42 309 37T321 32Q341 32 367 57T417 118L429 111Q417 90 400 69T362 30T318 2T273 -9Z" />
<glyph unicode="&#x139;" glyph-name="Lacute" horiz-adv-x="535" d="M450 719Q474 737 492 751T525 776T553 798T581 817Q603 831 612 836T636 842Q653 842 662 832T671 807Q671 788 656 777T615 756Q601 751 587 747T555 737T513 726T454 711L450 719ZM-47 10Q-38
11 -27 13T-8 17Q9 22 23 31T49 57Q63 80 74 117T98 202L162 465Q173 511 179 542T186 590Q186 610 177 621T151 639Q142 643 130 644T110 647L113 657H405L402 647Q394 646 383 645T363 641Q347 636 331 626T304 600Q290 576 280 540T257 455L188 171Q180 138
176 117T171 79Q171 52 185 40Q203 22 247 22H273Q315 22 348 39T404 73Q442 103 473 138T521 203H531L461 0H-49L-47 10Z" />
<glyph unicode="&#x13a;" glyph-name="lacute" horiz-adv-x="251" d="M413 825Q413 805 401 794T361 769Q334 756 301 743T215 705L209 713L245 749Q260 764 272 775T294 797T317 818Q340 840 353 847T380 855Q413 855 413 825ZM148 215Q125 154 110 111T95 54Q95
35 108 35Q121 35 136 43T167 64T198 95T224 130L236 123Q222 100 203 77T161 34T113 3T61 -9Q37 -9 24 7T10 48Q10 62 16 83T31 129T50 181T70 234Q76 250 86 279T108 343T134 414T158 482T177 536T188 566Q196 587 201 605T206 631Q206 642 205 649T197 662Q192
667 181 669T158 674L161 684H305Q311 684 311 679Q311 675 307 667T298 644Q294 634 291 626T285 607T278 586T268 558Q233 458 210 393T173 287Q156 240 148 215Z" />
<glyph unicode="&#x13b;" glyph-name="Lcommaaccent" horiz-adv-x="535" d="M276 -97Q276 -124 266 -146T237 -184T195 -213T142 -234L137 -221Q175 -210 199 -192T224 -154Q224 -146 218 -141Q196 -137 184 -123T172 -91Q172 -68 186 -54T227 -39Q245 -39 260
-54T276 -97ZM-47 10Q-38 11 -27 13T-8 17Q9 22 23 31T49 57Q63 80 74 117T98 202L162 465Q173 511 179 542T186 590Q186 610 177 621T151 639Q142 643 130 644T110 647L113 657H405L402 647Q394 646 383 645T363 641Q347 636 331 626T304 600Q290 576 280 540T257
455L188 171Q180 138 176 117T171 79Q171 52 185 40Q203 22 247 22H273Q315 22 348 39T404 73Q442 103 473 138T521 203H531L461 0H-49L-47 10Z" />
<glyph unicode="&#x13c;" glyph-name="lcommaaccent" horiz-adv-x="251" d="M343 159Q343 132 333 110T304 72T262 43T209 22L204 35Q242 46 266 64T291 102Q291 110 285 115Q263 119 251 133T239 165Q239 188 253 202T294 217Q312 217 327 202T343 159ZM148 215Q125
154 110 111T95 54Q95 35 108 35Q121 35 136 43T167 64T198 95T224 130L236 123Q222 100 203 77T161 34T113 3T61 -9Q37 -9 24 7T10 48Q10 62 16 83T31 129T50 181T70 234Q76 250 86 279T108 343T134 414T158 482T177 536T188 566Q196 587 201 605T206 631Q206
642 205 649T197 662Q192 667 181 669T158 674L161 684H305Q311 684 311 679Q311 675 307 667T298 644Q294 634 291 626T285 607T278 586T268 558Q233 458 210 393T173 287Q156 240 148 215Z" />
<glyph unicode="&#x13d;" glyph-name="Lcaron" horiz-adv-x="535" d="M483 658H544Q524 619 492 572T424 468H413L483 658ZM-47 10Q-38 11 -27 13T-8 17Q9 22 23 31T49 57Q63 80 74 117T98 202L162 465Q173 511 179 542T186 590Q186 610 177 621T151 639Q142 643
130 644T110 647L113 657H405L402 647Q394 646 383 645T363 641Q347 636 331 626T304 600Q290 576 280 540T257 455L188 171Q180 138 176 117T171 79Q171 52 185 40Q203 22 247 22H273Q315 22 348 39T404 73Q442 103 473 138T521 203H531L461 0H-49L-47 10Z" />
<glyph unicode="&#x13e;" glyph-name="lcaron" horiz-adv-x="251" d="M367 684H428Q408 645 376 598T308 494H297L367 684ZM148 215Q125 154 110 111T95 54Q95 35 108 35Q121 35 136 43T167 64T198 95T224 130L236 123Q222 100 203 77T161 34T113 3T61 -9Q37 -9
24 7T10 48Q10 62 16 83T31 129T50 181T70 234Q76 250 86 279T108 343T134 414T158 482T177 536T188 566Q196 587 201 605T206 631Q206 642 205 649T197 662Q192 667 181 669T158 674L161 684H305Q311 684 311 679Q311 675 307 667T298 644Q294 634 291 626T285
607T278 586T268 558Q233 458 210 393T173 287Q156 240 148 215Z" />
<glyph unicode="&#x13f;" glyph-name="Ldot" horiz-adv-x="535" d="M395 349Q395 372 411 386T447 400Q466 400 483 387T500 349Q500 324 483 311T447 298Q428 298 412 312T395 349ZM-47 10Q-38 11 -27 13T-8 17Q9 22 23 31T49 57Q63 80 74 117T98 202L162 465Q173
511 179 542T186 590Q186 610 177 621T151 639Q142 643 130 644T110 647L113 657H405L402 647Q394 646 383 645T363 641Q347 636 331 626T304 600Q290 576 280 540T257 455L188 171Q180 138 176 117T171 79Q171 52 185 40Q203 22 247 22H273Q315 22 348 39T404
73Q442 103 473 138T521 203H531L461 0H-49L-47 10Z" />
<glyph unicode="&#x140;" glyph-name="ldot" horiz-adv-x="251" d="M344 316Q344 292 327 279T291 266Q272 266 256 279T239 316Q239 339 255 353T291 368Q310 368 327 355T344 316ZM148 215Q125 154 110 111T95 54Q95 35 108 35Q121 35 136 43T167 64T198 95T224
130L236 123Q222 100 203 77T161 34T113 3T61 -9Q37 -9 24 7T10 48Q10 62 16 83T31 129T50 181T70 234Q76 250 86 279T108 343T134 414T158 482T177 536T188 566Q196 587 201 605T206 631Q206 642 205 649T197 662Q192 667 181 669T158 674L161 684H305Q311 684
311 679Q311 675 307 667T298 644Q294 634 291 626T285 607T278 586T268 558Q233 458 210 393T173 287Q156 240 148 215Z" />
<glyph unicode="&#x141;" glyph-name="Lslash" horiz-adv-x="535" d="M-47 10Q-38 11 -27 13T-8 17Q9 22 23 31T49 57Q63 80 74 117T98 202L113 264L3 224L9 249L119 290L162 465Q173 511 179 542T186 590Q186 610 177 621T151 639Q142 643 130 644T110 647L113
657H405L402 647Q394 646 383 645T363 641Q347 636 331 626T304 600Q290 576 280 540T257 455L226 329L461 416L455 391L220 304L188 171Q180 138 176 117T171 79Q171 52 185 40Q203 22 247 22H273Q315 22 348 39T404 73Q442 103 473 138T521 203H531L461 0H-49L-47
10Z" />
<glyph unicode="&#x142;" glyph-name="lslash" horiz-adv-x="251" d="M39 315L110 349Q122 381 134 414Q147 451 158 482T177 536T188 566Q196 587 201 605T206 631Q206 642 205 649T197 662Q192 667 181 669T158 674L161 684H305Q311 684 311 679Q311 675 307
667T298 644Q294 634 291 626T285 607T278 586T268 558Q234 462 211 398L295 438L290 416L204 374Q185 321 173 287Q156 240 148 215Q125 154 110 111T95 54Q95 35 108 35Q121 35 136 43T167 64T198 95T224 130L236 123Q222 100 203 77T161 34T113 3T61 -9Q36 -9
23 7T9 48Q9 62 15 83T30 130T50 181T70 234Q76 250 86 279Q93 300 102 325L33 292L39 315Z" />
<glyph unicode="&#x143;" glyph-name="Nacute" horiz-adv-x="647" d="M357 719Q381 737 399 751T432 776T460 798T488 817Q510 831 519 836T543 842Q560 842 569 832T578 807Q578 788 563 777T522 756Q508 751 494 747T462 737T420 726T361 711L357 719ZM713 647Q705
645 698 645T682 641Q668 636 656 629T633 605Q623 594 612 567T587 489L464 -8H443L209 518H204L116 167Q109 140 106 115T103 76Q103 50 113 36T141 16Q149 14 159 13T180 10L178 0H-49L-47 10Q-27 12 -11 16Q17 24 40 53Q51 66 65 93T90 169L166 467Q171 488
174 503T180 529T182 549T183 570Q183 593 169 611T133 639Q125 641 114 643T95 647L97 657H267L479 165H482L560 479Q569 515 572 540T576 579Q576 604 564 618T534 640Q527 643 517 644T495 647L497 657H716L713 647Z" />
<glyph unicode="&#x144;" glyph-name="nacute" horiz-adv-x="482" d="M439 626Q439 606 427 595T387 571Q360 558 328 544T241 507L236 515Q257 536 272 550T298 576T320 598T343 620Q366 642 379 649T406 657Q439 657 439 626ZM470 123Q456 100 438 77T397 34T351
3T301 -9Q277 -9 264 5T250 45Q250 58 255 78T269 124T287 176T306 229Q323 277 336 317T350 374Q350 387 345 391T331 396Q318 396 297 381T251 334T197 253T142 136Q129 104 117 70T93 0H13Q23 33 36 72T62 148T85 218T102 268Q115 307 119 331T124 369Q124 396
104 396Q92 396 71 379T18 311L6 318Q39 379 77 406T145 433Q195 433 195 378Q195 354 189 323T171 250H178Q232 348 278 390T370 433Q398 433 412 415T426 368Q426 340 414 302T380 203Q372 180 364 157T350 112T339 76T335 53Q335 35 348 35Q360 35 374 43T404
64T433 95T458 130L470 123Z" />
<glyph unicode="&#x145;" glyph-name="Ncommaaccent" horiz-adv-x="647" d="M314 -97Q314 -124 304 -146T275 -184T233 -213T180 -234L175 -221Q213 -210 237 -192T262 -154Q262 -146 256 -141Q234 -137 222 -123T210 -91Q210 -68 224 -54T265 -39Q283 -39 298
-54T314 -97ZM713 647Q705 645 698 645T682 641Q668 636 656 629T633 605Q623 594 612 567T587 489L464 -8H443L209 518H204L116 167Q109 140 106 115T103 76Q103 50 113 36T141 16Q149 14 159 13T180 10L178 0H-49L-47 10Q-27 12 -11 16Q17 24 40 53Q51 66 65
93T90 169L166 467Q171 488 174 503T180 529T182 549T183 570Q183 593 169 611T133 639Q125 641 114 643T95 647L97 657H267L479 165H482L560 479Q569 515 572 540T576 579Q576 604 564 618T534 640Q527 643 517 644T495 647L497 657H716L713 647Z" />
<glyph unicode="&#x146;" glyph-name="ncommaaccent" horiz-adv-x="482" d="M215 159Q215 132 205 110T176 72T134 43T81 22L76 35Q114 46 138 64T163 102Q163 110 157 115Q135 119 123 133T111 165Q111 188 125 202T166 217Q184 217 199 202T215 159ZM470 123Q456
100 438 77T397 34T351 3T301 -9Q277 -9 264 5T250 45Q250 58 255 78T269 124T287 176T306 229Q323 277 336 317T350 374Q350 387 345 391T331 396Q318 396 297 381T251 334T197 253T142 136Q129 104 117 70T93 0H13Q23 33 36 72T62 148T85 218T102 268Q115 307
119 331T124 369Q124 396 104 396Q92 396 71 379T18 311L6 318Q39 379 77 406T145 433Q195 433 195 378Q195 354 189 323T171 250H178Q232 348 278 390T370 433Q398 433 412 415T426 368Q426 340 414 302T380 203Q372 180 364 157T350 112T339 76T335 53Q335 35
348 35Q360 35 374 43T404 64T433 95T458 130L470 123Z" />
<glyph unicode="&#x147;" glyph-name="Ncaron" horiz-adv-x="647" d="M355 840L439 768L576 841L582 833Q573 825 553 807T512 769T474 733T452 712H407L395 735Q387 752 377 771T358 809T346 835L355 840ZM713 647Q705 645 698 645T682 641Q668 636 656 629T633
605Q623 594 612 567T587 489L464 -8H443L209 518H204L116 167Q109 140 106 115T103 76Q103 50 113 36T141 16Q149 14 159 13T180 10L178 0H-49L-47 10Q-27 12 -11 16Q17 24 40 53Q51 66 65 93T90 169L166 467Q171 488 174 503T180 529T182 549T183 570Q183 593
169 611T133 639Q125 641 114 643T95 647L97 657H267L479 165H482L560 479Q569 515 572 540T576 579Q576 604 564 618T534 640Q527 643 517 644T495 647L497 657H716L713 647Z" />
<glyph unicode="&#x148;" glyph-name="ncaron" horiz-adv-x="482" d="M220 661L309 565L452 661L459 654Q431 625 410 603T373 561T343 527T316 498H271Q265 513 259 528T247 562T232 603T211 655L220 661ZM470 123Q456 100 438 77T397 34T351 3T301 -9Q277 -9
264 5T250 45Q250 58 255 78T269 124T287 176T306 229Q323 277 336 317T350 374Q350 387 345 391T331 396Q318 396 297 381T251 334T197 253T142 136Q129 104 117 70T93 0H13Q23 33 36 72T62 148T85 218T102 268Q115 307 119 331T124 369Q124 396 104 396Q92 396
71 379T18 311L6 318Q39 379 77 406T145 433Q195 433 195 378Q195 354 189 323T171 250H178Q232 348 278 390T370 433Q398 433 412 415T426 368Q426 340 414 302T380 203Q372 180 364 157T350 112T339 76T335 53Q335 35 348 35Q360 35 374 43T404 64T433 95T458
130L470 123Z" />
<glyph unicode="&#x149;" glyph-name="napostrophe" horiz-adv-x="482" d="M250 494Q259 497 273 503T302 519T327 539T343 562Q344 570 341 575Q317 580 307 596T296 629Q296 652 312 666T353 680Q371 680 388 666T405 625Q405 597 392 574T356 533T307 502T253
481L250 494ZM470 123Q456 100 438 77T397 34T351 3T301 -9Q277 -9 264 5T250 45Q250 58 255 78T269 124T287 176T306 229Q323 277 336 317T350 374Q350 387 345 391T331 396Q318 396 297 381T251 334T197 253T142 136Q129 104 117 70T93 0H13Q23 33 36 72T62 148T85
218T102 268Q115 307 119 331T124 369Q124 396 104 396Q92 396 71 379T18 311L6 318Q39 379 77 406T145 433Q195 433 195 378Q195 354 189 323T171 250H178Q232 348 278 390T370 433Q398 433 412 415T426 368Q426 340 414 302T380 203Q372 180 364 157T350 112T339
76T335 53Q335 35 348 35Q360 35 374 43T404 64T433 95T458 130L470 123Z" />
<glyph unicode="&#x14a;" glyph-name="Eng" horiz-adv-x="647" d="M291 -177Q342 -177 377 -145T433 -35L441 -4L209 518H204L116 167Q109 140 106 115T103 76Q103 50 113 36T141 16Q149 14 159 13T180 10L178 0H-49L-47 10Q-27 12 -11 16Q17 24 40 53Q51 66 65
93T90 169L166 467Q171 488 174 503T180 529T182 549T183 570Q183 593 169 611T133 639Q125 641 114 643T95 647L97 657H267L479 165H482L560 479Q569 515 572 540T576 579Q576 604 564 618T534 640Q527 643 517 644T495 647L497 657H716L713 647Q705 645 698 645T682
641Q668 636 656 629T633 605Q623 594 612 567T587 489L462 -20Q453 -56 441 -88T409 -145T360 -183T289 -198Q235 -198 202 -170T169 -93Q169 -62 187 -45T228 -28Q257 -28 270 -44T283 -82Q283 -100 276 -110T263 -128Q255 -136 251 -143T246 -155Q246 -166 260
-171T291 -177Z" />
<glyph unicode="&#x14b;" glyph-name="eng" horiz-adv-x="449" d="M350 374Q350 387 345 391T331 396Q318 396 297 381T251 334T197 253T142 136Q129 104 117 70T93 0H13Q23 33 36 72T62 148T85 218T102 268Q115 307 119 331T124 369Q124 396 104 396Q92 396 71
379T18 311L6 318Q39 379 77 406T145 433Q195 433 195 378Q195 354 189 323T171 250H178Q232 348 278 390T370 433Q398 433 412 415T426 368Q426 340 414 301T382 201Q332 53 295 -33T229 -152Q203 -181 171 -197T103 -213Q60 -213 35 -191T10 -135Q10 -115 22
-102T54 -88Q77 -88 87 -100T98 -130Q98 -140 97 -146T94 -159Q92 -164 91 -170T90 -179Q90 -185 95 -189T108 -193Q127 -193 142 -185T172 -151Q178 -141 188 -114T212 -51T240 26T267 105T290 174T306 221L322 269Q330 293 336 313T346 350T350 374Z" />
<glyph unicode="&#x14c;" glyph-name="Omacron" horiz-adv-x="620" d="M289 726L298 761H548L539 726H289ZM608 415Q608 372 598 325T568 233T522 147T461 76Q413 34 361 10T251 -14Q207 -14 168 2T98 50T51 129T33 241Q33 284 43 331T73 423T119 510T180 581Q228
623 279 646T388 670Q432 670 472 654T542 606T590 527T608 415ZM510 482Q510 528 500 560T473 611T434 639T387 648Q351 648 320 630T269 592Q249 572 225 531T180 433T145 311T131 174Q131 127 141 96T167 45T206 17T253 8Q289 8 320 26T371 64Q390 83 414 125T460
223T495 345T510 482Z" />
<glyph unicode="&#x14d;" glyph-name="omacron" horiz-adv-x="385" d="M160 558L168 593H398L390 558H160ZM132 -9Q75 -9 44 29T11 135Q9 198 32 261T99 369Q128 399 165 416T241 433Q300 433 331 393T362 284Q362 223 339 162T274 56Q245 26 209 9T132 -9ZM239
417Q211 417 193 400T161 360Q147 337 133 303T108 229T89 151T82 80Q83 45 95 27T133 8Q161 8 179 25T211 65Q225 87 239 121T264 193T283 269T291 340Q293 417 239 417Z" />
<glyph unicode="&#x14e;" glyph-name="Obreve" horiz-adv-x="620" d="M326 838Q329 819 338 806T360 785T391 774T425 770Q464 770 498 785T553 838L563 832Q560 808 549 786T520 747T475 719T416 709Q397 709 379 714T345 731T321 759T312 800Q312 815 315 832L326
838ZM608 415Q608 372 598 325T568 233T522 147T461 76Q413 34 361 10T251 -14Q207 -14 168 2T98 50T51 129T33 241Q33 284 43 331T73 423T119 510T180 581Q228 623 279 646T388 670Q432 670 472 654T542 606T590 527T608 415ZM510 482Q510 528 500 560T473 611T434
639T387 648Q351 648 320 630T269 592Q249 572 225 531T180 433T145 311T131 174Q131 127 141 96T167 45T206 17T253 8Q289 8 320 26T371 64Q390 83 414 125T460 223T495 345T510 482Z" />
<glyph unicode="&#x14f;" glyph-name="obreve" horiz-adv-x="385" d="M132 -9Q75 -9 44 29T11 135Q9 198 32 261T99 369Q128 399 165 416T241 433Q300 433 331 393T362 284Q362 223 339 162T274 56Q245 26 209 9T132 -9ZM239 417Q211 417 193 400T161 360Q147
337 133 303T108 229T89 151T82 80Q83 45 95 27T133 8Q161 8 179 25T211 65Q225 87 239 121T264 193T283 269T291 340Q293 417 239 417ZM170 673Q178 627 208 611T273 594Q312 594 340 613T395 674L405 668Q402 644 393 620T366 575T325 543T267 530Q244 530 224
536T188 556T165 589T156 635Q156 650 159 667L170 673Z" />
<glyph unicode="&#x150;" glyph-name="Ohungarumlaut" horiz-adv-x="620" d="M496 839Q496 819 481 807T445 780Q435 774 426 768T403 755T370 737T322 710H304Q324 734 336 749T358 776T375 796T395 819Q418 844 433 856T464 868Q479 868 487 860T496 839ZM647
838Q647 818 632 806T595 780Q585 774 576 768T553 755T520 737T472 710H454Q474 734 486 749T508 776T526 796T546 819Q569 844 584 856T615 868Q630 868 638 860T647 838ZM608 415Q608 372 598 325T568 233T522 147T461 76Q413 34 361 10T251 -14Q207 -14 168
2T98 50T51 129T33 241Q33 284 43 331T73 423T119 510T180 581Q228 623 279 646T388 670Q432 670 472 654T542 606T590 527T608 415ZM510 482Q510 528 500 560T473 611T434 639T387 648Q351 648 320 630T269 592Q249 572 225 531T180 433T145 311T131 174Q131 127
141 96T167 45T206 17T253 8Q289 8 320 26T371 64Q390 83 414 125T460 223T495 345T510 482Z" />
<glyph unicode="&#x151;" glyph-name="ohungarumlaut" horiz-adv-x="385" d="M303 668Q318 668 326 659T334 636Q334 619 325 609T299 584Q288 575 277 566T250 545T213 518T163 483L155 490Q190 541 210 571T249 627Q266 650 276 659T303 668ZM457 668Q472 668
480 659T488 636Q488 619 479 609T453 584Q442 575 431 566T404 545T367 518T317 483L309 490Q344 541 364 571T403 627Q420 650 430 659T457 668ZM132 -9Q75 -9 44 29T11 135Q9 198 32 261T99 369Q128 399 165 416T241 433Q300 433 331 393T362 284Q362 223 339
162T274 56Q245 26 209 9T132 -9ZM239 417Q211 417 193 400T161 360Q147 337 133 303T108 229T89 151T82 80Q83 45 95 27T133 8Q161 8 179 25T211 65Q225 87 239 121T264 193T283 269T291 340Q293 417 239 417Z" />
<glyph unicode="&#x152;" glyph-name="OE" horiz-adv-x="888" d="M414 0Q401 0 381 0T337 -2T290 -3T247 -4Q203 -4 164 10T96 55T50 131T33 242Q33 320 58 394T131 527T245 622T395 659Q415 659 440 659T492 658T541 658T578 657H873L876 463H866Q859 501 846
535T816 593Q806 607 785 621T723 635H699Q685 635 671 632T646 621Q633 613 620 596T595 532L551 352H580Q623 352 645 357T686 376Q709 395 726 422T751 474H761L694 206H684Q687 230 685 257T670 301Q661 313 642 321T579 330H546L506 170Q498 138 494 117T489
79Q489 46 508 34T564 22H590Q632 22 665 38T721 72Q760 103 791 141T839 209H849L779 0H414ZM399 637Q368 637 345 629T301 606Q265 581 237 539T188 447T155 343T137 240T133 150T144 88Q159 47 188 33T249 18Q281 18 307 27T351 60Q364 77 381 118T415 213T447
327T472 442T484 538T477 599Q465 622 448 629T399 637Z" />
<glyph unicode="&#x153;" glyph-name="oe" horiz-adv-x="584" d="M581 366Q581 346 569 327T539 292Q524 280 502 267T455 240T402 216T349 196Q337 142 337 91Q337 56 351 38T389 19Q416 19 438 29T479 54T510 88T533 123L545 116Q532 91 514 69T474 29T424 1T366
-9Q330 -9 305 13T273 67H270Q244 35 207 13T131 -9Q73 -9 43 29T11 135Q9 198 32 261T99 369Q128 399 164 416T240 434Q284 434 306 408T339 338H344Q356 356 373 373T411 403T453 425T495 434Q544 434 562 416T581 366ZM514 377Q514 394 508 405T488 416Q469
416 449 400T411 356T378 291T353 213Q364 217 382 225T418 244T453 265T479 287Q497 307 505 332T514 377ZM288 340Q290 418 238 418Q211 418 193 401T161 361Q147 338 133 304T108 230T89 152T82 80Q83 45 94 27T132 8Q159 8 176 25T208 65Q222 87 236 121T261
193T280 269T288 340Z" />
<glyph unicode="&#x154;" glyph-name="Racute" horiz-adv-x="624" d="M309 719Q333 737 351 751T384 776T412 798T440 817Q462 831 471 836T495 842Q512 842 521 832T530 807Q530 788 515 777T474 756Q460 751 446 747T414 737T372 726T313 711L309 719ZM490 -14Q439
-14 413 20T384 134Q383 185 382 222T363 285Q356 294 349 301T332 313T308 320T271 323H221L188 192Q165 100 165 68Q165 48 174 37T200 18Q209 15 221 13T241 10L239 0H-49L-47 10Q-38 11 -29 12T-12 16Q4 21 18 31T44 57Q59 80 70 117T93 202L159 470Q170 516
176 545T183 591Q183 611 174 621T147 639Q139 643 127 645T106 648L108 657H387Q488 657 533 623T579 530Q579 474 542 431T448 359Q432 351 412 345T359 333V329Q372 327 381 325T397 319T411 311T426 301Q449 286 465 253T486 172Q490 132 493 104T500 58T512
32T533 24Q543 24 553 30T573 47T588 68T599 90L613 85Q596 43 566 15T490 -14ZM477 542Q477 587 455 611T390 635H356Q339 635 326 631T302 616Q294 606 288 589T275 546L226 346H282Q340 346 372 355T425 386Q437 398 446 416T462 457T473 501T477 542Z" />
<glyph unicode="&#x155;" glyph-name="racute" horiz-adv-x="363" d="M387 626Q387 606 375 595T335 571Q308 558 276 544T189 507L184 515Q205 536 220 550T246 576T268 598T291 620Q314 642 327 649T354 657Q387 657 387 626ZM177 252Q198 307 217 342T255 397T291
425T328 433Q354 433 371 418T389 375Q389 350 377 339T350 327Q336 327 325 336T307 371Q304 383 302 389T291 395Q278 395 264 380T232 334T194 253T145 136Q132 104 120 70T95 0H16Q26 33 39 72T65 148T88 218T105 268Q118 307 121 330T124 368Q124 394 104
394Q92 394 71 377T17 309L6 316Q39 378 77 405T144 433Q170 433 180 419T191 377Q191 353 186 323T170 252H177Z" />
<glyph unicode="&#x156;" glyph-name="Rcommaaccent" horiz-adv-x="624" d="M329 -97Q329 -124 319 -146T290 -184T248 -213T195 -234L190 -221Q228 -210 252 -192T277 -154Q277 -146 271 -141Q249 -137 237 -123T225 -91Q225 -68 239 -54T280 -39Q298 -39 313
-54T329 -97ZM490 -14Q439 -14 413 20T384 134Q383 185 382 222T363 285Q356 294 349 301T332 313T308 320T271 323H221L188 192Q165 100 165 68Q165 48 174 37T200 18Q209 15 221 13T241 10L239 0H-49L-47 10Q-38 11 -29 12T-12 16Q4 21 18 31T44 57Q59 80 70
117T93 202L159 470Q170 516 176 545T183 591Q183 611 174 621T147 639Q139 643 127 645T106 648L108 657H387Q488 657 533 623T579 530Q579 474 542 431T448 359Q432 351 412 345T359 333V329Q372 327 381 325T397 319T411 311T426 301Q449 286 465 253T486 172Q490
132 493 104T500 58T512 32T533 24Q543 24 553 30T573 47T588 68T599 90L613 85Q596 43 566 15T490 -14ZM477 542Q477 587 455 611T390 635H356Q339 635 326 631T302 616Q294 606 288 589T275 546L226 346H282Q340 346 372 355T425 386Q437 398 446 416T462 457T473
501T477 542Z" />
<glyph unicode="&#x157;" glyph-name="rcommaaccent" horiz-adv-x="363" d="M348 159Q348 132 338 110T309 72T267 43T214 22L209 35Q247 46 271 64T296 102Q296 110 290 115Q268 119 256 133T244 165Q244 188 258 202T299 217Q317 217 332 202T348 159ZM177 252Q198
307 217 342T255 397T291 425T328 433Q354 433 371 418T389 375Q389 350 377 339T350 327Q336 327 325 336T307 371Q304 383 302 389T291 395Q278 395 264 380T232 334T194 253T145 136Q132 104 120 70T95 0H16Q26 33 39 72T65 148T88 218T105 268Q118 307 121
330T124 368Q124 394 104 394Q92 394 71 377T17 309L6 316Q39 378 77 405T144 433Q170 433 180 419T191 377Q191 353 186 323T170 252H177Z" />
<glyph unicode="&#x158;" glyph-name="Rcaron" horiz-adv-x="624" d="M309 840L393 768L530 841L536 833Q527 825 507 807T466 769T428 733T406 712H361L349 735Q341 752 331 771T312 809T300 835L309 840ZM490 -14Q439 -14 413 20T384 134Q383 185 382 222T363
285Q356 294 349 301T332 313T308 320T271 323H221L188 192Q165 100 165 68Q165 48 174 37T200 18Q209 15 221 13T241 10L239 0H-49L-47 10Q-38 11 -29 12T-12 16Q4 21 18 31T44 57Q59 80 70 117T93 202L159 470Q170 516 176 545T183 591Q183 611 174 621T147 639Q139
643 127 645T106 648L108 657H387Q488 657 533 623T579 530Q579 474 542 431T448 359Q432 351 412 345T359 333V329Q372 327 381 325T397 319T411 311T426 301Q449 286 465 253T486 172Q490 132 493 104T500 58T512 32T533 24Q543 24 553 30T573 47T588 68T599
90L613 85Q596 43 566 15T490 -14ZM477 542Q477 587 455 611T390 635H356Q339 635 326 631T302 616Q294 606 288 589T275 546L226 346H282Q340 346 372 355T425 386Q437 398 446 416T462 457T473 501T477 542Z" />
<glyph unicode="&#x159;" glyph-name="rcaron" horiz-adv-x="363" d="M175 661L264 565L407 661L414 654Q386 625 365 603T328 561T298 527T271 498H226Q220 513 214 528T202 562T187 603T166 655L175 661ZM177 252Q198 307 217 342T255 397T291 425T328 433Q354
433 371 418T389 375Q389 350 377 339T350 327Q336 327 325 336T307 371Q304 383 302 389T291 395Q278 395 264 380T232 334T194 253T145 136Q132 104 120 70T95 0H16Q26 33 39 72T65 148T88 218T105 268Q118 307 121 330T124 368Q124 394 104 394Q92 394 71 377T17
309L6 316Q39 378 77 405T144 433Q170 433 180 419T191 377Q191 353 186 323T170 252H177Z" />
<glyph unicode="&#x15a;" glyph-name="Sacute" horiz-adv-x="500" d="M466 456H454Q454 475 451 496T443 536T432 572T420 599Q408 620 387 634T323 649Q271 649 240 621T208 541Q208 514 217 493T239 455T269 423T299 395Q329 367 354 344T397 298T426 248T437
185Q437 137 417 100T365 38T293 -1T214 -14Q160 -14 120 8T60 57H55L5 4H-4L48 235H61Q67 125 102 67T217 8Q250 8 275 19T317 48T342 89T351 137Q351 162 343 182T320 222T284 262T238 305Q217 324 197 342T162 383T137 431T127 494Q127 526 139 558T177 615T238
655T323 671Q369 671 404 654T456 613H458L494 657H505L466 456ZM274 719Q298 737 316 751T349 776T377 798T405 817Q427 831 436 836T460 842Q477 842 486 832T495 807Q495 788 480 777T439 756Q425 751 411 747T379 737T337 726T278 711L274 719Z" />
<glyph unicode="&#x15b;" glyph-name="sacute" horiz-adv-x="307" d="M622 626Q622 606 610 595T570 571Q543 558 511 544T424 507L419 515Q440 536 455 550T481 576T503 598T526 620Q549 642 562 649T589 657Q622 657 622 626ZM306 356Q306 338 297 326T270 314Q256
314 247 322T235 345Q233 359 237 367T239 387Q237 399 227 408T199 417Q165 417 153 397T140 350Q140 325 153 303T189 246Q222 196 238 169T255 116Q255 85 242 62T207 23T160 -1T109 -9Q59 -9 26 17T-8 87Q-8 111 3 126T35 142Q51 142 61 133T71 106Q71 95 68
88T62 75T55 63T52 50Q52 27 70 17T109 7Q143 7 163 28T183 83Q183 96 179 107T167 131T147 159T120 197Q107 216 99 231T85 259T77 287T74 318Q74 343 84 364T111 400T152 424T203 433Q223 433 241 428T274 413T297 389T306 356Z" />
<glyph unicode="&#x15c;" glyph-name="Scircumflex" horiz-adv-x="500" d="M456 709L374 781L235 708L229 716Q238 724 258 742T299 780T337 816T359 837H404L415 814Q424 797 434 778T453 740T465 714L456 709ZM466 456H454Q454 475 451 496T443 536T432 572T420
599Q408 620 387 634T323 649Q271 649 240 621T208 541Q208 514 217 493T239 455T269 423T299 395Q329 367 354 344T397 298T426 248T437 185Q437 137 417 100T365 38T293 -1T214 -14Q160 -14 120 8T60 57H55L5 4H-4L48 235H61Q67 125 102 67T217 8Q250 8 275 19T317
48T342 89T351 137Q351 162 343 182T320 222T284 262T238 305Q217 324 197 342T162 383T137 431T127 494Q127 526 139 558T177 615T238 655T323 671Q369 671 404 654T456 613H458L494 657H505L466 456Z" />
<glyph unicode="&#x15d;" glyph-name="scircumflex" horiz-adv-x="307" d="M335 505L247 601L103 505L97 512Q125 541 146 563T183 605T213 639T240 668H285Q297 639 309 604T345 511L335 505ZM306 356Q306 338 297 326T270 314Q256 314 247 322T235 345Q233 359
237 367T239 387Q237 399 227 408T199 417Q165 417 153 397T140 350Q140 325 153 303T189 246Q222 196 238 169T255 116Q255 85 242 62T207 23T160 -1T109 -9Q59 -9 26 17T-8 87Q-8 111 3 126T35 142Q51 142 61 133T71 106Q71 95 68 88T62 75T55 63T52 50Q52 27
70 17T109 7Q143 7 163 28T183 83Q183 96 179 107T167 131T147 159T120 197Q107 216 99 231T85 259T77 287T74 318Q74 343 84 364T111 400T152 424T203 433Q223 433 241 428T274 413T297 389T306 356Z" />
<glyph unicode="&#x15e;" glyph-name="Scedilla" horiz-adv-x="500" d="M466 456H454Q454 475 451 496T443 536T432 572T420 599Q408 620 387 634T323 649Q271 649 240 621T208 541Q208 514 217 493T239 455T269 423T299 395Q329 367 354 344T397 298T426 248T437
185Q437 137 417 100T365 38T293 -1T214 -14Q160 -14 120 8T60 57H55L5 4H-4L48 235H61Q67 125 102 67T217 8Q250 8 275 19T317 48T342 89T351 137Q351 162 343 182T320 222T284 262T238 305Q217 324 197 342T162 383T137 431T127 494Q127 526 139 558T177 615T238
655T323 671Q369 671 404 654T456 613H458L494 657H505L466 456ZM253 -95Q253 -117 242 -132T212 -158T172 -172T128 -177Q107 -177 87 -170T55 -155L64 -144Q74 -150 89 -154T121 -158Q156 -158 179 -145T203 -96Q203 -75 193 -66T167 -57Q149 -57 136 -69L121
-62L154 1H175L150 -48Q167 -37 190 -37Q225 -37 239 -54T253 -95Z" />
<glyph unicode="&#x15f;" glyph-name="scedilla" horiz-adv-x="307" d="M306 356Q306 338 297 326T270 314Q256 314 247 322T235 345Q233 359 237 367T239 387Q237 399 227 408T199 417Q165 417 153 397T140 350Q140 325 153 303T189 246Q222 196 238 169T255
116Q255 85 242 62T207 23T160 -1T109 -9Q59 -9 26 17T-8 87Q-8 111 3 126T35 142Q51 142 61 133T71 106Q71 95 68 88T62 75T55 63T52 50Q52 27 70 17T109 7Q143 7 163 28T183 83Q183 96 179 107T167 131T147 159T120 197Q107 216 99 231T85 259T77 287T74 318Q74
343 84 364T111 400T152 424T203 433Q223 433 241 428T274 413T297 389T306 356ZM428 -95Q428 -117 417 -132T387 -158T347 -172T303 -177Q282 -177 262 -170T230 -155L239 -144Q249 -150 264 -154T296 -158Q331 -158 354 -145T378 -96Q378 -75 368 -66T342 -57Q324
-57 311 -69L296 -62L329 1H350L325 -48Q342 -37 365 -37Q400 -37 414 -54T428 -95Z" />
<glyph unicode="&#x160;" glyph-name="Scaron" horiz-adv-x="500" d="M274 840L358 768L495 841L501 833Q492 825 472 807T431 769T393 733T371 712H326L314 735Q306 752 296 771T277 809T265 835L274 840ZM466 456H454Q454 475 451 496T443 536T432 572T420 599Q408
620 387 634T323 649Q271 649 240 621T208 541Q208 514 217 493T239 455T269 423T299 395Q329 367 354 344T397 298T426 248T437 185Q437 137 417 100T365 38T293 -1T214 -14Q160 -14 120 8T60 57H55L5 4H-4L48 235H61Q67 125 102 67T217 8Q250 8 275 19T317 48T342
89T351 137Q351 162 343 182T320 222T284 262T238 305Q217 324 197 342T162 383T137 431T127 494Q127 526 139 558T177 615T238 655T323 671Q369 671 404 654T456 613H458L494 657H505L466 456Z" />
<glyph unicode="&#x161;" glyph-name="scaron" horiz-adv-x="307" d="M154 661L243 565L386 661L393 654Q365 625 344 603T307 561T277 527T250 498H205Q199 513 193 528T181 562T166 603T145 655L154 661ZM306 356Q306 338 297 326T270 314Q256 314 247 322T235
345Q233 359 237 367T239 387Q237 399 227 408T199 417Q165 417 153 397T140 350Q140 325 153 303T189 246Q222 196 238 169T255 116Q255 85 242 62T207 23T160 -1T109 -9Q59 -9 26 17T-8 87Q-8 111 3 126T35 142Q51 142 61 133T71 106Q71 95 68 88T62 75T55 63T52
50Q52 27 70 17T109 7Q143 7 163 28T183 83Q183 96 179 107T167 131T147 159T120 197Q107 216 99 231T85 259T77 287T74 318Q74 343 84 364T111 400T152 424T203 433Q223 433 241 428T274 413T297 389T306 356Z" />
<glyph unicode="&#x162;" glyph-name="Tcommaaccent" horiz-adv-x="573" d="M243 159Q243 132 233 110T204 72T162 43T109 22L104 35Q142 46 166 64T191 102Q191 110 185 115Q163 119 151 133T139 165Q139 188 153 202T194 217Q212 217 227 202T243 159ZM614 471H602Q598
500 591 532T557 593Q536 616 507 625T440 635H413L304 193Q281 99 281 67Q281 47 290 36T316 18Q324 14 336 12L356 10L353 0H63L65 10Q73 11 84 12T104 16Q120 21 134 30T159 56Q174 79 185 116T209 202L316 635H284Q250 635 218 625T159 593Q127 567 100 533T51
471H40L102 657H639L614 471Z" />
<glyph unicode="&#x163;" glyph-name="tcommaaccent" horiz-adv-x="255" d="M341 159Q341 132 331 110T302 72T260 43T207 22L202 35Q240 46 264 64T289 102Q289 110 283 115Q261 119 249 133T237 165Q237 188 251 202T292 217Q310 217 325 202T341 159ZM93 54Q93
36 106 36Q118 36 133 44T163 65T192 96T218 131L230 124Q216 101 198 78T157 35T111 3T60 -9Q37 -9 24 6T10 45Q10 58 15 79T29 126T46 178T64 231L80 279Q88 302 98 333T120 402H62L66 424H126Q129 435 135 454T148 494T161 536T172 573H252Q247 558 241 537T228
495T215 454T206 424H303L298 402H200Q174 319 157 267Q147 238 139 215Q131 189 123 163T108 115T97 77T93 54Z" />
<glyph unicode="&#x164;" glyph-name="Tcaron" horiz-adv-x="573" d="M306 840L390 768L527 841L533 833Q524 825 504 807T463 769T425 733T403 712H358L346 735Q338 752 328 771T309 809T297 835L306 840ZM614 471H602Q598 500 591 532T557 593Q536 616 507 625T440
635H413L304 193Q281 99 281 67Q281 47 290 36T316 18Q324 14 336 12L356 10L353 0H63L65 10Q73 11 84 12T104 16Q120 21 134 30T159 56Q174 79 185 116T209 202L316 635H284Q250 635 218 625T159 593Q127 567 100 533T51 471H40L102 657H639L614 471Z" />
<glyph unicode="&#x165;" glyph-name="tcaron" horiz-adv-x="255" d="M358 684H419Q399 645 367 598T299 494H288L358 684ZM93 54Q93 36 106 36Q118 36 133 44T163 65T192 96T218 131L230 124Q216 101 198 78T157 35T111 3T60 -9Q37 -9 24 6T10 45Q10 58 15 79T29
126T46 178T64 231L80 279Q88 302 98 333T120 402H62L66 424H126Q129 435 135 454T148 494T161 536T172 573H252Q247 558 241 537T228 495T215 454T206 424H303L298 402H200Q174 319 157 267Q147 238 139 215Q131 189 123 163T108 115T97 77T93 54Z" />
<glyph unicode="&#x166;" glyph-name="Tbar" horiz-adv-x="573" d="M614 471H602Q598 500 591 532T557 593Q536 616 507 625T440 635H413L358 415H498L492 390H352L304 193Q281 99 281 67Q281 47 290 36T316 18Q324 14 336 12L356 10L353 0H63L65 10Q73 11 84
12T104 16Q120 21 134 30T159 56Q174 79 185 116T209 202L255 390H117L123 415H261L316 635H284Q250 635 218 625T159 593Q127 567 100 533T51 471H40L102 657H639L614 471Z" />
<glyph unicode="&#x167;" glyph-name="tbar" horiz-adv-x="255" d="M200 402Q194 385 187 361T175 325H281L276 306H169Q163 286 157 269L148 241Q143 227 139 215Q131 189 123 163T108 115T97 77T93 54Q93 36 106 36Q118 36 133 44T163 65T192 96T218 131L230
124Q216 101 198 78T157 35T111 3T60 -9Q37 -9 24 6T10 45Q10 58 15 79T29 126T46 178T64 231Q68 241 72 253Q76 264 80 277T89 306H37L42 325H95Q100 337 107 360T120 402H62L66 424H126L172 573H252L206 424H303L298 402H200Z" />
<glyph unicode="&#x168;" glyph-name="Utilde" horiz-adv-x="647" d="M727 647Q719 645 711 645T695 641Q682 636 670 628T646 605Q637 593 625 562T600 480L533 214Q519 157 498 115T446 44T373 1T275 -14Q182 -14 125 30T67 165Q67 174 68 187T72 216T78 249T85
281L130 464Q153 558 153 590Q153 610 144 620T118 639Q110 642 98 644T78 647L81 657H367L364 647Q345 645 331 641Q315 636 299 626T272 600Q257 576 247 540T225 455L168 217Q157 171 157 123Q157 70 189 41T282 11Q337 11 374 25T437 67T479 131T506 215L572
478Q581 515 584 540T588 579Q588 603 576 618T546 640Q538 642 528 644T507 647L509 657H729L727 647ZM610 816Q595 776 570 749T508 722Q491 722 475 727T444 737T414 748T383 753Q366 753 347 743T309 710L301 714Q321 756 350 782T414 808Q430 808 444 804T472
794T499 785T527 780Q551 780 568 788T602 820L610 816Z" />
<glyph unicode="&#x169;" glyph-name="utilde" horiz-adv-x="485" d="M334 60Q334 47 340 40T355 33Q369 33 384 41T414 63T443 94T468 130L480 123Q466 100 448 77T408 34T362 3T312 -9Q285 -9 273 9T260 53Q260 77 265 103T281 168H274Q248 118 222 85T172 30T126
0T84 -9Q58 -9 43 9T28 56Q28 84 40 121T74 220Q82 243 90 267T106 312T118 350T123 374Q123 394 108 394Q96 394 75 377T21 310L9 317Q43 379 83 406T153 433Q176 433 189 421T203 380Q203 367 198 346T185 301T168 249T149 196Q132 148 119 109T105 53Q105 28
125 28Q138 28 158 43T204 91T257 172T312 290Q325 322 337 355T362 424H441Q430 391 418 352T392 276T368 207L352 158Q339 119 337 97T334 60ZM429 625Q414 584 390 559T328 533Q311 533 296 537T265 548T234 558T204 563Q187 563 168 554T130 522L122 526Q142
568 171 593T234 618Q250 618 264 614T292 605T319 595T347 591Q371 591 387 598T421 628L429 625Z" />
<glyph unicode="&#x16a;" glyph-name="Umacron" horiz-adv-x="647" d="M727 647Q719 645 711 645T695 641Q682 636 670 628T646 605Q637 593 625 562T600 480L533 214Q519 157 498 115T446 44T373 1T275 -14Q182 -14 125 30T67 165Q67 174 68 187T72 216T78 249T85
281L130 464Q153 558 153 590Q153 610 144 620T118 639Q110 642 98 644T78 647L81 657H367L364 647Q345 645 331 641Q315 636 299 626T272 600Q257 576 247 540T225 455L168 217Q157 171 157 123Q157 70 189 41T282 11Q337 11 374 25T437 67T479 131T506 215L572
478Q581 515 584 540T588 579Q588 603 576 618T546 640Q538 642 528 644T507 647L509 657H729L727 647ZM324 726L333 761H583L574 726H324Z" />
<glyph unicode="&#x16b;" glyph-name="umacron" horiz-adv-x="485" d="M334 60Q334 47 340 40T355 33Q369 33 384 41T414 63T443 94T468 130L480 123Q466 100 448 77T408 34T362 3T312 -9Q285 -9 273 9T260 53Q260 77 265 103T281 168H274Q248 118 222 85T172
30T126 0T84 -9Q58 -9 43 9T28 56Q28 84 40 121T74 220Q82 243 90 267T106 312T118 350T123 374Q123 394 108 394Q96 394 75 377T21 310L9 317Q43 379 83 406T153 433Q176 433 189 421T203 380Q203 367 198 346T185 301T168 249T149 196Q132 148 119 109T105 53Q105
28 125 28Q138 28 158 43T204 91T257 172T312 290Q325 322 337 355T362 424H441Q430 391 418 352T392 276T368 207L352 158Q339 119 337 97T334 60ZM187 558L195 593H425L417 558H187Z" />
<glyph unicode="&#x16c;" glyph-name="Ubreve" horiz-adv-x="647" d="M727 647Q719 645 711 645T695 641Q682 636 670 628T646 605Q637 593 625 562T600 480L533 214Q519 157 498 115T446 44T373 1T275 -14Q182 -14 125 30T67 165Q67 174 68 187T72 216T78 249T85
281L130 464Q153 558 153 590Q153 610 144 620T118 639Q110 642 98 644T78 647L81 657H367L364 647Q345 645 331 641Q315 636 299 626T272 600Q257 576 247 540T225 455L168 217Q157 171 157 123Q157 70 189 41T282 11Q337 11 374 25T437 67T479 131T506 215L572
478Q581 515 584 540T588 579Q588 603 576 618T546 640Q538 642 528 644T507 647L509 657H729L727 647ZM362 838Q365 819 374 806T396 785T427 774T461 770Q500 770 534 785T589 838L599 832Q596 808 585 786T556 747T511 719T452 709Q433 709 415 714T381 731T357
759T348 800Q348 815 351 832L362 838Z" />
<glyph unicode="&#x16d;" glyph-name="ubreve" horiz-adv-x="485" d="M334 60Q334 47 340 40T355 33Q369 33 384 41T414 63T443 94T468 130L480 123Q466 100 448 77T408 34T362 3T312 -9Q285 -9 273 9T260 53Q260 77 265 103T281 168H274Q248 118 222 85T172 30T126
0T84 -9Q58 -9 43 9T28 56Q28 84 40 121T74 220Q82 243 90 267T106 312T118 350T123 374Q123 394 108 394Q96 394 75 377T21 310L9 317Q43 379 83 406T153 433Q176 433 189 421T203 380Q203 367 198 346T185 301T168 249T149 196Q132 148 119 109T105 53Q105 28
125 28Q138 28 158 43T204 91T257 172T312 290Q325 322 337 355T362 424H441Q430 391 418 352T392 276T368 207L352 158Q339 119 337 97T334 60ZM198 673Q206 627 236 611T301 594Q340 594 368 613T423 674L433 668Q430 644 421 620T394 575T353 543T295 530Q272
530 252 536T216 556T193 589T184 635Q184 650 187 667L198 673Z" />
<glyph unicode="&#x16e;" glyph-name="Uring" horiz-adv-x="647" d="M727 647Q719 645 711 645T695 641Q682 636 670 628T646 605Q637 593 625 562T600 480L533 214Q519 157 498 115T446 44T373 1T275 -14Q182 -14 125 30T67 165Q67 174 68 187T72 216T78 249T85
281L130 464Q153 558 153 590Q153 610 144 620T118 639Q110 642 98 644T78 647L81 657H367L364 647Q345 645 331 641Q315 636 299 626T272 600Q257 576 247 540T225 455L168 217Q157 171 157 123Q157 70 189 41T282 11Q337 11 374 25T437 67T479 131T506 215L572
478Q581 515 584 540T588 579Q588 603 576 618T546 640Q538 642 528 644T507 647L509 657H729L727 647ZM524 753Q524 714 501 694T447 673Q433 673 420 678T395 693T377 718T370 753Q370 792 394 812T447 833Q460 833 474 828T499 813T517 788T524 753ZM502 753Q502
784 486 799T447 815Q425 815 408 800T391 753Q391 722 407 707T447 691Q469 691 485 706T502 753Z" />
<glyph unicode="&#x16f;" glyph-name="uring" horiz-adv-x="485" d="M371 591Q371 552 348 532T294 511Q280 511 267 516T242 531T224 556T217 591Q217 630 241 650T294 671Q307 671 321 666T346 651T364 626T371 591ZM350 591Q350 622 334 637T294 653Q272 653
255 638T238 591Q238 560 254 545T294 529Q317 529 333 544T350 591ZM334 60Q334 47 340 40T355 33Q369 33 384 41T414 63T443 94T468 130L480 123Q466 100 448 77T408 34T362 3T312 -9Q285 -9 273 9T260 53Q260 77 265 103T281 168H274Q248 118 222 85T172 30T126
0T84 -9Q58 -9 43 9T28 56Q28 84 40 121T74 220Q82 243 90 267T106 312T118 350T123 374Q123 394 108 394Q96 394 75 377T21 310L9 317Q43 379 83 406T153 433Q176 433 189 421T203 380Q203 367 198 346T185 301T168 249T149 196Q132 148 119 109T105 53Q105 28
125 28Q138 28 158 43T204 91T257 172T312 290Q325 322 337 355T362 424H441Q430 391 418 352T392 276T368 207L352 158Q339 119 337 97T334 60Z" />
<glyph unicode="&#x170;" glyph-name="Uhungarumlaut" horiz-adv-x="647" d="M532 839Q532 819 517 807T481 780Q471 774 462 768T439 755T406 737T358 710H340Q360 734 372 749T394 776T411 796T431 819Q454 844 469 856T500 868Q515 868 523 860T532 839ZM683
838Q683 818 668 806T631 780Q621 774 612 768T589 755T556 737T508 710H490Q510 734 522 749T544 776T562 796T582 819Q605 844 620 856T651 868Q666 868 674 860T683 838ZM727 647Q719 645 711 645T695 641Q682 636 670 628T646 605Q637 593 625 562T600 480L533
214Q519 157 498 115T446 44T373 1T275 -14Q182 -14 125 30T67 165Q67 174 68 187T72 216T78 249T85 281L130 464Q153 558 153 590Q153 610 144 620T118 639Q110 642 98 644T78 647L81 657H367L364 647Q345 645 331 641Q315 636 299 626T272 600Q257 576 247 540T225
455L168 217Q157 171 157 123Q157 70 189 41T282 11Q337 11 374 25T437 67T479 131T506 215L572 478Q581 515 584 540T588 579Q588 603 576 618T546 640Q538 642 528 644T507 647L509 657H729L727 647Z" />
<glyph unicode="&#x171;" glyph-name="uhungarumlaut" horiz-adv-x="485" d="M334 60Q334 47 340 40T355 33Q369 33 384 41T414 63T443 94T468 130L480 123Q466 100 448 77T408 34T362 3T312 -9Q285 -9 273 9T260 53Q260 77 265 103T281 168H274Q248 118 222 85T172
30T126 0T84 -9Q58 -9 43 9T28 56Q28 84 40 121T74 220Q82 243 90 267T106 312T118 350T123 374Q123 394 108 394Q96 394 75 377T21 310L9 317Q43 379 83 406T153 433Q176 433 189 421T203 380Q203 367 198 346T185 301T168 249T149 196Q132 148 119 109T105 53Q105
28 125 28Q138 28 158 43T204 91T257 172T312 290Q325 322 337 355T362 424H441Q430 391 418 352T392 276T368 207L352 158Q339 119 337 97T334 60ZM331 668Q346 668 354 659T362 636Q362 619 353 609T327 584Q316 575 305 566T278 545T241 518T191 483L183 490Q218
541 238 571T277 627Q294 650 304 659T331 668ZM485 668Q500 668 508 659T516 636Q516 619 507 609T481 584Q470 575 459 566T432 545T395 518T345 483L337 490Q372 541 392 571T431 627Q448 650 458 659T485 668Z" />
<glyph unicode="&#x172;" glyph-name="Uogonek" horiz-adv-x="647" d="M306 -211Q271 -213 246 -208T204 -193T181 -168T173 -138Q173 -116 184 -98T214 -65T254 -37T299 -13Q294 -13 288 -13T276 -14Q180 -14 124 31T67 165Q67 174 68 187T72 216T78 249T85 281L130
464Q153 558 153 590Q153 610 144 620T118 639Q110 642 98 644T78 647L81 657H367L364 647Q345 645 331 641Q315 636 299 626T272 600Q257 576 247 540T225 455L168 217Q157 171 157 123Q157 70 189 41T282 11Q337 11 374 25T437 67T479 131T506 215L572 478Q581
515 584 540T588 579Q588 603 576 618T546 640Q538 642 528 644T507 647L509 657H729L727 647Q719 645 711 645T695 641Q682 636 670 628T646 605Q637 593 625 562T600 480L533 214Q508 117 465 65T360 -4Q299 -20 271 -59T242 -141Q242 -167 257 -182T307 -203L306
-211Z" />
<glyph unicode="&#x173;" glyph-name="uogonek" horiz-adv-x="485" d="M319 -211Q248 -215 217 -193T186 -138Q186 -116 199 -98T232 -64T276 -35T321 -9H310Q284 -8 272 9T260 53Q260 77 265 103T281 168H274Q248 118 222 85T172 30T126 0T84 -9Q58 -9 43 9T28
56Q28 84 40 121T74 220Q82 243 90 267T106 312T118 350T123 374Q123 394 108 394Q96 394 75 377T21 310L9 317Q43 379 83 406T153 433Q176 433 189 421T203 380Q203 367 198 346T185 301T168 249T149 196Q132 148 119 109T105 53Q105 28 125 28Q138 28 158 43T204
91T257 172T312 290Q325 322 337 355T362 424H441Q430 391 418 352T392 276T368 207L352 158Q339 119 337 97T334 60Q334 47 340 40T355 33Q369 33 384 41T414 63T443 94T468 130L480 123Q459 87 428 54T361 2Q343 -7 324 -22T290 -55T265 -95T255 -141Q255 -167
270 -182T320 -203L319 -211Z" />
<glyph unicode="&#x174;" glyph-name="Wcircumflex" horiz-adv-x="876" d="M682 709L600 781L461 708L455 716Q464 724 484 742T525 780T563 816T585 837H630L641 814Q650 797 660 778T679 740T691 714L682 709ZM359 -1L477 482H473L55 -1H8L122 465Q133 511 139
542T145 590Q145 610 136 621T110 639Q102 643 90 644L70 647L73 657H359L356 647Q337 645 323 641Q307 636 292 627T267 601Q252 578 241 541T217 455L139 134H144L486 532Q489 549 491 564T494 590Q494 610 485 621T459 639Q451 643 439 644L419 647L422 657H708L705
647Q697 646 688 645T671 641Q655 636 640 627T615 601Q600 578 589 541T565 455L491 134H496L820 516Q838 538 846 555T855 591Q855 605 848 616T828 634Q815 640 805 642T777 647L779 657H1029L1027 647Q1017 645 1005 642T981 634Q945 617 913 585T850 518L410
-1H359Z" />
<glyph unicode="&#x175;" glyph-name="wcircumflex" horiz-adv-x="642" d="M525 505L437 601L293 505L287 512Q315 541 336 563T373 605T403 639T430 668H475Q487 639 499 604T535 511L525 505ZM398 -9Q356 -9 329 10T288 65Q252 32 215 12T136 -9Q97 -9 72 16T47
86Q47 119 58 155T87 225T124 290T160 343Q147 346 133 352T99 371Q86 379 71 388T48 398Q45 398 42 396T39 390Q39 388 42 382T50 368Q60 348 60 339Q60 323 51 315T31 307Q-1 307 -1 344Q-1 356 9 374T34 407Q46 418 62 425T93 433Q104 433 116 428T141 414Q158
403 169 398T187 393Q193 393 196 395T201 402Q210 418 216 425T234 433Q239 433 243 430T248 419Q248 411 242 406T228 396Q220 391 212 384T196 366Q184 346 171 316T148 251T132 182T125 119Q125 74 144 56T188 37Q208 37 232 49T282 85Q279 96 278 108T277
135Q277 181 284 220T302 292T327 350T354 393Q371 416 387 424T413 433Q436 433 446 415T457 368Q457 339 449 309T427 249T394 190T353 133Q364 86 384 61T439 35Q489 35 526 83Q555 121 571 174T588 283Q588 322 569 366Q562 382 561 387T559 400Q559 413 567
423T589 433Q630 433 630 358Q630 333 625 298T609 223T581 144T539 71Q513 36 478 14T398 -9ZM398 400Q390 400 380 392T361 367T346 327T340 274Q340 242 341 213T348 158Q363 179 378 203T405 251T424 296T431 335Q431 370 422 385T398 400Z" />
<glyph unicode="&#x176;" glyph-name="Ycircumflex" horiz-adv-x="504" d="M640 647Q632 646 619 643T596 636Q581 630 568 623T539 601T503 563T456 501L299 281L279 193Q268 147 261 116T254 67Q254 47 263 37T289 18Q298 15 310 13T330 10L328 0H37L39 10Q47
11 58 12T77 16Q93 21 108 31T133 57Q148 80 160 117T183 202L201 285L123 565Q116 590 108 605T88 628T64 640T34 647L35 657H299L298 647Q290 646 277 644T256 638Q245 633 235 624T225 594Q225 579 230 561T240 521L294 318H299L434 508Q457 540 468 564T480
608Q480 632 457 642Q450 645 444 645T429 647L431 657H642L640 647ZM481 709L399 781L260 708L254 716Q263 724 283 742T324 780T362 816T384 837H429L440 814Q449 797 459 778T478 740T490 714L481 709Z" />
<glyph unicode="&#x177;" glyph-name="ycircumflex" horiz-adv-x="370" d="M67 379Q53 379 38 359T6 309L-7 317Q4 340 17 361T45 398T76 423T107 433Q123 433 138 424T169 381Q177 365 186 335T204 263T219 166T229 48H233Q250 79 265 111T292 175T310 237T317
295Q317 315 311 330T299 364Q297 368 294 378T291 397Q291 413 300 423T325 433Q345 433 351 418T358 383Q358 300 333 221T269 73T181 -53T86 -148Q9 -213 -45 -213Q-68 -213 -88 -200T-108 -157Q-108 -134 -94 -121T-63 -108Q-49 -108 -36 -115T-11 -140Q3 -159
18 -159Q29 -159 43 -152T74 -132Q91 -118 113 -95T159 -44Q157 7 153 57T141 153T126 239T108 310Q97 343 87 361T67 379ZM349 505L261 601L117 505L111 512Q139 541 160 563T197 605T227 639T254 668H299Q311 639 323 604T359 511L349 505Z" />
<glyph unicode="&#x178;" glyph-name="Ydieresis" horiz-adv-x="504" d="M640 647Q632 646 619 643T596 636Q581 630 568 623T539 601T503 563T456 501L299 281L279 193Q268 147 261 116T254 67Q254 47 263 37T289 18Q298 15 310 13T330 10L328 0H37L39 10Q47
11 58 12T77 16Q93 21 108 31T133 57Q148 80 160 117T183 202L201 285L123 565Q116 590 108 605T88 628T64 640T34 647L35 657H299L298 647Q290 646 277 644T256 638Q245 633 235 624T225 594Q225 579 230 561T240 521L294 318H299L434 508Q457 540 468 564T480
608Q480 632 457 642Q450 645 444 645T429 647L431 657H642L640 647ZM226 775Q226 795 240 810T276 826Q299 826 313 812T328 777Q328 754 314 739T276 724Q255 724 241 739T226 775ZM435 775Q435 795 449 810T486 826Q508 826 522 812T537 777Q537 754 523 739T486
724Q464 724 450 739T435 775Z" />
<glyph unicode="&#x179;" glyph-name="Zacute" horiz-adv-x="543" d="M291 719Q315 737 333 751T366 776T394 798T422 817Q444 831 453 836T477 842Q494 842 503 832T512 807Q512 788 497 777T456 756Q442 751 428 747T396 737T354 726T295 711L291 719ZM590 646L78
21H148Q182 21 209 24T259 32T301 46T341 66Q368 81 388 96T426 128T458 161T489 197H501L411 0H-53L-50 11L467 635H364Q312 635 271 622T195 588Q164 568 136 541T73 476H62L153 657H593L590 646Z" />
<glyph unicode="&#x17a;" glyph-name="zacute" horiz-adv-x="415" d="M395 626Q395 606 383 595T343 570Q316 557 283 544T197 506L191 514L227 550Q242 565 254 576T276 598T299 619Q322 641 335 648T362 656Q395 656 395 626ZM412 407Q412 391 396 371T359 333L103
96H106Q119 96 137 93Q155 91 174 88T204 82Q227 77 246 73T289 68Q306 68 322 75T358 105Q371 121 385 149L398 142Q388 117 375 91T344 42T303 6T250 -9Q222 -9 202 2T165 34Q151 51 135 65T104 80Q87 80 76 64T59 25Q55 12 44 2T18 -9Q2 -9 -5 1T-13 24Q-13
38 -4 49T19 68Q28 73 39 78T63 88L302 311Q297 310 288 310Q278 310 264 313T235 323T206 336T179 350Q161 361 141 372T106 384Q85 384 71 370T57 329Q57 320 60 314T66 306Q71 326 84 334T110 343Q128 343 141 334T155 299Q155 281 141 268T110 255Q79 255 60
277T40 338Q40 358 47 375T68 405T98 425T134 433Q166 433 186 421T230 390Q240 382 252 372T275 354T295 339T310 333Q323 333 329 341T339 361T345 385T351 407Q357 420 367 426T387 433Q412 433 412 407Z" />
<glyph unicode="&#x17b;" glyph-name="Zdotaccent" horiz-adv-x="543" d="M590 646L78 21H148Q182 21 209 24T259 32T301 46T341 66Q368 81 388 96T426 128T458 161T489 197H501L411 0H-53L-50 11L467 635H364Q312 635 271 622T195 588Q164 568 136 541T73 476H62L153
657H593L590 646ZM315 775Q315 799 331 813T367 827Q387 827 404 814T421 775Q421 750 404 737T367 724Q348 724 332 738T315 775Z" />
<glyph unicode="&#x17c;" glyph-name="zdotaccent" horiz-adv-x="415" d="M412 407Q412 391 396 371T359 333L103 96H106Q119 96 137 93Q155 91 174 88T204 82Q227 77 246 73T289 68Q306 68 322 75T358 105Q371 121 385 149L398 142Q388 117 375 91T344 42T303
6T250 -9Q222 -9 202 2T165 34Q151 51 135 65T104 80Q87 80 76 64T59 25Q55 12 44 2T18 -9Q2 -9 -5 1T-13 24Q-13 38 -4 49T19 68Q28 73 39 78T63 88L302 311Q297 310 288 310Q278 310 264 313T235 323T206 336T179 350Q161 361 141 372T106 384Q85 384 71 370T57
329Q57 320 60 314T66 306Q71 326 84 334T110 343Q128 343 141 334T155 299Q155 281 141 268T110 255Q79 255 60 277T40 338Q40 358 47 375T68 405T98 425T134 433Q166 433 186 421T230 390Q240 382 252 372T275 354T295 339T310 333Q323 333 329 341T339 361T345
385T351 407Q357 420 367 426T387 433Q412 433 412 407ZM319 595Q319 570 302 559T268 547Q251 547 235 559T219 595Q219 618 235 631T268 645Q285 645 302 633T319 595Z" />
<glyph unicode="&#x17d;" glyph-name="Zcaron" horiz-adv-x="543" d="M290 840L374 768L511 841L517 833Q508 825 488 807T447 769T409 733T387 712H342L330 735Q322 752 312 771T293 809T281 835L290 840ZM590 646L78 21H148Q182 21 209 24T259 32T301 46T341
66Q368 81 388 96T426 128T458 161T489 197H501L411 0H-53L-50 11L467 635H364Q312 635 271 622T195 588Q164 568 136 541T73 476H62L153 657H593L590 646Z" />
<glyph unicode="&#x17e;" glyph-name="zcaron" horiz-adv-x="415" d="M185 661L274 565L417 661L424 654Q396 625 375 603T338 561T308 527T281 498H236Q230 513 224 528T212 562T197 603T176 655L185 661ZM412 407Q412 391 396 371T359 333L103 96H106Q119 96
137 93Q155 91 174 88T204 82Q227 77 246 73T289 68Q306 68 322 75T358 105Q371 121 385 149L398 142Q388 117 375 91T344 42T303 6T250 -9Q222 -9 202 2T165 34Q151 51 135 65T104 80Q87 80 76 64T59 25Q55 12 44 2T18 -9Q2 -9 -5 1T-13 24Q-13 38 -4 49T19 68Q28
73 39 78T63 88L302 311Q297 310 288 310Q278 310 264 313T235 323T206 336T179 350Q161 361 141 372T106 384Q85 384 71 370T57 329Q57 320 60 314T66 306Q71 326 84 334T110 343Q128 343 141 334T155 299Q155 281 141 268T110 255Q79 255 60 277T40 338Q40 358
47 375T68 405T98 425T134 433Q166 433 186 421T230 390Q240 382 252 372T275 354T295 339T310 333Q323 333 329 341T339 361T345 385T351 407Q357 420 367 426T387 433Q412 433 412 407Z" />
<glyph unicode="&#x192;" glyph-name="florin" horiz-adv-x="347" d="M435 597Q435 578 425 569T397 560Q360 560 358 597Q357 604 359 613T360 629Q359 646 340 646Q331 646 320 641T300 618Q292 605 285 590T269 552T252 499T233 425H330L326 408H228Q222 381
211 337T187 239T156 128T121 17Q86 -87 34 -134T-75 -182Q-118 -182 -146 -163T-174 -109Q-174 -84 -161 -75T-133 -65Q-115 -65 -105 -75T-93 -101Q-92 -112 -92 -120T-90 -140Q-87 -162 -67 -162Q-51 -162 -31 -143T1 -91Q47 35 76 163T135 408H63L68 425H139Q142
435 143 441T146 451T148 461T153 475Q166 522 187 557T234 615T288 650T345 662Q384 662 409 645T435 597Z" />
<glyph unicode="&#x1fa;" glyph-name="Aringacute" horiz-adv-x="575" d="M212 271H371L434 522H429L212 271ZM367 250H192L99 141Q84 123 74 105T64 67Q64 36 88 24Q100 17 112 15T141 10L139 0H-113L-111 10Q-101 12 -92 14T-72 21Q-54 30 -36 43T-1 73T32 105T59
136L517 657H565L451 193Q440 147 434 116T427 67Q427 47 436 37T462 18Q471 15 483 13T503 10L501 0H216L218 10Q237 12 251 16Q267 21 281 31T306 57Q321 80 332 117T355 202L367 250ZM500 885Q524 903 542 917T575 942T603 964T631 983Q653 997 662 1002T686
1008Q703 1008 712 998T721 973Q721 954 706 943T665 922Q651 917 637 913T605 903T563 892T504 877L500 885ZM636 782Q636 743 613 723T559 702Q545 702 532 707T507 722T489 747T482 782Q482 821 506 841T559 862Q572 862 586 857T611 842T629 817T636 782ZM614
782Q614 813 598 828T559 844Q537 844 520 829T503 782Q503 751 519 736T559 720Q581 720 597 735T614 782Z" />
<glyph unicode="&#x1fb;" glyph-name="aringacute" horiz-adv-x="444" d="M302 339Q302 374 292 394T258 415Q232 415 212 397T169 344Q152 316 138 281T113 210T96 142T90 89Q90 56 100 42T127 27Q143 27 157 36T188 63Q202 78 214 95T240 135Q253 159 264 188T284
245T297 297T302 339ZM311 58Q311 35 330 35Q344 35 358 43T386 64T412 95T436 130L449 123Q435 100 418 77T381 34T338 3T290 -9Q267 -9 252 4T236 53Q236 64 239 79T246 108H242Q229 85 216 68T188 35Q166 13 146 2T100 -9Q84 -9 68 -3T39 17T18 54T9 112Q9 155
30 210T85 315T165 399T258 433Q286 433 301 416T321 371H323Q330 385 336 397T349 424H419Q407 386 390 333T353 222Q332 159 322 116T311 58ZM368 591Q368 552 345 532T291 511Q277 511 264 516T239 531T221 556T214 591Q214 630 238 650T291 671Q304 671 318
666T343 651T361 626T368 591ZM347 591Q347 622 331 637T291 653Q269 653 252 638T235 591Q235 560 251 545T291 529Q314 529 330 544T347 591ZM236 966Q260 984 278 998T311 1023T339 1045T367 1064Q389 1078 398 1083T422 1089Q439 1089 448 1079T457 1054Q457
1035 442 1024T401 1003Q387 998 373 994T341 984T299 973T240 958L236 966Z" />
<glyph unicode="&#x1fc;" glyph-name="AEacute" horiz-adv-x="838" d="M564 719Q588 737 606 751T639 776T667 798T695 817Q717 831 726 836T750 842Q767 842 776 832T785 807Q785 788 770 777T729 756Q715 751 701 747T669 737T627 726T568 711L564 719ZM468
608H462L184 274H387L468 608ZM827 463H816Q810 501 797 535T767 593Q757 607 736 621T674 635H653Q639 635 625 632T599 620Q587 611 574 594T549 532L505 352H528Q571 352 593 357T634 376Q657 395 674 422T699 474H709L642 206H632Q635 230 633 257T618 301Q609
313 590 321T527 330H499L460 170Q452 138 448 117T443 79Q443 52 456 40Q474 22 518 22H544Q586 22 619 38T675 72Q713 103 744 141T793 209H803L733 0H222L225 10Q233 11 244 12T264 16Q280 21 295 31T320 57Q335 80 346 117T370 202L381 250H164L74 141Q60 124
51 103T42 67Q42 36 66 24Q78 17 90 15T119 10L117 0H-135L-133 10Q-112 17 -90 31Q-55 52 -23 82T30 136L442 625Q438 629 429 632T411 639T393 644T381 647L383 657H824L827 463Z" />
<glyph unicode="&#x1fd;" glyph-name="aeacute" horiz-adv-x="593" d="M526 626Q526 606 514 595T474 571Q447 558 415 544T328 507L323 515Q344 536 359 550T385 576T407 598T430 620Q453 642 466 649T493 657Q526 657 526 626ZM591 366Q591 346 579 327T549
292Q534 280 512 267T465 240T412 216T359 196Q347 142 347 91Q347 56 361 38T400 19Q426 19 448 29T488 54T519 88T542 123L554 116Q541 91 523 69T483 29T433 1T375 -9Q323 -9 293 28T262 122H259Q229 55 185 22Q167 8 146 0T100 -9Q84 -9 68 -3T39 17T18 54T9
113Q9 156 30 211T85 316T165 400T258 434Q286 434 301 417T320 372H323Q330 386 336 398T349 425H399Q399 423 396 416T390 399T385 382T381 371H384Q413 401 446 417T505 434Q553 434 572 416T591 366ZM524 377Q524 394 518 405T498 416Q479 416 459 400T421
356T388 291T363 213Q379 219 397 227T433 246T465 266T489 287Q507 307 515 332T524 377ZM302 339Q302 374 292 395T258 416Q232 416 212 398T169 345Q152 317 138 282T113 211T96 143T90 90Q90 57 102 43T134 28Q148 28 162 36T188 56Q216 83 242 131Q251 149
261 175T281 231T296 288T302 339Z" />
<glyph unicode="&#x1fe;" glyph-name="Oslashacute" horiz-adv-x="620" d="M608 415Q608 372 598 325T568 233T522 147T461 76Q413 34 361 10T251 -14Q207 -14 167 2Q166 2 165 2L132 -65L112 -57L146 12Q120 26 98 50Q68 82 51 129T33 241Q33 284 43 331T73 423T119
510T180 581Q228 623 279 646T388 670Q429 670 467 656L497 717L517 708L487 647Q518 632 542 606Q572 574 590 527T608 415ZM510 482Q510 528 500 560T473 611Q471 613 470 614L180 32Q192 22 206 16Q229 8 253 8Q289 8 320 26T371 64Q390 83 414 125T460 223T495
345T510 482ZM433 639Q411 648 387 648Q351 648 320 630T269 592Q249 572 225 531T180 433T145 311T131 174Q131 127 141 95Q150 67 164 48L453 629Q444 635 433 639ZM338 719Q362 737 380 751T413 776T441 798T469 817Q491 831 500 836T524 842Q541 842 550 832T559
807Q559 788 544 777T503 756Q489 751 475 747T443 737T401 726T342 711L338 719Z" />
<glyph unicode="&#x1ff;" glyph-name="oslashacute" horiz-adv-x="383" d="M362 284Q363 223 340 162T274 56Q245 26 209 9T132 -9Q113 -9 97 -5L69 -65L51 -56L78 1Q58 11 44 29Q13 68 11 135Q9 198 32 261T99 369Q128 399 165 416T241 433Q264 433 282 427L311
487L329 478L301 419Q318 409 330 393Q361 353 362 284ZM239 417Q211 417 193 400T161 360Q147 337 133 303T108 229T89 151T82 80Q83 48 92 30L272 405Q259 417 239 417ZM291 340Q291 368 285 386L107 14Q117 8 133 8Q161 8 179 25T211 65Q225 87 239 121T264
193T283 269T291 340ZM403 626Q403 606 391 595T351 571Q324 558 292 544T205 507L200 515Q221 536 236 550T262 576T284 598T307 620Q330 642 343 649T370 657Q403 657 403 626Z" />
<glyph unicode="&#x218;" glyph-name="Scommaaccent" horiz-adv-x="500" d="M208 159Q208 132 198 110T169 72T127 43T74 22L69 35Q107 46 131 64T156 102Q156 110 150 115Q128 119 116 133T104 165Q104 188 118 202T159 217Q177 217 192 202T208 159ZM466 456H454Q454
475 451 496T443 536T432 572T420 599Q408 620 387 634T323 649Q271 649 240 621T208 541Q208 514 217 493T239 455T269 423T299 395Q329 367 354 344T397 298T426 248T437 185Q437 137 417 100T365 38T293 -1T214 -14Q160 -14 120 8T60 57H55L5 4H-4L48 235H61Q67
125 102 67T217 8Q250 8 275 19T317 48T342 89T351 137Q351 162 343 182T320 222T284 262T238 305Q217 324 197 342T162 383T137 431T127 494Q127 526 139 558T177 615T238 655T323 671Q369 671 404 654T456 613H458L494 657H505L466 456Z" />
<glyph unicode="&#x219;" glyph-name="scommaaccent" horiz-adv-x="307" d="M387 159Q387 132 377 110T348 72T306 43T253 22L248 35Q286 46 310 64T335 102Q335 110 329 115Q307 119 295 133T283 165Q283 188 297 202T338 217Q356 217 371 202T387 159ZM306 356Q306
338 297 326T270 314Q256 314 247 322T235 345Q233 359 237 367T239 387Q237 399 227 408T199 417Q165 417 153 397T140 350Q140 325 153 303T189 246Q222 196 238 169T255 116Q255 85 242 62T207 23T160 -1T109 -9Q59 -9 26 17T-8 87Q-8 111 3 126T35 142Q51 142
61 133T71 106Q71 95 68 88T62 75T55 63T52 50Q52 27 70 17T109 7Q143 7 163 28T183 83Q183 96 179 107T167 131T147 159T120 197Q107 216 99 231T85 259T77 287T74 318Q74 343 84 364T111 400T152 424T203 433Q223 433 241 428T274 413T297 389T306 356Z" />
<glyph unicode="&#x21a;" glyph-name="uni021A" horiz-adv-x="573" d="M243 159Q243 132 233 110T204 72T162 43T109 22L104 35Q142 46 166 64T191 102Q191 110 185 115Q163 119 151 133T139 165Q139 188 153 202T194 217Q212 217 227 202T243 159ZM614 471H602Q598
500 591 532T557 593Q536 616 507 625T440 635H413L304 193Q281 99 281 67Q281 47 290 36T316 18Q324 14 336 12L356 10L353 0H63L65 10Q73 11 84 12T104 16Q120 21 134 30T159 56Q174 79 185 116T209 202L316 635H284Q250 635 218 625T159 593Q127 567 100 533T51
471H40L102 657H639L614 471Z" />
<glyph unicode="&#x21b;" glyph-name="uni021B" horiz-adv-x="255" d="M341 159Q341 132 331 110T302 72T260 43T207 22L202 35Q240 46 264 64T289 102Q289 110 283 115Q261 119 249 133T237 165Q237 188 251 202T292 217Q310 217 325 202T341 159ZM93 54Q93 36
106 36Q118 36 133 44T163 65T192 96T218 131L230 124Q216 101 198 78T157 35T111 3T60 -9Q37 -9 24 6T10 45Q10 58 15 79T29 126T46 178T64 231L80 279Q88 302 98 333T120 402H62L66 424H126Q129 435 135 454T148 494T161 536T172 573H252Q247 558 241 537T228
495T215 454T206 424H303L298 402H200Q174 319 157 267Q147 238 139 215Q131 189 123 163T108 115T97 77T93 54Z" />
<glyph unicode="&#x237;" glyph-name="uni0237" horiz-adv-x="217" d="M208 376Q208 365 201 338T184 277T163 209T142 148Q118 74 100 24T66 -59T38 -114T10 -152Q-16 -181 -49 -197T-117 -213Q-159 -213 -184 -191T-210 -136Q-210 -116 -198 -102T-166 -88Q-143
-88 -132 -101T-121 -130Q-121 -140 -122 -146T-126 -160Q-128 -165 -128 -171T-129 -180Q-129 -185 -124 -189T-111 -193Q-92 -193 -78 -185T-48 -152Q-42 -142 -33 -119T-12 -66T11 -1T33 66T53 125T67 168Q80 205 90 238T109 298T121 343T126 368Q126 394 106
394Q93 394 74 377T23 309L11 316Q44 378 84 405T153 433Q208 433 208 376Z" />
<glyph unicode="&#x2c6;" glyph-name="circumflex" horiz-adv-x="340" d="M320 505L232 601L88 505L82 512Q110 541 131 563T168 605T198 639T225 668H270Q282 639 294 604T330 511L320 505Z" />
<glyph unicode="&#x2c7;" glyph-name="caron" horiz-adv-x="340" d="M104 661L193 565L336 661L343 654Q315 625 294 603T257 561T227 527T200 498H155Q149 513 143 528T131 562T116 603T95 655L104 661Z" />
<glyph unicode="&#x2d8;" glyph-name="breve" horiz-adv-x="282" d="M82 673Q90 627 120 611T185 594Q224 594 252 613T307 674L317 668Q314 644 305 620T278 575T237 543T179 530Q156 530 136 536T100 556T77 589T68 635Q68 650 71 667L82 673Z" />
<glyph unicode="&#x2d9;" glyph-name="dotaccent" horiz-adv-x="291" d="M265 595Q265 570 248 559T214 547Q197 547 181 559T165 595Q165 618 181 631T214 645Q231 645 248 633T265 595Z" />
<glyph unicode="&#x2da;" glyph-name="ring" horiz-adv-x="400" d="M293 591Q293 552 270 532T216 511Q202 511 189 516T164 531T146 556T139 591Q139 630 163 650T216 671Q229 671 243 666T268 651T286 626T293 591ZM272 591Q272 622 256 637T216 653Q194 653
177 638T160 591Q160 560 176 545T216 529Q239 529 255 544T272 591Z" />
<glyph unicode="&#x2db;" glyph-name="ogonek" horiz-adv-x="270" d="M35 -138Q35 -114 49 -95T85 -59T131 -28T177 0H195Q179 -12 163 -27T133 -59T112 -96T104 -141Q104 -167 119 -182T169 -203L168 -211Q97 -215 66 -193T35 -138Z" />
<glyph unicode="&#x2dc;" glyph-name="tilde" horiz-adv-x="322" d="M363 625Q348 584 324 559T262 533Q245 533 230 537T199 548T168 558T138 563Q121 563 102 554T64 522L56 526Q76 568 105 593T168 618Q184 618 198 614T226 605T253 595T281 591Q305 591 321
598T355 628L363 625Z" />
<glyph unicode="&#x2dd;" glyph-name="hungarumlaut" horiz-adv-x="400" d="M269 668Q284 668 292 659T300 636Q300 619 291 609T265 584Q254 575 243 566T216 545T179 518T129 483L121 490Q156 541 176 571T215 627Q232 650 242 659T269 668ZM423 668Q438 668
446 659T454 636Q454 619 445 609T419 584Q408 575 397 566T370 545T333 518T283 483L275 490Q310 541 330 571T369 627Q386 650 396 659T423 668Z" />
</font>
</defs>
</svg>
