<?xml version="1.0" standalone="no"?> <!DOCTYPE svg PUBLIC "-//W3C//DTD SVG 1.0//EN" "http://www.w3.org/TR/2001/REC-SVG-20010904/DTD/svg10.dtd" > <svg xmlns="http://www.w3.org/2000/svg" width="100%" height="100%">
<defs >
<font horiz-adv-x="528" ><font-face
    font-family=""
    units-per-em="1000"
    panose-1="0 0 0 0 0 0 0 0 0 0"
    ascent="787"
    descent="-213"
    alphabetic="0" />
<missing-glyph horiz-adv-x="700" />
<glyph unicode=" " glyph-name="space" horiz-adv-x="185" />
<glyph unicode="!" glyph-name="exclam" horiz-adv-x="290" d="M308 588Q308 571 300 550T279 502T250 447T216 384Q187 328 162 274T120 181H102Q106 205 108 227T113 273T117 323T121 381Q124 448 123 491T126 567Q131 613 156 641T228 670Q265 670 286 647T308
588ZM138 53Q138 25 119 5T69 -16Q39 -16 20 4T1 53Q1 81 20 101T69 122Q99 122 118 102T138 53Z" />
<glyph unicode="&quot;" glyph-name="quotedbl" horiz-adv-x="329" d="M370 618Q370 599 356 572T327 515Q313 488 296 461T265 408H251Q252 434 252 467T250 529Q250 541 250 555T251 582T253 607T255 623Q261 649 278 660T317 672Q340 672 355 658T370 618ZM213
618Q213 599 199 572T170 515Q156 488 139 461T108 408H94Q94 434 94 467T93 529Q93 541 93 555T94 582T96 607T98 623Q104 649 121 660T160 672Q183 672 198 658T213 618Z" />
<glyph unicode="#" glyph-name="numbersign" horiz-adv-x="568" d="M443 430L390 231H533V205H383L329 0H305L359 205H178Q176 196 169 170T154 112T137 49T124 0H99L153 205H5V231H160L213 430H57V456H220L273 656H297L244 456H426L479 656H502L450 456H584V430H443ZM237
430L185 231H366L419 430H237Z" />
<glyph unicode="$" glyph-name="dollar" horiz-adv-x="514" d="M525 548Q525 507 505 487T456 466Q429 466 409 482T388 531Q388 544 392 555T400 577T409 595T413 611Q413 624 397 634T352 646L297 422Q327 395 355 373T406 328T441 275T454 203Q454 159 435
120T380 50T297 2T190 -16L167 -108H144L167 -15Q128 -12 97 1T45 32T12 73T0 118Q0 158 20 178T70 198Q98 198 116 179T134 125Q134 112 130 100T122 77T114 57T110 42Q110 29 128 20T172 7L235 265Q208 287 185 309T146 355T120 406T110 466Q110 508 127 544T174
608T245 651T334 668L351 738H374L357 667Q399 665 430 654T483 627T514 590T525 548ZM329 646Q287 644 258 617T228 544Q228 512 240 488T278 439L329 646ZM340 118Q340 140 336 155T322 184T296 213T255 249L195 6Q234 6 261 16T306 41T332 77T340 118Z" />
<glyph unicode="%" glyph-name="percent" horiz-adv-x="703" d="M363 547Q363 493 344 452T294 382T228 340T159 325Q132 325 111 334T74 360T50 397T42 444Q42 499 61 540T110 610T176 652T245 666Q272 666 294 657T331 631T355 594T363 547ZM272 597Q272 617
267 632T243 647Q232 647 218 642T192 618Q180 600 169 574T150 518T138 456T133 394Q133 374 138 359T162 344Q173 344 187 350T213 373Q225 391 236 417T255 474T267 535T272 597ZM127 -20L108 -6L581 663L599 649L127 -20ZM679 205Q679 151 660 110T610 40T544
-2T475 -17Q448 -17 427 -8T390 18T366 55T358 102Q358 156 377 197T426 267T492 309T561 324Q588 324 610 315T647 289T671 252T679 205ZM588 255Q588 275 583 290T559 305Q548 305 534 300T508 276Q496 258 485 232T466 175T454 114T449 52Q449 32 454 17T478
2Q489 2 503 7T529 31Q541 49 552 75T571 132T583 193T588 255Z" />
<glyph unicode="&amp;" glyph-name="ampersand" horiz-adv-x="762" d="M790 531Q790 501 781 473T755 423T713 388T657 374Q641 374 608 378T545 391Q565 379 579 360T601 321T614 280T618 244Q618 206 600 161T542 77T443 12T301 -14Q233 -14 181 4T95 53T43
129T25 225Q25 262 39 294T74 350T121 392T170 418Q155 436 145 465T134 521Q134 584 175 625T292 667Q356 667 389 640T423 563Q423 537 405 513T365 478L358 486Q374 499 374 529Q374 553 356 570T295 587Q243 587 215 556T186 463Q186 453 188 444T193 428Q203
434 217 437T240 441Q296 441 296 397Q296 382 284 373T255 363Q234 363 217 373T183 400Q163 385 147 361T131 296Q131 212 181 160T337 108Q390 108 433 124T506 167T552 227T569 292Q569 328 557 350T526 385T487 401T450 406Q407 406 383 383T358 328Q358 313
363 303T375 285T391 273T406 269L402 287Q400 296 402 306Q404 334 421 347T464 361Q492 361 507 341T523 295Q523 267 503 246T444 225Q421 225 401 234T367 260T344 299T335 349Q335 388 351 416T393 462T447 490T502 499Q522 499 544 497T583 493Q593 492 606
490T632 487T655 484T671 483Q716 483 735 503T755 556Q755 583 740 598T710 616Q708 587 692 565T650 543Q624 543 608 559T592 602Q592 629 613 645T661 661Q682 661 705 652T747 627T778 586T790 531Z" />
<glyph unicode="&apos;" glyph-name="quotesingle" horiz-adv-x="183" d="M213 618Q213 599 199 572T170 515Q156 487 139 460T108 407H94Q94 433 94 466T93 528Q93 540 93 554T94 581T96 606T98 622Q104 648 121 659T160 671Q183 671 198 658T213 618Z" />
<glyph unicode="(" glyph-name="parenleft" horiz-adv-x="294" d="M165 -105Q141 -82 117 -51T73 20T41 107T29 209Q29 297 59 372T139 506T248 610T367 680L384 673Q327 632 280 574T200 445T148 298T129 145Q128 79 143 15T184 -100L165 -105Z" />
<glyph unicode=")" glyph-name="parenright" horiz-adv-x="294" d="M119 680Q143 657 167 626T210 555T242 468T254 366Q254 278 223 204T144 69T35 -35T-84 -105L-100 -98Q-43 -58 4 1T84 130T136 276T155 430Q155 496 140 560T99 675L119 680Z" />
<glyph unicode="*" glyph-name="asterisk" horiz-adv-x="393" d="M229 302Q212 302 203 311T193 335Q193 345 197 361T206 396T217 437T225 477Q213 462 202 444T181 408T163 376T147 355Q137 344 124 344T99 356Q87 368 87 381T97 405Q104 412 118 420T150 438T185
459T219 483Q199 481 179 476T139 466T103 456T77 451Q63 451 54 460T44 487Q44 504 53 513T77 522Q87 522 103 518T138 509T178 498T219 491Q204 503 186 514T150 534T118 552T97 568Q86 579 86 592T98 617Q110 629 123 629T147 619Q154 612 162 598T180 566T201
530T225 496Q223 515 218 536T208 576T198 611T193 637Q193 651 202 660T229 670Q246 670 255 661T264 637Q264 627 260 611T251 576T240 536T233 496Q245 511 256 529T276 565T294 597T310 618Q321 629 334 629T360 617Q372 605 372 592T361 568Q354 561 340 553T308
535T272 514T238 491Q249 492 269 497T310 507T350 517T380 522Q394 522 403 513T413 486Q413 469 404 460T380 451Q370 451 354 455T319 465T278 476T238 483Q253 471 271 460T307 439T339 421T360 405Q371 394 371 382T359 357Q347 345 334 345T310 355Q303 362
295 376T277 408T256 444T233 477Q235 458 240 437T250 397T260 361T264 335Q264 321 255 312T229 302Z" />
<glyph unicode="+" glyph-name="plus" horiz-adv-x="462" d="M235 251V77H214V251H40V272H214V447H235V272H409V251H235Z" />
<glyph unicode="," glyph-name="comma" horiz-adv-x="217" d="M147 47Q147 17 129 -12T83 -65T19 -107T-53 -136L-57 -120Q-39 -114 -17 -104T23 -81T55 -55T68 -31Q68 -21 59 -16Q36 -11 18 8T0 51Q0 70 7 84T24 107T48 121T75 126Q107 126 127 105T147 47Z" />
<glyph unicode="-" glyph-name="hyphen" horiz-adv-x="319" d="M259 221H44L62 295H277L259 221Z" />
<glyph unicode="." glyph-name="period" horiz-adv-x="216" d="M148 55Q148 26 129 6T79 -14Q48 -14 29 6T10 55Q10 84 29 104T79 125Q109 125 128 105T148 55Z" />
<glyph unicode="/" glyph-name="slash" horiz-adv-x="271" d="M-80 -101L-109 -87L333 688L361 674L-80 -101Z" />
<glyph unicode="0" glyph-name="zero" horiz-adv-x="611" d="M398 670Q453 670 490 651T551 598T585 522T596 431Q596 338 565 257T482 116T364 21T225 -14Q170 -14 132 6T71 59T37 135T26 225Q26 318 57 399T140 541T259 635T398 670ZM228 8Q272 8 307 57Q333
93 359 151T407 277T442 418T456 556Q456 601 440 625T394 649Q352 649 316 600Q289 563 262 504T214 375T179 234T166 100Q166 55 182 32T228 8Z" />
<glyph unicode="1" glyph-name="one" horiz-adv-x="378" d="M167 518Q168 525 171 535T177 557T182 579T185 596Q187 609 185 615T175 625Q172 627 163 628T145 631T126 634T113 635L115 646Q125 647 143 648T181 650T223 654T263 658Q273 659 287 661T314 664T337
667T351 668Q358 668 356 660Q354 654 352 645T347 625T341 603T336 581L234 179Q225 144 221 120T217 80Q217 54 227 40T252 20Q263 16 273 15T293 11L290 0H-56L-53 11Q-45 13 -34 14T-15 19Q-1 24 12 33T37 57Q53 81 63 108T84 180L167 518Z" />
<glyph unicode="2" glyph-name="two" horiz-adv-x="548" d="M62 119Q107 160 162 208T266 312T348 428T380 556Q380 604 359 624T302 645Q278 645 254 635T209 604T175 552T162 481Q162 451 176 433T214 415Q242 415 259 432T292 476L304 470Q297 449 284 428T251
390T206 363T151 352Q106 352 79 381T52 455Q52 500 72 539T130 607T220 653T337 670Q395 670 435 656T500 620T536 570T547 515Q547 474 526 436T473 363T400 298T323 244Q300 229 279 218T233 194T182 169T120 139V135H317Q353 135 383 148T434 176Q456 193 476
214T507 254H522L405 0H-67Q-61 4 -44 20T-5 56T35 93T62 119Z" />
<glyph unicode="3" glyph-name="three" horiz-adv-x="515" d="M504 543Q504 478 440 428T267 352V349Q361 353 417 316T473 212Q473 161 451 119T387 48T289 2T161 -14Q113 -14 77 -2T18 29T-16 73T-28 123Q-28 155 -9 177T41 199Q77 199 94 180T111 129Q111 115
107 102T97 74Q94 67 91 58T87 41Q87 34 92 28T106 18T125 12T146 10Q186 10 216 28T266 77T297 148T308 233Q308 283 286 303T225 323Q214 323 203 320T181 312L148 298L140 315L209 346Q282 378 327 433T372 570Q372 606 354 626T297 647Q276 647 256 640T219
617T192 577T181 518Q181 489 194 475T226 461Q249 461 264 471T292 496L301 490Q295 476 285 462T259 436T224 417T180 409Q135 409 112 436T88 501Q88 536 106 567T154 621T225 657T310 670Q411 670 457 634T504 543Z" />
<glyph unicode="4" glyph-name="four" horiz-adv-x="554" d="M209 237L281 528H279L4 237H209ZM402 0H58L61 11Q71 13 80 14T98 19Q114 25 127 35T151 62Q164 82 173 104T191 162L204 217H-28L-23 237L370 657H464Q466 657 466 654Q463 641 459 626T449 590L359
237H392Q411 237 424 239T445 244T458 252T470 263Q484 277 498 299T521 344H533L471 105H458Q461 128 460 150T450 188Q443 201 432 208T388 216H355L341 162Q335 140 332 117T328 80Q328 54 338 41T364 21Q375 17 385 15T404 11L402 0Z" />
<glyph unicode="5" glyph-name="five" horiz-adv-x="512" d="M168 -14Q120 -14 84 -2T23 29T-14 72T-26 121Q-26 155 -6 177T47 200Q83 200 99 179T116 129Q116 114 112 100T103 73Q100 67 97 58T94 42Q94 28 112 20T150 12Q218 12 261 75T304 262Q304 315 283
344T215 373Q174 373 141 352T89 301L70 310L203 656H215Q235 638 276 629T362 619Q396 619 422 626T466 643T495 666T513 691L526 688Q506 642 484 607T433 548T368 512T283 499Q254 499 225 502T172 514L112 355L115 354Q172 411 270 411Q320 411 357 398T418
362T455 309T467 242Q467 192 447 146T388 65T294 8T168 -14Z" />
<glyph unicode="6" glyph-name="six" horiz-adv-x="565" d="M589 566Q589 529 569 507T516 485Q482 485 467 502T451 546Q451 560 455 571T463 590Q468 600 471 608T474 622Q474 633 467 640T437 648Q406 648 375 628T316 572T265 488T227 384H231Q253 409 288
420T357 432Q396 432 426 419T476 383T506 332T516 271Q516 220 497 170T441 78T348 12T222 -14Q166 -14 129 5T68 56T34 127T24 205Q24 310 65 395T168 542T302 636T439 670Q486 670 515 661T560 636T583 603T589 566ZM370 334Q370 366 355 382T314 399Q292 399
272 387T235 350Q221 327 208 293T185 220T168 146T161 85Q161 51 177 30T222 8Q246 8 264 20T295 52Q310 77 323 114T347 190T364 268T370 334Z" />
<glyph unicode="7" glyph-name="seven" horiz-adv-x="464" d="M136 -14Q114 -14 100 -7T77 12T65 38T61 68Q61 91 72 115T101 164T140 211T179 252Q208 282 241 317T308 387T373 457T431 518L432 520H210Q193 520 173 518T136 509Q112 499 93 484T54 434H39L140
692H151Q155 678 168 668T211 657H568L564 643Q499 576 452 506T369 367T306 231T254 100Q231 43 205 15T136 -14Z" />
<glyph unicode="8" glyph-name="eight" horiz-adv-x="532" d="M9 135Q9 167 24 194T65 242T123 277T189 300Q169 316 152 333T121 370T100 415T92 468Q92 515 111 552T164 616T242 656T334 670Q422 670 466 636T511 544Q511 516 498 492T465 449T419 416T369 393Q395
373 416 355T451 315T474 269T482 209Q482 166 462 126T407 54T323 5T217 -14Q171 -14 133 -5T68 24T25 71T9 135ZM350 405Q397 430 414 468T432 545Q432 595 408 622T331 649Q279 649 248 624T217 553Q217 530 226 512T251 479T289 448T337 415Q338 414 343 410T350
405ZM208 287Q188 280 168 267T131 236T104 192T93 136Q93 73 126 41T217 8Q277 8 316 37T355 118Q355 143 348 161T324 197T282 232T221 277Q219 279 215 282T208 287Z" />
<glyph unicode="9" glyph-name="nine" horiz-adv-x="571" d="M213 325Q213 293 228 277T269 260Q294 260 317 275T356 320Q368 342 379 375T400 445T415 515T421 572Q421 606 405 627T359 648Q332 648 313 634T280 595Q267 569 255 533T234 459T219 386T213 325ZM-7
92Q-7 129 13 150T67 172Q100 172 114 155T128 111Q128 98 126 88T118 69Q113 58 111 50T108 34Q108 24 116 17T147 9Q183 9 215 30T275 88T323 173T356 274H351Q330 249 295 238T227 227Q185 227 155 242T105 280T76 332T67 389Q67 440 86 490T142 580T234 645T360
670Q415 670 453 651T514 600T547 529T557 451Q557 339 519 253T421 107T289 17T147 -14Q104 -14 75 -4T27 21T1 56T-7 92Z" />
<glyph unicode=":" glyph-name="colon" horiz-adv-x="242" d="M227 379Q227 350 208 330T158 309Q127 309 108 329T89 379Q89 408 108 428T158 448Q188 448 207 428T227 379ZM137 55Q137 26 118 6T68 -14Q37 -14 18 6T-1 55Q-1 84 18 104T68 125Q98 125 117 105T137 55Z" />
<glyph unicode=";" glyph-name="semicolon" horiz-adv-x="248" d="M139 50Q139 20 121 -9T75 -62T10 -104T-62 -133L-66 -117Q-48 -111 -26 -101T14 -78T46 -52T59 -28Q59 -18 50 -13Q27 -8 9 11T-9 54Q-9 73 -2 87T15 110T39 124T67 129Q98 129 118 108T139 50ZM223
379Q223 350 204 330T154 309Q123 309 104 329T85 379Q85 408 104 428T154 448Q184 448 203 428T223 379Z" />
<glyph unicode="&lt;" glyph-name="less" horiz-adv-x="380" d="M35 251V273L331 425V402L55 262L331 123V99L35 251Z" />
<glyph unicode="=" glyph-name="equal" horiz-adv-x="434" d="M46 334V354H379V334H46ZM46 163V183H379V163H46Z" />
<glyph unicode="&gt;" glyph-name="greater" horiz-adv-x="373" d="M43 99V123L320 262L43 402V425L340 273V251L43 99Z" />
<glyph unicode="?" glyph-name="question" horiz-adv-x="446" d="M478 521Q478 474 463 438T421 375T357 328T274 292Q241 281 216 272T175 253T150 232T141 205Q141 188 153 179T183 170Q209 170 226 182T254 207L263 198Q251 175 225 156T155 137Q106 137 73
167T40 250Q40 284 54 308T93 351T153 382T228 408Q274 422 303 437T348 468T369 504T375 546Q375 592 350 620T264 648Q214 648 181 619T147 542Q147 501 166 484T210 466Q221 466 230 473T239 488Q228 493 215 505T202 539Q202 562 217 577T255 593Q278 593 292
579T307 538Q307 523 298 506T271 475T231 452T178 443Q136 443 110 467T83 530Q83 560 98 585T141 630T206 659T288 670Q380 670 429 629T478 521ZM175 47Q175 22 157 4T112 -14Q86 -14 69 4T51 47Q51 73 68 91T112 109Q139 109 157 91T175 47Z" />
<glyph unicode="@" glyph-name="at" horiz-adv-x="772" d="M743 271Q743 215 723 164T667 73T586 10T488 -14Q459 -14 436 2T413 56Q413 67 415 79T420 104H416Q405 81 395 64T370 32Q347 9 324 -2T274 -14Q229 -14 202 16T175 112Q175 160 196 210T254 302T336
370T432 397Q462 397 475 383T491 348H497Q504 360 508 369T519 389H628Q616 352 602 306T569 203Q558 172 551 150T540 111T533 83T531 62Q531 49 537 42T551 35Q581 35 612 54T667 105T708 180T724 271Q724 331 704 380T647 463T555 516T432 535Q351 535 284
506T170 426T96 305T69 153Q69 75 92 17T157 -81T258 -140T390 -160Q436 -160 478 -153T557 -133T626 -107T681 -78L688 -93Q666 -107 634 -122T563 -149T479 -169T389 -177Q306 -177 237 -155T119 -90T42 14T14 152Q14 254 50 329T146 453T279 527T431 552Q508
552 566 531T664 473T723 384T743 271ZM475 324Q475 348 468 362T447 376Q432 376 416 364T380 316Q364 288 350 254T324 186T307 124T300 79Q300 55 308 45T327 35Q340 35 352 45T377 73Q394 99 405 119T427 166Q449 220 462 256T475 324Z" />
<glyph unicode="A" glyph-name="A" horiz-adv-x="625" d="M204 274H362L425 526H420L204 274ZM356 249H182L94 145Q77 125 68 107T58 69Q58 55 64 44T82 26Q95 19 107 16T136 11L133 0H-129L-127 11Q-116 13 -103 16T-80 25Q-45 42 -11 73T52 137L500 657H613L499
202Q477 113 477 78Q477 55 486 42T512 22Q535 13 554 11L551 0H209L211 11Q221 12 230 14T248 20Q265 26 276 35T298 61Q312 84 322 118T346 204L356 249Z" />
<glyph unicode="B" glyph-name="B" horiz-adv-x="646" d="M617 520Q617 483 602 455T560 406T496 373T414 354L413 350Q450 345 483 333T541 302T580 257T594 200Q594 157 575 121T520 57T435 15T328 0H-62L-59 11Q-50 12 -39 14T-19 20Q15 29 36 62Q50 85 61
119T86 204L149 458Q161 504 166 532T171 579Q171 602 162 615T136 635Q124 640 113 642T94 646L97 657H392Q500 657 558 625T617 520ZM437 251Q437 269 432 285T415 313T381 332T328 339H273L231 169Q222 134 218 116T214 81Q214 54 227 39Q243 23 276 23H293Q326
23 352 41T398 90T427 162T437 251ZM479 554Q479 592 462 612T406 633H388Q382 633 376 632T363 628Q351 622 344 608T331 573L279 363H341Q374 363 396 372T435 401Q458 428 468 467T479 554Z" />
<glyph unicode="C" glyph-name="C" horiz-adv-x="592" d="M568 409H556Q558 470 548 515T520 589T476 632T421 647Q382 647 355 628T305 579Q288 558 266 513T223 411T189 288T175 160Q175 124 184 96T214 48Q228 35 244 30T281 24Q323 24 361 41T431 86T489 149T532
221L548 212Q530 170 501 129T435 57T354 6T262 -14Q199 -14 154 7T80 64T36 144T22 236Q22 326 52 405T136 543T262 636T418 670Q448 670 471 664T513 648T543 626T563 602H567L617 647H629L568 409Z" />
<glyph unicode="D" glyph-name="D" horiz-adv-x="697" d="M681 407Q681 356 669 307T635 215T583 134T516 71Q474 42 418 21T298 0H-61L-59 11Q-50 12 -38 14T-18 20Q16 29 37 62Q51 85 62 119T86 204L150 459Q161 504 166 532T171 579Q171 602 162 615T136 635Q125
640 114 642T94 646L97 657H420Q489 657 538 636T619 580T666 500T681 407ZM524 488Q524 523 517 555T496 605Q482 621 463 627T415 633H390Q362 633 350 616T329 565L231 169Q222 134 218 116T214 81Q214 54 227 39Q242 23 274 23H293Q323 23 354 39T418 97Q436
122 455 163T489 255T514 365T524 488Z" />
<glyph unicode="E" glyph-name="E" horiz-adv-x="615" d="M598 444H586Q580 482 566 518T535 581Q519 603 497 618T437 633H409Q372 633 355 613T327 551L277 352H303Q346 352 368 360T407 383Q430 403 448 432T474 485H486L413 192H401Q403 205 403 220T401 249T395
277T384 299Q376 312 357 320T299 329H271L231 169Q222 133 218 111T215 74Q217 45 233 34T280 23H304Q339 23 372 40T437 87Q482 125 512 164T556 228H568L500 0H-62L-59 11Q-50 12 -38 14T-18 20Q18 31 36 62Q50 85 62 119T86 204L149 459Q160 504 166 532T172
579Q172 602 163 615T136 636Q125 641 114 643T94 646L97 657H610L598 444Z" />
<glyph unicode="F" glyph-name="F" horiz-adv-x="575" d="M600 425H587Q584 443 579 463T566 504T551 542T533 573Q516 599 493 616T437 634H407Q373 634 354 614T325 552L278 365H305Q348 365 370 372T409 395Q432 415 450 444T477 498H488L415 205H403Q404 218
404 233T402 262T396 290T386 312Q378 324 359 332T302 341H272L237 202Q215 113 215 78Q215 55 224 42T251 21Q262 16 273 14T293 11L290 0H-62L-59 11Q-50 12 -39 14T-20 20Q-3 26 10 35T34 62Q48 85 60 119T84 204L147 458Q158 504 163 532T169 579Q169 602
160 615T134 635Q122 640 111 642T92 646L95 657H613L600 425Z" />
<glyph unicode="G" glyph-name="G" horiz-adv-x="642" d="M655 288Q638 287 623 282Q610 278 599 272T580 253Q567 239 559 218T540 160L506 17H496Q491 22 480 27T454 33Q441 33 420 26T385 11Q365 1 333 -6T272 -14Q210 -14 163 7T85 63T37 144T21 238Q21 326
51 404T135 542T261 635T420 670Q480 670 517 649T569 602H573L622 647H634L574 412H561Q563 472 554 516T525 589T480 633T424 648Q402 648 386 643T355 629T328 607T303 578Q287 558 265 514T223 411T188 286T174 157Q174 122 181 94T209 44Q223 29 242 22T281
14Q337 14 361 42Q375 57 383 77T396 121L406 165Q415 205 415 226Q415 246 408 256T387 275Q378 280 368 283T343 288L346 299H658L655 288Z" />
<glyph unicode="H" glyph-name="H" horiz-adv-x="753" d="M823 646Q813 645 802 643T782 638Q747 627 727 595Q712 572 701 538T678 454L615 202Q604 156 599 126T593 78Q593 55 602 42T629 22Q640 17 651 15T670 11L667 0H326L329 11Q338 12 347 14T364 19Q381
26 392 35T415 61Q429 84 439 117T461 201L490 318H268L238 199Q227 154 221 125T215 77Q215 53 223 41T247 21Q255 16 264 14T282 11L279 0H-62L-59 11Q-50 12 -38 14T-18 20Q-1 26 12 35T36 62Q50 85 61 119T86 204L148 456Q159 501 165 531T171 579Q171 602
162 615T135 635Q124 640 113 642T93 646L96 657H437L434 646Q426 644 418 643T402 638Q385 631 373 622T349 596Q335 573 325 540T302 456L275 346H497L525 458Q536 503 542 532T548 579Q548 620 517 636Q507 641 499 642T482 646L484 657H826L823 646Z" />
<glyph unicode="I" glyph-name="I" horiz-adv-x="377" d="M447 646Q437 645 426 643T406 638Q372 628 350 595Q336 572 325 538T302 454L239 201Q228 156 223 126T217 78Q217 55 226 42T252 22Q263 17 274 15T294 11L291 0H-62L-59 11Q-50 12 -38 14T-18 20Q15
29 36 62Q50 85 62 119T86 203L148 456Q159 501 165 531T171 579Q171 602 162 615T135 636Q124 641 113 643T93 646L96 657H449L447 646Z" />
<glyph unicode="J" glyph-name="J" horiz-adv-x="469" d="M558 646Q549 645 537 643T517 638Q484 628 462 595Q447 572 436 538T413 454L348 195Q337 153 315 115T260 49T184 3T86 -14Q46 -14 17 -3T-32 26T-61 67T-71 115Q-71 156 -46 180T14 204Q45 204 69 184T93
125Q93 100 83 86T68 63Q62 55 54 47T46 31Q46 20 56 14T78 8Q97 8 110 13T138 35Q155 55 164 82T183 147L259 456Q270 501 276 531T282 579Q282 602 273 615T247 635Q235 640 224 642T205 646L208 657H560L558 646Z" />
<glyph unicode="K" glyph-name="K" horiz-adv-x="680" d="M509 -14Q471 -14 447 0T409 37T389 90T381 151Q379 178 379 195T378 226V250Q378 261 377 274Q375 306 361 317T327 329Q310 329 294 320T262 297L239 202Q228 156 222 126T215 77Q215 53 223 41T247
21Q255 16 266 14T285 11L283 0H-62L-59 11Q-50 12 -38 14T-18 20Q15 29 36 62Q50 85 61 119T86 204L148 456Q159 501 165 531T171 579Q171 602 163 615T137 635Q125 640 113 642T93 646L96 657H441L438 646Q419 644 402 638Q385 631 373 622T349 595Q335 572 325
538T301 454L271 330L475 508Q507 537 528 559T549 604Q549 628 524 638Q515 642 507 643T488 646L491 657H745L743 646Q726 643 702 636T658 618Q645 612 631 603T600 582T560 551T510 507L338 360L337 356Q348 361 366 365T399 370Q428 370 452 362T495 333T524
278T539 192Q541 150 545 122T555 78T572 55T596 48Q616 48 631 64T655 100L668 94Q661 75 649 56T617 21T570 -4T509 -14Z" />
<glyph unicode="L" glyph-name="L" horiz-adv-x="572" d="M-59 11Q-50 12 -38 14T-18 20Q18 31 36 62Q50 85 61 119T86 204L148 456Q159 501 165 531T171 579Q171 602 162 615T135 636Q124 641 113 643T94 646L96 657H446L443 646Q435 645 422 642T400 635Q386
630 373 620T349 595Q335 572 325 538T302 454L230 169Q222 138 218 116T213 78Q213 52 225 40Q241 24 279 24H297Q332 24 364 41T428 87Q473 126 503 164T548 225H559L491 0H-62L-59 11Z" />
<glyph unicode="M" glyph-name="M" horiz-adv-x="847" d="M260 -4L212 568H208L110 174Q103 147 99 120T95 78Q95 52 105 37T133 17Q141 15 151 14T172 11L169 0H-60L-57 11Q-49 12 -40 13T-22 17Q-8 22 5 30T31 55Q42 68 56 98T82 176L154 460Q160 484 164 502T170
533T174 558T175 580Q175 601 166 616T136 639Q129 641 118 643T99 646L101 657H355L393 214H398L660 657H916L913 646Q903 645 892 643T872 638Q837 627 816 595Q802 572 791 538T768 454L705 201Q694 156 689 127T683 80Q683 57 692 43T718 21Q730 16 741 14T760
11L757 0H417L420 11Q429 12 438 14T455 19Q472 26 484 35T506 60Q520 83 529 117T551 200L642 568H636L305 -4H260Z" />
<glyph unicode="N" glyph-name="N" horiz-adv-x="650" d="M722 646Q715 644 707 644T690 640Q677 635 665 628T641 604Q632 591 620 564T595 482L473 -8H441L201 528H197L108 174Q101 145 98 119T94 78Q94 52 104 37T132 17Q140 15 150 14T171 11L168 0H-62L-59
11Q-51 12 -41 13T-23 17Q-9 22 4 30T29 55Q40 68 54 98T80 176L151 459Q157 481 160 497T166 526T169 549T170 571Q170 592 156 611T121 638Q113 640 102 642T83 646L85 657H319L503 239H506L564 475Q573 511 577 537T581 577Q581 602 570 617T540 639Q533 642
523 643T501 646L504 657H724L722 646Z" />
<glyph unicode="O" glyph-name="O" horiz-adv-x="654" d="M642 413Q642 365 631 315T599 218T547 130T474 59Q429 26 376 6T261 -14Q208 -14 164 4T89 55T40 136T22 243Q22 291 33 341T65 438T117 526T190 597Q235 631 288 650T403 670Q456 670 500 652T575 601T624
520T642 413ZM490 519Q490 582 469 615T405 648Q373 648 345 628T297 576Q283 556 262 509T222 401T188 271T174 138Q174 75 196 42T261 8Q293 8 320 28T367 80Q381 101 402 147T442 255T476 385T490 519Z" />
<glyph unicode="P" glyph-name="P" horiz-adv-x="597" d="M630 508Q630 482 621 456T594 407T554 364T504 332Q474 318 429 309T312 299H262L237 201Q215 113 215 79Q215 36 250 22Q262 17 274 15T294 11L291 0H-62L-59 11Q-50 12 -39 14T-20 20Q13 29 34 62Q48
85 59 119T84 203L147 459Q158 504 163 532T169 579Q169 602 160 615T134 636Q123 641 112 643T92 646L95 657H421Q481 657 521 646T585 614T619 567T630 508ZM479 561Q479 593 463 613T411 633H389Q375 633 365 630T347 615Q341 608 337 597T328 565L267 322H316Q356
322 380 334T421 369Q434 385 445 408T463 458T475 511T479 561Z" />
<glyph unicode="Q" glyph-name="Q" horiz-adv-x="656" d="M537 -276Q507 -276 480 -268T424 -244T364 -206T297 -157Q268 -135 245 -118T201 -88T160 -70T118 -64Q107 -64 92 -70T77 -88Q77 -94 85 -101T99 -114Q106 -122 110 -131T115 -158Q115 -186 97 -200T56
-215Q32 -215 14 -200T-5 -151Q-5 -122 13 -101T56 -65T105 -43T139 -31Q159 -24 180 -17T228 -2V1Q134 12 80 76T25 250Q25 299 36 349T70 445T124 532T197 602Q242 635 294 652T406 670Q461 670 504 652T579 599T626 518T643 413Q643 369 634 323T606 235T560
154T496 87Q462 58 425 39T349 8Q331 3 308 -3T260 -17T209 -31T159 -47V-49Q212 -49 251 -53T323 -64T383 -80T443 -101Q494 -118 536 -131T619 -144Q643 -144 662 -136T695 -115T721 -85T740 -50L754 -56Q741 -102 721 -145T675 -220Q655 -243 620 -259T537 -276ZM491
520Q491 580 469 614T405 648Q373 648 347 628T301 576Q287 555 266 511T224 408T190 283T176 151Q176 91 199 56T265 20Q298 20 323 40T368 92Q382 112 403 157T443 261T477 387T491 520Z" />
<glyph unicode="R" glyph-name="R" horiz-adv-x="662" d="M506 -13Q467 -13 442 -1T401 33T379 84T372 145Q371 187 370 219T361 279Q355 300 342 310T299 321H267L237 201Q215 113 215 79Q215 36 250 22Q262 17 275 15T297 11L294 0H-62L-59 11Q-50 12 -39 14T-20
20Q13 29 34 62Q48 85 59 119T84 204L147 459Q158 504 163 532T169 579Q169 602 160 615T134 636Q122 641 111 643T92 646L95 657H411Q470 657 510 647T575 619T611 574T622 517Q622 464 588 424T499 359Q479 350 454 344T395 332L394 328Q421 325 439 318T475
298Q498 281 513 252T531 179Q534 138 538 112T548 71T564 51T586 45Q604 45 620 61T645 99L659 94Q651 75 639 56T608 22T564 -3T506 -13ZM472 561Q472 594 459 613T414 633H389Q365 633 353 622Q339 608 330 573L273 345H318Q354 345 377 353T421 384Q433 399
442 421T458 467T468 515T472 561Z" />
<glyph unicode="S" glyph-name="S" horiz-adv-x="526" d="M480 445H467Q467 493 457 535T427 605Q413 625 391 637T333 649Q285 649 260 623T234 551Q234 508 260 478T326 417Q364 387 392 363T438 314T465 262T474 198Q474 153 455 114T401 47T322 2T225 -14Q173
-14 130 7T61 65H56L0 3H-9L43 251H56Q60 197 71 153T103 76T154 26T225 8Q282 8 313 36T345 113Q345 135 339 153T318 189T280 227T222 275Q196 296 175 317T138 361T114 410T105 471Q105 510 120 546T164 610T236 654T334 671Q389 671 424 650T473 607H475L515
654H528L480 445Z" />
<glyph unicode="T" glyph-name="T" horiz-adv-x="620" d="M652 437H640Q633 477 621 513T585 579Q542 633 478 633H457L351 202Q329 113 329 78Q329 55 338 42T364 22Q375 17 386 15T405 11L403 0H50L53 11Q62 12 74 14T94 20Q127 29 148 62Q162 85 173 119T198
203L304 633H283Q219 633 160 579Q130 550 102 515T42 437H30L102 657H681L652 437Z" />
<glyph unicode="U" glyph-name="U" horiz-adv-x="667" d="M744 646Q738 644 730 644T713 640Q699 635 687 627T664 603Q654 591 642 560T616 475L550 214Q536 159 516 117T464 45T391 1T290 -14Q178 -14 123 36T68 178Q68 188 70 203T75 237T83 274T91 309L127
456Q138 501 144 531T150 579Q150 602 141 615T114 636Q103 641 92 643T73 646L75 657H418L414 646Q398 645 380 638Q363 631 351 622T328 595Q315 577 305 546T283 464L223 218Q218 195 215 172T212 125Q212 77 239 48T321 18Q405 18 452 70T522 215L587 473Q596
508 600 535T604 577Q604 602 592 617T562 639Q546 644 523 646L526 657H747L744 646Z" />
<glyph unicode="V" glyph-name="V" horiz-adv-x="629" d="M768 646Q757 644 743 640T719 631Q683 614 652 586T589 519L144 0H27L142 456Q164 544 164 579Q164 602 155 615T128 635Q117 640 106 642T87 646L90 657H432L430 646Q420 645 410 643T393 638Q376 631
365 622T342 596Q328 573 318 539T295 454L215 127H220L549 512Q567 533 576 551T585 588Q585 618 559 631Q547 638 536 641T507 646L509 657H770L768 646Z" />
<glyph unicode="W" glyph-name="W" horiz-adv-x="968" d="M395 0L508 445H505L130 0H21L136 456Q158 544 158 579Q158 602 149 615T122 636Q111 641 100 643T81 646L84 657H424L421 646Q412 645 403 643T386 638Q369 632 358 623T336 597Q322 574 312 539T289
455L216 148H221L518 499Q523 520 527 542T531 579Q531 602 522 615T495 636Q472 645 458 646L461 657H796L794 646Q774 644 758 638Q741 632 730 623T708 597Q694 574 684 539T661 455L589 148H595L893 512Q928 554 928 589Q928 618 903 632Q881 643 851 646L853
657H1115L1112 646Q1101 644 1088 640T1063 631Q1028 614 996 585T933 518L504 0H395Z" />
<glyph unicode="X" glyph-name="X" horiz-adv-x="623" d="M260 265L153 153Q118 117 105 96T91 54Q91 32 113 19Q121 15 129 14T144 11L142 0H-82L-80 11Q-72 13 -64 15T-47 21Q-20 33 -6 44Q26 66 57 95T118 155L252 293L188 515Q173 569 155 595Q144 612 135
620T110 636Q101 641 90 643T71 646L74 657H416L412 646Q395 644 381 640Q357 632 349 620T340 585Q340 574 343 557T354 507L384 406L476 507Q492 525 503 538T521 563T531 583T534 603Q534 626 512 638Q504 642 496 643T481 646L483 657H711L709 646Q701 645
693 643T676 637Q645 624 632 614Q618 606 601 592T566 562T534 531T509 504L393 379L458 146Q466 117 475 97T492 63Q503 46 512 38T537 22Q547 17 557 15T575 11L573 0H229L232 11Q242 12 251 14T269 18Q292 26 300 39T308 74Q308 85 305 101T293 150L260 265Z"
/>
<glyph unicode="Y" glyph-name="Y" horiz-adv-x="569" d="M695 646Q683 644 670 640T643 629Q630 623 617 614T587 590T552 553T509 497L353 277L335 202Q324 156 318 126T312 78Q312 55 321 42T348 22Q371 13 390 11L387 0H34L37 11Q46 12 58 14T78 20Q111 29
132 62Q146 85 158 120T181 203L198 273L125 548Q111 599 88 619T32 646L34 657H358L356 646Q348 645 336 643T315 637Q304 632 294 622T283 592Q283 577 288 558T299 517L348 322H354L486 507Q512 543 522 565T532 604Q532 617 525 625T509 638Q503 641 495 643T478
646L481 657H697L695 646Z" />
<glyph unicode="Z" glyph-name="Z" horiz-adv-x="562" d="M619 646L143 23H204Q299 23 379 83Q431 122 463 158T515 220H527L452 0H-56L-54 12L423 634H360Q320 634 279 621T193 578Q178 568 162 554T129 524T99 492T72 461H60L132 657H622L619 646Z" />
<glyph unicode="[" glyph-name="bracketleft" horiz-adv-x="400" d="M478 647Q478 596 445 562T357 528Q333 528 309 536T265 557T228 589T201 627L26 -74Q64 -26 112 -1T210 24Q259 25 284 4T309 -56Q309 -77 301 -94T281 -123T259 -144T243 -156L232 -154Q237
-146 241 -135T245 -115Q245 -92 230 -78T180 -64Q129 -64 80 -79T-18 -115L178 666Q197 656 221 648T271 635T323 626T375 623Q404 623 423 639T442 685Q442 691 442 695T439 707H451Q456 702 467 688T478 647Z" />
<glyph unicode="\" glyph-name="backslash" horiz-adv-x="273" d="M243 -101L29 678L59 688L274 -91L243 -101Z" />
<glyph unicode="]" glyph-name="bracketright" horiz-adv-x="404" d="M220 -115Q201 -105 177 -97T127 -84T74 -75T22 -72Q-7 -72 -26 -88T-46 -134Q-46 -140 -45 -144L-42 -156H-54Q-59 -151 -70 -137T-81 -96Q-81 -71 -73 -50T-48 -12T-10 13T39 23Q63 23 87
15T132 -6T169 -38T196 -76L372 626Q334 578 286 553T187 527Q138 526 113 547T88 607Q88 628 96 645T116 674T138 695T154 707L165 705Q160 697 157 686T153 666Q153 644 167 630T217 615Q268 615 317 630T415 666L220 -115Z" />
<glyph unicode="^" glyph-name="asciicircum" horiz-adv-x="351" d="M195 657H220L346 409H320L207 633L95 409H69L195 657Z" />
<glyph unicode="_" glyph-name="underscore" horiz-adv-x="318" d="M-86 -163L-80 -136H229L222 -163H-86Z" />
<glyph unicode="`" glyph-name="grave" horiz-adv-x="368" d="M180 673Q200 673 215 663T250 630Q270 605 292 576T344 507L338 498Q309 508 275 521T208 548Q175 562 155 581T134 622Q134 646 147 659T180 673Z" />
<glyph unicode="a" glyph-name="a" horiz-adv-x="517" d="M386 71Q386 58 391 53T404 47Q425 47 453 73T503 134L516 126Q500 99 479 75T433 32T380 2T321 -9Q293 -9 274 7T255 60Q255 72 258 87L263 112H260Q247 88 238 74T211 41Q189 17 163 4T110 -9Q88 -9
69 -3T36 19T14 58T6 119Q6 155 17 193T48 268T95 337T153 394T219 433T288 447Q319 447 334 433T353 397H358Q365 409 369 418T381 438H496Q484 400 467 347T430 235Q409 172 398 132T386 71ZM332 373Q332 425 302 425Q287 425 271 413T234 365Q217 336 201 296T170
216T148 140T139 86Q139 59 147 51T166 42Q179 42 192 52T218 80Q236 106 246 123T267 166Q279 193 290 223T311 280T326 332T332 373Z" />
<glyph unicode="b" glyph-name="b" horiz-adv-x="484" d="M469 304Q469 279 462 248T443 186T413 126T375 77Q331 34 284 13T170 -9Q127 -9 98 3T50 36T24 81T16 131Q16 155 23 192T45 272L143 569Q150 591 153 604T157 629Q157 650 145 661Q140 666 130 669T107
674L110 684H311Q317 684 317 679Q317 675 313 666T303 642Q299 632 296 624T290 605T282 583T273 555L215 374H221Q244 411 277 429T342 447Q397 447 433 412T469 304ZM337 369Q337 416 304 416Q288 416 276 408T250 385Q235 368 224 351T202 311Q191 287 179
253T157 184T141 118T135 67Q135 9 170 9Q198 9 219 31T263 101Q272 120 284 153T308 223T328 299T337 369Z" />
<glyph unicode="c" glyph-name="c" horiz-adv-x="426" d="M428 357Q428 331 412 314T370 297Q344 297 330 311T316 349Q316 357 318 365L322 381Q324 389 326 396T329 410Q329 428 306 428Q283 428 263 410T226 360Q211 333 199 302T177 238T162 175T156 118Q156
80 172 58T223 35Q245 35 266 44T305 69T339 102T366 137L378 129Q361 100 339 75T289 31T226 2T149 -9Q117 -9 92 2T50 35T24 84T14 145Q14 181 24 214T51 278T89 333T135 379Q179 414 225 430T308 447Q367 447 397 421T428 357Z" />
<glyph unicode="d" glyph-name="d" horiz-adv-x="526" d="M334 378Q333 426 302 426Q286 426 270 414T233 366Q217 338 200 298T170 216T148 140T139 87Q139 61 146 52T165 42Q179 42 192 52T218 80Q227 93 233 103T245 123T256 143T266 167Q278 195 290 226T312
285T328 338T334 378ZM259 114Q247 89 237 74T210 41Q188 16 162 4T109 -9Q61 -9 33 22T5 120Q5 176 31 234T100 339T194 417T299 447Q322 447 335 439T353 419H357L405 569Q413 591 416 604T420 629Q420 650 408 661Q403 666 392 669T369 674L373 684H574Q579
684 579 679Q579 675 575 666T566 642Q562 632 559 624T553 605T545 583T536 555Q517 501 499 445T465 342Q447 287 431 237Q412 178 401 135T389 68Q389 48 405 48Q415 48 427 55T453 73T480 100T504 134L516 127Q500 100 480 76T435 32T383 2T325 -9Q296 -9 276
8T255 61Q255 72 258 87T263 114H259Z" />
<glyph unicode="e" glyph-name="e" horiz-adv-x="418" d="M376 129Q361 102 340 78T291 34T229 3T152 -9Q90 -9 52 33T13 152Q13 190 23 224T51 288T93 343T145 388Q186 417 227 432T301 447Q363 447 389 424T416 364Q416 320 373 286Q360 276 339 265T290 242T231
220T166 201Q155 143 155 94Q155 63 168 45T206 27Q237 27 261 38T305 65T339 101T365 137L376 129ZM169 220Q201 230 228 243T272 271Q284 282 293 297T308 329T317 362T320 389Q320 407 315 417T296 428Q276 428 257 411T222 366T192 300T169 220Z" />
<glyph unicode="f" glyph-name="f" horiz-adv-x="299" d="M261 411Q241 333 218 257T169 111T110 -17T40 -119T-44 -186T-144 -211Q-165 -211 -185 -206T-220 -191T-245 -164T-254 -127Q-254 -98 -237 -85T-202 -72Q-175 -72 -163 -85T-149 -117Q-148 -131 -151
-146T-153 -170Q-152 -181 -146 -186T-129 -191Q-104 -191 -88 -179T-54 -140Q-16 -77 18 56T100 385Q102 392 103 398T107 411H36L43 438H115Q136 508 165 556T228 632T299 673T372 686Q433 686 464 662T496 604Q496 583 482 568T442 552Q390 552 388 600Q388
611 390 625T393 649Q393 669 371 669Q362 669 350 663T328 636Q322 622 316 605T302 565T287 511T268 438H364L356 411H261Z" />
<glyph unicode="g" glyph-name="g" horiz-adv-x="445" d="M249 430Q232 430 219 418T196 385Q190 370 184 350T172 307T164 262T161 224Q161 201 170 186T199 171Q233 171 252 215Q258 230 264 251T275 294T283 338T286 377Q286 400 278 415T249 430ZM128 -213Q86
-213 49 -207T-16 -187T-60 -154T-77 -106Q-77 -90 -67 -75T-38 -48T7 -28T64 -17V-15Q28 -2 12 21T-5 78Q-5 100 5 116T31 145T69 165T113 177Q85 194 69 223T53 287Q53 328 71 358T118 408T182 437T250 447Q288 447 317 434T364 396H367Q371 425 394 442T447
460Q474 460 491 446T509 406Q509 383 496 373T467 363Q451 363 441 370T423 390Q416 401 411 409T399 417Q393 417 387 409T381 380Q381 371 383 364T388 348Q391 340 393 330T395 311Q395 270 377 240T330 191T267 162T199 153Q175 153 159 158T130 166Q112 164
101 156T89 134Q89 116 116 110T200 93Q253 84 289 73T347 47T378 11T388 -40Q388 -81 367 -113T310 -167T227 -201T128 -213ZM131 -196Q166 -196 196 -190T248 -171T282 -142T295 -105Q295 -78 264 -66T165 -40Q149 -37 131 -34T94 -26Q78 -28 61 -33T30 -48T6
-73T-4 -111Q-4 -154 32 -175T131 -196Z" />
<glyph unicode="h" glyph-name="h" horiz-adv-x="543" d="M-13 0Q-12 3 1 43T33 142T76 271T119 403T155 511T174 569Q181 591 184 604T188 629Q188 650 176 661Q171 666 161 669T138 674L141 684H341Q346 684 346 679Q346 675 342 666T333 642Q329 632 326 624T320
605T312 583T303 555L216 285H223Q247 330 271 361T320 412T366 439T410 448Q455 448 474 425T493 364Q493 334 481 298T447 205Q428 156 416 119T404 67Q404 47 418 47Q427 47 439 54T466 73T494 100T519 134L532 127Q516 100 494 76T445 32T388 2T328 -9Q298
-9 280 7T261 56Q261 69 266 88T278 131T295 179T315 231Q335 283 348 318T362 371Q362 383 357 387T343 392Q320 392 277 339T184 161Q178 145 170 125T154 82L139 39Q132 18 126 0H-13Z" />
<glyph unicode="i" glyph-name="i" horiz-adv-x="308" d="M312 586Q312 556 291 537T242 517Q213 517 193 537T173 586Q173 615 193 635T242 656Q270 656 291 636T312 586ZM126 372Q126 386 121 390T106 395Q94 395 73 376T22 312L9 319Q46 386 96 416T195 447Q227
447 243 429T260 379Q260 359 247 316T215 220Q205 194 197 170T182 125T173 89T169 66Q169 47 184 47Q193 47 205 54T231 73T259 100T284 134L297 127Q281 100 259 75T210 32T154 2T93 -10Q64 -10 46 7T27 56Q27 69 32 89T45 132T62 180T80 229Q87 248 95 269T110
309T121 345T126 372Z" />
<glyph unicode="j" glyph-name="j" horiz-adv-x="275" d="M321 588Q321 558 301 539T251 519Q223 519 203 539T182 588Q182 617 202 637T251 658Q279 658 300 638T321 588ZM196 141Q173 77 154 33T119 -43T86 -97T50 -139Q20 -169 -23 -191T-115 -213Q-140 -213
-162 -207T-200 -188T-227 -158T-237 -118Q-237 -88 -219 -69T-172 -49Q-138 -49 -123 -68T-108 -110Q-108 -125 -111 -135T-120 -155Q-124 -162 -127 -168T-130 -178Q-130 -186 -125 -189T-112 -193Q-95 -193 -81 -184T-50 -150Q-43 -139 -34 -116T-13 -64T10
-2T32 62T51 118T66 160Q74 184 85 217T107 283T125 339T132 372Q132 385 127 389T112 394Q100 394 79 375T28 311L15 319Q52 386 102 416T200 447Q235 447 251 429T268 379Q268 367 261 339T243 277T219 206T196 141Z" />
<glyph unicode="k" glyph-name="k" horiz-adv-x="531" d="M338 -9Q310 -9 289 9T268 56Q268 82 274 108T287 155Q291 168 293 180T296 203Q296 226 286 238T245 250H208L127 0H-13L175 569Q182 591 185 604T189 629Q189 650 177 661Q172 666 162 669T139 674L142
684H344Q349 684 349 679Q349 675 346 666T337 642Q333 632 330 624T324 607T316 585L306 555L214 268H252Q274 268 291 276T320 296T340 321T355 345Q368 370 379 388T404 421Q431 448 467 448Q501 448 519 427T538 375Q538 342 521 324T480 305Q457 305 441 317T425
356Q425 360 427 368T432 385L439 399Q442 405 442 407Q442 414 434 414Q419 414 406 393T371 334Q357 310 340 290T297 261V257Q409 242 412 149Q412 141 412 131T409 107Q407 93 407 84T408 68Q409 47 425 47Q442 47 468 70T516 130L528 122Q513 96 493 73T448
31T396 2T338 -9Z" />
<glyph unicode="l" glyph-name="l" horiz-adv-x="292" d="M192 220Q172 164 159 124T146 67Q146 47 160 47Q170 47 184 54T212 73T241 101T266 135L279 127Q263 100 241 76T192 32T135 2T73 -9Q41 -9 23 8T5 58Q5 71 11 93T25 142T43 194T61 241Q66 256 75 281T94
338T116 404T138 469T158 527T172 569Q177 582 181 599T186 629Q186 651 175 661Q170 666 159 669T136 674L139 684H342Q348 684 348 679Q348 675 344 666T334 642Q326 622 321 605T304 555Q285 501 267 446T233 345T207 265T192 220Z" />
<glyph unicode="m" glyph-name="m" horiz-adv-x="821" d="M538 56Q538 69 543 88T555 131T572 179T592 230Q613 283 625 317T638 369Q638 381 633 385T619 390Q607 390 587 371T543 315T492 226T440 107L423 56Q417 38 412 22T404 0H262Q276 45 289 85L313 157Q324
189 331 209T339 233L367 318Q379 353 379 369Q379 381 375 385T361 390Q350 390 334 377T297 333T252 255T200 139Q195 127 189 111T176 76T162 38T149 0H12Q23 33 36 72T61 149T84 217T101 265Q112 300 117 324T123 368Q123 397 102 397Q90 397 68 377T18 312L4
319Q41 385 86 416T177 447Q214 447 230 429T247 379Q247 356 242 325T228 261H235Q260 315 286 350T338 407T388 438T433 447Q478 447 494 425T510 363Q510 347 505 322T488 261H493Q519 313 544 348T594 406T642 437T686 447Q731 447 750 425T770 363Q770 333
758 297T724 205Q705 156 693 119T681 67Q681 48 695 48Q704 48 716 55T743 73T771 100T796 134L809 127Q793 100 771 76T722 32T665 2T605 -9Q576 -9 557 7T538 56Z" />
<glyph unicode="n" glyph-name="n" horiz-adv-x="564" d="M552 127Q536 100 514 76T465 32T408 2T348 -9Q318 -9 300 7T281 56Q281 69 286 88T298 131T315 179T335 230Q356 283 369 317T382 368Q382 381 377 385T363 390Q352 390 335 376T297 332T251 255T199
139Q186 107 174 72T149 0H11Q22 33 35 72T60 149T83 217T100 265Q111 300 117 324T123 368Q123 397 102 397Q89 397 68 377T18 312L4 320Q41 386 86 416T176 447Q213 447 230 429T247 379Q247 356 242 325T227 260H234Q286 363 337 405T431 447Q476 447 494 425T513
363Q513 333 501 297T467 204Q448 155 436 119T424 67Q424 48 438 48Q447 48 460 55T486 73T514 100T539 134L552 127Z" />
<glyph unicode="o" glyph-name="o" horiz-adv-x="462" d="M174 -9Q99 -9 57 38T13 162Q13 223 38 281T107 381Q141 412 186 429T281 447Q318 447 348 435T399 399T431 345T442 274Q442 214 417 156T348 58Q315 27 269 9T174 -9ZM284 430Q267 430 253 419T222 377Q210
353 195 312T167 225T145 133T136 58Q136 36 144 22T172 8Q188 8 203 20T233 59Q246 84 261 124T289 211T311 302T320 383Q320 405 311 417T284 430Z" />
<glyph unicode="p" glyph-name="p" horiz-adv-x="538" d="M250 328Q278 388 316 417T395 447Q420 447 443 440T483 417T510 371T521 299Q521 234 490 170T407 58Q374 27 332 9T241 -9Q212 -9 191 -4T159 9L153 -7Q149 -21 144 -37T134 -66T128 -84Q122 -101 118
-119T114 -152Q114 -165 119 -176T139 -195Q145 -199 157 -202T180 -207L177 -217H-122L-119 -207Q-103 -205 -89 -201T-64 -188Q-50 -177 -41 -161T-22 -114Q-21 -111 -11 -82T13 -10T43 82T73 174T97 247T108 282Q116 307 120 327T125 366Q125 397 104 397Q92
397 69 375T18 308L5 316Q42 382 87 414T179 447Q215 447 232 428T250 377Q250 369 248 355T244 328H250ZM391 365Q391 388 383 400T358 413Q343 413 331 406T307 385Q290 368 274 340T249 283Q241 260 230 227T208 160T187 94T171 43Q177 30 191 22T222 13Q242
13 258 26T295 71Q310 92 327 128T358 207T381 291T391 365Z" />
<glyph unicode="q" glyph-name="q" horiz-adv-x="493" d="M335 -84Q329 -101 325 -119T320 -152Q320 -183 345 -195Q355 -200 365 -202T386 -207L383 -217H77L80 -207Q98 -204 115 -198T142 -185Q159 -171 169 -151T191 -100L260 104H255Q244 81 233 67T205 36Q161
-9 109 -9Q61 -9 34 22T6 119Q6 155 18 193T51 268T101 337T163 394T232 433T303 447Q328 447 346 440T375 423T392 400T400 376H407L490 444H510Q509 441 496 402T464 305T423 181T382 57T350 -40T335 -84ZM333 374Q333 402 325 414T302 426Q286 426 271 413T234
365Q218 336 202 296T172 216T150 140T141 86Q141 61 148 51T166 41Q180 41 193 52T220 80Q235 102 245 121T267 165Q279 194 291 224T312 283T327 334T333 374Z" />
<glyph unicode="r" glyph-name="r" horiz-adv-x="441" d="M231 256Q252 314 271 351T309 410T347 439T387 447Q422 447 443 428T465 370Q465 336 449 316T405 296Q359 296 343 342L334 367Q331 376 323 376Q315 376 305 364T281 323T246 248T199 134Q186 102 174
69T149 0H13Q23 33 36 72T61 149T84 217T101 265Q112 300 117 324T123 368Q123 396 102 396Q89 396 68 377T17 312L4 319Q41 385 86 416T176 447Q213 447 229 429T245 379Q245 353 239 321T224 256H231Z" />
<glyph unicode="s" glyph-name="s" horiz-adv-x="367" d="M359 360Q359 337 346 323T309 308Q287 308 274 320T259 351Q257 368 259 378T259 401Q257 413 247 421T219 429Q191 429 179 414T167 376Q167 351 184 329T239 277Q281 239 304 207T327 137Q327 104 311
77T270 31T211 2T144 -9Q81 -9 40 18T-2 94Q-2 123 13 138T51 154Q98 154 101 108Q103 90 98 76T93 47Q95 27 112 18T149 9Q182 9 202 25T223 74Q223 86 219 95T204 116T178 141T137 178Q105 209 88 237T71 308Q71 342 84 368T119 412T168 438T225 447Q252 447
276 442T318 427T348 400T359 360Z" />
<glyph unicode="t" glyph-name="t" horiz-adv-x="310" d="M146 65Q146 47 161 47Q171 47 185 54T214 74T243 102T270 135L282 127Q266 100 244 76T195 33T138 3T76 -9Q47 -9 28 8T9 56Q9 69 14 89T26 134T42 183T59 229Q74 269 87 305Q98 335 109 365T125 411H59L67
438H134Q135 442 142 461T157 504T172 548T181 575H313Q311 569 304 549T290 505T276 462T268 438H367L358 411H259Q254 394 244 363T222 299Q209 262 194 220Q174 160 160 120T146 65Z" />
<glyph unicode="u" glyph-name="u" horiz-adv-x="569" d="M429 70Q429 46 449 46Q459 46 471 53T497 72T524 100T549 134L561 126Q545 99 525 75T480 32T429 2T372 -9Q337 -9 319 11T300 70Q300 92 305 117T320 175H313Q285 119 259 84T208 28T159 -1T112 -9Q80
-9 58 13T35 75Q35 107 47 142T82 233Q101 282 113 318T125 371Q125 396 107 396Q94 396 73 377T22 312L9 320Q46 386 92 416T184 447Q225 447 245 428T265 376Q265 350 250 305T214 208Q194 156 182 122T169 71Q169 48 188 48Q210 48 253 108T352 304Q365 336
377 369T402 438H539Q528 405 515 366T490 288T467 219T450 171Q439 136 434 113T429 70Z" />
<glyph unicode="v" glyph-name="v" horiz-adv-x="443" d="M79 233Q98 282 110 318T122 371Q122 396 104 396Q91 396 69 377T19 312L6 320Q43 386 89 416T181 447Q221 447 241 425T261 371Q261 344 246 303T210 207Q190 157 179 125T167 75Q167 61 174 51T197 40Q227
40 260 62T321 120T368 198T387 283Q387 303 383 320T366 360Q358 375 354 385T350 404Q350 424 362 435T390 447Q438 447 438 371Q438 347 432 317T414 254T389 191T359 136Q340 108 315 82T260 36T196 3T125 -9Q85 -9 59 14T33 82Q33 113 46 147T79 233Z" />
<glyph unicode="w" glyph-name="w" horiz-adv-x="738" d="M464 -9Q425 -9 397 6T351 47Q313 22 272 7T184 -9Q131 -9 98 22T64 111Q64 144 78 175T112 232T155 280T196 317Q183 322 165 332T126 356Q106 369 92 378T65 387Q62 387 59 385T55 378Q55 373 62 367T74
355L84 339Q89 331 89 322Q89 302 78 289T46 276Q23 276 13 290T3 324Q3 342 17 362T46 397Q64 416 89 431T140 447Q158 447 175 438T206 417Q226 403 239 396T264 389Q274 389 281 396T293 416Q301 433 307 440T324 447Q331 447 336 443T341 431Q341 422 332 415T316
402Q300 392 286 370Q273 350 259 323T234 263T215 194T207 122Q207 86 224 66T270 45Q285 45 302 51T336 69Q317 104 317 142Q317 185 326 224T351 296T386 357T425 404Q448 427 469 437T505 447Q529 447 544 428T560 369Q560 312 532 252T460 139Q472 95 494
76T548 57Q573 57 592 69T627 104Q653 141 666 189T679 285Q679 305 671 323T651 365Q644 381 642 388T640 403Q640 420 650 433T680 446Q701 446 714 427T728 369Q728 346 724 312T709 240T682 163T644 92Q614 48 571 20T464 -9ZM495 413Q479 413 461 385T443
294Q443 256 445 227T452 168Q487 213 509 262T532 351Q532 385 521 399T495 413Z" />
<glyph unicode="x" glyph-name="x" horiz-adv-x="530" d="M548 379Q548 346 528 313T484 256L473 260Q484 283 491 314T499 368Q499 391 493 405T467 420Q453 420 435 407T399 369Q361 313 336 217Q323 169 320 145T317 105Q317 73 326 59T356 45Q372 45 387 54T416
76T441 106T461 136L473 129Q460 104 442 79T400 35T350 3T295 -9Q239 -9 217 21T195 103Q195 112 196 122T199 142H195Q184 116 167 89T130 41T86 5T38 -9Q10 -9 -7 9T-24 60Q-24 93 -4 125T40 181L51 176Q40 153 32 122T24 68Q24 45 31 31T57 17Q71 17 89 30T124
67Q144 95 159 133T188 220Q201 268 204 293T207 333Q207 365 198 378T169 392Q153 392 138 383T110 361T85 331T66 302L54 309Q67 334 86 359T128 403T178 435T231 447Q288 447 309 416T330 333Q330 324 329 314T326 296H330Q341 322 358 349T396 397T440 433T486
447Q514 447 531 430T548 379Z" />
<glyph unicode="y" glyph-name="y" horiz-adv-x="421" d="M73 379Q59 379 43 363T7 311L-6 319Q23 378 61 412T149 447Q183 447 205 425T243 359Q249 341 256 313T268 248T278 172T283 91H287Q320 148 339 199T359 296Q359 334 341 367Q336 374 332 384T328 403Q328
426 340 436T368 447Q388 447 398 433T409 396Q409 341 395 286T357 180T303 80T239 -9T173 -84T113 -142Q76 -174 39 -193T-33 -213Q-69 -213 -90 -194T-112 -148Q-112 -119 -95 -105T-60 -91Q-37 -91 -25 -99T0 -124Q8 -134 18 -143T43 -153Q52 -153 66 -146T95
-127Q112 -113 130 -95T169 -54Q168 -16 164 32T153 129T137 225T118 305Q107 340 98 359T73 379Z" />
<glyph unicode="z" glyph-name="z" horiz-adv-x="474" d="M481 415Q481 401 469 386T440 359Q438 358 427 349T399 325T363 295T327 265T299 241T285 230Q273 221 256 210T221 186T186 162T157 141Q165 142 174 142T194 142Q211 141 233 138T272 132Q295 127 316
122T354 116Q375 116 391 122T421 149Q429 160 434 169T445 190L459 184Q448 150 435 116T402 54T355 9T290 -9Q256 -9 233 4T188 40Q166 65 150 82T116 99Q106 99 97 92T81 73T69 49T60 26Q55 12 44 2T17 -9Q1 -9 -6 1T-14 23Q-14 37 -5 48T19 69Q23 72 31 77T49
89L67 101Q76 107 81 110L334 312Q326 310 315 309T295 308Q266 308 240 315T181 338Q162 348 141 358T107 368Q86 368 71 354T56 313Q56 303 60 298T68 290Q73 311 87 322T119 333Q139 333 155 320T171 281Q171 260 156 244T117 228Q84 228 61 253T38 327Q38 354
47 376T73 414T112 438T158 447Q195 447 218 434T262 401Q272 392 282 380T303 358T324 341T343 334Q357 334 367 341T385 361T398 387T408 414Q413 430 424 439T448 448Q465 448 473 438T481 415Z" />
<glyph unicode="{" glyph-name="braceleft" horiz-adv-x="376" d="M273 -142Q167 -139 112 -102T57 5Q57 20 64 46T81 100T98 155T106 195Q106 233 88 249T28 270L32 287Q52 288 70 291T101 304Q121 318 134 344T157 407Q163 433 166 454T177 506Q197 594 274
636T467 680L463 666Q413 664 381 633T329 526Q326 512 324 501T319 481T315 461T310 437Q296 369 239 328T94 280L93 275Q170 266 205 230T240 147Q240 129 233 101T217 44T201 -10T194 -48Q194 -89 217 -106T276 -128L273 -142Z" />
<glyph unicode="|" glyph-name="bar" horiz-adv-x="204" d="M92 -99V687H121V-99H92Z" />
<glyph unicode="}" glyph-name="braceright" horiz-adv-x="348" d="M-113 -127Q-63 -125 -31 -95T21 12Q25 26 27 36T32 57L36 77Q38 87 41 101Q55 170 112 211T256 259L257 263Q180 272 145 308T110 392Q110 410 117 437T133 494T149 548T156 586Q156 627 133
645T74 666L77 680Q183 677 237 643T292 537Q292 522 285 496T268 440T252 384T244 344Q245 305 262 289T322 268L318 251Q298 250 280 247T248 234Q228 220 215 194T194 131Q187 105 184 84T174 32Q164 -12 139 -44T76 -98T-10 -131T-116 -142L-113 -127Z" />
<glyph unicode="~" glyph-name="asciitilde" horiz-adv-x="361" d="M231 212Q215 212 198 216T165 225T132 234T101 238Q77 238 60 228T32 191L15 194Q21 215 29 238T51 279T82 310T127 322Q140 322 156 318T189 310T222 301T253 297Q280 297 297 307T325 343L342
341Q337 318 329 295T307 254T276 224T231 212Z" />
<glyph unicode="&#xa0;" glyph-name="uni00A0" horiz-adv-x="320" />
<glyph unicode="&#xa1;" glyph-name="exclamdown" horiz-adv-x="283" d="M315 601Q315 573 296 553T247 532Q217 532 197 552T177 601Q177 629 196 649T247 670Q277 670 296 650T315 601ZM88 -16Q51 -16 30 7T8 66Q8 82 16 104T37 152T66 207T100 270Q129 327
154 381T196 473H214Q210 449 208 427T203 382T199 332T195 273Q191 206 192 163T190 87Q185 41 160 13T88 -16Z" />
<glyph unicode="&#xa2;" glyph-name="cent" horiz-adv-x="438" d="M440 358Q440 332 424 315T381 298Q355 298 341 312T327 350Q327 358 329 366T333 384Q339 399 339 411Q339 419 332 423T314 428L208 37Q220 34 238 36Q258 39 277 49T315 73T347 105T373 137L384
129Q354 77 309 39T196 -7L171 -98L149 -94L173 -8Q151 -8 134 -4Q80 5 47 46T14 145Q14 180 24 214T51 280T91 337T139 383Q177 412 218 428T296 447L318 529L340 526L319 447Q374 445 407 419T440 358ZM156 118Q156 65 187 46L290 425Q273 420 258 404T228 365Q213
340 200 308T177 241T162 175T156 118Z" />
<glyph unicode="&#xa3;" glyph-name="sterling" horiz-adv-x="656" d="M689 554Q689 524 679 502T651 464T611 442T565 435Q546 435 528 440T493 456T465 481T449 512L462 519Q470 500 492 488T537 476Q569 476 591 500T613 567Q613 602 596 623T548 644Q502 644
469 603T419 498Q408 456 396 406T368 305H502L495 279H360Q346 242 332 211T297 149Q326 142 355 138T408 134Q481 134 523 153T589 218L604 213Q601 169 583 126T535 50T464 -5T372 -26Q346 -26 322 -20T277 -5T237 15T204 39Q172 15 134 0T50 -15Q26 -15 5 -10T-32
7T-57 36T-67 76Q-67 98 -57 117T-27 150T19 173T78 181Q101 181 128 178T184 168Q187 195 189 224T193 279H93L99 305H195Q198 341 207 376Q224 442 260 495T342 587T440 646T543 667Q614 667 651 638T689 554ZM170 70Q139 97 108 118T42 139Q14 139 -5 124T-25
77Q-25 47 -4 28T56 9Q91 9 120 26T170 70Z" />
<glyph unicode="&#xa5;" glyph-name="yen" horiz-adv-x="525" d="M11 194L18 220H163L183 300H38L45 327H174L106 546Q92 594 70 615T15 643L17 654H335L332 643Q324 642 314 641T296 636Q283 631 272 621T260 589Q260 574 264 555T275 514L326 347H331L457 504Q486
541 496 563T506 602Q506 616 499 623T480 636Q474 639 466 640T451 643L453 654H670L668 643Q657 641 646 639T624 631Q610 625 596 615T565 590T528 551T481 494L346 327H492L485 300H335L315 220H465L457 194H309Q298 150 293 123T288 78Q288 53 299 40T327
20Q337 16 348 14T366 11L364 0H10L13 11Q36 13 55 19Q72 25 86 35T111 63Q125 83 136 116T157 194H11Z" />
<glyph unicode="&#xa7;" glyph-name="section" horiz-adv-x="448" d="M472 582Q472 560 459 543T417 526Q391 526 377 541T363 577Q363 589 365 601T367 626Q367 638 353 644T319 650Q288 650 269 629T250 577Q250 556 255 540T270 508T293 477T324 442Q345 419
362 399T392 356T412 310T419 258Q419 231 408 207T378 162T334 125T279 99Q314 46 314 -9Q314 -50 296 -82T248 -138T184 -173T115 -186Q40 -186 4 -160T-33 -96Q-33 -74 -19 -57T23 -39Q49 -39 63 -55T77 -91Q77 -103 75 -114T73 -138Q73 -150 86 -157T120 -165Q156
-165 175 -143T194 -89Q194 -64 188 -45T170 -10T145 22T115 55Q93 79 76 100T46 143T27 188T20 241Q20 268 31 293T62 340T106 376T160 401Q131 447 131 497Q131 538 148 570T193 624T255 658T323 670Q398 670 435 645T472 582ZM136 317Q136 295 142 278T160 243T189
208T227 168Q238 156 248 144T267 118Q283 127 293 143T303 179Q303 200 296 217T277 252T249 288T212 329Q189 355 171 382Q156 373 146 356T136 317Z" />
<glyph unicode="&#xa8;" glyph-name="dieresis" horiz-adv-x="395" d="M70 580Q70 606 88 625T132 644Q160 644 178 626T196 581Q196 555 178 537T132 518Q105 518 88 536T70 580ZM246 580Q246 606 264 625T309 644Q336 644 354 626T373 581Q373 555 355 537T309
518Q282 518 264 536T246 580Z" />
<glyph unicode="&#xa9;" glyph-name="copyright" horiz-adv-x="885" d="M865 259Q865 173 833 98T744 -34T612 -123T452 -156Q366 -156 291 -123T159 -34T69 97T36 259Q36 344 69 419T158 550T290 639T452 672Q537 672 612 640T743 551T832 419T865 259ZM838 259Q838
340 807 411T723 534T600 617T452 648Q374 648 304 618T180 535T95 411T63 259Q63 176 94 105T179 -19T303 -102T452 -133Q530 -133 600 -103T723 -20T807 104T838 259ZM647 190Q640 160 625 130T587 77T532 40T457 25Q404 25 364 39T297 76Q258 107 235 154T212
263Q212 320 232 363T287 435T367 480T463 495Q517 495 551 479T606 439H610L630 474H640V299H625Q616 330 606 361T579 417T537 457T472 473Q453 473 435 464T403 437Q364 386 364 266Q364 230 368 203T378 155T393 119T411 92Q425 76 442 70T481 63Q587 63 629
196L647 190Z" />
<glyph unicode="&#xaa;" glyph-name="ordfeminine" horiz-adv-x="462" d="M496 387Q467 339 424 304T326 269Q301 269 284 283T266 331Q266 341 268 354T274 377H270Q259 355 250 342T226 312Q185 269 136 269Q97 269 71 293T45 382Q45 429 67 480T124 573T204
642T295 669Q323 669 336 656T351 624H357Q362 635 367 643T377 661H479Q468 628 453 580T420 481Q401 425 392 391T382 340Q382 319 399 319Q418 319 441 341T483 394L496 387ZM332 602Q332 649 306 649Q293 649 280 639T247 597Q232 572 218 537T191 466T172
400T164 355Q164 331 170 323T186 315Q197 315 208 324T232 348Q248 371 256 386T275 424Q286 448 296 473T314 522T327 566T332 602Z" />
<glyph unicode="&#xab;" glyph-name="guillemotleft" horiz-adv-x="439" d="M324 243L393 92L382 81L220 238L223 252L439 410L449 398L324 243ZM138 243L206 92L196 81L33 238L37 252L253 410L262 398L138 243Z" />
<glyph unicode="&#xae;" glyph-name="registered" horiz-adv-x="545" d="M543 421Q543 370 523 325T469 245T389 191T292 171Q240 171 195 191T115 245T60 324T40 421Q40 472 60 517T114 597T194 651T292 671Q343 671 389 651T469 597T523 518T543 421ZM518 421Q518
467 500 509T452 582T380 631T292 650Q245 650 204 632T131 582T82 509T64 421Q64 374 82 333T131 260T203 210T292 191Q338 191 379 209T451 259T500 332T518 421ZM345 290Q331 311 326 350Q324 370 321 385T310 412Q299 430 276 430H258V336Q258 327 260 322Q262
317 264 313T272 306Q276 304 283 304T295 303V290H149V303Q153 303 159 303T170 306Q176 308 178 312T183 322Q185 327 185 335V528Q185 537 183 542Q180 553 170 557Q166 559 160 560T149 561V573H299Q403 573 403 504Q403 477 381 460T317 438V436Q355 433 374
419T401 362Q407 333 413 324T427 310Q430 308 438 306T451 303V290H345ZM324 504Q324 533 315 545T281 557H258V444H278Q304 444 314 460T324 504Z" />
<glyph unicode="&#xaf;" glyph-name="macron" horiz-adv-x="367" d="M86 545L99 596H341L328 545H86Z" />
<glyph unicode="&#xb0;" glyph-name="degree" horiz-adv-x="300" d="M317 544Q317 515 307 492T279 452T239 426T191 416Q166 416 144 425T104 451T76 491T65 544Q65 572 75 596T103 636T143 662T191 672Q216 672 239 663T279 637T306 596T317 544ZM273 544Q273
598 251 626T191 654Q153 654 131 626T109 544Q109 491 131 463T191 435Q229 435 251 463T273 544Z" />
<glyph unicode="&#xb4;" glyph-name="acute" horiz-adv-x="358" d="M342 621Q342 596 325 582T280 556Q252 544 208 530T108 498L103 507Q123 529 139 546T168 577T193 603T217 626Q240 648 257 659T292 671Q315 671 328 659T342 621Z" />
<glyph unicode="&#xb6;" glyph-name="paragraph" horiz-adv-x="516" d="M597 637H516L320 -151H293L490 637H388L191 -151H165L265 248H243Q198 248 163 262T102 300T63 355T49 422Q49 474 69 517T126 592T212 640T322 657H602L597 637Z" />
<glyph unicode="&#xb7;" glyph-name="periodcentered" horiz-adv-x="279" d="M216 270Q216 239 195 218T142 197Q112 197 91 218T70 270Q70 301 91 322T142 344Q172 344 194 323T216 270Z" />
<glyph unicode="&#xb8;" glyph-name="cedilla" horiz-adv-x="353" d="M223 -103Q223 -141 189 -164T86 -187Q64 -187 44 -181T13 -167L21 -155Q30 -160 45 -163T76 -167Q111 -167 131 -152T151 -103Q151 -83 141 -71T115 -59Q98 -59 85 -70L70 -62L105 1H127L99
-49Q107 -44 121 -41T149 -37Q184 -37 203 -54T223 -103Z" />
<glyph unicode="&#xba;" glyph-name="ordmasculine" horiz-adv-x="401" d="M424 513Q424 460 401 410T341 325Q312 298 273 282T189 266Q123 266 86 307T47 416Q47 469 70 520T131 606Q160 633 199 649T283 666Q348 666 386 624T424 513ZM315 607Q315 650 285
650Q271 650 259 640T232 604Q221 583 208 547T184 470T164 390T156 326Q156 306 162 294T186 282Q201 282 213 292T239 326Q250 347 263 383T288 459T307 538T315 607Z" />
<glyph unicode="&#xbb;" glyph-name="guillemotright" horiz-adv-x="439" d="M414 239L198 81L188 93L313 248L244 399L255 410L418 253L414 239ZM227 239L11 81L2 93L126 248L58 399L68 410L231 253L227 239Z" />
<glyph unicode="&#xbf;" glyph-name="questiondown" horiz-adv-x="440" d="M427 608Q427 582 410 564T366 546Q339 546 321 564T303 608Q303 633 321 651T366 669Q392 669 409 651T427 608ZM438 405Q438 370 424 346T385 303T325 272T250 246Q203 232 175 217T130
186T109 150T103 108Q103 63 129 35T215 7Q239 7 260 15T297 37T322 70T331 113Q331 152 311 170T268 188Q257 188 248 181T238 166Q251 162 264 149T278 113Q278 89 263 74T224 59Q201 59 186 74T170 116Q170 131 181 148T210 179T253 203T306 212Q348 212 372
187T396 124Q396 94 379 69T333 24T267 -5T190 -16Q145 -16 110 -5T51 27T13 74T0 134Q0 180 15 216T57 279T121 326T204 362Q237 373 262 382T303 401T328 422T337 449Q337 466 325 475T295 484Q268 484 252 472T224 447L215 456Q227 479 253 498T323 517Q372
517 405 487T438 405Z" />
<glyph unicode="&#xc0;" glyph-name="Agrave" horiz-adv-x="625" d="M204 274H362L425 526H420L204 274ZM356 249H182L94 145Q77 125 68 107T58 69Q58 55 64 44T82 26Q95 19 107 16T136 11L133 0H-129L-127 11Q-116 13 -103 16T-80 25Q-45 42 -11 73T52 137L500
657H613L499 202Q477 113 477 78Q477 55 486 42T512 22Q535 13 554 11L551 0H209L211 11Q221 12 230 14T248 20Q265 26 276 35T298 61Q312 84 322 118T346 204L356 249ZM650 699Q600 710 565 717T494 733Q459 741 436 755T412 795Q412 820 426 834T460 849Q480
849 494 841T532 814Q557 794 585 769T656 709L650 699Z" />
<glyph unicode="&#xc1;" glyph-name="Aacute" horiz-adv-x="625" d="M204 274H362L425 526H420L204 274ZM356 249H182L94 145Q77 125 68 107T58 69Q58 55 64 44T82 26Q95 19 107 16T136 11L133 0H-129L-127 11Q-116 13 -103 16T-80 25Q-45 42 -11 73T52 137L500
657H613L499 202Q477 113 477 78Q477 55 486 42T512 22Q535 13 554 11L551 0H209L211 11Q221 12 230 14T248 20Q265 26 276 35T298 61Q312 84 322 118T346 204L356 249ZM462 708Q509 745 538 770T593 815Q616 834 631 841T665 848Q685 848 699 835T714 796Q714
772 696 759T653 738Q623 729 577 721T468 699L462 708Z" />
<glyph unicode="&#xc2;" glyph-name="Acircumflex" horiz-adv-x="625" d="M204 274H362L425 526H420L204 274ZM356 249H182L94 145Q77 125 68 107T58 69Q58 55 64 44T82 26Q95 19 107 16T136 11L133 0H-129L-127 11Q-116 13 -103 16T-80 25Q-45 42 -11 73T52 137L500
657H613L499 202Q477 113 477 78Q477 55 486 42T512 22Q535 13 554 11L551 0H209L211 11Q221 12 230 14T248 20Q265 26 276 35T298 61Q312 84 322 118T346 204L356 249ZM684 705L577 770L421 704L416 713Q420 716 442 736T491 779T538 822T561 844H618Q619 842
630 822T655 779T679 735T692 712L684 705Z" />
<glyph unicode="&#xc3;" glyph-name="Atilde" horiz-adv-x="625" d="M204 274H362L425 526H420L204 274ZM356 249H182L94 145Q77 125 68 107T58 69Q58 55 64 44T82 26Q95 19 107 16T136 11L133 0H-129L-127 11Q-116 13 -103 16T-80 25Q-45 42 -11 73T52 137L500
657H613L499 202Q477 113 477 78Q477 55 486 42T512 22Q535 13 554 11L551 0H209L211 11Q221 12 230 14T248 20Q265 26 276 35T298 61Q312 84 322 118T346 204L356 249ZM741 838Q726 787 696 754T619 720Q602 720 586 724T553 734T521 743T492 748Q471 748 451
741T415 709L402 712Q419 766 451 796T532 826Q545 826 559 822T589 813T619 804T651 800Q677 800 694 806T728 840L741 838Z" />
<glyph unicode="&#xc4;" glyph-name="Adieresis" horiz-adv-x="625" d="M204 274H362L425 526H420L204 274ZM356 249H182L94 145Q77 125 68 107T58 69Q58 55 64 44T82 26Q95 19 107 16T136 11L133 0H-129L-127 11Q-116 13 -103 16T-80 25Q-45 42 -11 73T52 137L500
657H613L499 202Q477 113 477 78Q477 55 486 42T512 22Q535 13 554 11L551 0H209L211 11Q221 12 230 14T248 20Q265 26 276 35T298 61Q312 84 322 118T346 204L356 249ZM386 775Q386 802 405 822T452 842Q481 842 499 822T518 776Q518 749 500 730T452 710Q423
710 405 729T386 775ZM611 775Q611 802 629 822T676 842Q705 842 724 822T743 776Q743 749 724 730T676 710Q647 710 629 729T611 775Z" />
<glyph unicode="&#xc5;" glyph-name="Aring" horiz-adv-x="625" d="M204 274H362L425 526H420L204 274ZM356 249H182L94 145Q77 125 68 107T58 69Q58 55 64 44T82 26Q95 19 107 16T136 11L133 0H-129L-127 11Q-116 13 -103 16T-80 25Q-45 42 -11 73T52 137L500
657H613L499 202Q477 113 477 78Q477 55 486 42T512 22Q535 13 554 11L551 0H209L211 11Q221 12 230 14T248 20Q265 26 276 35T298 61Q312 84 322 118T346 204L356 249ZM669 789Q669 769 662 753T643 726T615 708T581 701Q546 701 520 724T493 789Q493 829 519
852T581 876Q616 876 642 853T669 789ZM639 788Q639 818 623 834T580 851Q555 851 539 835T522 789Q522 760 538 744T580 727Q606 727 622 743T639 788Z" />
<glyph unicode="&#xc6;" glyph-name="AE" horiz-adv-x="902" d="M479 608H473Q468 602 449 579T403 524T345 453T285 380T232 317T197 275H395L479 608ZM885 444H873Q868 482 854 518T822 581Q806 604 784 618T724 633H700Q670 633 654 620Q643 612 635 597T618
551L568 352H590Q633 352 655 360T694 383Q717 403 735 432T761 485H773L700 192H688Q690 205 690 220T688 249T682 277T671 299Q663 312 644 320T586 329H562L522 169Q513 134 509 114T505 78Q505 52 516 41Q524 32 538 28T571 23H591Q626 23 660 40T727 87Q771
125 800 164T844 228H855L787 0H229L232 11Q242 12 253 14T273 20Q308 31 328 62Q342 85 353 119T377 204L389 249H175Q169 242 155 225T126 190Q108 169 89 145Q54 102 54 69Q54 55 60 44T79 26Q91 19 103 16T132 11L130 0H-135L-133 11Q-122 13 -109 18T-84 29Q-49
48 -17 77T42 137L448 620Q443 624 433 628T412 636T392 643T379 646L382 657H897L885 444Z" />
<glyph unicode="&#xc7;" glyph-name="Ccedilla" horiz-adv-x="592" d="M302 -104Q302 -142 268 -165T165 -188Q143 -188 123 -182T92 -168L100 -156Q109 -161 124 -164T155 -168Q190 -168 210 -153T230 -104Q230 -84 220 -72T194 -60Q177 -60 164 -71L149 -63L182
-3Q167 1 154 7Q109 29 80 64T36 144T22 236Q22 326 52 405T136 543T262 636T418 670Q448 670 471 664T513 648T543 626T563 602H567L617 647H629L568 409H556Q558 470 548 515T520 589T476 632T421 647Q382 647 355 628T305 579Q288 558 266 513T223 411T189 288T175
160Q175 124 184 96T214 48Q228 35 244 30T281 24Q323 24 361 41T431 86T489 149T532 221L548 212Q530 170 501 129T435 57T354 6T262 -14Q229 -14 201 -8L178 -50Q186 -45 200 -42T228 -38Q263 -38 282 -55T302 -104Z" />
<glyph unicode="&#xc8;" glyph-name="Egrave" horiz-adv-x="615" d="M488 699Q438 710 403 717T332 733Q297 741 274 755T250 795Q250 820 264 834T298 849Q318 849 332 841T370 814Q395 794 423 769T494 709L488 699ZM598 444H586Q580 482 566 518T535 581Q519
603 497 618T437 633H409Q372 633 355 613T327 551L277 352H303Q346 352 368 360T407 383Q430 403 448 432T474 485H486L413 192H401Q403 205 403 220T401 249T395 277T384 299Q376 312 357 320T299 329H271L231 169Q222 133 218 111T215 74Q217 45 233 34T280
23H304Q339 23 372 40T437 87Q482 125 512 164T556 228H568L500 0H-62L-59 11Q-50 12 -38 14T-18 20Q18 31 36 62Q50 85 62 119T86 204L149 459Q160 504 166 532T172 579Q172 602 163 615T136 636Q125 641 114 643T94 646L97 657H610L598 444Z" />
<glyph unicode="&#xc9;" glyph-name="Eacute" horiz-adv-x="615" d="M302 708Q349 745 378 770T433 815Q456 834 471 841T505 848Q525 848 539 835T554 796Q554 772 536 759T493 738Q463 729 417 721T308 699L302 708ZM598 444H586Q580 482 566 518T535 581Q519
603 497 618T437 633H409Q372 633 355 613T327 551L277 352H303Q346 352 368 360T407 383Q430 403 448 432T474 485H486L413 192H401Q403 205 403 220T401 249T395 277T384 299Q376 312 357 320T299 329H271L231 169Q222 133 218 111T215 74Q217 45 233 34T280
23H304Q339 23 372 40T437 87Q482 125 512 164T556 228H568L500 0H-62L-59 11Q-50 12 -38 14T-18 20Q18 31 36 62Q50 85 62 119T86 204L149 459Q160 504 166 532T172 579Q172 602 163 615T136 636Q125 641 114 643T94 646L97 657H610L598 444Z" />
<glyph unicode="&#xca;" glyph-name="Ecircumflex" horiz-adv-x="615" d="M522 705L415 770L259 704L254 713Q258 716 280 736T329 779T376 822T399 844H456Q457 842 468 822T493 779T517 735T530 712L522 705ZM598 444H586Q580 482 566 518T535 581Q519 603 497
618T437 633H409Q372 633 355 613T327 551L277 352H303Q346 352 368 360T407 383Q430 403 448 432T474 485H486L413 192H401Q403 205 403 220T401 249T395 277T384 299Q376 312 357 320T299 329H271L231 169Q222 133 218 111T215 74Q217 45 233 34T280 23H304Q339
23 372 40T437 87Q482 125 512 164T556 228H568L500 0H-62L-59 11Q-50 12 -38 14T-18 20Q18 31 36 62Q50 85 62 119T86 204L149 459Q160 504 166 532T172 579Q172 602 163 615T136 636Q125 641 114 643T94 646L97 657H610L598 444Z" />
<glyph unicode="&#xcb;" glyph-name="Edieresis" horiz-adv-x="615" d="M598 444H586Q580 482 566 518T535 581Q519 603 497 618T437 633H409Q372 633 355 613T327 551L277 352H303Q346 352 368 360T407 383Q430 403 448 432T474 485H486L413 192H401Q403 205
403 220T401 249T395 277T384 299Q376 312 357 320T299 329H271L231 169Q222 133 218 111T215 74Q217 45 233 34T280 23H304Q339 23 372 40T437 87Q482 125 512 164T556 228H568L500 0H-62L-59 11Q-50 12 -38 14T-18 20Q18 31 36 62Q50 85 62 119T86 204L149 459Q160
504 166 532T172 579Q172 602 163 615T136 636Q125 641 114 643T94 646L97 657H610L598 444ZM228 775Q228 802 247 822T294 842Q323 842 341 822T360 776Q360 749 342 730T294 710Q265 710 247 729T228 775ZM453 775Q453 802 471 822T518 842Q547 842 566 822T585
776Q585 749 566 730T518 710Q489 710 471 729T453 775Z" />
<glyph unicode="&#xcc;" glyph-name="Igrave" horiz-adv-x="377" d="M447 646Q437 645 426 643T406 638Q372 628 350 595Q336 572 325 538T302 454L239 201Q228 156 223 126T217 78Q217 55 226 42T252 22Q263 17 274 15T294 11L291 0H-62L-59 11Q-50 12 -38 14T-18
20Q15 29 36 62Q50 85 62 119T86 203L148 456Q159 501 165 531T171 579Q171 602 162 615T135 636Q124 641 113 643T93 646L96 657H449L447 646ZM380 699Q330 710 295 717T224 733Q189 741 166 755T142 795Q142 820 156 834T190 849Q210 849 224 841T262 814Q287
794 315 769T386 709L380 699Z" />
<glyph unicode="&#xcd;" glyph-name="Iacute" horiz-adv-x="377" d="M447 646Q437 645 426 643T406 638Q372 628 350 595Q336 572 325 538T302 454L239 201Q228 156 223 126T217 78Q217 55 226 42T252 22Q263 17 274 15T294 11L291 0H-62L-59 11Q-50 12 -38 14T-18
20Q15 29 36 62Q50 85 62 119T86 203L148 456Q159 501 165 531T171 579Q171 602 162 615T135 636Q124 641 113 643T93 646L96 657H449L447 646ZM194 708Q241 745 270 770T325 815Q348 834 363 841T397 848Q417 848 431 835T446 796Q446 772 428 759T385 738Q355
729 309 721T200 699L194 708Z" />
<glyph unicode="&#xce;" glyph-name="Icircumflex" horiz-adv-x="377" d="M447 646Q437 645 426 643T406 638Q372 628 350 595Q336 572 325 538T302 454L239 201Q228 156 223 126T217 78Q217 55 226 42T252 22Q263 17 274 15T294 11L291 0H-62L-59 11Q-50 12 -38
14T-18 20Q15 29 36 62Q50 85 62 119T86 203L148 456Q159 501 165 531T171 579Q171 602 162 615T135 636Q124 641 113 643T93 646L96 657H449L447 646ZM414 705L307 770L151 704L146 713Q150 716 172 736T221 779T268 822T291 844H348Q349 842 360 822T385 779T409
735T422 712L414 705Z" />
<glyph unicode="&#xcf;" glyph-name="Idieresis" horiz-adv-x="377" d="M447 646Q437 645 426 643T406 638Q372 628 350 595Q336 572 325 538T302 454L239 201Q228 156 223 126T217 78Q217 55 226 42T252 22Q263 17 274 15T294 11L291 0H-62L-59 11Q-50 12 -38
14T-18 20Q15 29 36 62Q50 85 62 119T86 203L148 456Q159 501 165 531T171 579Q171 602 162 615T135 636Q124 641 113 643T93 646L96 657H449L447 646ZM376 775Q376 802 395 822T442 842Q471 842 489 822T508 776Q508 749 490 730T442 710Q413 710 395 729T376
775ZM601 775Q601 802 619 822T666 842Q695 842 714 822T733 776Q733 749 714 730T666 710Q637 710 619 729T601 775Z" />
<glyph unicode="&#xd0;" glyph-name="Eth" horiz-adv-x="697" d="M29 320L36 349H122L150 459Q161 504 166 532T171 579Q171 602 162 615T136 635Q125 640 114 642T94 646L97 657H420Q489 657 538 636T619 580T666 500T681 407Q681 356 669 307T635 215T583 134T516
71Q474 42 418 21T298 0H-61L-59 11Q-50 12 -38 14T-18 20Q16 29 37 62Q51 85 62 119T86 204L115 320H29ZM524 488Q524 522 518 553T497 603Q483 620 464 626T415 633H390Q363 633 351 616T329 565L275 349H399L392 320H268L231 169Q222 134 218 116T214 81Q214
54 227 39Q242 23 274 23H293Q323 23 354 39T417 97Q436 122 455 163T489 255T514 365T524 488Z" />
<glyph unicode="&#xd1;" glyph-name="Ntilde" horiz-adv-x="650" d="M623 838Q608 787 578 754T501 720Q484 720 468 724T435 734T403 743T374 748Q353 748 333 741T297 709L284 712Q301 766 333 796T414 826Q427 826 441 822T471 813T501 804T533 800Q559 800
576 806T610 840L623 838ZM722 646Q715 644 707 644T690 640Q677 635 665 628T641 604Q632 591 620 564T595 482L473 -8H441L201 528H197L108 174Q101 145 98 119T94 78Q94 52 104 37T132 17Q140 15 150 14T171 11L168 0H-62L-59 11Q-51 12 -41 13T-23 17Q-9 22
4 30T29 55Q40 68 54 98T80 176L151 459Q157 481 160 497T166 526T169 549T170 571Q170 592 156 611T121 638Q113 640 102 642T83 646L85 657H319L503 239H506L564 475Q573 511 577 537T581 577Q581 602 570 617T540 639Q533 642 523 643T501 646L504 657H724L722
646Z" />
<glyph unicode="&#xd2;" glyph-name="Ograve" horiz-adv-x="654" d="M513 699Q463 710 428 717T357 733Q322 741 299 755T275 795Q275 820 289 834T323 849Q343 849 357 841T395 814Q420 794 448 769T519 709L513 699ZM642 413Q642 365 631 315T599 218T547 130T474
59Q429 26 376 6T261 -14Q208 -14 164 4T89 55T40 136T22 243Q22 291 33 341T65 438T117 526T190 597Q235 631 288 650T403 670Q456 670 500 652T575 601T624 520T642 413ZM490 519Q490 582 469 615T405 648Q373 648 345 628T297 576Q283 556 262 509T222 401T188
271T174 138Q174 75 196 42T261 8Q293 8 320 28T367 80Q381 101 402 147T442 255T476 385T490 519Z" />
<glyph unicode="&#xd3;" glyph-name="Oacute" horiz-adv-x="654" d="M327 708Q374 745 403 770T458 815Q481 834 496 841T530 848Q550 848 564 835T579 796Q579 772 561 759T518 738Q488 729 442 721T333 699L327 708ZM642 413Q642 365 631 315T599 218T547 130T474
59Q429 26 376 6T261 -14Q208 -14 164 4T89 55T40 136T22 243Q22 291 33 341T65 438T117 526T190 597Q235 631 288 650T403 670Q456 670 500 652T575 601T624 520T642 413ZM490 519Q490 582 469 615T405 648Q373 648 345 628T297 576Q283 556 262 509T222 401T188
271T174 138Q174 75 196 42T261 8Q293 8 320 28T367 80Q381 101 402 147T442 255T476 385T490 519Z" />
<glyph unicode="&#xd4;" glyph-name="Ocircumflex" horiz-adv-x="654" d="M546 705L439 770L283 704L278 713Q282 716 304 736T353 779T400 822T423 844H480Q481 842 492 822T517 779T541 735T554 712L546 705ZM642 413Q642 365 631 315T599 218T547 130T474 59Q429
26 376 6T261 -14Q208 -14 164 4T89 55T40 136T22 243Q22 291 33 341T65 438T117 526T190 597Q235 631 288 650T403 670Q456 670 500 652T575 601T624 520T642 413ZM490 519Q490 582 469 615T405 648Q373 648 345 628T297 576Q283 556 262 509T222 401T188 271T174
138Q174 75 196 42T261 8Q293 8 320 28T367 80Q381 101 402 147T442 255T476 385T490 519Z" />
<glyph unicode="&#xd5;" glyph-name="Otilde" horiz-adv-x="654" d="M604 838Q589 787 559 754T482 720Q465 720 449 724T416 734T384 743T355 748Q334 748 314 741T278 709L265 712Q282 766 314 796T395 826Q408 826 422 822T452 813T482 804T514 800Q540 800
557 806T591 840L604 838ZM642 413Q642 365 631 315T599 218T547 130T474 59Q429 26 376 6T261 -14Q208 -14 164 4T89 55T40 136T22 243Q22 291 33 341T65 438T117 526T190 597Q235 631 288 650T403 670Q456 670 500 652T575 601T624 520T642 413ZM490 519Q490
582 469 615T405 648Q373 648 345 628T297 576Q283 556 262 509T222 401T188 271T174 138Q174 75 196 42T261 8Q293 8 320 28T367 80Q381 101 402 147T442 255T476 385T490 519Z" />
<glyph unicode="&#xd6;" glyph-name="Odieresis" horiz-adv-x="654" d="M251 775Q251 802 270 822T317 842Q346 842 364 822T383 776Q383 749 365 730T317 710Q288 710 270 729T251 775ZM476 775Q476 802 494 822T541 842Q570 842 589 822T608 776Q608 749 589
730T541 710Q512 710 494 729T476 775ZM642 413Q642 365 631 315T599 218T547 130T474 59Q429 26 376 6T261 -14Q208 -14 164 4T89 55T40 136T22 243Q22 291 33 341T65 438T117 526T190 597Q235 631 288 650T403 670Q456 670 500 652T575 601T624 520T642 413ZM490
519Q490 582 469 615T405 648Q373 648 345 628T297 576Q283 556 262 509T222 401T188 271T174 138Q174 75 196 42T261 8Q293 8 320 28T367 80Q381 101 402 147T442 255T476 385T490 519Z" />
<glyph unicode="&#xd7;" glyph-name="multiply" horiz-adv-x="458" d="M232 260L376 115L361 99L216 245L75 102L60 117L201 260L59 405L74 420L217 276L361 422L377 407L232 260Z" />
<glyph unicode="&#xd8;" glyph-name="Oslash" horiz-adv-x="654" d="M642 413Q642 365 631 315T599 219T547 131T475 60Q430 26 376 6T261 -14Q214 -14 175 0L142 -65L119 -56L152 9Q115 26 88 55Q57 89 40 136T22 243Q22 289 32 337T61 431T109 516T175 586Q222
625 279 647T403 670Q445 670 481 658L511 717L533 707L504 650Q545 632 575 600Q607 567 624 520T642 413ZM490 519Q490 567 477 597L196 42V41Q219 8 261 8Q293 8 320 28T367 80Q381 101 402 147T442 255T476 385T490 519ZM405 648Q373 648 345 628T297 576Q283
556 262 509T222 401T188 271T174 138Q174 98 183 70L463 622Q442 648 405 648Z" />
<glyph unicode="&#xd9;" glyph-name="Ugrave" horiz-adv-x="667" d="M554 699Q504 710 469 717T398 733Q363 741 340 755T316 795Q316 820 330 834T364 849Q384 849 398 841T436 814Q461 794 489 769T560 709L554 699ZM744 646Q738 644 730 644T713 640Q699 635
687 627T664 603Q654 591 642 560T616 475L550 214Q536 159 516 117T464 45T391 1T290 -14Q178 -14 123 36T68 178Q68 188 70 203T75 237T83 274T91 309L127 456Q138 501 144 531T150 579Q150 602 141 615T114 636Q103 641 92 643T73 646L75 657H418L414 646Q398
645 380 638Q363 631 351 622T328 595Q315 577 305 546T283 464L223 218Q218 195 215 172T212 125Q212 77 239 48T321 18Q405 18 452 70T522 215L587 473Q596 508 600 535T604 577Q604 602 592 617T562 639Q546 644 523 646L526 657H747L744 646Z" />
<glyph unicode="&#xda;" glyph-name="Uacute" horiz-adv-x="667" d="M365 708Q412 745 441 770T496 815Q519 834 534 841T568 848Q588 848 602 835T617 796Q617 772 599 759T556 738Q526 729 480 721T371 699L365 708ZM744 646Q738 644 730 644T713 640Q699 635
687 627T664 603Q654 591 642 560T616 475L550 214Q536 159 516 117T464 45T391 1T290 -14Q178 -14 123 36T68 178Q68 188 70 203T75 237T83 274T91 309L127 456Q138 501 144 531T150 579Q150 602 141 615T114 636Q103 641 92 643T73 646L75 657H418L414 646Q398
645 380 638Q363 631 351 622T328 595Q315 577 305 546T283 464L223 218Q218 195 215 172T212 125Q212 77 239 48T321 18Q405 18 452 70T522 215L587 473Q596 508 600 535T604 577Q604 602 592 617T562 639Q546 644 523 646L526 657H747L744 646Z" />
<glyph unicode="&#xdb;" glyph-name="Ucircumflex" horiz-adv-x="667" d="M586 705L479 770L323 704L318 713Q322 716 344 736T393 779T440 822T463 844H520Q521 842 532 822T557 779T581 735T594 712L586 705ZM744 646Q738 644 730 644T713 640Q699 635 687 627T664
603Q654 591 642 560T616 475L550 214Q536 159 516 117T464 45T391 1T290 -14Q178 -14 123 36T68 178Q68 188 70 203T75 237T83 274T91 309L127 456Q138 501 144 531T150 579Q150 602 141 615T114 636Q103 641 92 643T73 646L75 657H418L414 646Q398 645 380 638Q363
631 351 622T328 595Q315 577 305 546T283 464L223 218Q218 195 215 172T212 125Q212 77 239 48T321 18Q405 18 452 70T522 215L587 473Q596 508 600 535T604 577Q604 602 592 617T562 639Q546 644 523 646L526 657H747L744 646Z" />
<glyph unicode="&#xdc;" glyph-name="Udieresis" horiz-adv-x="667" d="M744 646Q738 644 730 644T713 640Q699 635 687 627T664 603Q654 591 642 560T616 475L550 214Q536 159 516 117T464 45T391 1T290 -14Q178 -14 123 36T68 178Q68 188 70 203T75 237T83 274T91
309L127 456Q138 501 144 531T150 579Q150 602 141 615T114 636Q103 641 92 643T73 646L75 657H418L414 646Q398 645 380 638Q363 631 351 622T328 595Q315 577 305 546T283 464L223 218Q218 195 215 172T212 125Q212 77 239 48T321 18Q405 18 452 70T522 215L587
473Q596 508 600 535T604 577Q604 602 592 617T562 639Q546 644 523 646L526 657H747L744 646ZM291 775Q291 802 310 822T357 842Q386 842 404 822T423 776Q423 749 405 730T357 710Q328 710 310 729T291 775ZM516 775Q516 802 534 822T581 842Q610 842 629 822T648
776Q648 749 629 730T581 710Q552 710 534 729T516 775Z" />
<glyph unicode="&#xdd;" glyph-name="Yacute" horiz-adv-x="569" d="M695 646Q683 644 670 640T643 629Q630 623 617 614T587 590T552 553T509 497L353 277L335 202Q324 156 318 126T312 78Q312 55 321 42T348 22Q371 13 390 11L387 0H34L37 11Q46 12 58 14T78
20Q111 29 132 62Q146 85 158 120T181 203L198 273L125 548Q111 599 88 619T32 646L34 657H358L356 646Q348 645 336 643T315 637Q304 632 294 622T283 592Q283 577 288 558T299 517L348 322H354L486 507Q512 543 522 565T532 604Q532 617 525 625T509 638Q503
641 495 643T478 646L481 657H697L695 646ZM323 708Q370 745 399 770T454 815Q477 834 492 841T526 848Q546 848 560 835T575 796Q575 772 557 759T514 738Q484 729 438 721T329 699L323 708Z" />
<glyph unicode="&#xde;" glyph-name="Thorn" horiz-adv-x="600" d="M230 163Q225 143 220 119T215 78Q215 53 224 41T251 21Q271 13 290 11L287 0H-62L-59 11Q-50 12 -38 14T-18 20Q-1 26 12 35T36 62Q50 85 61 119T86 204L148 456Q159 501 165 531T171 579Q171
602 162 615T135 635Q124 640 113 642T93 646L96 657H439L436 646Q420 645 402 638Q385 631 372 622T349 596Q336 574 329 553T317 514H383Q443 514 483 503T548 473T582 427T593 369Q593 343 584 318T557 270T518 228T468 196Q437 182 393 173T276 163H230ZM387
234Q400 250 410 272T428 319T439 370T443 419Q443 451 426 470T373 490H358Q344 490 333 486T313 471Q307 463 303 452T293 419L235 186H281Q322 186 345 199T387 234Z" />
<glyph unicode="&#xdf;" glyph-name="germandbls" horiz-adv-x="563" d="M549 584Q549 560 537 541T507 505T468 475T428 448T398 419T386 387Q386 373 394 359T414 331T440 304T467 277Q505 235 523 204T541 138Q541 105 528 78T491 32T438 2T373 -9Q343 -9 317
-2T271 18T240 50T229 93Q229 122 244 138T282 154Q328 154 333 109Q334 90 329 76T324 47Q326 27 343 18T378 9Q438 9 438 70Q438 81 435 90T424 111T401 138T364 178Q341 205 321 236T300 302Q300 331 312 353T342 395T381 432T421 470T451 516T463 575Q463 623
446 646T397 670Q375 670 355 657T321 620Q300 585 287 535T260 434Q239 356 216 278T166 127T105 -7T34 -116T-51 -188T-152 -215Q-173 -215 -193 -210T-228 -194T-253 -167T-262 -129Q-262 -100 -245 -87T-210 -74Q-183 -74 -171 -88T-157 -120Q-156 -134 -159
-148T-161 -173Q-158 -193 -137 -193Q-112 -193 -95 -181T-62 -142Q-43 -111 -23 -52T18 85T61 252T107 435Q127 506 160 554T233 631T313 674T391 687Q465 687 507 659T549 584Z" />
<glyph unicode="&#xe0;" glyph-name="agrave" horiz-adv-x="517" d="M386 71Q386 58 391 53T404 47Q425 47 453 73T503 134L516 126Q500 99 479 75T433 32T380 2T321 -9Q293 -9 274 7T255 60Q255 72 258 87L263 112H260Q247 88 238 74T211 41Q189 17 163 4T110
-9Q88 -9 69 -3T36 19T14 58T6 119Q6 155 17 193T48 268T95 337T153 394T219 433T288 447Q319 447 334 433T353 397H358Q365 409 369 418T381 438H496Q484 400 467 347T430 235Q409 172 398 132T386 71ZM332 373Q332 425 302 425Q287 425 271 413T234 365Q217 336
201 296T170 216T148 140T139 86Q139 59 147 51T166 42Q179 42 192 52T218 80Q236 106 246 123T267 166Q279 193 290 223T311 280T326 332T332 373ZM251 673Q271 673 286 663T321 630Q341 605 363 576T415 507L409 498Q380 508 346 521T279 548Q246 562 226 581T205
622Q205 646 218 659T251 673Z" />
<glyph unicode="&#xe1;" glyph-name="aacute" horiz-adv-x="517" d="M386 71Q386 58 391 53T404 47Q425 47 453 73T503 134L516 126Q500 99 479 75T433 32T380 2T321 -9Q293 -9 274 7T255 60Q255 72 258 87L263 112H260Q247 88 238 74T211 41Q189 17 163 4T110
-9Q88 -9 69 -3T36 19T14 58T6 119Q6 155 17 193T48 268T95 337T153 394T219 433T288 447Q319 447 334 433T353 397H358Q365 409 369 418T381 438H496Q484 400 467 347T430 235Q409 172 398 132T386 71ZM332 373Q332 425 302 425Q287 425 271 413T234 365Q217 336
201 296T170 216T148 140T139 86Q139 59 147 51T166 42Q179 42 192 52T218 80Q236 106 246 123T267 166Q279 193 290 223T311 280T326 332T332 373ZM497 621Q497 596 480 582T435 556Q407 544 363 530T263 498L258 507Q278 529 294 546T323 577T348 603T372 626Q395
648 412 659T447 671Q470 671 483 659T497 621Z" />
<glyph unicode="&#xe2;" glyph-name="acircumflex" horiz-adv-x="517" d="M386 71Q386 58 391 53T404 47Q425 47 453 73T503 134L516 126Q500 99 479 75T433 32T380 2T321 -9Q293 -9 274 7T255 60Q255 72 258 87L263 112H260Q247 88 238 74T211 41Q189 17 163
4T110 -9Q88 -9 69 -3T36 19T14 58T6 119Q6 155 17 193T48 268T95 337T153 394T219 433T288 447Q319 447 334 433T353 397H358Q365 409 369 418T381 438H496Q484 400 467 347T430 235Q409 172 398 132T386 71ZM332 373Q332 425 302 425Q287 425 271 413T234 365Q217
336 201 296T170 216T148 140T139 86Q139 59 147 51T166 42Q179 42 192 52T218 80Q236 106 246 123T267 166Q279 193 290 223T311 280T326 332T332 373ZM457 493L349 578L190 492L183 501Q194 513 218 538T267 590T314 639T340 668H396Q399 662 408 640T428 590T450
538T465 500L457 493Z" />
<glyph unicode="&#xe3;" glyph-name="atilde" horiz-adv-x="517" d="M386 71Q386 58 391 53T404 47Q425 47 453 73T503 134L516 126Q500 99 479 75T433 32T380 2T321 -9Q293 -9 274 7T255 60Q255 72 258 87L263 112H260Q247 88 238 74T211 41Q189 17 163 4T110
-9Q88 -9 69 -3T36 19T14 58T6 119Q6 155 17 193T48 268T95 337T153 394T219 433T288 447Q319 447 334 433T353 397H358Q365 409 369 418T381 438H496Q484 400 467 347T430 235Q409 172 398 132T386 71ZM332 373Q332 425 302 425Q287 425 271 413T234 365Q217 336
201 296T170 216T148 140T139 86Q139 59 147 51T166 42Q179 42 192 52T218 80Q236 106 246 123T267 166Q279 193 290 223T311 280T326 332T332 373ZM511 648Q496 597 467 562T390 526Q373 526 357 530T324 540T293 550T264 555Q244 555 224 545T187 508L174 511Q191
565 223 599T305 634Q318 634 332 630T361 621T391 612T423 608Q448 608 465 616T498 650L511 648Z" />
<glyph unicode="&#xe4;" glyph-name="adieresis" horiz-adv-x="517" d="M386 71Q386 58 391 53T404 47Q425 47 453 73T503 134L516 126Q500 99 479 75T433 32T380 2T321 -9Q293 -9 274 7T255 60Q255 72 258 87L263 112H260Q247 88 238 74T211 41Q189 17 163 4T110
-9Q88 -9 69 -3T36 19T14 58T6 119Q6 155 17 193T48 268T95 337T153 394T219 433T288 447Q319 447 334 433T353 397H358Q365 409 369 418T381 438H496Q484 400 467 347T430 235Q409 172 398 132T386 71ZM332 373Q332 425 302 425Q287 425 271 413T234 365Q217 336
201 296T170 216T148 140T139 86Q139 59 147 51T166 42Q179 42 192 52T218 80Q236 106 246 123T267 166Q279 193 290 223T311 280T326 332T332 373ZM186 580Q186 606 204 625T248 644Q276 644 294 626T312 581Q312 555 294 537T248 518Q221 518 204 536T186 580ZM362
580Q362 606 380 625T425 644Q452 644 470 626T489 581Q489 555 471 537T425 518Q398 518 380 536T362 580Z" />
<glyph unicode="&#xe5;" glyph-name="aring" horiz-adv-x="517" d="M386 71Q386 58 391 53T404 47Q425 47 453 73T503 134L516 126Q500 99 479 75T433 32T380 2T321 -9Q293 -9 274 7T255 60Q255 72 258 87L263 112H260Q247 88 238 74T211 41Q189 17 163 4T110
-9Q88 -9 69 -3T36 19T14 58T6 119Q6 155 17 193T48 268T95 337T153 394T219 433T288 447Q319 447 334 433T353 397H358Q365 409 369 418T381 438H496Q484 400 467 347T430 235Q409 172 398 132T386 71ZM332 373Q332 425 302 425Q287 425 271 413T234 365Q217 336
201 296T170 216T148 140T139 86Q139 59 147 51T166 42Q179 42 192 52T218 80Q236 106 246 123T267 166Q279 193 290 223T311 280T326 332T332 373ZM425 590Q425 570 418 554T399 527T371 510T337 503Q302 503 276 526T249 590Q249 630 275 653T337 677Q372 677
398 654T425 590ZM395 590Q395 619 379 635T336 652Q311 652 295 636T278 590Q278 561 294 545T336 529Q362 529 378 544T395 590Z" />
<glyph unicode="&#xe6;" glyph-name="ae" horiz-adv-x="699" d="M698 364Q698 341 687 323T654 287Q641 277 619 266T569 243T510 220T447 201Q442 173 440 146T437 94Q437 31 485 31Q513 31 537 41T582 68T619 102T646 137L657 129Q641 101 620 76T572 32T510
2T434 -9Q365 -9 330 32T292 141H286Q273 112 255 84T218 36Q198 15 170 3T117 -9Q71 -9 42 21T12 119Q12 173 36 231T101 338T191 417T294 448Q325 448 338 433T355 398H360Q366 409 371 418T383 439H471Q471 437 469 432T465 420T461 407T459 400H462Q491 421
522 434T582 448Q643 448 670 424T698 364ZM604 389Q604 407 598 417T577 428Q558 428 539 411T504 366T474 300T451 220Q481 230 513 244T561 274Q573 285 581 300T595 331T602 363T604 389ZM338 373Q338 426 308 426Q293 426 277 413T241 365Q224 337 207 297T177
216T155 140T146 86Q146 59 154 51T175 42Q188 42 200 52T225 78Q242 102 252 120T274 165Q284 189 295 217T316 274T332 328T338 373Z" />
<glyph unicode="&#xe7;" glyph-name="ccedilla" horiz-adv-x="426" d="M225 -104Q225 -142 191 -165T88 -188Q66 -188 46 -182T15 -168L23 -156Q32 -161 47 -164T78 -168Q113 -168 133 -153T153 -104Q153 -84 143 -72T117 -60Q100 -60 87 -71L72 -63L105 -3Q98
0 92 2Q67 14 50 35T24 84T14 145Q14 181 24 214T51 278T89 333T135 379Q179 414 225 430T308 447Q367 447 397 421T428 357Q428 331 412 314T370 297Q344 297 330 311T316 349Q316 357 318 365L322 381Q324 389 326 396T329 410Q329 428 306 428Q283 428 263 410T226
360Q211 333 199 302T177 238T162 175T156 118Q156 80 172 58T223 35Q245 35 266 44T305 69T339 102T366 137L378 129Q361 100 339 75T289 31T226 2T149 -9Q136 -9 125 -7L101 -50Q109 -45 123 -42T151 -38Q186 -38 205 -55T225 -104Z" />
<glyph unicode="&#xe8;" glyph-name="egrave" horiz-adv-x="418" d="M376 129Q361 102 340 78T291 34T229 3T152 -9Q90 -9 52 33T13 152Q13 190 23 224T51 288T93 343T145 388Q186 417 227 432T301 447Q363 447 389 424T416 364Q416 320 373 286Q360 276 339 265T290
242T231 220T166 201Q155 143 155 94Q155 63 168 45T206 27Q237 27 261 38T305 65T339 101T365 137L376 129ZM169 220Q201 230 228 243T272 271Q284 282 293 297T308 329T317 362T320 389Q320 407 315 417T296 428Q276 428 257 411T222 366T192 300T169 220ZM211
673Q231 673 246 663T281 630Q301 605 323 576T375 507L369 498Q340 508 306 521T239 548Q206 562 186 581T165 622Q165 646 178 659T211 673Z" />
<glyph unicode="&#xe9;" glyph-name="eacute" horiz-adv-x="418" d="M455 621Q455 596 438 582T393 556Q365 544 321 530T221 498L216 507Q236 529 252 546T281 577T306 603T330 626Q353 648 370 659T405 671Q428 671 441 659T455 621ZM376 129Q361 102 340 78T291
34T229 3T152 -9Q90 -9 52 33T13 152Q13 190 23 224T51 288T93 343T145 388Q186 417 227 432T301 447Q363 447 389 424T416 364Q416 320 373 286Q360 276 339 265T290 242T231 220T166 201Q155 143 155 94Q155 63 168 45T206 27Q237 27 261 38T305 65T339 101T365
137L376 129ZM169 220Q201 230 228 243T272 271Q284 282 293 297T308 329T317 362T320 389Q320 407 315 417T296 428Q276 428 257 411T222 366T192 300T169 220Z" />
<glyph unicode="&#xea;" glyph-name="ecircumflex" horiz-adv-x="418" d="M416 493L308 578L149 492L142 501Q153 513 177 538T226 590T273 639T299 668H355Q358 662 367 640T387 590T409 538T424 500L416 493ZM376 129Q361 102 340 78T291 34T229 3T152 -9Q90
-9 52 33T13 152Q13 190 23 224T51 288T93 343T145 388Q186 417 227 432T301 447Q363 447 389 424T416 364Q416 320 373 286Q360 276 339 265T290 242T231 220T166 201Q155 143 155 94Q155 63 168 45T206 27Q237 27 261 38T305 65T339 101T365 137L376 129ZM169
220Q201 230 228 243T272 271Q284 282 293 297T308 329T317 362T320 389Q320 407 315 417T296 428Q276 428 257 411T222 366T192 300T169 220Z" />
<glyph unicode="&#xeb;" glyph-name="edieresis" horiz-adv-x="418" d="M146 580Q146 606 164 625T208 644Q236 644 254 626T272 581Q272 555 254 537T208 518Q181 518 164 536T146 580ZM322 580Q322 606 340 625T385 644Q412 644 430 626T449 581Q449 555 431
537T385 518Q358 518 340 536T322 580ZM376 129Q361 102 340 78T291 34T229 3T152 -9Q90 -9 52 33T13 152Q13 190 23 224T51 288T93 343T145 388Q186 417 227 432T301 447Q363 447 389 424T416 364Q416 320 373 286Q360 276 339 265T290 242T231 220T166 201Q155
143 155 94Q155 63 168 45T206 27Q237 27 261 38T305 65T339 101T365 137L376 129ZM169 220Q201 230 228 243T272 271Q284 282 293 297T308 329T317 362T320 389Q320 407 315 417T296 428Q276 428 257 411T222 366T192 300T169 220Z" />
<glyph unicode="&#xec;" glyph-name="igrave" horiz-adv-x="308" d="M296 127Q280 100 258 75T209 32T153 2T92 -10Q63 -10 45 7T26 56Q26 69 31 88T43 130T61 178T80 229Q87 248 95 269T110 309T121 345T126 372Q126 386 121 390T106 395Q94 395 73 376T22 312L9
319Q46 386 96 416T195 447Q227 447 243 429T260 379Q260 359 248 317T215 220Q205 194 197 170T182 125T172 89T168 66Q168 47 183 47Q192 47 205 54T231 73T259 100T284 134L296 127ZM397 673Q417 673 432 663T467 630Q487 605 509 576T561 507L555 498Q526 508
492 521T425 548Q392 562 372 581T351 622Q351 646 364 659T397 673Z" />
<glyph unicode="&#xed;" glyph-name="iacute" horiz-adv-x="308" d="M382 621Q382 596 365 582T320 556Q292 544 248 530T148 498L143 507Q163 529 179 546T208 577T233 603T257 626Q280 648 297 659T332 671Q355 671 368 659T382 621ZM296 127Q280 100 258 75T209
32T153 2T92 -10Q63 -10 45 7T26 56Q26 69 31 88T43 130T61 178T80 229Q87 248 95 269T110 309T121 345T126 372Q126 386 121 390T106 395Q94 395 73 376T22 312L9 319Q46 386 96 416T195 447Q227 447 243 429T260 379Q260 359 248 317T215 220Q205 194 197 170T182
125T172 89T168 66Q168 47 183 47Q192 47 205 54T231 73T259 100T284 134L296 127Z" />
<glyph unicode="&#xee;" glyph-name="icircumflex" horiz-adv-x="308" d="M601 493L493 578L334 492L327 501Q338 513 362 538T411 590T458 639T484 668H540Q543 662 552 640T572 590T594 538T609 500L601 493ZM296 127Q280 100 258 75T209 32T153 2T92 -10Q63
-10 45 7T26 56Q26 69 31 88T43 130T61 178T80 229Q87 248 95 269T110 309T121 345T126 372Q126 386 121 390T106 395Q94 395 73 376T22 312L9 319Q46 386 96 416T195 447Q227 447 243 429T260 379Q260 359 248 317T215 220Q205 194 197 170T182 125T172 89T168
66Q168 47 183 47Q192 47 205 54T231 73T259 100T284 134L296 127Z" />
<glyph unicode="&#xef;" glyph-name="idieresis" horiz-adv-x="308" d="M75 580Q75 606 93 625T137 644Q165 644 183 626T201 581Q201 555 183 537T137 518Q110 518 93 536T75 580ZM251 580Q251 606 269 625T314 644Q341 644 359 626T378 581Q378 555 360 537T314
518Q287 518 269 536T251 580ZM296 127Q280 100 258 75T209 32T153 2T92 -10Q63 -10 45 7T26 56Q26 69 31 88T43 130T61 178T80 229Q87 248 95 269T110 309T121 345T126 372Q126 386 121 390T106 395Q94 395 73 376T22 312L9 319Q46 386 96 416T195 447Q227 447
243 429T260 379Q260 359 248 317T215 220Q205 194 197 170T182 125T172 89T168 66Q168 47 183 47Q192 47 205 54T231 73T259 100T284 134L296 127Z" />
<glyph unicode="&#xf0;" glyph-name="eth" horiz-adv-x="458" d="M155 537L241 576Q220 607 196 634T147 684H162Q212 662 262 628Q280 616 298 601L395 646L389 622L314 588Q334 570 351 549Q391 504 416 447T441 318Q441 226 413 161T342 57Q309 26 264 9T171
-9Q96 -9 55 38T13 162Q13 224 38 282T108 382Q141 412 185 429T277 447Q295 447 309 440Q298 476 280 510Q267 536 252 560L149 513L155 537ZM316 382Q318 430 282 430Q265 430 250 418T220 377Q208 353 193 310T165 220T143 129T134 57Q134 36 141 22T168 8Q203
8 229 59Q242 85 257 126T286 212T307 303T316 382Z" />
<glyph unicode="&#xf1;" glyph-name="ntilde" horiz-adv-x="564" d="M552 127Q536 100 514 76T465 32T408 2T348 -9Q318 -9 300 7T281 56Q281 69 286 88T298 131T315 179T335 230Q356 283 369 317T382 368Q382 381 377 385T363 390Q352 390 335 376T297 332T251
255T199 139Q186 107 174 72T149 0H11Q22 33 35 72T60 149T83 217T100 265Q111 300 117 324T123 368Q123 397 102 397Q89 397 68 377T18 312L4 320Q41 386 86 416T176 447Q213 447 230 429T247 379Q247 356 242 325T227 260H234Q286 363 337 405T431 447Q476 447
494 425T513 363Q513 333 501 297T467 204Q448 155 436 119T424 67Q424 48 438 48Q447 48 460 55T486 73T514 100T539 134L552 127ZM519 648Q504 597 475 562T398 526Q381 526 365 530T332 540T301 550T272 555Q252 555 232 545T195 508L182 511Q199 565 231 599T313
634Q326 634 340 630T369 621T399 612T431 608Q456 608 473 616T506 650L519 648Z" />
<glyph unicode="&#xf2;" glyph-name="ograve" horiz-adv-x="462" d="M174 -9Q99 -9 57 38T13 162Q13 223 38 281T107 381Q141 412 186 429T281 447Q318 447 348 435T399 399T431 345T442 274Q442 214 417 156T348 58Q315 27 269 9T174 -9ZM284 430Q267 430 253
419T222 377Q210 353 195 312T167 225T145 133T136 58Q136 36 144 22T172 8Q188 8 203 20T233 59Q246 84 261 124T289 211T311 302T320 383Q320 405 311 417T284 430ZM222 673Q242 673 257 663T292 630Q312 605 334 576T386 507L380 498Q351 508 317 521T250 548Q217
562 197 581T176 622Q176 646 189 659T222 673Z" />
<glyph unicode="&#xf3;" glyph-name="oacute" horiz-adv-x="462" d="M463 621Q463 596 446 582T401 556Q373 544 329 530T229 498L224 507Q244 529 260 546T289 577T314 603T338 626Q361 648 378 659T413 671Q436 671 449 659T463 621ZM174 -9Q99 -9 57 38T13
162Q13 223 38 281T107 381Q141 412 186 429T281 447Q318 447 348 435T399 399T431 345T442 274Q442 214 417 156T348 58Q315 27 269 9T174 -9ZM284 430Q267 430 253 419T222 377Q210 353 195 312T167 225T145 133T136 58Q136 36 144 22T172 8Q188 8 203 20T233
59Q246 84 261 124T289 211T311 302T320 383Q320 405 311 417T284 430Z" />
<glyph unicode="&#xf4;" glyph-name="ocircumflex" horiz-adv-x="462" d="M425 493L317 578L158 492L151 501Q162 513 186 538T235 590T282 639T308 668H364Q367 662 376 640T396 590T418 538T433 500L425 493ZM174 -9Q99 -9 57 38T13 162Q13 223 38 281T107 381Q141
412 186 429T281 447Q318 447 348 435T399 399T431 345T442 274Q442 214 417 156T348 58Q315 27 269 9T174 -9ZM284 430Q267 430 253 419T222 377Q210 353 195 312T167 225T145 133T136 58Q136 36 144 22T172 8Q188 8 203 20T233 59Q246 84 261 124T289 211T311
302T320 383Q320 405 311 417T284 430Z" />
<glyph unicode="&#xf5;" glyph-name="otilde" horiz-adv-x="462" d="M174 -9Q99 -9 57 38T13 162Q13 223 38 281T107 381Q141 412 186 429T281 447Q318 447 348 435T399 399T431 345T442 274Q442 214 417 156T348 58Q315 27 269 9T174 -9ZM284 430Q267 430 253
419T222 377Q210 353 195 312T167 225T145 133T136 58Q136 36 144 22T172 8Q188 8 203 20T233 59Q246 84 261 124T289 211T311 302T320 383Q320 405 311 417T284 430ZM479 648Q464 597 435 562T358 526Q341 526 325 530T292 540T261 550T232 555Q212 555 192 545T155
508L142 511Q159 565 191 599T273 634Q286 634 300 630T329 621T359 612T391 608Q416 608 433 616T466 650L479 648Z" />
<glyph unicode="&#xf6;" glyph-name="odieresis" horiz-adv-x="462" d="M155 580Q155 606 173 625T217 644Q245 644 263 626T281 581Q281 555 263 537T217 518Q190 518 173 536T155 580ZM331 580Q331 606 349 625T394 644Q421 644 439 626T458 581Q458 555 440
537T394 518Q367 518 349 536T331 580ZM174 -9Q99 -9 57 38T13 162Q13 223 38 281T107 381Q141 412 186 429T281 447Q318 447 348 435T399 399T431 345T442 274Q442 214 417 156T348 58Q315 27 269 9T174 -9ZM284 430Q267 430 253 419T222 377Q210 353 195 312T167
225T145 133T136 58Q136 36 144 22T172 8Q188 8 203 20T233 59Q246 84 261 124T289 211T311 302T320 383Q320 405 311 417T284 430Z" />
<glyph unicode="&#xf7;" glyph-name="divide" horiz-adv-x="510" d="M26 247V276H462V247H26ZM313 407Q313 374 291 357T244 340Q218 340 197 358T175 407Q175 438 196 456T244 475Q269 475 291 457T313 407ZM313 124Q313 91 291 74T244 57Q218 57 197 75T175
124Q175 155 196 173T244 192Q269 192 291 174T313 124Z" />
<glyph unicode="&#xf8;" glyph-name="oslash" horiz-adv-x="461" d="M442 274Q442 214 417 156T348 58Q315 27 269 9T174 -9Q147 -9 124 -3L94 -61L75 -50L103 4Q76 16 56 38Q14 85 13 162Q12 223 38 281T107 381Q141 412 186 429T281 447Q308 447 331 440L365
505L385 495L352 432Q379 420 399 399Q420 376 431 345T442 274ZM311 417Q302 430 284 430Q267 430 253 419T222 377Q210 353 195 312T167 225T145 133Q137 94 136 67L315 410Q313 414 311 417ZM144 22Q152 8 172 8Q188 8 203 20T233 59Q246 84 261 124T289 211T311
302Q318 340 320 370L141 28L144 22Z" />
<glyph unicode="&#xf9;" glyph-name="ugrave" horiz-adv-x="569" d="M429 70Q429 46 449 46Q459 46 471 53T497 72T524 100T549 134L561 126Q545 99 525 75T480 32T429 2T372 -9Q337 -9 319 11T300 70Q300 92 305 117T320 175H313Q285 119 259 84T208 28T159 -1T112
-9Q80 -9 58 13T35 75Q35 107 47 142T82 233Q101 282 113 318T125 371Q125 396 107 396Q94 396 73 377T22 312L9 320Q46 386 92 416T184 447Q225 447 245 428T265 376Q265 350 250 305T214 208Q194 156 182 122T169 71Q169 48 188 48Q210 48 253 108T352 304Q365
336 377 369T402 438H539Q528 405 515 366T490 288T467 219T450 171Q439 136 434 113T429 70ZM266 673Q286 673 301 663T336 630Q356 605 378 576T430 507L424 498Q395 508 361 521T294 548Q261 562 241 581T220 622Q220 646 233 659T266 673Z" />
<glyph unicode="&#xfa;" glyph-name="uacute" horiz-adv-x="569" d="M507 621Q507 596 490 582T445 556Q417 544 373 530T273 498L268 507Q288 529 304 546T333 577T358 603T382 626Q405 648 422 659T457 671Q480 671 493 659T507 621ZM429 70Q429 46 449 46Q459
46 471 53T497 72T524 100T549 134L561 126Q545 99 525 75T480 32T429 2T372 -9Q337 -9 319 11T300 70Q300 92 305 117T320 175H313Q285 119 259 84T208 28T159 -1T112 -9Q80 -9 58 13T35 75Q35 107 47 142T82 233Q101 282 113 318T125 371Q125 396 107 396Q94
396 73 377T22 312L9 320Q46 386 92 416T184 447Q225 447 245 428T265 376Q265 350 250 305T214 208Q194 156 182 122T169 71Q169 48 188 48Q210 48 253 108T352 304Q365 336 377 369T402 438H539Q528 405 515 366T490 288T467 219T450 171Q439 136 434 113T429
70Z" />
<glyph unicode="&#xfb;" glyph-name="ucircumflex" horiz-adv-x="569" d="M470 493L362 578L203 492L196 501Q207 513 231 538T280 590T327 639T353 668H409Q412 662 421 640T441 590T463 538T478 500L470 493ZM429 70Q429 46 449 46Q459 46 471 53T497 72T524
100T549 134L561 126Q545 99 525 75T480 32T429 2T372 -9Q337 -9 319 11T300 70Q300 92 305 117T320 175H313Q285 119 259 84T208 28T159 -1T112 -9Q80 -9 58 13T35 75Q35 107 47 142T82 233Q101 282 113 318T125 371Q125 396 107 396Q94 396 73 377T22 312L9 320Q46
386 92 416T184 447Q225 447 245 428T265 376Q265 350 250 305T214 208Q194 156 182 122T169 71Q169 48 188 48Q210 48 253 108T352 304Q365 336 377 369T402 438H539Q528 405 515 366T490 288T467 219T450 171Q439 136 434 113T429 70Z" />
<glyph unicode="&#xfc;" glyph-name="udieresis" horiz-adv-x="569" d="M199 580Q199 606 217 625T261 644Q289 644 307 626T325 581Q325 555 307 537T261 518Q234 518 217 536T199 580ZM375 580Q375 606 393 625T438 644Q465 644 483 626T502 581Q502 555 484
537T438 518Q411 518 393 536T375 580ZM429 70Q429 46 449 46Q459 46 471 53T497 72T524 100T549 134L561 126Q545 99 525 75T480 32T429 2T372 -9Q337 -9 319 11T300 70Q300 92 305 117T320 175H313Q285 119 259 84T208 28T159 -1T112 -9Q80 -9 58 13T35 75Q35
107 47 142T82 233Q101 282 113 318T125 371Q125 396 107 396Q94 396 73 377T22 312L9 320Q46 386 92 416T184 447Q225 447 245 428T265 376Q265 350 250 305T214 208Q194 156 182 122T169 71Q169 48 188 48Q210 48 253 108T352 304Q365 336 377 369T402 438H539Q528
405 515 366T490 288T467 219T450 171Q439 136 434 113T429 70Z" />
<glyph unicode="&#xfd;" glyph-name="yacute" horiz-adv-x="421" d="M73 379Q59 379 43 363T7 311L-6 319Q23 378 61 412T149 447Q183 447 205 425T243 359Q249 341 256 313T268 248T278 172T283 91H287Q320 148 339 199T359 296Q359 334 341 367Q336 374 332
384T328 403Q328 426 340 436T368 447Q388 447 398 433T409 396Q409 341 395 286T357 180T303 80T239 -9T173 -84T113 -142Q76 -174 39 -193T-33 -213Q-69 -213 -90 -194T-112 -148Q-112 -119 -95 -105T-60 -91Q-37 -91 -25 -99T0 -124Q8 -134 18 -143T43 -153Q52
-153 66 -146T95 -127Q112 -113 130 -95T169 -54Q168 -16 164 32T153 129T137 225T118 305Q107 340 98 359T73 379ZM432 621Q432 596 415 582T370 556Q342 544 298 530T198 498L193 507Q213 529 229 546T258 577T283 603T307 626Q330 648 347 659T382 671Q405 671
418 659T432 621Z" />
<glyph unicode="&#xfe;" glyph-name="thorn" horiz-adv-x="487" d="M346 447Q370 447 392 440T432 416T459 371T470 299Q470 267 462 235T440 172T405 113T360 62Q327 30 284 11T190 -9Q161 -9 140 -4T108 9L102 -7Q98 -21 93 -37T83 -66T77 -84Q71 -101 67 -119T62
-152Q62 -165 67 -176T87 -195Q94 -199 105 -202T128 -207L125 -217H-173L-170 -207Q-155 -205 -140 -201T-115 -188Q-101 -177 -92 -161T-73 -114Q-23 40 21 176Q40 234 59 293T95 404T126 500T149 569Q157 591 160 604T164 629Q164 650 152 661Q147 666 136 669T113
674L117 684H317Q323 684 323 679Q323 675 319 666T309 642Q305 632 302 624T296 605T288 583T279 555L220 372H225Q249 410 282 428T346 447ZM340 365Q340 388 332 400T307 413Q291 413 279 406T254 384Q238 367 223 340T197 283Q190 264 179 230T157 160T136
92T120 43Q125 30 139 22T170 13Q191 13 207 26T244 71Q259 92 275 128T306 207T330 291T340 365Z" />
<glyph unicode="&#xff;" glyph-name="ydieresis" horiz-adv-x="421" d="M73 379Q59 379 43 363T7 311L-6 319Q23 378 61 412T149 447Q183 447 205 425T243 359Q249 341 256 313T268 248T278 172T283 91H287Q320 148 339 199T359 296Q359 334 341 367Q336 374 332
384T328 403Q328 426 340 436T368 447Q388 447 398 433T409 396Q409 341 395 286T357 180T303 80T239 -9T173 -84T113 -142Q76 -174 39 -193T-33 -213Q-69 -213 -90 -194T-112 -148Q-112 -119 -95 -105T-60 -91Q-37 -91 -25 -99T0 -124Q8 -134 18 -143T43 -153Q52
-153 66 -146T95 -127Q112 -113 130 -95T169 -54Q168 -16 164 32T153 129T137 225T118 305Q107 340 98 359T73 379ZM115 580Q115 606 133 625T177 644Q205 644 223 626T241 581Q241 555 223 537T177 518Q150 518 133 536T115 580ZM291 580Q291 606 309 625T354
644Q381 644 399 626T418 581Q418 555 400 537T354 518Q327 518 309 536T291 580Z" />
<glyph unicode="&#x100;" glyph-name="Amacron" horiz-adv-x="625" d="M204 274H362L425 526H420L204 274ZM356 249H182L94 145Q77 125 68 107T58 69Q58 55 64 44T82 26Q95 19 107 16T136 11L133 0H-129L-127 11Q-116 13 -103 16T-80 25Q-45 42 -11 73T52 137L500
657H613L499 202Q477 113 477 78Q477 55 486 42T512 22Q535 13 554 11L551 0H209L211 11Q221 12 230 14T248 20Q265 26 276 35T298 61Q312 84 322 118T346 204L356 249ZM420 715L433 766H707L694 715H420Z" />
<glyph unicode="&#x101;" glyph-name="amacron" horiz-adv-x="517" d="M386 71Q386 58 391 53T404 47Q425 47 453 73T503 134L516 126Q500 99 479 75T433 32T380 2T321 -9Q293 -9 274 7T255 60Q255 72 258 87L263 112H260Q247 88 238 74T211 41Q189 17 163 4T110
-9Q88 -9 69 -3T36 19T14 58T6 119Q6 155 17 193T48 268T95 337T153 394T219 433T288 447Q319 447 334 433T353 397H358Q365 409 369 418T381 438H496Q484 400 467 347T430 235Q409 172 398 132T386 71ZM332 373Q332 425 302 425Q287 425 271 413T234 365Q217 336
201 296T170 216T148 140T139 86Q139 59 147 51T166 42Q179 42 192 52T218 80Q236 106 246 123T267 166Q279 193 290 223T311 280T326 332T332 373ZM218 545L231 596H473L460 545H218Z" />
<glyph unicode="&#x102;" glyph-name="Abreve" horiz-adv-x="625" d="M204 274H362L425 526H420L204 274ZM356 249H182L94 145Q77 125 68 107T58 69Q58 55 64 44T82 26Q95 19 107 16T136 11L133 0H-129L-127 11Q-116 13 -103 16T-80 25Q-45 42 -11 73T52 137L500
657H613L499 202Q477 113 477 78Q477 55 486 42T512 22Q535 13 554 11L551 0H209L211 11Q221 12 230 14T248 20Q265 26 276 35T298 61Q312 84 322 118T346 204L356 249ZM463 849Q471 814 500 796T570 777Q613 777 648 795T705 849L717 842Q706 779 667 741T562
702Q513 702 481 730T447 806Q447 814 448 824T451 844L463 849Z" />
<glyph unicode="&#x103;" glyph-name="abreve" horiz-adv-x="517" d="M386 71Q386 58 391 53T404 47Q425 47 453 73T503 134L516 126Q500 99 479 75T433 32T380 2T321 -9Q293 -9 274 7T255 60Q255 72 258 87L263 112H260Q247 88 238 74T211 41Q189 17 163 4T110
-9Q88 -9 69 -3T36 19T14 58T6 119Q6 155 17 193T48 268T95 337T153 394T219 433T288 447Q319 447 334 433T353 397H358Q365 409 369 418T381 438H496Q484 400 467 347T430 235Q409 172 398 132T386 71ZM332 373Q332 425 302 425Q287 425 271 413T234 365Q217 336
201 296T170 216T148 140T139 86Q139 59 147 51T166 42Q179 42 192 52T218 80Q236 106 246 123T267 166Q279 193 290 223T311 280T326 332T332 373ZM241 673Q251 635 280 616T345 596Q426 596 474 673L486 666Q475 603 439 562T338 521Q289 521 258 551T225 629Q225
638 226 647T229 667L241 673Z" />
<glyph unicode="&#x104;" glyph-name="Aogonek" horiz-adv-x="625" d="M204 274H362L425 526H420L204 274ZM356 249H182L94 145Q77 125 68 107T58 69Q58 55 64 44T82 26Q95 19 107 16T136 11L133 0H-129L-127 11Q-116 13 -103 16T-80 25Q-45 42 -11 73T52 137L500
657H613L499 202Q477 113 477 78Q477 55 486 42T512 22Q535 13 554 11L551 0H372Q338 0 315 -1T276 -6T249 -14T227 -28Q201 -45 185 -77T168 -145Q168 -198 230 -204L227 -215Q146 -217 108 -196T69 -140Q69 -118 82 -101T115 -69T159 -44T205 -22Q240 -5 261
11T297 52Q310 76 321 114T346 204L356 249Z" />
<glyph unicode="&#x105;" glyph-name="aogonek" horiz-adv-x="517" d="M169 -139Q169 -115 186 -96T228 -62T282 -33T338 -8Q333 -9 329 -9H320Q292 -9 274 8T255 60Q255 72 258 87L263 112H260Q247 88 238 74T211 41Q189 17 163 4T110 -9Q88 -9 69 -3T36 19T14
58T6 119Q6 155 17 193T48 268T95 337T153 394T219 433T288 447Q319 447 334 433T353 397H358Q363 405 369 418T381 438H496Q494 432 485 403T464 340T443 275T430 235Q409 172 398 132T386 71Q386 58 391 53T404 47Q425 47 453 73T503 134L516 126Q493 88 463
58T395 8Q371 -4 348 -20T308 -55T279 -97T268 -145Q268 -198 329 -204L327 -215Q246 -217 208 -196T169 -139ZM332 373Q332 425 302 425Q287 425 271 413T234 365Q217 336 201 296T170 216T148 140T139 86Q139 59 147 51T166 42Q179 42 192 52T218 80Q236 106
246 123T267 166Q279 193 290 223T311 280T326 332T332 373Z" />
<glyph unicode="&#x106;" glyph-name="Cacute" horiz-adv-x="592" d="M568 409H556Q558 470 548 515T520 589T476 632T421 647Q382 647 355 628T305 579Q288 558 266 513T223 411T189 288T175 160Q175 124 184 96T214 48Q228 35 244 30T281 24Q323 24 361 41T431
86T489 149T532 221L548 212Q530 170 501 129T435 57T354 6T262 -14Q199 -14 154 7T80 64T36 144T22 236Q22 326 52 405T136 543T262 636T418 670Q448 670 471 664T513 648T543 626T563 602H567L617 647H629L568 409ZM333 708Q380 745 409 770T464 815Q487 834
502 841T536 848Q556 848 570 835T585 796Q585 772 567 759T524 738Q494 729 448 721T339 699L333 708Z" />
<glyph unicode="&#x107;" glyph-name="cacute" horiz-adv-x="426" d="M466 621Q466 596 449 582T404 556Q376 544 332 530T232 498L227 507Q247 529 263 546T292 577T317 603T341 626Q364 648 381 659T416 671Q439 671 452 659T466 621ZM428 357Q428 331 412 314T370
297Q344 297 330 311T316 349Q316 357 318 365L322 381Q324 389 326 396T329 410Q329 428 306 428Q283 428 263 410T226 360Q211 333 199 302T177 238T162 175T156 118Q156 80 172 58T223 35Q245 35 266 44T305 69T339 102T366 137L378 129Q361 100 339 75T289
31T226 2T149 -9Q117 -9 92 2T50 35T24 84T14 145Q14 181 24 214T51 278T89 333T135 379Q179 414 225 430T308 447Q367 447 397 421T428 357Z" />
<glyph unicode="&#x108;" glyph-name="Ccircumflex" horiz-adv-x="592" d="M553 705L446 770L290 704L285 713Q289 716 311 736T360 779T407 822T430 844H487Q488 842 499 822T524 779T548 735T561 712L553 705ZM568 409H556Q558 470 548 515T520 589T476 632T421
647Q382 647 355 628T305 579Q288 558 266 513T223 411T189 288T175 160Q175 124 184 96T214 48Q228 35 244 30T281 24Q323 24 361 41T431 86T489 149T532 221L548 212Q530 170 501 129T435 57T354 6T262 -14Q199 -14 154 7T80 64T36 144T22 236Q22 326 52 405T136
543T262 636T418 670Q448 670 471 664T513 648T543 626T563 602H567L617 647H629L568 409Z" />
<glyph unicode="&#x109;" glyph-name="ccircumflex" horiz-adv-x="426" d="M428 493L320 578L161 492L154 501Q165 513 189 538T238 590T285 639T311 668H367Q370 662 379 640T399 590T421 538T436 500L428 493ZM428 357Q428 331 412 314T370 297Q344 297 330
311T316 349Q316 357 318 365L322 381Q324 389 326 396T329 410Q329 428 306 428Q283 428 263 410T226 360Q211 333 199 302T177 238T162 175T156 118Q156 80 172 58T223 35Q245 35 266 44T305 69T339 102T366 137L378 129Q361 100 339 75T289 31T226 2T149 -9Q117
-9 92 2T50 35T24 84T14 145Q14 181 24 214T51 278T89 333T135 379Q179 414 225 430T308 447Q367 447 397 421T428 357Z" />
<glyph unicode="&#x10a;" glyph-name="Cdotaccent" horiz-adv-x="592" d="M568 409H556Q558 470 548 515T520 589T476 632T421 647Q382 647 355 628T305 579Q288 558 266 513T223 411T189 288T175 160Q175 124 184 96T214 48Q228 35 244 30T281 24Q323 24 361
41T431 86T489 149T532 221L548 212Q530 170 501 129T435 57T354 6T262 -14Q199 -14 154 7T80 64T36 144T22 236Q22 326 52 405T136 543T262 636T418 670Q448 670 471 664T513 648T543 626T563 602H567L617 647H629L568 409ZM360 781Q360 812 381 833T432 854Q462
854 483 834T505 781Q505 750 484 730T432 709Q402 709 381 730T360 781Z" />
<glyph unicode="&#x10b;" glyph-name="cdotaccent" horiz-adv-x="426" d="M428 357Q428 331 412 314T370 297Q344 297 330 311T316 349Q316 357 318 365L322 381Q324 389 326 396T329 410Q329 428 306 428Q283 428 263 410T226 360Q211 333 199 302T177 238T162
175T156 118Q156 80 172 58T223 35Q245 35 266 44T305 69T339 102T366 137L378 129Q361 100 339 75T289 31T226 2T149 -9Q117 -9 92 2T50 35T24 84T14 145Q14 181 24 214T51 278T89 333T135 379Q179 414 225 430T308 447Q367 447 397 421T428 357ZM378 586Q378
556 357 537T308 517Q279 517 259 537T239 586Q239 615 259 635T308 656Q336 656 357 636T378 586Z" />
<glyph unicode="&#x10c;" glyph-name="Ccaron" horiz-adv-x="592" d="M336 845L443 780L598 846L603 837Q600 835 589 825T562 801T529 770T496 740T470 717T458 706H401Q400 708 389 727T365 770T340 814T327 837L336 845ZM568 409H556Q558 470 548 515T520 589T476
632T421 647Q382 647 355 628T305 579Q288 558 266 513T223 411T189 288T175 160Q175 124 184 96T214 48Q228 35 244 30T281 24Q323 24 361 41T431 86T489 149T532 221L548 212Q530 170 501 129T435 57T354 6T262 -14Q199 -14 154 7T80 64T36 144T22 236Q22 326
52 405T136 543T262 636T418 670Q448 670 471 664T513 648T543 626T563 602H567L617 647H629L568 409Z" />
<glyph unicode="&#x10d;" glyph-name="ccaron" horiz-adv-x="426" d="M211 664L319 574L477 664L484 655Q473 643 449 618T400 566T354 517T328 489H271Q269 495 260 517T239 567T218 619T202 657L211 664ZM428 357Q428 331 412 314T370 297Q344 297 330 311T316
349Q316 357 318 365L322 381Q324 389 326 396T329 410Q329 428 306 428Q283 428 263 410T226 360Q211 333 199 302T177 238T162 175T156 118Q156 80 172 58T223 35Q245 35 266 44T305 69T339 102T366 137L378 129Q361 100 339 75T289 31T226 2T149 -9Q117 -9 92
2T50 35T24 84T14 145Q14 181 24 214T51 278T89 333T135 379Q179 414 225 430T308 447Q367 447 397 421T428 357Z" />
<glyph unicode="&#x10e;" glyph-name="Dcaron" horiz-adv-x="697" d="M329 845L436 780L591 846L596 837Q593 835 582 825T555 801T522 770T489 740T463 717T451 706H394Q393 708 382 727T358 770T333 814T320 837L329 845ZM681 407Q681 356 669 307T635 215T583
134T516 71Q474 42 418 21T298 0H-61L-59 11Q-50 12 -38 14T-18 20Q16 29 37 62Q51 85 62 119T86 204L150 459Q161 504 166 532T171 579Q171 602 162 615T136 635Q125 640 114 642T94 646L97 657H420Q489 657 538 636T619 580T666 500T681 407ZM524 488Q524 523
517 555T496 605Q482 621 463 627T415 633H390Q362 633 350 616T329 565L231 169Q222 134 218 116T214 81Q214 54 227 39Q242 23 274 23H293Q323 23 354 39T418 97Q436 122 455 163T489 255T514 365T524 488Z" />
<glyph unicode="&#x10f;" glyph-name="dcaron" horiz-adv-x="526" d="M628 684H722Q705 661 689 639T655 593T619 544T578 488H564L628 684ZM334 378Q333 426 302 426Q286 426 270 414T233 366Q217 338 200 298T170 216T148 140T139 87Q139 61 146 52T165 42Q179
42 192 52T218 80Q227 93 233 103T245 123T256 143T266 167Q278 195 290 226T312 285T328 338T334 378ZM259 114Q247 89 237 74T210 41Q188 16 162 4T109 -9Q61 -9 33 22T5 120Q5 176 31 234T100 339T194 417T299 447Q322 447 335 439T353 419H357L405 569Q413
591 416 604T420 629Q420 650 408 661Q403 666 392 669T369 674L373 684H574Q579 684 579 679Q579 675 575 666T566 642Q562 632 559 624T553 605T545 583T536 555Q517 501 499 445T465 342Q447 287 431 237Q412 178 401 135T389 68Q389 48 405 48Q415 48 427 55T453
73T480 100T504 134L516 127Q500 100 480 76T435 32T383 2T325 -9Q296 -9 276 8T255 61Q255 72 258 87T263 114H259Z" />
<glyph unicode="&#x110;" glyph-name="Dcroat" horiz-adv-x="697" d="M36 349H122L150 459Q161 504 166 532T171 579Q171 602 162 615T136 635Q125 640 114 642T94 646L97 657H420Q489 657 538 636T619 580T666 500T681 407Q681 356 669 307T635 215T583 134T516
71Q474 42 418 21T298 0H-61L-59 11Q-50 12 -38 14T-18 20Q16 29 37 62Q51 85 62 119T86 204L115 320H29L36 349ZM417 97Q436 122 455 163T489 255T514 365T524 488Q524 523 517 555T495 605Q481 621 462 627T415 633H390Q363 633 351 616T329 565L275 349H399L392
320H268L231 169Q222 134 218 116T214 81Q214 54 227 39Q242 23 274 23H293Q323 23 354 39T417 97Z" />
<glyph unicode="&#x111;" glyph-name="dcroat" horiz-adv-x="526" d="M591 541H268L275 565H598L591 541ZM334 378Q333 426 302 426Q286 426 270 414T233 366Q217 338 200 298T170 216T148 140T139 87Q139 61 146 52T165 42Q179 42 192 52T218 80Q227 93 233 103T245
123T256 143T266 167Q278 195 290 226T312 285T328 338T334 378ZM259 114Q247 89 237 74T210 41Q188 16 162 4T109 -9Q61 -9 33 22T5 120Q5 176 31 234T100 339T194 417T299 447Q322 447 335 439T353 419H357L405 569Q413 591 416 604T420 629Q420 650 408 661Q403
666 392 669T369 674L373 684H574Q579 684 579 679Q579 675 575 666T566 642Q562 632 559 624T553 605T545 583T536 555Q517 501 499 445T465 342Q447 287 431 237Q412 178 401 135T389 68Q389 48 405 48Q415 48 427 55T453 73T480 100T504 134L516 127Q500 100
480 76T435 32T383 2T325 -9Q296 -9 276 8T255 61Q255 72 258 87T263 114H259Z" />
<glyph unicode="&#x112;" glyph-name="Emacron" horiz-adv-x="615" d="M598 444H586Q580 482 566 518T535 581Q519 603 497 618T437 633H409Q372 633 355 613T327 551L277 352H303Q346 352 368 360T407 383Q430 403 448 432T474 485H486L413 192H401Q403 205 403
220T401 249T395 277T384 299Q376 312 357 320T299 329H271L231 169Q222 133 218 111T215 74Q217 45 233 34T280 23H304Q339 23 372 40T437 87Q482 125 512 164T556 228H568L500 0H-62L-59 11Q-50 12 -38 14T-18 20Q18 31 36 62Q50 85 62 119T86 204L149 459Q160
504 166 532T172 579Q172 602 163 615T136 636Q125 641 114 643T94 646L97 657H610L598 444ZM261 715L274 766H548L535 715H261Z" />
<glyph unicode="&#x113;" glyph-name="emacron" horiz-adv-x="418" d="M376 129Q361 102 340 78T291 34T229 3T152 -9Q90 -9 52 33T13 152Q13 190 23 224T51 288T93 343T145 388Q186 417 227 432T301 447Q363 447 389 424T416 364Q416 320 373 286Q360 276 339
265T290 242T231 220T166 201Q155 143 155 94Q155 63 168 45T206 27Q237 27 261 38T305 65T339 101T365 137L376 129ZM169 220Q201 230 228 243T272 271Q284 282 293 297T308 329T317 362T320 389Q320 407 315 417T296 428Q276 428 257 411T222 366T192 300T169
220ZM179 545L192 596H434L421 545H179Z" />
<glyph unicode="&#x114;" glyph-name="Ebreve" horiz-adv-x="615" d="M598 444H586Q580 482 566 518T535 581Q519 603 497 618T437 633H409Q372 633 355 613T327 551L277 352H303Q346 352 368 360T407 383Q430 403 448 432T474 485H486L413 192H401Q403 205 403
220T401 249T395 277T384 299Q376 312 357 320T299 329H271L231 169Q222 133 218 111T215 74Q217 45 233 34T280 23H304Q339 23 372 40T437 87Q482 125 512 164T556 228H568L500 0H-62L-59 11Q-50 12 -38 14T-18 20Q18 31 36 62Q50 85 62 119T86 204L149 459Q160
504 166 532T172 579Q172 602 163 615T136 636Q125 641 114 643T94 646L97 657H610L598 444ZM303 849Q311 814 340 796T410 777Q453 777 488 795T545 849L557 842Q546 779 507 741T402 702Q353 702 321 730T287 806Q287 814 288 824T291 844L303 849Z" />
<glyph unicode="&#x115;" glyph-name="ebreve" horiz-adv-x="418" d="M376 129Q361 102 340 78T291 34T229 3T152 -9Q90 -9 52 33T13 152Q13 190 23 224T51 288T93 343T145 388Q186 417 227 432T301 447Q363 447 389 424T416 364Q416 320 373 286Q360 276 339
265T290 242T231 220T166 201Q155 143 155 94Q155 63 168 45T206 27Q237 27 261 38T305 65T339 101T365 137L376 129ZM169 220Q201 230 228 243T272 271Q284 282 293 297T308 329T317 362T320 389Q320 407 315 417T296 428Q276 428 257 411T222 366T192 300T169
220ZM201 673Q211 635 240 616T305 596Q386 596 434 673L446 666Q435 603 399 562T298 521Q249 521 218 551T185 629Q185 638 186 647T189 667L201 673Z" />
<glyph unicode="&#x116;" glyph-name="Edotaccent" horiz-adv-x="615" d="M326 781Q326 812 347 833T398 854Q428 854 449 834T471 781Q471 750 450 730T398 709Q368 709 347 730T326 781ZM598 444H586Q580 482 566 518T535 581Q519 603 497 618T437 633H409Q372
633 355 613T327 551L277 352H303Q346 352 368 360T407 383Q430 403 448 432T474 485H486L413 192H401Q403 205 403 220T401 249T395 277T384 299Q376 312 357 320T299 329H271L231 169Q222 133 218 111T215 74Q217 45 233 34T280 23H304Q339 23 372 40T437 87Q482
125 512 164T556 228H568L500 0H-62L-59 11Q-50 12 -38 14T-18 20Q18 31 36 62Q50 85 62 119T86 204L149 459Q160 504 166 532T172 579Q172 602 163 615T136 636Q125 641 114 643T94 646L97 657H610L598 444Z" />
<glyph unicode="&#x117;" glyph-name="edotaccent" horiz-adv-x="418" d="M376 129Q361 102 340 78T291 34T229 3T152 -9Q90 -9 52 33T13 152Q13 190 23 224T51 288T93 343T145 388Q186 417 227 432T301 447Q363 447 389 424T416 364Q416 320 373 286Q360 276
339 265T290 242T231 220T166 201Q155 143 155 94Q155 63 168 45T206 27Q237 27 261 38T305 65T339 101T365 137L376 129ZM169 220Q201 230 228 243T272 271Q284 282 293 297T308 329T317 362T320 389Q320 407 315 417T296 428Q276 428 257 411T222 366T192 300T169
220ZM367 586Q367 556 346 537T297 517Q268 517 248 537T228 586Q228 615 248 635T297 656Q325 656 346 636T367 586Z" />
<glyph unicode="&#x118;" glyph-name="Eogonek" horiz-adv-x="615" d="M598 444H586Q580 482 566 518T535 581Q519 603 497 618T437 633H409Q372 633 355 613T327 551L277 352H303Q346 352 368 360T407 383Q430 403 448 432T474 485H486L413 192H401Q403 205 403
220T401 249T395 277T384 299Q376 312 357 320T299 329H271L231 169Q222 133 218 111T215 74Q217 45 233 34T280 23H304Q339 23 372 40T437 87Q482 125 512 164T556 228H568L500 0H402Q384 -14 367 -30T335 -64T312 -102T303 -145Q303 -198 365 -204L362 -215Q281
-217 243 -196T204 -139Q204 -113 223 -93T270 -56T329 -27T384 0H-62L-59 11Q-50 12 -38 14T-18 20Q18 31 36 62Q50 85 62 119T86 204L149 459Q160 504 166 532T172 579Q172 602 163 615T136 636Q125 641 114 643T94 646L97 657H610L598 444Z" />
<glyph unicode="&#x119;" glyph-name="eogonek" horiz-adv-x="418" d="M174 -215Q93 -217 55 -196T17 -139Q17 -115 35 -96T79 -61T137 -32T194 -5Q183 -7 172 -8T152 -9Q90 -9 52 33T13 152Q13 190 24 225T53 291T97 347T150 393Q189 420 229 433T301 447Q363
447 389 424T416 364Q416 319 369 283Q355 273 334 262T287 240T230 219T166 201Q155 143 155 94Q155 63 168 45T206 27Q237 27 261 38T305 65T339 101T365 137L376 129Q356 94 328 64T262 16Q234 2 208 -14T161 -49T129 -92T116 -145Q116 -198 177 -204L174 -215ZM320
389Q320 407 315 417T296 428Q276 428 257 411T222 366T192 300T169 220Q198 229 221 239T260 262Q275 273 286 289T305 323T316 358T320 389Z" />
<glyph unicode="&#x11a;" glyph-name="Ecaron" horiz-adv-x="615" d="M304 845L411 780L566 846L571 837Q568 835 557 825T530 801T497 770T464 740T438 717T426 706H369Q368 708 357 727T333 770T308 814T295 837L304 845ZM598 444H586Q580 482 566 518T535 581Q519
603 497 618T437 633H409Q372 633 355 613T327 551L277 352H303Q346 352 368 360T407 383Q430 403 448 432T474 485H486L413 192H401Q403 205 403 220T401 249T395 277T384 299Q376 312 357 320T299 329H271L231 169Q222 133 218 111T215 74Q217 45 233 34T280
23H304Q339 23 372 40T437 87Q482 125 512 164T556 228H568L500 0H-62L-59 11Q-50 12 -38 14T-18 20Q18 31 36 62Q50 85 62 119T86 204L149 459Q160 504 166 532T172 579Q172 602 163 615T136 636Q125 641 114 643T94 646L97 657H610L598 444Z" />
<glyph unicode="&#x11b;" glyph-name="ecaron" horiz-adv-x="418" d="M200 664L308 574L466 664L473 655Q462 643 438 618T389 566T343 517T317 489H260Q258 495 249 517T228 567T207 619T191 657L200 664ZM376 129Q361 102 340 78T291 34T229 3T152 -9Q90 -9
52 33T13 152Q13 190 23 224T51 288T93 343T145 388Q186 417 227 432T301 447Q363 447 389 424T416 364Q416 320 373 286Q360 276 339 265T290 242T231 220T166 201Q155 143 155 94Q155 63 168 45T206 27Q237 27 261 38T305 65T339 101T365 137L376 129ZM169 220Q201
230 228 243T272 271Q284 282 293 297T308 329T317 362T320 389Q320 407 315 417T296 428Q276 428 257 411T222 366T192 300T169 220Z" />
<glyph unicode="&#x11c;" glyph-name="Gcircumflex" horiz-adv-x="642" d="M543 705L436 770L280 704L275 713Q279 716 301 736T350 779T397 822T420 844H477Q478 842 489 822T514 779T538 735T551 712L543 705ZM655 288Q638 287 623 282Q610 278 599 272T580
253Q567 239 559 218T540 160L506 17H496Q491 22 480 27T454 33Q441 33 420 26T385 11Q365 1 333 -6T272 -14Q210 -14 163 7T85 63T37 144T21 238Q21 326 51 404T135 542T261 635T420 670Q480 670 517 649T569 602H573L622 647H634L574 412H561Q563 472 554 516T525
589T480 633T424 648Q402 648 386 643T355 629T328 607T303 578Q287 558 265 514T223 411T188 286T174 157Q174 122 181 94T209 44Q223 29 242 22T281 14Q337 14 361 42Q375 57 383 77T396 121L406 165Q415 205 415 226Q415 246 408 256T387 275Q378 280 368 283T343
288L346 299H658L655 288Z" />
<glyph unicode="&#x11d;" glyph-name="gcircumflex" horiz-adv-x="445" d="M407 493L299 578L140 492L133 501Q144 513 168 538T217 590T264 639T290 668H346Q349 662 358 640T378 590T400 538T415 500L407 493ZM249 430Q232 430 219 418T196 385Q190 370 184
350T172 307T164 262T161 224Q161 201 170 186T199 171Q233 171 252 215Q258 230 264 251T275 294T283 338T286 377Q286 400 278 415T249 430ZM128 -213Q86 -213 49 -207T-16 -187T-60 -154T-77 -106Q-77 -90 -67 -75T-38 -48T7 -28T64 -17V-15Q28 -2 12 21T-5
78Q-5 100 5 116T31 145T69 165T113 177Q85 194 69 223T53 287Q53 328 71 358T118 408T182 437T250 447Q288 447 317 434T364 396H367Q371 425 394 442T447 460Q474 460 491 446T509 406Q509 383 496 373T467 363Q451 363 441 370T423 390Q416 401 411 409T399
417Q393 417 387 409T381 380Q381 371 383 364T388 348Q391 340 393 330T395 311Q395 270 377 240T330 191T267 162T199 153Q175 153 159 158T130 166Q112 164 101 156T89 134Q89 116 116 110T200 93Q253 84 289 73T347 47T378 11T388 -40Q388 -81 367 -113T310
-167T227 -201T128 -213ZM131 -196Q166 -196 196 -190T248 -171T282 -142T295 -105Q295 -78 264 -66T165 -40Q149 -37 131 -34T94 -26Q78 -28 61 -33T30 -48T6 -73T-4 -111Q-4 -154 32 -175T131 -196Z" />
<glyph unicode="&#x11e;" glyph-name="Gbreve" horiz-adv-x="642" d="M328 849Q336 814 365 796T435 777Q478 777 513 795T570 849L582 842Q571 779 532 741T427 702Q378 702 346 730T312 806Q312 814 313 824T316 844L328 849ZM655 288Q638 287 623 282Q610 278
599 272T580 253Q567 239 559 218T540 160L506 17H496Q491 22 480 27T454 33Q441 33 420 26T385 11Q365 1 333 -6T272 -14Q210 -14 163 7T85 63T37 144T21 238Q21 326 51 404T135 542T261 635T420 670Q480 670 517 649T569 602H573L622 647H634L574 412H561Q563
472 554 516T525 589T480 633T424 648Q402 648 386 643T355 629T328 607T303 578Q287 558 265 514T223 411T188 286T174 157Q174 122 181 94T209 44Q223 29 242 22T281 14Q337 14 361 42Q375 57 383 77T396 121L406 165Q415 205 415 226Q415 246 408 256T387 275Q378
280 368 283T343 288L346 299H658L655 288Z" />
<glyph unicode="&#x11f;" glyph-name="gbreve" horiz-adv-x="445" d="M249 430Q232 430 219 418T196 385Q190 370 184 350T172 307T164 262T161 224Q161 201 170 186T199 171Q233 171 252 215Q258 230 264 251T275 294T283 338T286 377Q286 400 278 415T249 430ZM128
-213Q86 -213 49 -207T-16 -187T-60 -154T-77 -106Q-77 -90 -67 -75T-38 -48T7 -28T64 -17V-15Q28 -2 12 21T-5 78Q-5 100 5 116T31 145T69 165T113 177Q85 194 69 223T53 287Q53 328 71 358T118 408T182 437T250 447Q288 447 317 434T364 396H367Q371 425 394
442T447 460Q474 460 491 446T509 406Q509 383 496 373T467 363Q451 363 441 370T423 390Q416 401 411 409T399 417Q393 417 387 409T381 380Q381 371 383 364T388 348Q391 340 393 330T395 311Q395 270 377 240T330 191T267 162T199 153Q175 153 159 158T130 166Q112
164 101 156T89 134Q89 116 116 110T200 93Q253 84 289 73T347 47T378 11T388 -40Q388 -81 367 -113T310 -167T227 -201T128 -213ZM131 -196Q166 -196 196 -190T248 -171T282 -142T295 -105Q295 -78 264 -66T165 -40Q149 -37 131 -34T94 -26Q78 -28 61 -33T30 -48T6
-73T-4 -111Q-4 -154 32 -175T131 -196ZM191 673Q201 635 230 616T295 596Q376 596 424 673L436 666Q425 603 389 562T288 521Q239 521 208 551T175 629Q175 638 176 647T179 667L191 673Z" />
<glyph unicode="&#x120;" glyph-name="Gdotaccent" horiz-adv-x="642" d="M350 781Q350 812 371 833T422 854Q452 854 473 834T495 781Q495 750 474 730T422 709Q392 709 371 730T350 781ZM655 288Q638 287 623 282Q610 278 599 272T580 253Q567 239 559 218T540
160L506 17H496Q491 22 480 27T454 33Q441 33 420 26T385 11Q365 1 333 -6T272 -14Q210 -14 163 7T85 63T37 144T21 238Q21 326 51 404T135 542T261 635T420 670Q480 670 517 649T569 602H573L622 647H634L574 412H561Q563 472 554 516T525 589T480 633T424 648Q402
648 386 643T355 629T328 607T303 578Q287 558 265 514T223 411T188 286T174 157Q174 122 181 94T209 44Q223 29 242 22T281 14Q337 14 361 42Q375 57 383 77T396 121L406 165Q415 205 415 226Q415 246 408 256T387 275Q378 280 368 283T343 288L346 299H658L655
288Z" />
<glyph unicode="&#x121;" glyph-name="gdotaccent" horiz-adv-x="445" d="M249 430Q232 430 219 418T196 385Q190 370 184 350T172 307T164 262T161 224Q161 201 170 186T199 171Q233 171 252 215Q258 230 264 251T275 294T283 338T286 377Q286 400 278 415T249
430ZM128 -213Q86 -213 49 -207T-16 -187T-60 -154T-77 -106Q-77 -90 -67 -75T-38 -48T7 -28T64 -17V-15Q28 -2 12 21T-5 78Q-5 100 5 116T31 145T69 165T113 177Q85 194 69 223T53 287Q53 328 71 358T118 408T182 437T250 447Q288 447 317 434T364 396H367Q371
425 394 442T447 460Q474 460 491 446T509 406Q509 383 496 373T467 363Q451 363 441 370T423 390Q416 401 411 409T399 417Q393 417 387 409T381 380Q381 371 383 364T388 348Q391 340 393 330T395 311Q395 270 377 240T330 191T267 162T199 153Q175 153 159 158T130
166Q112 164 101 156T89 134Q89 116 116 110T200 93Q253 84 289 73T347 47T378 11T388 -40Q388 -81 367 -113T310 -167T227 -201T128 -213ZM131 -196Q166 -196 196 -190T248 -171T282 -142T295 -105Q295 -78 264 -66T165 -40Q149 -37 131 -34T94 -26Q78 -28 61
-33T30 -48T6 -73T-4 -111Q-4 -154 32 -175T131 -196ZM356 586Q356 556 335 537T286 517Q257 517 237 537T217 586Q217 615 237 635T286 656Q314 656 335 636T356 586Z" />
<glyph unicode="&#x122;" glyph-name="Gcommaaccent" horiz-adv-x="642" d="M311 -109Q311 -167 269 -202T154 -257L150 -241Q191 -229 220 -212T249 -176Q249 -164 232 -159Q211 -154 195 -139T179 -100Q179 -69 199 -53T246 -36Q273 -36 292 -55T311 -109ZM655
288Q638 287 623 282Q610 278 599 272T580 253Q567 239 559 218T540 160L506 17H496Q491 22 480 27T454 33Q441 33 420 26T385 11Q365 1 333 -6T272 -14Q210 -14 163 7T85 63T37 144T21 238Q21 326 51 404T135 542T261 635T420 670Q480 670 517 649T569 602H573L622
647H634L574 412H561Q563 472 554 516T525 589T480 633T424 648Q402 648 386 643T355 629T328 607T303 578Q287 558 265 514T223 411T188 286T174 157Q174 122 181 94T209 44Q223 29 242 22T281 14Q337 14 361 42Q375 57 383 77T396 121L406 165Q415 205 415 226Q415
246 408 256T387 275Q378 280 368 283T343 288L346 299H658L655 288Z" />
<glyph unicode="&#x123;" glyph-name="gcommaaccent" horiz-adv-x="445" d="M222 585Q222 643 264 677T378 729L382 713Q341 701 312 686T283 652Q283 641 300 635Q322 629 338 614T354 575Q354 544 334 528T286 512Q259 512 241 531T222 585ZM249 430Q232 430
219 418T196 385Q190 370 184 350T172 307T164 262T161 224Q161 201 170 186T199 171Q233 171 252 215Q258 230 264 251T275 294T283 338T286 377Q286 400 278 415T249 430ZM128 -213Q86 -213 49 -207T-16 -187T-60 -154T-77 -106Q-77 -90 -67 -75T-38 -48T7 -28T64
-17V-15Q28 -2 12 21T-5 78Q-5 100 5 116T31 145T69 165T113 177Q85 194 69 223T53 287Q53 328 71 358T118 408T182 437T250 447Q288 447 317 434T364 396H367Q371 425 394 442T447 460Q474 460 491 446T509 406Q509 383 496 373T467 363Q451 363 441 370T423 390Q416
401 411 409T399 417Q393 417 387 409T381 380Q381 371 383 364T388 348Q391 340 393 330T395 311Q395 270 377 240T330 191T267 162T199 153Q175 153 159 158T130 166Q112 164 101 156T89 134Q89 116 116 110T200 93Q253 84 289 73T347 47T378 11T388 -40Q388
-81 367 -113T310 -167T227 -201T128 -213ZM131 -196Q166 -196 196 -190T248 -171T282 -142T295 -105Q295 -78 264 -66T165 -40Q149 -37 131 -34T94 -26Q78 -28 61 -33T30 -48T6 -73T-4 -111Q-4 -154 32 -175T131 -196Z" />
<glyph unicode="&#x124;" glyph-name="Hcircumflex" horiz-adv-x="753" d="M823 646Q813 645 802 643T782 638Q747 627 727 595Q712 572 701 538T678 454L615 202Q604 156 599 126T593 78Q593 55 602 42T629 22Q640 17 651 15T670 11L667 0H326L329 11Q338 12
347 14T364 19Q381 26 392 35T415 61Q429 84 439 117T461 201L490 318H268L238 199Q227 154 221 125T215 77Q215 53 223 41T247 21Q255 16 264 14T282 11L279 0H-62L-59 11Q-50 12 -38 14T-18 20Q-1 26 12 35T36 62Q50 85 61 119T86 204L148 456Q159 501 165 531T171
579Q171 602 162 615T135 635Q124 640 113 642T93 646L96 657H437L434 646Q426 644 418 643T402 638Q385 631 373 622T349 596Q335 573 325 540T302 456L275 346H497L525 458Q536 503 542 532T548 579Q548 620 517 636Q507 641 499 642T482 646L484 657H826L823
646ZM602 705L495 770L339 704L334 713Q338 716 360 736T409 779T456 822T479 844H536Q537 842 548 822T573 779T597 735T610 712L602 705Z" />
<glyph unicode="&#x125;" glyph-name="hcircumflex" horiz-adv-x="543" d="M-13 0Q-12 3 1 43T33 142T76 271T119 403T155 511T174 569Q181 591 184 604T188 629Q188 650 176 661Q171 666 161 669T138 674L141 684H341Q346 684 346 679Q346 675 342 666T333 642Q329
632 326 624T320 605T312 583T303 555L216 285H223Q247 330 271 361T320 412T366 439T410 448Q455 448 474 425T493 364Q493 334 481 298T447 205Q428 156 416 119T404 67Q404 47 418 47Q427 47 439 54T466 73T494 100T519 134L532 127Q516 100 494 76T445 32T388
2T328 -9Q298 -9 280 7T261 56Q261 69 266 88T278 131T295 179T315 231Q335 283 348 318T362 371Q362 383 357 387T343 392Q320 392 277 339T184 161Q178 145 170 125T154 82L139 39Q132 18 126 0H-13ZM521 713L414 778L258 712L253 721Q257 724 279 744T328 787T375
830T398 852H455Q456 850 467 830T492 787T516 743T529 720L521 713Z" />
<glyph unicode="&#x126;" glyph-name="Hbar" horiz-adv-x="753" d="M275 346H497L525 459H303L275 346ZM823 646Q813 645 802 643T782 638Q747 627 727 595Q704 561 686 486H782L776 459H679Q679 458 676 447T669 417T659 376T647 329Q633 273 615 202Q604 156
599 126T593 78Q593 55 602 42T629 22Q640 17 651 15T670 11L667 0H326L329 11Q338 12 347 14T364 19Q381 26 392 35T415 61Q429 84 439 117T461 201L490 318H268L238 199Q227 154 221 125T215 77Q215 53 223 41T247 21Q255 16 264 14T282 11L279 0H-62L-59 11Q-50
12 -38 14T-18 20Q-1 26 12 35T36 62Q50 85 61 119T86 204L149 459H51L58 486H156Q171 550 171 579Q171 602 162 615T135 635Q124 640 113 642T93 646L96 657H437L434 646Q426 644 418 643T402 638Q385 631 373 622T349 596Q337 577 329 551T310 486H532Q540 519
544 541T548 579Q548 620 517 636Q507 641 499 642T482 646L484 657H826L823 646Z" />
<glyph unicode="&#x127;" glyph-name="hbar" horiz-adv-x="543" d="M532 127Q516 100 494 76T445 32T388 2T328 -9Q298 -9 280 7T261 56Q261 69 266 88T278 131T295 179T315 231Q335 283 348 318T362 371Q362 383 357 387T343 392Q320 392 277 339T184 161Q178
145 170 125T154 82L139 39Q132 18 126 0H-13Q-12 3 1 43T33 142T76 271T119 403T155 511Q160 529 164 541H96L104 565H172Q173 567 174 569Q181 591 184 604T188 629Q188 650 176 661Q171 666 161 669T138 674L141 684H341Q346 684 346 679Q346 675 342 666T333
642Q326 623 320 605Q315 590 306 565H424L416 541H298L216 285H223Q247 330 271 361T320 412T366 439T410 448Q455 448 474 425T493 364Q493 334 481 298T447 205Q428 156 416 119T404 67Q404 47 418 47Q427 47 439 54T466 73T494 100T519 134L532 127Z" />
<glyph unicode="&#x128;" glyph-name="Itilde" horiz-adv-x="377" d="M447 646Q437 645 426 643T406 638Q372 628 350 595Q336 572 325 538T302 454L239 201Q228 156 223 126T217 78Q217 55 226 42T252 22Q263 17 274 15T294 11L291 0H-62L-59 11Q-50 12 -38 14T-18
20Q15 29 36 62Q50 85 62 119T86 203L148 456Q159 501 165 531T171 579Q171 602 162 615T135 636Q124 641 113 643T93 646L96 657H449L447 646ZM471 838Q456 787 426 754T349 720Q332 720 316 724T283 734T251 743T222 748Q201 748 181 741T145 709L132 712Q149
766 181 796T262 826Q275 826 289 822T319 813T349 804T381 800Q407 800 424 806T458 840L471 838Z" />
<glyph unicode="&#x129;" glyph-name="itilde" horiz-adv-x="308" d="M296 127Q280 100 258 75T209 32T153 2T92 -10Q63 -10 45 7T26 56Q26 69 31 88T43 130T61 178T80 229Q87 248 95 269T110 309T121 345T126 372Q126 386 121 390T106 395Q94 395 73 376T22 312L9
319Q46 386 96 416T195 447Q227 447 243 429T260 379Q260 359 248 317T215 220Q205 194 197 170T182 125T172 89T168 66Q168 47 183 47Q192 47 205 54T231 73T259 100T284 134L296 127ZM651 648Q636 597 607 562T530 526Q513 526 497 530T464 540T433 550T404 555Q384
555 364 545T327 508L314 511Q331 565 363 599T445 634Q458 634 472 630T501 621T531 612T563 608Q588 608 605 616T638 650L651 648Z" />
<glyph unicode="&#x12a;" glyph-name="Imacron" horiz-adv-x="377" d="M447 646Q437 645 426 643T406 638Q372 628 350 595Q336 572 325 538T302 454L239 201Q228 156 223 126T217 78Q217 55 226 42T252 22Q263 17 274 15T294 11L291 0H-62L-59 11Q-50 12 -38
14T-18 20Q15 29 36 62Q50 85 62 119T86 203L148 456Q159 501 165 531T171 579Q171 602 162 615T135 636Q124 641 113 643T93 646L96 657H449L447 646ZM153 715L166 766H440L427 715H153Z" />
<glyph unicode="&#x12b;" glyph-name="imacron" horiz-adv-x="308" d="M89 545L102 596H334L321 545H89ZM296 127Q280 100 258 75T209 32T153 2T92 -10Q63 -10 45 7T26 56Q26 69 31 88T43 130T61 178T80 229Q87 248 95 269T110 309T121 345T126 372Q126 386 121
390T106 395Q94 395 73 376T22 312L9 319Q46 386 96 416T195 447Q227 447 243 429T260 379Q260 359 248 317T215 220Q205 194 197 170T182 125T172 89T168 66Q168 47 183 47Q192 47 205 54T231 73T259 100T284 134L296 127Z" />
<glyph unicode="&#x12c;" glyph-name="Ibreve" horiz-adv-x="377" d="M447 646Q437 645 426 643T406 638Q372 628 350 595Q336 572 325 538T302 454L239 201Q228 156 223 126T217 78Q217 55 226 42T252 22Q263 17 274 15T294 11L291 0H-62L-59 11Q-50 12 -38 14T-18
20Q15 29 36 62Q50 85 62 119T86 203L148 456Q159 501 165 531T171 579Q171 602 162 615T135 636Q124 641 113 643T93 646L96 657H449L447 646ZM196 849Q204 814 233 796T303 777Q346 777 381 795T438 849L450 842Q439 779 400 741T295 702Q246 702 214 730T180
806Q180 814 181 824T184 844L196 849Z" />
<glyph unicode="&#x12d;" glyph-name="ibreve" horiz-adv-x="308" d="M296 127Q280 100 258 75T209 32T153 2T92 -10Q63 -10 45 7T26 56Q26 69 31 88T43 130T61 178T80 229Q87 248 95 269T110 309T121 345T126 372Q126 386 121 390T106 395Q94 395 73 376T22 312L9
319Q46 386 96 416T195 447Q227 447 243 429T260 379Q260 359 248 317T215 220Q205 194 197 170T182 125T172 89T168 66Q168 47 183 47Q192 47 205 54T231 73T259 100T284 134L296 127ZM129 673Q139 635 168 616T233 596Q314 596 362 673L374 666Q363 603 327 562T226
521Q177 521 146 551T113 629Q113 638 114 647T117 667L129 673Z" />
<glyph unicode="&#x12e;" glyph-name="Iogonek" horiz-adv-x="377" d="M447 646Q437 645 426 643T406 638Q372 628 350 595Q336 572 325 538T302 454L239 201Q228 156 223 126T217 78Q217 55 226 42T252 22Q263 17 274 15T294 11L291 0H188Q153 -28 127 -64T100
-145Q100 -198 162 -204L159 -215Q78 -217 40 -196T2 -139Q2 -114 19 -94T62 -57T117 -27T170 0H-62L-59 11Q-50 12 -38 14T-18 20Q15 29 36 62Q50 85 62 119T86 203L148 456Q159 501 165 531T171 579Q171 602 162 615T135 636Q124 641 113 643T93 646L96 657H449L447
646Z" />
<glyph unicode="&#x12f;" glyph-name="iogonek" horiz-adv-x="308" d="M-47 -139Q-47 -115 -30 -97T12 -62T67 -33T121 -7Q107 -10 94 -10Q64 -10 46 7T27 56Q27 69 32 89T45 132T62 180T80 229Q87 248 95 269T110 309T121 345T126 372Q126 386 121 390T106 395Q94
395 73 376T22 312L9 319Q46 386 96 416T195 447Q227 447 243 429T260 379Q260 359 247 316T215 220Q205 194 197 170T182 125T173 89T169 66Q169 47 184 47Q193 47 205 54T231 73T259 100T284 134L297 127Q276 92 247 63T183 14Q160 1 137 -15T94 -51T64 -94T52
-145Q52 -198 113 -204L111 -215Q30 -217 -8 -196T-47 -139ZM242 517Q213 517 193 537T173 586Q173 615 193 635T242 656Q270 656 291 636T312 586Q312 556 291 537T242 517Z" />
<glyph unicode="&#x130;" glyph-name="Idotaccent" horiz-adv-x="377" d="M447 646Q437 645 426 643T406 638Q372 628 350 595Q336 572 325 538T302 454L239 201Q228 156 223 126T217 78Q217 55 226 42T252 22Q263 17 274 15T294 11L291 0H-62L-59 11Q-50 12 -38
14T-18 20Q15 29 36 62Q50 85 62 119T86 203L148 456Q159 501 165 531T171 579Q171 602 162 615T135 636Q124 641 113 643T93 646L96 657H449L447 646ZM218 781Q218 812 239 833T290 854Q320 854 341 834T363 781Q363 750 342 730T290 709Q260 709 239 730T218
781Z" />
<glyph unicode="&#x131;" glyph-name="dotlessi" horiz-adv-x="308" d="M296 127Q280 100 258 75T209 32T153 2T92 -10Q63 -10 45 7T26 56Q26 69 31 88T43 130T61 178T80 229Q87 248 95 269T110 309T121 345T126 372Q126 386 121 390T106 395Q94 395 73 376T22
312L9 319Q46 386 96 416T195 447Q227 447 243 429T260 379Q260 359 248 317T215 220Q205 194 197 170T182 125T172 89T168 66Q168 47 183 47Q192 47 205 54T231 73T259 100T284 134L296 127Z" />
<glyph unicode="&#x132;" glyph-name="IJ" horiz-adv-x="816" d="M447 646Q437 645 426 643T406 638Q372 628 350 595Q336 572 325 538T302 454L239 201Q228 156 223 126T217 78Q217 55 226 42T252 22Q263 17 274 15T294 11L291 0H-62L-59 11Q-50 12 -38 14T-18
20Q15 29 36 62Q50 85 62 119T86 203L148 456Q159 501 165 531T171 579Q171 602 162 615T135 636Q124 641 113 643T93 646L96 657H449L447 646ZM904 646Q895 645 883 643T863 638Q830 627 808 595Q794 572 783 538T759 454L695 197Q684 154 663 116T609 49T533
3T437 -14Q397 -14 369 -3T322 26T295 67T286 113Q286 155 311 179T372 203Q403 203 427 183T451 124Q451 99 441 84T425 61Q419 53 411 45T403 29Q403 18 412 13T429 8Q446 8 459 14T486 35Q501 53 510 80T530 147L606 456Q628 544 628 579Q628 602 619 615T593
635Q582 640 571 642T551 646L554 657H907L904 646Z" />
<glyph unicode="&#x133;" glyph-name="ij" horiz-adv-x="575" d="M312 586Q312 556 291 537T242 517Q213 517 193 537T173 586Q173 615 193 635T242 656Q270 656 291 636T312 586ZM126 372Q126 386 121 390T106 395Q94 395 73 376T22 312L9 319Q46 386 96 416T195
447Q227 447 243 429T260 379Q260 359 247 316T215 220Q205 194 197 170T182 125T173 89T169 66Q169 47 184 47Q193 47 205 54T231 73T259 100T284 134L297 127Q281 100 259 75T210 32T154 2T93 -10Q64 -10 46 7T27 56Q27 69 32 89T45 132T62 180T80 229Q87 248
95 269T110 309T121 345T126 372ZM621 588Q621 558 601 539T551 519Q523 519 503 539T482 588Q482 617 502 637T551 658Q579 658 600 638T621 588ZM496 141Q473 77 454 33T419 -43T386 -97T350 -139Q320 -169 277 -191T185 -213Q160 -213 138 -207T100 -188T73
-158T63 -118Q63 -88 81 -69T128 -49Q162 -49 177 -68T192 -110Q192 -125 189 -135T180 -155Q176 -162 173 -168T170 -178Q170 -186 175 -189T188 -193Q205 -193 219 -184T250 -150Q257 -139 266 -116T287 -64T310 -2T332 62T351 118T366 160Q374 184 385 217T407
283T425 339T432 372Q432 385 427 389T412 394Q400 394 379 375T328 311L315 319Q352 386 402 416T500 447Q535 447 551 429T568 379Q568 367 561 339T543 277T519 206T496 141Z" />
<glyph unicode="&#x134;" glyph-name="Jcircumflex" horiz-adv-x="469" d="M526 705L419 770L263 704L258 713Q262 716 284 736T333 779T380 822T403 844H460Q461 842 472 822T497 779T521 735T534 712L526 705ZM558 646Q549 645 537 643T517 638Q484 628 462
595Q447 572 436 538T413 454L348 195Q337 153 315 115T260 49T184 3T86 -14Q46 -14 17 -3T-32 26T-61 67T-71 115Q-71 156 -46 180T14 204Q45 204 69 184T93 125Q93 100 83 86T68 63Q62 55 54 47T46 31Q46 20 56 14T78 8Q97 8 110 13T138 35Q155 55 164 82T183
147L259 456Q270 501 276 531T282 579Q282 602 273 615T247 635Q235 640 224 642T205 646L208 657H560L558 646Z" />
<glyph unicode="&#x135;" glyph-name="jcircumflex" horiz-adv-x="275" d="M268 379Q268 367 261 339T243 277T219 206T196 141Q173 77 154 33T119 -43T86 -97T50 -139Q20 -169 -23 -191T-115 -213Q-140 -213 -162 -207T-200 -188T-227 -158T-237 -118Q-237 -88
-219 -69T-172 -49Q-138 -49 -123 -68T-108 -110Q-108 -125 -111 -135T-120 -155Q-124 -162 -127 -168T-130 -178Q-130 -186 -125 -189T-112 -193Q-95 -193 -81 -184T-50 -150Q-43 -139 -34 -116T-13 -64T10 -2T32 62T51 118T66 160Q74 184 85 217T107 283T125
339T132 372Q132 385 127 389T112 394Q100 394 79 375T28 311L15 319Q52 386 102 416T200 447Q235 447 251 429T268 379ZM351 493L243 578L84 492L77 501Q88 513 112 538T161 590T208 639T234 668H290Q293 662 302 640T322 590T344 538T359 500L351 493Z" />
<glyph unicode="&#x136;" glyph-name="Kcommaaccent" horiz-adv-x="680" d="M368 -109Q368 -167 326 -202T211 -257L207 -241Q248 -229 277 -212T306 -176Q306 -164 289 -159Q268 -154 252 -139T236 -100Q236 -69 256 -53T303 -36Q330 -36 349 -55T368 -109ZM509
-14Q471 -14 447 0T409 37T389 90T381 151Q379 178 379 195T378 226V250Q378 261 377 274Q375 306 361 317T327 329Q310 329 294 320T262 297L239 202Q228 156 222 126T215 77Q215 53 223 41T247 21Q255 16 266 14T285 11L283 0H-62L-59 11Q-50 12 -38 14T-18 20Q15
29 36 62Q50 85 61 119T86 204L148 456Q159 501 165 531T171 579Q171 602 163 615T137 635Q125 640 113 642T93 646L96 657H441L438 646Q419 644 402 638Q385 631 373 622T349 595Q335 572 325 538T301 454L271 330L475 508Q507 537 528 559T549 604Q549 628 524
638Q515 642 507 643T488 646L491 657H745L743 646Q726 643 702 636T658 618Q645 612 631 603T600 582T560 551T510 507L338 360L337 356Q348 361 366 365T399 370Q428 370 452 362T495 333T524 278T539 192Q541 150 545 122T555 78T572 55T596 48Q616 48 631 64T655
100L668 94Q661 75 649 56T617 21T570 -4T509 -14Z" />
<glyph unicode="&#x137;" glyph-name="kcommaaccent" horiz-adv-x="531" d="M249 151Q249 93 207 58T92 3L88 19Q129 31 158 48T187 84Q187 96 170 101Q149 106 133 121T117 160Q117 191 137 207T184 224Q211 224 230 205T249 151ZM338 -9Q310 -9 289 9T268 56Q268
82 274 108T287 155Q291 168 293 180T296 203Q296 226 286 238T245 250H208L127 0H-13L175 569Q182 591 185 604T189 629Q189 650 177 661Q172 666 162 669T139 674L142 684H344Q349 684 349 679Q349 675 346 666T337 642Q333 632 330 624T324 607T316 585L306
555L214 268H252Q274 268 291 276T320 296T340 321T355 345Q368 370 379 388T404 421Q431 448 467 448Q501 448 519 427T538 375Q538 342 521 324T480 305Q457 305 441 317T425 356Q425 360 427 368T432 385L439 399Q442 405 442 407Q442 414 434 414Q419 414 406
393T371 334Q357 310 340 290T297 261V257Q409 242 412 149Q412 141 412 131T409 107Q407 93 407 84T408 68Q409 47 425 47Q442 47 468 70T516 130L528 122Q513 96 493 73T448 31T396 2T338 -9Z" />
<glyph unicode="&#x139;" glyph-name="Lacute" horiz-adv-x="572" d="M194 708Q241 745 270 770T325 815Q348 834 363 841T397 848Q417 848 431 835T446 796Q446 772 428 759T385 738Q355 729 309 721T200 699L194 708ZM-59 11Q-50 12 -38 14T-18 20Q18 31 36
62Q50 85 61 119T86 204L148 456Q159 501 165 531T171 579Q171 602 162 615T135 636Q124 641 113 643T94 646L96 657H446L443 646Q435 645 422 642T400 635Q386 630 373 620T349 595Q335 572 325 538T302 454L230 169Q222 138 218 116T213 78Q213 52 225 40Q241
24 279 24H297Q332 24 364 41T428 87Q473 126 503 164T548 225H559L491 0H-62L-59 11Z" />
<glyph unicode="&#x13a;" glyph-name="lacute" horiz-adv-x="292" d="M425 830Q425 805 408 790T363 764Q335 753 291 739T191 706L186 715Q226 758 251 785T300 835Q323 857 340 868T375 879Q398 879 411 868T425 830ZM192 220Q172 164 159 124T146 67Q146 47
160 47Q170 47 184 54T212 73T241 101T266 135L279 127Q263 100 241 76T192 32T135 2T73 -9Q41 -9 23 8T5 58Q5 71 11 93T25 142T43 194T61 241Q66 256 75 281T94 338T116 404T138 469T158 527T172 569Q177 582 181 599T186 629Q186 651 175 661Q170 666 159 669T136
674L139 684H342Q348 684 348 679Q348 675 344 666T334 642Q326 622 321 605T304 555Q285 501 267 446T233 345T207 265T192 220Z" />
<glyph unicode="&#x13b;" glyph-name="Lcommaaccent" horiz-adv-x="572" d="M304 -109Q304 -167 262 -202T147 -257L143 -241Q184 -229 213 -212T242 -176Q242 -164 225 -159Q204 -154 188 -139T172 -100Q172 -69 192 -53T239 -36Q266 -36 285 -55T304 -109ZM-59
11Q-50 12 -38 14T-18 20Q18 31 36 62Q50 85 61 119T86 204L148 456Q159 501 165 531T171 579Q171 602 162 615T135 636Q124 641 113 643T94 646L96 657H446L443 646Q435 645 422 642T400 635Q386 630 373 620T349 595Q335 572 325 538T302 454L230 169Q222 138
218 116T213 78Q213 52 225 40Q241 24 279 24H297Q332 24 364 41T428 87Q473 126 503 164T548 225H559L491 0H-62L-59 11Z" />
<glyph unicode="&#x13c;" glyph-name="lcommaaccent" horiz-adv-x="292" d="M377 151Q377 93 335 58T220 3L216 19Q257 31 286 48T315 84Q315 96 298 101Q277 106 261 121T245 160Q245 191 265 207T312 224Q339 224 358 205T377 151ZM192 220Q172 164 159 124T146
67Q146 47 160 47Q170 47 184 54T212 73T241 101T266 135L279 127Q263 100 241 76T192 32T135 2T73 -9Q41 -9 23 8T5 58Q5 71 11 93T25 142T43 194T61 241Q66 256 75 281T94 338T116 404T138 469T158 527T172 569Q177 582 181 599T186 629Q186 651 175 661Q170
666 159 669T136 674L139 684H342Q348 684 348 679Q348 675 344 666T334 642Q326 622 321 605T304 555Q285 501 267 446T233 345T207 265T192 220Z" />
<glyph unicode="&#x13d;" glyph-name="Lcaron" horiz-adv-x="572" d="M504 658H598Q581 635 565 613T531 567T495 518T454 462H440L504 658ZM-59 11Q-50 12 -38 14T-18 20Q18 31 36 62Q50 85 61 119T86 204L148 456Q159 501 165 531T171 579Q171 602 162 615T135
636Q124 641 113 643T94 646L96 657H446L443 646Q435 645 422 642T400 635Q386 630 373 620T349 595Q335 572 325 538T302 454L230 169Q222 138 218 116T213 78Q213 52 225 40Q241 24 279 24H297Q332 24 364 41T428 87Q473 126 503 164T548 225H559L491 0H-62L-59
11Z" />
<glyph unicode="&#x13e;" glyph-name="lcaron" horiz-adv-x="292" d="M398 684H492Q475 661 459 639T425 593T389 544T348 488H334L398 684ZM192 220Q172 164 159 124T146 67Q146 47 160 47Q170 47 184 54T212 73T241 101T266 135L279 127Q263 100 241 76T192
32T135 2T73 -9Q41 -9 23 8T5 58Q5 71 11 93T25 142T43 194T61 241Q66 256 75 281T94 338T116 404T138 469T158 527T172 569Q177 582 181 599T186 629Q186 651 175 661Q170 666 159 669T136 674L139 684H342Q348 684 348 679Q348 675 344 666T334 642Q326 622 321
605T304 555Q285 501 267 446T233 345T207 265T192 220Z" />
<glyph unicode="&#x13f;" glyph-name="Ldot" horiz-adv-x="572" d="M424 355Q424 386 445 407T497 429Q527 429 549 408T571 355Q571 324 550 303T497 282Q467 282 446 303T424 355ZM-59 11Q-50 12 -38 14T-18 20Q18 31 36 62Q50 85 61 119T86 204L148 456Q159
501 165 531T171 579Q171 602 162 615T135 636Q124 641 113 643T94 646L96 657H446L443 646Q435 645 422 642T400 635Q386 630 373 620T349 595Q335 572 325 538T302 454L230 169Q222 138 218 116T213 78Q213 52 225 40Q241 24 279 24H297Q332 24 363 39T427 81Q471
119 500 154T544 212H555L491 0H-62L-59 11Z" />
<glyph unicode="&#x140;" glyph-name="ldot" horiz-adv-x="292" d="M405 323Q405 294 385 275T337 256Q309 256 290 275T270 323Q270 351 289 371T337 391Q364 391 384 372T405 323ZM192 220Q172 164 159 124T146 67Q146 47 160 47Q170 47 184 54T212 73T241 101T266
135L279 127Q263 100 241 76T192 32T135 2T73 -9Q41 -9 23 8T5 58Q5 71 11 93T25 142T43 194T61 241Q66 256 75 281T94 338T116 404T138 469T158 527T172 569Q177 582 181 599T186 629Q186 651 175 661Q170 666 159 669T136 674L139 684H342Q348 684 348 679Q348
675 344 666T334 642Q326 622 321 605T304 555Q285 501 267 446T233 345T207 265T192 220Z" />
<glyph unicode="&#x141;" glyph-name="Lslash" horiz-adv-x="572" d="M-59 11Q-50 12 -38 14T-18 20Q18 31 36 62Q50 85 61 119T86 204L99 257L2 224L8 252L106 285L148 456Q159 501 165 531T171 579Q171 602 162 615T135 636Q124 641 113 643T94 646L96 657H446L443
646Q435 645 422 642T400 635Q386 630 373 620T349 595Q335 572 325 538T302 454L274 343L490 418L483 390L267 315L230 169Q222 138 218 116T213 78Q213 52 225 40Q241 24 279 24H297Q332 24 364 41T428 87Q473 126 503 164T548 225H559L491 0H-62L-59 11Z" />
<glyph unicode="&#x142;" glyph-name="lslash" horiz-adv-x="294" d="M23 317L98 348Q108 375 117 404Q129 438 140 469T159 527T173 569Q178 582 182 599T187 629Q187 651 176 661Q171 666 160 669T137 674L141 684H344Q349 684 349 679Q349 675 345 666T336
642Q332 632 329 623T323 605T315 583T305 555Q286 501 267 446Q261 428 256 412L334 444L329 419L247 385Q240 364 234 344Q219 298 208 265T194 220Q174 164 161 124T147 67Q147 47 162 47Q172 47 185 54T213 73T242 101T268 135L280 127Q264 100 242 76T193
32T136 2T74 -9Q42 -9 24 8T6 58Q6 71 12 93T27 142T45 194T62 241Q67 256 76 281Q82 300 90 321L17 292L23 317Z" />
<glyph unicode="&#x143;" glyph-name="Nacute" horiz-adv-x="650" d="M345 708Q392 745 421 770T476 815Q499 834 514 841T548 848Q568 848 582 835T597 796Q597 772 579 759T536 738Q506 729 460 721T351 699L345 708ZM722 646Q715 644 707 644T690 640Q677 635
665 628T641 604Q632 591 620 564T595 482L473 -8H441L201 528H197L108 174Q101 145 98 119T94 78Q94 52 104 37T132 17Q140 15 150 14T171 11L168 0H-62L-59 11Q-51 12 -41 13T-23 17Q-9 22 4 30T29 55Q40 68 54 98T80 176L151 459Q157 481 160 497T166 526T169
549T170 571Q170 592 156 611T121 638Q113 640 102 642T83 646L85 657H319L503 239H506L564 475Q573 511 577 537T581 577Q581 602 570 617T540 639Q533 642 523 643T501 646L504 657H724L722 646Z" />
<glyph unicode="&#x144;" glyph-name="nacute" horiz-adv-x="564" d="M507 621Q507 596 490 582T445 556Q417 544 373 530T273 498L268 507Q288 529 304 546T333 577T358 603T382 626Q405 648 422 659T457 671Q480 671 493 659T507 621ZM552 127Q536 100 514 76T465
32T408 2T348 -9Q318 -9 300 7T281 56Q281 69 286 88T298 131T315 179T335 230Q356 283 369 317T382 368Q382 381 377 385T363 390Q352 390 335 376T297 332T251 255T199 139Q186 107 174 72T149 0H11Q22 33 35 72T60 149T83 217T100 265Q111 300 117 324T123 368Q123
397 102 397Q89 397 68 377T18 312L4 320Q41 386 86 416T176 447Q213 447 230 429T247 379Q247 356 242 325T227 260H234Q286 363 337 405T431 447Q476 447 494 425T513 363Q513 333 501 297T467 204Q448 155 436 119T424 67Q424 48 438 48Q447 48 460 55T486 73T514
100T539 134L552 127Z" />
<glyph unicode="&#x145;" glyph-name="Ncommaaccent" horiz-adv-x="650" d="M316 -109Q316 -167 274 -202T159 -257L155 -241Q196 -229 225 -212T254 -176Q254 -164 237 -159Q216 -154 200 -139T184 -100Q184 -69 204 -53T251 -36Q278 -36 297 -55T316 -109ZM722
646Q715 644 707 644T690 640Q677 635 665 628T641 604Q632 591 620 564T595 482L473 -8H441L201 528H197L108 174Q101 145 98 119T94 78Q94 52 104 37T132 17Q140 15 150 14T171 11L168 0H-62L-59 11Q-51 12 -41 13T-23 17Q-9 22 4 30T29 55Q40 68 54 98T80 176L151
459Q157 481 160 497T166 526T169 549T170 571Q170 592 156 611T121 638Q113 640 102 642T83 646L85 657H319L503 239H506L564 475Q573 511 577 537T581 577Q581 602 570 617T540 639Q533 642 523 643T501 646L504 657H724L722 646Z" />
<glyph unicode="&#x146;" glyph-name="ncommaaccent" horiz-adv-x="564" d="M272 151Q272 93 230 58T115 3L111 19Q152 31 181 48T210 84Q210 96 193 101Q172 106 156 121T140 160Q140 191 160 207T207 224Q234 224 253 205T272 151ZM552 127Q536 100 514 76T465
32T408 2T348 -9Q318 -9 300 7T281 56Q281 69 286 88T298 131T315 179T335 230Q356 283 369 317T382 368Q382 381 377 385T363 390Q352 390 335 376T297 332T251 255T199 139Q186 107 174 72T149 0H11Q22 33 35 72T60 149T83 217T100 265Q111 300 117 324T123 368Q123
397 102 397Q89 397 68 377T18 312L4 320Q41 386 86 416T176 447Q213 447 230 429T247 379Q247 356 242 325T227 260H234Q286 363 337 405T431 447Q476 447 494 425T513 363Q513 333 501 297T467 204Q448 155 436 119T424 67Q424 48 438 48Q447 48 460 55T486 73T514
100T539 134L552 127Z" />
<glyph unicode="&#x147;" glyph-name="Ncaron" horiz-adv-x="650" d="M345 845L452 780L607 846L612 837Q609 835 598 825T571 801T538 770T505 740T479 717T467 706H410Q409 708 398 727T374 770T349 814T336 837L345 845ZM722 646Q715 644 707 644T690 640Q677
635 665 628T641 604Q632 591 620 564T595 482L473 -8H441L201 528H197L108 174Q101 145 98 119T94 78Q94 52 104 37T132 17Q140 15 150 14T171 11L168 0H-62L-59 11Q-51 12 -41 13T-23 17Q-9 22 4 30T29 55Q40 68 54 98T80 176L151 459Q157 481 160 497T166 526T169
549T170 571Q170 592 156 611T121 638Q113 640 102 642T83 646L85 657H319L503 239H506L564 475Q573 511 577 537T581 577Q581 602 570 617T540 639Q533 642 523 643T501 646L504 657H724L722 646Z" />
<glyph unicode="&#x148;" glyph-name="ncaron" horiz-adv-x="564" d="M248 664L356 574L514 664L521 655Q510 643 486 618T437 566T391 517T365 489H308Q306 495 297 517T276 567T255 619T239 657L248 664ZM552 127Q536 100 514 76T465 32T408 2T348 -9Q318 -9
300 7T281 56Q281 69 286 88T298 131T315 179T335 230Q356 283 369 317T382 368Q382 381 377 385T363 390Q352 390 335 376T297 332T251 255T199 139Q186 107 174 72T149 0H11Q22 33 35 72T60 149T83 217T100 265Q111 300 117 324T123 368Q123 397 102 397Q89 397
68 377T18 312L4 320Q41 386 86 416T176 447Q213 447 230 429T247 379Q247 356 242 325T227 260H234Q286 363 337 405T431 447Q476 447 494 425T513 363Q513 333 501 297T467 204Q448 155 436 119T424 67Q424 48 438 48Q447 48 460 55T486 73T514 100T539 134L552
127Z" />
<glyph unicode="&#x149;" glyph-name="napostrophe" horiz-adv-x="562" d="M226 453Q242 458 261 465T296 482T323 502T336 524Q337 533 323 540Q298 548 286 565T273 607Q273 637 292 655T341 674Q371 674 391 654T412 597Q412 568 397 543T357 498T298 462T230
438L226 453ZM552 127Q536 100 514 76T465 32T408 2T348 -9Q318 -9 300 7T281 56Q281 69 286 88T298 131T315 179T335 230Q356 283 369 317T382 368Q382 381 377 385T363 390Q352 390 335 376T297 332T251 255T199 139Q186 107 174 72T149 0H11Q22 33 35 72T60
149T83 217T100 265Q111 300 117 324T123 368Q123 397 102 397Q89 397 68 377T18 312L4 320Q41 386 86 416T176 447Q213 447 230 429T247 379Q247 356 242 325T227 260H234Q286 363 337 405T431 447Q476 447 494 425T513 363Q513 333 501 297T467 204Q448 155 436
119T424 67Q424 48 438 48Q447 48 460 55T486 73T514 100T539 134L552 127Z" />
<glyph unicode="&#x14a;" glyph-name="Eng" horiz-adv-x="650" d="M309 -179Q358 -179 389 -140T440 -26L445 -4L201 528H197L108 174Q101 145 98 119T94 78Q94 52 104 37T132 17Q147 13 169 11L166 0H-62L-59 11Q-51 12 -41 13T-23 17Q-9 22 4 30T29 55Q40 68
54 98T80 176L151 459Q157 481 160 497T166 526T169 549T170 571Q170 592 156 611T121 638Q113 640 102 642T83 646L85 657H319L504 244H507L564 475Q573 511 577 537T581 577Q581 602 570 617T540 639Q533 642 523 643T501 646L504 657H724L722 646Q715 644 707
644T690 640Q677 635 665 628T641 604Q632 591 620 564T595 482L471 -17Q460 -60 447 -94T414 -152T368 -189T303 -202Q271 -202 246 -192T203 -164T177 -125T168 -78Q168 -57 175 -41T194 -14T221 4T252 10Q283 10 306 -9T330 -66Q330 -91 320 -105T304 -128Q296
-136 289 -144T281 -159Q281 -170 289 -174T309 -179Z" />
<glyph unicode="&#x14b;" glyph-name="eng" horiz-adv-x="545" d="M382 370Q382 390 363 390Q352 390 335 376T297 332T251 255T199 139Q186 107 174 72T149 0H11Q22 33 35 72T60 149T83 217T100 265Q111 300 117 324T123 368Q123 397 102 397Q89 397 68 377T18
312L4 320Q41 386 86 416T176 447Q213 447 230 429T247 379Q247 356 242 325T227 260H234Q286 363 337 405T431 447Q476 447 495 425T514 363Q514 348 509 325T496 275T477 219T456 161Q433 97 413 50T375 -33T339 -94T303 -139Q273 -169 230 -191T137 -213Q112
-213 90 -207T52 -188T25 -158T15 -118Q15 -88 33 -69T81 -49Q114 -49 129 -68T144 -110Q144 -124 141 -134T132 -155Q128 -161 125 -167T122 -178Q122 -185 127 -189T140 -193Q157 -193 171 -184T202 -149Q209 -138 219 -114T241 -59T265 8T289 77T310 138T326
181Q335 206 344 235T362 292T376 340T382 370Z" />
<glyph unicode="&#x14c;" glyph-name="Omacron" horiz-adv-x="654" d="M285 715L298 766H572L559 715H285ZM642 413Q642 365 631 315T599 218T547 130T474 59Q429 26 376 6T261 -14Q208 -14 164 4T89 55T40 136T22 243Q22 291 33 341T65 438T117 526T190 597Q235
631 288 650T403 670Q456 670 500 652T575 601T624 520T642 413ZM490 519Q490 582 469 615T405 648Q373 648 345 628T297 576Q283 556 262 509T222 401T188 271T174 138Q174 75 196 42T261 8Q293 8 320 28T367 80Q381 101 402 147T442 255T476 385T490 519Z" />
<glyph unicode="&#x14d;" glyph-name="omacron" horiz-adv-x="462" d="M188 545L201 596H443L430 545H188ZM174 -9Q99 -9 57 38T13 162Q13 223 38 281T107 381Q141 412 186 429T281 447Q318 447 348 435T399 399T431 345T442 274Q442 214 417 156T348 58Q315 27
269 9T174 -9ZM284 430Q267 430 253 419T222 377Q210 353 195 312T167 225T145 133T136 58Q136 36 144 22T172 8Q188 8 203 20T233 59Q246 84 261 124T289 211T311 302T320 383Q320 405 311 417T284 430Z" />
<glyph unicode="&#x14e;" glyph-name="Obreve" horiz-adv-x="654" d="M327 849Q335 814 364 796T434 777Q477 777 512 795T569 849L581 842Q570 779 531 741T426 702Q377 702 345 730T311 806Q311 814 312 824T315 844L327 849ZM642 413Q642 365 631 315T599 218T547
130T474 59Q429 26 376 6T261 -14Q208 -14 164 4T89 55T40 136T22 243Q22 291 33 341T65 438T117 526T190 597Q235 631 288 650T403 670Q456 670 500 652T575 601T624 520T642 413ZM490 519Q490 582 469 615T405 648Q373 648 345 628T297 576Q283 556 262 509T222
401T188 271T174 138Q174 75 196 42T261 8Q293 8 320 28T367 80Q381 101 402 147T442 255T476 385T490 519Z" />
<glyph unicode="&#x14f;" glyph-name="obreve" horiz-adv-x="462" d="M174 -9Q99 -9 57 38T13 162Q13 223 38 281T107 381Q141 412 186 429T281 447Q318 447 348 435T399 399T431 345T442 274Q442 214 417 156T348 58Q315 27 269 9T174 -9ZM284 430Q267 430 253
419T222 377Q210 353 195 312T167 225T145 133T136 58Q136 36 144 22T172 8Q188 8 203 20T233 59Q246 84 261 124T289 211T311 302T320 383Q320 405 311 417T284 430ZM209 673Q219 635 248 616T313 596Q394 596 442 673L454 666Q443 603 407 562T306 521Q257 521
226 551T193 629Q193 638 194 647T197 667L209 673Z" />
<glyph unicode="&#x150;" glyph-name="Ohungarumlaut" horiz-adv-x="654" d="M502 833Q502 814 485 799T447 771Q427 759 399 745T320 705H301Q319 730 331 747T353 778T370 802T388 826Q406 849 422 862T458 875Q478 875 490 864T502 833ZM671 833Q671 814 654
799T616 771Q596 759 568 745T489 705H470Q488 730 500 747T522 778T539 802T557 826Q576 849 592 862T627 875Q647 875 659 864T671 833ZM642 413Q642 365 631 315T599 218T547 130T474 59Q429 26 376 6T261 -14Q208 -14 164 4T89 55T40 136T22 243Q22 291 33
341T65 438T117 526T190 597Q235 631 288 650T403 670Q456 670 500 652T575 601T624 520T642 413ZM490 519Q490 582 469 615T405 648Q373 648 345 628T297 576Q283 556 262 509T222 401T188 271T174 138Q174 75 196 42T261 8Q293 8 320 28T367 80Q381 101 402 147T442
255T476 385T490 519Z" />
<glyph unicode="&#x151;" glyph-name="ohungarumlaut" horiz-adv-x="462" d="M318 673Q338 673 352 660T366 624Q366 607 356 594T328 569Q305 552 269 530T179 479L170 487Q186 514 198 534T220 570T238 600T255 626Q269 647 282 660T318 673ZM496 673Q516 673
530 660T544 624Q544 607 534 594T506 569Q483 552 447 530T357 479L348 487Q364 514 376 534T398 570T416 600T433 626Q447 647 460 660T496 673ZM174 -9Q99 -9 57 38T13 162Q13 223 38 281T107 381Q141 412 186 429T281 447Q318 447 348 435T399 399T431 345T442
274Q442 214 417 156T348 58Q315 27 269 9T174 -9ZM284 430Q267 430 253 419T222 377Q210 353 195 312T167 225T145 133T136 58Q136 36 144 22T172 8Q188 8 203 20T233 59Q246 84 261 124T289 211T311 302T320 383Q320 405 311 417T284 430Z" />
<glyph unicode="&#x152;" glyph-name="OE" horiz-adv-x="946" d="M404 0Q389 0 369 -1T328 -3T287 -5T253 -6Q209 -6 168 8T94 53T42 130T22 244Q22 329 51 405T132 537T257 627T416 660Q427 660 447 660T489 659T532 658T568 657H941L929 444H917Q912 482 898
518T866 581Q851 603 829 618T768 633H743Q714 633 698 621Q687 613 678 597T661 551L611 352H636Q678 352 700 360T740 383Q763 403 781 432T807 485H819L746 192H734Q735 205 735 220T733 249T727 277T717 299Q708 312 690 320T634 329H606L565 169Q557 134 553
114T548 78Q548 47 565 35T615 23H634Q669 23 702 40T767 87Q811 125 842 164T887 228H898L830 0H404ZM417 637Q386 637 366 628T328 601Q309 585 289 548T251 461T218 357T191 249T175 154T174 87Q180 50 202 33T256 16Q288 16 309 28T345 60Q355 73 370 110T403
196T437 302T467 412T486 508T489 574Q484 604 467 620T417 637Z" />
<glyph unicode="&#x153;" glyph-name="oe" horiz-adv-x="694" d="M692 364Q692 321 649 287Q636 277 614 266T563 243T504 221T442 201Q431 143 431 94Q431 31 479 31Q507 31 531 41T576 68T613 102T641 137L652 129Q636 101 615 76T566 32T506 2T434 -9Q396 -9
367 11T326 62H322Q294 30 254 11T174 -9Q99 -9 57 38T13 162Q12 223 38 281T107 381Q141 412 186 430T280 448Q325 448 356 424T401 365H406Q421 382 442 397T486 423T533 441T576 448Q638 448 665 424T692 364ZM598 389Q598 407 592 417T571 428Q552 428 533
411T498 366T468 300T445 220Q458 224 474 230T505 243T534 258T556 274Q568 285 576 300T589 331T596 363T598 389ZM318 383Q319 405 310 417T283 430Q266 430 252 419T222 378Q210 354 195 313T167 225T145 133T136 58Q136 36 143 22T171 8Q188 8 202 20T231
59Q244 84 259 124T288 211T309 302T318 383Z" />
<glyph unicode="&#x154;" glyph-name="Racute" horiz-adv-x="662" d="M308 708Q355 745 384 770T439 815Q462 834 477 841T511 848Q531 848 545 835T560 796Q560 772 542 759T499 738Q469 729 423 721T314 699L308 708ZM506 -13Q467 -13 442 -1T401 33T379 84T372
145Q371 187 370 219T361 279Q355 300 342 310T299 321H267L237 201Q215 113 215 79Q215 36 250 22Q262 17 275 15T297 11L294 0H-62L-59 11Q-50 12 -39 14T-20 20Q13 29 34 62Q48 85 59 119T84 204L147 459Q158 504 163 532T169 579Q169 602 160 615T134 636Q122
641 111 643T92 646L95 657H411Q470 657 510 647T575 619T611 574T622 517Q622 464 588 424T499 359Q479 350 454 344T395 332L394 328Q421 325 439 318T475 298Q498 281 513 252T531 179Q534 138 538 112T548 71T564 51T586 45Q604 45 620 61T645 99L659 94Q651
75 639 56T608 22T564 -3T506 -13ZM472 561Q472 594 459 613T414 633H389Q365 633 353 622Q339 608 330 573L273 345H318Q354 345 377 353T421 384Q433 399 442 421T458 467T468 515T472 561Z" />
<glyph unicode="&#x155;" glyph-name="racute" horiz-adv-x="441" d="M467 621Q467 596 450 582T405 556Q377 544 333 530T233 498L228 507Q248 529 264 546T293 577T318 603T342 626Q365 648 382 659T417 671Q440 671 453 659T467 621ZM231 256Q252 314 271 351T309
410T347 439T387 447Q422 447 443 428T465 370Q465 336 449 316T405 296Q359 296 343 342L334 367Q331 376 323 376Q315 376 305 364T281 323T246 248T199 134Q186 102 174 69T149 0H13Q23 33 36 72T61 149T84 217T101 265Q112 300 117 324T123 368Q123 396 102
396Q89 396 68 377T17 312L4 319Q41 385 86 416T176 447Q213 447 229 429T245 379Q245 353 239 321T224 256H231Z" />
<glyph unicode="&#x156;" glyph-name="Rcommaaccent" horiz-adv-x="662" d="M361 -109Q361 -167 319 -202T204 -257L200 -241Q241 -229 270 -212T299 -176Q299 -164 282 -159Q261 -154 245 -139T229 -100Q229 -69 249 -53T296 -36Q323 -36 342 -55T361 -109ZM506
-13Q467 -13 442 -1T401 33T379 84T372 145Q371 187 370 219T361 279Q355 300 342 310T299 321H267L237 201Q215 113 215 79Q215 36 250 22Q262 17 275 15T297 11L294 0H-62L-59 11Q-50 12 -39 14T-20 20Q13 29 34 62Q48 85 59 119T84 204L147 459Q158 504 163
532T169 579Q169 602 160 615T134 636Q122 641 111 643T92 646L95 657H411Q470 657 510 647T575 619T611 574T622 517Q622 464 588 424T499 359Q479 350 454 344T395 332L394 328Q421 325 439 318T475 298Q498 281 513 252T531 179Q534 138 538 112T548 71T564
51T586 45Q604 45 620 61T645 99L659 94Q651 75 639 56T608 22T564 -3T506 -13ZM472 561Q472 594 459 613T414 633H389Q365 633 353 622Q339 608 330 573L273 345H318Q354 345 377 353T421 384Q433 399 442 421T458 467T468 515T472 561Z" />
<glyph unicode="&#x157;" glyph-name="rcommaaccent" horiz-adv-x="441" d="M388 151Q388 93 346 58T231 3L227 19Q268 31 297 48T326 84Q326 96 309 101Q288 106 272 121T256 160Q256 191 276 207T323 224Q350 224 369 205T388 151ZM231 256Q252 314 271 351T309
410T347 439T387 447Q422 447 443 428T465 370Q465 336 449 316T405 296Q359 296 343 342L334 367Q331 376 323 376Q315 376 305 364T281 323T246 248T199 134Q186 102 174 69T149 0H13Q23 33 36 72T61 149T84 217T101 265Q112 300 117 324T123 368Q123 396 102
396Q89 396 68 377T17 312L4 319Q41 385 86 416T176 447Q213 447 229 429T245 379Q245 353 239 321T224 256H231Z" />
<glyph unicode="&#x158;" glyph-name="Rcaron" horiz-adv-x="662" d="M311 845L418 780L573 846L578 837Q575 835 564 825T537 801T504 770T471 740T445 717T433 706H376Q375 708 364 727T340 770T315 814T302 837L311 845ZM506 -13Q467 -13 442 -1T401 33T379
84T372 145Q371 187 370 219T361 279Q355 300 342 310T299 321H267L237 201Q215 113 215 79Q215 36 250 22Q262 17 275 15T297 11L294 0H-62L-59 11Q-50 12 -39 14T-20 20Q13 29 34 62Q48 85 59 119T84 204L147 459Q158 504 163 532T169 579Q169 602 160 615T134
636Q122 641 111 643T92 646L95 657H411Q470 657 510 647T575 619T611 574T622 517Q622 464 588 424T499 359Q479 350 454 344T395 332L394 328Q421 325 439 318T475 298Q498 281 513 252T531 179Q534 138 538 112T548 71T564 51T586 45Q604 45 620 61T645 99L659
94Q651 75 639 56T608 22T564 -3T506 -13ZM472 561Q472 594 459 613T414 633H389Q365 633 353 622Q339 608 330 573L273 345H318Q354 345 377 353T421 384Q433 399 442 421T458 467T468 515T472 561Z" />
<glyph unicode="&#x159;" glyph-name="rcaron" horiz-adv-x="441" d="M203 664L311 574L469 664L476 655Q465 643 441 618T392 566T346 517T320 489H263Q261 495 252 517T231 567T210 619T194 657L203 664ZM231 256Q252 314 271 351T309 410T347 439T387 447Q422
447 443 428T465 370Q465 336 449 316T405 296Q359 296 343 342L334 367Q331 376 323 376Q315 376 305 364T281 323T246 248T199 134Q186 102 174 69T149 0H13Q23 33 36 72T61 149T84 217T101 265Q112 300 117 324T123 368Q123 396 102 396Q89 396 68 377T17 312L4
319Q41 385 86 416T176 447Q213 447 229 429T245 379Q245 353 239 321T224 256H231Z" />
<glyph unicode="&#x15a;" glyph-name="Sacute" horiz-adv-x="526" d="M480 445H467Q467 493 457 535T427 605Q413 625 391 637T333 649Q285 649 260 623T234 551Q234 508 260 478T326 417Q364 387 392 363T438 314T465 262T474 198Q474 153 455 114T401 47T322
2T225 -14Q173 -14 130 7T61 65H56L0 3H-9L43 251H56Q60 197 71 153T103 76T154 26T225 8Q282 8 313 36T345 113Q345 135 339 153T318 189T280 227T222 275Q196 296 175 317T138 361T114 410T105 471Q105 510 120 546T164 610T236 654T334 671Q389 671 424 650T473
607H475L515 654H528L480 445ZM263 708Q310 745 339 770T394 815Q417 834 432 841T466 848Q486 848 500 835T515 796Q515 772 497 759T454 738Q424 729 378 721T269 699L263 708Z" />
<glyph unicode="&#x15b;" glyph-name="sacute" horiz-adv-x="367" d="M417 621Q417 596 400 582T355 556Q327 544 283 530T183 498L178 507Q198 529 214 546T243 577T268 603T292 626Q315 648 332 659T367 671Q390 671 403 659T417 621ZM359 360Q359 337 346 323T309
308Q287 308 274 320T259 351Q257 368 259 378T259 401Q257 413 247 421T219 429Q191 429 179 414T167 376Q167 351 184 329T239 277Q281 239 304 207T327 137Q327 104 311 77T270 31T211 2T144 -9Q81 -9 40 18T-2 94Q-2 123 13 138T51 154Q98 154 101 108Q103
90 98 76T93 47Q95 27 112 18T149 9Q182 9 202 25T223 74Q223 86 219 95T204 116T178 141T137 178Q105 209 88 237T71 308Q71 342 84 368T119 412T168 438T225 447Q252 447 276 442T318 427T348 400T359 360Z" />
<glyph unicode="&#x15c;" glyph-name="Scircumflex" horiz-adv-x="526" d="M483 705L376 770L220 704L215 713Q219 716 241 736T290 779T337 822T360 844H417Q418 842 429 822T454 779T478 735T491 712L483 705ZM480 445H467Q467 493 457 535T427 605Q413 625
391 637T333 649Q285 649 260 623T234 551Q234 508 260 478T326 417Q364 387 392 363T438 314T465 262T474 198Q474 153 455 114T401 47T322 2T225 -14Q173 -14 130 7T61 65H56L0 3H-9L43 251H56Q60 197 71 153T103 76T154 26T225 8Q282 8 313 36T345 113Q345 135
339 153T318 189T280 227T222 275Q196 296 175 317T138 361T114 410T105 471Q105 510 120 546T164 610T236 654T334 671Q389 671 424 650T473 607H475L515 654H528L480 445Z" />
<glyph unicode="&#x15d;" glyph-name="scircumflex" horiz-adv-x="367" d="M380 493L272 578L113 492L106 501Q117 513 141 538T190 590T237 639T263 668H319Q322 662 331 640T351 590T373 538T388 500L380 493ZM359 360Q359 337 346 323T309 308Q287 308 274
320T259 351Q257 368 259 378T259 401Q257 413 247 421T219 429Q191 429 179 414T167 376Q167 351 184 329T239 277Q281 239 304 207T327 137Q327 104 311 77T270 31T211 2T144 -9Q81 -9 40 18T-2 94Q-2 123 13 138T51 154Q98 154 101 108Q103 90 98 76T93 47Q95
27 112 18T149 9Q182 9 202 25T223 74Q223 86 219 95T204 116T178 141T137 178Q105 209 88 237T71 308Q71 342 84 368T119 412T168 438T225 447Q252 447 276 442T318 427T348 400T359 360Z" />
<glyph unicode="&#x15e;" glyph-name="Scedilla" horiz-adv-x="526" d="M480 445H467Q467 493 457 535T427 605Q413 625 391 637T333 649Q285 649 260 623T234 551Q234 508 260 478T326 417Q364 387 392 363T438 314T465 262T474 198Q474 153 455 114T401 47T322
2T225 -14Q173 -14 130 7T61 65H56L0 3H-9L43 251H56Q60 197 71 153T103 76T154 26T225 8Q282 8 313 36T345 113Q345 135 339 153T318 189T280 227T222 275Q196 296 175 317T138 361T114 410T105 471Q105 510 120 546T164 610T236 654T334 671Q389 671 424 650T473
607H475L515 654H528L480 445ZM278 -103Q278 -141 244 -164T141 -187Q119 -187 99 -181T68 -167L76 -155Q85 -160 100 -163T131 -167Q166 -167 186 -152T206 -103Q206 -83 196 -71T170 -59Q153 -59 140 -70L125 -62L160 1H182L154 -49Q162 -44 176 -41T204 -37Q239
-37 258 -54T278 -103Z" />
<glyph unicode="&#x15f;" glyph-name="scedilla" horiz-adv-x="367" d="M359 360Q359 337 346 323T309 308Q287 308 274 320T259 351Q257 368 259 378T259 401Q257 413 247 421T219 429Q191 429 179 414T167 376Q167 351 184 329T239 277Q281 239 304 207T327
137Q327 104 311 77T270 31T211 2T144 -9Q81 -9 40 18T-2 94Q-2 123 13 138T51 154Q98 154 101 108Q103 90 98 76T93 47Q95 27 112 18T149 9Q182 9 202 25T223 74Q223 86 219 95T204 116T178 141T137 178Q105 209 88 237T71 308Q71 342 84 368T119 412T168 438T225
447Q252 447 276 442T318 427T348 400T359 360ZM472 -103Q472 -141 438 -164T335 -187Q313 -187 293 -181T262 -167L270 -155Q279 -160 294 -163T325 -167Q360 -167 380 -152T400 -103Q400 -83 390 -71T364 -59Q347 -59 334 -70L319 -62L354 1H376L348 -49Q356
-44 370 -41T398 -37Q433 -37 452 -54T472 -103Z" />
<glyph unicode="&#x160;" glyph-name="Scaron" horiz-adv-x="526" d="M264 845L371 780L526 846L531 837Q528 835 517 825T490 801T457 770T424 740T398 717T386 706H329Q328 708 317 727T293 770T268 814T255 837L264 845ZM480 445H467Q467 493 457 535T427 605Q413
625 391 637T333 649Q285 649 260 623T234 551Q234 508 260 478T326 417Q364 387 392 363T438 314T465 262T474 198Q474 153 455 114T401 47T322 2T225 -14Q173 -14 130 7T61 65H56L0 3H-9L43 251H56Q60 197 71 153T103 76T154 26T225 8Q282 8 313 36T345 113Q345
135 339 153T318 189T280 227T222 275Q196 296 175 317T138 361T114 410T105 471Q105 510 120 546T164 610T236 654T334 671Q389 671 424 650T473 607H475L515 654H528L480 445Z" />
<glyph unicode="&#x161;" glyph-name="scaron" horiz-adv-x="367" d="M161 664L269 574L427 664L434 655Q423 643 399 618T350 566T304 517T278 489H221Q219 495 210 517T189 567T168 619T152 657L161 664ZM359 360Q359 337 346 323T309 308Q287 308 274 320T259
351Q257 368 259 378T259 401Q257 413 247 421T219 429Q191 429 179 414T167 376Q167 351 184 329T239 277Q281 239 304 207T327 137Q327 104 311 77T270 31T211 2T144 -9Q81 -9 40 18T-2 94Q-2 123 13 138T51 154Q98 154 101 108Q103 90 98 76T93 47Q95 27 112
18T149 9Q182 9 202 25T223 74Q223 86 219 95T204 116T178 141T137 178Q105 209 88 237T71 308Q71 342 84 368T119 412T168 438T225 447Q252 447 276 442T318 427T348 400T359 360Z" />
<glyph unicode="&#x162;" glyph-name="Tcommaaccent" horiz-adv-x="620" d="M270 147Q270 89 228 54T113 -1L109 15Q150 27 179 44T208 80Q208 92 191 97Q170 102 154 117T138 156Q138 187 158 203T205 220Q232 220 251 201T270 147ZM652 437H640Q633 477 621
513T585 579Q542 633 478 633H457L351 202Q329 113 329 78Q329 55 338 42T364 22Q375 17 386 15T405 11L403 0H50L53 11Q62 12 74 14T94 20Q127 29 148 62Q162 85 173 119T198 203L304 633H283Q219 633 160 579Q130 550 102 515T42 437H30L102 657H681L652 437Z"
/>
<glyph unicode="&#x163;" glyph-name="tcommaaccent" horiz-adv-x="310" d="M378 151Q378 93 336 58T221 3L217 19Q258 31 287 48T316 84Q316 96 299 101Q278 106 262 121T246 160Q246 191 266 207T313 224Q340 224 359 205T378 151ZM146 65Q146 47 161 47Q171
47 185 54T214 74T243 102T270 135L282 127Q266 100 244 76T195 33T138 3T76 -9Q47 -9 28 8T9 56Q9 69 14 89T26 134T42 183T59 229Q74 269 87 305Q98 335 109 365T125 411H59L67 438H134Q135 442 142 461T157 504T172 548T181 575H313Q311 569 304 549T290 505T276
462T268 438H367L358 411H259Q254 394 244 363T222 299Q209 262 194 220Q174 160 160 120T146 65Z" />
<glyph unicode="&#x164;" glyph-name="Tcaron" horiz-adv-x="620" d="M307 845L414 780L569 846L574 837Q571 835 560 825T533 801T500 770T467 740T441 717T429 706H372Q371 708 360 727T336 770T311 814T298 837L307 845ZM652 437H640Q633 477 621 513T585 579Q542
633 478 633H457L351 202Q329 113 329 78Q329 55 338 42T364 22Q375 17 386 15T405 11L403 0H50L53 11Q62 12 74 14T94 20Q127 29 148 62Q162 85 173 119T198 203L304 633H283Q219 633 160 579Q130 550 102 515T42 437H30L102 657H681L652 437Z" />
<glyph unicode="&#x165;" glyph-name="tcaron" horiz-adv-x="310" d="M398 686H492Q475 663 459 641T425 595T389 546T348 490H334L398 686ZM146 65Q146 47 161 47Q171 47 185 54T214 74T243 102T270 135L282 127Q266 100 244 76T195 33T138 3T76 -9Q47 -9 28
8T9 56Q9 69 14 89T26 134T42 183T59 229Q74 269 87 305Q98 335 109 365T125 411H59L67 438H134Q135 442 142 461T157 504T172 548T181 575H313Q311 569 304 549T290 505T276 462T268 438H367L358 411H259Q254 394 244 363T222 299Q209 262 194 220Q174 160 160
120T146 65Z" />
<glyph unicode="&#x166;" glyph-name="Tbar" horiz-adv-x="620" d="M652 437H640Q633 477 621 513T585 579Q542 633 478 633H457L403 416H526L519 388H396L351 202Q329 113 329 78Q329 55 338 42T364 22Q375 17 386 15T405 11L403 0H50L53 11Q62 12 74 14T94 20Q127
29 148 62Q162 85 173 119T198 203L243 388H123L129 416H250L304 633H283Q219 633 160 579Q130 550 102 515T42 437H30L102 657H681L652 437Z" />
<glyph unicode="&#x167;" glyph-name="tbar" horiz-adv-x="311" d="M259 411L254 396Q250 384 246 371T238 347T233 333H339L331 309H224Q222 301 217 287T207 257Q201 239 195 220Q175 160 161 120T147 65Q147 47 162 47Q172 47 186 54T215 74T244 102T271 135L283
127Q267 100 245 76T196 33T139 3T77 -9Q48 -9 29 8T10 56Q10 69 15 89T27 134T44 183T60 229Q67 247 72 263Q77 277 81 290T88 309H27L35 333H97Q98 336 102 347T110 371T119 396T125 411H59L67 438H135L183 575H314L268 438H367L358 411H259Z" />
<glyph unicode="&#x168;" glyph-name="Utilde" horiz-adv-x="667" d="M744 646Q738 644 730 644T713 640Q699 635 687 627T664 603Q654 591 642 560T616 475L550 214Q536 159 516 117T464 45T391 1T290 -14Q178 -14 123 36T68 178Q68 188 70 203T75 237T83 274T91
309L127 456Q138 501 144 531T150 579Q150 602 141 615T114 636Q103 641 92 643T73 646L75 657H418L414 646Q398 645 380 638Q363 631 351 622T328 595Q315 577 305 546T283 464L223 218Q218 195 215 172T212 125Q212 77 239 48T321 18Q405 18 452 70T522 215L587
473Q596 508 600 535T604 577Q604 602 592 617T562 639Q546 644 523 646L526 657H747L744 646ZM644 838Q629 787 599 754T522 720Q505 720 489 724T456 734T424 743T395 748Q374 748 354 741T318 709L305 712Q322 766 354 796T435 826Q448 826 462 822T492 813T522
804T554 800Q580 800 597 806T631 840L644 838Z" />
<glyph unicode="&#x169;" glyph-name="utilde" horiz-adv-x="569" d="M429 70Q429 46 449 46Q459 46 471 53T497 72T524 100T549 134L561 126Q545 99 525 75T480 32T429 2T372 -9Q337 -9 319 11T300 70Q300 92 305 117T320 175H313Q285 119 259 84T208 28T159
-1T112 -9Q80 -9 58 13T35 75Q35 107 47 142T82 233Q101 282 113 318T125 371Q125 396 107 396Q94 396 73 377T22 312L9 320Q46 386 92 416T184 447Q225 447 245 428T265 376Q265 350 250 305T214 208Q194 156 182 122T169 71Q169 48 188 48Q210 48 253 108T352
304Q365 336 377 369T402 438H539Q528 405 515 366T490 288T467 219T450 171Q439 136 434 113T429 70ZM519 648Q504 597 475 562T398 526Q381 526 365 530T332 540T301 550T272 555Q252 555 232 545T195 508L182 511Q199 565 231 599T313 634Q326 634 340 630T369
621T399 612T431 608Q456 608 473 616T506 650L519 648Z" />
<glyph unicode="&#x16a;" glyph-name="Umacron" horiz-adv-x="667" d="M744 646Q738 644 730 644T713 640Q699 635 687 627T664 603Q654 591 642 560T616 475L550 214Q536 159 516 117T464 45T391 1T290 -14Q178 -14 123 36T68 178Q68 188 70 203T75 237T83 274T91
309L127 456Q138 501 144 531T150 579Q150 602 141 615T114 636Q103 641 92 643T73 646L75 657H418L414 646Q398 645 380 638Q363 631 351 622T328 595Q315 577 305 546T283 464L223 218Q218 195 215 172T212 125Q212 77 239 48T321 18Q405 18 452 70T522 215L587
473Q596 508 600 535T604 577Q604 602 592 617T562 639Q546 644 523 646L526 657H747L744 646ZM324 715L337 766H611L598 715H324Z" />
<glyph unicode="&#x16b;" glyph-name="umacron" horiz-adv-x="569" d="M429 70Q429 46 449 46Q459 46 471 53T497 72T524 100T549 134L561 126Q545 99 525 75T480 32T429 2T372 -9Q337 -9 319 11T300 70Q300 92 305 117T320 175H313Q285 119 259 84T208 28T159
-1T112 -9Q80 -9 58 13T35 75Q35 107 47 142T82 233Q101 282 113 318T125 371Q125 396 107 396Q94 396 73 377T22 312L9 320Q46 386 92 416T184 447Q225 447 245 428T265 376Q265 350 250 305T214 208Q194 156 182 122T169 71Q169 48 188 48Q210 48 253 108T352
304Q365 336 377 369T402 438H539Q528 405 515 366T490 288T467 219T450 171Q439 136 434 113T429 70ZM231 545L244 596H486L473 545H231Z" />
<glyph unicode="&#x16c;" glyph-name="Ubreve" horiz-adv-x="667" d="M744 646Q738 644 730 644T713 640Q699 635 687 627T664 603Q654 591 642 560T616 475L550 214Q536 159 516 117T464 45T391 1T290 -14Q178 -14 123 36T68 178Q68 188 70 203T75 237T83 274T91
309L127 456Q138 501 144 531T150 579Q150 602 141 615T114 636Q103 641 92 643T73 646L75 657H418L414 646Q398 645 380 638Q363 631 351 622T328 595Q315 577 305 546T283 464L223 218Q218 195 215 172T212 125Q212 77 239 48T321 18Q405 18 452 70T522 215L587
473Q596 508 600 535T604 577Q604 602 592 617T562 639Q546 644 523 646L526 657H747L744 646ZM367 849Q375 814 404 796T474 777Q517 777 552 795T609 849L621 842Q610 779 571 741T466 702Q417 702 385 730T351 806Q351 814 352 824T355 844L367 849Z" />
<glyph unicode="&#x16d;" glyph-name="ubreve" horiz-adv-x="569" d="M429 70Q429 46 449 46Q459 46 471 53T497 72T524 100T549 134L561 126Q545 99 525 75T480 32T429 2T372 -9Q337 -9 319 11T300 70Q300 92 305 117T320 175H313Q285 119 259 84T208 28T159
-1T112 -9Q80 -9 58 13T35 75Q35 107 47 142T82 233Q101 282 113 318T125 371Q125 396 107 396Q94 396 73 377T22 312L9 320Q46 386 92 416T184 447Q225 447 245 428T265 376Q265 350 250 305T214 208Q194 156 182 122T169 71Q169 48 188 48Q210 48 253 108T352
304Q365 336 377 369T402 438H539Q528 405 515 366T490 288T467 219T450 171Q439 136 434 113T429 70ZM254 673Q264 635 293 616T358 596Q439 596 487 673L499 666Q488 603 452 562T351 521Q302 521 271 551T238 629Q238 638 239 647T242 667L254 673Z" />
<glyph unicode="&#x16e;" glyph-name="Uring" horiz-adv-x="667" d="M744 646Q738 644 730 644T713 640Q699 635 687 627T664 603Q654 591 642 560T616 475L550 214Q536 159 516 117T464 45T391 1T290 -14Q178 -14 123 36T68 178Q68 188 70 203T75 237T83 274T91
309L127 456Q138 501 144 531T150 579Q150 602 141 615T114 636Q103 641 92 643T73 646L75 657H418L414 646Q398 645 380 638Q363 631 351 622T328 595Q315 577 305 546T283 464L223 218Q218 195 215 172T212 125Q212 77 239 48T321 18Q405 18 452 70T522 215L587
473Q596 508 600 535T604 577Q604 602 592 617T562 639Q546 644 523 646L526 657H747L744 646ZM566 765Q566 745 559 729T540 702T512 684T478 677Q443 677 417 700T390 765Q390 805 416 828T478 852Q513 852 539 829T566 765ZM536 764Q536 794 520 810T477 827Q452
827 436 811T419 765Q419 736 435 720T477 703Q503 703 519 719T536 764Z" />
<glyph unicode="&#x16f;" glyph-name="uring" horiz-adv-x="569" d="M439 590Q439 570 432 554T413 527T385 510T351 503Q316 503 290 526T263 590Q263 630 289 653T351 677Q386 677 412 654T439 590ZM409 590Q409 619 393 635T350 652Q325 652 309 636T292 590Q292
561 308 545T350 529Q376 529 392 544T409 590ZM429 70Q429 46 449 46Q459 46 471 53T497 72T524 100T549 134L561 126Q545 99 525 75T480 32T429 2T372 -9Q337 -9 319 11T300 70Q300 92 305 117T320 175H313Q285 119 259 84T208 28T159 -1T112 -9Q80 -9 58 13T35
75Q35 107 47 142T82 233Q101 282 113 318T125 371Q125 396 107 396Q94 396 73 377T22 312L9 320Q46 386 92 416T184 447Q225 447 245 428T265 376Q265 350 250 305T214 208Q194 156 182 122T169 71Q169 48 188 48Q210 48 253 108T352 304Q365 336 377 369T402
438H539Q528 405 515 366T490 288T467 219T450 171Q439 136 434 113T429 70Z" />
<glyph unicode="&#x170;" glyph-name="Uhungarumlaut" horiz-adv-x="667" d="M543 833Q543 814 526 799T488 771Q468 759 440 745T361 705H342Q360 730 372 747T394 778T411 802T429 826Q447 849 463 862T499 875Q519 875 531 864T543 833ZM712 833Q712 814 695
799T657 771Q637 759 609 745T530 705H511Q529 730 541 747T563 778T580 802T598 826Q617 849 633 862T668 875Q688 875 700 864T712 833ZM744 646Q738 644 730 644T713 640Q699 635 687 627T664 603Q654 591 642 560T616 475L550 214Q536 159 516 117T464 45T391
1T290 -14Q178 -14 123 36T68 178Q68 188 70 203T75 237T83 274T91 309L127 456Q138 501 144 531T150 579Q150 602 141 615T114 636Q103 641 92 643T73 646L75 657H418L414 646Q398 645 380 638Q363 631 351 622T328 595Q315 577 305 546T283 464L223 218Q218 195
215 172T212 125Q212 77 239 48T321 18Q405 18 452 70T522 215L587 473Q596 508 600 535T604 577Q604 602 592 617T562 639Q546 644 523 646L526 657H747L744 646Z" />
<glyph unicode="&#x171;" glyph-name="uhungarumlaut" horiz-adv-x="569" d="M429 70Q429 46 449 46Q459 46 471 53T497 72T524 100T549 134L561 126Q545 99 525 75T480 32T429 2T372 -9Q337 -9 319 11T300 70Q300 92 305 117T320 175H313Q285 119 259 84T208
28T159 -1T112 -9Q80 -9 58 13T35 75Q35 107 47 142T82 233Q101 282 113 318T125 371Q125 396 107 396Q94 396 73 377T22 312L9 320Q46 386 92 416T184 447Q225 447 245 428T265 376Q265 350 250 305T214 208Q194 156 182 122T169 71Q169 48 188 48Q210 48 253
108T352 304Q365 336 377 369T402 438H539Q528 405 515 366T490 288T467 219T450 171Q439 136 434 113T429 70ZM364 673Q384 673 398 660T412 624Q412 607 402 594T374 569Q351 552 315 530T225 479L216 487Q232 514 244 534T266 570T284 600T301 626Q315 647 328
660T364 673ZM542 673Q562 673 576 660T590 624Q590 607 580 594T552 569Q529 552 493 530T403 479L394 487Q410 514 422 534T444 570T462 600T479 626Q493 647 506 660T542 673Z" />
<glyph unicode="&#x172;" glyph-name="Uogonek" horiz-adv-x="667" d="M323 -215Q242 -217 204 -196T165 -139Q165 -116 180 -98T219 -64T270 -36T324 -12Q317 -13 308 -13T290 -14Q178 -14 123 37T68 178Q68 188 70 203T75 237T83 274T91 309L127 456Q138 501
144 531T150 579Q150 602 141 615T114 636Q103 641 92 643T73 646L75 657H418L414 646Q398 645 380 638Q363 631 351 622T328 595Q315 577 305 546T283 464L223 218Q218 195 215 172T212 125Q212 77 239 48T321 18Q405 18 452 70T522 215L587 473Q596 508 600 535T604
577Q604 602 592 617T562 639Q546 644 523 646L526 657H747L744 646Q738 644 730 644T713 640Q699 635 687 627T664 603Q654 591 642 560T616 475L550 214Q528 125 489 73T384 -2Q359 -10 337 -24T299 -57T274 -98T264 -145Q264 -198 325 -204L323 -215Z" />
<glyph unicode="&#x173;" glyph-name="uogonek" horiz-adv-x="569" d="M384 -215Q303 -217 265 -196T226 -139Q226 -115 243 -97T285 -62T340 -33T394 -7Q388 -8 383 -8T373 -9Q338 -9 319 12T300 70Q300 92 305 117T320 175H313Q285 119 259 84T208 28T159 -1T112
-9Q80 -9 58 13T35 75Q35 107 47 142T82 233Q101 282 113 318T125 371Q125 396 107 396Q94 396 73 377T22 312L9 320Q46 386 92 416T184 447Q225 447 245 428T265 376Q265 350 250 305T214 208Q194 156 182 122T169 71Q169 48 188 48Q210 48 253 108T352 304Q365
336 377 369T402 438H539Q528 405 515 366T490 288T467 219T450 171Q439 136 434 113T429 70Q429 46 449 46Q459 46 471 53T497 72T524 100T549 134L561 126Q540 91 513 62T452 13Q429 0 407 -16T366 -52T337 -95T325 -145Q325 -198 387 -204L384 -215Z" />
<glyph unicode="&#x174;" glyph-name="Wcircumflex" horiz-adv-x="968" d="M760 705L653 770L497 704L492 713Q496 716 518 736T567 779T614 822T637 844H694Q695 842 706 822T731 779T755 735T768 712L760 705ZM395 0L508 445H505L130 0H21L136 456Q158 544 158
579Q158 602 149 615T122 636Q111 641 100 643T81 646L84 657H424L421 646Q412 645 403 643T386 638Q369 632 358 623T336 597Q322 574 312 539T289 455L216 148H221L518 499Q523 520 527 542T531 579Q531 602 522 615T495 636Q472 645 458 646L461 657H796L794
646Q774 644 758 638Q741 632 730 623T708 597Q694 574 684 539T661 455L589 148H595L893 512Q928 554 928 589Q928 618 903 632Q881 643 851 646L853 657H1115L1112 646Q1101 644 1088 640T1063 631Q1028 614 996 585T933 518L504 0H395Z" />
<glyph unicode="&#x175;" glyph-name="wcircumflex" horiz-adv-x="738" d="M634 493L526 578L367 492L360 501Q371 513 395 538T444 590T491 639T517 668H573Q576 662 585 640T605 590T627 538T642 500L634 493ZM464 -9Q425 -9 397 6T351 47Q313 22 272 7T184
-9Q131 -9 98 22T64 111Q64 144 78 175T112 232T155 280T196 317Q183 322 165 332T126 356Q106 369 92 378T65 387Q62 387 59 385T55 378Q55 373 62 367T74 355L84 339Q89 331 89 322Q89 302 78 289T46 276Q23 276 13 290T3 324Q3 342 17 362T46 397Q64 416 89
431T140 447Q158 447 175 438T206 417Q226 403 239 396T264 389Q274 389 281 396T293 416Q301 433 307 440T324 447Q331 447 336 443T341 431Q341 422 332 415T316 402Q300 392 286 370Q273 350 259 323T234 263T215 194T207 122Q207 86 224 66T270 45Q285 45 302
51T336 69Q317 104 317 142Q317 185 326 224T351 296T386 357T425 404Q448 427 469 437T505 447Q529 447 544 428T560 369Q560 312 532 252T460 139Q472 95 494 76T548 57Q573 57 592 69T627 104Q653 141 666 189T679 285Q679 305 671 323T651 365Q644 381 642
388T640 403Q640 420 650 433T680 446Q701 446 714 427T728 369Q728 346 724 312T709 240T682 163T644 92Q614 48 571 20T464 -9ZM495 413Q479 413 461 385T443 294Q443 256 445 227T452 168Q487 213 509 262T532 351Q532 385 521 399T495 413Z" />
<glyph unicode="&#x176;" glyph-name="Ycircumflex" horiz-adv-x="569" d="M695 646Q683 644 670 640T643 629Q630 623 617 614T587 590T552 553T509 497L353 277L335 202Q324 156 318 126T312 78Q312 55 321 42T348 22Q371 13 390 11L387 0H34L37 11Q46 12 58
14T78 20Q111 29 132 62Q146 85 158 120T181 203L198 273L125 548Q111 599 88 619T32 646L34 657H358L356 646Q348 645 336 643T315 637Q304 632 294 622T283 592Q283 577 288 558T299 517L348 322H354L486 507Q512 543 522 565T532 604Q532 617 525 625T509 638Q503
641 495 643T478 646L481 657H697L695 646ZM544 705L437 770L281 704L276 713Q280 716 302 736T351 779T398 822T421 844H478Q479 842 490 822T515 779T539 735T552 712L544 705Z" />
<glyph unicode="&#x177;" glyph-name="ycircumflex" horiz-adv-x="421" d="M73 379Q59 379 43 363T7 311L-6 319Q23 378 61 412T149 447Q183 447 205 425T243 359Q249 341 256 313T268 248T278 172T283 91H287Q320 148 339 199T359 296Q359 334 341 367Q336 374
332 384T328 403Q328 426 340 436T368 447Q388 447 398 433T409 396Q409 341 395 286T357 180T303 80T239 -9T173 -84T113 -142Q76 -174 39 -193T-33 -213Q-69 -213 -90 -194T-112 -148Q-112 -119 -95 -105T-60 -91Q-37 -91 -25 -99T0 -124Q8 -134 18 -143T43 -153Q52
-153 66 -146T95 -127Q112 -113 130 -95T169 -54Q168 -16 164 32T153 129T137 225T118 305Q107 340 98 359T73 379ZM394 493L286 578L127 492L120 501Q131 513 155 538T204 590T251 639T277 668H333Q336 662 345 640T365 590T387 538T402 500L394 493Z" />
<glyph unicode="&#x178;" glyph-name="Ydieresis" horiz-adv-x="569" d="M695 646Q683 644 670 640T643 629Q630 623 617 614T587 590T552 553T509 497L353 277L335 202Q324 156 318 126T312 78Q312 55 321 42T348 22Q371 13 390 11L387 0H34L37 11Q46 12 58 14T78
20Q111 29 132 62Q146 85 158 120T181 203L198 273L125 548Q111 599 88 619T32 646L34 657H358L356 646Q348 645 336 643T315 637Q304 632 294 622T283 592Q283 577 288 558T299 517L348 322H354L486 507Q512 543 522 565T532 604Q532 617 525 625T509 638Q503
641 495 643T478 646L481 657H697L695 646ZM248 775Q248 802 267 822T314 842Q343 842 361 822T380 776Q380 749 362 730T314 710Q285 710 267 729T248 775ZM473 775Q473 802 491 822T538 842Q567 842 586 822T605 776Q605 749 586 730T538 710Q509 710 491 729T473
775Z" />
<glyph unicode="&#x179;" glyph-name="Zacute" horiz-adv-x="562" d="M288 708Q335 745 364 770T419 815Q442 834 457 841T491 848Q511 848 525 835T540 796Q540 772 522 759T479 738Q449 729 403 721T294 699L288 708ZM619 646L143 23H204Q299 23 379 83Q431
122 463 158T515 220H527L452 0H-56L-54 12L423 634H360Q320 634 279 621T193 578Q178 568 162 554T129 524T99 492T72 461H60L132 657H622L619 646Z" />
<glyph unicode="&#x17a;" glyph-name="zacute" horiz-adv-x="474" d="M463 621Q463 596 446 582T401 556Q372 544 328 530T228 497L224 507Q244 529 260 546T289 577T314 603T338 626Q361 648 378 659T412 670Q435 670 449 659T463 621ZM481 415Q481 401 469 386T440
359Q438 358 427 349T399 325T363 295T327 265T299 241T285 230Q273 221 256 210T221 186T186 162T157 141Q165 142 174 142T194 142Q211 141 233 138T272 132Q295 127 316 122T354 116Q375 116 391 122T421 149Q429 160 434 169T445 190L459 184Q448 150 435 116T402
54T355 9T290 -9Q256 -9 233 4T188 40Q166 65 150 82T116 99Q106 99 97 92T81 73T69 49T60 26Q55 12 44 2T17 -9Q1 -9 -6 1T-14 23Q-14 37 -5 48T19 69Q23 72 31 77T49 89L67 101Q76 107 81 110L334 312Q326 310 315 309T295 308Q266 308 240 315T181 338Q162 348
141 358T107 368Q86 368 71 354T56 313Q56 303 60 298T68 290Q73 311 87 322T119 333Q139 333 155 320T171 281Q171 260 156 244T117 228Q84 228 61 253T38 327Q38 354 47 376T73 414T112 438T158 447Q195 447 218 434T262 401Q272 392 282 380T303 358T324 341T343
334Q357 334 367 341T385 361T398 387T408 414Q413 430 424 439T448 448Q465 448 473 438T481 415Z" />
<glyph unicode="&#x17b;" glyph-name="Zdotaccent" horiz-adv-x="562" d="M619 646L143 23H204Q299 23 379 83Q431 122 463 158T515 220H527L452 0H-56L-54 12L423 634H360Q320 634 279 621T193 578Q178 568 162 554T129 524T99 492T72 461H60L132 657H622L619
646ZM314 781Q314 812 335 833T386 854Q416 854 437 834T459 781Q459 750 438 730T386 709Q356 709 335 730T314 781Z" />
<glyph unicode="&#x17c;" glyph-name="zdotaccent" horiz-adv-x="474" d="M481 415Q481 401 469 386T440 359Q438 358 427 349T399 325T363 295T327 265T299 241T285 230Q273 221 256 210T221 186T186 162T157 141Q165 142 174 142T194 142Q211 141 233 138T272
132Q295 127 316 122T354 116Q375 116 391 122T421 149Q429 160 434 169T445 190L459 184Q448 150 435 116T402 54T355 9T290 -9Q256 -9 233 4T188 40Q166 65 150 82T116 99Q106 99 97 92T81 73T69 49T60 26Q55 12 44 2T17 -9Q1 -9 -6 1T-14 23Q-14 37 -5 48T19
69Q23 72 31 77T49 89L67 101Q76 107 81 110L334 312Q326 310 315 309T295 308Q266 308 240 315T181 338Q162 348 141 358T107 368Q86 368 71 354T56 313Q56 303 60 298T68 290Q73 311 87 322T119 333Q139 333 155 320T171 281Q171 260 156 244T117 228Q84 228
61 253T38 327Q38 354 47 376T73 414T112 438T158 447Q195 447 218 434T262 401Q272 392 282 380T303 358T324 341T343 334Q357 334 367 341T385 361T398 387T408 414Q413 430 424 439T448 448Q465 448 473 438T481 415ZM376 586Q376 556 355 537T306 517Q277 517
257 537T237 586Q237 615 257 635T306 656Q334 656 355 636T376 586Z" />
<glyph unicode="&#x17d;" glyph-name="Zcaron" horiz-adv-x="562" d="M291 845L398 780L553 846L558 837Q555 835 544 825T517 801T484 770T451 740T425 717T413 706H356Q355 708 344 727T320 770T295 814T282 837L291 845ZM619 646L143 23H204Q299 23 379 83Q431
122 463 158T515 220H527L452 0H-56L-54 12L423 634H360Q320 634 279 621T193 578Q178 568 162 554T129 524T99 492T72 461H60L132 657H622L619 646Z" />
<glyph unicode="&#x17e;" glyph-name="zcaron" horiz-adv-x="474" d="M209 664L317 574L475 664L482 655Q471 643 447 618T398 566T352 517T326 489H269Q267 495 258 517T237 567T216 619T200 657L209 664ZM481 415Q481 401 469 386T440 359Q438 358 427 349T399
325T363 295T327 265T299 241T285 230Q273 221 256 210T221 186T186 162T157 141Q165 142 174 142T194 142Q211 141 233 138T272 132Q295 127 316 122T354 116Q375 116 391 122T421 149Q429 160 434 169T445 190L459 184Q448 150 435 116T402 54T355 9T290 -9Q256
-9 233 4T188 40Q166 65 150 82T116 99Q106 99 97 92T81 73T69 49T60 26Q55 12 44 2T17 -9Q1 -9 -6 1T-14 23Q-14 37 -5 48T19 69Q23 72 31 77T49 89L67 101Q76 107 81 110L334 312Q326 310 315 309T295 308Q266 308 240 315T181 338Q162 348 141 358T107 368Q86
368 71 354T56 313Q56 303 60 298T68 290Q73 311 87 322T119 333Q139 333 155 320T171 281Q171 260 156 244T117 228Q84 228 61 253T38 327Q38 354 47 376T73 414T112 438T158 447Q195 447 218 434T262 401Q272 392 282 380T303 358T324 341T343 334Q357 334 367
341T385 361T398 387T408 414Q413 430 424 439T448 448Q465 448 473 438T481 415Z" />
<glyph unicode="&#x192;" glyph-name="florin" horiz-adv-x="414" d="M505 578Q505 543 488 529T444 514Q410 514 397 531T381 570Q380 581 385 600T388 631Q387 648 371 648Q360 648 351 641T334 616Q319 586 307 540T279 425H370L364 401H273Q264 357 253 309T229
211T203 114T174 24Q141 -73 84 -127T-57 -182Q-115 -182 -151 -157T-188 -91Q-188 -73 -183 -61T-168 -43T-149 -33T-129 -30Q-99 -30 -86 -47T-71 -87Q-70 -98 -73 -113T-75 -139Q-73 -150 -69 -155T-52 -160Q-37 -160 -23 -143T2 -91Q18 -32 33 31T63 158T91
283T118 401H48L54 425H125Q129 439 132 448T139 470Q156 522 182 559T240 621T307 656T377 668Q437 668 471 644T505 578Z" />
<glyph unicode="&#x1fa;" glyph-name="Aringacute" horiz-adv-x="625" d="M204 274H362L425 526H420L204 274ZM356 249H182L94 145Q77 125 68 107T58 69Q58 55 64 44T82 26Q95 19 107 16T136 11L133 0H-129L-127 11Q-116 13 -103 16T-80 25Q-45 42 -11 73T52 137L500
657H613L499 202Q477 113 477 78Q477 55 486 42T512 22Q535 13 554 11L551 0H209L211 11Q221 12 230 14T248 20Q265 26 276 35T298 61Q312 84 322 118T346 204L356 249ZM510 908Q557 945 586 970T641 1015Q664 1034 679 1041T713 1048Q733 1048 747 1035T762 996Q762
972 744 959T701 938Q671 929 625 921T516 899L510 908ZM669 789Q669 769 662 753T643 726T615 708T581 701Q546 701 520 724T493 789Q493 829 519 852T581 876Q616 876 642 853T669 789ZM639 788Q639 818 623 834T580 851Q555 851 539 835T522 789Q522 760 538
744T580 727Q606 727 622 743T639 788Z" />
<glyph unicode="&#x1fb;" glyph-name="aringacute" horiz-adv-x="517" d="M386 71Q386 58 391 53T404 47Q425 47 453 73T503 134L516 126Q500 99 479 75T433 32T380 2T321 -9Q293 -9 274 7T255 60Q255 72 258 87L263 112H260Q247 88 238 74T211 41Q189 17 163
4T110 -9Q88 -9 69 -3T36 19T14 58T6 119Q6 155 17 193T48 268T95 337T153 394T219 433T288 447Q319 447 334 433T353 397H358Q365 409 369 418T381 438H496Q484 400 467 347T430 235Q409 172 398 132T386 71ZM332 373Q332 425 302 425Q287 425 271 413T234 365Q217
336 201 296T170 216T148 140T139 86Q139 59 147 51T166 42Q179 42 192 52T218 80Q236 106 246 123T267 166Q279 193 290 223T311 280T326 332T332 373ZM427 590Q427 570 420 554T401 527T373 510T339 503Q304 503 278 526T251 590Q251 630 277 653T339 677Q374
677 400 654T427 590ZM397 590Q397 619 381 635T338 652Q313 652 297 636T280 590Q280 561 296 545T338 529Q364 529 380 544T397 590ZM275 710Q322 747 351 772T406 817Q429 836 444 843T478 850Q498 850 512 837T527 798Q527 774 509 761T466 740Q436 731 390
723T281 701L275 710Z" />
<glyph unicode="&#x1fc;" glyph-name="AEacute" horiz-adv-x="902" d="M577 708Q624 745 653 770T708 815Q731 834 746 841T780 848Q800 848 814 835T829 796Q829 772 811 759T768 738Q738 729 692 721T583 699L577 708ZM479 608H473Q468 602 449 579T403 524T345
453T285 380T232 317T197 275H395L479 608ZM885 444H873Q868 482 854 518T822 581Q806 604 784 618T724 633H700Q670 633 654 620Q643 612 635 597T618 551L568 352H590Q633 352 655 360T694 383Q717 403 735 432T761 485H773L700 192H688Q690 205 690 220T688
249T682 277T671 299Q663 312 644 320T586 329H562L522 169Q513 134 509 114T505 78Q505 52 516 41Q524 32 538 28T571 23H591Q626 23 660 40T727 87Q771 125 800 164T844 228H855L787 0H229L232 11Q242 12 253 14T273 20Q308 31 328 62Q342 85 353 119T377 204L389
249H175Q169 242 155 225T126 190Q108 169 89 145Q54 102 54 69Q54 55 60 44T79 26Q91 19 103 16T132 11L130 0H-135L-133 11Q-122 13 -109 18T-84 29Q-49 48 -17 77T42 137L448 620Q443 624 433 628T412 636T392 643T379 646L382 657H897L885 444Z" />
<glyph unicode="&#x1fd;" glyph-name="aeacute" horiz-adv-x="699" d="M606 621Q606 596 589 582T544 556Q516 544 472 530T372 498L367 507Q387 529 403 546T432 577T457 603T481 626Q504 648 521 659T556 671Q579 671 592 659T606 621ZM698 364Q698 341 687
323T654 287Q641 277 619 266T569 243T510 220T447 201Q442 173 440 146T437 94Q437 31 485 31Q513 31 537 41T582 68T619 102T646 137L657 129Q641 101 620 76T572 32T510 2T434 -9Q365 -9 330 32T292 141H286Q273 112 255 84T218 36Q198 15 170 3T117 -9Q71 -9
42 21T12 119Q12 173 36 231T101 338T191 417T294 448Q325 448 338 433T355 398H360Q366 409 371 418T383 439H471Q471 437 469 432T465 420T461 407T459 400H462Q491 421 522 434T582 448Q643 448 670 424T698 364ZM604 389Q604 407 598 417T577 428Q558 428 539
411T504 366T474 300T451 220Q481 230 513 244T561 274Q573 285 581 300T595 331T602 363T604 389ZM338 373Q338 426 308 426Q293 426 277 413T241 365Q224 337 207 297T177 216T155 140T146 86Q146 59 154 51T175 42Q188 42 200 52T225 78Q242 102 252 120T274
165Q284 189 295 217T316 274T332 328T338 373Z" />
<glyph unicode="&#x1fe;" glyph-name="Oslashacute" horiz-adv-x="654" d="M642 413Q642 365 631 315T599 219T547 131T475 60Q430 26 376 6T261 -14Q214 -14 175 0L142 -65L119 -56L152 9Q115 26 88 55Q57 89 40 136T22 243Q22 289 32 337T61 431T109 516T175
586Q222 625 279 647T403 670Q445 670 481 658L511 717L533 707L504 650Q545 632 575 600Q607 567 624 520T642 413ZM490 519Q490 567 477 597L196 42V41Q219 8 261 8Q293 8 320 28T367 80Q381 101 402 147T442 255T476 385T490 519ZM405 648Q373 648 345 628T297
576Q283 556 262 509T222 401T188 271T174 138Q174 98 183 70L463 622Q442 648 405 648ZM326 708Q373 745 402 770T457 815Q480 834 495 841T529 848Q549 848 563 835T578 796Q578 772 560 759T517 738Q487 729 441 721T332 699L326 708Z" />
<glyph unicode="&#x1ff;" glyph-name="oslashacute" horiz-adv-x="461" d="M442 274Q442 214 417 156T348 58Q315 27 269 9T174 -9Q147 -9 124 -3L94 -61L75 -50L103 4Q76 16 56 38Q14 85 13 162Q12 223 38 281T107 381Q141 412 186 429T281 447Q308 447 331 440L365
505L385 495L352 432Q379 420 399 399Q420 376 431 345T442 274ZM311 417Q302 430 284 430Q267 430 253 419T222 377Q210 353 195 312T167 225T145 133Q137 94 136 67L315 410Q313 414 311 417ZM144 22Q152 8 172 8Q188 8 203 20T233 59Q246 84 261 124T289 211T311
302Q318 340 320 370L141 28L144 22ZM465 621Q465 596 448 582T403 556Q375 544 331 530T231 498L226 507Q246 529 262 546T291 577T316 603T340 626Q363 648 380 659T415 671Q438 671 451 659T465 621Z" />
<glyph unicode="&#x218;" glyph-name="Scommaaccent" horiz-adv-x="526" d="M237 147Q237 89 195 54T80 -1L76 15Q117 27 146 44T175 80Q175 92 158 97Q137 102 121 117T105 156Q105 187 125 203T172 220Q199 220 218 201T237 147ZM480 445H467Q467 493 457 535T427
605Q413 625 391 637T333 649Q285 649 260 623T234 551Q234 508 260 478T326 417Q364 387 392 363T438 314T465 262T474 198Q474 153 455 114T401 47T322 2T225 -14Q173 -14 130 7T61 65H56L0 3H-9L43 251H56Q60 197 71 153T103 76T154 26T225 8Q282 8 313 36T345
113Q345 135 339 153T318 189T280 227T222 275Q196 296 175 317T138 361T114 410T105 471Q105 510 120 546T164 610T236 654T334 671Q389 671 424 650T473 607H475L515 654H528L480 445Z" />
<glyph unicode="&#x219;" glyph-name="scommaaccent" horiz-adv-x="367" d="M178 151Q178 93 136 58T21 3L17 19Q58 31 87 48T116 84Q116 96 99 101Q78 106 62 121T46 160Q46 191 66 207T113 224Q140 224 159 205T178 151ZM359 360Q359 337 346 323T309 308Q287
308 274 320T259 351Q257 368 259 378T259 401Q257 413 247 421T219 429Q191 429 179 414T167 376Q167 351 184 329T239 277Q281 239 304 207T327 137Q327 104 311 77T270 31T211 2T144 -9Q81 -9 40 18T-2 94Q-2 123 13 138T51 154Q98 154 101 108Q103 90 98 76T93
47Q95 27 112 18T149 9Q182 9 202 25T223 74Q223 86 219 95T204 116T178 141T137 178Q105 209 88 237T71 308Q71 342 84 368T119 412T168 438T225 447Q252 447 276 442T318 427T348 400T359 360Z" />
<glyph unicode="&#x21a;" glyph-name="uni021A" horiz-adv-x="620" d="M270 147Q270 89 228 54T113 -1L109 15Q150 27 179 44T208 80Q208 92 191 97Q170 102 154 117T138 156Q138 187 158 203T205 220Q232 220 251 201T270 147ZM652 437H640Q633 477 621 513T585
579Q542 633 478 633H457L351 202Q329 113 329 78Q329 55 338 42T364 22Q375 17 386 15T405 11L403 0H50L53 11Q62 12 74 14T94 20Q127 29 148 62Q162 85 173 119T198 203L304 633H283Q219 633 160 579Q130 550 102 515T42 437H30L102 657H681L652 437Z" />
<glyph unicode="&#x21b;" glyph-name="uni021B" horiz-adv-x="310" d="M378 151Q378 93 336 58T221 3L217 19Q258 31 287 48T316 84Q316 96 299 101Q278 106 262 121T246 160Q246 191 266 207T313 224Q340 224 359 205T378 151ZM146 65Q146 47 161 47Q171 47 185
54T214 74T243 102T270 135L282 127Q266 100 244 76T195 33T138 3T76 -9Q47 -9 28 8T9 56Q9 69 14 89T26 134T42 183T59 229Q74 269 87 305Q98 335 109 365T125 411H59L67 438H134Q135 442 142 461T157 504T172 548T181 575H313Q311 569 304 549T290 505T276 462T268
438H367L358 411H259Q254 394 244 363T222 299Q209 262 194 220Q174 160 160 120T146 65Z" />
<glyph unicode="&#x237;" glyph-name="uni0237" horiz-adv-x="275" d="M268 379Q268 367 261 339T243 277T219 206T196 141Q173 77 154 33T119 -43T86 -97T50 -139Q20 -169 -23 -191T-115 -213Q-140 -213 -162 -207T-200 -188T-227 -158T-237 -118Q-237 -88 -219
-69T-172 -49Q-138 -49 -123 -68T-108 -110Q-108 -125 -111 -135T-120 -155Q-124 -162 -127 -168T-130 -178Q-130 -186 -125 -189T-112 -193Q-95 -193 -81 -184T-50 -150Q-43 -139 -34 -116T-13 -64T10 -2T32 62T51 118T66 160Q74 184 85 217T107 283T125 339T132
372Q132 385 127 389T112 394Q100 394 79 375T28 311L15 319Q52 386 102 416T200 447Q235 447 251 429T268 379Z" />
<glyph unicode="&#x2c6;" glyph-name="circumflex" horiz-adv-x="355" d="M351 493L243 578L84 492L77 501Q88 513 112 538T161 590T208 639T234 668H290Q293 662 302 640T322 590T344 538T359 500L351 493Z" />
<glyph unicode="&#x2c7;" glyph-name="caron" horiz-adv-x="357" d="M106 664L214 574L372 664L379 655Q368 643 344 618T295 566T249 517T223 489H166Q164 495 155 517T134 567T113 619T97 657L106 664Z" />
<glyph unicode="&#x2d8;" glyph-name="breve" horiz-adv-x="324" d="M112 673Q122 635 151 616T216 596Q297 596 345 673L357 666Q346 603 310 562T209 521Q160 521 129 551T96 629Q96 638 97 647T100 667L112 673Z" />
<glyph unicode="&#x2d9;" glyph-name="dotaccent" horiz-adv-x="295" d="M278 586Q278 556 257 537T208 517Q179 517 159 537T139 586Q139 615 159 635T208 656Q236 656 257 636T278 586Z" />
<glyph unicode="&#x2da;" glyph-name="ring" horiz-adv-x="337" d="M290 590Q290 570 283 554T264 527T236 510T202 503Q167 503 141 526T114 590Q114 630 140 653T202 677Q237 677 263 654T290 590ZM260 590Q260 619 244 635T201 652Q176 652 160 636T143 590Q143
561 159 545T201 529Q227 529 243 544T260 590Z" />
<glyph unicode="&#x2db;" glyph-name="ogonek" horiz-adv-x="298" d="M29 -139Q29 -113 48 -93T95 -56T154 -27T208 0H227Q209 -14 192 -30T160 -64T137 -102T128 -145Q128 -198 189 -204L186 -215Q105 -217 67 -196T29 -139Z" />
<glyph unicode="&#x2dc;" glyph-name="tilde" horiz-adv-x="353" d="M400 648Q385 597 356 562T279 526Q262 526 246 530T213 540T182 550T153 555Q133 555 113 545T76 508L63 511Q80 565 112 599T194 634Q207 634 221 630T250 621T280 612T312 608Q337 608 354
616T387 650L400 648Z" />
<glyph unicode="&#x2dd;" glyph-name="hungarumlaut" horiz-adv-x="462" d="M247 673Q267 673 281 660T295 624Q295 607 285 594T257 569Q234 552 198 530T108 479L99 487Q115 514 127 534T149 570T167 600T184 626Q198 647 211 660T247 673ZM425 673Q445 673
459 660T473 624Q473 607 463 594T435 569Q412 552 376 530T286 479L277 487Q293 514 305 534T327 570T345 600T362 626Q376 647 389 660T425 673Z" />
</font>
</defs>
</svg>
