<?xml version="1.0" standalone="no"?> <!DOCTYPE svg PUBLIC "-//W3C//DTD SVG 1.0//EN" "http://www.w3.org/TR/2001/REC-SVG-20010904/DTD/svg10.dtd" > <svg xmlns="http://www.w3.org/2000/svg" width="100%" height="100%">
<defs >
<font horiz-adv-x="494" ><font-face
    font-family=""
    units-per-em="1000"
    panose-1="2 0 0 0 0 0 0 0 0 0"
    ascent="787"
    descent="-213"
    alphabetic="0" />
<missing-glyph horiz-adv-x="400" />
<glyph unicode=" " glyph-name="space" horiz-adv-x="200" />
<glyph unicode="!" glyph-name="exclam" horiz-adv-x="257" d="M275 605Q275 576 253 528T202 416Q187 381 173 347T145 279T119 216T97 160H80Q93 227 101 287T116 406Q124 468 126 514T135 592Q144 633 165 651T215 669Q241 669 258 652T275 605ZM110 42Q110
18 93 1T51 -16Q27 -16 11 1T-6 42Q-6 66 10 83T51 100Q76 100 93 83T110 42Z" />
<glyph unicode="&quot;" glyph-name="quotedbl" horiz-adv-x="292" d="M327 627Q327 620 324 609T314 585T301 557T288 529Q276 504 263 481T240 438H227Q228 459 228 484T231 536Q232 548 233 562T235 589T237 614T239 630Q244 650 257 660T286 670Q327 670 327
627ZM193 627Q193 620 189 609T179 585T166 557T153 529Q142 504 129 481T106 438H93Q94 459 94 484T97 536Q98 548 99 562T101 589T103 614T105 630Q110 650 123 660T152 670Q193 670 193 627Z" />
<glyph unicode="#" glyph-name="numbersign" horiz-adv-x="570" d="M443 433L388 228H535V207H383L328 0H305L361 207H178Q177 205 174 190T164 154T152 107T139 60T129 21T123 0H100L156 207H5V228H161L216 433H57V454H221L275 656H297L243 454H426L480 656H502L449
454H586V433H443ZM238 433L183 228H366L421 433H238Z" />
<glyph unicode="$" glyph-name="dollar" horiz-adv-x="495" d="M502 552Q502 519 485 500T443 481Q419 481 403 495T386 534Q386 554 397 572T408 601Q408 615 390 627T338 641L279 405Q309 376 335 353T381 306T412 255T424 190Q424 148 405 111T353 46T274 2T175
-15L152 -108H129L153 -14Q117 -11 88 0T39 28T7 66T-4 111Q-4 143 13 160T56 177Q82 177 95 161T108 120Q108 100 100 80T92 45Q92 29 112 20T158 8L229 292Q208 312 189 332T154 374T131 421T122 476Q122 515 138 549T181 608T244 647T321 663L340 738H362L344
662Q384 660 413 651T462 626T492 592T502 552ZM316 641Q269 638 240 609T210 532Q210 499 224 474T261 423L316 641ZM332 135Q332 159 328 175T314 205T288 236T247 275L180 7Q219 7 247 18T295 48T323 88T332 135Z" />
<glyph unicode="%" glyph-name="percent" horiz-adv-x="665" d="M341 549Q341 499 324 459T280 390T219 345T152 329Q106 329 77 360T47 441Q47 491 64 531T108 601T170 646T237 662Q283 662 312 631T341 549ZM268 580Q268 606 262 625T234 644Q223 644 210 639T183
617Q170 600 159 576T139 525T125 468T120 411Q120 385 126 366T154 347Q165 347 179 352T206 373Q219 390 230 414T249 465T263 522T268 580ZM114 -19L96 -6L571 663L588 650L114 -19ZM641 206Q641 156 624 116T580 46T518 1T451 -15Q405 -15 376 16T347 98Q347
147 364 188T408 257T469 302T536 318Q582 318 611 287T641 206ZM568 236Q568 262 562 281T534 300Q523 300 509 296T482 274Q469 257 458 233T439 182T425 125T420 68Q420 42 426 23T454 3Q465 3 478 8T505 30Q518 47 529 71T549 122T563 179T568 236Z" />
<glyph unicode="&amp;" glyph-name="ampersand" horiz-adv-x="735" d="M760 528Q760 498 751 473T725 428T683 397T627 386Q611 386 586 389T536 400Q553 388 565 370Q577 352 585 332T596 291T600 255Q600 217 583 170T529 82T434 13T293 -15Q228 -15 178 3T94
54T42 131T24 228Q24 268 36 300T67 357T110 399T157 425Q146 443 140 467T133 518Q133 549 144 576T177 622T227 653T291 664Q351 664 382 639T414 561Q414 535 398 513T359 482L352 490Q372 504 372 535Q372 564 353 582T288 601Q238 601 206 569T173 468Q173
451 180 434Q190 438 201 440T221 442Q281 442 281 396Q281 381 270 372T241 363Q220 363 202 374T169 405Q146 388 127 358T108 281Q108 239 120 203T158 139T225 96T323 80Q380 80 424 100T497 153T542 223T557 299Q557 335 545 358T514 394T476 412T439 417Q396
417 371 394T346 339Q346 310 362 295T393 280Q391 290 391 300T393 319Q396 339 410 351T449 363Q472 363 486 347T501 306Q501 280 480 260T424 240Q401 240 383 248T352 271T331 305T324 346Q324 381 338 406T374 449T422 474T472 483Q492 483 511 481T546 477Q566
474 589 471T623 467Q673 467 695 490T718 546Q718 562 714 575T704 599T690 616T677 624Q675 595 659 574T617 552Q592 552 577 566T562 605Q562 631 582 646T627 661Q647 661 670 652T714 625T747 584T760 528Z" />
<glyph unicode="&apos;" glyph-name="quotesingle" horiz-adv-x="161" d="M193 628Q193 614 180 586T153 531Q142 506 129 483T106 440H93Q94 460 94 486T97 537Q98 549 99 563T101 590T103 615T105 631Q110 652 123 662T152 672Q193 672 193 628Z" />
<glyph unicode="(" glyph-name="parenleft" horiz-adv-x="260" d="M139 -104Q121 -74 105 -40T75 33T53 115T45 209Q45 290 68 360T130 490T220 597T326 681L341 668Q285 626 240 573T163 459T114 330T96 188Q96 153 101 115T114 40T135 -31T161 -94L139 -104Z" />
<glyph unicode=")" glyph-name="parenright" horiz-adv-x="260" d="M121 680Q138 651 155 617T185 545T206 462T214 369Q214 288 191 218T129 88T39 -19T-67 -104L-82 -90Q-26 -48 19 5T96 119T145 248T163 390Q163 425 158 463T145 538T124 609T98 672L121 680Z" />
<glyph unicode="*" glyph-name="asterisk" horiz-adv-x="372" d="M221 307Q192 307 192 335Q192 345 195 361T202 396T210 436T216 477Q204 462 192 444L169 409Q158 393 149 380T133 360Q112 339 93 360Q72 380 91 401Q98 408 111 417L176 460Q194 472 209 484Q189
482 168 478T128 470T92 463T66 460Q39 460 39 489Q39 518 66 518Q76 518 92 515T127 508T168 500T209 494Q194 506 176 518L111 561Q98 570 91 577Q72 598 92 618Q112 638 132 619Q139 612 148 599T169 568L192 534Q204 516 216 501Q214 521 210 542T202 582T195
617T192 643Q192 671 221 671Q250 671 250 643Q250 633 247 617T240 582T232 541T226 501Q238 516 250 533T273 567T293 598T309 619Q330 638 350 617Q370 597 351 577Q344 570 330 561L266 518Q248 506 233 494Q250 496 270 500T311 508T348 515T375 518Q403 518
403 488Q403 460 375 460Q365 460 349 463T314 470T273 478T233 484Q248 472 265 460T299 437L329 417Q343 408 350 401Q370 382 350 360Q340 351 329 351T309 359Q302 366 293 380T273 410T250 444T226 477Q228 457 232 437T240 397T247 361T250 335Q250 307 221
307Z" />
<glyph unicode="+" glyph-name="plus" horiz-adv-x="461" d="M225 251V78H206V251H33V271H206V445H225V271H399V251H225Z" />
<glyph unicode="," glyph-name="comma" horiz-adv-x="198" d="M137 37Q137 8 122 -18T82 -66T26 -104T-38 -131L-43 -117Q-28 -112 -9 -103T28 -81T58 -56T71 -31Q71 -22 65 -17Q42 -14 27 3T12 42Q12 69 31 87T77 105Q103 105 120 87T137 37Z" />
<glyph unicode="-" glyph-name="hyphen" horiz-adv-x="332" d="M270 229H57L72 287H286L270 229Z" />
<glyph unicode="." glyph-name="period" horiz-adv-x="197" d="M134 45Q134 19 117 3T76 -14Q51 -14 35 2T18 45Q18 70 34 87T76 104Q100 104 117 88T134 45Z" />
<glyph unicode="/" glyph-name="slash" horiz-adv-x="250" d="M-87 -100L-110 -89L328 687L350 676L-87 -100Z" />
<glyph unicode="0" glyph-name="zero" horiz-adv-x="595" d="M385 670Q436 670 472 652T531 603T564 528T575 433Q575 346 546 266T467 123T353 23T219 -14Q168 -14 132 4T73 54T40 129T29 224Q29 311 58 391T137 534T251 633T385 670ZM222 8Q271 8 306 46Q338
78 367 128T417 242T452 378T465 529Q465 591 442 620T382 649Q335 649 298 610Q264 576 235 523T184 406T150 271T138 127Q138 65 161 37T222 8Z" />
<glyph unicode="1" glyph-name="one" horiz-adv-x="346" d="M164 502Q165 509 168 521T175 547T181 573T184 592Q185 609 173 616Q169 618 160 620T141 623T122 626T108 627L110 637Q133 639 169 643T237 652Q260 656 283 660T313 665Q321 665 319 657Q316 646
311 628T301 590L191 151Q178 103 178 75Q178 47 189 35T213 17Q221 15 234 14T256 10L254 0H-52L-50 10Q-42 11 -33 12T-16 16Q15 24 37 49Q52 69 60 93T79 156L164 502Z" />
<glyph unicode="2" glyph-name="two" horiz-adv-x="526" d="M46 89Q77 113 114 143T190 207T265 281T330 363T375 454T392 553Q392 603 371 625T307 647Q280 647 251 635T199 600T161 541T146 461Q146 429 162 411T203 393Q238 393 260 416T299 471L310 465Q302
444 289 422T256 383T212 354T157 342Q108 342 83 373T58 450Q58 492 76 531T129 601T214 651T329 670Q376 670 411 658T470 626T506 577T518 518Q518 467 488 417T414 324T324 246T245 190Q216 170 184 153T103 109L104 106H304Q338 106 364 116T410 141Q430 156
446 175T476 214H489L388 0H-62Q-58 3 -43 16T-10 44T24 72T46 89Z" />
<glyph unicode="3" glyph-name="three" horiz-adv-x="487" d="M468 546Q468 514 450 484T401 429T329 383T241 348V345Q286 346 322 336T384 307T424 262T438 204Q438 162 420 123T365 53T276 5T154 -14Q112 -14 79 -3T23 26T-13 68T-26 118Q-26 147 -10 165T33
183Q62 183 75 167T88 124Q88 116 86 104T79 80Q77 74 74 64T71 49Q71 41 78 34T96 21T121 12T149 8Q186 8 217 23T269 67T303 133T315 217Q315 278 291 301T222 324Q208 324 194 320T166 309L135 294L127 310L195 344Q226 359 256 379T311 425T349 483T364 557Q364
596 346 622T281 648Q259 648 238 640T199 615T172 574T161 518Q161 487 175 474T209 460Q238 460 254 471T286 502L295 496Q289 482 278 468T252 442T217 423T173 415Q131 415 110 442T88 503Q88 540 106 570T154 623T219 657T290 670Q338 670 371 661T426 634T458
595T468 546Z" />
<glyph unicode="4" glyph-name="four" horiz-adv-x="528" d="M373 0H68L70 10Q79 11 88 12T105 17Q140 27 161 58Q172 76 180 97T196 151L213 218H-24L-20 233L375 657H434Q437 657 436 653Q432 639 428 623L419 587L331 237H368Q406 237 421 245T448 264Q462
278 475 298T496 341H507L448 107H437Q440 128 439 150T430 186Q422 201 409 209T363 218H327L309 146Q304 125 301 106T298 75Q298 47 308 35T333 18Q341 16 353 14T375 10L373 0ZM217 237L292 537H290L10 237H217Z" />
<glyph unicode="5" glyph-name="five" horiz-adv-x="503" d="M158 -14Q117 -14 84 -4T27 25T-8 66T-21 114Q-21 143 -5 162T39 181Q68 181 80 164T93 121Q93 113 91 100T85 76Q83 70 82 61T80 45Q80 37 86 31T103 19T126 11T152 8Q185 8 217 21T274 65T314 143T329
260Q329 315 309 348T237 382Q214 382 193 375T153 357T119 332T94 301L76 308L208 656H219Q240 639 276 630T355 620Q389 620 414 626T456 643T485 666T503 691L514 688Q496 647 476 616T429 565T369 534T292 523Q263 523 237 527T187 538L119 356L121 355Q149
381 186 396T264 412Q353 412 402 366T451 240Q451 192 431 146T373 65T281 8T158 -14Z" />
<glyph unicode="6" glyph-name="six" horiz-adv-x="542" d="M547 573Q547 543 529 523T485 502Q459 502 446 516T433 553Q433 563 436 571T443 589Q448 600 450 607T453 619Q453 631 443 640T408 649Q374 649 341 626T278 564T224 473T185 363H190Q216 397 256
412T335 428Q370 428 398 416T447 383T479 334T490 272Q490 225 473 175T422 82T337 13T218 -14Q167 -14 131 5T71 54T38 121T27 194Q27 263 45 325T93 440T163 535T246 608T332 654T413 670Q455 670 481 661T522 638T542 606T547 573ZM376 308Q376 345 358 370T302
396Q247 396 207 348Q192 329 179 303T157 246T142 184T136 120Q136 98 141 78T157 42T183 17T218 8Q245 8 267 20T306 54Q322 76 335 105T357 167T371 236T376 308Z" />
<glyph unicode="7" glyph-name="seven" horiz-adv-x="453" d="M119 -14Q88 -14 75 6T62 51Q62 73 75 100T107 156T148 209T187 255Q214 286 245 324T307 402T369 480T428 549V552H205Q185 552 168 550T135 541Q111 532 94 515T57 465H44L121 691H130Q134 677 145
667T185 657H540L536 641Q473 575 426 508T341 372T273 232T215 87Q195 35 174 11T119 -14Z" />
<glyph unicode="8" glyph-name="eight" horiz-adv-x="516" d="M10 141Q10 178 27 208T71 260T131 298T198 322Q179 337 162 354T131 392T109 436T101 487Q101 529 117 563T162 621T230 657T315 670Q400 670 441 635T483 541Q483 509 469 483T432 437T382 402T331
379Q360 355 382 335T418 294T440 247T448 186Q448 151 432 116T384 52T308 5T206 -14Q158 -14 121 -2T60 32T23 81T10 141ZM313 391Q361 413 385 449T410 542Q410 593 387 621T309 649Q286 649 265 643T227 623T202 591T192 545Q192 522 200 504T222 468T257 435T302
399Q304 398 307 395T313 391ZM217 308Q193 300 170 285T128 249T98 201T86 141Q86 75 118 42T206 8Q238 8 264 17T310 42T341 82T352 132Q352 157 344 177T321 217T282 255T229 299Q227 300 223 303T217 308Z" />
<glyph unicode="9" glyph-name="nine" horiz-adv-x="539" d="M172 353Q172 316 191 291T246 265Q278 265 307 283T357 336Q368 354 378 378T395 428T406 482T410 536Q410 558 405 578T389 614T363 639T328 648Q295 648 269 631T226 582Q202 539 187 478T172 353ZM-8
86Q-8 117 10 136T54 155Q80 155 92 141T105 105Q105 95 103 86T96 68Q86 47 86 38Q86 25 97 17T134 9Q176 9 213 35T281 104T332 197T362 297H358Q332 263 293 248T215 232Q174 232 145 246T96 284T68 336T59 392Q59 439 75 488T125 578T209 644T328 670Q379 670
415 651T474 601T507 533T518 458Q518 379 501 314T453 196T384 104T303 38T217 -1T134 -14Q94 -14 67 -4T23 21T-1 53T-8 86Z" />
<glyph unicode=":" glyph-name="colon" horiz-adv-x="219" d="M209 379Q209 353 193 337T151 320Q126 320 110 337T93 379Q93 404 110 421T151 438Q176 438 192 422T209 379ZM118 45Q118 19 102 3T60 -14Q36 -14 20 2T3 45Q3 70 19 87T60 104Q85 104 101 88T118 45Z" />
<glyph unicode=";" glyph-name="semicolon" horiz-adv-x="229" d="M123 38Q123 9 108 -17T67 -65T11 -103T-53 -130L-57 -116Q-43 -111 -24 -102T13 -80T43 -55T56 -30Q56 -21 51 -16Q28 -13 13 4T-2 43Q-2 70 16 88T62 106Q88 106 105 88T123 38ZM207 379Q207
353 191 337T149 320Q125 320 108 337T91 379Q91 404 108 421T149 438Q174 438 190 422T207 379Z" />
<glyph unicode="&lt;" glyph-name="less" horiz-adv-x="379" d="M34 251V273L328 423V402L51 262L328 122V101L34 251Z" />
<glyph unicode="=" glyph-name="equal" horiz-adv-x="433" d="M44 336V355H380V336H44ZM44 162V181H380V162H44Z" />
<glyph unicode="&gt;" glyph-name="greater" horiz-adv-x="372" d="M47 101V122L325 262L47 402V423L341 273V251L47 101Z" />
<glyph unicode="?" glyph-name="question" horiz-adv-x="415" d="M456 532Q456 488 442 456T401 399T338 355T257 318Q222 303 195 292T148 268T119 242T109 209Q109 185 124 175T159 165Q177 165 189 169T212 179T229 192L242 205L251 197Q236 174 207 154T139
134Q95 134 66 163T36 239Q36 273 51 297T93 340T154 372T227 401Q270 417 298 433T342 465T365 500T371 539Q371 590 344 619T260 649Q204 649 173 618T141 541Q141 503 159 483T203 463Q212 463 221 469T232 482Q221 487 210 499T199 531Q199 553 212 568T249
584Q270 584 284 571T299 531Q299 515 290 499T264 471T225 451T178 443Q140 443 114 465T88 529Q88 559 103 585T145 629T207 659T283 670Q325 670 357 660T411 630T444 586T456 532ZM159 41Q159 18 143 2T103 -15Q80 -15 64 1T47 41Q47 64 63 80T103 96Q126 96
142 80T159 41Z" />
<glyph unicode="@" glyph-name="at" horiz-adv-x="748" d="M721 264Q721 207 700 156T643 68T564 8T473 -14Q447 -14 426 1T404 54Q404 64 407 78T414 106H410Q397 83 385 64T358 31Q335 8 314 -3T266 -14Q248 -14 231 -8T202 13T181 51T173 110Q173 154 192 204T245
296T322 366T414 394Q441 394 456 379T475 337H482Q488 351 493 363T505 387H588Q576 349 564 310T533 212Q512 149 503 111T493 57Q493 28 516 28Q546 28 579 45T639 93T685 167T703 264Q703 393 628 464T418 536Q341 536 274 507T156 428T78 308T49 158Q49 80
73 21T141 -79T246 -141T381 -162Q472 -162 542 -139T663 -87L670 -101Q647 -115 617 -128T549 -153T469 -170T379 -177Q296 -177 229 -154T113 -87T39 17T13 155Q13 248 47 321T138 446T267 524T417 551Q492 551 549 530T644 471T702 381T721 264ZM459 309Q459
340 450 358T420 377Q397 377 378 360T338 308Q321 280 308 248T287 184T274 125T269 82Q269 52 278 39T302 26Q329 26 360 63Q378 84 391 106T417 155Q459 248 459 309Z" />
<glyph unicode="A" glyph-name="A" horiz-adv-x="592" d="M209 272H368L431 524H426L209 272ZM363 249H188L97 142Q81 123 72 105T62 67Q62 53 68 42T86 24Q98 18 110 15T140 10L137 0H-118L-116 10Q-94 13 -75 22Q-57 31 -39 44T-4 73T28 105T57 136L511 657H581L467
196Q456 150 450 119T444 71Q444 50 453 39T479 19Q488 15 500 13T520 10L518 0H213L216 10Q224 11 233 13T250 17Q284 28 304 58Q318 81 329 118T352 203L363 249Z" />
<glyph unicode="B" glyph-name="B" horiz-adv-x="614" d="M587 524Q587 487 572 458T531 408T470 373T393 353L392 349Q431 344 462 331T516 298T551 254T564 201Q564 163 545 127T492 62T411 17T306 0H-53L-51 10Q-42 11 -31 13T-11 17Q5 22 19 32T44 58Q59 81
70 118T94 203L159 466Q170 512 176 540T182 586Q182 607 173 618T147 638Q137 642 126 644T106 647L108 657H379Q424 657 462 650T527 628T571 587T587 524ZM445 243Q445 263 438 280T416 311T377 332T317 340H244L202 170Q194 136 190 117T186 80Q186 52 199
39Q207 30 223 26T259 22H281Q359 22 402 81T445 243ZM480 547Q480 586 459 610T390 635H366Q351 635 336 629Q321 621 313 604T297 556L250 362H334Q367 362 393 373T436 403Q459 428 469 463T480 547Z" />
<glyph unicode="C" glyph-name="C" horiz-adv-x="569" d="M551 416H539Q543 534 507 590T409 647Q373 647 343 630T290 589Q269 569 245 530T198 437T162 322T147 194Q147 99 193 53Q210 36 230 30T273 23Q316 23 353 40T420 86T474 148T514 217L530 208Q513 169
487 130T425 58T348 6T257 -14Q196 -14 153 7T82 62T42 142T29 235Q29 325 60 404T145 542T267 636T411 670Q441 670 464 664T504 648T532 627T552 603H556L599 647H610L551 416Z" />
<glyph unicode="D" glyph-name="D" horiz-adv-x="679" d="M666 407Q666 292 618 207T487 64Q445 35 393 18T279 0H-52L-50 10Q-42 11 -31 13T-11 17Q6 22 20 32T45 58Q60 81 71 118T94 203L160 466Q171 512 176 540T182 586Q182 607 173 618T147 638Q138 642 126
644T106 647L109 657H403Q469 657 518 636T600 581T649 501T666 407ZM546 453Q546 472 544 493T537 534T525 571T508 599Q489 620 463 627T399 634H367Q331 634 319 611T298 553L203 170Q195 136 191 117T186 80Q186 54 199 39Q216 22 256 22H281Q295 22 313 25T350
36T390 58T430 93Q453 118 474 153T511 234T536 333T546 453Z" />
<glyph unicode="E" glyph-name="E" horiz-adv-x="587" d="M574 457H563Q556 495 543 529T513 589Q501 605 480 620T418 635H391Q346 635 326 609T294 538L248 352H276Q319 352 341 358T381 378Q404 398 421 426T447 478H458L389 201H378Q381 226 378 255T363 300Q354
313 335 321T274 329H242L203 170Q193 133 190 110T189 71Q192 42 209 32T258 22H287Q327 22 360 39T419 77Q460 110 489 148T536 215H548L478 0H-53L-50 10Q-42 11 -31 13T-11 17Q6 22 20 32T45 58Q59 81 70 118T94 203L159 466Q170 512 176 540T182 586Q182 607
173 619T147 638Q138 642 126 644T106 647L108 657H576L574 457Z" />
<glyph unicode="F" glyph-name="F" horiz-adv-x="546" d="M578 452H567Q559 484 546 520T516 582Q499 607 477 621T422 635H387Q312 635 290 539L247 365H282Q325 365 347 371T387 391Q410 410 427 438T453 490H464L395 214H384Q387 238 384 267T369 313Q360 325
341 333T280 342H241L205 196Q194 150 188 119T181 71Q181 50 190 38T217 19Q227 14 239 12L259 10L256 0H-53L-51 10Q-42 11 -33 13T-15 17Q2 22 16 32T41 58Q55 81 66 118T90 203L155 466Q166 512 172 540T178 586Q178 607 169 618T143 638Q133 642 122 644T102
647L104 657H583L578 452Z" />
<glyph unicode="G" glyph-name="G" horiz-adv-x="614" d="M626 287Q617 287 610 285T595 281Q581 276 569 268T546 245Q535 228 528 207T511 152L478 16H470Q466 19 459 23T440 28Q430 28 415 23T385 11Q363 1 333 -6T273 -14Q212 -14 166 6T89 62T43 142T27 237Q27
326 59 404T145 542T269 635T415 670Q446 670 470 664T513 648T543 627T564 603H568L608 647H620L562 421H550Q555 539 518 593T417 648Q393 648 376 644T343 632T315 613T288 589Q269 571 244 531T197 436T160 317T145 187Q145 142 153 108T188 45Q205 27 229
19T277 10Q310 10 330 18T364 42Q378 57 385 78T399 122L410 167Q415 191 417 205T420 231Q420 249 413 258T391 276Q382 281 371 283T350 287L352 298H629L626 287Z" />
<glyph unicode="H" glyph-name="H" horiz-adv-x="713" d="M785 647Q776 646 765 644T746 640Q729 635 714 625T688 598Q673 575 663 539T640 454L577 196Q566 150 560 119T553 71Q553 50 562 39T589 19Q599 15 610 13T630 10L628 0H323L326 10Q334 11 342 13T359
17Q394 28 414 58Q428 81 439 117T462 202L492 321H239L208 195Q197 149 191 119T185 70Q185 49 193 38T219 19Q227 15 236 13T253 10L250 0H-53L-51 10Q-42 11 -31 13T-11 17Q6 22 20 32T44 58Q59 82 70 118T94 203L158 461Q169 507 175 538T181 586Q181 607 172
618T146 638Q136 642 124 644T104 647L106 657H411L408 647Q400 646 392 644L376 640Q359 635 345 625T319 598Q305 575 295 539T272 455L246 346H498L526 462Q537 508 543 538T549 586Q549 607 541 618T516 638Q507 642 498 644T481 647L484 657H788L785 647Z"
/>
<glyph unicode="I" glyph-name="I" horiz-adv-x="345" d="M417 647Q408 646 397 644T377 640Q360 635 345 625T320 598Q305 575 295 539T272 455L209 195Q198 149 192 119T185 71Q185 50 194 38T220 19Q230 15 242 13T262 10L259 0H-53L-51 10Q-42 11 -31 13T-11
17Q5 22 19 32T44 58Q59 81 71 117T94 202L158 462Q169 508 175 538T181 586Q181 607 172 619T146 638Q136 642 124 644T104 647L107 657H419L417 647Z" />
<glyph unicode="J" glyph-name="J" horiz-adv-x="426" d="M513 647Q504 646 493 644T473 640Q456 635 441 625T416 598Q401 574 391 538T368 454L298 169Q289 133 271 100T224 42T157 1T71 -14Q6 -14 -32 19T-71 103Q-71 137 -51 160T2 183Q33 183 51 163T69 116Q69
95 61 83T47 63Q39 55 33 48T26 34Q26 22 39 15T66 7Q86 7 101 13T131 35Q148 55 158 85T175 144L253 461Q264 507 270 538T277 586Q277 607 268 618T242 638Q232 642 221 644T201 647L203 657H515L513 647Z" />
<glyph unicode="K" glyph-name="K" horiz-adv-x="649" d="M503 -14Q474 -14 454 -2T420 31T400 82T391 146Q389 173 389 191T388 223V248Q388 260 387 273Q384 314 367 328T323 342Q300 342 277 327T232 294L208 196Q197 150 191 119T185 70Q185 49 193 38T219
19Q227 15 239 13T259 10L256 0H-53L-51 10Q-42 11 -31 13T-11 17Q5 22 19 32T44 58Q59 82 70 118T94 203L157 461Q168 507 174 538T181 586Q181 607 173 618T148 638Q138 642 125 644T104 647L106 657H417L414 647Q406 646 395 644T376 640Q359 635 345 625T319
598Q305 575 295 539T272 454L240 324L458 507Q493 536 517 560T541 608Q541 632 519 640Q511 643 502 644T483 647L486 657H728L726 647Q709 644 688 638T646 620Q620 606 586 582T513 524L317 363L316 359Q327 364 342 368T372 372Q435 372 469 330T511 186Q518
105 526 69T563 32Q573 32 583 38T601 53T615 72T625 93L638 89Q631 68 620 50T593 17T554 -5T503 -14Z" />
<glyph unicode="L" glyph-name="L" horiz-adv-x="547" d="M-51 10Q-42 11 -31 13T-11 18Q6 23 20 32T45 58Q59 81 70 118T94 203L158 462Q169 508 175 538T181 586Q181 607 172 619T146 638Q136 642 124 644T104 647L107 657H419L416 647Q408 646 396 644T376
639Q360 634 345 624T319 598Q305 575 295 539T272 454L202 170Q194 138 190 117T185 79Q185 53 198 40Q215 23 257 23H281Q320 23 353 40T412 78Q453 111 483 147T530 211H541L471 0H-53L-51 10Z" />
<glyph unicode="M" glyph-name="M" horiz-adv-x="831" d="M282 -4L220 569H216L117 170Q110 143 107 117T103 76Q103 50 113 36T141 16Q149 14 159 13T180 10L177 0H-50L-47 10Q-39 11 -29 12T-11 17Q17 24 41 54Q52 67 66 95T92 172L166 467Q172 489 176 506T182
536T186 559T187 581Q187 624 147 639Q140 641 129 643T109 647L111 657H327L380 159H385L685 657H902L899 647Q890 646 879 644T860 640Q843 635 828 625T802 598Q787 575 777 539T754 454L691 195Q680 150 674 121T668 74Q668 33 703 19Q713 14 724 13T744 10L741
0H437L440 10Q448 11 457 13T474 17Q490 22 504 31T528 57Q542 81 553 117T576 201L666 569H660L319 -4H282Z" />
<glyph unicode="N" glyph-name="N" horiz-adv-x="648" d="M716 647Q709 645 701 644T685 640Q671 636 659 628T635 605Q626 593 615 566T590 486L467 -8H442L206 521H201L113 170Q106 142 103 117T100 77Q100 51 110 36T138 16Q146 14 156 13T177 10L174 0H-53L-51
10Q-43 11 -33 12T-15 17Q14 25 36 54Q47 67 61 95T87 172L161 464Q166 486 169 501T175 528T178 550T179 571Q179 592 165 611T129 639Q121 641 110 643T91 647L93 657H284L487 189H490L561 478Q570 514 574 539T578 578Q578 603 566 618T536 640Q529 643 519
644T497 647L499 657H719L716 647Z" />
<glyph unicode="O" glyph-name="O" horiz-adv-x="631" d="M619 414Q619 369 609 321T578 228T530 141T465 70Q418 31 365 9T254 -14Q207 -14 166 2T95 51T47 132T29 242Q29 287 39 335T70 428T118 515T183 586Q230 626 282 648T393 670Q440 670 481 654T553 605T601
524T619 414ZM503 494Q503 536 495 565T471 612T436 639T393 648Q358 648 329 629T279 587Q261 567 238 524T194 423T159 298T145 162Q145 79 177 44T255 8Q290 8 319 27T369 70Q387 89 410 132T454 233T489 358T503 494Z" />
<glyph unicode="P" glyph-name="P" horiz-adv-x="562" d="M595 512Q595 457 563 412T476 338Q446 323 404 313T290 303H232L205 195Q194 149 188 119T182 72Q182 51 191 39T217 19Q227 15 239 13T260 10L257 0H-53L-50 10Q-42 11 -33 13T-15 17Q2 22 16 32T41
58Q55 81 66 117T90 202L155 466Q166 512 172 540T178 587Q178 608 169 619T143 638Q134 642 122 644T102 647L104 657H395Q450 657 488 646T550 615T584 569T595 512ZM477 548Q477 587 456 611T390 635H363Q348 635 337 631T317 616Q309 607 304 592T294 553L237
326H247Q256 326 266 326T284 325H294Q342 325 371 339T417 372Q430 386 441 406T460 449T472 498T477 548Z" />
<glyph unicode="Q" glyph-name="Q" horiz-adv-x="632" d="M546 -288Q518 -288 492 -282T439 -263T383 -231T321 -184Q289 -159 266 -139T220 -104T177 -82T128 -74Q121 -74 113 -76T98 -81T85 -90T80 -100Q80 -106 86 -113T98 -125Q105 -133 109 -142T113 -168Q113
-194 96 -207T57 -221Q34 -221 17 -206T0 -162Q0 -132 19 -111T64 -74T114 -51T146 -40Q164 -33 187 -26T233 -11V-8Q141 0 86 65T30 247Q30 292 41 340T73 434T123 521T189 592Q282 670 397 670Q448 670 489 652T559 600T603 518T619 410Q619 367 609 320T579
228T530 142T463 72Q396 20 331 -2Q318 -6 297 -12T250 -25T201 -41T160 -55V-57Q209 -56 246 -61T315 -75T376 -99T438 -130Q485 -153 523 -167T603 -182Q652 -182 682 -154T728 -90L741 -96Q728 -134 708 -173T662 -239Q644 -259 615 -273T546 -288ZM503 494Q503
572 473 610T396 648Q361 648 332 629T282 586Q264 566 241 524T196 425T161 301T146 166Q146 127 155 98T179 50T216 21T260 11Q295 11 322 30T370 73Q388 93 411 135T454 235T489 359T503 494Z" />
<glyph unicode="R" glyph-name="R" horiz-adv-x="637" d="M495 -14Q435 -14 409 24T380 138Q379 186 378 221T362 283Q356 293 350 300T335 312T313 319T280 322H236L205 195Q194 150 188 120T181 71Q181 50 190 39T217 19Q227 15 239 13T259 10L257 0H-53L-51
10Q-42 11 -33 13T-15 17Q2 22 16 32T41 58Q55 82 66 118T90 203L155 466Q166 512 172 540T178 587Q178 608 169 619T143 638Q133 642 121 644T101 647L104 657H395Q448 657 485 648T547 621T582 580T593 526Q593 471 558 429T465 359Q448 351 426 345T371 333V329Q397
324 411 318T442 300Q465 284 481 253T501 174Q504 134 507 107T516 63T530 39T551 31Q561 31 570 37T588 52T604 72T615 93L628 88Q620 68 608 50T580 17T542 -5T495 -14ZM475 549Q475 589 456 612T398 635H367Q353 635 341 632T319 618Q311 609 305 594T294 555L242
345H294Q345 345 374 354T423 385Q435 398 444 418T461 460T471 506T475 549Z" />
<glyph unicode="S" glyph-name="S" horiz-adv-x="509" d="M471 452H458Q458 473 456 494T448 535T437 572T422 601Q410 621 389 635T326 649Q276 649 247 622T217 544Q217 519 225 499T246 463T275 431T308 402Q340 373 366 350T410 304T439 253T449 189Q449 142
429 104T377 40T303 0T218 -14Q164 -14 123 8T61 60H55L3 4H-6L46 240H59Q62 186 72 143T102 70T150 24T219 8Q250 8 274 18T315 44T340 83T349 129Q349 153 342 173T319 212T282 251T232 295Q209 315 189 334T153 375T128 424T119 486Q119 521 132 554T172 613T237
655T326 671Q375 671 410 653T462 611H464L501 656H513L471 452Z" />
<glyph unicode="T" glyph-name="T" horiz-adv-x="589" d="M627 460H615Q610 493 601 526T566 588Q525 635 453 635H428L320 196Q309 150 303 119T297 71Q297 50 306 38T332 19Q342 15 353 13T373 10L370 0H58L61 10Q69 11 80 13T100 17Q117 22 131 32T155 58Q170
81 181 118T205 203L312 635H284Q215 635 160 588Q128 562 100 527T48 460H36L102 657H653L627 460Z" />
<glyph unicode="U" glyph-name="U" horiz-adv-x="654" d="M732 647Q725 645 717 644T701 640Q687 636 676 628T652 604Q642 592 630 561T605 478L539 214Q525 158 504 115T452 44T379 1T280 -14Q180 -14 124 32T67 170Q67 179 68 193T73 223T79 257T87 290L129
461Q140 507 146 538T152 586Q152 607 143 618T117 638Q107 642 96 644T76 647L79 657H384L381 647Q373 646 364 644T347 640Q331 635 316 625T291 598Q277 576 267 542T244 458L187 218Q182 195 179 171T175 123Q175 72 206 43T295 13Q345 13 381 27T442 68T483
131T512 215L577 477Q586 513 589 538T593 578Q593 603 581 617T551 639Q544 642 534 644T512 647L515 657H735L732 647Z" />
<glyph unicode="V" glyph-name="V" horiz-adv-x="586" d="M726 647Q715 645 703 642T679 633Q643 616 612 587T550 520L101 0H24L138 461Q162 552 162 586Q162 607 153 618T126 638Q117 642 106 644T86 647L88 657H393L391 647Q382 646 373 644T356 640Q321 629
301 599Q287 576 276 539T253 454L173 122H178L515 515Q532 535 541 553T550 590Q550 604 543 615T523 633Q511 639 500 642T472 647L475 657H728L726 647Z" />
<glyph unicode="W" glyph-name="W" horiz-adv-x="907" d="M371 -1L487 470H483L80 -1H12L126 462Q150 553 150 586Q150 607 141 619T114 638Q105 642 94 644T74 647L77 657H381L378 647Q370 646 361 644T344 640Q328 635 314 626T290 600Q276 576 265 540T241
455L164 138H170L496 521Q500 539 503 557T506 586Q506 607 497 619T471 638Q461 642 451 644T432 647L435 657H737L734 647Q726 646 717 644T700 640Q684 635 670 626T646 600Q632 576 621 540T597 455L523 138H529L844 515Q879 556 879 590Q879 604 872 615T853
633Q840 640 829 642T801 647L804 657H1057L1055 647Q1045 645 1033 642T1009 633Q973 616 941 585T878 518L441 -1H371Z" />
<glyph unicode="X" glyph-name="X" horiz-adv-x="590" d="M262 281L151 155Q118 117 103 96T88 54Q88 31 110 18Q118 14 126 13T142 10L140 0H-74L-72 10Q-64 11 -54 14T-34 22Q-6 35 11 50Q20 56 32 67T60 93T90 124T120 157L254 307L185 518Q177 545 169 563T153
594Q142 611 133 619T108 636Q98 641 88 643T68 647L70 657H378L375 647Q356 645 341 641Q315 633 306 621T297 585Q297 565 313 510L351 395L448 508Q481 546 493 565T506 604Q506 615 500 624T483 639Q475 643 467 644T451 647L453 657H670L668 647Q660 646 650
643T630 636Q614 629 603 622T582 608Q574 603 562 592T535 565T505 534T477 504L361 372L433 141Q441 112 449 95T465 64Q476 47 485 38T510 21Q530 12 550 10L548 0H238L241 10Q250 11 260 12T279 16Q303 24 312 37T321 73Q321 84 318 101T305 147L262 281Z"
/>
<glyph unicode="Y" glyph-name="Y" horiz-adv-x="525" d="M658 647Q649 645 636 642T612 634Q598 628 584 620T554 598T519 560T473 500L317 280L297 196Q286 150 280 119T274 71Q274 50 283 39T309 19Q318 15 330 13T350 10L348 0H36L38 10Q47 11 58 13T77 17Q94
22 108 32T133 58Q148 82 159 118T182 203L200 281L124 559Q117 584 108 600T88 625T63 639T33 647L35 657H319L317 647Q309 646 297 644T276 638Q265 633 255 623T244 593Q244 578 249 560T260 520L312 320H317L452 508Q476 541 486 564T497 607Q497 631 475 640Q468
643 461 644T445 647L448 657H661L658 647Z" />
<glyph unicode="Z" glyph-name="Z" horiz-adv-x="549" d="M600 646L99 22H167Q229 22 271 34T354 71Q381 88 401 104T438 137T469 170T498 204H510L424 0H-54L-51 11L452 635H363Q315 635 274 622T194 585Q163 565 134 536T73 471H61L146 657H602L600 646Z" />
<glyph unicode="[" glyph-name="bracketleft" horiz-adv-x="394" d="M483 657Q483 612 454 581T370 548Q347 548 323 555T276 573T237 599T209 628L33 -75Q51 -58 73 -44T119 -19T167 -2T214 4Q259 5 283 -13T308 -69Q308 -85 302 -99T288 -124T271 -144T255 -157L245
-153Q250 -145 254 -136T259 -115Q259 -92 242 -79T189 -66Q144 -66 91 -78T-9 -111L185 662Q204 652 229 645T280 633T333 626T383 624Q415 625 434 643T453 688Q453 694 453 698T450 708H462Q468 702 475 689T483 657Z" />
<glyph unicode="\" glyph-name="backslash" horiz-adv-x="296" d="M243 -100L60 679L84 685L267 -93L243 -100Z" />
<glyph unicode="]" glyph-name="bracketright" horiz-adv-x="402" d="M217 -111Q198 -101 174 -94T123 -82T69 -75T20 -73Q-12 -74 -32 -92T-52 -137Q-52 -148 -48 -157H-61Q-67 -151 -74 -138T-81 -106Q-81 -61 -52 -30T31 3Q55 3 79 -4T126 -22T165 -48T193
-77L369 627Q351 610 329 595T283 570T235 553T188 547Q142 546 118 564T93 620Q93 636 99 650T113 675T130 695T146 708L157 704Q152 697 148 687T143 666Q143 643 160 630T212 617Q258 617 311 629T410 662L217 -111Z" />
<glyph unicode="^" glyph-name="asciicircum" horiz-adv-x="355" d="M202 657H224L350 409H328L213 639L98 409H76L202 657Z" />
<glyph unicode="_" glyph-name="underscore" horiz-adv-x="307" d="M-90 -161L-84 -137H222L216 -161H-90Z" />
<glyph unicode="`" glyph-name="grave" horiz-adv-x="390" d="M226 665Q245 665 257 656T288 625Q307 602 326 578T377 513L371 506Q342 519 311 533T251 561Q228 572 208 588T188 625Q188 642 198 653T226 665Z" />
<glyph unicode="a" glyph-name="a" horiz-adv-x="469" d="M312 350Q312 383 303 401T273 419Q250 419 231 403T190 351Q173 323 158 286T132 212T113 141T106 88Q106 57 116 45T140 32Q154 32 168 42T198 69Q213 87 225 104T249 146Q262 171 273 200T293 256T307
308T312 350ZM336 62Q336 39 354 39Q367 39 380 47T408 68T435 97T459 131L471 124Q457 100 439 76T399 33T353 3T301 -9Q276 -9 259 6T242 56Q242 67 245 82T252 109H248Q235 86 223 70T196 37Q150 -9 103 -9Q85 -9 68 -3T38 17T16 55T8 114Q8 161 30 217T88 323T172
405T268 438Q297 438 312 422T332 380H335Q342 393 347 404T360 429H445Q433 391 416 338T379 226Q358 163 347 121T336 62Z" />
<glyph unicode="b" glyph-name="b" horiz-adv-x="435" d="M415 297Q415 272 409 243T391 184T364 126T328 76Q290 35 244 13T147 -9Q114 -9 89 2T47 31T22 72T13 121Q13 144 19 177T40 253L143 567Q151 592 155 607T160 630Q160 653 150 662Q145 667 134 669T111
674L114 684H276Q281 684 281 679Q281 675 277 666T268 643Q264 633 261 625T255 607T247 585T238 557L175 364H182Q205 402 237 420T299 438Q353 438 384 403T415 297ZM317 347Q317 411 274 411Q257 411 243 402T215 379Q185 349 164 302Q152 277 141 247T121
187T107 131T102 88Q102 9 148 9Q182 9 208 35T257 110Q266 130 276 158T296 217T311 282T317 347Z" />
<glyph unicode="c" glyph-name="c" horiz-adv-x="372" d="M373 357Q373 337 362 322T327 306Q305 306 295 318T284 348Q284 354 286 361T290 374Q292 382 294 388T297 400Q297 420 269 420Q232 420 199 370Q182 346 167 313T139 244T120 171T113 100Q113 63 130
44T176 25Q199 25 220 35T259 60T291 93T315 127L327 120Q313 93 294 70T250 29T197 1T133 -9Q104 -9 82 2T44 32T20 78T12 135Q12 171 21 205T46 270T83 327T127 374Q163 406 202 422T272 438Q317 438 345 417T373 357Z" />
<glyph unicode="d" glyph-name="d" horiz-adv-x="482" d="M316 357Q314 386 303 402T272 419Q249 419 230 403T189 352Q172 324 157 286T131 209T113 139T106 89Q106 58 115 46T139 33Q165 33 197 69Q212 87 224 105T249 147Q262 173 273 203T294 262T309 316T316
357ZM248 112Q235 88 223 71T195 38Q151 -9 102 -9Q84 -9 67 -3T36 19T14 58T6 117Q6 150 16 187T45 259T89 327T143 384T205 423T271 438Q297 438 311 426T330 394H335L392 567Q408 615 408 630Q408 653 398 662Q393 667 382 669T359 674L362 684H523Q528 684
528 679Q528 675 525 666T516 643Q512 633 509 625T502 607T494 585T485 557Q482 548 476 529T462 486T445 432T427 375Q406 308 382 230Q363 172 352 128T340 61Q340 40 357 40Q370 40 383 48T410 68T437 97T461 132L473 124Q459 100 441 76T400 34T354 3T302
-9Q277 -9 259 6T241 57Q241 67 245 83T252 112H248Z" />
<glyph unicode="e" glyph-name="e" horiz-adv-x="364" d="M325 120Q311 94 292 71T249 30T195 2T130 -9Q102 -9 80 2T43 32T19 79T11 137Q11 210 45 269T131 375Q166 406 201 422T266 438Q320 438 341 418T362 365Q362 345 351 326T320 290Q306 278 284 266T236
241T181 217T124 198Q112 144 112 92Q112 58 126 40T164 22Q192 22 215 32T256 58T289 92T313 127L325 120ZM128 215Q162 228 195 245T246 281Q266 302 276 331T286 380Q286 398 280 409T260 420Q240 420 220 404T183 359T152 294T128 215Z" />
<glyph unicode="f" glyph-name="f" horiz-adv-x="265" d="M222 405Q204 336 183 264T137 124T81 -5T16 -111T-61 -183T-152 -210Q-173 -210 -191 -206T-224 -192T-246 -168T-255 -134Q-255 -108 -241 -97T-210 -86Q-189 -86 -179 -98T-166 -126Q-165 -138 -167
-148T-167 -170Q-166 -181 -159 -185T-141 -190Q-93 -190 -60 -138Q-18 -76 19 53T104 377Q106 385 107 391T111 405H37L43 429H118Q137 501 162 550T218 630T281 674T348 688Q396 688 424 669T452 620Q452 599 440 588T408 577Q367 577 365 617Q365 625 367 635T368
654Q367 662 362 667T345 672Q332 672 319 664T296 639Q288 624 281 606T265 562T247 504T227 429H321L315 405H222Z" />
<glyph unicode="g" glyph-name="g" horiz-adv-x="407" d="M225 421Q183 421 160 367Q146 338 139 301T131 237Q131 206 140 187T178 167Q220 167 243 220Q257 249 264 286T272 350Q272 381 262 401T225 421ZM127 -213Q85 -213 50 -206T-10 -184T-49 -150T-63 -103Q-63
-87 -53 -72T-25 -45T18 -23T72 -9V-6Q40 4 24 26T7 77Q7 114 36 137T105 169Q79 186 64 214T49 278Q49 314 64 343T104 394T161 426T226 438Q260 438 285 425T325 388H329Q334 415 356 431T407 447Q432 447 445 434T459 401Q459 380 449 371T423 362Q409 362 401
369T385 387Q378 397 374 403T361 409Q354 409 348 399T341 374Q341 366 343 360T347 345Q350 337 352 327T354 308Q354 272 339 243T299 193T242 161T177 149Q160 149 148 152T124 160Q101 155 88 144T75 119Q75 108 81 101T99 90T131 82T177 74Q225 66 259 56T315
32T348 -4T359 -56Q359 -94 342 -123T293 -172T219 -202T127 -213ZM131 -195Q163 -195 191 -189T241 -171T275 -140T288 -98Q288 -70 264 -56T179 -30Q162 -27 141 -23T98 -15Q83 -18 66 -24T35 -41T11 -68T2 -108Q2 -153 35 -174T131 -195Z" />
<glyph unicode="h" glyph-name="h" horiz-adv-x="485" d="M-16 0Q-14 5 -2 43T29 136T69 257T111 384T147 494T171 567Q187 615 187 630Q187 653 177 662Q172 667 161 669T138 674L142 684H301Q306 684 306 679Q306 675 302 666T293 643Q289 633 286 625T280 607T272
585T263 557L172 275H178Q228 365 276 402T365 439Q399 439 415 420T431 367Q431 338 419 302T385 205Q377 182 369 159T355 115T345 80T341 58Q341 39 354 39Q365 39 379 47T407 67T436 96T461 131L473 124Q459 100 439 76T396 33T346 3T293 -9Q267 -9 252 6T236
49Q236 62 241 82T254 127T272 178T291 231Q309 281 323 319T337 374Q337 396 317 396Q305 396 286 383T243 340T193 264T139 151Q126 119 111 78T84 0H-16Z" />
<glyph unicode="i" glyph-name="i" horiz-adv-x="271" d="M271 592Q271 566 252 552T213 537Q193 537 176 552T158 592Q158 617 175 633T213 649Q233 649 252 634T271 592ZM124 370Q124 395 105 395Q93 395 73 377T21 311L9 318Q26 350 46 372T87 409T128 431T166
438Q194 438 208 422T223 377Q223 355 210 312T178 217Q169 190 160 164T145 117T134 79T130 57Q130 39 144 39Q156 39 169 47T197 67T225 97T250 132L262 124Q248 100 229 76T186 34T136 3T82 -9Q57 -9 42 6T27 49Q27 62 32 83T46 128T63 179T82 230Q99 276 111
315T124 370Z" />
<glyph unicode="j" glyph-name="j" horiz-adv-x="236" d="M279 593Q279 567 261 553T222 538Q202 538 184 553T166 593Q166 618 184 633T222 649Q242 649 260 635T279 593ZM160 146Q136 75 118 27T84 -54T54 -109T23 -148Q-4 -177 -40 -195T-116 -213Q-161 -213
-190 -190T-219 -130Q-219 -107 -205 -91T-168 -75Q-142 -75 -130 -90T-117 -124Q-117 -135 -119 -142T-124 -158Q-129 -171 -129 -179Q-129 -185 -124 -189T-111 -193Q-93 -193 -79 -185T-49 -151Q-43 -141 -33 -118T-12 -65T10 -1T33 64T52 122T67 165Q78 198
89 231T108 293T122 342T128 369Q128 394 108 394Q96 394 76 377T24 310L12 317Q47 381 90 409T168 438Q197 438 212 422T228 377Q228 365 221 338T204 277T181 208T160 146Z" />
<glyph unicode="k" glyph-name="k" horiz-adv-x="468" d="M295 -9Q268 -9 253 8T238 47Q238 71 245 99T258 146Q261 158 263 170T265 193Q265 225 250 235T203 246H165L85 0H-16L171 567Q179 592 183 607T188 630Q188 652 177 662Q172 667 161 669T138 674L142
684H306Q311 684 311 679Q311 675 307 666T298 643Q294 633 291 625T285 607T277 585T268 557L171 264H214Q233 264 248 271T276 290T296 313T310 337Q323 361 334 380T359 413Q385 439 415 439Q442 439 457 420T473 375Q473 349 460 333T428 317Q411 317 399 326T386
358Q386 360 387 367T391 381Q396 394 396 399Q396 406 388 406Q373 406 359 383T325 324Q311 299 295 282T254 256V252Q308 243 329 216T352 152Q352 146 351 133T345 102Q341 84 340 74T339 58Q339 37 356 37Q374 37 400 61T450 122L462 114Q448 91 430 69T390
30T344 2T295 -9Z" />
<glyph unicode="l" glyph-name="l" horiz-adv-x="265" d="M162 217Q141 157 127 115T112 58Q112 39 126 39Q138 39 152 47T182 67T212 97T238 132L250 124Q236 100 216 76T171 34T120 3T65 -9Q38 -9 24 7T9 51Q9 65 15 86T29 133T48 185T67 236Q72 252 82 280T103
341T128 411T152 478T171 533T183 567Q190 586 194 603T199 630Q199 653 189 662Q184 667 174 669T151 674L154 684H318Q323 684 323 679Q323 675 319 666T310 643Q306 633 303 625T297 606T290 585T280 557Q221 389 193 307T162 217Z" />
<glyph unicode="m" glyph-name="m" horiz-adv-x="735" d="M486 49Q486 62 491 82T505 127T523 177T542 230Q560 280 573 318T587 373Q587 385 582 389T568 394Q556 394 534 375T484 320T429 230T376 108Q374 103 370 90T361 60T350 28T341 0H238Q267 94 288 156T313
231Q329 280 342 319T356 373Q356 385 352 389T338 394Q326 394 307 380T264 334T214 254T162 137Q159 130 153 115T140 80T126 39T112 0H13Q23 33 36 72T62 148T85 217L102 267Q114 305 119 328T124 368Q124 396 104 396Q92 396 71 378T18 310L5 318Q40 381 81
409T156 438Q186 438 199 423T212 378Q212 332 191 257H198Q248 357 296 397T387 438Q421 438 434 419T448 367Q448 350 441 323T422 257H428Q480 356 526 397T614 438Q648 438 665 419T682 367Q682 338 670 302T635 205Q627 181 619 158T605 115T595 80T591 58Q591
39 604 39Q615 39 629 47T657 67T686 96T711 131L723 124Q709 100 689 76T646 33T596 3T543 -9Q517 -9 502 6T486 49Z" />
<glyph unicode="n" glyph-name="n" horiz-adv-x="509" d="M497 124Q483 100 463 76T420 33T370 3T317 -9Q291 -9 276 6T260 49Q260 62 265 82T279 127T297 177T316 230Q333 279 347 317T361 372Q361 385 356 389T342 394Q330 394 310 380T266 334T215 254T161
137Q148 105 136 71T112 0H12Q22 33 35 72T61 148L101 267Q114 305 119 328T124 368Q124 396 103 396Q91 396 70 378T18 311L5 318Q40 382 80 410T155 438Q185 438 198 423T212 378Q212 355 206 323T190 253H197Q250 353 298 395T390 438Q424 438 439 419T455 366Q455
337 443 301T409 204Q401 180 393 157T379 114T369 80T365 58Q365 39 378 39Q389 39 403 47T431 67T460 96T485 131L497 124Z" />
<glyph unicode="o" glyph-name="o" horiz-adv-x="411" d="M146 -9Q83 -9 48 32T12 144Q10 207 34 268T102 373Q132 404 172 421T255 438Q318 438 353 396T389 281Q389 220 365 160T299 57Q268 26 229 9T146 -9ZM254 421Q230 421 213 406T182 366Q168 343 154 306T127
228T108 145T100 73Q101 42 111 25T146 8Q170 8 187 23T218 63Q232 86 246 122T272 199T292 280T300 354Q302 421 254 421Z" />
<glyph unicode="p" glyph-name="p" horiz-adv-x="481" d="M212 329Q227 360 244 380T279 414T314 432T347 438Q369 438 390 432T427 410T452 366T462 295Q462 262 453 228T429 161T391 99T343 47Q312 21 277 6T200 -9Q174 -9 153 -4T121 9L114 -10Q110 -24 105
-38T96 -67T88 -88Q82 -105 78 -123T74 -156Q74 -169 80 -179T100 -197Q107 -201 118 -203T141 -208L138 -217H-124L-121 -208Q-105 -206 -91 -202T-66 -191Q-49 -179 -39 -160T-19 -111Q-17 -104 -7 -72T19 5T50 100T81 193T105 267T116 301Q121 320 125 337T129
366Q129 396 108 396Q97 396 73 374T18 303L6 310Q41 374 83 406T161 438Q190 438 202 421T215 375Q215 367 213 354T208 329H212ZM366 340Q366 407 322 407Q307 407 294 400T269 382Q252 365 236 337T209 278Q200 252 189 220L168 156Q158 124 149 94T132 43Q142
29 158 20T192 11Q213 11 230 21T263 51Q282 70 300 105T333 182T357 265T366 340Z" />
<glyph unicode="q" glyph-name="q" horiz-adv-x="441" d="M285 -88Q279 -105 275 -123T271 -156Q271 -170 277 -180T297 -197Q305 -202 316 -204L338 -208L335 -217H70L74 -208Q91 -206 106 -202T131 -190Q149 -177 159 -158T179 -108L252 107H248Q235 84 224
68T195 36Q151 -9 104 -9Q86 -9 69 -3T38 19T17 57T9 115Q9 146 19 182T48 254T91 323T146 382T207 423T273 438Q312 438 331 416T354 366H360L435 431H456Q454 426 447 403T428 344T401 264T371 173T342 83T315 2T295 -58T285 -88ZM314 351Q314 418 273 418Q250
418 232 402T192 351Q175 323 160 286T134 212T116 141T109 88Q109 58 118 45T142 32Q157 32 171 42T200 69Q214 86 226 104T251 146Q264 172 275 201T295 258T309 310T314 351Z" />
<glyph unicode="r" glyph-name="r" horiz-adv-x="389" d="M195 253Q216 309 235 345T273 401T309 430T348 438Q377 438 395 421T414 373Q414 345 401 331T368 317Q351 317 339 326T319 361Q315 375 313 382T301 389Q290 389 277 375T248 330T211 251T163 135Q150
103 138 70T113 0H15Q25 33 38 72T64 148T87 217L104 267Q116 305 120 328T124 368Q124 395 103 395Q91 395 70 377T17 310L5 317Q40 380 80 409T155 438Q184 438 196 423T209 378Q209 353 204 322T188 253H195Z" />
<glyph unicode="s" glyph-name="s" horiz-adv-x="327" d="M323 357Q323 337 312 325T283 312Q266 312 256 322T243 347Q241 362 244 370T246 392Q244 403 234 412T206 421Q174 421 162 403T149 359Q149 334 163 312T205 256Q242 210 260 182T279 123Q279 91 265
67T228 26T177 0T120 -9Q66 -9 30 17T-6 89Q-6 115 7 130T40 146Q58 146 69 136T81 107Q81 87 74 75T66 49Q66 26 84 17T122 8Q156 8 176 27T196 80Q196 93 192 103T179 126T157 154T126 191Q112 209 102 223T86 252T76 281T73 315Q73 343 84 365T115 404T159 429T211
438Q233 438 253 433T289 418T314 392T323 357Z" />
<glyph unicode="t" glyph-name="t" horiz-adv-x="273" d="M111 58Q111 39 124 39Q136 39 150 47T180 68T209 97T235 132L247 125Q233 101 213 77T170 34T121 3T66 -9Q40 -9 25 7T10 49Q10 62 15 83T29 129T46 180T63 230Q72 257 83 287Q91 313 101 344T122 405H61L67
429H129Q132 438 138 457T151 498T164 541T175 574H273Q269 562 263 541T249 498T236 457T227 429H324L318 405H220Q209 372 198 339T178 278Q167 246 157 217Q148 190 140 164T126 117T115 81T111 58Z" />
<glyph unicode="u" glyph-name="u" horiz-adv-x="513" d="M365 63Q365 51 371 44T386 37Q399 37 413 45T442 66T470 96T495 131L507 124Q493 100 474 76T432 33T384 3T332 -9Q303 -9 288 9T273 59Q273 82 278 108T294 170H287Q260 119 234 85T184 29T137 0T94
-9Q65 -9 48 10T30 62Q30 91 42 128T77 224Q85 248 93 271T108 314T119 350T124 373Q124 395 108 395Q96 395 75 377T22 311L9 318Q44 381 87 409T164 438Q223 438 223 379Q223 366 218 346T206 302T189 252L171 200Q153 150 140 113T126 59Q126 35 146 35Q158
35 177 50T220 97T271 178T325 295Q338 327 350 360T375 429H473Q462 396 450 357T424 281T400 211L384 162Q372 124 369 102T365 63Z" />
<glyph unicode="v" glyph-name="v" horiz-adv-x="406" d="M73 224Q82 247 90 270T105 314T116 350T121 373Q121 395 104 395Q92 395 71 377T18 311L5 318Q40 381 82 409T159 438Q219 438 219 378Q219 351 203 303T166 198Q149 153 137 119T125 68Q125 54 131 44T156
33Q191 33 226 55T290 113T335 193T353 280Q353 300 350 318T336 360Q329 375 326 383T322 400Q322 416 332 427T357 438Q400 438 400 362Q400 338 394 308T378 245T354 182T324 127Q306 100 282 76T230 32T172 2T113 -9Q75 -9 51 12T27 77Q27 103 40 138T73 224Z"
/>
<glyph unicode="w" glyph-name="w" horiz-adv-x="674" d="M420 -9Q378 -9 351 9T309 59Q272 29 234 10T152 -9Q108 -9 80 18T52 94Q52 127 64 161T95 228T135 287T172 334Q159 338 143 345T108 366Q93 376 79 385T53 395Q51 395 48 393T44 386Q44 383 48 377T58
364Q69 345 69 334Q69 317 60 307T36 296Q0 296 0 338Q0 352 11 371T38 404Q52 418 71 428T109 438Q122 438 135 431T162 415Q198 392 212 392Q220 392 224 396T232 407Q240 423 246 430T264 438Q270 438 274 435T279 423Q279 415 272 409T258 398Q250 393 242
386T226 367Q213 347 200 318T177 255T159 186T152 120Q152 78 170 59T215 40Q233 40 255 50T300 80Q295 93 293 107T290 137Q290 182 298 221T318 294T347 352T378 396Q397 419 414 428T443 438Q466 438 479 419T492 368Q492 339 484 310T462 250T429 191T388
135Q412 42 476 42Q501 42 522 54T560 90Q588 128 603 179T618 284Q618 304 613 323T597 366Q590 382 588 387T586 401Q586 415 595 426T619 438Q662 438 662 362Q662 338 657 303T642 229T615 151T574 78Q547 40 509 16T420 -9ZM431 404Q423 404 413 396T395 373T380
334T374 281Q374 215 383 161Q399 182 413 206T439 255T458 301T465 340Q465 375 455 389T431 404Z" />
<glyph unicode="x" glyph-name="x" horiz-adv-x="480" d="M498 372Q498 356 493 340T479 307T459 275T438 248L427 252Q438 275 446 306T455 360Q455 383 449 398T423 413Q408 413 390 400T355 362Q336 334 320 298T291 213Q279 165 275 132T271 84Q271 56 281
46T305 35Q324 35 340 44T371 68T397 100T418 135L429 128Q417 103 399 79T359 35T313 3T264 -9Q221 -9 200 17T178 92Q178 101 179 111T182 131H178Q169 107 155 83T121 38T81 4T35 -9Q7 -9 -8 9T-23 58Q-23 73 -18 89T-4 122T15 153T37 180L49 176Q38 153 29
121T19 67Q19 44 26 29T52 14Q67 14 85 27T119 64Q160 120 185 216Q197 264 201 296T205 344Q205 372 196 382T173 393Q155 393 139 384T109 360T82 328T61 294L49 300Q62 325 81 350T122 394T167 426T214 438Q257 438 277 411T298 336Q298 327 297 318T294 300H299Q308
324 323 348T356 393T396 425T441 438Q468 438 483 420T498 372Z" />
<glyph unicode="y" glyph-name="y" horiz-adv-x="387" d="M69 379Q55 379 39 361T6 310L-7 318Q18 369 50 403T121 438Q143 438 160 425T193 374Q200 357 209 328T225 258T239 169T247 62H251Q285 122 308 183T331 295Q331 315 326 331T313 365Q311 370 307 380T303
399Q303 417 313 427T339 438Q359 438 367 423T375 388Q375 305 348 225T280 75T189 -52T95 -146Q57 -178 23 -195T-41 -213Q-68 -213 -89 -198T-110 -154Q-110 -129 -95 -116T-62 -102Q-31 -102 -7 -135Q0 -144 8 -150T26 -157Q49 -157 81 -130Q98 -116 119 -95T163
-47Q161 -1 157 48T145 145T130 234T111 308Q100 342 90 360T69 379Z" />
<glyph unicode="z" glyph-name="z" horiz-adv-x="435" d="M435 410Q435 394 421 375T386 342Q385 342 369 327T328 290T275 242T222 194T180 156L164 141Q156 135 144 126T123 111H138Q146 111 156 109Q173 107 194 104T227 98Q250 93 270 89T311 84Q329 84 345
91T379 120Q386 129 392 139T405 162L419 156Q408 128 395 99T364 46T321 7T264 -9Q234 -9 213 3T172 36Q155 56 140 71T108 86Q90 86 78 67T59 25Q55 12 44 2T18 -9Q2 -9 -5 1T-13 24Q-13 38 -4 49T19 68Q28 74 43 82T69 95L313 311Q308 310 302 310T291 309Q268
309 237 320T180 346Q161 357 141 368T107 379Q86 379 72 365T57 324Q57 314 60 309T67 301Q72 321 85 330T113 339Q132 339 146 329T160 293Q160 274 146 260T113 246Q81 246 60 269T39 334Q39 356 47 375T69 408T102 430T142 438Q176 438 197 426T241 394Q251
385 262 375T284 355T304 340T321 333Q334 333 342 341T354 361T362 386T370 409Q376 423 386 430T407 438Q421 438 428 430T435 410Z" />
<glyph unicode="{" glyph-name="braceleft" horiz-adv-x="353" d="M249 -141Q162 -136 113 -100T63 2Q63 17 70 41T85 92T100 144T107 184Q107 226 89 246T28 273L31 290Q54 292 72 296T105 308Q128 323 142 348T167 413Q172 435 176 461T187 517Q195 556 218
586T276 638T352 670T443 682L440 668Q415 666 394 660T356 638T326 599T305 535Q302 521 300 512T297 494T293 475T288 449Q274 375 219 334T90 282L88 277Q140 266 175 235T211 158Q211 134 204 105T188 46T172 -7T165 -45Q165 -86 191 -104T251 -126L249 -141Z"
/>
<glyph unicode="|" glyph-name="bar" horiz-adv-x="200" d="M98 -99V687H121V-99H98Z" />
<glyph unicode="}" glyph-name="braceright" horiz-adv-x="341" d="M-104 -126Q-79 -125 -58 -119T-20 -97T10 -57T31 7Q34 21 36 30T39 48T43 67L48 92Q62 166 117 207T246 260L248 264Q196 276 161 307T125 384Q125 408 132 437T148 496T164 549T171 586Q171
628 145 646T84 668L87 682Q175 677 224 642T273 541Q273 526 266 501T251 449T236 397T229 357Q229 316 247 295T308 268L304 252Q256 249 229 232Q206 217 193 192T170 129Q164 107 160 81T150 25Q141 -14 118 -44T61 -96T-16 -128T-107 -141L-104 -126Z" />
<glyph unicode="~" glyph-name="asciitilde" horiz-adv-x="347" d="M220 230Q202 230 186 234T155 243T125 253T93 257Q73 257 57 247T28 214L16 218Q22 237 30 255T50 288T77 312T112 321Q128 321 143 317T174 308T204 299T234 295Q259 295 274 304T302 337L314
335Q310 315 303 296T284 263T257 239T220 230Z" />
<glyph unicode="&#xa0;" glyph-name="uni00A0" horiz-adv-x="440" />
<glyph unicode="&#xa1;" glyph-name="exclamdown" horiz-adv-x="257" d="M290 612Q290 588 274 571T233 554Q208 554 191 571T174 612Q174 635 191 652T233 670Q257 670 273 653T290 612ZM69 -16Q43 -16 26 1T9 48Q9 77 31 125T82 238Q111 307 139 374T187 493H204Q191
427 183 367T168 247Q160 185 158 139T149 61Q140 21 119 3T69 -16Z" />
<glyph unicode="&#xa2;" glyph-name="cent" horiz-adv-x="386" d="M388 360Q388 339 377 324T341 308Q297 308 297 351Q297 358 299 365L303 379Q306 387 308 392T310 402Q310 410 302 414T280 420L174 23Q187 22 206 27Q225 32 243 43T277 68T305 97T326 127L337
120Q324 95 307 73T268 33T221 4T165 -8L141 -97L121 -95L144 -8Q125 -6 111 -2Q66 11 39 49T12 134Q12 169 21 204T48 272T87 333T135 383Q198 433 264 438L286 522L307 521L285 438Q327 436 357 416T388 360ZM113 100Q113 72 124 54T154 28L258 417Q224 411 199
372Q182 348 167 315T139 245T120 171T113 100Z" />
<glyph unicode="&#xa3;" glyph-name="sterling" horiz-adv-x="634" d="M643 555Q643 525 634 503T608 465T570 443T526 435Q509 435 492 440T458 456T430 480T414 511L427 518Q434 498 457 486T505 473Q537 473 557 497T577 563Q577 597 559 618T514 640Q486 640
464 625T424 585T393 526T369 457Q358 419 349 376T325 289H487L480 264H317Q301 219 284 185T237 113Q276 102 316 95T388 88Q454 88 491 109T548 173L561 169Q556 130 540 95T497 32T435 -11T358 -27Q334 -27 310 -21T261 -4T215 18T174 44Q142 18 107 2T29 -14Q-19
-14 -47 7T-76 64Q-76 99 -43 123T42 147Q69 147 99 143T161 131Q172 162 180 197T194 264H80L87 289H198Q202 304 205 320T213 352Q230 410 257 466T323 566T409 636T514 663Q575 663 609 633T643 555ZM140 69Q114 89 88 103T36 118Q10 118 -6 104T-23 65Q-23
40 -6 25T41 10Q71 10 96 25T140 69Z" />
<glyph unicode="&#xa5;" glyph-name="yen" horiz-adv-x="511" d="M19 193L27 218H177L196 301H48L55 326H188L116 555Q108 579 100 594T81 618T57 633T28 641L30 651H308L306 641Q298 640 286 638T266 633Q255 628 244 618T233 588Q233 573 237 555T248 514L303
344H307L434 502Q463 538 475 560T487 601Q487 614 481 621T463 634Q457 637 447 638T430 641L432 651H647L644 641Q635 640 623 637T600 630Q586 624 572 615T542 591T506 552T458 494L321 326H474L467 301H313L292 218H446L439 193H286Q264 104 264 71Q264 49
273 38T299 19Q308 15 320 13T340 10L337 0H26L29 10Q38 11 49 13T68 17Q85 22 99 32T124 59Q138 81 149 114T172 193H19Z" />
<glyph unicode="&#xa7;" glyph-name="section" horiz-adv-x="387" d="M412 589Q412 571 401 557T366 542Q343 542 331 555T318 587Q318 598 319 607T321 629Q321 640 308 645T278 651Q245 651 223 627T200 563Q200 539 206 520T221 483T244 448T273 410Q288 390
304 369T334 324T356 278T365 230Q365 205 355 182T328 139T289 104T241 80Q269 32 269 -21Q269 -57 254 -87T215 -139T159 -173T97 -186Q29 -186 -1 -162T-32 -105Q-32 -87 -20 -72T15 -57Q38 -57 50 -71T63 -102Q63 -113 62 -122T60 -144Q60 -155 72 -161T101
-167Q136 -167 160 -143T184 -79Q184 -54 178 -34T162 5T138 41T109 78Q91 100 74 122T44 168T23 214T15 263Q15 288 25 311T52 354T91 389T138 413Q127 435 121 457T115 505Q115 541 129 571T167 623T221 657T282 670Q317 670 341 663T382 645T405 620T412 589ZM98
320Q98 298 105 279T124 241T153 201T190 155Q201 141 212 126T232 95Q253 106 267 126T281 170Q281 211 254 248T191 333Q180 348 168 364T146 397Q125 387 112 366T98 320Z" />
<glyph unicode="&#xa8;" glyph-name="dieresis" horiz-adv-x="353" d="M80 590Q80 612 95 627T132 643Q155 643 170 628T185 592Q185 570 170 555T132 539Q110 539 95 554T80 590ZM240 590Q240 612 254 627T291 643Q314 643 329 628T344 592Q344 570 329 555T291
539Q269 539 255 554T240 590Z" />
<glyph unicode="&#xa9;" glyph-name="copyright" horiz-adv-x="887" d="M867 258Q867 172 835 97T746 -35T614 -124T454 -157Q368 -157 293 -124T161 -35T71 96T38 258Q38 343 71 418T160 549T292 638T454 671Q539 671 614 639T745 550T834 418T867 258ZM839 258Q839
339 808 410T724 533T601 616T454 646Q376 646 306 616T183 534T98 410T66 258Q66 176 97 105T182 -19T306 -102T454 -132Q531 -132 601 -102T724 -20T808 104T839 258ZM650 190Q642 158 628 128T591 75T536 38T460 24Q420 24 386 34T323 63Q277 92 249 141T221
260Q221 317 241 360T294 433T372 478T465 493Q519 493 553 477T607 437H611L632 473H641V305H628Q619 335 609 365T580 419T535 457T468 472Q422 472 390 437Q365 411 351 368T337 261Q337 222 342 193T356 142T375 105T396 81Q414 65 434 61T477 56Q502 56 524
63T567 86T603 128T632 194L650 190Z" />
<glyph unicode="&#xaa;" glyph-name="ordfeminine" horiz-adv-x="418" d="M455 383Q442 361 427 340T393 303T353 276T307 266Q287 266 270 279T253 327Q253 335 256 349T262 375H259Q247 353 235 337T209 307Q189 286 170 276T127 266Q111 266 96 271T70 290T51
324T44 378Q44 419 63 468T115 560T190 632T276 661Q301 661 314 646T330 608H334Q340 619 345 630T357 652H433L406 571Q390 523 373 471Q354 414 346 380T337 332Q337 310 354 310Q379 310 401 334T443 389L455 383ZM312 581Q312 609 305 626T279 643Q259 643
243 630T207 585Q192 560 179 527T155 460T139 399T133 355Q133 327 140 316T161 304Q173 304 185 312T212 336Q226 352 236 368T257 406Q269 428 279 452T296 501T308 545T312 581Z" />
<glyph unicode="&#xab;" glyph-name="guillemotleft" horiz-adv-x="419" d="M303 242L376 98L367 88L210 239L213 252L421 403L430 391L303 242ZM126 242L200 98L190 88L33 239L37 252L244 403L253 391L126 242Z" />
<glyph unicode="&#xae;" glyph-name="registered" horiz-adv-x="548" d="M547 422Q547 371 527 326T473 246T393 192T296 172Q244 172 199 192T119 246T65 325T45 422Q45 473 65 518T119 598T198 652T296 672Q347 672 393 652T473 598T527 519T547 422ZM523 422Q523
468 505 509T456 582T384 632T296 651Q249 651 208 633T136 583T87 510T69 422Q69 375 87 334T135 261T207 211T296 192Q342 192 383 210T456 260T505 333T523 422ZM365 291Q358 299 352 314T343 349Q341 370 337 385T323 412Q309 430 282 430H257V336Q257 327
259 322Q261 317 263 313T271 306Q275 304 282 304T294 303V291H168V303Q172 303 179 303T190 306Q196 308 198 312T202 322Q204 327 204 335V529Q204 538 202 543Q200 548 198 552T190 558Q186 560 179 561T168 562V574H300Q346 574 372 557T398 504Q398 477 378
460T320 438V437Q352 434 370 420T396 362Q401 333 407 325T423 312Q426 310 436 307T452 303V291H365ZM341 504Q341 534 329 546T287 558H257V444H283Q314 444 327 462T341 504Z" />
<glyph unicode="&#xaf;" glyph-name="macron" horiz-adv-x="336" d="M75 554L85 594H319L309 554H75Z" />
<glyph unicode="&#xb0;" glyph-name="degree" horiz-adv-x="299" d="M317 544Q317 515 307 492T279 452T239 426T191 416Q166 416 144 425T104 451T76 491T65 544Q65 572 75 596T103 636T143 662T191 672Q216 672 238 663T278 637T306 596T317 544ZM274 544Q274
598 252 626T191 654Q153 654 131 626T108 544Q108 491 130 463T191 434Q229 434 251 462T274 544Z" />
<glyph unicode="&#xb4;" glyph-name="acute" horiz-adv-x="386" d="M360 625Q360 603 346 591T305 566Q277 553 241 540T150 504L145 512Q166 533 181 549T208 577T232 600T255 622Q277 644 292 653T321 662Q360 662 360 625Z" />
<glyph unicode="&#xb6;" glyph-name="paragraph" horiz-adv-x="504" d="M582 638H502L306 -151H281L477 638H379L183 -151H158L263 271H240Q197 271 163 285T106 322T71 375T58 438Q58 486 77 526T131 595T211 641T312 657H587L582 638Z" />
<glyph unicode="&#xb7;" glyph-name="periodcentered" horiz-adv-x="244" d="M184 261Q184 235 166 220T124 204Q101 204 84 220T66 261Q66 287 84 304T124 321Q147 321 165 305T184 261Z" />
<glyph unicode="&#xb8;" glyph-name="cedilla" horiz-adv-x="346" d="M213 -98Q213 -119 203 -134T175 -159T134 -175T84 -180Q63 -180 43 -174T11 -159L19 -148Q29 -153 44 -157T76 -161Q111 -161 133 -148T155 -99Q155 -78 145 -68T119 -58Q101 -58 89 -69L74
-62L108 1H129L103 -49Q111 -43 123 -40T146 -37Q181 -37 197 -54T213 -98Z" />
<glyph unicode="&#xba;" glyph-name="ordmasculine" horiz-adv-x="349" d="M375 519Q375 466 353 413T295 324Q269 298 234 282T161 266Q107 266 76 302T44 402Q44 429 50 456T67 510T93 560T126 602Q153 628 187 644T259 660Q314 660 344 622T375 519ZM297 583Q297
644 258 644Q238 644 224 631T196 595Q184 575 171 542T147 473T130 401T123 340Q123 282 162 282Q182 282 197 295T224 330Q236 350 248 382T272 450T290 521T297 583Z" />
<glyph unicode="&#xbb;" glyph-name="guillemotright" horiz-adv-x="412" d="M390 239L183 88L174 100L301 249L228 393L237 403L394 252L390 239ZM214 239L6 88L-3 100L124 249L51 393L60 403L217 252L214 239Z" />
<glyph unicode="&#xbf;" glyph-name="questiondown" horiz-adv-x="413" d="M408 613Q408 590 392 574T353 558Q330 558 313 574T296 613Q296 636 313 652T353 669Q376 669 392 653T408 613ZM419 415Q419 380 404 356T362 314T302 281T229 252Q185 236 157 221T113
189T90 154T84 114Q84 63 111 34T196 5Q252 5 283 36T314 113Q314 149 295 169T253 190Q243 190 234 184T223 171Q235 167 248 155T261 119Q261 95 246 80T208 65Q187 65 171 80T154 121Q154 137 164 153T192 182T232 203T280 211Q318 211 344 188T370 125Q370
95 354 69T310 25T247 -5T172 -16Q131 -16 99 -6T44 24T11 68T-1 122Q-1 165 14 197T55 254T117 298T198 336Q233 350 261 362T308 386T337 412T347 445Q347 468 332 478T296 489Q278 489 266 485T244 475T227 461T213 448L205 456Q219 479 248 499T316 520Q360
520 389 491T419 415Z" />
<glyph unicode="&#xc0;" glyph-name="Agrave" horiz-adv-x="592" d="M209 272H368L431 524H426L209 272ZM363 249H188L97 142Q81 123 72 105T62 67Q62 53 68 42T86 24Q98 18 110 15T140 10L137 0H-118L-116 10Q-94 13 -75 22Q-57 31 -39 44T-4 73T28 105T57 136L511
657H581L467 196Q456 150 450 119T444 71Q444 50 453 39T479 19Q488 15 500 13T520 10L518 0H213L216 10Q224 11 233 13T250 17Q284 28 304 58Q318 81 329 118T352 203L363 249ZM622 706Q590 714 568 719T528 730T495 739T465 748Q436 756 418 768T400 802Q400
820 411 832T440 844Q457 844 467 838T500 816Q513 807 526 797T554 774T586 748T627 715L622 706Z" />
<glyph unicode="&#xc1;" glyph-name="Aacute" horiz-adv-x="592" d="M209 272H368L431 524H426L209 272ZM363 249H188L97 142Q81 123 72 105T62 67Q62 53 68 42T86 24Q98 18 110 15T140 10L137 0H-118L-116 10Q-94 13 -75 22Q-57 31 -39 44T-4 73T28 105T57 136L511
657H581L467 196Q456 150 450 119T444 71Q444 50 453 39T479 19Q488 15 500 13T520 10L518 0H213L216 10Q224 11 233 13T250 17Q284 28 304 58Q318 81 329 118T352 203L363 249ZM460 715Q508 751 536 774T591 816Q614 832 625 838T652 844Q670 844 681 833T692
803Q692 783 676 771T634 750Q620 745 605 741T569 732T524 721T465 707L460 715Z" />
<glyph unicode="&#xc2;" glyph-name="Acircumflex" horiz-adv-x="592" d="M209 272H368L431 524H426L209 272ZM363 249H188L97 142Q81 123 72 105T62 67Q62 53 68 42T86 24Q98 18 110 15T140 10L137 0H-118L-116 10Q-94 13 -75 22Q-57 31 -39 44T-4 73T28 105T57
136L511 657H581L467 196Q456 150 450 119T444 71Q444 50 453 39T479 19Q488 15 500 13T520 10L518 0H213L216 10Q224 11 233 13T250 17Q284 28 304 58Q318 81 329 118T352 203L363 249ZM655 707L565 777L420 707L415 715Q420 719 431 729T457 753T486 780T515
807T538 828T550 839H599Q601 834 610 817T631 778T651 739T664 714L655 707Z" />
<glyph unicode="&#xc3;" glyph-name="Atilde" horiz-adv-x="592" d="M209 272H368L431 524H426L209 272ZM363 249H188L97 142Q81 123 72 105T62 67Q62 53 68 42T86 24Q98 18 110 15T140 10L137 0H-118L-116 10Q-94 13 -75 22Q-57 31 -39 44T-4 73T28 105T57 136L511
657H581L467 196Q456 150 450 119T444 71Q444 50 453 39T479 19Q488 15 500 13T520 10L518 0H213L216 10Q224 11 233 13T250 17Q284 28 304 58Q318 81 329 118T352 203L363 249ZM711 823Q696 780 669 751T601 722Q584 722 568 726T537 736T506 746T476 751Q458
751 438 742T401 710L391 713Q410 759 441 786T510 814Q525 814 539 810T567 801T596 791T625 787Q649 787 666 794T701 826L711 823Z" />
<glyph unicode="&#xc4;" glyph-name="Adieresis" horiz-adv-x="592" d="M209 272H368L431 524H426L209 272ZM363 249H188L97 142Q81 123 72 105T62 67Q62 53 68 42T86 24Q98 18 110 15T140 10L137 0H-118L-116 10Q-94 13 -75 22Q-57 31 -39 44T-4 73T28 105T57
136L511 657H581L467 196Q456 150 450 119T444 71Q444 50 453 39T479 19Q488 15 500 13T520 10L518 0H213L216 10Q224 11 233 13T250 17Q284 28 304 58Q318 81 329 118T352 203L363 249ZM385 775Q385 798 401 815T441 832Q466 832 482 816T498 776Q498 753 482
736T441 719Q418 719 402 735T385 775ZM600 775Q600 798 616 815T656 832Q680 832 696 816T712 776Q712 753 696 736T656 719Q632 719 616 735T600 775Z" />
<glyph unicode="&#xc5;" glyph-name="Aring" horiz-adv-x="592" d="M209 272H368L431 524H426L209 272ZM363 249H188L97 142Q81 123 72 105T62 67Q62 53 68 42T86 24Q98 18 110 15T140 10L137 0H-118L-116 10Q-94 13 -75 22Q-57 31 -39 44T-4 73T28 105T57 136L511
657H581L467 196Q456 150 450 119T444 71Q444 50 453 39T479 19Q488 15 500 13T520 10L518 0H213L216 10Q224 11 233 13T250 17Q284 28 304 58Q318 81 329 118T352 203L363 249ZM648 784Q648 746 624 724T567 702Q537 702 512 723T486 784Q486 824 511 845T567
867Q582 867 596 862T622 846T641 820T648 784ZM624 784Q624 815 607 830T567 846Q544 846 528 831T511 784Q511 754 527 739T567 723Q590 723 607 738T624 784Z" />
<glyph unicode="&#xc6;" glyph-name="AE" horiz-adv-x="860" d="M471 608H465Q464 606 444 582T395 523T331 446T266 368T214 305T188 274H390L471 608ZM846 457H835Q829 495 816 529T785 589Q774 606 752 620T690 635H669Q638 635 617 620Q606 611 594 595T572
538L526 352H548Q591 352 613 358T654 378Q677 398 694 426T720 478H730L661 201H651Q654 226 651 255T636 300Q627 313 608 321T547 329H520L480 170Q472 136 468 116T464 79Q464 52 476 40Q494 22 536 22H560Q599 22 632 39T692 77Q733 110 763 148T810 215H820L751
0H225L228 10Q236 11 247 13T267 17Q283 22 297 32T322 58Q337 81 348 118T372 203L384 249H168Q166 247 153 230T122 193Q103 170 79 142Q64 123 55 103T46 67Q46 53 52 42T70 24Q82 18 94 15T124 10L121 0H-135L-133 10Q-109 18 -88 30Q-53 51 -21 80T34 136L444
623Q439 627 430 631T411 638T392 644T380 647L382 657H848L846 457Z" />
<glyph unicode="&#xc7;" glyph-name="Ccedilla" horiz-adv-x="569" d="M284 -99Q284 -120 274 -135T246 -160T205 -176T155 -181Q134 -181 114 -175T82 -160L90 -149Q100 -154 115 -158T147 -162Q182 -162 204 -149T226 -100Q226 -79 216 -69T190 -59Q172 -59
160 -70L145 -63L177 -3Q164 1 152 7Q109 28 82 62T42 142T29 235Q29 325 60 404T145 542T267 636T411 670Q441 670 464 664T504 648T532 627T552 603H556L599 647H610L551 416H539Q543 534 507 590T409 647Q373 647 343 630T290 589Q269 569 245 530T198 437T162
322T147 194Q147 99 193 53Q210 36 230 30T273 23Q316 23 353 40T420 86T474 148T514 217L530 208Q513 169 487 130T425 58T348 6T257 -14Q224 -14 196 -8L174 -50Q182 -44 194 -41T217 -38Q252 -38 268 -55T284 -99Z" />
<glyph unicode="&#xc8;" glyph-name="Egrave" horiz-adv-x="587" d="M459 706Q427 714 405 719T365 730T332 739T302 748Q273 756 255 768T237 802Q237 820 248 832T277 844Q294 844 304 838T337 816Q350 807 363 797T391 774T423 748T464 715L459 706ZM574 457H563Q556
495 543 529T513 589Q501 605 480 620T418 635H391Q346 635 326 609T294 538L248 352H276Q319 352 341 358T381 378Q404 398 421 426T447 478H458L389 201H378Q381 226 378 255T363 300Q354 313 335 321T274 329H242L203 170Q193 133 190 110T189 71Q192 42 209
32T258 22H287Q327 22 360 39T419 77Q460 110 489 148T536 215H548L478 0H-53L-50 10Q-42 11 -31 13T-11 17Q6 22 20 32T45 58Q59 81 70 118T94 203L159 466Q170 512 176 540T182 586Q182 607 173 619T147 638Q138 642 126 644T106 647L108 657H576L574 457Z" />
<glyph unicode="&#xc9;" glyph-name="Eacute" horiz-adv-x="587" d="M300 715Q348 751 376 774T431 816Q454 832 465 838T492 844Q510 844 521 833T532 803Q532 783 516 771T474 750Q460 745 445 741T409 732T364 721T305 707L300 715ZM574 457H563Q556 495 543
529T513 589Q501 605 480 620T418 635H391Q346 635 326 609T294 538L248 352H276Q319 352 341 358T381 378Q404 398 421 426T447 478H458L389 201H378Q381 226 378 255T363 300Q354 313 335 321T274 329H242L203 170Q193 133 190 110T189 71Q192 42 209 32T258
22H287Q327 22 360 39T419 77Q460 110 489 148T536 215H548L478 0H-53L-50 10Q-42 11 -31 13T-11 17Q6 22 20 32T45 58Q59 81 70 118T94 203L159 466Q170 512 176 540T182 586Q182 607 173 619T147 638Q138 642 126 644T106 647L108 657H576L574 457Z" />
<glyph unicode="&#xca;" glyph-name="Ecircumflex" horiz-adv-x="587" d="M492 707L402 777L257 707L252 715Q257 719 268 729T294 753T323 780T352 807T375 828T387 839H436Q438 834 447 817T468 778T488 739T501 714L492 707ZM574 457H563Q556 495 543 529T513
589Q501 605 480 620T418 635H391Q346 635 326 609T294 538L248 352H276Q319 352 341 358T381 378Q404 398 421 426T447 478H458L389 201H378Q381 226 378 255T363 300Q354 313 335 321T274 329H242L203 170Q193 133 190 110T189 71Q192 42 209 32T258 22H287Q327
22 360 39T419 77Q460 110 489 148T536 215H548L478 0H-53L-50 10Q-42 11 -31 13T-11 17Q6 22 20 32T45 58Q59 81 70 118T94 203L159 466Q170 512 176 540T182 586Q182 607 173 619T147 638Q138 642 126 644T106 647L108 657H576L574 457Z" />
<glyph unicode="&#xcb;" glyph-name="Edieresis" horiz-adv-x="587" d="M574 457H563Q556 495 543 529T513 589Q501 605 480 620T418 635H391Q346 635 326 609T294 538L248 352H276Q319 352 341 358T381 378Q404 398 421 426T447 478H458L389 201H378Q381 226
378 255T363 300Q354 313 335 321T274 329H242L203 170Q193 133 190 110T189 71Q192 42 209 32T258 22H287Q327 22 360 39T419 77Q460 110 489 148T536 215H548L478 0H-53L-50 10Q-42 11 -31 13T-11 17Q6 22 20 32T45 58Q59 81 70 118T94 203L159 466Q170 512 176
540T182 586Q182 607 173 619T147 638Q138 642 126 644T106 647L108 657H576L574 457ZM225 775Q225 798 241 815T281 832Q306 832 322 816T338 776Q338 753 322 736T281 719Q258 719 242 735T225 775ZM440 775Q440 798 456 815T496 832Q520 832 536 816T552 776Q552
753 536 736T496 719Q472 719 456 735T440 775Z" />
<glyph unicode="&#xcc;" glyph-name="Igrave" horiz-adv-x="345" d="M417 647Q408 646 397 644T377 640Q360 635 345 625T320 598Q305 575 295 539T272 455L209 195Q198 149 192 119T185 71Q185 50 194 38T220 19Q230 15 242 13T262 10L259 0H-53L-51 10Q-42 11
-31 13T-11 17Q5 22 19 32T44 58Q59 81 71 117T94 202L158 462Q169 508 175 538T181 586Q181 607 172 619T146 638Q136 642 124 644T104 647L107 657H419L417 647ZM616 706Q584 714 562 719T522 730T489 739T459 748Q430 756 412 768T394 802Q394 820 405 832T434
844Q451 844 461 838T494 816Q507 807 520 797T548 774T580 748T621 715L616 706Z" />
<glyph unicode="&#xcd;" glyph-name="Iacute" horiz-adv-x="345" d="M417 647Q408 646 397 644T377 640Q360 635 345 625T320 598Q305 575 295 539T272 455L209 195Q198 149 192 119T185 71Q185 50 194 38T220 19Q230 15 242 13T262 10L259 0H-53L-51 10Q-42 11
-31 13T-11 17Q5 22 19 32T44 58Q59 81 71 117T94 202L158 462Q169 508 175 538T181 586Q181 607 172 619T146 638Q136 642 124 644T104 647L107 657H419L417 647ZM197 715Q245 751 273 774T328 816Q351 832 362 838T389 844Q407 844 418 833T429 803Q429 783 413
771T371 750Q357 745 342 741T306 732T261 721T202 707L197 715Z" />
<glyph unicode="&#xce;" glyph-name="Icircumflex" horiz-adv-x="345" d="M417 647Q408 646 397 644T377 640Q360 635 345 625T320 598Q305 575 295 539T272 455L209 195Q198 149 192 119T185 71Q185 50 194 38T220 19Q230 15 242 13T262 10L259 0H-53L-51 10Q-42
11 -31 13T-11 17Q5 22 19 32T44 58Q59 81 71 117T94 202L158 462Q169 508 175 538T181 586Q181 607 172 619T146 638Q136 642 124 644T104 647L107 657H419L417 647ZM390 707L300 777L155 707L150 715Q155 719 166 729T192 753T221 780T250 807T273 828T285 839H334Q336
834 345 817T366 778T386 739T399 714L390 707Z" />
<glyph unicode="&#xcf;" glyph-name="Idieresis" horiz-adv-x="345" d="M417 647Q408 646 397 644T377 640Q360 635 345 625T320 598Q305 575 295 539T272 455L209 195Q198 149 192 119T185 71Q185 50 194 38T220 19Q230 15 242 13T262 10L259 0H-53L-51 10Q-42
11 -31 13T-11 17Q5 22 19 32T44 58Q59 81 71 117T94 202L158 462Q169 508 175 538T181 586Q181 607 172 619T146 638Q136 642 124 644T104 647L107 657H419L417 647ZM380 775Q380 798 396 815T436 832Q461 832 477 816T493 776Q493 753 477 736T436 719Q413 719
397 735T380 775ZM595 775Q595 798 611 815T651 832Q675 832 691 816T707 776Q707 753 691 736T651 719Q627 719 611 735T595 775Z" />
<glyph unicode="&#xd0;" glyph-name="Eth" horiz-adv-x="679" d="M33 324L40 350H131L160 466Q171 512 176 540T182 586Q182 607 173 618T147 638Q138 642 126 644T106 647L109 657H403Q469 657 518 636T600 581T649 501T666 407Q666 292 618 207T486 64Q444 35
392 18T279 0H-52L-50 10Q-42 11 -31 13T-11 17Q6 22 20 32T45 58Q60 81 71 118T94 203L124 324H33ZM546 453Q546 472 544 493T537 534T525 571T508 599Q490 620 464 627T399 634H367Q332 634 319 611T298 553L247 350H388L382 324H241L203 170Q195 136 191 117T186
80Q186 54 199 39Q216 22 256 22H281Q295 22 313 25T350 36T390 58T430 93Q452 118 473 153T510 234T536 333T546 453Z" />
<glyph unicode="&#xd1;" glyph-name="Ntilde" horiz-adv-x="648" d="M604 823Q589 780 562 751T494 722Q477 722 461 726T430 736T399 746T369 751Q351 751 331 742T294 710L284 713Q303 759 334 786T403 814Q418 814 432 810T460 801T489 791T518 787Q542 787
559 794T594 826L604 823ZM716 647Q709 645 701 644T685 640Q671 636 659 628T635 605Q626 593 615 566T590 486L467 -8H442L206 521H201L113 170Q106 142 103 117T100 77Q100 51 110 36T138 16Q146 14 156 13T177 10L174 0H-53L-51 10Q-43 11 -33 12T-15 17Q14
25 36 54Q47 67 61 95T87 172L161 464Q166 486 169 501T175 528T178 550T179 571Q179 592 165 611T129 639Q121 641 110 643T91 647L93 657H284L487 189H490L561 478Q570 514 574 539T578 578Q578 603 566 618T536 640Q529 643 519 644T497 647L499 657H719L716
647Z" />
<glyph unicode="&#xd2;" glyph-name="Ograve" horiz-adv-x="631" d="M495 706Q463 714 441 719T401 730T368 739T338 748Q309 756 291 768T273 802Q273 820 284 832T313 844Q330 844 340 838T373 816Q386 807 399 797T427 774T459 748T500 715L495 706ZM619 414Q619
369 609 321T578 228T530 141T465 70Q418 31 365 9T254 -14Q207 -14 166 2T95 51T47 132T29 242Q29 287 39 335T70 428T118 515T183 586Q230 626 282 648T393 670Q440 670 481 654T553 605T601 524T619 414ZM503 494Q503 536 495 565T471 612T436 639T393 648Q358
648 329 629T279 587Q261 567 238 524T194 423T159 298T145 162Q145 79 177 44T255 8Q290 8 319 27T369 70Q387 89 410 132T454 233T489 358T503 494Z" />
<glyph unicode="&#xd3;" glyph-name="Oacute" horiz-adv-x="631" d="M335 715Q383 751 411 774T466 816Q489 832 500 838T527 844Q545 844 556 833T567 803Q567 783 551 771T509 750Q495 745 480 741T444 732T399 721T340 707L335 715ZM619 414Q619 369 609 321T578
228T530 141T465 70Q418 31 365 9T254 -14Q207 -14 166 2T95 51T47 132T29 242Q29 287 39 335T70 428T118 515T183 586Q230 626 282 648T393 670Q440 670 481 654T553 605T601 524T619 414ZM503 494Q503 536 495 565T471 612T436 639T393 648Q358 648 329 629T279
587Q261 567 238 524T194 423T159 298T145 162Q145 79 177 44T255 8Q290 8 319 27T369 70Q387 89 410 132T454 233T489 358T503 494Z" />
<glyph unicode="&#xd4;" glyph-name="Ocircumflex" horiz-adv-x="631" d="M527 707L437 777L292 707L287 715Q292 719 303 729T329 753T358 780T387 807T410 828T422 839H471Q473 834 482 817T503 778T523 739T536 714L527 707ZM619 414Q619 369 609 321T578 228T530
141T465 70Q418 31 365 9T254 -14Q207 -14 166 2T95 51T47 132T29 242Q29 287 39 335T70 428T118 515T183 586Q230 626 282 648T393 670Q440 670 481 654T553 605T601 524T619 414ZM503 494Q503 536 495 565T471 612T436 639T393 648Q358 648 329 629T279 587Q261
567 238 524T194 423T159 298T145 162Q145 79 177 44T255 8Q290 8 319 27T369 70Q387 89 410 132T454 233T489 358T503 494Z" />
<glyph unicode="&#xd5;" glyph-name="Otilde" horiz-adv-x="631" d="M585 823Q570 780 543 751T475 722Q458 722 442 726T411 736T380 746T350 751Q332 751 312 742T275 710L265 713Q284 759 315 786T384 814Q399 814 413 810T441 801T470 791T499 787Q523 787
540 794T575 826L585 823ZM619 414Q619 369 609 321T578 228T530 141T465 70Q418 31 365 9T254 -14Q207 -14 166 2T95 51T47 132T29 242Q29 287 39 335T70 428T118 515T183 586Q230 626 282 648T393 670Q440 670 481 654T553 605T601 524T619 414ZM503 494Q503
536 495 565T471 612T436 639T393 648Q358 648 329 629T279 587Q261 567 238 524T194 423T159 298T145 162Q145 79 177 44T255 8Q290 8 319 27T369 70Q387 89 410 132T454 233T489 358T503 494Z" />
<glyph unicode="&#xd6;" glyph-name="Odieresis" horiz-adv-x="631" d="M259 775Q259 798 275 815T315 832Q340 832 356 816T372 776Q372 753 356 736T315 719Q292 719 276 735T259 775ZM474 775Q474 798 490 815T530 832Q554 832 570 816T586 776Q586 753 570
736T530 719Q506 719 490 735T474 775ZM619 414Q619 369 609 321T578 228T530 141T465 70Q418 31 365 9T254 -14Q207 -14 166 2T95 51T47 132T29 242Q29 287 39 335T70 428T118 515T183 586Q230 626 282 648T393 670Q440 670 481 654T553 605T601 524T619 414ZM503
494Q503 536 495 565T471 612T436 639T393 648Q358 648 329 629T279 587Q261 567 238 524T194 423T159 298T145 162Q145 79 177 44T255 8Q290 8 319 27T369 70Q387 89 410 132T454 233T489 358T503 494Z" />
<glyph unicode="&#xd7;" glyph-name="multiply" horiz-adv-x="436" d="M219 258L359 114L345 101L204 245L64 101L51 115L191 258L50 402L64 416L205 272L345 416L359 402L219 258Z" />
<glyph unicode="&#xd8;" glyph-name="Oslash" horiz-adv-x="631" d="M619 414Q619 369 609 322T578 228T530 142T465 71Q418 31 366 9T254 -14Q208 -14 168 1L135 -65L115 -56L148 10Q118 26 94 51Q64 84 47 132T29 242Q29 286 39 333T68 426T115 512T178 583Q226
624 279 647T393 670Q435 670 472 657L502 717L522 707L492 648Q526 632 553 604Q584 572 601 524T619 414ZM503 494Q503 536 494 565Q486 592 473 609L185 35Q214 8 255 8Q290 8 319 27T369 70Q387 89 410 132T454 233T489 358T503 494ZM436 639Q416 648 393 648Q358
648 329 629T279 587Q261 567 238 524T194 423T159 298T145 162Q145 89 169 53L457 627Q447 634 436 639Z" />
<glyph unicode="&#xd9;" glyph-name="Ugrave" horiz-adv-x="654" d="M537 706Q505 714 483 719T443 730T410 739T380 748Q351 756 333 768T315 802Q315 820 326 832T355 844Q372 844 382 838T415 816Q428 807 441 797T469 774T501 748T542 715L537 706ZM732 647Q725
645 717 644T701 640Q687 636 676 628T652 604Q642 592 630 561T605 478L539 214Q525 158 504 115T452 44T379 1T280 -14Q180 -14 124 32T67 170Q67 179 68 193T73 223T79 257T87 290L129 461Q140 507 146 538T152 586Q152 607 143 618T117 638Q107 642 96 644T76
647L79 657H384L381 647Q373 646 364 644T347 640Q331 635 316 625T291 598Q277 576 267 542T244 458L187 218Q182 195 179 171T175 123Q175 72 206 43T295 13Q345 13 381 27T442 68T483 131T512 215L577 477Q586 513 589 538T593 578Q593 603 581 617T551 639Q544
642 534 644T512 647L515 657H735L732 647Z" />
<glyph unicode="&#xda;" glyph-name="Uacute" horiz-adv-x="654" d="M369 715Q417 751 445 774T500 816Q523 832 534 838T561 844Q579 844 590 833T601 803Q601 783 585 771T543 750Q529 745 514 741T478 732T433 721T374 707L369 715ZM732 647Q725 645 717 644T701
640Q687 636 676 628T652 604Q642 592 630 561T605 478L539 214Q525 158 504 115T452 44T379 1T280 -14Q180 -14 124 32T67 170Q67 179 68 193T73 223T79 257T87 290L129 461Q140 507 146 538T152 586Q152 607 143 618T117 638Q107 642 96 644T76 647L79 657H384L381
647Q373 646 364 644T347 640Q331 635 316 625T291 598Q277 576 267 542T244 458L187 218Q182 195 179 171T175 123Q175 72 206 43T295 13Q345 13 381 27T442 68T483 131T512 215L577 477Q586 513 589 538T593 578Q593 603 581 617T551 639Q544 642 534 644T512
647L515 657H735L732 647Z" />
<glyph unicode="&#xdb;" glyph-name="Ucircumflex" horiz-adv-x="654" d="M564 707L474 777L329 707L324 715Q329 719 340 729T366 753T395 780T424 807T447 828T459 839H508Q510 834 519 817T540 778T560 739T573 714L564 707ZM732 647Q725 645 717 644T701 640Q687
636 676 628T652 604Q642 592 630 561T605 478L539 214Q525 158 504 115T452 44T379 1T280 -14Q180 -14 124 32T67 170Q67 179 68 193T73 223T79 257T87 290L129 461Q140 507 146 538T152 586Q152 607 143 618T117 638Q107 642 96 644T76 647L79 657H384L381 647Q373
646 364 644T347 640Q331 635 316 625T291 598Q277 576 267 542T244 458L187 218Q182 195 179 171T175 123Q175 72 206 43T295 13Q345 13 381 27T442 68T483 131T512 215L577 477Q586 513 589 538T593 578Q593 603 581 617T551 639Q544 642 534 644T512 647L515
657H735L732 647Z" />
<glyph unicode="&#xdc;" glyph-name="Udieresis" horiz-adv-x="654" d="M732 647Q725 645 717 644T701 640Q687 636 676 628T652 604Q642 592 630 561T605 478L539 214Q525 158 504 115T452 44T379 1T280 -14Q180 -14 124 32T67 170Q67 179 68 193T73 223T79 257T87
290L129 461Q140 507 146 538T152 586Q152 607 143 618T117 638Q107 642 96 644T76 647L79 657H384L381 647Q373 646 364 644T347 640Q331 635 316 625T291 598Q277 576 267 542T244 458L187 218Q182 195 179 171T175 123Q175 72 206 43T295 13Q345 13 381 27T442
68T483 131T512 215L577 477Q586 513 589 538T593 578Q593 603 581 617T551 639Q544 642 534 644T512 647L515 657H735L732 647ZM296 775Q296 798 312 815T352 832Q377 832 393 816T409 776Q409 753 393 736T352 719Q329 719 313 735T296 775ZM511 775Q511 798
527 815T567 832Q591 832 607 816T623 776Q623 753 607 736T567 719Q543 719 527 735T511 775Z" />
<glyph unicode="&#xdd;" glyph-name="Yacute" horiz-adv-x="525" d="M658 647Q649 645 636 642T612 634Q598 628 584 620T554 598T519 560T473 500L317 280L297 196Q286 150 280 119T274 71Q274 50 283 39T309 19Q318 15 330 13T350 10L348 0H36L38 10Q47 11 58
13T77 17Q94 22 108 32T133 58Q148 82 159 118T182 203L200 281L124 559Q117 584 108 600T88 625T63 639T33 647L35 657H319L317 647Q309 646 297 644T276 638Q265 633 255 623T244 593Q244 578 249 560T260 520L312 320H317L452 508Q476 541 486 564T497 607Q497
631 475 640Q468 643 461 644T445 647L448 657H661L658 647ZM306 715Q354 751 382 774T437 816Q460 832 471 838T498 844Q516 844 527 833T538 803Q538 783 522 771T480 750Q466 745 451 741T415 732T370 721T311 707L306 715Z" />
<glyph unicode="&#xde;" glyph-name="Thorn" horiz-adv-x="563" d="M202 169Q199 158 196 145T191 118T187 92T185 71Q185 49 194 39T220 20Q240 12 257 10L255 0H-53L-51 10Q-42 11 -31 13T-11 17Q6 22 20 32T44 58Q59 82 70 118T94 203L158 461Q169 507 175
538T181 586Q181 607 172 618T146 638Q136 642 124 644T104 647L106 657H412L410 647Q402 646 393 644T376 640Q359 635 344 625T319 599Q306 576 299 552T287 513H356Q411 513 449 502T512 473T546 428T557 372Q557 317 526 275T440 204Q425 196 408 190T368 179T319
172T255 169H202ZM383 238Q409 266 424 312T440 407Q440 447 418 468T351 490H334Q318 490 307 486T286 470Q278 461 273 446T260 405L207 191H260Q309 191 337 205T383 238Z" />
<glyph unicode="&#xdf;" glyph-name="germandbls" horiz-adv-x="505" d="M518 579Q518 556 505 536T473 499T431 465T389 432T356 397T343 358Q343 332 361 309T404 256Q422 233 434 215T455 182T467 154T471 125Q471 93 459 69T426 27T379 0T324 -9Q299 -9 277
-3T237 17T209 47T199 88Q199 114 212 129T245 145Q263 145 274 135T287 106Q287 86 279 75T271 48Q272 27 289 18T326 8Q359 8 374 27T389 79Q389 92 386 103T374 126T354 153T324 191Q303 218 291 242T278 295Q278 325 290 349T322 393T363 432T404 472T435 518T448
576Q448 630 428 651T376 673Q353 673 330 660T293 625Q269 588 253 537T221 426Q203 357 182 283T135 137T79 1T12 -112T-66 -189T-157 -218Q-178 -218 -196 -213T-229 -198T-251 -173T-260 -139Q-260 -113 -246 -102T-215 -91Q-194 -91 -184 -103T-171 -131Q-170
-144 -172 -154T-172 -175Q-171 -186 -164 -190T-146 -195Q-99 -195 -65 -143Q-43 -111 -22 -56T20 73T65 236T113 426Q132 499 162 549T228 630T301 675T374 689Q441 689 479 660T518 579Z" />
<glyph unicode="&#xe0;" glyph-name="agrave" horiz-adv-x="469" d="M312 350Q312 383 303 401T273 419Q250 419 231 403T190 351Q173 323 158 286T132 212T113 141T106 88Q106 57 116 45T140 32Q154 32 168 42T198 69Q213 87 225 104T249 146Q262 171 273 200T293
256T307 308T312 350ZM336 62Q336 39 354 39Q367 39 380 47T408 68T435 97T459 131L471 124Q457 100 439 76T399 33T353 3T301 -9Q276 -9 259 6T242 56Q242 67 245 82T252 109H248Q235 86 223 70T196 37Q150 -9 103 -9Q85 -9 68 -3T38 17T16 55T8 114Q8 161 30
217T88 323T172 405T268 438Q297 438 312 422T332 380H335Q342 393 347 404T360 429H445Q433 391 416 338T379 226Q358 163 347 121T336 62ZM230 665Q249 665 261 656T292 625Q311 602 330 578T381 513L375 506Q346 519 315 533T255 561Q232 572 212 588T192 625Q192
642 202 653T230 665Z" />
<glyph unicode="&#xe1;" glyph-name="aacute" horiz-adv-x="469" d="M312 350Q312 383 303 401T273 419Q250 419 231 403T190 351Q173 323 158 286T132 212T113 141T106 88Q106 57 116 45T140 32Q154 32 168 42T198 69Q213 87 225 104T249 146Q262 171 273 200T293
256T307 308T312 350ZM336 62Q336 39 354 39Q367 39 380 47T408 68T435 97T459 131L471 124Q457 100 439 76T399 33T353 3T301 -9Q276 -9 259 6T242 56Q242 67 245 82T252 109H248Q235 86 223 70T196 37Q150 -9 103 -9Q85 -9 68 -3T38 17T16 55T8 114Q8 161 30
217T88 323T172 405T268 438Q297 438 312 422T332 380H335Q342 393 347 404T360 429H445Q433 391 416 338T379 226Q358 163 347 121T336 62ZM452 625Q452 603 438 591T397 566Q369 553 333 540T242 504L237 512Q258 533 273 549T300 577T324 600T347 622Q369 644
384 653T413 662Q452 662 452 625Z" />
<glyph unicode="&#xe2;" glyph-name="acircumflex" horiz-adv-x="469" d="M312 350Q312 383 303 401T273 419Q250 419 231 403T190 351Q173 323 158 286T132 212T113 141T106 88Q106 57 116 45T140 32Q154 32 168 42T198 69Q213 87 225 104T249 146Q262 171 273
200T293 256T307 308T312 350ZM336 62Q336 39 354 39Q367 39 380 47T408 68T435 97T459 131L471 124Q457 100 439 76T399 33T353 3T301 -9Q276 -9 259 6T242 56Q242 67 245 82T252 109H248Q235 86 223 70T196 37Q150 -9 103 -9Q85 -9 68 -3T38 17T16 55T8 114Q8
161 30 217T88 323T172 405T268 438Q297 438 312 422T332 380H335Q342 393 347 404T360 429H445Q433 391 416 338T379 226Q358 163 347 121T336 62ZM417 501L323 594L174 501L167 509Q189 532 211 555T253 600T289 639T315 668H364Q368 656 375 638T390 599T408
554T427 507L417 501Z" />
<glyph unicode="&#xe3;" glyph-name="atilde" horiz-adv-x="469" d="M312 350Q312 383 303 401T273 419Q250 419 231 403T190 351Q173 323 158 286T132 212T113 141T106 88Q106 57 116 45T140 32Q154 32 168 42T198 69Q213 87 225 104T249 146Q262 171 273 200T293
256T307 308T312 350ZM336 62Q336 39 354 39Q367 39 380 47T408 68T435 97T459 131L471 124Q457 100 439 76T399 33T353 3T301 -9Q276 -9 259 6T242 56Q242 67 245 82T252 109H248Q235 86 223 70T196 37Q150 -9 103 -9Q85 -9 68 -3T38 17T16 55T8 114Q8 161 30
217T88 323T172 405T268 438Q297 438 312 422T332 380H335Q342 393 347 404T360 429H445Q433 391 416 338T379 226Q358 163 347 121T336 62ZM466 632Q450 588 424 560T358 531Q341 531 325 535T294 545T263 555T233 560Q215 560 195 550T158 517L148 521Q167 566
197 594T267 623Q282 623 296 619T324 610T352 601T381 597Q406 597 422 604T456 635L466 632Z" />
<glyph unicode="&#xe4;" glyph-name="adieresis" horiz-adv-x="469" d="M312 350Q312 383 303 401T273 419Q250 419 231 403T190 351Q173 323 158 286T132 212T113 141T106 88Q106 57 116 45T140 32Q154 32 168 42T198 69Q213 87 225 104T249 146Q262 171 273
200T293 256T307 308T312 350ZM336 62Q336 39 354 39Q367 39 380 47T408 68T435 97T459 131L471 124Q457 100 439 76T399 33T353 3T301 -9Q276 -9 259 6T242 56Q242 67 245 82T252 109H248Q235 86 223 70T196 37Q150 -9 103 -9Q85 -9 68 -3T38 17T16 55T8 114Q8
161 30 217T88 323T172 405T268 438Q297 438 312 422T332 380H335Q342 393 347 404T360 429H445Q433 391 416 338T379 226Q358 163 347 121T336 62ZM179 590Q179 612 194 627T231 643Q254 643 269 628T284 592Q284 570 269 555T231 539Q209 539 194 554T179 590ZM339
590Q339 612 353 627T390 643Q413 643 428 628T443 592Q443 570 428 555T390 539Q368 539 354 554T339 590Z" />
<glyph unicode="&#xe5;" glyph-name="aring" horiz-adv-x="469" d="M312 350Q312 383 303 401T273 419Q250 419 231 403T190 351Q173 323 158 286T132 212T113 141T106 88Q106 57 116 45T140 32Q154 32 168 42T198 69Q213 87 225 104T249 146Q262 171 273 200T293
256T307 308T312 350ZM336 62Q336 39 354 39Q367 39 380 47T408 68T435 97T459 131L471 124Q457 100 439 76T399 33T353 3T301 -9Q276 -9 259 6T242 56Q242 67 245 82T252 109H248Q235 86 223 70T196 37Q150 -9 103 -9Q85 -9 68 -3T38 17T16 55T8 114Q8 161 30
217T88 323T172 405T268 438Q297 438 312 422T332 380H335Q342 393 347 404T360 429H445Q433 391 416 338T379 226Q358 163 347 121T336 62ZM387 591Q387 552 363 530T306 508Q276 508 251 529T226 591Q226 630 251 651T306 673Q336 673 361 652T387 591ZM363 590Q363
621 346 637T306 653Q283 653 267 637T250 591Q250 561 266 545T306 529Q329 529 346 544T363 590Z" />
<glyph unicode="&#xe6;" glyph-name="ae" horiz-adv-x="628" d="M626 365Q626 345 615 326T584 290Q570 278 548 266T500 241T444 217T388 198Q383 171 380 144T377 92Q377 58 390 41T428 23Q455 23 478 33T519 58T552 92T577 127L589 120Q575 94 556 71T512 30T459
2T395 -9Q337 -9 306 29T272 128H268Q254 96 236 70T196 27Q177 10 154 1T105 -9Q87 -9 70 -3T40 19T18 57T10 115Q10 162 32 218T90 324T174 406T270 439Q299 439 313 423T332 380H335Q342 394 347 405T360 430H423Q423 428 421 421T416 406T411 391T407 381H410Q439
408 471 423T531 439Q583 439 604 418T626 365ZM551 381Q551 399 545 409T524 420Q505 420 486 404T449 359T417 294T392 215Q408 221 425 229T459 246T490 264T513 283Q533 303 542 332T551 381ZM314 350Q314 383 305 401T275 419Q252 419 233 403T193 352Q176
324 161 287T134 213T116 142T109 89Q109 57 119 45T147 32Q161 32 174 41T200 63Q216 80 228 98T252 142Q262 162 273 189T293 245T308 301T314 350Z" />
<glyph unicode="&#xe7;" glyph-name="ccedilla" horiz-adv-x="372" d="M199 -99Q199 -120 189 -135T161 -160T120 -176T70 -181Q49 -181 29 -175T-3 -160L5 -149Q15 -154 30 -158T62 -162Q97 -162 119 -149T141 -100Q141 -79 131 -69T105 -59Q87 -59 75 -70L60
-63L92 -2Q87 0 81 2Q59 13 44 32T20 78T12 135Q12 171 21 205T46 270T83 327T127 374Q163 406 202 422T272 438Q317 438 345 417T373 357Q373 337 362 322T327 306Q305 306 295 318T284 348Q284 354 286 361T290 374Q292 382 294 388T297 400Q297 420 269 420Q232
420 199 370Q182 346 167 313T139 244T120 171T113 100Q113 63 130 44T176 25Q199 25 220 35T259 60T291 93T315 127L327 120Q313 93 294 70T250 29T197 1T133 -9Q121 -9 111 -7L89 -50Q97 -44 109 -41T132 -38Q167 -38 183 -55T199 -99Z" />
<glyph unicode="&#xe8;" glyph-name="egrave" horiz-adv-x="364" d="M325 120Q311 94 292 71T249 30T195 2T130 -9Q102 -9 80 2T43 32T19 79T11 137Q11 210 45 269T131 375Q166 406 201 422T266 438Q320 438 341 418T362 365Q362 345 351 326T320 290Q306 278
284 266T236 241T181 217T124 198Q112 144 112 92Q112 58 126 40T164 22Q192 22 215 32T256 58T289 92T313 127L325 120ZM128 215Q162 228 195 245T246 281Q266 302 276 331T286 380Q286 398 280 409T260 420Q240 420 220 404T183 359T152 294T128 215ZM443 665Q462
665 474 656T505 625Q524 602 543 578T594 513L588 506Q559 519 528 533T468 561Q445 572 425 588T405 625Q405 642 415 653T443 665Z" />
<glyph unicode="&#xe9;" glyph-name="eacute" horiz-adv-x="364" d="M409 625Q409 603 395 591T354 566Q326 553 290 540T199 504L194 512Q215 533 230 549T257 577T281 600T304 622Q326 644 341 653T370 662Q409 662 409 625ZM325 120Q311 94 292 71T249 30T195
2T130 -9Q102 -9 80 2T43 32T19 79T11 137Q11 210 45 269T131 375Q166 406 201 422T266 438Q320 438 341 418T362 365Q362 345 351 326T320 290Q306 278 284 266T236 241T181 217T124 198Q112 144 112 92Q112 58 126 40T164 22Q192 22 215 32T256 58T289 92T313
127L325 120ZM128 215Q162 228 195 245T246 281Q266 302 276 331T286 380Q286 398 280 409T260 420Q240 420 220 404T183 359T152 294T128 215Z" />
<glyph unicode="&#xea;" glyph-name="ecircumflex" horiz-adv-x="364" d="M374 501L280 594L131 501L124 509Q146 532 168 555T210 600T246 639T272 668H321Q325 656 332 638T347 599T365 554T384 507L374 501ZM325 120Q311 94 292 71T249 30T195 2T130 -9Q102
-9 80 2T43 32T19 79T11 137Q11 210 45 269T131 375Q166 406 201 422T266 438Q320 438 341 418T362 365Q362 345 351 326T320 290Q306 278 284 266T236 241T181 217T124 198Q112 144 112 92Q112 58 126 40T164 22Q192 22 215 32T256 58T289 92T313 127L325 120ZM128
215Q162 228 195 245T246 281Q266 302 276 331T286 380Q286 398 280 409T260 420Q240 420 220 404T183 359T152 294T128 215Z" />
<glyph unicode="&#xeb;" glyph-name="edieresis" horiz-adv-x="364" d="M137 590Q137 612 152 627T189 643Q212 643 227 628T242 592Q242 570 227 555T189 539Q167 539 152 554T137 590ZM297 590Q297 612 311 627T348 643Q371 643 386 628T401 592Q401 570 386
555T348 539Q326 539 312 554T297 590ZM325 120Q311 94 292 71T249 30T195 2T130 -9Q102 -9 80 2T43 32T19 79T11 137Q11 210 45 269T131 375Q166 406 201 422T266 438Q320 438 341 418T362 365Q362 345 351 326T320 290Q306 278 284 266T236 241T181 217T124 198Q112
144 112 92Q112 58 126 40T164 22Q192 22 215 32T256 58T289 92T313 127L325 120ZM128 215Q162 228 195 245T246 281Q266 302 276 331T286 380Q286 398 280 409T260 420Q240 420 220 404T183 359T152 294T128 215Z" />
<glyph unicode="&#xec;" glyph-name="igrave" horiz-adv-x="271" d="M262 124Q248 100 229 76T186 34T136 3T82 -9Q56 -9 41 6T26 49Q26 62 31 82T45 127T63 178T82 230Q99 276 111 315T124 370Q124 395 105 395Q93 395 73 377T21 311L9 318Q26 350 46 372T87
409T128 431T166 438Q194 438 208 422T223 377Q223 355 210 313T178 217Q169 190 160 164T145 117T134 79T130 57Q130 39 144 39Q155 39 169 47T197 67T225 97T250 132L262 124ZM387 665Q406 665 418 656T449 625Q468 602 487 578T538 513L532 506Q503 519 472
533T412 561Q389 572 369 588T349 625Q349 642 359 653T387 665Z" />
<glyph unicode="&#xed;" glyph-name="iacute" horiz-adv-x="271" d="M610 625Q610 603 596 591T555 566Q527 553 491 540T400 504L395 512Q416 533 431 549T458 577T482 600T505 622Q527 644 542 653T571 662Q610 662 610 625ZM262 124Q248 100 229 76T186 34T136
3T82 -9Q56 -9 41 6T26 49Q26 62 31 82T45 127T63 178T82 230Q99 276 111 315T124 370Q124 395 105 395Q93 395 73 377T21 311L9 318Q26 350 46 372T87 409T128 431T166 438Q194 438 208 422T223 377Q223 355 210 313T178 217Q169 190 160 164T145 117T134 79T130
57Q130 39 144 39Q155 39 169 47T197 67T225 97T250 132L262 124Z" />
<glyph unicode="&#xee;" glyph-name="icircumflex" horiz-adv-x="271" d="M577 501L483 594L334 501L327 509Q349 532 371 555T413 600T449 639T475 668H524Q528 656 535 638T550 599T568 554T587 507L577 501ZM262 124Q248 100 229 76T186 34T136 3T82 -9Q56
-9 41 6T26 49Q26 62 31 82T45 127T63 178T82 230Q99 276 111 315T124 370Q124 395 105 395Q93 395 73 377T21 311L9 318Q26 350 46 372T87 409T128 431T166 438Q194 438 208 422T223 377Q223 355 210 313T178 217Q169 190 160 164T145 117T134 79T130 57Q130 39
144 39Q155 39 169 47T197 67T225 97T250 132L262 124Z" />
<glyph unicode="&#xef;" glyph-name="idieresis" horiz-adv-x="271" d="M83 590Q83 612 98 627T135 643Q158 643 173 628T188 592Q188 570 173 555T135 539Q113 539 98 554T83 590ZM243 590Q243 612 257 627T294 643Q317 643 332 628T347 592Q347 570 332 555T294
539Q272 539 258 554T243 590ZM262 124Q248 100 229 76T186 34T136 3T82 -9Q56 -9 41 6T26 49Q26 62 31 82T45 127T63 178T82 230Q99 276 111 315T124 370Q124 395 105 395Q93 395 73 377T21 311L9 318Q26 350 46 372T87 409T128 431T166 438Q194 438 208 422T223
377Q223 355 210 313T178 217Q169 190 160 164T145 117T134 79T130 57Q130 39 144 39Q155 39 169 47T197 67T225 97T250 132L262 124Z" />
<glyph unicode="&#xf0;" glyph-name="eth" horiz-adv-x="406" d="M125 550L208 589Q191 612 173 633Q149 661 125 684H139Q179 664 223 630Q236 620 248 608L343 654L339 631L263 595Q284 574 304 550Q341 505 364 449T388 328Q388 237 360 167T291 55Q262 25
223 8T142 -9Q79 -9 46 33T12 144Q12 208 35 269T103 375Q132 405 171 421T252 438Q272 438 287 428Q276 467 259 503T220 572L219 574L121 527L125 550ZM297 353Q298 421 252 421Q228 421 210 405T178 364Q164 339 150 301T125 222T106 140T98 72Q98 8 142 8Q168
8 185 25T216 66Q230 91 244 127T269 204T288 283T297 353Z" />
<glyph unicode="&#xf1;" glyph-name="ntilde" horiz-adv-x="509" d="M497 124Q483 100 463 76T420 33T370 3T317 -9Q291 -9 276 6T260 49Q260 62 265 82T279 127T297 177T316 230Q333 279 347 317T361 372Q361 385 356 389T342 394Q330 394 310 380T266 334T215
254T161 137Q148 105 136 71T112 0H12Q22 33 35 72T61 148L101 267Q114 305 119 328T124 368Q124 396 103 396Q91 396 70 378T18 311L5 318Q40 382 80 410T155 438Q185 438 198 423T212 378Q212 355 206 323T190 253H197Q250 353 298 395T390 438Q424 438 439 419T455
366Q455 337 443 301T409 204Q401 180 393 157T379 114T369 80T365 58Q365 39 378 39Q389 39 403 47T431 67T460 96T485 131L497 124ZM471 632Q455 588 429 560T363 531Q346 531 330 535T299 545T268 555T238 560Q220 560 200 550T163 517L153 521Q172 566 202
594T272 623Q287 623 301 619T329 610T357 601T386 597Q411 597 427 604T461 635L471 632Z" />
<glyph unicode="&#xf2;" glyph-name="ograve" horiz-adv-x="411" d="M146 -9Q83 -9 48 32T12 144Q10 207 34 268T102 373Q132 404 172 421T255 438Q318 438 353 396T389 281Q389 220 365 160T299 57Q268 26 229 9T146 -9ZM254 421Q230 421 213 406T182 366Q168
343 154 306T127 228T108 145T100 73Q101 42 111 25T146 8Q170 8 187 23T218 63Q232 86 246 122T272 199T292 280T300 354Q302 421 254 421ZM459 665Q478 665 490 656T521 625Q540 602 559 578T610 513L604 506Q575 519 544 533T484 561Q461 572 441 588T421 625Q421
642 431 653T459 665Z" />
<glyph unicode="&#xf3;" glyph-name="oacute" horiz-adv-x="411" d="M422 625Q422 603 408 591T367 566Q339 553 303 540T212 504L207 512Q228 533 243 549T270 577T294 600T317 622Q339 644 354 653T383 662Q422 662 422 625ZM146 -9Q83 -9 48 32T12 144Q10 207
34 268T102 373Q132 404 172 421T255 438Q318 438 353 396T389 281Q389 220 365 160T299 57Q268 26 229 9T146 -9ZM254 421Q230 421 213 406T182 366Q168 343 154 306T127 228T108 145T100 73Q101 42 111 25T146 8Q170 8 187 23T218 63Q232 86 246 122T272 199T292
280T300 354Q302 421 254 421Z" />
<glyph unicode="&#xf4;" glyph-name="ocircumflex" horiz-adv-x="411" d="M389 501L295 594L146 501L139 509Q161 532 183 555T225 600T261 639T287 668H336Q340 656 347 638T362 599T380 554T399 507L389 501ZM146 -9Q83 -9 48 32T12 144Q10 207 34 268T102 373Q132
404 172 421T255 438Q318 438 353 396T389 281Q389 220 365 160T299 57Q268 26 229 9T146 -9ZM254 421Q230 421 213 406T182 366Q168 343 154 306T127 228T108 145T100 73Q101 42 111 25T146 8Q170 8 187 23T218 63Q232 86 246 122T272 199T292 280T300 354Q302
421 254 421Z" />
<glyph unicode="&#xf5;" glyph-name="otilde" horiz-adv-x="411" d="M146 -9Q83 -9 48 32T12 144Q10 207 34 268T102 373Q132 404 172 421T255 438Q318 438 353 396T389 281Q389 220 365 160T299 57Q268 26 229 9T146 -9ZM254 421Q230 421 213 406T182 366Q168
343 154 306T127 228T108 145T100 73Q101 42 111 25T146 8Q170 8 187 23T218 63Q232 86 246 122T272 199T292 280T300 354Q302 421 254 421ZM436 632Q420 588 394 560T328 531Q311 531 295 535T264 545T233 555T203 560Q185 560 165 550T128 517L118 521Q137 566
167 594T237 623Q252 623 266 619T294 610T322 601T351 597Q376 597 392 604T426 635L436 632Z" />
<glyph unicode="&#xf6;" glyph-name="odieresis" horiz-adv-x="411" d="M151 590Q151 612 166 627T203 643Q226 643 241 628T256 592Q256 570 241 555T203 539Q181 539 166 554T151 590ZM311 590Q311 612 325 627T362 643Q385 643 400 628T415 592Q415 570 400
555T362 539Q340 539 326 554T311 590ZM146 -9Q83 -9 48 32T12 144Q10 207 34 268T102 373Q132 404 172 421T255 438Q318 438 353 396T389 281Q389 220 365 160T299 57Q268 26 229 9T146 -9ZM254 421Q230 421 213 406T182 366Q168 343 154 306T127 228T108 145T100
73Q101 42 111 25T146 8Q170 8 187 23T218 63Q232 86 246 122T272 199T292 280T300 354Q302 421 254 421Z" />
<glyph unicode="&#xf7;" glyph-name="divide" horiz-adv-x="473" d="M25 250V272H423V250H25ZM281 396Q281 368 263 354T224 340Q203 340 185 355T167 396Q167 422 185 437T224 452Q244 452 262 438T281 396ZM281 136Q281 109 263 95T224 80Q203 80 185 95T167
136Q167 161 185 176T224 192Q244 192 262 177T281 136Z" />
<glyph unicode="&#xf8;" glyph-name="oslash" horiz-adv-x="409" d="M389 281Q389 220 365 160T299 57Q268 26 229 9T146 -9Q124 -9 106 -4L77 -64L59 -54L87 2Q64 13 48 32Q13 74 12 144Q10 206 34 268T102 373Q132 404 172 421T255 438Q279 438 299 432L329
493L347 484L317 424Q338 413 353 395Q388 353 389 281ZM254 421Q230 421 213 406T182 366Q168 343 154 306T127 228T108 145T100 73Q100 53 105 39L287 407Q275 421 254 421ZM300 354Q300 371 297 383L117 17Q128 8 146 8Q170 8 187 23T218 63Q232 86 246 122T272
199T292 280T300 354Z" />
<glyph unicode="&#xf9;" glyph-name="ugrave" horiz-adv-x="513" d="M365 63Q365 51 371 44T386 37Q399 37 413 45T442 66T470 96T495 131L507 124Q493 100 474 76T432 33T384 3T332 -9Q303 -9 288 9T273 59Q273 82 278 108T294 170H287Q260 119 234 85T184 29T137
0T94 -9Q65 -9 48 10T30 62Q30 91 42 128T77 224Q85 248 93 271T108 314T119 350T124 373Q124 395 108 395Q96 395 75 377T22 311L9 318Q44 381 87 409T164 438Q223 438 223 379Q223 366 218 346T206 302T189 252L171 200Q153 150 140 113T126 59Q126 35 146 35Q158
35 177 50T220 97T271 178T325 295Q338 327 350 360T375 429H473Q462 396 450 357T424 281T400 211L384 162Q372 124 369 102T365 63ZM233 665Q252 665 264 656T295 625Q314 602 333 578T384 513L378 506Q349 519 318 533T258 561Q235 572 215 588T195 625Q195
642 205 653T233 665Z" />
<glyph unicode="&#xfa;" glyph-name="uacute" horiz-adv-x="513" d="M455 625Q455 603 441 591T400 566Q372 553 336 540T245 504L240 512Q261 533 276 549T303 577T327 600T350 622Q372 644 387 653T416 662Q455 662 455 625ZM365 63Q365 51 371 44T386 37Q399
37 413 45T442 66T470 96T495 131L507 124Q493 100 474 76T432 33T384 3T332 -9Q303 -9 288 9T273 59Q273 82 278 108T294 170H287Q260 119 234 85T184 29T137 0T94 -9Q65 -9 48 10T30 62Q30 91 42 128T77 224Q85 248 93 271T108 314T119 350T124 373Q124 395 108
395Q96 395 75 377T22 311L9 318Q44 381 87 409T164 438Q223 438 223 379Q223 366 218 346T206 302T189 252L171 200Q153 150 140 113T126 59Q126 35 146 35Q158 35 177 50T220 97T271 178T325 295Q338 327 350 360T375 429H473Q462 396 450 357T424 281T400 211L384
162Q372 124 369 102T365 63Z" />
<glyph unicode="&#xfb;" glyph-name="ucircumflex" horiz-adv-x="513" d="M421 501L327 594L178 501L171 509Q193 532 215 555T257 600T293 639T319 668H368Q372 656 379 638T394 599T412 554T431 507L421 501ZM365 63Q365 51 371 44T386 37Q399 37 413 45T442
66T470 96T495 131L507 124Q493 100 474 76T432 33T384 3T332 -9Q303 -9 288 9T273 59Q273 82 278 108T294 170H287Q260 119 234 85T184 29T137 0T94 -9Q65 -9 48 10T30 62Q30 91 42 128T77 224Q85 248 93 271T108 314T119 350T124 373Q124 395 108 395Q96 395
75 377T22 311L9 318Q44 381 87 409T164 438Q223 438 223 379Q223 366 218 346T206 302T189 252L171 200Q153 150 140 113T126 59Q126 35 146 35Q158 35 177 50T220 97T271 178T325 295Q338 327 350 360T375 429H473Q462 396 450 357T424 281T400 211L384 162Q372
124 369 102T365 63Z" />
<glyph unicode="&#xfc;" glyph-name="udieresis" horiz-adv-x="513" d="M184 590Q184 612 199 627T236 643Q259 643 274 628T289 592Q289 570 274 555T236 539Q214 539 199 554T184 590ZM344 590Q344 612 358 627T395 643Q418 643 433 628T448 592Q448 570 433
555T395 539Q373 539 359 554T344 590ZM365 63Q365 51 371 44T386 37Q399 37 413 45T442 66T470 96T495 131L507 124Q493 100 474 76T432 33T384 3T332 -9Q303 -9 288 9T273 59Q273 82 278 108T294 170H287Q260 119 234 85T184 29T137 0T94 -9Q65 -9 48 10T30 62Q30
91 42 128T77 224Q85 248 93 271T108 314T119 350T124 373Q124 395 108 395Q96 395 75 377T22 311L9 318Q44 381 87 409T164 438Q223 438 223 379Q223 366 218 346T206 302T189 252L171 200Q153 150 140 113T126 59Q126 35 146 35Q158 35 177 50T220 97T271 178T325
295Q338 327 350 360T375 429H473Q462 396 450 357T424 281T400 211L384 162Q372 124 369 102T365 63Z" />
<glyph unicode="&#xfd;" glyph-name="yacute" horiz-adv-x="387" d="M69 379Q55 379 39 361T6 310L-7 318Q18 369 50 403T121 438Q143 438 160 425T193 374Q200 357 209 328T225 258T239 169T247 62H251Q285 122 308 183T331 295Q331 315 326 331T313 365Q311
370 307 380T303 399Q303 417 313 427T339 438Q359 438 367 423T375 388Q375 305 348 225T280 75T189 -52T95 -146Q57 -178 23 -195T-41 -213Q-68 -213 -89 -198T-110 -154Q-110 -129 -95 -116T-62 -102Q-31 -102 -7 -135Q0 -144 8 -150T26 -157Q49 -157 81 -130Q98
-116 119 -95T163 -47Q161 -1 157 48T145 145T130 234T111 308Q100 342 90 360T69 379ZM400 625Q400 603 386 591T345 566Q317 553 281 540T190 504L185 512Q206 533 221 549T248 577T272 600T295 622Q317 644 332 653T361 662Q400 662 400 625Z" />
<glyph unicode="&#xfe;" glyph-name="thorn" horiz-adv-x="427" d="M296 438Q317 438 337 432T373 409T398 365T408 295Q408 263 400 230T377 166T342 106T297 55Q265 26 228 9T146 -9Q120 -9 99 -4T66 9Q64 3 60 -10T51 -38T42 -67T34 -88Q28 -105 24 -123T20
-156Q20 -169 25 -179T45 -197Q53 -201 64 -203T87 -208L84 -217H-178L-175 -208Q-159 -206 -145 -202T-121 -191Q-104 -179 -94 -160T-73 -111Q-16 67 31 211Q51 272 70 332T105 442T132 524T146 567Q154 592 158 607T163 630Q163 652 152 662Q147 667 136 669T113
674L117 684H277Q282 684 282 679Q282 675 278 666T269 643Q265 633 262 625T256 607T248 585T239 557L176 362H180Q204 402 235 420T296 438ZM312 340Q312 407 268 407Q252 407 238 400T212 380Q195 363 180 336T155 278Q149 259 138 226T116 158T94 91T78 43Q87
29 104 20T137 11Q159 11 176 21T209 51Q228 70 246 105T279 182T303 265T312 340Z" />
<glyph unicode="&#xff;" glyph-name="ydieresis" horiz-adv-x="387" d="M69 379Q55 379 39 361T6 310L-7 318Q18 369 50 403T121 438Q143 438 160 425T193 374Q200 357 209 328T225 258T239 169T247 62H251Q285 122 308 183T331 295Q331 315 326 331T313 365Q311
370 307 380T303 399Q303 417 313 427T339 438Q359 438 367 423T375 388Q375 305 348 225T280 75T189 -52T95 -146Q57 -178 23 -195T-41 -213Q-68 -213 -89 -198T-110 -154Q-110 -129 -95 -116T-62 -102Q-31 -102 -7 -135Q0 -144 8 -150T26 -157Q49 -157 81 -130Q98
-116 119 -95T163 -47Q161 -1 157 48T145 145T130 234T111 308Q100 342 90 360T69 379ZM121 590Q121 612 136 627T173 643Q196 643 211 628T226 592Q226 570 211 555T173 539Q151 539 136 554T121 590ZM281 590Q281 612 295 627T332 643Q355 643 370 628T385 592Q385
570 370 555T332 539Q310 539 296 554T281 590Z" />
<glyph unicode="&#x100;" glyph-name="Amacron" horiz-adv-x="592" d="M209 272H368L431 524H426L209 272ZM363 249H188L97 142Q81 123 72 105T62 67Q62 53 68 42T86 24Q98 18 110 15T140 10L137 0H-118L-116 10Q-94 13 -75 22Q-57 31 -39 44T-4 73T28 105T57
136L511 657H581L467 196Q456 150 450 119T444 71Q444 50 453 39T479 19Q488 15 500 13T520 10L518 0H213L216 10Q224 11 233 13T250 17Q284 28 304 58Q318 81 329 118T352 203L363 249ZM413 722L424 762H682L671 722H413Z" />
<glyph unicode="&#x101;" glyph-name="amacron" horiz-adv-x="469" d="M312 350Q312 383 303 401T273 419Q250 419 231 403T190 351Q173 323 158 286T132 212T113 141T106 88Q106 57 116 45T140 32Q154 32 168 42T198 69Q213 87 225 104T249 146Q262 171 273 200T293
256T307 308T312 350ZM336 62Q336 39 354 39Q367 39 380 47T408 68T435 97T459 131L471 124Q457 100 439 76T399 33T353 3T301 -9Q276 -9 259 6T242 56Q242 67 245 82T252 109H248Q235 86 223 70T196 37Q150 -9 103 -9Q85 -9 68 -3T38 17T16 55T8 114Q8 161 30
217T88 323T172 405T268 438Q297 438 312 422T332 380H335Q342 393 347 404T360 429H445Q433 391 416 338T379 226Q358 163 347 121T336 62ZM197 554L207 594H441L431 554H197Z" />
<glyph unicode="&#x102;" glyph-name="Abreve" horiz-adv-x="592" d="M209 272H368L431 524H426L209 272ZM363 249H188L97 142Q81 123 72 105T62 67Q62 53 68 42T86 24Q98 18 110 15T140 10L137 0H-118L-116 10Q-94 13 -75 22Q-57 31 -39 44T-4 73T28 105T57 136L511
657H581L467 196Q456 150 450 119T444 71Q444 50 453 39T479 19Q488 15 500 13T520 10L518 0H213L216 10Q224 11 233 13T250 17Q284 28 304 58Q318 81 329 118T352 203L363 249ZM453 842Q459 805 488 789T554 772Q595 772 629 787T685 841L695 835Q691 808 680
785T650 745T605 717T546 707Q525 707 506 713T472 731T448 760T438 802Q438 819 441 836L453 842Z" />
<glyph unicode="&#x103;" glyph-name="abreve" horiz-adv-x="469" d="M312 350Q312 383 303 401T273 419Q250 419 231 403T190 351Q173 323 158 286T132 212T113 141T106 88Q106 57 116 45T140 32Q154 32 168 42T198 69Q213 87 225 104T249 146Q262 171 273 200T293
256T307 308T312 350ZM336 62Q336 39 354 39Q367 39 380 47T408 68T435 97T459 131L471 124Q457 100 439 76T399 33T353 3T301 -9Q276 -9 259 6T242 56Q242 67 245 82T252 109H248Q235 86 223 70T196 37Q150 -9 103 -9Q85 -9 68 -3T38 17T16 55T8 114Q8 161 30
217T88 323T172 405T268 438Q297 438 312 422T332 380H335Q342 393 347 404T360 429H445Q433 391 416 338T379 226Q358 163 347 121T336 62ZM211 673Q215 651 225 636T249 612T280 599T314 595Q354 595 383 614T439 674L449 667Q445 641 435 616T408 571T366 539T308
527Q261 527 229 554T196 633Q196 650 199 667L211 673Z" />
<glyph unicode="&#x104;" glyph-name="Aogonek" horiz-adv-x="592" d="M209 272H368L431 524H426L209 272ZM363 249H188L97 142Q81 123 72 105T62 67Q62 53 68 42T86 24Q98 18 110 15T140 10L137 0H-118L-116 10Q-94 13 -75 22Q-57 31 -39 44T-4 73T28 105T57
136L511 657H581L467 196Q456 150 450 119T444 71Q444 50 453 39T479 19Q488 15 500 13T520 10L518 0H355Q327 0 308 -1T274 -5T249 -13T227 -25Q201 -41 182 -72T162 -142Q162 -168 177 -183T226 -203L224 -212Q150 -216 117 -194T83 -139Q83 -117 95 -100T127
-67T171 -40T218 -15Q249 1 269 16T303 55Q317 79 328 116T352 203L363 249Z" />
<glyph unicode="&#x105;" glyph-name="aogonek" horiz-adv-x="469" d="M166 -138Q166 -115 180 -97T215 -63T262 -34T311 -8Q306 -9 299 -9Q276 -9 259 6T242 56Q242 67 245 82T252 109H248Q235 86 223 70T196 37Q150 -9 103 -9Q85 -9 68 -3T38 17T16 55T8 114Q8
161 30 217T88 323T172 405T268 438Q297 438 312 422T332 380H335Q336 383 340 390T347 404T354 419T360 429H445Q444 425 439 411T427 375T413 331T398 286T386 249T379 226Q358 163 347 121T336 62Q336 39 354 39Q367 39 380 47T408 68T435 97T459 131L471 124Q451
89 425 59T366 9Q342 -4 321 -19T282 -53T255 -94T245 -142Q245 -168 260 -183T309 -203L308 -212Q234 -216 200 -194T166 -138ZM312 350Q312 383 303 401T273 419Q250 419 231 403T190 351Q173 323 158 286T132 212T113 141T106 88Q106 57 116 45T140 32Q154 32
168 42T198 69Q213 87 225 104T249 146Q262 171 273 200T293 256T307 308T312 350Z" />
<glyph unicode="&#x106;" glyph-name="Cacute" horiz-adv-x="569" d="M551 416H539Q543 534 507 590T409 647Q373 647 343 630T290 589Q269 569 245 530T198 437T162 322T147 194Q147 99 193 53Q210 36 230 30T273 23Q316 23 353 40T420 86T474 148T514 217L530
208Q513 169 487 130T425 58T348 6T257 -14Q196 -14 153 7T82 62T42 142T29 235Q29 325 60 404T145 542T267 636T411 670Q441 670 464 664T504 648T532 627T552 603H556L599 647H610L551 416ZM338 715Q386 751 414 774T469 816Q492 832 503 838T530 844Q548 844
559 833T570 803Q570 783 554 771T512 750Q498 745 483 741T447 732T402 721T343 707L338 715Z" />
<glyph unicode="&#x107;" glyph-name="cacute" horiz-adv-x="372" d="M420 625Q420 603 406 591T365 566Q337 553 301 540T210 504L205 512Q226 533 241 549T268 577T292 600T315 622Q337 644 352 653T381 662Q420 662 420 625ZM373 357Q373 337 362 322T327 306Q305
306 295 318T284 348Q284 354 286 361T290 374Q292 382 294 388T297 400Q297 420 269 420Q232 420 199 370Q182 346 167 313T139 244T120 171T113 100Q113 63 130 44T176 25Q199 25 220 35T259 60T291 93T315 127L327 120Q313 93 294 70T250 29T197 1T133 -9Q104
-9 82 2T44 32T20 78T12 135Q12 171 21 205T46 270T83 327T127 374Q163 406 202 422T272 438Q317 438 345 417T373 357Z" />
<glyph unicode="&#x108;" glyph-name="Ccircumflex" horiz-adv-x="569" d="M531 707L441 777L296 707L291 715Q296 719 307 729T333 753T362 780T391 807T414 828T426 839H475Q477 834 486 817T507 778T527 739T540 714L531 707ZM551 416H539Q543 534 507 590T409
647Q373 647 343 630T290 589Q269 569 245 530T198 437T162 322T147 194Q147 99 193 53Q210 36 230 30T273 23Q316 23 353 40T420 86T474 148T514 217L530 208Q513 169 487 130T425 58T348 6T257 -14Q196 -14 153 7T82 62T42 142T29 235Q29 325 60 404T145 542T267
636T411 670Q441 670 464 664T504 648T532 627T552 603H556L599 647H610L551 416Z" />
<glyph unicode="&#x109;" glyph-name="ccircumflex" horiz-adv-x="372" d="M388 501L294 594L145 501L138 509Q160 532 182 555T224 600T260 639T286 668H335Q339 656 346 638T361 599T379 554T398 507L388 501ZM373 357Q373 337 362 322T327 306Q305 306 295
318T284 348Q284 354 286 361T290 374Q292 382 294 388T297 400Q297 420 269 420Q232 420 199 370Q182 346 167 313T139 244T120 171T113 100Q113 63 130 44T176 25Q199 25 220 35T259 60T291 93T315 127L327 120Q313 93 294 70T250 29T197 1T133 -9Q104 -9 82
2T44 32T20 78T12 135Q12 171 21 205T46 270T83 327T127 374Q163 406 202 422T272 438Q317 438 345 417T373 357Z" />
<glyph unicode="&#x10a;" glyph-name="Cdotaccent" horiz-adv-x="569" d="M551 416H539Q543 534 507 590T409 647Q373 647 343 630T290 589Q269 569 245 530T198 437T162 322T147 194Q147 99 193 53Q210 36 230 30T273 23Q316 23 353 40T420 86T474 148T514 217L530
208Q513 169 487 130T425 58T348 6T257 -14Q196 -14 153 7T82 62T42 142T29 235Q29 325 60 404T145 542T267 636T411 670Q441 670 464 664T504 648T532 627T552 603H556L599 647H610L551 416ZM363 777Q363 803 381 819T422 836Q445 836 463 820T482 777Q482 750
464 735T422 719Q399 719 381 735T363 777Z" />
<glyph unicode="&#x10b;" glyph-name="cdotaccent" horiz-adv-x="372" d="M373 357Q373 337 362 322T327 306Q305 306 295 318T284 348Q284 354 286 361T290 374Q292 382 294 388T297 400Q297 420 269 420Q232 420 199 370Q182 346 167 313T139 244T120 171T113
100Q113 63 130 44T176 25Q199 25 220 35T259 60T291 93T315 127L327 120Q313 93 294 70T250 29T197 1T133 -9Q104 -9 82 2T44 32T20 78T12 135Q12 171 21 205T46 270T83 327T127 374Q163 406 202 422T272 438Q317 438 345 417T373 357ZM340 592Q340 566 322 552T283
537Q263 537 245 552T227 592Q227 617 245 633T283 649Q303 649 321 634T340 592Z" />
<glyph unicode="&#x10c;" glyph-name="Ccaron" horiz-adv-x="569" d="M338 842L429 772L572 842L578 835Q573 831 562 821T536 797T507 770T478 743T455 721T443 710H394Q392 714 383 732T362 771T341 811L329 836L338 842ZM551 416H539Q543 534 507 590T409 647Q373
647 343 630T290 589Q269 569 245 530T198 437T162 322T147 194Q147 99 193 53Q210 36 230 30T273 23Q316 23 353 40T420 86T474 148T514 217L530 208Q513 169 487 130T425 58T348 6T257 -14Q196 -14 153 7T82 62T42 142T29 235Q29 325 60 404T145 542T267 636T411
670Q441 670 464 664T504 648T532 627T552 603H556L599 647H610L551 416Z" />
<glyph unicode="&#x10d;" glyph-name="ccaron" horiz-adv-x="372" d="M196 662L291 568L439 662L446 655Q424 632 402 608T360 563T324 524T298 495H249Q244 507 238 525T223 564T205 609T187 656L196 662ZM373 357Q373 337 362 322T327 306Q305 306 295 318T284
348Q284 354 286 361T290 374Q292 382 294 388T297 400Q297 420 269 420Q232 420 199 370Q182 346 167 313T139 244T120 171T113 100Q113 63 130 44T176 25Q199 25 220 35T259 60T291 93T315 127L327 120Q313 93 294 70T250 29T197 1T133 -9Q104 -9 82 2T44 32T20
78T12 135Q12 171 21 205T46 270T83 327T127 374Q163 406 202 422T272 438Q317 438 345 417T373 357Z" />
<glyph unicode="&#x10e;" glyph-name="Dcaron" horiz-adv-x="679" d="M338 842L429 772L572 842L578 835Q573 831 562 821T536 797T507 770T478 743T455 721T443 710H394Q392 714 383 732T362 771T341 811L329 836L338 842ZM666 407Q666 292 618 207T487 64Q445
35 393 18T279 0H-52L-50 10Q-42 11 -31 13T-11 17Q6 22 20 32T45 58Q60 81 71 118T94 203L160 466Q171 512 176 540T182 586Q182 607 173 618T147 638Q138 642 126 644T106 647L109 657H403Q469 657 518 636T600 581T649 501T666 407ZM546 453Q546 472 544 493T537
534T525 571T508 599Q489 620 463 627T399 634H367Q331 634 319 611T298 553L203 170Q195 136 191 117T186 80Q186 54 199 39Q216 22 256 22H281Q295 22 313 25T350 36T390 58T430 93Q453 118 474 153T511 234T536 333T546 453Z" />
<glyph unicode="&#x10f;" glyph-name="dcaron" horiz-adv-x="482" d="M579 684H651Q626 642 594 596T523 492H511L579 684ZM316 357Q314 386 303 402T272 419Q249 419 230 403T189 352Q172 324 157 286T131 209T113 139T106 89Q106 58 115 46T139 33Q165 33 197
69Q212 87 224 105T249 147Q262 173 273 203T294 262T309 316T316 357ZM248 112Q235 88 223 71T195 38Q151 -9 102 -9Q84 -9 67 -3T36 19T14 58T6 117Q6 150 16 187T45 259T89 327T143 384T205 423T271 438Q297 438 311 426T330 394H335L392 567Q408 615 408 630Q408
653 398 662Q393 667 382 669T359 674L362 684H523Q528 684 528 679Q528 675 525 666T516 643Q512 633 509 625T502 607T494 585T485 557Q482 548 476 529T462 486T445 432T427 375Q406 308 382 230Q363 172 352 128T340 61Q340 40 357 40Q370 40 383 48T410 68T437
97T461 132L473 124Q459 100 441 76T400 34T354 3T302 -9Q277 -9 259 6T241 57Q241 67 245 83T252 112H248Z" />
<glyph unicode="&#x110;" glyph-name="Dcroat" horiz-adv-x="679" d="M40 350H131L160 466Q171 512 176 540T182 586Q182 607 173 618T147 638Q138 642 126 644T106 647L109 657H403Q469 657 518 636T600 581T649 501T666 407Q666 292 618 207T486 64Q444 35 392
18T279 0H-52L-50 10Q-42 11 -31 13T-11 17Q6 22 20 32T45 58Q60 81 71 118T94 203L124 324H33L40 350ZM430 93Q452 118 473 153T510 234T536 333T546 453Q546 472 544 493T537 535T525 572T508 600Q489 620 463 627T399 634H367Q332 634 319 611T298 553L247 350H388L382
324H241L203 170Q195 136 191 117T186 80Q186 54 199 39Q216 22 256 22H281Q295 22 313 25T350 36T390 58T430 93Z" />
<glyph unicode="&#x111;" glyph-name="dcroat" horiz-adv-x="482" d="M545 537H248L254 558H551L545 537ZM316 357Q314 386 303 402T272 419Q249 419 230 403T189 352Q172 324 157 286T131 209T113 139T106 89Q106 58 115 46T139 33Q165 33 197 69Q212 87 224
105T249 147Q262 173 273 203T294 262T309 316T316 357ZM248 112Q235 88 223 71T195 38Q151 -9 102 -9Q84 -9 67 -3T36 19T14 58T6 117Q6 150 16 187T45 259T89 327T143 384T205 423T271 438Q297 438 311 426T330 394H335L392 567Q408 615 408 630Q408 653 398
662Q393 667 382 669T359 674L362 684H523Q528 684 528 679Q528 675 525 666T516 643Q512 633 509 625T502 607T494 585T485 557Q482 548 476 529T462 486T445 432T427 375Q406 308 382 230Q363 172 352 128T340 61Q340 40 357 40Q370 40 383 48T410 68T437 97T461
132L473 124Q459 100 441 76T400 34T354 3T302 -9Q277 -9 259 6T241 57Q241 67 245 83T252 112H248Z" />
<glyph unicode="&#x112;" glyph-name="Emacron" horiz-adv-x="587" d="M574 457H563Q556 495 543 529T513 589Q501 605 480 620T418 635H391Q346 635 326 609T294 538L248 352H276Q319 352 341 358T381 378Q404 398 421 426T447 478H458L389 201H378Q381 226 378
255T363 300Q354 313 335 321T274 329H242L203 170Q193 133 190 110T189 71Q192 42 209 32T258 22H287Q327 22 360 39T419 77Q460 110 489 148T536 215H548L478 0H-53L-50 10Q-42 11 -31 13T-11 17Q6 22 20 32T45 58Q59 81 70 118T94 203L159 466Q170 512 176 540T182
586Q182 607 173 619T147 638Q138 642 126 644T106 647L108 657H576L574 457ZM253 722L264 762H522L511 722H253Z" />
<glyph unicode="&#x113;" glyph-name="emacron" horiz-adv-x="364" d="M325 120Q311 94 292 71T249 30T195 2T130 -9Q102 -9 80 2T43 32T19 79T11 137Q11 210 45 269T131 375Q166 406 201 422T266 438Q320 438 341 418T362 365Q362 345 351 326T320 290Q306 278
284 266T236 241T181 217T124 198Q112 144 112 92Q112 58 126 40T164 22Q192 22 215 32T256 58T289 92T313 127L325 120ZM128 215Q162 228 195 245T246 281Q266 302 276 331T286 380Q286 398 280 409T260 420Q240 420 220 404T183 359T152 294T128 215ZM155 554L165
594H399L389 554H155Z" />
<glyph unicode="&#x114;" glyph-name="Ebreve" horiz-adv-x="587" d="M574 457H563Q556 495 543 529T513 589Q501 605 480 620T418 635H391Q346 635 326 609T294 538L248 352H276Q319 352 341 358T381 378Q404 398 421 426T447 478H458L389 201H378Q381 226 378
255T363 300Q354 313 335 321T274 329H242L203 170Q193 133 190 110T189 71Q192 42 209 32T258 22H287Q327 22 360 39T419 77Q460 110 489 148T536 215H548L478 0H-53L-50 10Q-42 11 -31 13T-11 17Q6 22 20 32T45 58Q59 81 70 118T94 203L159 466Q170 512 176 540T182
586Q182 607 173 619T147 638Q138 642 126 644T106 647L108 657H576L574 457ZM293 842Q299 805 328 789T394 772Q435 772 469 787T525 841L535 835Q531 808 520 785T490 745T445 717T386 707Q365 707 346 713T312 731T288 760T278 802Q278 819 281 836L293 842Z"
/>
<glyph unicode="&#x115;" glyph-name="ebreve" horiz-adv-x="364" d="M325 120Q311 94 292 71T249 30T195 2T130 -9Q102 -9 80 2T43 32T19 79T11 137Q11 210 45 269T131 375Q166 406 201 422T266 438Q320 438 341 418T362 365Q362 345 351 326T320 290Q306 278
284 266T236 241T181 217T124 198Q112 144 112 92Q112 58 126 40T164 22Q192 22 215 32T256 58T289 92T313 127L325 120ZM128 215Q162 228 195 245T246 281Q266 302 276 331T286 380Q286 398 280 409T260 420Q240 420 220 404T183 359T152 294T128 215ZM170 673Q174
651 184 636T208 612T239 599T273 595Q313 595 342 614T398 674L408 667Q404 641 394 616T367 571T325 539T267 527Q220 527 188 554T155 633Q155 650 158 667L170 673Z" />
<glyph unicode="&#x116;" glyph-name="Edotaccent" horiz-adv-x="587" d="M323 777Q323 803 341 819T382 836Q405 836 423 820T442 777Q442 750 424 735T382 719Q359 719 341 735T323 777ZM574 457H563Q556 495 543 529T513 589Q501 605 480 620T418 635H391Q346
635 326 609T294 538L248 352H276Q319 352 341 358T381 378Q404 398 421 426T447 478H458L389 201H378Q381 226 378 255T363 300Q354 313 335 321T274 329H242L203 170Q193 133 190 110T189 71Q192 42 209 32T258 22H287Q327 22 360 39T419 77Q460 110 489 148T536
215H548L478 0H-53L-50 10Q-42 11 -31 13T-11 17Q6 22 20 32T45 58Q59 81 70 118T94 203L159 466Q170 512 176 540T182 586Q182 607 173 619T147 638Q138 642 126 644T106 647L108 657H576L574 457Z" />
<glyph unicode="&#x117;" glyph-name="edotaccent" horiz-adv-x="364" d="M325 120Q311 94 292 71T249 30T195 2T130 -9Q102 -9 80 2T43 32T19 79T11 137Q11 210 45 269T131 375Q166 406 201 422T266 438Q320 438 341 418T362 365Q362 345 351 326T320 290Q306
278 284 266T236 241T181 217T124 198Q112 144 112 92Q112 58 126 40T164 22Q192 22 215 32T256 58T289 92T313 127L325 120ZM128 215Q162 228 195 245T246 281Q266 302 276 331T286 380Q286 398 280 409T260 420Q240 420 220 404T183 359T152 294T128 215ZM327
592Q327 566 309 552T270 537Q250 537 232 552T214 592Q214 617 232 633T270 649Q290 649 308 634T327 592Z" />
<glyph unicode="&#x118;" glyph-name="Eogonek" horiz-adv-x="587" d="M574 457H563Q556 495 543 529T513 589Q501 605 480 620T418 635H391Q346 635 326 609T294 538L248 352H276Q319 352 341 358T381 378Q404 398 421 426T447 478H458L389 201H378Q381 226 378
255T363 300Q354 313 335 321T274 329H242L203 170Q193 133 190 110T189 71Q192 42 209 32T258 22H287Q327 22 360 39T419 77Q460 110 489 148T536 215H548L478 0H389Q372 -13 356 -28T326 -60T304 -98T295 -142Q295 -168 310 -183T359 -203L358 -212Q284 -216
250 -194T216 -138Q216 -113 232 -94T271 -58T322 -27T371 0H-53L-50 10Q-42 11 -31 13T-11 17Q6 22 20 32T45 58Q59 81 70 118T94 203L159 466Q170 512 176 540T182 586Q182 607 173 619T147 638Q138 642 126 644T106 647L108 657H576L574 457Z" />
<glyph unicode="&#x119;" glyph-name="eogonek" horiz-adv-x="364" d="M149 -212Q74 -215 41 -194T7 -138Q7 -115 22 -96T60 -62T110 -32L161 -7Q153 -8 145 -8T130 -9Q102 -9 80 2T43 32T19 79T11 137Q11 173 21 208T49 275T90 334T141 384Q173 410 206 424T266
438Q320 438 341 418T362 365Q362 342 348 322T311 284Q296 272 276 261T231 238T179 216T124 198Q112 144 112 92Q112 58 126 40T164 22Q192 22 215 32T256 58T289 92T313 127L325 120Q306 85 279 56T218 10Q192 -3 169 -17T127 -50T97 -91T86 -142Q86 -168 101
-183T150 -203L149 -212ZM286 380Q286 398 280 409T260 420Q240 420 221 404T184 359T152 294T128 215Q157 226 181 237T223 263Q255 286 270 318T286 380Z" />
<glyph unicode="&#x11a;" glyph-name="Ecaron" horiz-adv-x="587" d="M300 842L391 772L534 842L540 835Q535 831 524 821T498 797T469 770T440 743T417 721T405 710H356Q354 714 345 732T324 771T303 811L291 836L300 842ZM574 457H563Q556 495 543 529T513 589Q501
605 480 620T418 635H391Q346 635 326 609T294 538L248 352H276Q319 352 341 358T381 378Q404 398 421 426T447 478H458L389 201H378Q381 226 378 255T363 300Q354 313 335 321T274 329H242L203 170Q193 133 190 110T189 71Q192 42 209 32T258 22H287Q327 22 360
39T419 77Q460 110 489 148T536 215H548L478 0H-53L-50 10Q-42 11 -31 13T-11 17Q6 22 20 32T45 58Q59 81 70 118T94 203L159 466Q170 512 176 540T182 586Q182 607 173 619T147 638Q138 642 126 644T106 647L108 657H576L574 457Z" />
<glyph unicode="&#x11b;" glyph-name="ecaron" horiz-adv-x="364" d="M182 662L277 568L425 662L432 655Q410 632 388 608T346 563T310 524T284 495H235Q230 507 224 525T209 564T191 609T173 656L182 662ZM325 120Q311 94 292 71T249 30T195 2T130 -9Q102 -9
80 2T43 32T19 79T11 137Q11 210 45 269T131 375Q166 406 201 422T266 438Q320 438 341 418T362 365Q362 345 351 326T320 290Q306 278 284 266T236 241T181 217T124 198Q112 144 112 92Q112 58 126 40T164 22Q192 22 215 32T256 58T289 92T313 127L325 120ZM128
215Q162 228 195 245T246 281Q266 302 276 331T286 380Q286 398 280 409T260 420Q240 420 220 404T183 359T152 294T128 215Z" />
<glyph unicode="&#x11c;" glyph-name="Gcircumflex" horiz-adv-x="614" d="M527 707L437 777L292 707L287 715Q292 719 303 729T329 753T358 780T387 807T410 828T422 839H471Q473 834 482 817T503 778T523 739T536 714L527 707ZM626 287Q617 287 610 285T595
281Q581 276 569 268T546 245Q535 228 528 207T511 152L478 16H470Q466 19 459 23T440 28Q430 28 415 23T385 11Q363 1 333 -6T273 -14Q212 -14 166 6T89 62T43 142T27 237Q27 326 59 404T145 542T269 635T415 670Q446 670 470 664T513 648T543 627T564 603H568L608
647H620L562 421H550Q555 539 518 593T417 648Q393 648 376 644T343 632T315 613T288 589Q269 571 244 531T197 436T160 317T145 187Q145 142 153 108T188 45Q205 27 229 19T277 10Q310 10 330 18T364 42Q378 57 385 78T399 122L410 167Q415 191 417 205T420 231Q420
249 413 258T391 276Q382 281 371 283T350 287L352 298H629L626 287Z" />
<glyph unicode="&#x11d;" glyph-name="gcircumflex" horiz-adv-x="407" d="M377 501L283 594L134 501L127 509Q149 532 171 555T213 600T249 639T275 668H324Q328 656 335 638T350 599T368 554T387 507L377 501ZM225 421Q183 421 160 367Q146 338 139 301T131
237Q131 206 140 187T178 167Q220 167 243 220Q257 249 264 286T272 350Q272 381 262 401T225 421ZM127 -213Q85 -213 50 -206T-10 -184T-49 -150T-63 -103Q-63 -87 -53 -72T-25 -45T18 -23T72 -9V-6Q40 4 24 26T7 77Q7 114 36 137T105 169Q79 186 64 214T49 278Q49
314 64 343T104 394T161 426T226 438Q260 438 285 425T325 388H329Q334 415 356 431T407 447Q432 447 445 434T459 401Q459 380 449 371T423 362Q409 362 401 369T385 387Q378 397 374 403T361 409Q354 409 348 399T341 374Q341 366 343 360T347 345Q350 337 352
327T354 308Q354 272 339 243T299 193T242 161T177 149Q160 149 148 152T124 160Q101 155 88 144T75 119Q75 108 81 101T99 90T131 82T177 74Q225 66 259 56T315 32T348 -4T359 -56Q359 -94 342 -123T293 -172T219 -202T127 -213ZM131 -195Q163 -195 191 -189T241
-171T275 -140T288 -98Q288 -70 264 -56T179 -30Q162 -27 141 -23T98 -15Q83 -18 66 -24T35 -41T11 -68T2 -108Q2 -153 35 -174T131 -195Z" />
<glyph unicode="&#x11e;" glyph-name="Gbreve" horiz-adv-x="614" d="M329 842Q335 805 364 789T430 772Q471 772 505 787T561 841L571 835Q567 808 556 785T526 745T481 717T422 707Q401 707 382 713T348 731T324 760T314 802Q314 819 317 836L329 842ZM626 287Q617
287 610 285T595 281Q581 276 569 268T546 245Q535 228 528 207T511 152L478 16H470Q466 19 459 23T440 28Q430 28 415 23T385 11Q363 1 333 -6T273 -14Q212 -14 166 6T89 62T43 142T27 237Q27 326 59 404T145 542T269 635T415 670Q446 670 470 664T513 648T543
627T564 603H568L608 647H620L562 421H550Q555 539 518 593T417 648Q393 648 376 644T343 632T315 613T288 589Q269 571 244 531T197 436T160 317T145 187Q145 142 153 108T188 45Q205 27 229 19T277 10Q310 10 330 18T364 42Q378 57 385 78T399 122L410 167Q415
191 417 205T420 231Q420 249 413 258T391 276Q382 281 371 283T350 287L352 298H629L626 287Z" />
<glyph unicode="&#x11f;" glyph-name="gbreve" horiz-adv-x="407" d="M225 421Q183 421 160 367Q146 338 139 301T131 237Q131 206 140 187T178 167Q220 167 243 220Q257 249 264 286T272 350Q272 381 262 401T225 421ZM127 -213Q85 -213 50 -206T-10 -184T-49
-150T-63 -103Q-63 -87 -53 -72T-25 -45T18 -23T72 -9V-6Q40 4 24 26T7 77Q7 114 36 137T105 169Q79 186 64 214T49 278Q49 314 64 343T104 394T161 426T226 438Q260 438 285 425T325 388H329Q334 415 356 431T407 447Q432 447 445 434T459 401Q459 380 449 371T423
362Q409 362 401 369T385 387Q378 397 374 403T361 409Q354 409 348 399T341 374Q341 366 343 360T347 345Q350 337 352 327T354 308Q354 272 339 243T299 193T242 161T177 149Q160 149 148 152T124 160Q101 155 88 144T75 119Q75 108 81 101T99 90T131 82T177
74Q225 66 259 56T315 32T348 -4T359 -56Q359 -94 342 -123T293 -172T219 -202T127 -213ZM131 -195Q163 -195 191 -189T241 -171T275 -140T288 -98Q288 -70 264 -56T179 -30Q162 -27 141 -23T98 -15Q83 -18 66 -24T35 -41T11 -68T2 -108Q2 -153 35 -174T131 -195ZM170
673Q174 651 184 636T208 612T239 599T273 595Q313 595 342 614T398 674L408 667Q404 641 394 616T367 571T325 539T267 527Q220 527 188 554T155 633Q155 650 158 667L170 673Z" />
<glyph unicode="&#x120;" glyph-name="Gdotaccent" horiz-adv-x="614" d="M360 777Q360 803 378 819T419 836Q442 836 460 820T479 777Q479 750 461 735T419 719Q396 719 378 735T360 777ZM626 287Q617 287 610 285T595 281Q581 276 569 268T546 245Q535 228 528
207T511 152L478 16H470Q466 19 459 23T440 28Q430 28 415 23T385 11Q363 1 333 -6T273 -14Q212 -14 166 6T89 62T43 142T27 237Q27 326 59 404T145 542T269 635T415 670Q446 670 470 664T513 648T543 627T564 603H568L608 647H620L562 421H550Q555 539 518 593T417
648Q393 648 376 644T343 632T315 613T288 589Q269 571 244 531T197 436T160 317T145 187Q145 142 153 108T188 45Q205 27 229 19T277 10Q310 10 330 18T364 42Q378 57 385 78T399 122L410 167Q415 191 417 205T420 231Q420 249 413 258T391 276Q382 281 371 283T350
287L352 298H629L626 287Z" />
<glyph unicode="&#x121;" glyph-name="gdotaccent" horiz-adv-x="407" d="M225 421Q183 421 160 367Q146 338 139 301T131 237Q131 206 140 187T178 167Q220 167 243 220Q257 249 264 286T272 350Q272 381 262 401T225 421ZM127 -213Q85 -213 50 -206T-10 -184T-49
-150T-63 -103Q-63 -87 -53 -72T-25 -45T18 -23T72 -9V-6Q40 4 24 26T7 77Q7 114 36 137T105 169Q79 186 64 214T49 278Q49 314 64 343T104 394T161 426T226 438Q260 438 285 425T325 388H329Q334 415 356 431T407 447Q432 447 445 434T459 401Q459 380 449 371T423
362Q409 362 401 369T385 387Q378 397 374 403T361 409Q354 409 348 399T341 374Q341 366 343 360T347 345Q350 337 352 327T354 308Q354 272 339 243T299 193T242 161T177 149Q160 149 148 152T124 160Q101 155 88 144T75 119Q75 108 81 101T99 90T131 82T177
74Q225 66 259 56T315 32T348 -4T359 -56Q359 -94 342 -123T293 -172T219 -202T127 -213ZM131 -195Q163 -195 191 -189T241 -171T275 -140T288 -98Q288 -70 264 -56T179 -30Q162 -27 141 -23T98 -15Q83 -18 66 -24T35 -41T11 -68T2 -108Q2 -153 35 -174T131 -195ZM328
592Q328 566 310 552T271 537Q251 537 233 552T215 592Q215 617 233 633T271 649Q291 649 309 634T328 592Z" />
<glyph unicode="&#x122;" glyph-name="Gcommaaccent" horiz-adv-x="614" d="M290 -101Q290 -157 250 -191T148 -242L143 -228Q182 -216 208 -199T234 -162Q234 -153 225 -147Q203 -143 190 -129T176 -94Q176 -69 192 -54T235 -38Q257 -38 273 -54T290 -101ZM626
287Q617 287 610 285T595 281Q581 276 569 268T546 245Q535 228 528 207T511 152L478 16H470Q466 19 459 23T440 28Q430 28 415 23T385 11Q363 1 333 -6T273 -14Q212 -14 166 6T89 62T43 142T27 237Q27 326 59 404T145 542T269 635T415 670Q446 670 470 664T513
648T543 627T564 603H568L608 647H620L562 421H550Q555 539 518 593T417 648Q393 648 376 644T343 632T315 613T288 589Q269 571 244 531T197 436T160 317T145 187Q145 142 153 108T188 45Q205 27 229 19T277 10Q310 10 330 18T364 42Q378 57 385 78T399 122L410
167Q415 191 417 205T420 231Q420 249 413 258T391 276Q382 281 371 283T350 287L352 298H629L626 287Z" />
<glyph unicode="&#x123;" glyph-name="gcommaaccent" horiz-adv-x="407" d="M204 592Q204 648 243 678T344 725L349 711Q310 700 285 685T259 652Q259 642 269 638Q290 633 303 619T317 584Q317 559 301 544T258 529Q237 529 221 545T204 592ZM225 421Q183 421
160 367Q146 338 139 301T131 237Q131 206 140 187T178 167Q220 167 243 220Q257 249 264 286T272 350Q272 381 262 401T225 421ZM127 -213Q85 -213 50 -206T-10 -184T-49 -150T-63 -103Q-63 -87 -53 -72T-25 -45T18 -23T72 -9V-6Q40 4 24 26T7 77Q7 114 36 137T105
169Q79 186 64 214T49 278Q49 314 64 343T104 394T161 426T226 438Q260 438 285 425T325 388H329Q334 415 356 431T407 447Q432 447 445 434T459 401Q459 380 449 371T423 362Q409 362 401 369T385 387Q378 397 374 403T361 409Q354 409 348 399T341 374Q341 366
343 360T347 345Q350 337 352 327T354 308Q354 272 339 243T299 193T242 161T177 149Q160 149 148 152T124 160Q101 155 88 144T75 119Q75 108 81 101T99 90T131 82T177 74Q225 66 259 56T315 32T348 -4T359 -56Q359 -94 342 -123T293 -172T219 -202T127 -213ZM131
-195Q163 -195 191 -189T241 -171T275 -140T288 -98Q288 -70 264 -56T179 -30Q162 -27 141 -23T98 -15Q83 -18 66 -24T35 -41T11 -68T2 -108Q2 -153 35 -174T131 -195Z" />
<glyph unicode="&#x124;" glyph-name="Hcircumflex" horiz-adv-x="713" d="M785 647Q776 646 765 644T746 640Q729 635 714 625T688 598Q673 575 663 539T640 454L577 196Q566 150 560 119T553 71Q553 50 562 39T589 19Q599 15 610 13T630 10L628 0H323L326 10Q334
11 342 13T359 17Q394 28 414 58Q428 81 439 117T462 202L492 321H239L208 195Q197 149 191 119T185 70Q185 49 193 38T219 19Q227 15 236 13T253 10L250 0H-53L-51 10Q-42 11 -31 13T-11 17Q6 22 20 32T44 58Q59 82 70 118T94 203L158 461Q169 507 175 538T181
586Q181 607 172 618T146 638Q136 642 124 644T104 647L106 657H411L408 647Q400 646 392 644L376 640Q359 635 345 625T319 598Q305 575 295 539T272 455L246 346H498L526 462Q537 508 543 538T549 586Q549 607 541 618T516 638Q507 642 498 644T481 647L484 657H788L785
647ZM575 707L485 777L340 707L335 715Q340 719 351 729T377 753T406 780T435 807T458 828T470 839H519Q521 834 530 817T551 778T571 739T584 714L575 707Z" />
<glyph unicode="&#x125;" glyph-name="hcircumflex" horiz-adv-x="485" d="M-16 0Q-14 5 -2 43T29 136T69 257T111 384T147 494T171 567Q187 615 187 630Q187 653 177 662Q172 667 161 669T138 674L142 684H301Q306 684 306 679Q306 675 302 666T293 643Q289 633
286 625T280 607T272 585T263 557L172 275H178Q228 365 276 402T365 439Q399 439 415 420T431 367Q431 338 419 302T385 205Q377 182 369 159T355 115T345 80T341 58Q341 39 354 39Q365 39 379 47T407 67T436 96T461 131L473 124Q459 100 439 76T396 33T346 3T293
-9Q267 -9 252 6T236 49Q236 62 241 82T254 127T272 178T291 231Q309 281 323 319T337 374Q337 396 317 396Q305 396 286 383T243 340T193 264T139 151Q126 119 111 78T84 0H-16ZM473 710L383 780L238 710L233 718Q238 722 249 732T275 756T304 783T333 810T356
831T368 842H417Q419 837 428 820T449 781T469 742T482 717L473 710Z" />
<glyph unicode="&#x126;" glyph-name="Hbar" horiz-adv-x="713" d="M785 647Q776 646 765 644T746 640Q729 635 714 625T688 598Q676 580 667 551T648 486H744L739 461H642L577 196Q566 150 560 119T553 71Q553 50 562 39T589 19Q599 15 610 13T630 10L628 0H323L326
10Q334 11 342 13T359 17Q394 28 414 58Q428 81 439 117T462 202L492 321H239L208 195Q197 149 191 119T185 70Q185 49 193 38T219 19Q227 15 236 13T253 10L250 0H-53L-51 10Q-42 11 -31 13T-11 17Q6 22 20 32T44 58Q59 82 70 118T94 203L157 461H58L64 486H164Q181
557 181 586Q181 607 172 618T146 638Q136 642 124 644T104 647L106 657H411L408 647Q400 646 392 644L376 640Q359 635 345 625T319 598Q307 580 298 551T280 486H532Q540 521 544 546T549 586Q549 607 541 618T516 638Q507 642 498 644T481 647L484 657H788L785
647ZM246 346H498L526 461H274L246 346Z" />
<glyph unicode="&#x127;" glyph-name="hbar" horiz-adv-x="485" d="M473 124Q459 100 439 76T396 33T346 3T293 -9Q267 -9 252 6T236 49Q236 62 241 82T254 127T272 178T291 231Q309 281 323 319T337 374Q337 396 317 396Q305 396 286 383T243 340T193 264T139
151Q126 119 111 78T84 0H-16Q-14 5 -2 43T29 136T69 257T111 384T147 494Q155 519 160 537H92L99 558H168Q169 563 171 567Q187 615 187 630Q187 653 177 662Q172 667 161 669T138 674L142 684H301Q306 684 306 679Q306 675 302 666T293 643Q286 624 280 607T263
558H390L384 537H256L172 275H178Q228 365 276 402T365 439Q399 439 415 420T431 367Q431 338 419 302T385 205Q377 182 369 159T355 115T345 80T341 58Q341 39 354 39Q365 39 379 47T407 67T436 96T461 131L473 124Z" />
<glyph unicode="&#x128;" glyph-name="Itilde" horiz-adv-x="345" d="M417 647Q408 646 397 644T377 640Q360 635 345 625T320 598Q305 575 295 539T272 455L209 195Q198 149 192 119T185 71Q185 50 194 38T220 19Q230 15 242 13T262 10L259 0H-53L-51 10Q-42
11 -31 13T-11 17Q5 22 19 32T44 58Q59 81 71 117T94 202L158 462Q169 508 175 538T181 586Q181 607 172 619T146 638Q136 642 124 644T104 647L107 657H419L417 647ZM448 823Q433 780 406 751T338 722Q321 722 305 726T274 736T243 746T213 751Q195 751 175 742T138
710L128 713Q147 759 178 786T247 814Q262 814 276 810T304 801T333 791T362 787Q386 787 403 794T438 826L448 823Z" />
<glyph unicode="&#x129;" glyph-name="itilde" horiz-adv-x="271" d="M262 124Q248 100 229 76T186 34T136 3T82 -9Q56 -9 41 6T26 49Q26 62 31 82T45 127T63 178T82 230Q99 276 111 315T124 370Q124 395 105 395Q93 395 73 377T21 311L9 318Q26 350 46 372T87
409T128 431T166 438Q194 438 208 422T223 377Q223 355 210 313T178 217Q169 190 160 164T145 117T134 79T130 57Q130 39 144 39Q155 39 169 47T197 67T225 97T250 132L262 124ZM616 632Q600 588 574 560T508 531Q491 531 475 535T444 545T413 555T383 560Q365
560 345 550T308 517L298 521Q317 566 347 594T417 623Q432 623 446 619T474 610T502 601T531 597Q556 597 572 604T606 635L616 632Z" />
<glyph unicode="&#x12a;" glyph-name="Imacron" horiz-adv-x="345" d="M417 647Q408 646 397 644T377 640Q360 635 345 625T320 598Q305 575 295 539T272 455L209 195Q198 149 192 119T185 71Q185 50 194 38T220 19Q230 15 242 13T262 10L259 0H-53L-51 10Q-42
11 -31 13T-11 17Q5 22 19 32T44 58Q59 81 71 117T94 202L158 462Q169 508 175 538T181 586Q181 607 172 619T146 638Q136 642 124 644T104 647L107 657H419L417 647ZM151 722L162 762H420L409 722H151Z" />
<glyph unicode="&#x12b;" glyph-name="imacron" horiz-adv-x="271" d="M81 554L91 594H302L292 554H81ZM262 124Q248 100 229 76T186 34T136 3T82 -9Q56 -9 41 6T26 49Q26 62 31 82T45 127T63 178T82 230Q99 276 111 315T124 370Q124 395 105 395Q93 395 73 377T21
311L9 318Q26 350 46 372T87 409T128 431T166 438Q194 438 208 422T223 377Q223 355 210 313T178 217Q169 190 160 164T145 117T134 79T130 57Q130 39 144 39Q155 39 169 47T197 67T225 97T250 132L262 124Z" />
<glyph unicode="&#x12c;" glyph-name="Ibreve" horiz-adv-x="345" d="M417 647Q408 646 397 644T377 640Q360 635 345 625T320 598Q305 575 295 539T272 455L209 195Q198 149 192 119T185 71Q185 50 194 38T220 19Q230 15 242 13T262 10L259 0H-53L-51 10Q-42
11 -31 13T-11 17Q5 22 19 32T44 58Q59 81 71 117T94 202L158 462Q169 508 175 538T181 586Q181 607 172 619T146 638Q136 642 124 644T104 647L107 657H419L417 647ZM191 842Q197 805 226 789T292 772Q333 772 367 787T423 841L433 835Q429 808 418 785T388 745T343
717T284 707Q263 707 244 713T210 731T186 760T176 802Q176 819 179 836L191 842Z" />
<glyph unicode="&#x12d;" glyph-name="ibreve" horiz-adv-x="271" d="M262 124Q248 100 229 76T186 34T136 3T82 -9Q56 -9 41 6T26 49Q26 62 31 82T45 127T63 178T82 230Q99 276 111 315T124 370Q124 395 105 395Q93 395 73 377T21 311L9 318Q26 350 46 372T87
409T128 431T166 438Q194 438 208 422T223 377Q223 355 210 313T178 217Q169 190 160 164T145 117T134 79T130 57Q130 39 144 39Q155 39 169 47T197 67T225 97T250 132L262 124ZM114 673Q118 651 128 636T152 612T183 599T217 595Q257 595 286 614T342 674L352
667Q348 641 338 616T311 571T269 539T211 527Q164 527 132 554T99 633Q99 650 102 667L114 673Z" />
<glyph unicode="&#x12e;" glyph-name="Iogonek" horiz-adv-x="345" d="M417 647Q408 646 397 644T377 640Q360 635 345 625T320 598Q305 575 295 539T272 455L209 195Q198 149 192 119T185 71Q185 50 194 38T220 19Q230 15 242 13T262 10L259 0H158Q142 -13 127
-28T100 -62T81 -100T74 -142Q74 -168 89 -183T138 -203L136 -212Q62 -216 29 -194T-5 -138Q-5 -114 9 -95T45 -59T92 -28T139 0H-53L-51 10Q-42 11 -31 13T-11 17Q5 22 19 32T44 58Q59 81 71 117T94 202L158 462Q169 508 175 538T181 586Q181 607 172 619T146
638Q136 642 124 644T104 647L107 657H419L417 647Z" />
<glyph unicode="&#x12f;" glyph-name="iogonek" horiz-adv-x="271" d="M-46 -138Q-46 -115 -32 -97T4 -63T51 -34T100 -7Q95 -9 90 -9H82Q56 -9 42 7T27 49Q27 62 32 83T46 128T63 179T82 230Q99 276 111 315T124 370Q124 395 105 395Q93 395 73 377T21 311L9
318Q26 350 46 372T87 409T128 431T166 438Q194 438 208 422T223 377Q223 355 210 312T178 217Q169 190 160 164T145 117T134 79T130 57Q130 39 144 39Q156 39 169 47T197 67T225 97T250 132L262 124Q242 91 215 61T153 10Q132 -2 111 -17T72 -52T44 -93T33 -142Q33
-168 47 -183T97 -203L95 -212Q21 -216 -12 -194T-46 -138ZM213 537Q193 537 176 552T158 592Q158 617 175 633T213 649Q233 649 252 634T271 592Q271 566 252 552T213 537Z" />
<glyph unicode="&#x130;" glyph-name="Idotaccent" horiz-adv-x="345" d="M417 647Q408 646 397 644T377 640Q360 635 345 625T320 598Q305 575 295 539T272 455L209 195Q198 149 192 119T185 71Q185 50 194 38T220 19Q230 15 242 13T262 10L259 0H-53L-51 10Q-42
11 -31 13T-11 17Q5 22 19 32T44 58Q59 81 71 117T94 202L158 462Q169 508 175 538T181 586Q181 607 172 619T146 638Q136 642 124 644T104 647L107 657H419L417 647ZM222 777Q222 803 240 819T281 836Q304 836 322 820T341 777Q341 750 323 735T281 719Q258 719
240 735T222 777Z" />
<glyph unicode="&#x131;" glyph-name="dotlessi" horiz-adv-x="271" d="M262 124Q248 100 229 76T186 34T136 3T82 -9Q56 -9 41 6T26 49Q26 62 31 82T45 127T63 178T82 230Q99 276 111 315T124 370Q124 395 105 395Q93 395 73 377T21 311L9 318Q26 350 46 372T87
409T128 431T166 438Q194 438 208 422T223 377Q223 355 210 313T178 217Q169 190 160 164T145 117T134 79T130 57Q130 39 144 39Q155 39 169 47T197 67T225 97T250 132L262 124Z" />
<glyph unicode="&#x132;" glyph-name="IJ" horiz-adv-x="746" d="M417 647Q408 646 397 644T377 640Q360 635 345 625T320 598Q305 575 295 539T272 455L209 195Q198 149 192 119T185 71Q185 50 194 38T220 19Q230 15 242 13T262 10L259 0H-53L-51 10Q-42 11 -31
13T-11 17Q5 22 19 32T44 58Q59 81 71 117T94 202L158 462Q169 508 175 538T181 586Q181 607 172 619T146 638Q136 642 124 644T104 647L107 657H419L417 647ZM833 647Q824 646 813 644T793 640Q776 635 761 625T736 598Q721 574 711 538T688 454L619 172Q610 135
591 101T544 42T479 1T394 -14Q362 -14 338 -5T298 20T273 57T264 101Q264 135 285 157T338 180Q369 180 386 160T404 113Q404 93 396 80T382 60Q374 52 367 44T359 30Q359 19 369 13T390 7Q427 7 451 34Q466 53 476 82T495 144L573 461Q584 507 590 538T597 586Q597
607 588 618T562 638Q552 642 541 644T521 647L523 657H835L833 647Z" />
<glyph unicode="&#x133;" glyph-name="ij" horiz-adv-x="499" d="M271 592Q271 566 252 552T213 537Q193 537 176 552T158 592Q158 617 175 633T213 649Q233 649 252 634T271 592ZM124 370Q124 395 105 395Q93 395 73 377T21 311L9 318Q26 350 46 372T87 409T128
431T166 438Q194 438 208 422T223 377Q223 355 210 312T178 217Q169 190 160 164T145 117T134 79T130 57Q130 39 144 39Q156 39 169 47T197 67T225 97T250 132L262 124Q248 100 229 76T186 34T136 3T82 -9Q57 -9 42 6T27 49Q27 62 32 83T46 128T63 179T82 230Q99
276 111 315T124 370ZM542 593Q542 567 524 553T485 538Q465 538 447 553T429 593Q429 618 447 633T485 649Q505 649 523 635T542 593ZM423 146Q399 75 381 27T347 -54T317 -109T286 -148Q259 -177 223 -195T147 -213Q102 -213 73 -190T44 -130Q44 -107 58 -91T95
-75Q121 -75 133 -90T146 -124Q146 -135 144 -142T139 -158Q134 -171 134 -179Q134 -185 139 -189T152 -193Q170 -193 184 -185T214 -151Q220 -141 230 -118T251 -65T273 -1T296 64T315 122T330 165Q341 198 352 231T371 293T385 342T391 369Q391 394 371 394Q359
394 339 377T287 310L275 317Q310 381 353 409T431 438Q460 438 475 422T491 377Q491 365 484 338T467 277T444 208T423 146Z" />
<glyph unicode="&#x134;" glyph-name="Jcircumflex" horiz-adv-x="426" d="M486 707L396 777L251 707L246 715Q251 719 262 729T288 753T317 780T346 807T369 828T381 839H430Q432 834 441 817T462 778T482 739T495 714L486 707ZM513 647Q504 646 493 644T473
640Q456 635 441 625T416 598Q401 574 391 538T368 454L298 169Q289 133 271 100T224 42T157 1T71 -14Q6 -14 -32 19T-71 103Q-71 137 -51 160T2 183Q33 183 51 163T69 116Q69 95 61 83T47 63Q39 55 33 48T26 34Q26 22 39 15T66 7Q86 7 101 13T131 35Q148 55 158
85T175 144L253 461Q264 507 270 538T277 586Q277 607 268 618T242 638Q232 642 221 644T201 647L203 657H515L513 647Z" />
<glyph unicode="&#x135;" glyph-name="jcircumflex" horiz-adv-x="236" d="M228 377Q228 365 221 338T204 277T181 208T160 146Q136 75 118 27T84 -54T54 -109T23 -148Q-4 -177 -40 -195T-116 -213Q-161 -213 -190 -190T-219 -130Q-219 -107 -205 -91T-168 -75Q-142
-75 -130 -90T-117 -124Q-117 -135 -119 -142T-124 -158Q-129 -171 -129 -179Q-129 -185 -124 -189T-111 -193Q-93 -193 -79 -185T-49 -151Q-43 -141 -33 -118T-12 -65T10 -1T33 64T52 122T67 165Q78 198 89 231T108 293T122 342T128 369Q128 394 108 394Q96 394
76 377T24 310L12 317Q47 381 90 409T168 438Q197 438 212 422T228 377ZM577 501L483 594L334 501L327 509Q349 532 371 555T413 600T449 639T475 668H524Q528 656 535 638T550 599T568 554T587 507L577 501Z" />
<glyph unicode="&#x136;" glyph-name="Kcommaaccent" horiz-adv-x="649" d="M354 -101Q354 -157 314 -191T212 -242L207 -228Q246 -216 272 -199T298 -162Q298 -153 289 -147Q267 -143 254 -129T240 -94Q240 -69 256 -54T299 -38Q321 -38 337 -54T354 -101ZM503
-14Q474 -14 454 -2T420 31T400 82T391 146Q389 173 389 191T388 223V248Q388 260 387 273Q384 314 367 328T323 342Q300 342 277 327T232 294L208 196Q197 150 191 119T185 70Q185 49 193 38T219 19Q227 15 239 13T259 10L256 0H-53L-51 10Q-42 11 -31 13T-11
17Q5 22 19 32T44 58Q59 82 70 118T94 203L157 461Q168 507 174 538T181 586Q181 607 173 618T148 638Q138 642 125 644T104 647L106 657H417L414 647Q406 646 395 644T376 640Q359 635 345 625T319 598Q305 575 295 539T272 454L240 324L458 507Q493 536 517 560T541
608Q541 632 519 640Q511 643 502 644T483 647L486 657H728L726 647Q709 644 688 638T646 620Q620 606 586 582T513 524L317 363L316 359Q327 364 342 368T372 372Q435 372 469 330T511 186Q518 105 526 69T563 32Q573 32 583 38T601 53T615 72T625 93L638 89Q631
68 620 50T593 17T554 -5T503 -14Z" />
<glyph unicode="&#x137;" glyph-name="kcommaaccent" horiz-adv-x="468" d="M204 157Q204 101 164 67T62 16L57 30Q96 42 122 59T148 96Q148 105 139 111Q117 115 104 129T90 164Q90 189 106 204T149 220Q171 220 187 204T204 157ZM295 -9Q268 -9 253 8T238 47Q238
71 245 99T258 146Q261 158 263 170T265 193Q265 225 250 235T203 246H165L85 0H-16L171 567Q179 592 183 607T188 630Q188 652 177 662Q172 667 161 669T138 674L142 684H306Q311 684 311 679Q311 675 307 666T298 643Q294 633 291 625T285 607T277 585T268 557L171
264H214Q233 264 248 271T276 290T296 313T310 337Q323 361 334 380T359 413Q385 439 415 439Q442 439 457 420T473 375Q473 349 460 333T428 317Q411 317 399 326T386 358Q386 360 387 367T391 381Q396 394 396 399Q396 406 388 406Q373 406 359 383T325 324Q311
299 295 282T254 256V252Q308 243 329 216T352 152Q352 146 351 133T345 102Q341 84 340 74T339 58Q339 37 356 37Q374 37 400 61T450 122L462 114Q448 91 430 69T390 30T344 2T295 -9Z" />
<glyph unicode="&#x139;" glyph-name="Lacute" horiz-adv-x="547" d="M193 715Q241 751 269 774T324 816Q347 832 358 838T385 844Q403 844 414 833T425 803Q425 783 409 771T367 750Q353 745 338 741T302 732T257 721T198 707L193 715ZM-51 10Q-42 11 -31 13T-11
18Q6 23 20 32T45 58Q59 81 70 118T94 203L158 462Q169 508 175 538T181 586Q181 607 172 619T146 638Q136 642 124 644T104 647L107 657H419L416 647Q408 646 396 644T376 639Q360 634 345 624T319 598Q305 575 295 539T272 454L202 170Q194 138 190 117T185 79Q185
53 198 40Q215 23 257 23H281Q320 23 353 40T412 78Q453 111 483 147T530 211H541L471 0H-53L-51 10Z" />
<glyph unicode="&#x13a;" glyph-name="lacute" horiz-adv-x="265" d="M417 826Q417 805 403 793T362 768Q334 755 298 741T207 706L202 714Q223 735 238 750T265 778T288 801T311 824Q334 846 349 854T378 863Q417 863 417 826ZM162 217Q141 157 127 115T112 58Q112
39 126 39Q138 39 152 47T182 67T212 97T238 132L250 124Q236 100 216 76T171 34T120 3T65 -9Q38 -9 24 7T9 51Q9 65 15 86T29 133T48 185T67 236Q72 252 82 280T103 341T128 411T152 478T171 533T183 567Q190 586 194 603T199 630Q199 653 189 662Q184 667 174
669T151 674L154 684H318Q323 684 323 679Q323 675 319 666T310 643Q306 633 303 625T297 606T290 585T280 557Q221 389 193 307T162 217Z" />
<glyph unicode="&#x13b;" glyph-name="Lcommaaccent" horiz-adv-x="547" d="M286 -101Q286 -157 246 -191T144 -242L139 -228Q178 -216 204 -199T230 -162Q230 -153 221 -147Q199 -143 186 -129T172 -94Q172 -69 188 -54T231 -38Q253 -38 269 -54T286 -101ZM-51
10Q-42 11 -31 13T-11 18Q6 23 20 32T45 58Q59 81 70 118T94 203L158 462Q169 508 175 538T181 586Q181 607 172 619T146 638Q136 642 124 644T104 647L107 657H419L416 647Q408 646 396 644T376 639Q360 634 345 624T319 598Q305 575 295 539T272 454L202 170Q194
138 190 117T185 79Q185 53 198 40Q215 23 257 23H281Q320 23 353 40T412 78Q453 111 483 147T530 211H541L471 0H-53L-51 10Z" />
<glyph unicode="&#x13c;" glyph-name="lcommaaccent" horiz-adv-x="265" d="M355 157Q355 101 315 67T213 16L208 30Q247 42 273 59T299 96Q299 105 290 111Q268 115 255 129T241 164Q241 189 257 204T300 220Q322 220 338 204T355 157ZM162 217Q141 157 127 115T112
58Q112 39 126 39Q138 39 152 47T182 67T212 97T238 132L250 124Q236 100 216 76T171 34T120 3T65 -9Q38 -9 24 7T9 51Q9 65 15 86T29 133T48 185T67 236Q72 252 82 280T103 341T128 411T152 478T171 533T183 567Q190 586 194 603T199 630Q199 653 189 662Q184
667 174 669T151 674L154 684H318Q323 684 323 679Q323 675 319 666T310 643Q306 633 303 625T297 606T290 585T280 557Q221 389 193 307T162 217Z" />
<glyph unicode="&#x13d;" glyph-name="Lcaron" horiz-adv-x="547" d="M490 658H562Q537 616 505 570T434 466H422L490 658ZM-51 10Q-42 11 -31 13T-11 18Q6 23 20 32T45 58Q59 81 70 118T94 203L158 462Q169 508 175 538T181 586Q181 607 172 619T146 638Q136
642 124 644T104 647L107 657H419L416 647Q408 646 396 644T376 639Q360 634 345 624T319 598Q305 575 295 539T272 454L202 170Q194 138 190 117T185 79Q185 53 198 40Q215 23 257 23H281Q320 23 353 40T412 78Q453 111 483 147T530 211H541L471 0H-53L-51 10Z"
/>
<glyph unicode="&#x13e;" glyph-name="lcaron" horiz-adv-x="265" d="M378 684H450Q425 642 393 596T322 492H310L378 684ZM162 217Q141 157 127 115T112 58Q112 39 126 39Q138 39 152 47T182 67T212 97T238 132L250 124Q236 100 216 76T171 34T120 3T65 -9Q38
-9 24 7T9 51Q9 65 15 86T29 133T48 185T67 236Q72 252 82 280T103 341T128 411T152 478T171 533T183 567Q190 586 194 603T199 630Q199 653 189 662Q184 667 174 669T151 674L154 684H318Q323 684 323 679Q323 675 319 666T310 643Q306 633 303 625T297 606T290
585T280 557Q221 389 193 307T162 217Z" />
<glyph unicode="&#x13f;" glyph-name="Ldot" horiz-adv-x="547" d="M405 351Q405 377 423 393T464 410Q487 410 505 394T524 351Q524 324 506 309T464 293Q441 293 423 309T405 351ZM-51 10Q-42 11 -31 13T-11 18Q6 23 20 32T45 58Q59 81 70 118T94 203L158 462Q169
508 175 538T181 586Q181 607 172 619T146 638Q136 642 124 644T104 647L107 657H419L416 647Q408 646 396 644T376 639Q360 634 345 624T319 598Q305 575 295 539T272 454L202 170Q194 138 190 117T185 79Q185 53 198 40Q215 23 257 23H281Q320 23 353 39T412
76Q452 109 482 143T529 206H539L471 0H-53L-51 10Z" />
<glyph unicode="&#x140;" glyph-name="ldot" horiz-adv-x="265" d="M364 318Q364 292 346 278T306 263Q284 263 267 278T249 318Q249 344 266 360T306 376Q328 376 346 360T364 318ZM162 217Q141 157 127 115T112 58Q112 39 126 39Q138 39 152 47T182 67T212 97T238
132L250 124Q236 100 216 76T171 34T120 3T65 -9Q38 -9 24 7T9 51Q9 65 15 86T29 133T48 185T67 236Q72 252 82 280T103 341T128 411T152 478T171 533T183 567Q190 586 194 603T199 630Q199 653 189 662Q184 667 174 669T151 674L154 684H318Q323 684 323 679Q323
675 319 666T310 643Q306 633 303 625T297 606T290 585T280 557Q221 389 193 307T162 217Z" />
<glyph unicode="&#x141;" glyph-name="Lslash" horiz-adv-x="547" d="M-51 10Q-42 11 -31 13T-11 18Q6 23 20 32T45 58Q59 81 70 118T94 203L108 262L3 224L9 250L115 288L158 462Q169 508 175 538T181 586Q181 607 172 619T146 638Q136 642 124 644T104 647L107
657H419L416 647Q408 646 396 644T376 639Q360 634 345 624T319 598Q305 575 295 539T272 454L242 334L471 417L465 390L236 308L202 170Q194 138 190 117T185 79Q185 53 198 40Q215 23 257 23H281Q320 23 353 40T412 78Q453 111 483 147T530 211H541L471 0H-53L-51
10Z" />
<glyph unicode="&#x142;" glyph-name="lslash" horiz-adv-x="265" d="M34 315L106 348Q117 378 128 411Q141 447 152 478T171 533T183 567Q190 586 195 603T200 630Q200 653 190 662Q185 667 174 669T151 674L154 684H318Q323 684 323 679Q323 675 320 666T311
643Q303 623 298 606T281 557Q249 468 227 403L308 440L303 417L218 378Q204 336 193 306Q165 224 163 217Q142 157 127 115T112 58Q112 39 126 39Q138 39 153 47T183 67T212 97T238 132L251 124Q237 100 217 76T172 34T120 3T65 -9Q38 -9 23 7T8 51Q8 65 14 86T29
133T48 185T67 236Q73 252 83 280Q90 300 98 324L28 292L34 315Z" />
<glyph unicode="&#x143;" glyph-name="Nacute" horiz-adv-x="648" d="M353 715Q401 751 429 774T484 816Q507 832 518 838T545 844Q563 844 574 833T585 803Q585 783 569 771T527 750Q513 745 498 741T462 732T417 721T358 707L353 715ZM716 647Q709 645 701 644T685
640Q671 636 659 628T635 605Q626 593 615 566T590 486L467 -8H442L206 521H201L113 170Q106 142 103 117T100 77Q100 51 110 36T138 16Q146 14 156 13T177 10L174 0H-53L-51 10Q-43 11 -33 12T-15 17Q14 25 36 54Q47 67 61 95T87 172L161 464Q166 486 169 501T175
528T178 550T179 571Q179 592 165 611T129 639Q121 641 110 643T91 647L93 657H284L487 189H490L561 478Q570 514 574 539T578 578Q578 603 566 618T536 640Q529 643 519 644T497 647L499 657H719L716 647Z" />
<glyph unicode="&#x144;" glyph-name="nacute" horiz-adv-x="509" d="M462 625Q462 603 448 591T407 566Q379 553 343 540T252 504L247 512Q268 533 283 549T310 577T334 600T357 622Q379 644 394 653T423 662Q462 662 462 625ZM497 124Q483 100 463 76T420 33T370
3T317 -9Q291 -9 276 6T260 49Q260 62 265 82T279 127T297 177T316 230Q333 279 347 317T361 372Q361 385 356 389T342 394Q330 394 310 380T266 334T215 254T161 137Q148 105 136 71T112 0H12Q22 33 35 72T61 148L101 267Q114 305 119 328T124 368Q124 396 103
396Q91 396 70 378T18 311L5 318Q40 382 80 410T155 438Q185 438 198 423T212 378Q212 355 206 323T190 253H197Q250 353 298 395T390 438Q424 438 439 419T455 366Q455 337 443 301T409 204Q401 180 393 157T379 114T369 80T365 58Q365 39 378 39Q389 39 403 47T431
67T460 96T485 131L497 124Z" />
<glyph unicode="&#x145;" glyph-name="Ncommaaccent" horiz-adv-x="648" d="M315 -101Q315 -157 275 -191T173 -242L168 -228Q207 -216 233 -199T259 -162Q259 -153 250 -147Q228 -143 215 -129T201 -94Q201 -69 217 -54T260 -38Q282 -38 298 -54T315 -101ZM716
647Q709 645 701 644T685 640Q671 636 659 628T635 605Q626 593 615 566T590 486L467 -8H442L206 521H201L113 170Q106 142 103 117T100 77Q100 51 110 36T138 16Q146 14 156 13T177 10L174 0H-53L-51 10Q-43 11 -33 12T-15 17Q14 25 36 54Q47 67 61 95T87 172L161
464Q166 486 169 501T175 528T178 550T179 571Q179 592 165 611T129 639Q121 641 110 643T91 647L93 657H284L487 189H490L561 478Q570 514 574 539T578 578Q578 603 566 618T536 640Q529 643 519 644T497 647L499 657H719L716 647Z" />
<glyph unicode="&#x146;" glyph-name="ncommaaccent" horiz-adv-x="509" d="M234 157Q234 101 194 67T92 16L87 30Q126 42 152 59T178 96Q178 105 169 111Q147 115 134 129T120 164Q120 189 136 204T179 220Q201 220 217 204T234 157ZM497 124Q483 100 463 76T420
33T370 3T317 -9Q291 -9 276 6T260 49Q260 62 265 82T279 127T297 177T316 230Q333 279 347 317T361 372Q361 385 356 389T342 394Q330 394 310 380T266 334T215 254T161 137Q148 105 136 71T112 0H12Q22 33 35 72T61 148L101 267Q114 305 119 328T124 368Q124
396 103 396Q91 396 70 378T18 311L5 318Q40 382 80 410T155 438Q185 438 198 423T212 378Q212 355 206 323T190 253H197Q250 353 298 395T390 438Q424 438 439 419T455 366Q455 337 443 301T409 204Q401 180 393 157T379 114T369 80T365 58Q365 39 378 39Q389
39 403 47T431 67T460 96T485 131L497 124Z" />
<glyph unicode="&#x147;" glyph-name="Ncaron" horiz-adv-x="648" d="M353 842L444 772L587 842L593 835Q588 831 577 821T551 797T522 770T493 743T470 721T458 710H409Q407 714 398 732T377 771T356 811L344 836L353 842ZM716 647Q709 645 701 644T685 640Q671
636 659 628T635 605Q626 593 615 566T590 486L467 -8H442L206 521H201L113 170Q106 142 103 117T100 77Q100 51 110 36T138 16Q146 14 156 13T177 10L174 0H-53L-51 10Q-43 11 -33 12T-15 17Q14 25 36 54Q47 67 61 95T87 172L161 464Q166 486 169 501T175 528T178
550T179 571Q179 592 165 611T129 639Q121 641 110 643T91 647L93 657H284L487 189H490L561 478Q570 514 574 539T578 578Q578 603 566 618T536 640Q529 643 519 644T497 647L499 657H719L716 647Z" />
<glyph unicode="&#x148;" glyph-name="ncaron" horiz-adv-x="509" d="M230 662L325 568L473 662L480 655Q458 632 436 608T394 563T358 524T332 495H283Q278 507 272 525T257 564T239 609T221 656L230 662ZM497 124Q483 100 463 76T420 33T370 3T317 -9Q291 -9
276 6T260 49Q260 62 265 82T279 127T297 177T316 230Q333 279 347 317T361 372Q361 385 356 389T342 394Q330 394 310 380T266 334T215 254T161 137Q148 105 136 71T112 0H12Q22 33 35 72T61 148L101 267Q114 305 119 328T124 368Q124 396 103 396Q91 396 70 378T18
311L5 318Q40 382 80 410T155 438Q185 438 198 423T212 378Q212 355 206 323T190 253H197Q250 353 298 395T390 438Q424 438 439 419T455 366Q455 337 443 301T409 204Q401 180 393 157T379 114T369 80T365 58Q365 39 378 39Q389 39 403 47T431 67T460 96T485 131L497
124Z" />
<glyph unicode="&#x149;" glyph-name="napostrophe" horiz-adv-x="509" d="M242 480Q254 484 270 491T300 507T326 527T341 549Q342 554 341 557T336 564Q311 569 300 585T289 622Q289 647 306 663T349 679Q372 679 390 663T408 616Q408 587 394 564T357 522T305
490T246 467L242 480ZM497 124Q483 100 463 76T420 33T370 3T317 -9Q291 -9 276 6T260 49Q260 62 265 82T279 127T297 177T316 230Q333 279 347 317T361 372Q361 385 356 389T342 394Q330 394 310 380T266 334T215 254T161 137Q148 105 136 71T112 0H12Q22 33 35
72T61 148L101 267Q114 305 119 328T124 368Q124 396 103 396Q91 396 70 378T18 311L5 318Q40 382 80 410T155 438Q185 438 198 423T212 378Q212 355 206 323T190 253H197Q250 353 298 395T390 438Q424 438 439 419T455 366Q455 337 443 301T409 204Q401 180 393
157T379 114T369 80T365 58Q365 39 378 39Q389 39 403 47T431 67T460 96T485 131L497 124Z" />
<glyph unicode="&#x14a;" glyph-name="Eng" horiz-adv-x="648" d="M297 -178Q348 -178 382 -144T435 -32L442 -4L206 521H201L113 170Q106 142 103 117T100 77Q100 51 110 36T138 16Q146 14 155 13T176 10L174 0H-53L-51 10Q-43 11 -33 12T-15 17Q14 25 36 54Q47
67 61 95T87 172L161 464Q166 486 169 501T175 528T178 550T179 571Q179 592 165 611T129 639Q121 641 110 643T91 647L93 657H284L487 191H490L561 478Q570 514 574 539T578 578Q578 603 566 618T536 640Q529 643 519 644T497 647L499 657H719L716 647Q709 645
701 644T685 640Q671 636 659 628T635 605Q626 593 615 566T590 486L465 -19Q456 -57 443 -90T411 -147T363 -185T294 -199Q236 -199 203 -168T169 -88Q169 -53 190 -34T236 -15Q266 -15 282 -33T299 -77Q299 -97 291 -109T276 -128Q268 -136 263 -143T258 -156Q258
-167 269 -172T297 -178Z" />
<glyph unicode="&#x14b;" glyph-name="eng" horiz-adv-x="481" d="M361 373Q361 385 356 389T342 394Q330 394 310 380T266 334T215 254T161 137Q148 105 136 71T112 0H12Q22 33 35 72T61 148L101 267Q114 305 119 328T124 368Q124 396 103 396Q91 396 70 378T18
311L5 318Q40 382 80 410T155 438Q185 438 198 423T212 378Q212 355 206 323T190 253H197Q250 353 298 395T390 438Q424 438 439 419T455 366Q455 337 441 292T407 187Q357 46 321 -33T254 -147Q226 -177 190 -195T114 -213Q69 -213 41 -190T12 -130Q12 -106 26
-91T63 -75Q89 -75 101 -90T114 -123Q114 -134 112 -142T106 -158Q104 -163 103 -169T101 -179Q101 -185 106 -189T119 -193Q137 -193 152 -185T182 -151Q188 -141 198 -115T222 -54T248 20T274 96T297 162T313 208L329 257Q338 283 345 306T356 346T361 373Z"
/>
<glyph unicode="&#x14c;" glyph-name="Omacron" horiz-adv-x="631" d="M287 722L298 762H556L545 722H287ZM619 414Q619 369 609 321T578 228T530 141T465 70Q418 31 365 9T254 -14Q207 -14 166 2T95 51T47 132T29 242Q29 287 39 335T70 428T118 515T183 586Q230
626 282 648T393 670Q440 670 481 654T553 605T601 524T619 414ZM503 494Q503 536 495 565T471 612T436 639T393 648Q358 648 329 629T279 587Q261 567 238 524T194 423T159 298T145 162Q145 79 177 44T255 8Q290 8 319 27T369 70Q387 89 410 132T454 233T489 358T503
494Z" />
<glyph unicode="&#x14d;" glyph-name="omacron" horiz-adv-x="411" d="M169 554L179 594H413L403 554H169ZM146 -9Q83 -9 48 32T12 144Q10 207 34 268T102 373Q132 404 172 421T255 438Q318 438 353 396T389 281Q389 220 365 160T299 57Q268 26 229 9T146 -9ZM254
421Q230 421 213 406T182 366Q168 343 154 306T127 228T108 145T100 73Q101 42 111 25T146 8Q170 8 187 23T218 63Q232 86 246 122T272 199T292 280T300 354Q302 421 254 421Z" />
<glyph unicode="&#x14e;" glyph-name="Obreve" horiz-adv-x="631" d="M327 842Q333 805 362 789T428 772Q469 772 503 787T559 841L569 835Q565 808 554 785T524 745T479 717T420 707Q399 707 380 713T346 731T322 760T312 802Q312 819 315 836L327 842ZM619 414Q619
369 609 321T578 228T530 141T465 70Q418 31 365 9T254 -14Q207 -14 166 2T95 51T47 132T29 242Q29 287 39 335T70 428T118 515T183 586Q230 626 282 648T393 670Q440 670 481 654T553 605T601 524T619 414ZM503 494Q503 536 495 565T471 612T436 639T393 648Q358
648 329 629T279 587Q261 567 238 524T194 423T159 298T145 162Q145 79 177 44T255 8Q290 8 319 27T369 70Q387 89 410 132T454 233T489 358T503 494Z" />
<glyph unicode="&#x14f;" glyph-name="obreve" horiz-adv-x="411" d="M146 -9Q83 -9 48 32T12 144Q10 207 34 268T102 373Q132 404 172 421T255 438Q318 438 353 396T389 281Q389 220 365 160T299 57Q268 26 229 9T146 -9ZM254 421Q230 421 213 406T182 366Q168
343 154 306T127 228T108 145T100 73Q101 42 111 25T146 8Q170 8 187 23T218 63Q232 86 246 122T272 199T292 280T300 354Q302 421 254 421ZM183 673Q187 651 197 636T221 612T252 599T286 595Q326 595 355 614T411 674L421 667Q417 641 407 616T380 571T338 539T280
527Q233 527 201 554T168 633Q168 650 171 667L183 673Z" />
<glyph unicode="&#x150;" glyph-name="Ohungarumlaut" horiz-adv-x="631" d="M498 837Q498 817 482 804T445 777L425 765Q415 759 401 752T368 734T321 708H302Q321 733 333 749T355 776T373 798T392 821Q413 846 429 858T462 870Q479 870 488 861T498 837ZM655
836Q655 817 639 804T602 777Q592 771 582 765T557 752T524 734T478 708H459Q478 733 490 749T512 776T530 798T549 821Q570 846 586 858T619 870Q636 870 645 861T655 836ZM619 414Q619 369 609 321T578 228T530 141T465 70Q418 31 365 9T254 -14Q207 -14 166
2T95 51T47 132T29 242Q29 287 39 335T70 428T118 515T183 586Q230 626 282 648T393 670Q440 670 481 654T553 605T601 524T619 414ZM503 494Q503 536 495 565T471 612T436 639T393 648Q358 648 329 629T279 587Q261 567 238 524T194 423T159 298T145 162Q145 79
177 44T255 8Q290 8 319 27T369 70Q387 89 410 132T454 233T489 358T503 494Z" />
<glyph unicode="&#x151;" glyph-name="ohungarumlaut" horiz-adv-x="411" d="M309 670Q326 670 335 660T345 632Q345 615 336 604T310 579Q288 562 257 541T169 482L161 489Q178 515 191 535T214 571T234 601T252 627Q267 650 278 660T309 670ZM471 670Q488 670
497 660T507 632Q507 615 498 604T471 579Q449 562 419 541T331 482L323 489Q356 541 376 571T414 627Q429 650 440 660T471 670ZM146 -9Q83 -9 48 32T12 144Q10 207 34 268T102 373Q132 404 172 421T255 438Q318 438 353 396T389 281Q389 220 365 160T299 57Q268
26 229 9T146 -9ZM254 421Q230 421 213 406T182 366Q168 343 154 306T127 228T108 145T100 73Q101 42 111 25T146 8Q170 8 187 23T218 63Q232 86 246 122T272 199T292 280T300 354Q302 421 254 421Z" />
<glyph unicode="&#x152;" glyph-name="OE" horiz-adv-x="907" d="M411 0Q397 0 377 -1T334 -2T289 -4T249 -5Q205 -5 165 9T95 54T47 131T29 243Q29 323 56 398T131 531T249 624T402 659Q419 659 442 659T491 658T538 658T575 657H896L894 457H883Q876 495 863
529T833 589Q821 605 800 620T738 635H714Q683 635 664 621Q651 613 639 596T617 538L571 352H598Q641 352 663 358T704 378Q727 398 744 426T770 478H780L711 201H701Q703 226 701 255T685 300Q677 313 658 321T597 329H566L526 170Q517 136 513 116T509 79Q509
47 527 35T581 22H605Q644 22 677 39T736 77Q777 110 807 148T855 215H865L796 0H411ZM405 637Q374 637 352 629T310 605Q280 583 255 542T209 452T176 348T155 243T148 152T154 88Q166 48 192 33T251 17Q283 17 308 27T349 60Q361 76 377 115T411 207T444 319T471
432T485 528T481 591Q471 617 454 627T405 637Z" />
<glyph unicode="&#x153;" glyph-name="oe" horiz-adv-x="620" d="M618 365Q618 345 607 326T576 290Q562 278 540 266T491 241T436 218T380 198Q368 144 368 92Q368 58 381 41T419 23Q446 23 469 33T511 58T544 92T569 127L581 120Q567 94 548 71T504 30T451 2T388
-9Q352 -9 326 13T291 65H287Q261 33 223 12T145 -9Q82 -9 48 32T12 144Q10 206 34 268T102 373Q132 404 171 421T253 439Q298 439 323 413T360 347H364Q377 365 396 381T436 410T479 431T522 439Q575 439 596 418T618 365ZM542 381Q542 398 536 409T516 420Q497
420 478 404T441 359T408 294T384 215Q396 219 413 226T447 243T480 263T505 283Q525 303 533 332T542 381ZM298 354Q300 422 253 422Q230 422 213 407T182 366Q168 343 154 306T127 228T108 145T100 73Q101 42 111 25T145 8Q168 8 185 23T216 63Q229 86 243 122T270
199T290 280T298 354Z" />
<glyph unicode="&#x154;" glyph-name="Racute" horiz-adv-x="637" d="M308 715Q356 751 384 774T439 816Q462 832 473 838T500 844Q518 844 529 833T540 803Q540 783 524 771T482 750Q468 745 453 741T417 732T372 721T313 707L308 715ZM495 -14Q435 -14 409 24T380
138Q379 186 378 221T362 283Q356 293 350 300T335 312T313 319T280 322H236L205 195Q194 150 188 120T181 71Q181 50 190 39T217 19Q227 15 239 13T259 10L257 0H-53L-51 10Q-42 11 -33 13T-15 17Q2 22 16 32T41 58Q55 82 66 118T90 203L155 466Q166 512 172 540T178
587Q178 608 169 619T143 638Q133 642 121 644T101 647L104 657H395Q448 657 485 648T547 621T582 580T593 526Q593 471 558 429T465 359Q448 351 426 345T371 333V329Q397 324 411 318T442 300Q465 284 481 253T501 174Q504 134 507 107T516 63T530 39T551 31Q561
31 570 37T588 52T604 72T615 93L628 88Q620 68 608 50T580 17T542 -5T495 -14ZM475 549Q475 589 456 612T398 635H367Q353 635 341 632T319 618Q311 609 305 594T294 555L242 345H294Q345 345 374 354T423 385Q435 398 444 418T461 460T471 506T475 549Z" />
<glyph unicode="&#x155;" glyph-name="racute" horiz-adv-x="389" d="M413 625Q413 603 399 591T358 566Q330 553 294 540T203 504L198 512Q219 533 234 549T261 577T285 600T308 622Q330 644 345 653T374 662Q413 662 413 625ZM195 253Q216 309 235 345T273 401T309
430T348 438Q377 438 395 421T414 373Q414 345 401 331T368 317Q351 317 339 326T319 361Q315 375 313 382T301 389Q290 389 277 375T248 330T211 251T163 135Q150 103 138 70T113 0H15Q25 33 38 72T64 148T87 217L104 267Q116 305 120 328T124 368Q124 395 103
395Q91 395 70 377T17 310L5 317Q40 380 80 409T155 438Q184 438 196 423T209 378Q209 353 204 322T188 253H195Z" />
<glyph unicode="&#x156;" glyph-name="Rcommaaccent" horiz-adv-x="637" d="M340 -101Q340 -157 300 -191T198 -242L193 -228Q232 -216 258 -199T284 -162Q284 -153 275 -147Q253 -143 240 -129T226 -94Q226 -69 242 -54T285 -38Q307 -38 323 -54T340 -101ZM495
-14Q435 -14 409 24T380 138Q379 186 378 221T362 283Q356 293 350 300T335 312T313 319T280 322H236L205 195Q194 150 188 120T181 71Q181 50 190 39T217 19Q227 15 239 13T259 10L257 0H-53L-51 10Q-42 11 -33 13T-15 17Q2 22 16 32T41 58Q55 82 66 118T90 203L155
466Q166 512 172 540T178 587Q178 608 169 619T143 638Q133 642 121 644T101 647L104 657H395Q448 657 485 648T547 621T582 580T593 526Q593 471 558 429T465 359Q448 351 426 345T371 333V329Q397 324 411 318T442 300Q465 284 481 253T501 174Q504 134 507 107T516
63T530 39T551 31Q561 31 570 37T588 52T604 72T615 93L628 88Q620 68 608 50T580 17T542 -5T495 -14ZM475 549Q475 589 456 612T398 635H367Q353 635 341 632T319 618Q311 609 305 594T294 555L242 345H294Q345 345 374 354T423 385Q435 398 444 418T461 460T471
506T475 549Z" />
<glyph unicode="&#x157;" glyph-name="rcommaaccent" horiz-adv-x="389" d="M361 157Q361 101 321 67T219 16L214 30Q253 42 279 59T305 96Q305 105 296 111Q274 115 261 129T247 164Q247 189 263 204T306 220Q328 220 344 204T361 157ZM195 253Q216 309 235 345T273
401T309 430T348 438Q377 438 395 421T414 373Q414 345 401 331T368 317Q351 317 339 326T319 361Q315 375 313 382T301 389Q290 389 277 375T248 330T211 251T163 135Q150 103 138 70T113 0H15Q25 33 38 72T64 148T87 217L104 267Q116 305 120 328T124 368Q124
395 103 395Q91 395 70 377T17 310L5 317Q40 380 80 409T155 438Q184 438 196 423T209 378Q209 353 204 322T188 253H195Z" />
<glyph unicode="&#x158;" glyph-name="Rcaron" horiz-adv-x="637" d="M310 842L401 772L544 842L550 835Q545 831 534 821T508 797T479 770T450 743T427 721T415 710H366Q364 714 355 732T334 771T313 811L301 836L310 842ZM495 -14Q435 -14 409 24T380 138Q379
186 378 221T362 283Q356 293 350 300T335 312T313 319T280 322H236L205 195Q194 150 188 120T181 71Q181 50 190 39T217 19Q227 15 239 13T259 10L257 0H-53L-51 10Q-42 11 -33 13T-15 17Q2 22 16 32T41 58Q55 82 66 118T90 203L155 466Q166 512 172 540T178 587Q178
608 169 619T143 638Q133 642 121 644T101 647L104 657H395Q448 657 485 648T547 621T582 580T593 526Q593 471 558 429T465 359Q448 351 426 345T371 333V329Q397 324 411 318T442 300Q465 284 481 253T501 174Q504 134 507 107T516 63T530 39T551 31Q561 31 570
37T588 52T604 72T615 93L628 88Q620 68 608 50T580 17T542 -5T495 -14ZM475 549Q475 589 456 612T398 635H367Q353 635 341 632T319 618Q311 609 305 594T294 555L242 345H294Q345 345 374 354T423 385Q435 398 444 418T461 460T471 506T475 549Z" />
<glyph unicode="&#x159;" glyph-name="rcaron" horiz-adv-x="389" d="M184 662L279 568L427 662L434 655Q412 632 390 608T348 563T312 524T286 495H237Q232 507 226 525T211 564T193 609T175 656L184 662ZM195 253Q216 309 235 345T273 401T309 430T348 438Q377
438 395 421T414 373Q414 345 401 331T368 317Q351 317 339 326T319 361Q315 375 313 382T301 389Q290 389 277 375T248 330T211 251T163 135Q150 103 138 70T113 0H15Q25 33 38 72T64 148T87 217L104 267Q116 305 120 328T124 368Q124 395 103 395Q91 395 70 377T17
310L5 317Q40 380 80 409T155 438Q184 438 196 423T209 378Q209 353 204 322T188 253H195Z" />
<glyph unicode="&#x15a;" glyph-name="Sacute" horiz-adv-x="509" d="M471 452H458Q458 473 456 494T448 535T437 572T422 601Q410 621 389 635T326 649Q276 649 247 622T217 544Q217 519 225 499T246 463T275 431T308 402Q340 373 366 350T410 304T439 253T449
189Q449 142 429 104T377 40T303 0T218 -14Q164 -14 123 8T61 60H55L3 4H-6L46 240H59Q62 186 72 143T102 70T150 24T219 8Q250 8 274 18T315 44T340 83T349 129Q349 153 342 173T319 212T282 251T232 295Q209 315 189 334T153 375T128 424T119 486Q119 521 132
554T172 613T237 655T326 671Q375 671 410 653T462 611H464L501 656H513L471 452ZM270 715Q318 751 346 774T401 816Q424 832 435 838T462 844Q480 844 491 833T502 803Q502 783 486 771T444 750Q430 745 415 741T379 732T334 721T275 707L270 715Z" />
<glyph unicode="&#x15b;" glyph-name="sacute" horiz-adv-x="327" d="M382 625Q382 603 368 591T327 566Q299 553 263 540T172 504L167 512Q188 533 203 549T230 577T254 600T277 622Q299 644 314 653T343 662Q382 662 382 625ZM323 357Q323 337 312 325T283 312Q266
312 256 322T243 347Q241 362 244 370T246 392Q244 403 234 412T206 421Q174 421 162 403T149 359Q149 334 163 312T205 256Q242 210 260 182T279 123Q279 91 265 67T228 26T177 0T120 -9Q66 -9 30 17T-6 89Q-6 115 7 130T40 146Q58 146 69 136T81 107Q81 87 74
75T66 49Q66 26 84 17T122 8Q156 8 176 27T196 80Q196 93 192 103T179 126T157 154T126 191Q112 209 102 223T86 252T76 281T73 315Q73 343 84 365T115 404T159 429T211 438Q233 438 253 433T289 418T314 392T323 357Z" />
<glyph unicode="&#x15c;" glyph-name="Scircumflex" horiz-adv-x="509" d="M465 707L375 777L230 707L225 715Q230 719 241 729T267 753T296 780T325 807T348 828T360 839H409Q411 834 420 817T441 778T461 739T474 714L465 707ZM471 452H458Q458 473 456 494T448
535T437 572T422 601Q410 621 389 635T326 649Q276 649 247 622T217 544Q217 519 225 499T246 463T275 431T308 402Q340 373 366 350T410 304T439 253T449 189Q449 142 429 104T377 40T303 0T218 -14Q164 -14 123 8T61 60H55L3 4H-6L46 240H59Q62 186 72 143T102
70T150 24T219 8Q250 8 274 18T315 44T340 83T349 129Q349 153 342 173T319 212T282 251T232 295Q209 315 189 334T153 375T128 424T119 486Q119 521 132 554T172 613T237 655T326 671Q375 671 410 653T462 611H464L501 656H513L471 452Z" />
<glyph unicode="&#x15d;" glyph-name="scircumflex" horiz-adv-x="327" d="M349 501L255 594L106 501L99 509Q121 532 143 555T185 600T221 639T247 668H296Q300 656 307 638T322 599T340 554T359 507L349 501ZM323 357Q323 337 312 325T283 312Q266 312 256 322T243
347Q241 362 244 370T246 392Q244 403 234 412T206 421Q174 421 162 403T149 359Q149 334 163 312T205 256Q242 210 260 182T279 123Q279 91 265 67T228 26T177 0T120 -9Q66 -9 30 17T-6 89Q-6 115 7 130T40 146Q58 146 69 136T81 107Q81 87 74 75T66 49Q66 26
84 17T122 8Q156 8 176 27T196 80Q196 93 192 103T179 126T157 154T126 191Q112 209 102 223T86 252T76 281T73 315Q73 343 84 365T115 404T159 429T211 438Q233 438 253 433T289 418T314 392T323 357Z" />
<glyph unicode="&#x15e;" glyph-name="Scedilla" horiz-adv-x="509" d="M471 452H458Q458 473 456 494T448 535T437 572T422 601Q410 621 389 635T326 649Q276 649 247 622T217 544Q217 519 225 499T246 463T275 431T308 402Q340 373 366 350T410 304T439 253T449
189Q449 142 429 104T377 40T303 0T218 -14Q164 -14 123 8T61 60H55L3 4H-6L46 240H59Q62 186 72 143T102 70T150 24T219 8Q250 8 274 18T315 44T340 83T349 129Q349 153 342 173T319 212T282 251T232 295Q209 315 189 334T153 375T128 424T119 486Q119 521 132
554T172 613T237 655T326 671Q375 671 410 653T462 611H464L501 656H513L471 452ZM261 -98Q261 -119 251 -134T223 -159T182 -175T132 -180Q111 -180 91 -174T59 -159L67 -148Q77 -153 92 -157T124 -161Q159 -161 181 -148T203 -99Q203 -78 193 -68T167 -58Q149
-58 137 -69L122 -62L156 1H177L151 -49Q159 -43 171 -40T194 -37Q229 -37 245 -54T261 -98Z" />
<glyph unicode="&#x15f;" glyph-name="scedilla" horiz-adv-x="327" d="M323 357Q323 337 312 325T283 312Q266 312 256 322T243 347Q241 362 244 370T246 392Q244 403 234 412T206 421Q174 421 162 403T149 359Q149 334 163 312T205 256Q242 210 260 182T279
123Q279 91 265 67T228 26T177 0T120 -9Q66 -9 30 17T-6 89Q-6 115 7 130T40 146Q58 146 69 136T81 107Q81 87 74 75T66 49Q66 26 84 17T122 8Q156 8 176 27T196 80Q196 93 192 103T179 126T157 154T126 191Q112 209 102 223T86 252T76 281T73 315Q73 343 84 365T115
404T159 429T211 438Q233 438 253 433T289 418T314 392T323 357ZM443 -98Q443 -119 433 -134T405 -159T364 -175T314 -180Q293 -180 273 -174T241 -159L249 -148Q259 -153 274 -157T306 -161Q341 -161 363 -148T385 -99Q385 -78 375 -68T349 -58Q331 -58 319 -69L304
-62L338 1H359L333 -49Q341 -43 353 -40T376 -37Q411 -37 427 -54T443 -98Z" />
<glyph unicode="&#x160;" glyph-name="Scaron" horiz-adv-x="509" d="M271 842L362 772L505 842L511 835Q506 831 495 821T469 797T440 770T411 743T388 721T376 710H327Q325 714 316 732T295 771T274 811L262 836L271 842ZM471 452H458Q458 473 456 494T448 535T437
572T422 601Q410 621 389 635T326 649Q276 649 247 622T217 544Q217 519 225 499T246 463T275 431T308 402Q340 373 366 350T410 304T439 253T449 189Q449 142 429 104T377 40T303 0T218 -14Q164 -14 123 8T61 60H55L3 4H-6L46 240H59Q62 186 72 143T102 70T150
24T219 8Q250 8 274 18T315 44T340 83T349 129Q349 153 342 173T319 212T282 251T232 295Q209 315 189 334T153 375T128 424T119 486Q119 521 132 554T172 613T237 655T326 671Q375 671 410 653T462 611H464L501 656H513L471 452Z" />
<glyph unicode="&#x161;" glyph-name="scaron" horiz-adv-x="327" d="M157 662L252 568L400 662L407 655Q385 632 363 608T321 563T285 524T259 495H210Q205 507 199 525T184 564T166 609T148 656L157 662ZM323 357Q323 337 312 325T283 312Q266 312 256 322T243
347Q241 362 244 370T246 392Q244 403 234 412T206 421Q174 421 162 403T149 359Q149 334 163 312T205 256Q242 210 260 182T279 123Q279 91 265 67T228 26T177 0T120 -9Q66 -9 30 17T-6 89Q-6 115 7 130T40 146Q58 146 69 136T81 107Q81 87 74 75T66 49Q66 26
84 17T122 8Q156 8 176 27T196 80Q196 93 192 103T179 126T157 154T126 191Q112 209 102 223T86 252T76 281T73 315Q73 343 84 365T115 404T159 429T211 438Q233 438 253 433T289 418T314 392T323 357Z" />
<glyph unicode="&#x162;" glyph-name="Tcommaaccent" horiz-adv-x="589" d="M252 155Q252 99 212 65T110 14L105 28Q144 40 170 57T196 94Q196 103 187 109Q165 113 152 127T138 162Q138 187 154 202T197 218Q219 218 235 202T252 155ZM627 460H615Q610 493 601
526T566 588Q525 635 453 635H428L320 196Q309 150 303 119T297 71Q297 50 306 38T332 19Q342 15 353 13T373 10L370 0H58L61 10Q69 11 80 13T100 17Q117 22 131 32T155 58Q170 81 181 118T205 203L312 635H284Q215 635 160 588Q128 562 100 527T48 460H36L102
657H653L627 460Z" />
<glyph unicode="&#x163;" glyph-name="tcommaaccent" horiz-adv-x="273" d="M354 157Q354 101 314 67T212 16L207 30Q246 42 272 59T298 96Q298 105 289 111Q267 115 254 129T240 164Q240 189 256 204T299 220Q321 220 337 204T354 157ZM111 58Q111 39 124 39Q136
39 150 47T180 68T209 97T235 132L247 125Q233 101 213 77T170 34T121 3T66 -9Q40 -9 25 7T10 49Q10 62 15 83T29 129T46 180T63 230Q72 257 83 287Q91 313 101 344T122 405H61L67 429H129Q132 438 138 457T151 498T164 541T175 574H273Q269 562 263 541T249 498T236
457T227 429H324L318 405H220Q209 372 198 339T178 278Q167 246 157 217Q148 190 140 164T126 117T115 81T111 58Z" />
<glyph unicode="&#x164;" glyph-name="Tcaron" horiz-adv-x="589" d="M307 842L398 772L541 842L547 835Q542 831 531 821T505 797T476 770T447 743T424 721T412 710H363Q361 714 352 732T331 771T310 811L298 836L307 842ZM627 460H615Q610 493 601 526T566 588Q525
635 453 635H428L320 196Q309 150 303 119T297 71Q297 50 306 38T332 19Q342 15 353 13T373 10L370 0H58L61 10Q69 11 80 13T100 17Q117 22 131 32T155 58Q170 81 181 118T205 203L312 635H284Q215 635 160 588Q128 562 100 527T48 460H36L102 657H653L627 460Z"
/>
<glyph unicode="&#x165;" glyph-name="tcaron" horiz-adv-x="273" d="M372 685H444Q419 643 387 597T316 493H304L372 685ZM111 58Q111 39 124 39Q136 39 150 47T180 68T209 97T235 132L247 125Q233 101 213 77T170 34T121 3T66 -9Q40 -9 25 7T10 49Q10 62 15
83T29 129T46 180T63 230Q72 257 83 287Q91 313 101 344T122 405H61L67 429H129Q132 438 138 457T151 498T164 541T175 574H273Q269 562 263 541T249 498T236 457T227 429H324L318 405H220Q209 372 198 339T178 278Q167 246 157 217Q148 190 140 164T126 117T115
81T111 58Z" />
<glyph unicode="&#x166;" glyph-name="Tbar" horiz-adv-x="589" d="M627 460H615Q610 493 601 526T566 588Q525 635 453 635H428L374 415H507L501 389H367L320 196Q309 150 303 119T297 71Q297 50 306 38T332 19Q342 15 353 13T373 10L370 0H58L61 10Q69 11 80
13T100 17Q117 22 131 32T155 58Q170 81 181 118T205 203L251 389H119L125 415H257L312 635H284Q215 635 160 588Q128 562 100 527T48 460H36L102 657H653L627 460Z" />
<glyph unicode="&#x167;" glyph-name="tbar" horiz-adv-x="274" d="M220 405Q218 398 214 387T207 365T200 343T194 328H301L294 307H188Q183 291 178 276T168 247L158 217Q149 190 141 164T126 117T115 81T111 58Q111 39 125 39Q137 39 151 47T180 68T209 97T236
132L248 125Q233 101 214 77T171 34T121 3T66 -9Q40 -9 25 7T10 49Q10 62 15 83T29 129T46 180T63 230Q68 243 72 256Q76 267 80 280T89 307H34L40 328H96Q97 333 100 343T108 364T115 387T122 405H61L67 429H129L176 574H273L227 429H324L318 405H220Z" />
<glyph unicode="&#x168;" glyph-name="Utilde" horiz-adv-x="654" d="M732 647Q725 645 717 644T701 640Q687 636 676 628T652 604Q642 592 630 561T605 478L539 214Q525 158 504 115T452 44T379 1T280 -14Q180 -14 124 32T67 170Q67 179 68 193T73 223T79 257T87
290L129 461Q140 507 146 538T152 586Q152 607 143 618T117 638Q107 642 96 644T76 647L79 657H384L381 647Q373 646 364 644T347 640Q331 635 316 625T291 598Q277 576 267 542T244 458L187 218Q182 195 179 171T175 123Q175 72 206 43T295 13Q345 13 381 27T442
68T483 131T512 215L577 477Q586 513 589 538T593 578Q593 603 581 617T551 639Q544 642 534 644T512 647L515 657H735L732 647ZM622 823Q607 780 580 751T512 722Q495 722 479 726T448 736T417 746T387 751Q369 751 349 742T312 710L302 713Q321 759 352 786T421
814Q436 814 450 810T478 801T507 791T536 787Q560 787 577 794T612 826L622 823Z" />
<glyph unicode="&#x169;" glyph-name="utilde" horiz-adv-x="513" d="M365 63Q365 51 371 44T386 37Q399 37 413 45T442 66T470 96T495 131L507 124Q493 100 474 76T432 33T384 3T332 -9Q303 -9 288 9T273 59Q273 82 278 108T294 170H287Q260 119 234 85T184 29T137
0T94 -9Q65 -9 48 10T30 62Q30 91 42 128T77 224Q85 248 93 271T108 314T119 350T124 373Q124 395 108 395Q96 395 75 377T22 311L9 318Q44 381 87 409T164 438Q223 438 223 379Q223 366 218 346T206 302T189 252L171 200Q153 150 140 113T126 59Q126 35 146 35Q158
35 177 50T220 97T271 178T325 295Q338 327 350 360T375 429H473Q462 396 450 357T424 281T400 211L384 162Q372 124 369 102T365 63ZM460 632Q444 588 418 560T352 531Q335 531 319 535T288 545T257 555T227 560Q209 560 189 550T152 517L142 521Q161 566 191
594T261 623Q276 623 290 619T318 610T346 601T375 597Q400 597 416 604T450 635L460 632Z" />
<glyph unicode="&#x16a;" glyph-name="Umacron" horiz-adv-x="654" d="M732 647Q725 645 717 644T701 640Q687 636 676 628T652 604Q642 592 630 561T605 478L539 214Q525 158 504 115T452 44T379 1T280 -14Q180 -14 124 32T67 170Q67 179 68 193T73 223T79 257T87
290L129 461Q140 507 146 538T152 586Q152 607 143 618T117 638Q107 642 96 644T76 647L79 657H384L381 647Q373 646 364 644T347 640Q331 635 316 625T291 598Q277 576 267 542T244 458L187 218Q182 195 179 171T175 123Q175 72 206 43T295 13Q345 13 381 27T442
68T483 131T512 215L577 477Q586 513 589 538T593 578Q593 603 581 617T551 639Q544 642 534 644T512 647L515 657H735L732 647ZM324 722L335 762H593L582 722H324Z" />
<glyph unicode="&#x16b;" glyph-name="umacron" horiz-adv-x="513" d="M365 63Q365 51 371 44T386 37Q399 37 413 45T442 66T470 96T495 131L507 124Q493 100 474 76T432 33T384 3T332 -9Q303 -9 288 9T273 59Q273 82 278 108T294 170H287Q260 119 234 85T184
29T137 0T94 -9Q65 -9 48 10T30 62Q30 91 42 128T77 224Q85 248 93 271T108 314T119 350T124 373Q124 395 108 395Q96 395 75 377T22 311L9 318Q44 381 87 409T164 438Q223 438 223 379Q223 366 218 346T206 302T189 252L171 200Q153 150 140 113T126 59Q126 35
146 35Q158 35 177 50T220 97T271 178T325 295Q338 327 350 360T375 429H473Q462 396 450 357T424 281T400 211L384 162Q372 124 369 102T365 63ZM202 554L212 594H446L436 554H202Z" />
<glyph unicode="&#x16c;" glyph-name="Ubreve" horiz-adv-x="654" d="M732 647Q725 645 717 644T701 640Q687 636 676 628T652 604Q642 592 630 561T605 478L539 214Q525 158 504 115T452 44T379 1T280 -14Q180 -14 124 32T67 170Q67 179 68 193T73 223T79 257T87
290L129 461Q140 507 146 538T152 586Q152 607 143 618T117 638Q107 642 96 644T76 647L79 657H384L381 647Q373 646 364 644T347 640Q331 635 316 625T291 598Q277 576 267 542T244 458L187 218Q182 195 179 171T175 123Q175 72 206 43T295 13Q345 13 381 27T442
68T483 131T512 215L577 477Q586 513 589 538T593 578Q593 603 581 617T551 639Q544 642 534 644T512 647L515 657H735L732 647ZM364 842Q370 805 399 789T465 772Q506 772 540 787T596 841L606 835Q602 808 591 785T561 745T516 717T457 707Q436 707 417 713T383
731T359 760T349 802Q349 819 352 836L364 842Z" />
<glyph unicode="&#x16d;" glyph-name="ubreve" horiz-adv-x="513" d="M365 63Q365 51 371 44T386 37Q399 37 413 45T442 66T470 96T495 131L507 124Q493 100 474 76T432 33T384 3T332 -9Q303 -9 288 9T273 59Q273 82 278 108T294 170H287Q260 119 234 85T184 29T137
0T94 -9Q65 -9 48 10T30 62Q30 91 42 128T77 224Q85 248 93 271T108 314T119 350T124 373Q124 395 108 395Q96 395 75 377T22 311L9 318Q44 381 87 409T164 438Q223 438 223 379Q223 366 218 346T206 302T189 252L171 200Q153 150 140 113T126 59Q126 35 146 35Q158
35 177 50T220 97T271 178T325 295Q338 327 350 360T375 429H473Q462 396 450 357T424 281T400 211L384 162Q372 124 369 102T365 63ZM217 673Q221 651 231 636T255 612T286 599T320 595Q360 595 389 614T445 674L455 667Q451 641 441 616T414 571T372 539T314
527Q267 527 235 554T202 633Q202 650 205 667L217 673Z" />
<glyph unicode="&#x16e;" glyph-name="Uring" horiz-adv-x="654" d="M732 647Q725 645 717 644T701 640Q687 636 676 628T652 604Q642 592 630 561T605 478L539 214Q525 158 504 115T452 44T379 1T280 -14Q180 -14 124 32T67 170Q67 179 68 193T73 223T79 257T87
290L129 461Q140 507 146 538T152 586Q152 607 143 618T117 638Q107 642 96 644T76 647L79 657H384L381 647Q373 646 364 644T347 640Q331 635 316 625T291 598Q277 576 267 542T244 458L187 218Q182 195 179 171T175 123Q175 72 206 43T295 13Q345 13 381 27T442
68T483 131T512 215L577 477Q586 513 589 538T593 578Q593 603 581 617T551 639Q544 642 534 644T512 647L515 657H735L732 647ZM538 757Q538 719 514 697T457 675Q427 675 402 696T376 757Q376 797 401 818T457 840Q472 840 486 835T512 819T531 793T538 757ZM514
757Q514 788 497 803T457 819Q434 819 418 804T401 757Q401 727 417 712T457 696Q480 696 497 711T514 757Z" />
<glyph unicode="&#x16f;" glyph-name="uring" horiz-adv-x="513" d="M393 591Q393 552 369 530T312 508Q282 508 257 529T232 591Q232 630 257 651T312 673Q342 673 367 652T393 591ZM369 590Q369 621 352 637T312 653Q289 653 273 637T256 591Q256 561 272 545T312
529Q335 529 352 544T369 590ZM365 63Q365 51 371 44T386 37Q399 37 413 45T442 66T470 96T495 131L507 124Q493 100 474 76T432 33T384 3T332 -9Q303 -9 288 9T273 59Q273 82 278 108T294 170H287Q260 119 234 85T184 29T137 0T94 -9Q65 -9 48 10T30 62Q30 91
42 128T77 224Q85 248 93 271T108 314T119 350T124 373Q124 395 108 395Q96 395 75 377T22 311L9 318Q44 381 87 409T164 438Q223 438 223 379Q223 366 218 346T206 302T189 252L171 200Q153 150 140 113T126 59Q126 35 146 35Q158 35 177 50T220 97T271 178T325
295Q338 327 350 360T375 429H473Q462 396 450 357T424 281T400 211L384 162Q372 124 369 102T365 63Z" />
<glyph unicode="&#x170;" glyph-name="Uhungarumlaut" horiz-adv-x="654" d="M536 837Q536 817 520 804T483 777L463 765Q453 759 439 752T406 734T359 708H340Q359 733 371 749T393 776T411 798T430 821Q451 846 467 858T500 870Q517 870 526 861T536 837ZM693
836Q693 817 677 804T640 777Q630 771 620 765T595 752T562 734T516 708H497Q516 733 528 749T550 776T568 798T587 821Q608 846 624 858T657 870Q674 870 683 861T693 836ZM732 647Q725 645 717 644T701 640Q687 636 676 628T652 604Q642 592 630 561T605 478L539
214Q525 158 504 115T452 44T379 1T280 -14Q180 -14 124 32T67 170Q67 179 68 193T73 223T79 257T87 290L129 461Q140 507 146 538T152 586Q152 607 143 618T117 638Q107 642 96 644T76 647L79 657H384L381 647Q373 646 364 644T347 640Q331 635 316 625T291 598Q277
576 267 542T244 458L187 218Q182 195 179 171T175 123Q175 72 206 43T295 13Q345 13 381 27T442 68T483 131T512 215L577 477Q586 513 589 538T593 578Q593 603 581 617T551 639Q544 642 534 644T512 647L515 657H735L732 647Z" />
<glyph unicode="&#x171;" glyph-name="uhungarumlaut" horiz-adv-x="513" d="M365 63Q365 51 371 44T386 37Q399 37 413 45T442 66T470 96T495 131L507 124Q493 100 474 76T432 33T384 3T332 -9Q303 -9 288 9T273 59Q273 82 278 108T294 170H287Q260 119 234 85T184
29T137 0T94 -9Q65 -9 48 10T30 62Q30 91 42 128T77 224Q85 248 93 271T108 314T119 350T124 373Q124 395 108 395Q96 395 75 377T22 311L9 318Q44 381 87 409T164 438Q223 438 223 379Q223 366 218 346T206 302T189 252L171 200Q153 150 140 113T126 59Q126 35
146 35Q158 35 177 50T220 97T271 178T325 295Q338 327 350 360T375 429H473Q462 396 450 357T424 281T400 211L384 162Q372 124 369 102T365 63ZM342 670Q359 670 368 660T378 632Q378 615 369 604T343 579Q321 562 290 541T202 482L194 489Q211 515 224 535T247
571T267 601T285 627Q300 650 311 660T342 670ZM504 670Q521 670 530 660T540 632Q540 615 531 604T504 579Q482 562 452 541T364 482L356 489Q389 541 409 571T447 627Q462 650 473 660T504 670Z" />
<glyph unicode="&#x172;" glyph-name="Uogonek" horiz-adv-x="654" d="M311 -212Q237 -216 204 -194T170 -138Q170 -116 183 -98T216 -64T260 -36T308 -12Q301 -13 295 -13T281 -14Q179 -14 123 33T67 170Q67 179 68 193T73 223T79 257T87 290L129 461Q140 507
146 538T152 586Q152 607 143 618T117 638Q107 642 96 644T76 647L79 657H384L381 647Q373 646 364 644T347 640Q331 635 316 625T291 598Q277 576 267 542T244 458L187 218Q182 195 179 171T175 123Q175 72 206 43T295 13Q345 13 381 27T442 68T483 131T512 215L577
477Q586 513 589 538T593 578Q593 603 581 617T551 639Q544 642 534 644T512 647L515 657H735L732 647Q725 645 717 644T701 640Q687 636 676 628T652 604Q642 592 630 561T605 478L539 214Q515 120 473 68T368 -3Q311 -19 280 -58T249 -142Q249 -168 264 -183T313
-203L311 -212Z" />
<glyph unicode="&#x173;" glyph-name="uogonek" horiz-adv-x="513" d="M340 -212Q266 -216 233 -194T199 -138Q199 -116 213 -98T249 -63T296 -34T345 -8Q340 -9 337 -9H331Q302 -8 288 10T273 59Q273 82 278 108T294 170H287Q260 119 234 85T184 29T137 0T94
-9Q65 -9 48 10T30 62Q30 91 42 128T77 224Q85 248 93 271T108 314T119 350T124 373Q124 395 108 395Q96 395 75 377T22 311L9 318Q44 381 87 409T164 438Q223 438 223 379Q223 366 218 346T206 302T189 252L171 200Q153 150 140 113T126 59Q126 35 146 35Q158
35 177 50T220 97T271 178T325 295Q338 327 350 360T375 429H473Q462 396 450 357T424 281T400 211L384 162Q372 124 369 102T365 63Q365 51 371 44T386 37Q399 37 413 45T442 66T470 96T495 131L507 124Q486 89 456 57T391 6Q371 -5 351 -20T315 -54T289 -95T278
-142Q278 -168 293 -183T342 -203L340 -212Z" />
<glyph unicode="&#x174;" glyph-name="Wcircumflex" horiz-adv-x="907" d="M708 707L618 777L473 707L468 715Q473 719 484 729T510 753T539 780T568 807T591 828T603 839H652Q654 834 663 817T684 778T704 739T717 714L708 707ZM371 -1L487 470H483L80 -1H12L126
462Q150 553 150 586Q150 607 141 619T114 638Q105 642 94 644T74 647L77 657H381L378 647Q370 646 361 644T344 640Q328 635 314 626T290 600Q276 576 265 540T241 455L164 138H170L496 521Q500 539 503 557T506 586Q506 607 497 619T471 638Q461 642 451 644T432
647L435 657H737L734 647Q726 646 717 644T700 640Q684 635 670 626T646 600Q632 576 621 540T597 455L523 138H529L844 515Q879 556 879 590Q879 604 872 615T853 633Q840 640 829 642T801 647L804 657H1057L1055 647Q1045 645 1033 642T1009 633Q973 616 941
585T878 518L441 -1H371Z" />
<glyph unicode="&#x175;" glyph-name="wcircumflex" horiz-adv-x="674" d="M561 501L467 594L318 501L311 509Q333 532 355 555T397 600T433 639T459 668H508Q512 656 519 638T534 599T552 554T571 507L561 501ZM420 -9Q378 -9 351 9T309 59Q272 29 234 10T152
-9Q108 -9 80 18T52 94Q52 127 64 161T95 228T135 287T172 334Q159 338 143 345T108 366Q93 376 79 385T53 395Q51 395 48 393T44 386Q44 383 48 377T58 364Q69 345 69 334Q69 317 60 307T36 296Q0 296 0 338Q0 352 11 371T38 404Q52 418 71 428T109 438Q122 438
135 431T162 415Q198 392 212 392Q220 392 224 396T232 407Q240 423 246 430T264 438Q270 438 274 435T279 423Q279 415 272 409T258 398Q250 393 242 386T226 367Q213 347 200 318T177 255T159 186T152 120Q152 78 170 59T215 40Q233 40 255 50T300 80Q295 93
293 107T290 137Q290 182 298 221T318 294T347 352T378 396Q397 419 414 428T443 438Q466 438 479 419T492 368Q492 339 484 310T462 250T429 191T388 135Q412 42 476 42Q501 42 522 54T560 90Q588 128 603 179T618 284Q618 304 613 323T597 366Q590 382 588 387T586
401Q586 415 595 426T619 438Q662 438 662 362Q662 338 657 303T642 229T615 151T574 78Q547 40 509 16T420 -9ZM431 404Q423 404 413 396T395 373T380 334T374 281Q374 215 383 161Q399 182 413 206T439 255T458 301T465 340Q465 375 455 389T431 404Z" />
<glyph unicode="&#x176;" glyph-name="Ycircumflex" horiz-adv-x="525" d="M658 647Q649 645 636 642T612 634Q598 628 584 620T554 598T519 560T473 500L317 280L297 196Q286 150 280 119T274 71Q274 50 283 39T309 19Q318 15 330 13T350 10L348 0H36L38 10Q47
11 58 13T77 17Q94 22 108 32T133 58Q148 82 159 118T182 203L200 281L124 559Q117 584 108 600T88 625T63 639T33 647L35 657H319L317 647Q309 646 297 644T276 638Q265 633 255 623T244 593Q244 578 249 560T260 520L312 320H317L452 508Q476 541 486 564T497
607Q497 631 475 640Q468 643 461 644T445 647L448 657H661L658 647ZM501 707L411 777L266 707L261 715Q266 719 277 729T303 753T332 780T361 807T384 828T396 839H445Q447 834 456 817T477 778T497 739T510 714L501 707Z" />
<glyph unicode="&#x177;" glyph-name="ycircumflex" horiz-adv-x="387" d="M69 379Q55 379 39 361T6 310L-7 318Q18 369 50 403T121 438Q143 438 160 425T193 374Q200 357 209 328T225 258T239 169T247 62H251Q285 122 308 183T331 295Q331 315 326 331T313 365Q311
370 307 380T303 399Q303 417 313 427T339 438Q359 438 367 423T375 388Q375 305 348 225T280 75T189 -52T95 -146Q57 -178 23 -195T-41 -213Q-68 -213 -89 -198T-110 -154Q-110 -129 -95 -116T-62 -102Q-31 -102 -7 -135Q0 -144 8 -150T26 -157Q49 -157 81 -130Q98
-116 119 -95T163 -47Q161 -1 157 48T145 145T130 234T111 308Q100 342 90 360T69 379ZM364 501L270 594L121 501L114 509Q136 532 158 555T200 600T236 639T262 668H311Q315 656 322 638T337 599T355 554T374 507L364 501Z" />
<glyph unicode="&#x178;" glyph-name="Ydieresis" horiz-adv-x="525" d="M658 647Q649 645 636 642T612 634Q598 628 584 620T554 598T519 560T473 500L317 280L297 196Q286 150 280 119T274 71Q274 50 283 39T309 19Q318 15 330 13T350 10L348 0H36L38 10Q47
11 58 13T77 17Q94 22 108 32T133 58Q148 82 159 118T182 203L200 281L124 559Q117 584 108 600T88 625T63 639T33 647L35 657H319L317 647Q309 646 297 644T276 638Q265 633 255 623T244 593Q244 578 249 560T260 520L312 320H317L452 508Q476 541 486 564T497
607Q497 631 475 640Q468 643 461 644T445 647L448 657H661L658 647ZM233 775Q233 798 249 815T289 832Q314 832 330 816T346 776Q346 753 330 736T289 719Q266 719 250 735T233 775ZM448 775Q448 798 464 815T504 832Q528 832 544 816T560 776Q560 753 544 736T504
719Q480 719 464 735T448 775Z" />
<glyph unicode="&#x179;" glyph-name="Zacute" horiz-adv-x="549" d="M289 715Q337 751 365 774T420 816Q443 832 454 838T481 844Q499 844 510 833T521 803Q521 783 505 771T463 750Q449 745 434 741T398 732T353 721T294 707L289 715ZM600 646L99 22H167Q229
22 271 34T354 71Q381 88 401 104T438 137T469 170T498 204H510L424 0H-54L-51 11L452 635H363Q315 635 274 622T194 585Q163 565 134 536T73 471H61L146 657H602L600 646Z" />
<glyph unicode="&#x17a;" glyph-name="zacute" horiz-adv-x="435" d="M417 624Q417 603 403 591T362 565Q334 553 298 539T207 503L202 512L238 548Q254 564 266 576T289 599T312 622Q335 644 349 652T378 661Q417 661 417 624ZM435 410Q435 394 421 375T386 342Q385
342 369 327T328 290T275 242T222 194T180 156L164 141Q156 135 144 126T123 111H138Q146 111 156 109Q173 107 194 104T227 98Q250 93 270 89T311 84Q329 84 345 91T379 120Q386 129 392 139T405 162L419 156Q408 128 395 99T364 46T321 7T264 -9Q234 -9 213 3T172
36Q155 56 140 71T108 86Q90 86 78 67T59 25Q55 12 44 2T18 -9Q2 -9 -5 1T-13 24Q-13 38 -4 49T19 68Q28 74 43 82T69 95L313 311Q308 310 302 310T291 309Q268 309 237 320T180 346Q161 357 141 368T107 379Q86 379 72 365T57 324Q57 314 60 309T67 301Q72 321
85 330T113 339Q132 339 146 329T160 293Q160 274 146 260T113 246Q81 246 60 269T39 334Q39 356 47 375T69 408T102 430T142 438Q176 438 197 426T241 394Q251 385 262 375T284 355T304 340T321 333Q334 333 342 341T354 361T362 386T370 409Q376 423 386 430T407
438Q421 438 428 430T435 410Z" />
<glyph unicode="&#x17b;" glyph-name="Zdotaccent" horiz-adv-x="549" d="M600 646L99 22H167Q229 22 271 34T354 71Q381 88 401 104T438 137T469 170T498 204H510L424 0H-54L-51 11L452 635H363Q315 635 274 622T194 585Q163 565 134 536T73 471H61L146 657H602L600
646ZM315 777Q315 803 333 819T374 836Q397 836 415 820T434 777Q434 750 416 735T374 719Q351 719 333 735T315 777Z" />
<glyph unicode="&#x17c;" glyph-name="zdotaccent" horiz-adv-x="435" d="M435 410Q435 394 421 375T386 342Q385 342 369 327T328 290T275 242T222 194T180 156L164 141Q156 135 144 126T123 111H138Q146 111 156 109Q173 107 194 104T227 98Q250 93 270 89T311
84Q329 84 345 91T379 120Q386 129 392 139T405 162L419 156Q408 128 395 99T364 46T321 7T264 -9Q234 -9 213 3T172 36Q155 56 140 71T108 86Q90 86 78 67T59 25Q55 12 44 2T18 -9Q2 -9 -5 1T-13 24Q-13 38 -4 49T19 68Q28 74 43 82T69 95L313 311Q308 310 302
310T291 309Q268 309 237 320T180 346Q161 357 141 368T107 379Q86 379 72 365T57 324Q57 314 60 309T67 301Q72 321 85 330T113 339Q132 339 146 329T160 293Q160 274 146 260T113 246Q81 246 60 269T39 334Q39 356 47 375T69 408T102 430T142 438Q176 438 197
426T241 394Q251 385 262 375T284 355T304 340T321 333Q334 333 342 341T354 361T362 386T370 409Q376 423 386 430T407 438Q421 438 428 430T435 410ZM338 592Q338 566 320 552T281 537Q261 537 243 552T225 592Q225 617 243 633T281 649Q301 649 319 634T338
592Z" />
<glyph unicode="&#x17d;" glyph-name="Zcaron" horiz-adv-x="549" d="M291 842L382 772L525 842L531 835Q526 831 515 821T489 797T460 770T431 743T408 721T396 710H347Q345 714 336 732T315 771T294 811L282 836L291 842ZM600 646L99 22H167Q229 22 271 34T354
71Q381 88 401 104T438 137T469 170T498 204H510L424 0H-54L-51 11L452 635H363Q315 635 274 622T194 585Q163 565 134 536T73 471H61L146 657H602L600 646Z" />
<glyph unicode="&#x17e;" glyph-name="zcaron" horiz-adv-x="435" d="M194 662L289 568L437 662L444 655Q422 632 400 608T358 563T322 524T296 495H247Q242 507 236 525T221 564T203 609T185 656L194 662ZM435 410Q435 394 421 375T386 342Q385 342 369 327T328
290T275 242T222 194T180 156L164 141Q156 135 144 126T123 111H138Q146 111 156 109Q173 107 194 104T227 98Q250 93 270 89T311 84Q329 84 345 91T379 120Q386 129 392 139T405 162L419 156Q408 128 395 99T364 46T321 7T264 -9Q234 -9 213 3T172 36Q155 56 140
71T108 86Q90 86 78 67T59 25Q55 12 44 2T18 -9Q2 -9 -5 1T-13 24Q-13 38 -4 49T19 68Q28 74 43 82T69 95L313 311Q308 310 302 310T291 309Q268 309 237 320T180 346Q161 357 141 368T107 379Q86 379 72 365T57 324Q57 314 60 309T67 301Q72 321 85 330T113 339Q132
339 146 329T160 293Q160 274 146 260T113 246Q81 246 60 269T39 334Q39 356 47 375T69 408T102 430T142 438Q176 438 197 426T241 394Q251 385 262 375T284 355T304 340T321 333Q334 333 342 341T354 361T362 386T370 409Q376 423 386 430T407 438Q421 438 428
430T435 410Z" />
<glyph unicode="&#x192;" glyph-name="florin" horiz-adv-x="369" d="M458 591Q458 566 445 556T412 545Q389 545 378 556T366 588Q365 596 367 609T369 630Q368 647 350 647Q340 647 330 641T311 618Q303 604 296 587T282 548T266 495T248 425H344L338 406H243Q235
373 225 327T201 230T172 124T139 20Q104 -82 50 -132T-69 -182Q-117 -182 -148 -160T-179 -103Q-179 -74 -164 -64T-132 -53Q-109 -53 -98 -66T-85 -96Q-85 -107 -86 -117T-85 -140Q-83 -150 -79 -155T-62 -161Q-46 -161 -28 -143T1 -91Q43 33 72 161T129 406H58L63
425H134Q136 434 137 440T140 450T144 460T148 473Q163 522 185 558T236 617T294 652T355 664Q402 664 430 645T458 591Z" />
<glyph unicode="&#x1fa;" glyph-name="Aringacute" horiz-adv-x="592" d="M209 272H368L431 524H426L209 272ZM363 249H188L97 142Q81 123 72 105T62 67Q62 53 68 42T86 24Q98 18 110 15T140 10L137 0H-118L-116 10Q-94 13 -75 22Q-57 31 -39 44T-4 73T28 105T57
136L511 657H581L467 196Q456 150 450 119T444 71Q444 50 453 39T479 19Q488 15 500 13T520 10L518 0H213L216 10Q224 11 233 13T250 17Q284 28 304 58Q318 81 329 118T352 203L363 249ZM503 892Q551 928 579 951T634 993Q657 1009 668 1015T695 1021Q713 1021
724 1010T735 980Q735 960 719 948T677 927Q663 922 648 918T612 909T567 898T508 884L503 892ZM647 784Q647 746 623 724T566 702Q536 702 511 723T485 784Q485 824 510 845T566 867Q581 867 595 862T621 846T640 820T647 784ZM623 784Q623 815 606 830T566 846Q543
846 527 831T510 784Q510 754 526 739T566 723Q589 723 606 738T623 784Z" />
<glyph unicode="&#x1fb;" glyph-name="aringacute" horiz-adv-x="469" d="M312 350Q312 383 303 401T273 419Q250 419 231 403T190 351Q173 323 158 286T132 212T113 141T106 88Q106 57 116 45T140 32Q154 32 168 42T198 69Q213 87 225 104T249 146Q262 171 273
200T293 256T307 308T312 350ZM336 62Q336 39 354 39Q367 39 380 47T408 68T435 97T459 131L471 124Q457 100 439 76T399 33T353 3T301 -9Q276 -9 259 6T242 56Q242 67 245 82T252 109H248Q235 86 223 70T196 37Q150 -9 103 -9Q85 -9 68 -3T38 17T16 55T8 114Q8
161 30 217T88 323T172 405T268 438Q297 438 312 422T332 380H335Q342 393 347 404T360 429H445Q433 391 416 338T379 226Q358 163 347 121T336 62ZM388 591Q388 552 364 530T307 508Q277 508 252 529T227 591Q227 630 252 651T307 673Q337 673 362 652T388 591ZM364
590Q364 621 347 637T307 653Q284 653 268 637T251 591Q251 561 267 545T307 529Q330 529 347 544T364 590ZM249 966Q297 1002 325 1025T380 1067Q403 1083 414 1089T441 1095Q459 1095 470 1084T481 1054Q481 1034 465 1022T423 1001Q409 996 394 992T358 983T313
972T254 958L249 966Z" />
<glyph unicode="&#x1fc;" glyph-name="AEacute" horiz-adv-x="860" d="M568 715Q616 751 644 774T699 816Q722 832 733 838T760 844Q778 844 789 833T800 803Q800 783 784 771T742 750Q728 745 713 741T677 732T632 721T573 707L568 715ZM471 608H465Q464 606
444 582T395 523T331 446T266 368T214 305T188 274H390L471 608ZM846 457H835Q829 495 816 529T785 589Q774 606 752 620T690 635H669Q638 635 617 620Q606 611 594 595T572 538L526 352H548Q591 352 613 358T654 378Q677 398 694 426T720 478H730L661 201H651Q654
226 651 255T636 300Q627 313 608 321T547 329H520L480 170Q472 136 468 116T464 79Q464 52 476 40Q494 22 536 22H560Q599 22 632 39T692 77Q733 110 763 148T810 215H820L751 0H225L228 10Q236 11 247 13T267 17Q283 22 297 32T322 58Q337 81 348 118T372 203L384
249H168Q166 247 153 230T122 193Q103 170 79 142Q64 123 55 103T46 67Q46 53 52 42T70 24Q82 18 94 15T124 10L121 0H-135L-133 10Q-109 18 -88 30Q-53 51 -21 80T34 136L444 623Q439 627 430 631T411 638T392 644T380 647L382 657H848L846 457Z" />
<glyph unicode="&#x1fd;" glyph-name="aeacute" horiz-adv-x="628" d="M553 625Q553 603 539 591T498 566Q470 553 434 540T343 504L338 512Q359 533 374 549T401 577T425 600T448 622Q470 644 485 653T514 662Q553 662 553 625ZM626 365Q626 345 615 326T584
290Q570 278 548 266T500 241T444 217T388 198Q383 171 380 144T377 92Q377 58 390 41T428 23Q455 23 478 33T519 58T552 92T577 127L589 120Q575 94 556 71T512 30T459 2T395 -9Q337 -9 306 29T272 128H268Q254 96 236 70T196 27Q177 10 154 1T105 -9Q87 -9 70
-3T40 19T18 57T10 115Q10 162 32 218T90 324T174 406T270 439Q299 439 313 423T332 380H335Q342 394 347 405T360 430H423Q423 428 421 421T416 406T411 391T407 381H410Q439 408 471 423T531 439Q583 439 604 418T626 365ZM551 381Q551 399 545 409T524 420Q505
420 486 404T449 359T417 294T392 215Q408 221 425 229T459 246T490 264T513 283Q533 303 542 332T551 381ZM314 350Q314 383 305 401T275 419Q252 419 233 403T193 352Q176 324 161 287T134 213T116 142T109 89Q109 57 119 45T147 32Q161 32 174 41T200 63Q216
80 228 98T252 142Q262 162 273 189T293 245T308 301T314 350Z" />
<glyph unicode="&#x1fe;" glyph-name="Oslashacute" horiz-adv-x="631" d="M619 414Q619 369 609 322T578 228T530 142T465 71Q418 31 366 9T254 -14Q208 -14 168 1L135 -65L115 -56L148 10Q118 26 94 51Q64 84 47 132T29 242Q29 286 39 333T68 426T115 512T178
583Q226 624 279 647T393 670Q435 670 472 657L502 717L522 707L492 648Q526 632 553 604Q584 572 601 524T619 414ZM503 494Q503 536 494 565Q486 592 473 609L185 35Q214 8 255 8Q290 8 319 27T369 70Q387 89 410 132T454 233T489 358T503 494ZM436 639Q416 648
393 648Q358 648 329 629T279 587Q261 567 238 524T194 423T159 298T145 162Q145 89 169 53L457 627Q447 634 436 639ZM334 715Q382 751 410 774T465 816Q488 832 499 838T526 844Q544 844 555 833T566 803Q566 783 550 771T508 750Q494 745 479 741T443 732T398
721T339 707L334 715Z" />
<glyph unicode="&#x1ff;" glyph-name="oslashacute" horiz-adv-x="409" d="M389 281Q389 220 365 160T299 57Q268 26 229 9T146 -9Q124 -9 106 -4L77 -64L59 -54L87 2Q64 13 48 32Q13 74 12 144Q10 206 34 268T102 373Q132 404 172 421T255 438Q279 438 299 432L329
493L347 484L317 424Q338 413 353 395Q388 353 389 281ZM254 421Q230 421 213 406T182 366Q168 343 154 306T127 228T108 145T100 73Q100 53 105 39L287 407Q275 421 254 421ZM300 354Q300 371 297 383L117 17Q128 8 146 8Q170 8 187 23T218 63Q232 86 246 122T272
199T292 280T300 354ZM423 625Q423 603 409 591T368 566Q340 553 304 540T213 504L208 512Q229 533 244 549T271 577T295 600T318 622Q340 644 355 653T384 662Q423 662 423 625Z" />
<glyph unicode="&#x218;" glyph-name="Scommaaccent" horiz-adv-x="509" d="M218 155Q218 99 178 65T76 14L71 28Q110 40 136 57T162 94Q162 103 153 109Q131 113 118 127T104 162Q104 187 120 202T163 218Q185 218 201 202T218 155ZM471 452H458Q458 473 456
494T448 535T437 572T422 601Q410 621 389 635T326 649Q276 649 247 622T217 544Q217 519 225 499T246 463T275 431T308 402Q340 373 366 350T410 304T439 253T449 189Q449 142 429 104T377 40T303 0T218 -14Q164 -14 123 8T61 60H55L3 4H-6L46 240H59Q62 186 72
143T102 70T150 24T219 8Q250 8 274 18T315 44T340 83T349 129Q349 153 342 173T319 212T282 251T232 295Q209 315 189 334T153 375T128 424T119 486Q119 521 132 554T172 613T237 655T326 671Q375 671 410 653T462 611H464L501 656H513L471 452Z" />
<glyph unicode="&#x219;" glyph-name="scommaaccent" horiz-adv-x="327" d="M146 157Q146 101 106 67T4 16L-1 30Q38 42 64 59T90 96Q90 105 81 111Q59 115 46 129T32 164Q32 189 48 204T91 220Q113 220 129 204T146 157ZM323 357Q323 337 312 325T283 312Q266
312 256 322T243 347Q241 362 244 370T246 392Q244 403 234 412T206 421Q174 421 162 403T149 359Q149 334 163 312T205 256Q242 210 260 182T279 123Q279 91 265 67T228 26T177 0T120 -9Q66 -9 30 17T-6 89Q-6 115 7 130T40 146Q58 146 69 136T81 107Q81 87 74
75T66 49Q66 26 84 17T122 8Q156 8 176 27T196 80Q196 93 192 103T179 126T157 154T126 191Q112 209 102 223T86 252T76 281T73 315Q73 343 84 365T115 404T159 429T211 438Q233 438 253 433T289 418T314 392T323 357Z" />
<glyph unicode="&#x21a;" glyph-name="uni021A" horiz-adv-x="589" d="M252 155Q252 99 212 65T110 14L105 28Q144 40 170 57T196 94Q196 103 187 109Q165 113 152 127T138 162Q138 187 154 202T197 218Q219 218 235 202T252 155ZM627 460H615Q610 493 601 526T566
588Q525 635 453 635H428L320 196Q309 150 303 119T297 71Q297 50 306 38T332 19Q342 15 353 13T373 10L370 0H58L61 10Q69 11 80 13T100 17Q117 22 131 32T155 58Q170 81 181 118T205 203L312 635H284Q215 635 160 588Q128 562 100 527T48 460H36L102 657H653L627
460Z" />
<glyph unicode="&#x21b;" glyph-name="uni021B" horiz-adv-x="273" d="M354 157Q354 101 314 67T212 16L207 30Q246 42 272 59T298 96Q298 105 289 111Q267 115 254 129T240 164Q240 189 256 204T299 220Q321 220 337 204T354 157ZM111 58Q111 39 124 39Q136 39
150 47T180 68T209 97T235 132L247 125Q233 101 213 77T170 34T121 3T66 -9Q40 -9 25 7T10 49Q10 62 15 83T29 129T46 180T63 230Q72 257 83 287Q91 313 101 344T122 405H61L67 429H129Q132 438 138 457T151 498T164 541T175 574H273Q269 562 263 541T249 498T236
457T227 429H324L318 405H220Q209 372 198 339T178 278Q167 246 157 217Q148 190 140 164T126 117T115 81T111 58Z" />
<glyph unicode="&#x237;" glyph-name="uni0237" horiz-adv-x="236" d="M228 377Q228 365 221 338T204 277T181 208T160 146Q136 75 118 27T84 -54T54 -109T23 -148Q-4 -177 -40 -195T-116 -213Q-161 -213 -190 -190T-219 -130Q-219 -107 -205 -91T-168 -75Q-142
-75 -130 -90T-117 -124Q-117 -135 -119 -142T-124 -158Q-129 -171 -129 -179Q-129 -185 -124 -189T-111 -193Q-93 -193 -79 -185T-49 -151Q-43 -141 -33 -118T-12 -65T10 -1T33 64T52 122T67 165Q78 198 89 231T108 293T122 342T128 369Q128 394 108 394Q96 394
76 377T24 310L12 317Q47 381 90 409T168 438Q197 438 212 422T228 377Z" />
<glyph unicode="&#x2c6;" glyph-name="circumflex" horiz-adv-x="345" d="M330 501L236 594L87 501L80 509Q102 532 124 555T166 600T202 639T228 668H277Q281 656 288 638T303 599T321 554T340 507L330 501Z" />
<glyph unicode="&#x2c7;" glyph-name="caron" horiz-adv-x="346" d="M105 662L200 568L348 662L355 655Q333 632 311 608T269 563T233 524T207 495H158Q153 507 147 525T132 564T114 609T96 656L105 662Z" />
<glyph unicode="&#x2d8;" glyph-name="breve" horiz-adv-x="296" d="M92 673Q96 651 106 636T130 612T161 599T195 595Q235 595 264 614T320 674L330 667Q326 641 316 616T289 571T247 539T189 527Q142 527 110 554T77 633Q77 650 80 667L92 673Z" />
<glyph unicode="&#x2d9;" glyph-name="dotaccent" horiz-adv-x="292" d="M269 592Q269 566 251 552T212 537Q192 537 174 552T156 592Q156 617 174 633T212 649Q232 649 250 634T269 592Z" />
<glyph unicode="&#x2da;" glyph-name="ring" horiz-adv-x="379" d="M292 591Q292 552 268 530T211 508Q181 508 156 529T131 591Q131 630 156 651T211 673Q241 673 266 652T292 591ZM268 590Q268 621 251 637T211 653Q188 653 172 637T155 591Q155 561 171 545T211
529Q234 529 251 544T268 590Z" />
<glyph unicode="&#x2db;" glyph-name="ogonek" horiz-adv-x="279" d="M33 -138Q33 -113 49 -94T88 -58T139 -27T188 0H205Q188 -13 172 -28T142 -60T121 -98T112 -142Q112 -168 127 -183T176 -203L174 -212Q100 -216 67 -194T33 -138Z" />
<glyph unicode="&#x2dc;" glyph-name="tilde" horiz-adv-x="332" d="M376 632Q360 588 334 560T268 531Q251 531 235 535T204 545T173 555T143 560Q125 560 105 550T68 517L58 521Q77 566 107 594T177 623Q192 623 206 619T234 610T262 601T291 597Q316 597 332
604T366 635L376 632Z" />
<glyph unicode="&#x2dd;" glyph-name="hungarumlaut" horiz-adv-x="421" d="M262 670Q279 670 288 660T298 632Q298 615 289 604T263 579Q241 562 210 541T122 482L114 489Q131 515 144 535T167 571T187 601T205 627Q220 650 231 660T262 670ZM424 670Q441 670
450 660T460 632Q460 615 451 604T424 579Q402 562 372 541T284 482L276 489Q309 541 329 571T367 627Q382 650 393 660T424 670Z" />
</font>
</defs>
</svg>
