<?xml version="1.0" standalone="no"?> <!DOCTYPE svg PUBLIC "-//W3C//DTD SVG 1.0//EN" "http://www.w3.org/TR/2001/REC-SVG-20010904/DTD/svg10.dtd" > <svg xmlns="http://www.w3.org/2000/svg" width="100%" height="100%">
<defs >
<font horiz-adv-x="499" ><font-face
    font-family=""
    units-per-em="1000"
    panose-1="2 0 0 0 0 0 0 0 0 0"
    ascent="787"
    descent="-213"
    alphabetic="0" />
<missing-glyph horiz-adv-x="188" />
<glyph unicode=" " glyph-name="space" horiz-adv-x="187" />
<glyph unicode="!" glyph-name="exclam" horiz-adv-x="234" d="M182 47Q182 21 164 3T118 -16Q91 -16 73 2T55 47Q55 73 73 92T118 111Q145 111 163 92T182 47ZM117 670Q151 670 172 651T194 591Q194 555 184 510T161 399Q147 314 138 255T126 171H108Q105 195
96 254T73 398Q60 463 50 509T39 591Q39 631 61 650T117 670Z" />
<glyph unicode="&quot;" glyph-name="quotedbl" horiz-adv-x="333" d="M182 617Q182 646 196 658T233 670Q256 670 269 658T282 617Q282 601 277 575T264 524Q257 498 251 471T239 423H226Q221 443 214 470T200 524Q194 550 188 575T182 617ZM101 670Q124 670
137 658T151 617Q151 601 145 575T133 524Q126 498 120 471T108 423H94Q89 443 82 470T69 524Q62 550 57 575T51 617Q51 646 64 658T101 670Z" />
<glyph unicode="#" glyph-name="numbersign" horiz-adv-x="613" d="M419 431H234L199 230H383L419 431ZM159 0H136L172 206H20V230H175L211 431H59V455H215L250 656H273L238 455H423L458 656H481L446 455H593V431H442L407 230H555V206H403L367 0H344L380 206H195L159 0Z" />
<glyph unicode="$" glyph-name="dollar" horiz-adv-x="493" d="M465 183Q465 140 450 105T407 43T340 2T255 -15V-111H232V-15Q186 -14 149 -3T85 26T45 69T30 120Q30 153 49 169T88 186Q122 186 137 166T153 112Q153 107 152 96T150 80Q150 43 175 26T232 7V260Q216
268 199 277T165 296Q138 312 116 329T77 369T52 419T43 483Q43 522 58 554T99 611T159 649T233 665V755H255V665Q301 663 337 652T399 623T437 582T450 533Q450 501 432 485T394 469Q360 469 345 489T330 541Q330 546 331 555T333 570Q333 608 310 624T255 642V415Q270
407 284 400T313 384Q349 363 377 345T424 305T454 254T465 183ZM233 643Q191 640 167 613T143 550Q143 526 150 508T170 475T198 449T233 428V643ZM360 114Q360 162 336 191T255 249V7Q306 12 333 40T360 114Z" />
<glyph unicode="%" glyph-name="percent" horiz-adv-x="709" d="M542 304Q514 304 502 269T489 154Q489 75 501 40T542 4Q556 4 566 11T582 36T591 83T594 154Q594 196 591 225T582 271T566 296T542 304ZM689 154Q689 116 678 85T646 32T599 -2T542 -15Q512 -15
485 -3T438 31T407 85T395 154Q395 192 406 223T438 276T485 310T542 322Q572 322 599 310T646 276T677 222T689 154ZM511 667L531 657L202 -16L182 -6L511 667ZM315 496Q315 458 304 427T272 374T225 339T168 327Q138 327 111 339T64 373T33 427T21 496Q21 534
32 565T64 618T111 652T168 664Q198 664 225 652T272 618T303 564T315 496ZM168 646Q140 646 128 611T116 496Q116 417 127 382T168 346Q183 346 193 353T209 378T218 425T221 496Q221 581 209 613T168 646Z" />
<glyph unicode="&amp;" glyph-name="ampersand" horiz-adv-x="681" d="M519 -14Q489 -14 468 -6T429 23Q415 29 398 48Q369 21 329 4T232 -14Q185 -14 148 -1T84 36T44 91T29 159Q29 196 43 225T79 279T129 323T184 359Q176 370 168 381T152 404Q133 432 123 463T113
520Q113 552 126 579T163 627T216 658T281 670Q356 670 389 641T421 566Q421 540 412 519T388 479T355 445T320 417Q353 378 386 334Q405 308 430 269T478 191Q489 215 497 240T512 291Q517 308 518 325T520 361Q520 378 515 389T494 411Q485 417 474 419L452 423V434H659V423Q648
421 637 419T614 410Q593 396 576 371Q570 362 561 344T540 287Q532 265 522 232T494 164Q505 144 515 127T534 96Q551 70 570 57T607 44Q626 44 644 52T669 68L676 59Q670 47 656 35T621 11T575 -7T519 -14ZM206 329Q183 303 173 272T163 190Q163 151 174 122T203
74T246 44T296 34Q322 34 343 43T381 69Q375 78 369 87T356 108Q333 145 308 185T261 256Q252 267 238 286T206 329ZM306 436Q332 459 347 488T363 565Q363 604 346 626T294 648Q267 648 248 631T229 579Q229 547 250 513T306 436Z" />
<glyph unicode="&apos;" glyph-name="quotesingle" horiz-adv-x="198" d="M99 670Q122 670 135 658T149 617Q149 601 144 575T131 524Q124 498 118 471T106 423H93Q87 443 80 470T67 524Q61 550 55 575T49 617Q49 646 62 658T99 670Z" />
<glyph unicode="(" glyph-name="parenleft" horiz-adv-x="273" d="M250 -103Q214 -75 178 -38T114 47T67 154T49 288Q49 361 67 421T113 530T178 615T250 680L272 677Q244 645 218 605T173 516T142 411T130 288Q130 222 141 166T172 61T218 -28T272 -100L250 -103Z" />
<glyph unicode=")" glyph-name="parenright" horiz-adv-x="273" d="M1 -100Q29 -68 55 -28T100 61T131 166T143 289Q143 355 132 411T101 516T55 605T1 677L22 680Q58 652 94 615T159 530T206 422T224 289Q224 215 206 155T160 47T95 -38T22 -103L1 -100Z" />
<glyph unicode="*" glyph-name="asterisk" horiz-adv-x="401" d="M233 334Q233 320 225 312T201 304Q186 304 177 312T168 334Q168 344 171 359T179 394T188 433T195 474Q183 459 172 441T150 407T132 377T116 356Q106 346 94 346T71 357Q49 381 70 402Q77 409
90 417T120 436T155 458T188 482Q168 480 148 476T108 467T74 459T48 455Q34 455 26 463T18 487Q18 502 26 510T48 519Q58 519 73 516T108 508T147 499T188 492Q172 504 155 515T121 537T91 556T70 572Q60 582 60 594T72 617Q83 628 94 628T115 618Q123 610 132
597T150 567T171 533T195 500Q193 519 189 539T180 579T172 614T168 640Q168 654 177 662T201 670Q216 670 224 662T233 640Q233 630 230 614T222 579T213 539T206 499Q218 514 229 532T251 566T269 596T285 617Q296 627 308 627T331 616Q342 605 342 594T331 572Q324
565 311 556T281 537T247 516T214 492Q233 494 253 498T293 507T327 515T353 519Q367 519 375 511T384 487Q384 472 376 464T353 455Q343 455 328 458T293 465T253 475T213 482Q228 470 246 459T280 437T310 418T331 402Q341 392 341 380T330 357Q319 346 307 346T285
356Q278 363 270 376T251 406T230 441T206 474Q208 454 212 434T221 394T229 360T233 334Z" />
<glyph unicode="+" glyph-name="plus" horiz-adv-x="462" d="M244 249V75H217V249H44V274H217V449H244V274H417V249H244Z" />
<glyph unicode="," glyph-name="comma" horiz-adv-x="210" d="M174 40Q174 11 164 -15T136 -64T92 -102T37 -128L32 -114Q70 -100 92 -76T115 -31Q115 -15 105 -10Q78 -6 60 10T41 57Q41 82 61 100T104 118Q133 118 153 99T174 40Z" />
<glyph unicode="-" glyph-name="hyphen" horiz-adv-x="337" d="M61 225V291H275V225H61Z" />
<glyph unicode="." glyph-name="period" horiz-adv-x="207" d="M167 50Q167 22 149 4T103 -14Q76 -14 58 4T40 50Q40 77 58 95T103 114Q130 114 148 96T167 50Z" />
<glyph unicode="/" glyph-name="slash" horiz-adv-x="311" d="M-20 -100L-45 -89L329 687L354 675L-20 -100Z" />
<glyph unicode="0" glyph-name="zero" horiz-adv-x="616" d="M33 329Q33 406 54 469T112 576T199 645T309 670Q367 670 417 646T505 577T563 469T584 329Q584 252 563 189T506 81T419 11T309 -14Q250 -14 200 11T112 81T54 189T33 329ZM433 329Q433 414 426 475T403
574T365 630T309 648Q277 648 253 630T214 574T191 475T183 329Q183 159 214 84T309 8Q372 8 402 83T433 329Z" />
<glyph unicode="1" glyph-name="one" horiz-adv-x="347" d="M30 0V11Q39 11 50 13T67 17Q82 23 89 30T102 57Q105 71 106 91T107 133V528Q107 542 107 562T104 594Q102 611 98 617T85 628Q81 630 73 632T57 635T40 638T28 639V649Q37 650 53 651T87 653T126 656T164
659Q183 661 206 663T236 665Q244 665 244 658Q244 647 243 626T242 584V133Q242 112 242 92T247 57Q252 37 259 31T282 18Q288 15 299 14T319 11V0H30Z" />
<glyph unicode="2" glyph-name="two" horiz-adv-x="577" d="M493 0H29L44 15Q56 27 70 41T96 68L112 84Q144 116 187 163T270 266T336 384T364 508Q364 547 358 573T340 614T310 636T268 642Q244 642 219 631T174 596T140 536T126 451Q126 434 129 419T139 391T159
372T188 364Q221 364 241 383T274 435L287 430Q280 405 268 383T239 344T198 318T146 308Q92 308 61 342T30 434Q30 481 49 524T105 599T191 651T301 671Q356 671 396 658T461 622T499 565T512 492Q512 442 492 400T442 323T377 259T313 210Q291 195 256 170T183
120V116H390Q425 116 451 129T492 158Q508 176 520 195T539 232H552L493 0Z" />
<glyph unicode="3" glyph-name="three" horiz-adv-x="525" d="M213 -14Q165 -14 129 -2T70 31T34 75T22 124Q22 157 39 176T84 195Q116 195 132 176T149 128Q149 115 147 103T142 80Q142 69 143 59T146 41Q151 25 166 17T200 9Q232 9 259 24T305 68T335 135T346
220Q346 283 319 308T238 333Q227 333 211 329T181 316L147 296L136 313L198 350Q254 383 283 431T313 545Q313 600 293 622T225 644Q185 644 158 616T131 536Q131 501 148 480T191 459Q217 459 231 468T259 498L270 493Q256 456 228 430T151 404Q126 404 107 412T75
435T56 469T49 508Q49 544 66 574T111 625T177 658T253 670Q352 670 399 637T447 540Q447 508 432 482T391 433T330 393T253 361V358Q303 359 346 350T422 320T473 270T492 201Q492 159 475 120T423 51T336 4T213 -14Z" />
<glyph unicode="4" glyph-name="four" horiz-adv-x="548" d="M457 0H168V11Q177 11 188 13T205 17Q220 23 227 30T240 57Q244 71 244 91T245 133V219H4V237L300 657H379Q383 657 383 653Q383 642 382 623T381 583V239H407Q445 239 462 246T488 265Q499 279 508
301T519 346H530V112H519Q517 135 508 157T488 193Q479 204 462 211T407 219H381V91Q381 71 385 57Q390 37 398 30T420 17Q427 14 438 13T457 11V0ZM245 239V540H243L31 239H245Z" />
<glyph unicode="5" glyph-name="five" horiz-adv-x="486" d="M185 -14Q138 -14 103 -3T43 27T7 70T-5 120Q-5 154 14 172T59 191Q93 191 107 170T122 119Q122 112 121 107T117 93Q115 85 113 79T111 66Q111 47 121 30Q134 6 169 6Q201 6 226 22T270 67T298 135T308
220Q308 305 281 340T201 375Q162 375 137 353T101 299L78 303L158 656H170Q197 638 227 629T304 620Q338 620 363 626T405 642T432 664T446 688L458 686Q440 597 392 552T252 507Q223 507 198 510T148 521L109 353L112 352Q133 378 168 394T250 411Q301 411 340
397T405 358T444 298T457 222Q457 169 438 126T384 51T298 3T185 -14Z" />
<glyph unicode="6" glyph-name="six" horiz-adv-x="550" d="M528 554Q528 521 512 502T466 482Q436 482 419 499T402 544Q402 561 407 581Q410 592 413 601T416 619Q416 629 402 638T359 647Q323 647 292 625T238 564T202 473T186 359H190Q208 391 241 408T317
425Q409 425 459 367T510 206Q510 156 493 116T445 46T372 2T278 -14Q217 -14 171 8T95 70T49 161T33 272Q33 371 63 445T141 570T247 645T361 671Q409 671 441 661T492 633T520 595T528 554ZM277 394Q260 394 243 385T213 353T191 293T182 199Q182 142 189 105T208
47T238 17T277 8Q298 8 315 17T345 48T365 107T372 201Q372 258 364 295T343 354T312 385T277 394Z" />
<glyph unicode="7" glyph-name="seven" horiz-adv-x="462" d="M474 643Q421 563 383 494T318 359T273 228T245 90Q237 36 217 11T160 -14Q126 -14 110 7T94 68Q94 92 102 117T124 166T152 213T182 254Q205 285 231 321T283 395T334 469T380 534V537H169Q149 537
128 535T89 524Q50 504 29 441H14L64 692H76Q83 678 96 667T140 656H474V643Z" />
<glyph unicode="8" glyph-name="eight" horiz-adv-x="544" d="M512 200Q512 155 496 116T450 48T374 3T272 -14Q222 -14 179 -4T105 26T57 78T39 154Q39 183 51 207T84 250T129 284T178 307Q153 320 131 336T93 374T67 423T57 484Q57 527 73 562T119 621T188 658T274
671Q379 671 431 631T483 530Q483 505 474 483T449 443T413 410T370 386Q399 373 424 357T469 318T500 267T512 200ZM342 397Q374 416 392 446T411 524Q411 586 376 618T274 650Q224 650 194 623T164 551Q164 524 174 504T203 468T250 437T312 409Q320 407 327
404T342 397ZM114 158Q114 120 126 92T160 46T209 18T269 8Q299 8 325 14T371 34T402 68T414 117Q414 147 404 169T371 210T315 245T233 282Q225 285 219 288T204 294Q165 275 140 241T114 158Z" />
<glyph unicode="9" glyph-name="nine" horiz-adv-x="549" d="M269 268Q286 268 303 276T333 306T355 364T363 457Q363 514 356 551T337 609T307 639T269 648Q247 648 230 639T200 609T181 550T174 455Q174 398 182 362T203 305T234 276T269 268ZM26 104Q26 135
43 152T86 170Q115 170 132 154T150 109Q150 99 148 90T144 71Q142 61 139 52T135 34Q135 24 149 15T192 6Q229 6 259 29T311 93T345 187T360 302H356Q337 272 305 254T230 236Q137 236 87 292T36 451Q36 501 53 541T101 611T174 655T268 671Q329 671 374 649T451
589T497 500T513 389Q513 292 485 217T411 91T309 13T197 -14Q154 -14 122 -4T69 22T37 60T26 104Z" />
<glyph unicode=":" glyph-name="colon" horiz-adv-x="203" d="M164 379Q164 351 146 333T101 315Q75 315 57 333T39 379Q39 405 57 423T101 442Q127 442 145 424T164 379ZM164 50Q164 22 146 4T101 -14Q75 -14 57 4T39 50Q39 77 57 95T101 114Q127 114 145 96T164 50Z" />
<glyph unicode=";" glyph-name="semicolon" horiz-adv-x="208" d="M170 40Q170 11 160 -15T132 -64T88 -102T33 -128L27 -114Q66 -100 88 -76T111 -31Q111 -15 101 -10Q74 -6 56 10T37 57Q37 84 56 101T100 118Q130 118 150 99T170 40ZM167 378Q167 350 150 332T104
314Q76 314 59 333T41 378Q41 405 59 424T104 443Q131 443 149 425T167 378Z" />
<glyph unicode="&lt;" glyph-name="less" horiz-adv-x="383" d="M25 250V274L326 426V398L53 262L326 126V99L25 250Z" />
<glyph unicode="=" glyph-name="equal" horiz-adv-x="434" d="M47 330V355H387V330H47ZM47 162V187H387V162H47Z" />
<glyph unicode="&gt;" glyph-name="greater" horiz-adv-x="383" d="M56 99V126L330 262L56 398V426L357 274V250L56 99Z" />
<glyph unicode="?" glyph-name="question" horiz-adv-x="431" d="M174 50Q174 24 156 5T110 -14Q83 -14 65 5T47 50Q47 76 65 94T110 113Q137 113 155 95T174 50ZM411 471Q411 422 392 388T344 333T281 301T217 291Q187 291 161 298T121 316H119V192H97V333L110
346Q127 332 143 327T181 322Q205 322 222 337T250 379T266 444T271 530Q271 552 267 573T254 612T231 639T197 649Q180 649 173 635T159 590Q154 561 141 541T93 520Q69 520 55 535T40 577Q40 595 51 612T82 642T131 663T192 671Q262 671 313 643Q357 618 384
578T411 471Z" />
<glyph unicode="@" glyph-name="at" horiz-adv-x="760" d="M742 267Q742 210 721 159T665 70T585 9T490 -14Q463 -14 441 2T418 55Q418 66 420 79T427 105H423Q411 82 399 64T373 32Q350 9 328 -2T279 -14Q259 -14 242 -7T211 15T191 53T183 111Q183 157 203 207T258
300T338 369T433 396Q462 396 476 381T493 343H499Q506 355 511 366T522 388H618Q606 351 593 308T560 208Q539 145 531 111T522 59Q522 32 543 32Q573 32 605 50T663 99T706 174T723 267Q723 329 704 378T647 462T556 515T434 533Q355 533 288 505T172 426T96
306T68 155Q68 77 91 18T158 -80T261 -140T395 -161Q441 -161 482 -154T560 -136T626 -110T681 -82L689 -97Q666 -111 635 -125T565 -150T484 -169T394 -177Q311 -177 243 -154T126 -89T50 15T23 154Q23 251 58 325T151 448T282 523T433 549Q509 549 567 529T664
471T722 382T742 267ZM477 317Q477 344 469 360T443 377Q424 377 407 362T369 312Q352 284 338 251T315 185T300 125T294 81Q294 54 302 42T324 30Q338 30 354 44Q368 56 380 71Q395 91 405 108T427 149Q435 166 441 180T452 209Q464 241 470 267T477 317Z" />
<glyph unicode="A" glyph-name="A" horiz-adv-x="616" d="M250 477H246L164 241H327L250 477ZM-14 11Q-2 13 8 15T29 24Q39 30 48 39T67 64Q75 78 84 99T104 152L288 662H335L487 211Q504 158 519 121T548 60Q559 43 570 34T595 19Q615 12 629 11V0H302V11Q312
13 322 15T340 20Q355 26 364 36T374 69Q374 90 368 111T354 157L335 218H156L132 148Q124 124 120 106T116 73Q116 52 125 39T149 20Q159 16 170 14T190 11V0H-14V11Z" />
<glyph unicode="B" glyph-name="B" horiz-adv-x="627" d="M17 10Q25 11 33 12T49 16Q65 21 76 31T96 63Q102 83 104 114T107 184V473Q107 513 105 544T96 595Q88 616 77 626T49 641Q42 643 34 644T17 647V657H343Q385 657 424 651T494 628T543 583T562 509Q562
455 536 425T464 377Q449 370 430 365T388 355V352Q433 349 471 337T538 303T583 253T599 185Q599 140 581 105T533 47T463 12T379 0H17V10ZM313 362Q347 362 369 372T406 399Q422 419 427 451T433 509Q433 578 404 606T322 635H294Q277 635 265 629T248 606Q246
598 245 587T244 558V362H313ZM342 23Q367 23 388 32T425 58Q442 77 448 108T455 185Q455 217 448 250T421 304Q403 322 377 330T318 339H244V157Q244 125 246 101T257 63Q265 41 283 32T328 23H342Z" />
<glyph unicode="C" glyph-name="C" horiz-adv-x="625" d="M359 647Q331 647 303 636T252 600Q237 584 224 561T201 504T186 428T180 329Q180 270 187 227T207 152T237 98T276 59Q317 29 386 29Q415 29 444 38T500 68T548 123T587 208L604 200Q593 153 570 114T514
47T440 2T351 -14Q287 -14 229 7T127 70T56 177T30 329Q30 416 58 480T132 587T236 650T357 671Q424 671 476 650T549 601H553L578 649H589V417H575Q561 470 543 512T498 585T438 631T359 647Z" />
<glyph unicode="D" glyph-name="D" horiz-adv-x="701" d="M358 657Q409 657 449 646T521 618Q589 581 631 508T673 329Q673 224 633 151T524 40Q493 23 454 12T370 0H17V11L33 13Q41 14 49 16Q66 21 77 31T96 62Q102 82 105 113T108 185V473Q108 512 105 543T96
595Q88 616 77 626T49 641Q32 646 17 646V657H358ZM349 23Q376 23 406 34T459 73Q474 91 486 114T508 169T522 239T527 329Q527 431 508 491T458 586Q434 613 404 624T344 635H310Q297 635 285 632T264 619Q249 606 247 581T245 534V156Q245 142 245 126T248 95T255
67T270 45Q281 34 297 29T333 23H349Z" />
<glyph unicode="E" glyph-name="E" horiz-adv-x="592" d="M546 0H17V10Q25 11 33 12T49 16Q65 21 76 31T96 63Q102 83 104 114T107 185V473Q107 512 105 543T96 595Q88 616 77 626T49 641Q32 646 17 646V657H524L549 457H537Q508 536 453 592Q436 609 410 622T348
635H320Q305 635 293 632T270 619Q252 603 248 575T244 521V352H281Q302 352 316 353T340 356T357 363T371 375Q391 394 403 423T418 477H430V205H418Q415 229 404 257T374 303Q361 315 342 322T281 329H244V158Q244 143 244 126T247 94T255 65T271 43Q282 32 299
28T337 23H356Q393 23 419 36T466 70Q498 104 521 145T558 222H568L546 0Z" />
<glyph unicode="F" glyph-name="F" horiz-adv-x="550" d="M337 0H18V11Q25 12 33 13T50 16Q66 21 77 31T96 63Q103 83 105 114T108 185V472Q108 512 105 543T95 594Q88 615 77 625T49 641Q31 646 17 646V657H520L543 446H531Q517 484 496 521T446 587Q429 605
404 620T341 635H323Q294 635 278 627T254 593Q248 578 246 557T244 509V360H268Q309 360 327 364T360 383Q379 402 391 431T405 485H416V212H405Q403 237 393 265T363 311Q350 323 330 330T268 337H244V185Q244 146 247 115T257 63Q265 42 276 32T303 16Q311 14
320 13T337 11V0Z" />
<glyph unicode="G" glyph-name="G" horiz-adv-x="663" d="M453 169Q453 201 450 219T439 253Q430 269 421 276T395 289Q380 293 364 295V305H661V295Q655 294 646 292T629 288Q616 283 606 276T588 252Q577 230 577 161V28Q548 17 489 2Q461 -3 422 -8T347 -14Q279
-14 222 9T121 77T54 185T30 329Q30 409 56 472T125 580T227 647T348 670Q385 670 416 663T472 644T512 621T536 598H540L564 643H576V411H564Q541 505 501 564Q474 604 439 624T350 646Q296 646 256 609Q238 593 224 570T200 513T185 434T179 329Q179 271 185
227T201 149T226 92T259 52Q279 29 305 21T354 12Q391 12 409 19T437 40Q446 54 449 75T453 121V169Z" />
<glyph unicode="H" glyph-name="H" horiz-adv-x="731" d="M328 0H17V11L33 13Q41 14 49 16Q65 21 76 31T96 63Q102 83 104 114T107 185V473Q107 512 105 543T96 595Q88 616 77 626T49 641Q33 645 17 647V657H328V647Q315 646 300 641Q285 635 274 626T255 596Q249
576 247 545T244 474V346H487V474Q487 513 485 544T476 596Q469 616 458 625T431 641Q418 645 402 647V657H714V647Q706 646 698 645T682 641Q665 636 654 626T635 595Q628 575 626 544T624 473V185Q624 145 626 114T635 63Q642 41 653 31T682 16Q690 14 698 13L714
11V0H402V11Q409 12 415 13T430 17Q446 22 457 32T476 62Q482 82 484 113T487 184V319H244V184Q244 144 246 113T255 62Q262 42 273 32T300 17Q308 14 315 13T328 11V0Z" />
<glyph unicode="I" glyph-name="I" horiz-adv-x="351" d="M245 185Q245 145 247 114T255 63Q263 41 274 31T302 16Q310 14 318 13L334 11V0H17V11Q24 12 32 13T49 16Q65 21 76 31T95 63Q102 83 104 114T107 185V473Q107 512 105 543T95 595Q88 616 77 626T49 641Q32
646 17 647V657H334V647Q317 645 302 641Q286 636 275 626T255 595Q249 575 247 544T245 473V185Z" />
<glyph unicode="J" glyph-name="J" horiz-adv-x="450" d="M216 472Q216 511 214 543T204 595Q197 615 186 625T157 641Q149 643 141 644T126 647V657H442V647Q434 646 426 645T410 641Q393 636 382 626T363 595Q356 575 354 543T351 472V209Q351 143 332 100T288
33Q262 8 228 -3T148 -14Q117 -14 87 -6T38 20Q21 37 10 58T-2 109Q-2 148 19 167T69 186Q101 186 117 169T136 125Q138 107 131 84Q127 70 124 60T120 44Q123 9 152 9Q171 9 183 16T203 40Q211 59 213 90T216 149V472Z" />
<glyph unicode="K" glyph-name="K" horiz-adv-x="661" d="M17 0V11L33 13Q41 14 49 16Q65 21 76 31T96 63Q102 83 104 114T107 185V473Q107 512 105 543T96 595Q88 616 77 625T49 641Q41 643 33 644T17 647V657H330V647Q316 646 301 641Q285 636 274 626T255 595Q249
575 247 544T244 473V318L414 505Q445 538 459 558T474 600Q474 617 467 626T448 640Q440 643 431 644T412 647V657H639V647Q623 645 604 638T568 619Q546 605 523 585T470 532L338 389V385Q395 380 431 366T493 328Q520 300 535 256T556 163Q560 130 565 108T578
70T592 45T608 30Q619 22 634 17T660 10V0H455Q441 14 428 50T410 136Q405 187 402 226T385 294Q375 317 360 327T318 338Q305 338 292 332T268 315Q263 310 256 302T244 289V185Q244 145 246 114T255 63Q263 41 274 31T301 16Q309 14 316 13L330 11V0H17Z" />
<glyph unicode="L" glyph-name="L" horiz-adv-x="578" d="M17 11Q25 12 34 13T51 17Q85 28 96 60Q105 85 107 125T110 214V444Q110 493 107 533T96 597Q90 616 78 626T50 641Q35 645 18 647V657H340V647Q332 646 324 645T308 641Q292 636 280 626T262 597Q254
573 251 533T248 444V174Q248 139 249 116T256 78Q264 52 279 40Q292 30 307 27T340 23H361Q399 23 423 36T466 70Q498 104 521 147T558 224H570L549 0H17V11Z" />
<glyph unicode="M" glyph-name="M" horiz-adv-x="821" d="M803 646Q789 646 772 641Q756 636 744 626T725 595Q719 575 717 544T714 473V185Q714 145 716 114T725 63Q732 41 744 31T772 16Q780 14 788 13T803 10V0H485V10Q502 12 518 16Q534 21 545 31T564 63Q571
83 573 114T576 185V559H571L385 -3H342L143 552H139V167Q139 120 144 96T157 55Q172 25 200 17Q208 15 216 14T235 10V0H17V10Q37 13 52 17Q64 21 75 30T94 55Q102 72 107 96T113 167V457Q113 555 98 596Q91 614 79 625T50 641Q42 643 35 644T19 646V657H261L419
207H423L577 657H803V646Z" />
<glyph unicode="N" glyph-name="N" horiz-adv-x="683" d="M539 -6L160 533H156V167Q156 120 160 96T173 55Q188 25 216 17Q224 15 232 14T251 10V0H33V10Q44 12 52 13T68 17Q96 24 110 55Q118 72 123 96T129 167V442Q129 495 123 530T107 585Q99 602 83 616T47
639Q39 642 31 643T15 646V657H250L551 218H554V490Q554 537 550 561T537 602Q529 617 518 626T493 640L477 644Q469 646 458 646V657H676V646Q665 645 657 644T641 640Q628 636 617 627T599 601Q591 585 587 561T582 490V-6H539Z" />
<glyph unicode="O" glyph-name="O" horiz-adv-x="689" d="M344 670Q414 670 472 646T571 576T636 468T659 328Q659 251 636 188T572 80T472 11T344 -14Q274 -14 217 10T118 80T53 188T30 328Q30 405 53 468T117 576T216 645T344 670ZM344 7Q364 7 384 11T422 29Q440
44 455 67T482 125T500 210T506 328Q506 396 500 446T483 531T456 589T422 627Q403 641 384 645T344 649Q325 649 305 645T267 627Q248 612 233 589T206 531T188 446T182 328Q182 260 188 210T205 125T232 67T267 29Q285 15 305 11T344 7Z" />
<glyph unicode="P" glyph-name="P" horiz-adv-x="593" d="M323 634Q319 634 312 634T298 633T284 631T274 628Q257 620 252 599Q250 589 249 578T248 544V326Q257 324 275 323T304 321Q328 321 345 324T374 332T394 346T411 366Q425 387 430 421T436 483Q436 555
411 594T323 634ZM345 0H17V11Q25 12 33 13T50 16Q66 21 77 31T96 61Q104 85 107 125T110 214V444Q110 493 107 533T96 597Q89 615 78 625T50 641Q42 643 34 644T17 646V657H343Q456 657 519 615T582 484Q582 436 560 396T502 336Q473 320 426 309T302 298Q293
298 276 298T248 301V214Q248 165 251 125T262 60Q269 41 280 31T308 16Q315 14 326 13T345 10V0Z" />
<glyph unicode="Q" glyph-name="Q" horiz-adv-x="691" d="M528 -285Q477 -285 436 -260T356 -196Q337 -177 319 -158T282 -122T247 -96T214 -86Q199 -86 189 -95T178 -116Q178 -126 185 -133T197 -146Q203 -154 207 -163T210 -186Q210 -210 194 -225T155 -241Q131
-241 114 -224T97 -177Q97 -147 114 -125T153 -86T196 -61T228 -47Q242 -41 268 -32T320 -14Q259 -10 206 16T114 87T53 193T30 327Q30 404 54 467T122 576T222 645T346 670Q412 670 469 646T569 576T637 468T662 327Q662 258 643 201T589 101T506 29T400 -11Q380
-16 356 -23T308 -38T265 -53T234 -66V-70Q250 -66 268 -64T298 -61Q342 -61 378 -73T449 -108Q490 -134 523 -152T590 -172Q608 -172 622 -167T646 -151T664 -128T677 -100L688 -105Q684 -137 674 -169T646 -228Q631 -251 601 -268T528 -285ZM184 328Q184 263
190 214T207 128T234 67T269 28Q286 14 306 10T346 6Q365 6 385 10T422 28Q441 43 456 67T483 127T500 213T507 328Q507 457 484 527T423 627Q407 639 387 644T346 649Q323 649 304 645T269 628Q231 598 208 528T184 328Z" />
<glyph unicode="R" glyph-name="R" horiz-adv-x="654" d="M293 635Q262 635 251 617Q246 608 245 593T243 559V342H295Q340 342 361 350T397 379Q410 399 415 429T421 491Q421 558 398 596T317 635H293ZM336 0H16V11Q30 11 47 16Q63 21 75 31T94 63Q101 83 103
114T105 183V475Q105 513 103 544T93 595Q86 615 75 625T47 641Q29 646 16 646V657H343Q392 657 434 647T508 617T556 566T574 492Q574 442 551 409T490 355Q475 347 453 340T401 329V325Q424 322 448 315T490 296Q513 280 531 252T559 176Q570 111 582 77T612
28Q621 20 636 16T663 10V0H463Q447 19 435 54T418 132Q413 183 406 221T379 286Q363 307 341 312T287 317H243V183Q243 145 245 114T255 63Q262 42 273 32T301 16Q309 14 319 13T336 11V0Z" />
<glyph unicode="S" glyph-name="S" horiz-adv-x="519" d="M437 454Q427 490 410 527T373 588Q353 614 325 631T253 648Q209 648 183 623T157 556Q157 522 168 500T198 463T242 437T295 412Q334 394 370 377T433 336T477 277T493 190Q493 140 474 102T423 38T349
-1T262 -14Q236 -14 210 -9T162 6T121 28T93 52H89L58 4H48L41 231H54Q66 188 85 148T131 77T190 27T264 8Q294 8 315 17T349 41T369 76T375 120Q375 146 368 166T343 203T299 235T232 266Q198 280 164 298T103 342T58 403T41 486Q41 526 58 560T103 618T170 656T252
670Q300 670 336 655T391 618H394L423 656H436L449 454H437Z" />
<glyph unicode="T" glyph-name="T" horiz-adv-x="612" d="M375 183Q375 145 377 114T386 63Q393 42 405 32T433 16Q441 14 448 13T464 11V0H148V11Q155 12 163 13T179 16Q195 21 207 31T226 63Q233 83 235 114T237 183V635H210Q178 635 153 622T99 580Q70 550
51 514T18 449H6L32 657H580L606 449H594Q580 478 561 513T513 578Q463 635 401 635H375V183Z" />
<glyph unicode="U" glyph-name="U" horiz-adv-x="667" d="M571 222Q571 177 564 141T540 75Q520 40 473 14T345 -13Q306 -13 271 -8T206 11T153 47T116 101Q110 114 106 132T100 170T96 210T94 245V475Q94 513 92 544T83 595Q77 616 65 626T37 641Q29 643 21 644T6
647V657H322V646Q308 646 290 641Q274 636 263 626T244 595Q237 575 235 544T233 475V204Q233 179 235 154T246 107Q263 61 296 42T377 22Q427 22 465 41T520 95Q543 141 543 217V491Q543 538 538 562T525 603Q518 618 507 627T482 640Q467 646 446 647V657H666V647Q646
644 631 640Q618 636 607 627T588 602Q580 586 576 562T571 491V222Z" />
<glyph unicode="V" glyph-name="V" horiz-adv-x="611" d="M359 180H363L475 506Q482 526 487 546T492 586Q492 606 484 619T461 637Q452 641 441 643T419 646V657H622V646Q609 644 598 642T576 633Q567 627 558 618T541 595Q533 581 524 560T504 506L326 -4H269L123
464Q106 521 94 551T70 601Q59 617 47 625T20 639Q11 643 2 644T-15 647V657H324V646Q315 645 303 643T284 637Q270 632 259 620T248 587Q248 567 253 547T266 501L359 180Z" />
<glyph unicode="W" glyph-name="W" horiz-adv-x="935" d="M469 482L312 -4H256L115 479Q104 518 95 544T75 589T51 618T20 637Q11 641 1 643T-17 647V657H311V646Q285 642 265 630T245 588Q245 568 249 549T262 501L345 194H349L455 529Q435 591 414 612Q400 629
384 636T349 647V657H675V646Q662 644 649 641T625 631T607 614T600 588Q600 568 605 548T617 501L699 194H704L801 506Q809 530 813 551T817 587Q817 603 811 614T796 632T773 642T745 646V657H948V646Q922 642 904 633T868 596Q860 582 851 562T831 506L667 -4H610L469
482Z" />
<glyph unicode="X" glyph-name="X" horiz-adv-x="647" d="M12 10Q20 11 32 14T53 22Q66 30 76 37T95 54Q100 59 108 69T125 92T146 120T167 152L258 299L142 513Q125 542 111 565T80 605T45 632T0 647V657H343V647Q308 644 291 633T274 595Q274 578 283 557T305
513L367 402L432 508Q448 535 458 556T468 596Q468 624 447 634T398 647V657H616V647Q592 644 573 633T536 605T500 562T461 505L381 377L507 148Q523 119 538 96T569 56T605 27T650 11V0H308V11Q343 14 360 25T377 61Q377 78 367 100T343 148L272 274L196 149Q179
123 170 102T161 61Q161 29 190 18Q197 15 209 14T230 10V0H12V10Z" />
<glyph unicode="Y" glyph-name="Y" horiz-adv-x="640" d="M112 543Q98 569 86 587T62 618T34 637T-1 647V657H318V647Q309 645 298 644T280 639Q249 627 251 599T271 532L375 324H380L471 507Q487 539 494 559T501 598Q501 615 494 624T473 639Q465 642 454 644T434
647V657H642V647Q618 643 600 634T565 608T532 566T498 504L392 288V185Q392 145 394 114T403 62Q410 42 421 32T449 16Q457 14 465 13T481 11V0H164V11L180 13Q188 14 196 16Q212 21 224 31T243 62Q250 82 252 113T254 185V269L112 543Z" />
<glyph unicode="Z" glyph-name="Z" horiz-adv-x="579" d="M552 646L198 28H262Q295 28 320 31T366 40T403 55T436 76Q459 94 475 111T505 145T529 180T552 216H565L520 0H23V11L391 628H306Q254 628 215 616T151 586Q125 567 99 532T48 459H35L73 657H552V646Z" />
<glyph unicode="[" glyph-name="bracketleft" horiz-adv-x="377" d="M96 -82Q109 -65 128 -48T170 -17T215 5T262 14Q319 14 343 -13T368 -87Q368 -110 355 -128T333 -155H320Q327 -138 327 -124Q327 -72 261 -72Q213 -72 161 -83T66 -114V667Q109 647 161 636T261
625Q327 625 327 677Q327 691 320 708H333Q342 700 355 681T368 639Q368 593 344 566T262 539Q239 539 216 547T170 569T129 600T96 635V-82Z" />
<glyph unicode="\" glyph-name="backslash" horiz-adv-x="305" d="M-20 687L354 -88L329 -100L-45 676L-20 687Z" />
<glyph unicode="]" glyph-name="bracketright" horiz-adv-x="377" d="M282 635Q268 618 249 601T208 570T162 548T115 539Q58 539 34 566T10 639Q10 662 23 681T44 708H57Q50 691 50 677Q50 652 67 639T116 625Q164 625 216 636T312 667V-114Q269 -95 217 -84T116
-72Q84 -72 67 -85T50 -124Q50 -138 57 -155H44Q36 -147 23 -129T10 -87Q10 -40 34 -13T115 14Q138 14 162 6T208 -17T249 -48T282 -82V635Z" />
<glyph unicode="^" glyph-name="asciicircum" horiz-adv-x="357" d="M168 657H189L320 408H292L178 629L65 408H37L168 657Z" />
<glyph unicode="_" glyph-name="underscore" horiz-adv-x="297" d="M-5 -163V-134H302V-163H-5Z" />
<glyph unicode="`" glyph-name="grave" horiz-adv-x="309" d="M243 486Q186 518 151 535T90 569Q70 581 58 595T46 630Q46 651 59 663T92 675Q112 675 126 663T158 626Q167 613 176 600T196 571T220 536T250 493L243 486Z" />
<glyph unicode="a" glyph-name="a" horiz-adv-x="438" d="M339 -9Q292 -9 273 7Q265 13 260 25T254 58H250Q239 26 210 9T136 -9Q114 -9 93 -3T56 17T31 52T21 102Q21 125 28 141T49 173Q69 194 99 203T158 221Q210 237 229 256T250 296V312Q250 322 250 332T251
352V367Q251 401 241 413T201 425Q184 425 176 420T162 409Q157 402 155 386T151 350Q148 299 97 299Q74 299 60 311T45 346Q45 359 49 370T62 390Q71 401 86 410T120 427T160 438T204 442Q279 442 325 417T372 330V290Q372 261 372 227T371 158V103Q371 68 373
53T381 29Q391 19 406 19Q413 19 421 21T434 25L436 15Q429 8 402 0T339 -9ZM249 254Q240 242 229 235T203 220Q186 211 177 202T160 181Q153 169 150 149T146 106Q146 64 159 47T195 29Q213 29 229 48T248 101L249 254Z" />
<glyph unicode="b" glyph-name="b" d="M268 415Q252 415 235 408T204 380Q192 363 184 336T176 268V151Q176 113 181 88T197 46Q208 26 226 18T260 9Q283 9 299 24T326 66T341 131T346 214Q346 318 326 366T268 415ZM172 684Q179 684 179 676Q179 661 178 630T176
566V366H179Q194 404 226 423T301 443Q333 443 365 432T422 394T462 324T478 216Q478 156 460 114T413 44T346 4T268 -9Q250 -9 231 -5T194 7T161 27T135 55H131L63 -2H52Q54 20 54 45T55 89V591Q55 602 55 613T52 631Q50 644 44 651T29 663Q22 668 12 670T-6 673V684H172Z"
/>
<glyph unicode="c" glyph-name="c" horiz-adv-x="414" d="M405 133Q397 104 384 79T350 34T301 3T236 -9Q189 -9 153 5T90 43Q58 74 40 118T22 220Q22 274 41 315T91 385T162 428T242 443Q293 443 326 430T374 400Q398 373 398 345Q398 319 383 307T348 294Q319
294 307 312T289 361Q283 396 273 411T241 426Q227 426 213 420T189 403Q171 383 162 338T153 229Q153 161 163 118T192 49Q204 32 219 26T252 19Q284 19 306 30T344 58T370 97T388 139L405 133Z" />
<glyph unicode="d" glyph-name="d" horiz-adv-x="520" d="M508 -1Q502 -1 475 -1T417 -2T361 -2T334 -3Q331 -3 329 2Q329 5 329 14T330 27Q330 28 330 35T329 50V73H327Q313 35 282 13T203 -9Q168 -9 135 4T77 46T37 116T22 216Q22 272 38 314T82 385T144 428T218
443Q263 443 287 424T323 380H325V572Q325 586 325 605T322 633Q319 646 314 653T300 666Q292 670 284 671T267 674V684H445Q451 684 451 677Q451 665 451 643T449 595L448 544Q448 519 448 501V82Q448 66 450 55Q454 30 474 18Q481 13 491 12T508 9V-1ZM325 293Q325
325 319 347T300 386Q289 401 275 409T240 418Q201 418 177 365T153 214Q153 114 176 68T236 21Q274 21 299 54T325 146V293Z" />
<glyph unicode="e" glyph-name="e" horiz-adv-x="435" d="M272 254Q289 254 296 262T303 293Q303 376 278 407Q261 425 233 425Q206 425 188 407Q173 391 164 354T153 254H272ZM415 133Q401 73 357 32T237 -9Q199 -9 162 2T96 37Q61 67 42 111T22 215Q22 270 39
313T86 384T153 428T231 443Q279 443 314 428T373 388T407 332T419 268Q419 260 419 251T417 234H153Q153 157 165 114T198 48Q225 21 267 21Q297 21 319 31T357 59T383 97T400 139L415 133Z" />
<glyph unicode="f" glyph-name="f" horiz-adv-x="287" d="M10 0V10L22 12Q28 13 34 16Q46 21 52 27T64 51Q68 63 68 84T69 126V408H10V433H68V498Q68 558 87 593T125 646Q144 663 174 676T247 689Q282 689 305 684T346 671Q369 659 379 641T389 603Q389 581 375
565T336 549Q299 549 284 580Q280 587 278 595T273 614Q270 641 264 654Q256 671 241 671Q214 671 202 642Q195 628 193 607T191 557V433H286V408H191V126Q191 106 192 85T196 52Q201 35 207 28T226 16Q232 13 242 12T259 10V0H10Z" />
<glyph unicode="g" glyph-name="g" horiz-adv-x="470" d="M437 -42Q437 -87 415 -119T358 -172T278 -203T190 -213Q102 -213 52 -191T2 -118Q2 -83 35 -60T118 -31V-28Q79 -23 55 -1T30 59Q30 80 38 96T59 123T87 142T115 154V157Q80 174 55 208T29 291Q29 328
44 356T83 404T139 433T203 443Q243 443 281 428T342 385H347Q355 412 377 429T429 446Q488 446 488 394Q488 368 475 357T442 346Q425 346 415 355T400 376Q394 389 390 395T379 402Q372 402 367 393T361 371Q361 366 363 358T369 342Q374 331 376 317T379 291Q379
253 364 225T324 178T268 150T205 140Q188 140 173 142T146 147Q129 145 111 136T93 108Q93 78 140 78Q150 78 170 79T212 82T256 85T289 87Q358 87 397 58T437 -42ZM190 -197Q268 -197 313 -171T359 -96Q359 -60 342 -44T285 -27Q273 -27 257 -27T225 -29T193
-31T167 -34Q151 -36 135 -40T104 -53T81 -77T72 -117Q72 -155 101 -176T190 -197ZM203 427Q171 427 155 397T138 291Q138 216 154 185T203 154Q236 154 252 184T269 291Q269 367 253 397T203 427Z" />
<glyph unicode="h" glyph-name="h" horiz-adv-x="542" d="M471 126Q471 106 472 85T476 52Q481 35 488 28T506 16Q512 13 518 12T531 10V0H295V10Q302 11 307 12T319 15Q331 21 337 29T346 55Q348 67 349 84T350 118V323Q350 349 347 363T335 387Q327 396 317
400T292 404Q279 404 266 398T240 379T219 350T207 310Q202 293 200 274T197 233V118Q197 101 197 84T200 55Q204 38 210 30T229 15Q234 13 239 12T252 10V0H16V10Q23 11 29 12T41 16Q52 20 59 27T71 51Q74 63 74 84T75 126V570Q75 584 75 602T72 633Q70 645 65
651T52 663Q45 668 35 670T16 674V684H192Q198 684 198 677Q198 665 197 634T196 564V345H200Q209 371 222 387T251 414Q270 428 294 435T342 443Q412 443 442 407Q456 393 463 369T471 310V126Z" />
<glyph unicode="i" glyph-name="i" horiz-adv-x="270" d="M198 115Q198 98 199 80T203 51Q208 34 214 27T232 15Q238 13 244 12T257 10V0H17V10Q23 11 29 12T42 15Q53 20 59 27T71 51Q74 62 75 80T76 115V330Q76 340 76 349T75 368T73 383Q71 395 66 401T54 413Q47
418 38 420T21 422V433H193Q200 433 200 426Q199 413 199 397T198 358V115ZM137 526Q110 526 90 544T70 592Q70 621 90 640T137 659Q164 659 184 640T205 592Q205 563 185 545T137 526Z" />
<glyph unicode="j" glyph-name="j" horiz-adv-x="241" d="M128 526Q100 526 81 544T61 592Q61 621 81 640T128 659Q155 659 175 640T195 592Q195 563 175 545T128 526ZM66 314Q66 328 66 349T63 382Q61 395 57 401T45 413Q37 418 28 420T11 422V433H184Q190 433
190 426Q190 413 190 397T188 357V0Q188 -39 182 -67T166 -115T144 -150T120 -174Q106 -186 76 -199T1 -213Q-25 -213 -48 -207T-89 -189Q-109 -176 -120 -156T-132 -111Q-132 -84 -114 -66T-69 -47Q-40 -47 -25 -64T-9 -107Q-9 -113 -11 -121T-15 -138Q-20 -155
-20 -164Q-20 -177 -14 -185T6 -194Q23 -194 33 -187T51 -166Q58 -152 62 -127T66 -72V314Z" />
<glyph unicode="k" glyph-name="k" horiz-adv-x="504" d="M257 0H15V10Q21 11 27 12T40 16Q51 21 57 28T69 52Q72 64 73 85T74 126V581Q74 591 74 600T72 619T70 634Q68 646 64 652T52 664Q44 669 35 670T18 673V684H192Q198 684 198 677Q197 667 197 647T196
595V214L298 313Q318 334 330 352T342 385Q342 394 340 401T326 414Q320 417 309 419T290 423V433H485V423Q457 418 424 398Q420 395 411 388T390 371T365 349T339 325L301 288Q348 277 376 246T415 168Q418 150 423 130T434 91T447 57T461 34Q470 24 481 19T512
11V0H347Q332 11 320 46T299 128Q291 172 279 196T241 231L196 187V126Q196 106 196 85T200 52Q205 35 212 28T230 16Q236 13 243 12T257 10V0Z" />
<glyph unicode="l" glyph-name="l" horiz-adv-x="270" d="M196 126Q196 106 196 85T201 52Q206 35 212 28T231 16Q236 13 243 12T256 10V0H15V10Q21 11 27 12T40 16Q51 21 57 28T69 52Q72 64 73 85T74 126V564Q74 578 73 600T70 634Q68 646 64 652T52 664Q45 669
36 670T18 673V684H191Q198 684 198 677Q197 664 197 648T196 608V126Z" />
<glyph unicode="m" glyph-name="m" horiz-adv-x="808" d="M253 0H17V10Q23 11 29 12T42 16Q54 21 60 27T71 51Q75 63 75 84T76 126V315Q76 329 76 350T73 383Q71 395 66 401T54 413Q47 418 38 420T21 422V433H192Q199 433 199 427Q199 424 199 413T198 388T197
362T196 345H200Q209 371 221 387T249 414Q267 428 292 435T340 443Q375 443 398 435T436 410Q447 399 455 383T465 344H468Q477 370 490 387T519 415Q537 428 561 435T608 443Q644 443 669 434T708 407Q721 392 728 370T736 312V126Q736 106 737 85T741 52Q746
35 753 28T771 16Q776 13 782 12T796 10V0H560V10Q567 11 572 12T584 15Q596 21 602 29T611 55Q613 67 614 84T615 118V323Q615 349 612 363T600 387Q586 404 558 404Q532 404 508 382T476 312Q468 283 468 250V122Q468 104 468 86T471 55Q474 38 480 30T499 15Q504
13 510 12L522 10V0H291V10Q298 11 303 12T315 15Q327 21 333 29T342 55Q345 67 345 84T346 118V323Q346 349 343 363T331 387Q317 404 289 404Q263 404 239 381T207 311Q198 278 198 233V118Q198 101 198 84T202 55Q205 38 211 30T230 15Q235 13 240 12T253 10V0Z"
/>
<glyph unicode="n" glyph-name="n" horiz-adv-x="538" d="M467 126Q467 106 468 85T472 52Q477 35 483 28T502 16Q507 13 513 12T526 10V0H291V10L303 12Q309 13 314 15Q327 21 333 29T342 55Q344 67 345 84T346 118V323Q346 349 343 363T331 387Q324 395 315
399T288 403Q277 403 265 398T241 382T220 353T207 311Q198 278 198 233V118Q198 101 198 84T201 55Q205 38 210 30T229 15Q235 13 240 12T253 10V0H17V10Q23 11 29 12T42 16Q53 21 60 27T72 51Q75 63 75 84T76 126V330Q76 340 76 349T75 368T73 383Q71 395 66
401T55 413Q47 418 38 420T21 422V433H192Q198 433 198 427Q198 424 198 413T197 387T197 360T196 343H200Q209 369 223 386T252 414Q271 428 295 435T342 443Q376 443 399 435T437 408Q451 393 459 369T467 309V126Z" />
<glyph unicode="o" glyph-name="o" horiz-adv-x="485" d="M22 217Q22 270 41 312T90 383T160 427T242 443Q284 443 324 428T394 383T444 312T463 217Q463 164 444 122T395 51T324 7T242 -9Q200 -9 161 6T91 51T41 122T22 217ZM333 217Q333 362 294 406Q283 418
270 422T242 426Q229 426 216 422T191 406Q152 365 152 217Q152 70 191 28Q202 16 215 11T242 6Q256 6 269 10T294 28Q333 72 333 217Z" />
<glyph unicode="p" glyph-name="p" horiz-adv-x="522" d="M370 219Q370 277 365 314T349 374T324 404T290 413Q271 413 254 403T225 374T205 330T197 274V154Q197 121 203 92T223 45Q251 12 288 12Q309 12 324 23T349 59T365 123T370 219ZM15 -203Q21 -202 26
-201T38 -197Q52 -191 59 -184T71 -159Q74 -145 74 -126T75 -87V314Q75 328 75 348T72 379Q70 391 66 397T53 410Q45 417 32 419T11 423V433H188Q196 433 196 425Q196 424 196 415T195 394V365H199Q215 402 248 422T319 443Q355 443 388 430T446 390T486 319T501
217Q501 163 486 121T443 50T380 6T302 -9Q238 -9 201 25H197V-87Q197 -107 197 -126T201 -159Q206 -176 213 -183T234 -197Q239 -200 245 -201T259 -203V-213H15V-203Z" />
<glyph unicode="q" glyph-name="q" horiz-adv-x="504" d="M320 289Q320 318 316 343T299 390Q289 404 275 412T240 420Q200 420 177 369T154 216Q154 112 179 65T242 18Q260 18 275 29T301 59Q309 74 314 98T320 171V289ZM362 363L436 441H450Q449 431 448 417T445
386T444 355T443 329V-87Q443 -107 444 -126T447 -159Q451 -176 458 -184T478 -197Q489 -201 503 -203V-213H256V-203Q263 -202 271 -201T285 -197Q299 -191 305 -184T317 -159Q321 -145 321 -126T322 -87V47H317Q282 -10 207 -10Q170 -10 137 4T78 46T37 117T22
215Q22 271 40 313T86 385T151 428T224 443Q277 443 310 418T357 363H362Z" />
<glyph unicode="r" glyph-name="r" horiz-adv-x="380" d="M200 330Q210 364 224 385T252 417Q264 427 281 435T322 443Q336 443 351 439T377 424Q385 416 389 404T394 371Q394 344 378 328T338 312Q313 312 301 324T281 357Q276 372 272 378T259 384Q252 384 243
376T226 352T210 315T200 266Q199 260 199 241T198 202V118Q198 100 198 84T202 54Q206 37 213 29T232 16Q238 13 245 12T260 10V0H17V10Q23 11 30 12T42 16Q54 21 60 28T71 52Q75 64 75 85T76 126V349Q76 359 76 367T74 382Q72 395 68 401T56 413Q48 418 39 420T21
423V433H192Q198 433 198 427V410Q198 396 198 380T197 348V330H200Z" />
<glyph unicode="s" glyph-name="s" horiz-adv-x="378" d="M356 134Q356 100 344 74T310 29T259 1T196 -9Q166 -9 133 1T77 32H73L43 1H34L29 161H40Q47 129 62 101T99 52T145 19T196 7Q231 7 247 21T263 71Q263 103 236 122T159 162Q136 171 113 183T72 212T42
253T30 312Q30 339 41 362T72 404T121 432T184 443Q199 443 214 440T243 433T268 421T286 407H289L311 434H320L324 305H313Q300 357 266 390Q249 407 228 416T184 425Q158 425 140 411T122 367Q122 334 147 315T219 278Q247 267 272 255T315 227T345 188T356 134Z"
/>
<glyph unicode="t" glyph-name="t" horiz-adv-x="313" d="M314 57Q300 33 269 12T193 -9Q129 -9 97 19Q79 35 72 56T65 106V131Q65 152 65 182T66 248T67 315T68 372T69 409Q58 411 39 411T9 412V426Q70 438 110 481T174 606H192V433H291V408H192L188 96Q188 69
198 51T240 33Q260 33 277 41T306 66L314 57Z" />
<glyph unicode="u" glyph-name="u" horiz-adv-x="523" d="M66 316Q66 332 65 352T62 383Q57 406 42 416Q34 420 25 421T8 423V433H183Q190 433 190 425Q189 414 189 383T188 317V111Q188 67 203 46Q211 35 222 30T248 25Q274 25 298 54T328 134Q330 151 330 165T331
200V323Q331 338 331 353T328 380Q324 405 308 415Q301 419 291 421T273 423V433H447Q454 433 454 425Q454 414 454 385T453 320V115Q453 100 453 83T456 54Q460 28 478 18Q484 14 493 13T511 10V0H494Q481 0 463 0T423 -1T383 -2T352 -3H339Q334 -3 334 2V25Q333
26 333 35V83H330Q320 59 312 46T286 18Q269 4 246 -2T200 -9Q171 -9 144 -2T98 26Q82 43 74 69T66 127V316Z" />
<glyph unicode="v" glyph-name="v" horiz-adv-x="420" d="M437 423Q431 422 424 421T408 414Q396 408 385 391Q379 380 372 363T353 316L240 -3H183L75 297Q66 321 58 342T45 374Q38 390 31 399T15 414Q7 419 -1 420T-16 423V433H235V423Q226 422 216 421T200
416Q185 407 185 384Q185 370 189 355T201 316L262 125H264L330 312Q334 325 337 334T342 352T345 367T346 385Q346 397 342 404T329 416Q321 420 314 421T298 423V433H437V423Z" />
<glyph unicode="w" glyph-name="w" horiz-adv-x="661" d="M331 295L229 -3H172L72 297Q61 327 52 354T29 393Q21 404 16 409T2 418Q-2 421 -7 422T-17 423V433H227V423Q217 422 209 421T195 415Q182 405 182 385Q182 372 185 359T195 323L252 129H255Q257 136
266 164T287 226T308 289T320 325Q315 341 310 354T302 375Q295 391 289 399T274 414Q261 423 247 423V433H488V423Q480 422 471 421T455 416Q440 406 440 383Q440 369 444 354T456 316L510 129H512L574 312Q583 339 586 353T589 385Q589 397 584 404T572 416Q565
420 558 421T543 423V433H680V423Q673 422 666 421T651 414Q639 409 627 391Q621 380 614 363T596 316L487 -3H430L331 295Z" />
<glyph unicode="x" glyph-name="x" horiz-adv-x="441" d="M161 0H8V11Q16 12 27 15T45 24Q57 31 66 38T84 56T103 80T127 117L172 188L84 341Q54 394 30 410Q16 420 -3 423V433H235V423Q218 422 210 417Q204 413 200 408T196 392Q196 383 200 374T213 351L257
276L286 324Q299 344 306 358T314 386Q314 398 312 404T302 414Q296 418 290 420T272 423V433H422V423Q414 421 403 418T384 410Q372 402 363 395T346 376T327 350T303 311L268 257L362 92Q376 67 391 49T418 23Q425 18 435 15T453 11V0H211V11Q229 12 236 16Q243
20 246 25T250 41Q250 56 234 81L183 170L143 106L123 73Q116 61 116 49Q116 28 131 19Q138 16 144 14T161 11V0Z" />
<glyph unicode="y" glyph-name="y" horiz-adv-x="431" d="M219 -72Q208 -101 194 -127T165 -173Q131 -213 76 -213Q42 -213 19 -195T-5 -142Q-5 -120 9 -106T48 -91Q70 -91 82 -100T103 -129Q111 -144 115 -153T131 -162Q145 -162 161 -139T195 -73Q199 -63 204
-49T210 -32Q211 -28 211 -21T207 -5L89 297Q78 328 69 347T54 377Q46 391 40 399T23 413Q16 418 7 420T-10 423V433H245V423Q237 422 228 421T213 416Q197 406 197 385Q197 371 202 356T215 316L277 139H279L343 312Q353 338 356 353T360 384Q360 397 355 404T342
416Q334 420 327 421T312 423V433H455V423Q438 421 424 413T399 388Q393 378 386 362T368 316Q359 291 346 255T317 180T286 99T257 24T233 -36T219 -72Z" />
<glyph unicode="z" glyph-name="z" horiz-adv-x="409" d="M366 0H17V8L236 412V416H153Q132 416 115 403T87 377Q85 375 78 366T62 342T43 312T25 280H12L48 433H374V422L160 20V17H235Q264 17 284 29T318 61Q321 64 331 79T353 112T373 145T385 164H397L366 0Z" />
<glyph unicode="{" glyph-name="braceleft" horiz-adv-x="360" d="M360 -142Q307 -142 264 -135T190 -111T142 -62T125 18Q125 32 128 50T134 87T141 122T144 148Q144 190 131 212T90 247Q79 253 63 255T30 259V279Q47 280 64 282T92 292Q118 305 131 326T144
390Q144 400 141 416T135 450T128 487T125 520Q125 569 142 600T189 649T263 673T360 680V665Q338 664 319 658T285 639T262 604T253 548Q253 536 255 521T259 489T263 458T265 431Q265 356 224 319T95 271V267Q183 257 224 220T265 107Q265 95 263 80T259 49T255
18T253 -10Q253 -44 261 -66T284 -101T318 -120T360 -127V-142Z" />
<glyph unicode="|" glyph-name="bar" horiz-adv-x="154" d="M63 -99V687H90V-99H63Z" />
<glyph unicode="}" glyph-name="braceright" horiz-adv-x="360" d="M0 -127Q22 -126 41 -120T75 -101T98 -66T107 -10Q107 2 105 17T101 49T97 80T95 107Q95 182 136 219T265 267V271Q177 282 136 319T95 431Q95 443 97 458T101 489T105 520T107 548Q107 582 99
604T76 639T42 658T0 665V680Q53 680 96 674T170 649T218 600T235 520Q235 506 232 488T226 451T219 416T216 390Q216 349 228 328T267 292Q278 285 295 283T329 279V259Q312 258 296 256T269 247Q242 234 229 212T216 148Q216 138 219 122T225 88T232 51T235 18Q235
-31 218 -62T171 -110T97 -135T0 -142V-127Z" />
<glyph unicode="~" glyph-name="asciitilde" horiz-adv-x="359" d="M331 338Q327 317 320 296T301 259T273 232T233 221Q216 221 200 225T168 234T137 244T107 248Q85 248 69 238T42 203L27 206Q33 226 41 246T61 283T89 310T127 321Q142 321 157 317T188 308T219
299T248 295Q274 295 290 305T317 340L331 338Z" />
<glyph unicode="&#xa0;" glyph-name="uni00A0" horiz-adv-x="188" />
<glyph unicode="&#xa1;" glyph-name="exclamdown" horiz-adv-x="234" d="M116 672Q144 672 162 653T180 607Q180 581 162 562T116 543Q89 543 71 562T52 607Q52 633 70 652T116 672ZM194 65Q194 24 173 5T117 -14Q83 -14 61 5T39 65Q39 101 49 146T73 257Q87 342
96 400T108 483H126Q129 459 138 401T161 258Q174 192 184 147T194 65Z" />
<glyph unicode="&#xa2;" glyph-name="cent" horiz-adv-x="413" d="M231 -12Q190 -10 153 2T90 40Q22 105 22 217Q22 269 40 309T87 378T154 421T231 439V525H253V439Q300 437 330 424T374 396Q398 370 398 341Q398 317 384 305T351 292Q324 292 311 309T293 357Q288
386 279 400T253 420V17Q284 17 306 28T344 56T370 94T388 136L405 130Q397 103 385 79T354 35T310 4T253 -11V-95H231V-12ZM231 422Q220 420 209 415T189 400Q171 380 162 335T153 226Q153 158 163 115T192 46Q207 24 231 19V422Z" />
<glyph unicode="&#xa3;" glyph-name="sterling" horiz-adv-x="649" d="M471 670Q540 670 579 637T618 550Q618 520 608 498T582 463T544 443T500 436Q460 436 434 456T399 509L412 516Q422 494 439 483T477 472Q506 472 526 490T547 559Q547 603 525 625T470 647Q436
647 413 626T382 563Q371 514 370 453T363 327V311Q363 302 362 297H525V271H359Q353 232 342 196T316 130Q344 123 377 117T433 110Q503 110 541 131T594 192L610 187Q605 144 592 106T556 38T500 -9T421 -27Q374 -27 329 -5T249 41Q223 15 189 0T109 -15Q58 -15
28 7T-2 69Q-2 113 35 138T131 164Q151 164 170 160T219 148Q219 174 218 206T216 271H103V297H214Q213 311 213 327T214 358Q219 436 243 494T303 592T383 650T471 670ZM103 128Q77 128 60 112T43 70Q43 42 62 25T117 8Q150 8 175 23T218 65Q215 68 212 70T205
75Q182 96 157 112T103 128Z" />
<glyph unicode="&#xa5;" glyph-name="yen" horiz-adv-x="609" d="M154 11Q164 12 175 14T192 18Q206 23 214 31T228 60Q232 74 233 93T234 132V184H67V211H234V286H67V313H227L94 541Q71 582 52 603T10 634Q-5 641 -19 642V653H299V642Q289 641 278 639T258 634Q241
628 235 617T229 591T237 560T253 528L354 343H359L445 503Q457 525 465 546T476 584T473 615T450 635Q442 638 429 639T408 642V653H619V642Q599 640 582 632Q553 619 528 587T473 499L374 313H536V286H369V211H536V184H369V132Q369 112 370 93T375 60Q379 43
387 35T410 19Q418 16 428 14T448 11V0H154V11Z" />
<glyph unicode="&#xa7;" glyph-name="section" horiz-adv-x="459" d="M244 670Q318 670 357 647T398 585Q398 565 387 549T352 532Q328 532 316 545T299 572Q294 583 293 599T288 626Q283 637 275 643T241 650Q214 650 194 631T173 575Q173 549 184 528T214 488T253
454T295 423Q319 405 344 384T390 339T424 286T437 226Q437 177 410 140T338 85Q360 63 373 36T387 -29Q387 -62 375 -91T340 -141T289 -174T225 -187Q151 -187 111 -162T70 -98Q69 -77 80 -61T116 -45Q140 -45 152 -58T169 -85Q173 -96 174 -114T179 -142Q184
-154 193 -160T227 -167Q256 -167 276 -148T297 -92Q297 -65 285 -43T255 -2T213 33T169 67Q145 85 121 106T79 151T49 202T37 259Q37 310 65 346T135 397Q112 420 97 448T82 515Q82 548 94 576T129 625T180 658T244 670ZM350 157Q350 179 337 202T305 247T262
288T218 323Q202 337 186 350T155 379Q142 373 134 359T125 325Q125 302 137 280T167 238T208 199T249 166Q266 150 284 135T319 102Q333 109 341 123T350 157Z" />
<glyph unicode="&#xa8;" glyph-name="dieresis" horiz-adv-x="409" d="M114 645Q139 645 156 628T173 587Q173 563 156 546T114 528Q89 528 73 545T56 586Q56 610 73 627T114 645ZM294 645Q319 645 336 628T353 587Q353 563 336 546T294 528Q269 528 253 545T236
586Q236 610 253 627T294 645Z" />
<glyph unicode="&#xa9;" glyph-name="copyright" horiz-adv-x="898" d="M864 259Q864 173 831 98T742 -34T611 -123T450 -156Q364 -156 289 -123T157 -34T67 97T34 259Q34 344 67 419T156 550T288 639T450 672Q535 672 610 640T742 551T831 419T864 259ZM836 259Q836
340 805 411T721 534T598 617T450 647Q372 647 302 617T179 535T94 411T62 259Q62 176 93 105T178 -19T302 -102T450 -133Q528 -133 598 -103T721 -20T805 104T836 259ZM646 190Q638 158 624 129T586 76T531 39T456 25Q411 25 376 35T315 65Q270 94 242 143T214
261Q214 318 234 361T288 434T367 479T462 494Q516 494 550 478T604 438H608L628 473H637V302H623Q615 332 605 362T577 417T533 457T468 472Q450 472 433 466T402 445Q376 419 362 375T348 264Q348 226 352 198T364 148T381 112T401 87Q417 70 435 65T476 59Q529
59 567 90T628 195L646 190Z" />
<glyph unicode="&#xaa;" glyph-name="ordfeminine" horiz-adv-x="401" d="M122 267Q103 267 85 273T53 291T31 322T22 368Q22 389 27 402T43 427Q58 444 82 454T129 470Q157 477 175 485T205 503T221 523T229 545V601Q229 633 219 643T183 654Q169 654 162 651T149
642Q145 635 144 621T141 589Q138 541 91 541Q70 541 57 552T44 585Q44 607 59 625Q67 635 80 643T111 658T147 667T186 671Q253 671 296 648T339 569V533Q339 508 339 478T338 417V369Q338 337 340 323T348 302Q353 294 368 294Q382 294 393 300L395 290Q388 283
365 275T308 267Q267 267 249 282Q241 288 236 299T231 329H228Q217 300 191 284T122 267ZM227 504Q218 492 205 485T175 468Q157 456 147 437Q141 426 139 409T136 371Q136 335 147 319T178 303Q195 303 210 322T226 375L227 504Z" />
<glyph unicode="&#xab;" glyph-name="guillemotleft" horiz-adv-x="437" d="M389 399L402 387Q392 371 379 353T353 317T326 280T303 246Q313 229 326 211T352 174T379 137T402 103L389 91L215 239V251L389 399ZM227 404L240 392Q230 377 217 359T188 321T159
283T135 246Q145 229 159 210T187 172T215 135T240 98L227 86L39 239V252L227 404Z" />
<glyph unicode="&#xae;" glyph-name="registered" horiz-adv-x="563" d="M533 421Q533 370 513 325T459 245T378 191T281 171Q229 171 184 191T104 245T50 324T30 421Q30 472 50 517T104 597T183 651T281 671Q332 671 378 651T458 597T513 518T533 421ZM508 421Q508
467 490 509T441 582T369 632T281 651Q234 651 193 633T121 583T72 509T54 421Q54 374 72 333T120 260T192 211T281 192Q327 192 368 210T441 260T490 332T508 421ZM342 290Q335 299 330 314T322 349Q320 370 316 385T304 412Q292 430 267 430H245V336Q245 327
247 322Q249 317 251 313T259 306Q263 304 270 304T282 303V290H146V303Q150 303 157 303T168 306Q174 308 176 312T180 322Q182 327 182 335V528Q182 537 180 542Q178 547 176 551T168 557Q164 559 157 560T146 561V573H287Q336 573 362 556T388 504Q388 477 367
460T306 438V437Q341 433 359 419T386 362Q391 333 397 325T413 311Q416 309 425 306T439 303V290H342ZM320 504Q320 533 310 545T272 557H245V444H268Q297 444 308 461T320 504Z" />
<glyph unicode="&#xaf;" glyph-name="macron" horiz-adv-x="356" d="M58 549V595H298V549H58Z" />
<glyph unicode="&#xb0;" glyph-name="degree" horiz-adv-x="332" d="M291 544Q291 515 281 492T253 452T213 426T165 416Q140 416 118 425T78 451T50 491T39 544Q39 572 49 596T77 636T117 662T165 672Q190 672 212 663T252 637T280 596T291 544ZM245 544Q245
598 224 626T165 654Q127 654 106 626T85 544Q85 491 106 463T165 434Q203 434 224 462T245 544Z" />
<glyph unicode="&#xb4;" glyph-name="acute" horiz-adv-x="321" d="M268 627Q268 607 257 594T225 569Q199 553 165 536T72 486L65 493Q82 517 95 536T118 571T138 600T157 626Q175 650 188 662T221 675Q244 675 256 663T268 627Z" />
<glyph unicode="&#xb6;" glyph-name="paragraph" horiz-adv-x="520" d="M426 637V-151H400V637H304V-151H279V259H260Q196 259 152 276T80 322T40 385T27 457Q27 497 41 533T83 596T151 640T245 657H510V637H426Z" />
<glyph unicode="&#xb7;" glyph-name="periodcentered" horiz-adv-x="272" d="M203 266Q203 237 183 219T136 201Q109 201 90 219T70 266Q70 294 90 313T136 332Q162 332 182 314T203 266Z" />
<glyph unicode="&#xb8;" glyph-name="cedilla" horiz-adv-x="296" d="M243 -111Q243 -134 234 -149T208 -174T172 -188T129 -192Q108 -192 85 -186T49 -172L56 -161Q67 -166 82 -169T113 -173Q139 -173 156 -159T173 -112Q173 -84 161 -72T133 -59Q125 -59 117
-61T103 -70L87 -63L106 0H126L111 -49Q119 -44 132 -41T156 -38Q198 -38 220 -57T243 -111Z" />
<glyph unicode="&#xba;" glyph-name="ordmasculine" horiz-adv-x="439" d="M417 468Q417 420 400 382T356 319T292 280T219 266Q182 266 147 279T84 318T39 382T22 468Q22 517 39 554T83 617T146 656T219 670Q256 670 291 657T355 618T400 554T417 468ZM299 468Q299
532 291 574T264 636Q254 647 243 650T219 654Q208 654 196 650T175 637Q156 619 148 576T140 468Q140 404 148 362T174 300Q185 289 196 286T219 282Q231 282 242 285T264 300Q282 318 290 361T299 468Z" />
<glyph unicode="&#xbb;" glyph-name="guillemotright" horiz-adv-x="437" d="M398 239L210 86L197 98Q207 116 221 134T249 172T278 210T302 246Q292 264 278 283T249 321T221 358T197 392L210 404L398 252V239ZM222 239L48 91L35 103Q45 119 58 137T84 173T110
210T134 246Q124 262 111 280T85 316T58 353T35 387L48 399L222 251V239Z" />
<glyph unicode="&#xbf;" glyph-name="questiondown" horiz-adv-x="429" d="M392 608Q392 582 374 563T328 543Q301 543 283 562T264 608Q264 634 282 653T328 672Q356 672 374 653T392 608ZM398 80Q398 61 387 44T356 14T307 -6T246 -14Q211 -14 177 -5T120 19Q80
45 55 83T30 186Q30 235 48 269T95 324T157 356T221 366Q251 366 277 359T318 341H320V467H342V324L328 311Q312 325 295 330T257 335Q233 335 216 320T188 278T172 213T167 127Q167 104 171 83T184 45T207 18T242 8Q258 8 265 22T279 66Q282 81 286 93T297 115T316
130T345 136Q370 136 384 121T398 80Z" />
<glyph unicode="&#xc0;" glyph-name="Agrave" horiz-adv-x="616" d="M250 477H246L164 241H327L250 477ZM-14 11Q-2 13 8 15T29 24Q39 30 48 39T67 64Q75 78 84 99T104 152L288 662H335L487 211Q504 158 519 121T548 60Q559 43 570 34T595 19Q615 12 629 11V0H302V11Q312
13 322 15T340 20Q355 26 364 36T374 69Q374 90 368 111T354 157L335 218H156L132 148Q124 124 120 106T116 73Q116 52 125 39T149 20Q159 16 170 14T190 11V0H-14V11ZM415 702Q351 716 311 725T240 743Q215 751 197 763T179 798Q179 820 191 833T224 847Q241 847
254 841T289 817Q315 797 344 773T420 712L415 702Z" />
<glyph unicode="&#xc1;" glyph-name="Aacute" horiz-adv-x="616" d="M250 477H246L164 241H327L250 477ZM-14 11Q-2 13 8 15T29 24Q39 30 48 39T67 64Q75 78 84 99T104 152L288 662H335L487 211Q504 158 519 121T548 60Q559 43 570 34T595 19Q615 12 629 11V0H302V11Q312
13 322 15T340 20Q355 26 364 36T374 69Q374 90 368 111T354 157L335 218H156L132 148Q124 124 120 106T116 73Q116 52 125 39T149 20Q159 16 170 14T190 11V0H-14V11ZM405 847Q425 847 438 834T451 798Q451 776 433 764T389 743Q360 735 320 726T215 703L210 712Q233
731 251 746T285 773T313 795T339 816Q361 833 374 840T405 847Z" />
<glyph unicode="&#xc2;" glyph-name="Acircumflex" horiz-adv-x="616" d="M250 477H246L164 241H327L250 477ZM-14 11Q-2 13 8 15T29 24Q39 30 48 39T67 64Q75 78 84 99T104 152L288 662H335L487 211Q504 158 519 121T548 60Q559 43 570 34T595 19Q615 12 629
11V0H302V11Q312 13 322 15T340 20Q355 26 364 36T374 69Q374 90 368 111T354 157L335 218H156L132 148Q124 124 120 106T116 73Q116 52 125 39T149 20Q159 16 170 14T190 11V0H-14V11ZM439 708L309 771L180 708L172 716Q185 731 201 749T232 786T261 819T281 841H338Q345
834 358 819T386 786T418 750T447 716L439 708Z" />
<glyph unicode="&#xc3;" glyph-name="Atilde" horiz-adv-x="616" d="M250 477H246L164 241H327L250 477ZM-14 11Q-2 13 8 15T29 24Q39 30 48 39T67 64Q75 78 84 99T104 152L288 662H335L487 211Q504 158 519 121T548 60Q559 43 570 34T595 19Q615 12 629 11V0H302V11Q312
13 322 15T340 20Q355 26 364 36T374 69Q374 90 368 111T354 157L335 218H156L132 148Q124 124 120 106T116 73Q116 52 125 39T149 20Q159 16 170 14T190 11V0H-14V11ZM470 832Q466 811 459 791T441 753T412 726T372 715Q355 715 336 719T297 729T260 738T229 743Q209
743 194 735T167 703L155 707Q160 727 168 747T188 783T216 810T253 820Q269 820 288 816T326 807T363 797T393 793Q419 793 433 802T457 835L470 832Z" />
<glyph unicode="&#xc4;" glyph-name="Adieresis" horiz-adv-x="616" d="M250 477H246L164 241H327L250 477ZM-14 11Q-2 13 8 15T29 24Q39 30 48 39T67 64Q75 78 84 99T104 152L288 662H335L487 211Q504 158 519 121T548 60Q559 43 570 34T595 19Q615 12 629 11V0H302V11Q312
13 322 15T340 20Q355 26 364 36T374 69Q374 90 368 111T354 157L335 218H156L132 148Q124 124 120 106T116 73Q116 52 125 39T149 20Q159 16 170 14T190 11V0H-14V11ZM198 837Q224 837 242 819T260 776Q260 750 242 732T198 714Q172 714 155 732T137 775Q137 800
154 818T198 837ZM420 837Q446 837 464 819T482 776Q482 750 464 732T420 714Q394 714 377 732T359 775Q359 800 376 818T420 837Z" />
<glyph unicode="&#xc5;" glyph-name="Aring" horiz-adv-x="616" d="M250 477H246L164 241H327L250 477ZM-14 11Q-2 13 8 15T29 24Q39 30 48 39T67 64Q75 78 84 99T104 152L288 662H335L487 211Q504 158 519 121T548 60Q559 43 570 34T595 19Q615 12 629 11V0H302V11Q312
13 322 15T340 20Q355 26 364 36T374 69Q374 90 368 111T354 157L335 218H156L132 148Q124 124 120 106T116 73Q116 52 125 39T149 20Q159 16 170 14T190 11V0H-14V11ZM394 787Q394 748 369 725T309 702Q293 702 278 707T251 724T232 751T225 787Q225 826 250 848T309
871Q325 871 340 866T367 849T386 823T394 787ZM367 786Q367 816 350 832T309 849Q285 849 268 833T251 787Q251 757 267 741T308 725Q333 725 350 740T367 786Z" />
<glyph unicode="&#xc6;" glyph-name="AE" horiz-adv-x="885" d="M316 0V10Q332 12 348 16Q364 21 375 31T394 63Q401 83 403 114T406 185V234H195L151 154Q142 138 134 114T126 73Q126 52 134 39T157 20Q167 16 178 14T198 11V0H-14V11Q7 14 25 26T59 57T90 103T123
158L382 616Q371 633 348 640Q340 643 331 644T315 646V657H817L841 457H829Q815 495 795 529T746 592Q729 609 703 622T641 635H619Q604 635 591 632T569 619Q551 603 547 575T543 521V352H576Q597 352 611 353T635 356T652 363T666 375Q686 394 698 423T713 477H725V205H713Q710
229 699 257T669 303Q656 315 637 322T576 330H543V158Q543 143 543 127T546 94T554 65T569 43Q581 32 598 28T636 23H655Q692 23 716 36T761 70Q792 105 814 145T850 222H861L839 0H316ZM406 470Q406 509 404 539T395 591L208 257H406V470Z" />
<glyph unicode="&#xc7;" glyph-name="Ccedilla" horiz-adv-x="625" d="M436 -115Q436 -138 427 -153T401 -178T365 -192T322 -196Q301 -196 278 -190T242 -176L249 -165Q260 -170 275 -173T306 -177Q332 -177 349 -163T366 -116Q366 -88 354 -76T326 -63Q318 -63
310 -65T296 -74L280 -67L297 -10Q262 -5 229 7Q171 28 127 70T56 177T30 329Q30 416 58 480T132 587T236 650T357 671Q424 671 476 650T549 601H553L578 649H589V417H575Q561 470 543 512T498 585T438 631T359 647Q331 647 303 636T252 600Q237 584 224 561T201
504T186 428T180 329Q180 270 187 227T207 152T237 98T276 59Q317 29 386 29Q415 29 444 38T500 68T548 123T587 208L604 200Q593 153 570 114T514 47T440 2T351 -14Q333 -14 316 -12L304 -53Q312 -48 325 -45T349 -42Q391 -42 413 -61T436 -115Z" />
<glyph unicode="&#xc8;" glyph-name="Egrave" horiz-adv-x="592" d="M410 702Q346 716 306 725T235 743Q210 751 192 763T174 798Q174 820 186 833T219 847Q236 847 249 841T284 817Q310 797 339 773T415 712L410 702ZM546 0H17V10Q25 11 33 12T49 16Q65 21 76
31T96 63Q102 83 104 114T107 185V473Q107 512 105 543T96 595Q88 616 77 626T49 641Q32 646 17 646V657H524L549 457H537Q508 536 453 592Q436 609 410 622T348 635H320Q305 635 293 632T270 619Q252 603 248 575T244 521V352H281Q302 352 316 353T340 356T357
363T371 375Q391 394 403 423T418 477H430V205H418Q415 229 404 257T374 303Q361 315 342 322T281 329H244V158Q244 143 244 126T247 94T255 65T271 43Q282 32 299 28T337 23H356Q393 23 419 36T466 70Q498 104 521 145T558 222H568L546 0Z" />
<glyph unicode="&#xc9;" glyph-name="Eacute" horiz-adv-x="592" d="M401 847Q421 847 434 834T447 798Q447 776 429 764T385 743Q356 735 316 726T211 703L206 712Q229 731 247 746T281 773T309 795T335 816Q357 833 370 840T401 847ZM546 0H17V10Q25 11 33 12T49
16Q65 21 76 31T96 63Q102 83 104 114T107 185V473Q107 512 105 543T96 595Q88 616 77 626T49 641Q32 646 17 646V657H524L549 457H537Q508 536 453 592Q436 609 410 622T348 635H320Q305 635 293 632T270 619Q252 603 248 575T244 521V352H281Q302 352 316 353T340
356T357 363T371 375Q391 394 403 423T418 477H430V205H418Q415 229 404 257T374 303Q361 315 342 322T281 329H244V158Q244 143 244 126T247 94T255 65T271 43Q282 32 299 28T337 23H356Q393 23 419 36T466 70Q498 104 521 145T558 222H568L546 0Z" />
<glyph unicode="&#xca;" glyph-name="Ecircumflex" horiz-adv-x="592" d="M433 708L303 771L174 708L166 716Q179 731 195 749T226 786T255 819T275 841H332Q339 834 352 819T380 786T412 750T441 716L433 708ZM546 0H17V10Q25 11 33 12T49 16Q65 21 76 31T96
63Q102 83 104 114T107 185V473Q107 512 105 543T96 595Q88 616 77 626T49 641Q32 646 17 646V657H524L549 457H537Q508 536 453 592Q436 609 410 622T348 635H320Q305 635 293 632T270 619Q252 603 248 575T244 521V352H281Q302 352 316 353T340 356T357 363T371
375Q391 394 403 423T418 477H430V205H418Q415 229 404 257T374 303Q361 315 342 322T281 329H244V158Q244 143 244 126T247 94T255 65T271 43Q282 32 299 28T337 23H356Q393 23 419 36T466 70Q498 104 521 145T558 222H568L546 0Z" />
<glyph unicode="&#xcb;" glyph-name="Edieresis" horiz-adv-x="592" d="M546 0H17V10Q25 11 33 12T49 16Q65 21 76 31T96 63Q102 83 104 114T107 185V473Q107 512 105 543T96 595Q88 616 77 626T49 641Q32 646 17 646V657H524L549 457H537Q508 536 453 592Q436
609 410 622T348 635H320Q305 635 293 632T270 619Q252 603 248 575T244 521V352H281Q302 352 316 353T340 356T357 363T371 375Q391 394 403 423T418 477H430V205H418Q415 229 404 257T374 303Q361 315 342 322T281 329H244V158Q244 143 244 126T247 94T255 65T271
43Q282 32 299 28T337 23H356Q393 23 419 36T466 70Q498 104 521 145T558 222H568L546 0ZM193 837Q219 837 237 819T255 776Q255 750 237 732T193 714Q167 714 150 732T132 775Q132 800 149 818T193 837ZM415 837Q441 837 459 819T477 776Q477 750 459 732T415
714Q389 714 372 732T354 775Q354 800 371 818T415 837Z" />
<glyph unicode="&#xcc;" glyph-name="Igrave" horiz-adv-x="351" d="M245 185Q245 145 247 114T255 63Q263 41 274 31T302 16Q310 14 318 13L334 11V0H17V11Q24 12 32 13T49 16Q65 21 76 31T95 63Q102 83 104 114T107 185V473Q107 512 105 543T95 595Q88 616 77
626T49 641Q32 646 17 647V657H334V647Q317 645 302 641Q286 636 275 626T255 595Q249 575 247 544T245 473V185ZM282 702Q218 716 178 725T107 743Q82 751 64 763T46 798Q46 820 58 833T91 847Q108 847 121 841T156 817Q182 797 211 773T287 712L282 702Z" />
<glyph unicode="&#xcd;" glyph-name="Iacute" horiz-adv-x="351" d="M245 185Q245 145 247 114T255 63Q263 41 274 31T302 16Q310 14 318 13L334 11V0H17V11Q24 12 32 13T49 16Q65 21 76 31T95 63Q102 83 104 114T107 185V473Q107 512 105 543T95 595Q88 616 77
626T49 641Q32 646 17 647V657H334V647Q317 645 302 641Q286 636 275 626T255 595Q249 575 247 544T245 473V185ZM272 847Q292 847 305 834T318 798Q318 776 300 764T256 743Q227 735 187 726T82 703L77 712Q100 731 118 746T152 773T180 795T206 816Q228 833 241
840T272 847Z" />
<glyph unicode="&#xce;" glyph-name="Icircumflex" horiz-adv-x="351" d="M245 185Q245 145 247 114T255 63Q263 41 274 31T302 16Q310 14 318 13L334 11V0H17V11Q24 12 32 13T49 16Q65 21 76 31T95 63Q102 83 104 114T107 185V473Q107 512 105 543T95 595Q88
616 77 626T49 641Q32 646 17 647V657H334V647Q317 645 302 641Q286 636 275 626T255 595Q249 575 247 544T245 473V185ZM561 708L431 771L302 708L294 716Q307 731 323 749T354 786T383 819T403 841H460Q467 834 480 819T508 786T540 750T569 716L561 708Z" />
<glyph unicode="&#xcf;" glyph-name="Idieresis" horiz-adv-x="351" d="M70 837Q97 837 114 819T132 776Q132 750 114 732T70 714Q44 714 27 732T10 775Q10 800 27 818T70 837ZM280 837Q306 837 324 819T342 776Q342 750 324 732T280 714Q254 714 237 732T219
775Q219 800 236 818T280 837ZM245 185Q245 145 247 114T255 63Q263 41 274 31T302 16Q310 14 318 13L334 11V0H17V11Q24 12 32 13T49 16Q65 21 76 31T95 63Q102 83 104 114T107 185V473Q107 512 105 543T95 595Q88 616 77 626T49 641Q32 646 17 647V657H334V647Q317
645 302 641Q286 636 275 626T255 595Q249 575 247 544T245 473V185Z" />
<glyph unicode="&#xd0;" glyph-name="Eth" horiz-adv-x="701" d="M26 350H108V473Q108 512 105 543T96 595Q88 616 77 626T49 641Q32 646 17 646V657H358Q409 657 449 646T521 618Q589 581 631 508T673 329Q673 224 633 151T524 40Q493 23 454 12T370 0H17V11L33
13Q41 14 49 16Q66 21 77 31T96 62Q102 82 105 113T108 185V323H26V350ZM310 635Q297 635 285 632T264 619Q249 606 247 581T245 534V350H390V323H245V156Q245 142 245 126T248 95T255 67T270 45Q281 34 297 29T333 23H349Q376 23 406 34T459 73Q474 91 486 114T508
169T522 239T527 329Q527 431 508 491T458 586Q434 613 404 624T344 635H310Z" />
<glyph unicode="&#xd1;" glyph-name="Ntilde" horiz-adv-x="683" d="M537 832Q533 811 526 791T508 753T479 726T439 715Q422 715 403 719T364 729T327 738T296 743Q276 743 261 735T234 703L222 707Q227 727 235 747T255 783T283 810T320 820Q336 820 355 816T393
807T430 797T460 793Q486 793 500 802T524 835L537 832ZM539 -6L160 533H156V167Q156 120 160 96T173 55Q188 25 216 17Q224 15 232 14T251 10V0H33V10Q44 12 52 13T68 17Q96 24 110 55Q118 72 123 96T129 167V442Q129 495 123 530T107 585Q99 602 83 616T47 639Q39
642 31 643T15 646V657H250L551 218H554V490Q554 537 550 561T537 602Q529 617 518 626T493 640L477 644Q469 646 458 646V657H676V646Q665 645 657 644T641 640Q628 636 617 627T599 601Q591 585 587 561T582 490V-6H539Z" />
<glyph unicode="&#xd2;" glyph-name="Ograve" horiz-adv-x="689" d="M450 702Q386 716 346 725T275 743Q250 751 232 763T214 798Q214 820 226 833T259 847Q276 847 289 841T324 817Q350 797 379 773T455 712L450 702ZM344 670Q414 670 472 646T571 576T636 468T659
328Q659 251 636 188T572 80T472 11T344 -14Q274 -14 217 10T118 80T53 188T30 328Q30 405 53 468T117 576T216 645T344 670ZM344 7Q364 7 384 11T422 29Q440 44 455 67T482 125T500 210T506 328Q506 396 500 446T483 531T456 589T422 627Q403 641 384 645T344
649Q325 649 305 645T267 627Q248 612 233 589T206 531T188 446T182 328Q182 260 188 210T205 125T232 67T267 29Q285 15 305 11T344 7Z" />
<glyph unicode="&#xd3;" glyph-name="Oacute" horiz-adv-x="689" d="M441 847Q461 847 474 834T487 798Q487 776 469 764T425 743Q396 735 356 726T251 703L246 712Q269 731 287 746T321 773T349 795T375 816Q397 833 410 840T441 847ZM344 670Q414 670 472 646T571
576T636 468T659 328Q659 251 636 188T572 80T472 11T344 -14Q274 -14 217 10T118 80T53 188T30 328Q30 405 53 468T117 576T216 645T344 670ZM344 7Q364 7 384 11T422 29Q440 44 455 67T482 125T500 210T506 328Q506 396 500 446T483 531T456 589T422 627Q403
641 384 645T344 649Q325 649 305 645T267 627Q248 612 233 589T206 531T188 446T182 328Q182 260 188 210T205 125T232 67T267 29Q285 15 305 11T344 7Z" />
<glyph unicode="&#xd4;" glyph-name="Ocircumflex" horiz-adv-x="689" d="M474 708L344 771L215 708L207 716Q220 731 236 749T267 786T296 819T316 841H373Q380 834 393 819T421 786T453 750T482 716L474 708ZM344 670Q414 670 472 646T571 576T636 468T659 328Q659
251 636 188T572 80T472 11T344 -14Q274 -14 217 10T118 80T53 188T30 328Q30 405 53 468T117 576T216 645T344 670ZM344 7Q364 7 384 11T422 29Q440 44 455 67T482 125T500 210T506 328Q506 396 500 446T483 531T456 589T422 627Q403 641 384 645T344 649Q325
649 305 645T267 627Q248 612 233 589T206 531T188 446T182 328Q182 260 188 210T205 125T232 67T267 29Q285 15 305 11T344 7Z" />
<glyph unicode="&#xd5;" glyph-name="Otilde" horiz-adv-x="689" d="M506 832Q502 811 495 791T477 753T448 726T408 715Q391 715 372 719T333 729T296 738T265 743Q245 743 230 735T203 703L191 707Q196 727 204 747T224 783T252 810T289 820Q305 820 324 816T362
807T399 797T429 793Q455 793 469 802T493 835L506 832ZM344 670Q414 670 472 646T571 576T636 468T659 328Q659 251 636 188T572 80T472 11T344 -14Q274 -14 217 10T118 80T53 188T30 328Q30 405 53 468T117 576T216 645T344 670ZM344 7Q364 7 384 11T422 29Q440
44 455 67T482 125T500 210T506 328Q506 396 500 446T483 531T456 589T422 627Q403 641 384 645T344 649Q325 649 305 645T267 627Q248 612 233 589T206 531T188 446T182 328Q182 260 188 210T205 125T232 67T267 29Q285 15 305 11T344 7Z" />
<glyph unicode="&#xd6;" glyph-name="Odieresis" horiz-adv-x="689" d="M233 837Q259 837 277 819T295 776Q295 750 277 732T233 714Q207 714 190 732T172 775Q172 800 189 818T233 837ZM455 837Q481 837 499 819T517 776Q517 750 499 732T455 714Q429 714 412
732T394 775Q394 800 411 818T455 837ZM344 670Q414 670 472 646T571 576T636 468T659 328Q659 251 636 188T572 80T472 11T344 -14Q274 -14 217 10T118 80T53 188T30 328Q30 405 53 468T117 576T216 645T344 670ZM344 7Q364 7 384 11T422 29Q440 44 455 67T482
125T500 210T506 328Q506 396 500 446T483 531T456 589T422 627Q403 641 384 645T344 649Q325 649 305 645T267 627Q248 612 233 589T206 531T188 446T182 328Q182 260 188 210T205 125T232 67T267 29Q285 15 305 11T344 7Z" />
<glyph unicode="&#xd7;" glyph-name="multiply" horiz-adv-x="423" d="M230 257L368 114L350 96L211 239L72 96L54 114L193 257L54 400L72 419L211 275L351 419L369 401L230 257Z" />
<glyph unicode="&#xd8;" glyph-name="Oslash" horiz-adv-x="689" d="M344 670Q414 670 472 645Q487 639 500 631L551 718L571 706L520 619Q548 601 571 576Q613 531 636 468T659 328Q659 251 636 188T572 80T472 11T344 -14Q274 -14 216 10Q195 19 176 31L123
-59L104 -48L157 44Q136 60 117 80Q76 125 53 188T30 328Q30 405 53 468T117 576T216 645T344 670ZM344 7Q364 7 384 11T422 29Q440 44 455 67T482 125T500 210T506 328Q506 396 500 446T482 531Q480 539 477 546L215 98Q223 80 232 67Q248 44 267 29Q285 15 305
11T344 7ZM455 589Q440 612 422 627Q403 641 384 645T344 649Q325 649 305 645T267 627Q248 612 233 589T206 531T188 446T182 328Q182 260 188 210T205 125L465 571Q461 581 455 589Z" />
<glyph unicode="&#xd9;" glyph-name="Ugrave" horiz-adv-x="667" d="M479 702Q415 716 375 725T304 743Q279 751 261 763T243 798Q243 820 255 833T288 847Q305 847 318 841T353 817Q379 797 408 773T484 712L479 702ZM571 222Q571 177 564 141T540 75Q520 40
473 14T345 -13Q306 -13 271 -8T206 11T153 47T116 101Q110 114 106 132T100 170T96 210T94 245V475Q94 513 92 544T83 595Q77 616 65 626T37 641Q29 643 21 644T6 647V657H322V646Q308 646 290 641Q274 636 263 626T244 595Q237 575 235 544T233 475V204Q233 179
235 154T246 107Q263 61 296 42T377 22Q427 22 465 41T520 95Q543 141 543 217V491Q543 538 538 562T525 603Q518 618 507 627T482 640Q467 646 446 647V657H666V647Q646 644 631 640Q618 636 607 627T588 602Q580 586 576 562T571 491V222Z" />
<glyph unicode="&#xda;" glyph-name="Uacute" horiz-adv-x="667" d="M470 847Q490 847 503 834T516 798Q516 776 498 764T454 743Q425 735 385 726T280 703L275 712Q298 731 316 746T350 773T378 795T404 816Q426 833 439 840T470 847ZM571 222Q571 177 564 141T540
75Q520 40 473 14T345 -13Q306 -13 271 -8T206 11T153 47T116 101Q110 114 106 132T100 170T96 210T94 245V475Q94 513 92 544T83 595Q77 616 65 626T37 641Q29 643 21 644T6 647V657H322V646Q308 646 290 641Q274 636 263 626T244 595Q237 575 235 544T233 475V204Q233
179 235 154T246 107Q263 61 296 42T377 22Q427 22 465 41T520 95Q543 141 543 217V491Q543 538 538 562T525 603Q518 618 507 627T482 640Q467 646 446 647V657H666V647Q646 644 631 640Q618 636 607 627T588 602Q580 586 576 562T571 491V222Z" />
<glyph unicode="&#xdb;" glyph-name="Ucircumflex" horiz-adv-x="667" d="M503 708L373 771L244 708L236 716Q249 731 265 749T296 786T325 819T345 841H402Q409 834 422 819T450 786T482 750T511 716L503 708ZM571 222Q571 177 564 141T540 75Q520 40 473 14T345
-13Q306 -13 271 -8T206 11T153 47T116 101Q110 114 106 132T100 170T96 210T94 245V475Q94 513 92 544T83 595Q77 616 65 626T37 641Q29 643 21 644T6 647V657H322V646Q308 646 290 641Q274 636 263 626T244 595Q237 575 235 544T233 475V204Q233 179 235 154T246
107Q263 61 296 42T377 22Q427 22 465 41T520 95Q543 141 543 217V491Q543 538 538 562T525 603Q518 618 507 627T482 640Q467 646 446 647V657H666V647Q646 644 631 640Q618 636 607 627T588 602Q580 586 576 562T571 491V222Z" />
<glyph unicode="&#xdc;" glyph-name="Udieresis" horiz-adv-x="667" d="M571 222Q571 177 564 141T540 75Q520 40 473 14T345 -13Q306 -13 271 -8T206 11T153 47T116 101Q110 114 106 132T100 170T96 210T94 245V475Q94 513 92 544T83 595Q77 616 65 626T37 641Q29
643 21 644T6 647V657H322V646Q308 646 290 641Q274 636 263 626T244 595Q237 575 235 544T233 475V204Q233 179 235 154T246 107Q263 61 296 42T377 22Q427 22 465 41T520 95Q543 141 543 217V491Q543 538 538 562T525 603Q518 618 507 627T482 640Q467 646 446
647V657H666V647Q646 644 631 640Q618 636 607 627T588 602Q580 586 576 562T571 491V222ZM261 837Q287 837 305 819T323 776Q323 750 305 732T261 714Q235 714 218 732T200 775Q200 800 217 818T261 837ZM483 837Q509 837 527 819T545 776Q545 750 527 732T483
714Q457 714 440 732T422 775Q422 800 439 818T483 837Z" />
<glyph unicode="&#xdd;" glyph-name="Yacute" horiz-adv-x="640" d="M112 543Q98 569 86 587T62 618T34 637T-1 647V657H318V647Q309 645 298 644T280 639Q249 627 251 599T271 532L375 324H380L471 507Q487 539 494 559T501 598Q501 615 494 624T473 639Q465
642 454 644T434 647V657H642V647Q618 643 600 634T565 608T532 566T498 504L392 288V185Q392 145 394 114T403 62Q410 42 421 32T449 16Q457 14 465 13T481 11V0H164V11L180 13Q188 14 196 16Q212 21 224 31T243 62Q250 82 252 113T254 185V269L112 543ZM457 847Q477
847 490 834T503 798Q503 776 485 764T441 743Q412 735 372 726T267 703L262 712Q285 731 303 746T337 773T365 795T391 816Q413 833 426 840T457 847Z" />
<glyph unicode="&#xde;" glyph-name="Thorn" horiz-adv-x="589" d="M333 515Q445 515 509 475T574 347Q574 299 553 262T496 204Q467 188 420 178T296 167Q287 167 269 167T240 170V145Q241 119 243 99T251 63Q259 41 270 31T297 16Q305 14 312 13L326 11V0H13V11L29
13Q37 14 45 16Q61 21 72 31T92 63Q98 83 100 114T102 185V473Q102 512 100 543T92 595Q84 616 73 626T45 641Q29 645 13 647V657H326V647Q312 645 297 641Q281 636 270 626T251 595Q245 576 243 554T240 515H333ZM428 346Q428 418 403 455T315 492Q304 492 292
490T271 485Q260 480 255 473T247 454Q244 443 242 431T240 394V195Q250 193 268 192T297 190Q342 190 364 200T403 234Q417 255 422 286T428 346Z" />
<glyph unicode="&#xdf;" glyph-name="germandbls" horiz-adv-x="557" d="M545 130Q545 98 534 73T502 29T455 2T395 -8Q367 -8 340 1T293 29H290L273 2H265L260 150H270Q287 84 318 46T394 8Q458 8 458 70Q458 100 435 119T368 164Q346 176 327 188T294 216T271
250T262 297Q262 325 272 346T298 386T331 422T365 460T390 507T401 568Q401 587 397 606T380 639T348 663T297 672Q235 672 212 636T189 533V126Q189 100 191 76T200 42Q206 24 212 19T229 10V0H8V10Q14 11 20 12T32 16Q44 21 50 27T62 51Q66 63 66 84T67 126V408H10V433H66V481Q66
532 83 571T130 636T202 676T294 689Q382 689 428 660T475 577Q475 553 465 534T440 499T407 469T374 439T349 407T339 369Q339 354 344 344T361 324T389 304T429 280Q456 265 477 252T514 222T537 183T545 130Z" />
<glyph unicode="&#xe0;" glyph-name="agrave" horiz-adv-x="438" d="M339 -9Q292 -9 273 7Q265 13 260 25T254 58H250Q239 26 210 9T136 -9Q114 -9 93 -3T56 17T31 52T21 102Q21 125 28 141T49 173Q69 194 99 203T158 221Q210 237 229 256T250 296V312Q250 322
250 332T251 352V367Q251 401 241 413T201 425Q184 425 176 420T162 409Q157 402 155 386T151 350Q148 299 97 299Q74 299 60 311T45 346Q45 359 49 370T62 390Q71 401 86 410T120 427T160 438T204 442Q279 442 325 417T372 330V290Q372 261 372 227T371 158V103Q371
68 373 53T381 29Q391 19 406 19Q413 19 421 21T434 25L436 15Q429 8 402 0T339 -9ZM249 254Q240 242 229 235T203 220Q186 211 177 202T160 181Q153 169 150 149T146 106Q146 64 159 47T195 29Q213 29 229 48T248 101L249 254ZM302 486Q245 518 210 535T149 569Q129
581 117 595T105 630Q105 651 118 663T151 675Q171 675 185 663T217 626Q226 613 235 600T255 571T279 536T309 493L302 486Z" />
<glyph unicode="&#xe1;" glyph-name="aacute" horiz-adv-x="438" d="M339 -9Q292 -9 273 7Q265 13 260 25T254 58H250Q239 26 210 9T136 -9Q114 -9 93 -3T56 17T31 52T21 102Q21 125 28 141T49 173Q69 194 99 203T158 221Q210 237 229 256T250 296V312Q250 322
250 332T251 352V367Q251 401 241 413T201 425Q184 425 176 420T162 409Q157 402 155 386T151 350Q148 299 97 299Q74 299 60 311T45 346Q45 359 49 370T62 390Q71 401 86 410T120 427T160 438T204 442Q279 442 325 417T372 330V290Q372 261 372 227T371 158V103Q371
68 373 53T381 29Q391 19 406 19Q413 19 421 21T434 25L436 15Q429 8 402 0T339 -9ZM249 254Q240 242 229 235T203 220Q186 211 177 202T160 181Q153 169 150 149T146 106Q146 64 159 47T195 29Q213 29 229 48T248 101L249 254ZM335 627Q335 607 324 594T292 569Q266
553 232 536T139 486L132 493Q149 517 162 536T185 571T205 600T224 626Q242 650 255 662T288 675Q311 675 323 663T335 627Z" />
<glyph unicode="&#xe2;" glyph-name="acircumflex" horiz-adv-x="438" d="M339 -9Q292 -9 273 7Q265 13 260 25T254 58H250Q239 26 210 9T136 -9Q114 -9 93 -3T56 17T31 52T21 102Q21 125 28 141T49 173Q69 194 99 203T158 221Q210 237 229 256T250 296V312Q250
322 250 332T251 352V367Q251 401 241 413T201 425Q184 425 176 420T162 409Q157 402 155 386T151 350Q148 299 97 299Q74 299 60 311T45 346Q45 359 49 370T62 390Q71 401 86 410T120 427T160 438T204 442Q279 442 325 417T372 330V290Q372 261 372 227T371 158V103Q371
68 373 53T381 29Q391 19 406 19Q413 19 421 21T434 25L436 15Q429 8 402 0T339 -9ZM249 254Q240 242 229 235T203 220Q186 211 177 202T160 181Q153 169 150 149T146 106Q146 64 159 47T195 29Q213 29 229 48T248 101L249 254ZM339 497L213 587L87 497L78 505Q90
522 106 546T138 595T166 639T185 668H241Q247 659 260 639T288 595T320 547T349 505L339 497Z" />
<glyph unicode="&#xe3;" glyph-name="atilde" horiz-adv-x="438" d="M339 -9Q292 -9 273 7Q265 13 260 25T254 58H250Q239 26 210 9T136 -9Q114 -9 93 -3T56 17T31 52T21 102Q21 125 28 141T49 173Q69 194 99 203T158 221Q210 237 229 256T250 296V312Q250 322
250 332T251 352V367Q251 401 241 413T201 425Q184 425 176 420T162 409Q157 402 155 386T151 350Q148 299 97 299Q74 299 60 311T45 346Q45 359 49 370T62 390Q71 401 86 410T120 427T160 438T204 442Q279 442 325 417T372 330V290Q372 261 372 227T371 158V103Q371
68 373 53T381 29Q391 19 406 19Q413 19 421 21T434 25L436 15Q429 8 402 0T339 -9ZM249 254Q240 242 229 235T203 220Q186 211 177 202T160 181Q153 169 150 149T146 106Q146 64 159 47T195 29Q213 29 229 48T248 101L249 254ZM372 648Q368 628 361 607T342 568T314
540T274 529Q257 529 240 533T208 542T177 552T149 556Q127 556 111 547T84 513L71 516Q77 536 85 557T105 595T133 622T170 633Q185 633 201 629T233 620T263 611T291 607Q317 607 332 616T359 650L372 648Z" />
<glyph unicode="&#xe4;" glyph-name="adieresis" horiz-adv-x="438" d="M339 -9Q292 -9 273 7Q265 13 260 25T254 58H250Q239 26 210 9T136 -9Q114 -9 93 -3T56 17T31 52T21 102Q21 125 28 141T49 173Q69 194 99 203T158 221Q210 237 229 256T250 296V312Q250
322 250 332T251 352V367Q251 401 241 413T201 425Q184 425 176 420T162 409Q157 402 155 386T151 350Q148 299 97 299Q74 299 60 311T45 346Q45 359 49 370T62 390Q71 401 86 410T120 427T160 438T204 442Q279 442 325 417T372 330V290Q372 261 372 227T371 158V103Q371
68 373 53T381 29Q391 19 406 19Q413 19 421 21T434 25L436 15Q429 8 402 0T339 -9ZM249 254Q240 242 229 235T203 220Q186 211 177 202T160 181Q153 169 150 149T146 106Q146 64 159 47T195 29Q213 29 229 48T248 101L249 254ZM126 645Q151 645 168 628T185 587Q185
563 168 546T126 528Q101 528 85 545T68 586Q68 610 85 627T126 645ZM306 645Q331 645 348 628T365 587Q365 563 348 546T306 528Q281 528 265 545T248 586Q248 610 265 627T306 645Z" />
<glyph unicode="&#xe5;" glyph-name="aring" horiz-adv-x="438" d="M339 -9Q292 -9 273 7Q265 13 260 25T254 58H250Q239 26 210 9T136 -9Q114 -9 93 -3T56 17T31 52T21 102Q21 125 28 141T49 173Q69 194 99 203T158 221Q210 237 229 256T250 296V312Q250 322
250 332T251 352V367Q251 401 241 413T201 425Q184 425 176 420T162 409Q157 402 155 386T151 350Q148 299 97 299Q74 299 60 311T45 346Q45 359 49 370T62 390Q71 401 86 410T120 427T160 438T204 442Q279 442 325 417T372 330V290Q372 261 372 227T371 158V103Q371
68 373 53T381 29Q391 19 406 19Q413 19 421 21T434 25L436 15Q429 8 402 0T339 -9ZM249 254Q240 242 229 235T203 220Q186 211 177 202T160 181Q153 169 150 149T146 106Q146 64 159 47T195 29Q213 29 229 48T248 101L249 254ZM301 590Q301 552 276 529T216 505Q200
505 185 511T158 528T139 554T132 590Q132 630 157 652T216 675Q232 675 247 670T274 653T293 626T301 590ZM274 590Q274 620 257 636T216 653Q192 653 175 637T158 590Q158 561 174 545T215 529Q240 529 257 544T274 590Z" />
<glyph unicode="&#xe6;" glyph-name="ae" horiz-adv-x="660" d="M142 -9Q120 -9 98 -3T59 17T31 52T20 102Q20 125 27 141T48 173Q68 194 98 203T157 222Q209 237 228 256T250 297V312Q250 322 250 332T251 352V367Q251 401 241 413T201 425Q171 425 161 409Q156
402 154 387T150 351Q148 299 96 299Q73 299 59 311T45 347Q45 372 61 390Q71 402 87 412T122 428T163 438T204 442Q245 442 277 430T329 393Q352 416 387 429T454 443Q500 443 534 429T592 390T628 335T641 270Q641 262 641 252T639 234H377Q377 157 389 114T422
48Q447 21 489 21Q519 21 541 31T579 59T605 97T622 139L637 133Q623 73 580 32T461 -9Q421 -9 384 3T318 38Q290 62 273 94Q259 38 223 15T142 -9ZM525 293Q525 376 500 407Q483 425 456 425Q429 425 411 407Q396 391 388 354T377 254H494Q511 254 518 262T525
293ZM249 254Q240 242 228 235T202 220Q185 211 176 202T159 181Q152 169 149 149T145 107Q145 65 158 47T194 28Q215 28 230 47T248 102L249 254Z" />
<glyph unicode="&#xe7;" glyph-name="ccedilla" horiz-adv-x="414" d="M324 -112Q324 -135 315 -150T289 -175T252 -189T209 -193Q189 -193 166 -187T130 -173L137 -161Q148 -166 163 -169T194 -173Q220 -173 237 -159T254 -113Q254 -85 242 -72T214 -59Q195 -59
184 -70L167 -64L185 -4Q168 -1 152 5Q116 19 90 43Q58 74 40 118T22 220Q22 274 41 315T91 385T162 428T242 443Q293 443 326 430T374 400Q398 373 398 345Q398 319 383 307T348 294Q319 294 307 312T289 361Q283 396 273 411T241 426Q227 426 213 420T189 403Q171
383 162 338T153 229Q153 161 163 118T192 49Q204 32 219 26T252 19Q284 19 306 30T344 58T370 97T388 139L405 133Q397 104 384 79T350 34T301 3T236 -9Q220 -9 205 -7L192 -50Q200 -45 213 -42T237 -39Q279 -39 301 -58T324 -112Z" />
<glyph unicode="&#xe8;" glyph-name="egrave" horiz-adv-x="435" d="M272 254Q289 254 296 262T303 293Q303 376 278 407Q261 425 233 425Q206 425 188 407Q173 391 164 354T153 254H272ZM415 133Q401 73 357 32T237 -9Q199 -9 162 2T96 37Q61 67 42 111T22 215Q22
270 39 313T86 384T153 428T231 443Q279 443 314 428T373 388T407 332T419 268Q419 260 419 251T417 234H153Q153 157 165 114T198 48Q225 21 267 21Q297 21 319 31T357 59T383 97T400 139L415 133ZM319 486Q262 518 227 535T166 569Q146 581 134 595T122 630Q122
651 135 663T168 675Q188 675 202 663T234 626Q243 613 252 600T272 571T296 536T326 493L319 486Z" />
<glyph unicode="&#xe9;" glyph-name="eacute" horiz-adv-x="435" d="M347 627Q347 607 336 594T304 569Q278 553 244 536T151 486L144 493Q161 517 174 536T197 571T217 600T236 626Q254 650 267 662T300 675Q323 675 335 663T347 627ZM272 254Q289 254 296 262T303
293Q303 376 278 407Q261 425 233 425Q206 425 188 407Q173 391 164 354T153 254H272ZM415 133Q401 73 357 32T237 -9Q199 -9 162 2T96 37Q61 67 42 111T22 215Q22 270 39 313T86 384T153 428T231 443Q279 443 314 428T373 388T407 332T419 268Q419 260 419 251T417
234H153Q153 157 165 114T198 48Q225 21 267 21Q297 21 319 31T357 59T383 97T400 139L415 133Z" />
<glyph unicode="&#xea;" glyph-name="ecircumflex" horiz-adv-x="435" d="M356 497L230 587L104 497L95 505Q107 522 123 546T155 595T183 639T202 668H258Q264 659 277 639T305 595T337 547T366 505L356 497ZM272 254Q289 254 296 262T303 293Q303 376 278 407Q261
425 233 425Q206 425 188 407Q173 391 164 354T153 254H272ZM415 133Q401 73 357 32T237 -9Q199 -9 162 2T96 37Q61 67 42 111T22 215Q22 270 39 313T86 384T153 428T231 443Q279 443 314 428T373 388T407 332T419 268Q419 260 419 251T417 234H153Q153 157 165
114T198 48Q225 21 267 21Q297 21 319 31T357 59T383 97T400 139L415 133Z" />
<glyph unicode="&#xeb;" glyph-name="edieresis" horiz-adv-x="435" d="M145 645Q170 645 187 628T204 587Q204 563 187 546T145 528Q120 528 104 545T87 586Q87 610 104 627T145 645ZM325 645Q350 645 367 628T384 587Q384 563 367 546T325 528Q300 528 284 545T267
586Q267 610 284 627T325 645ZM272 254Q289 254 296 262T303 293Q303 376 278 407Q261 425 233 425Q206 425 188 407Q173 391 164 354T153 254H272ZM415 133Q401 73 357 32T237 -9Q199 -9 162 2T96 37Q61 67 42 111T22 215Q22 270 39 313T86 384T153 428T231 443Q279
443 314 428T373 388T407 332T419 268Q419 260 419 251T417 234H153Q153 157 165 114T198 48Q225 21 267 21Q297 21 319 31T357 59T383 97T400 139L415 133Z" />
<glyph unicode="&#xec;" glyph-name="igrave" horiz-adv-x="270" d="M17 0V10Q23 11 29 12T42 16Q53 21 59 28T71 52Q74 62 75 80T76 116V330Q76 340 76 349T75 368T73 383Q71 395 66 401T54 413Q47 418 38 420T21 422V433H193Q200 433 200 426Q199 413 199 397T198
358V116Q198 98 199 80T203 52Q208 35 214 28T232 16Q238 13 244 12T257 10V0H17ZM461 486Q404 518 369 535T308 569Q288 581 276 595T264 630Q264 651 277 663T310 675Q330 675 344 663T376 626Q385 613 394 600T414 571T438 536T468 493L461 486Z" />
<glyph unicode="&#xed;" glyph-name="iacute" horiz-adv-x="270" d="M511 627Q511 607 500 594T468 569Q442 553 408 536T315 486L308 493Q325 517 338 536T361 571T381 600T400 626Q418 650 431 662T464 675Q487 675 499 663T511 627ZM17 0V10Q23 11 29 12T42
16Q53 21 59 28T71 52Q74 62 75 80T76 116V330Q76 340 76 349T75 368T73 383Q71 395 66 401T54 413Q47 418 38 420T21 422V433H193Q200 433 200 426Q199 413 199 397T198 358V116Q198 98 199 80T203 52Q208 35 214 28T232 16Q238 13 244 12T257 10V0H17Z" />
<glyph unicode="&#xee;" glyph-name="icircumflex" horiz-adv-x="270" d="M514 497L388 587L262 497L253 505Q265 522 281 546T313 595T341 639T360 668H416Q422 659 435 639T463 595T495 547T524 505L514 497ZM17 0V10Q23 11 29 12T42 16Q53 21 59 28T71 52Q74
62 75 80T76 116V330Q76 340 76 349T75 368T73 383Q71 395 66 401T54 413Q47 418 38 420T21 422V433H193Q200 433 200 426Q199 413 199 397T198 358V116Q198 98 199 80T203 52Q208 35 214 28T232 16Q238 13 244 12T257 10V0H17Z" />
<glyph unicode="&#xef;" glyph-name="idieresis" horiz-adv-x="270" d="M49 646Q74 646 91 629T108 589Q108 565 91 548T49 530Q24 530 8 547T-9 587Q-9 611 8 628T49 646ZM214 646Q239 646 256 629T273 589Q273 565 256 548T214 530Q189 530 173 547T156 587Q156
611 172 628T214 646ZM17 0V10Q23 11 29 12T42 16Q53 21 59 28T71 52Q74 62 75 80T76 116V330Q76 340 76 349T75 368T73 383Q71 395 66 401T54 413Q47 418 38 420T21 422V433H193Q200 433 200 426Q199 413 199 397T198 358V116Q198 98 199 80T203 52Q208 35 214
28T232 16Q238 13 244 12T257 10V0H17Z" />
<glyph unicode="&#xf0;" glyph-name="eth" horiz-adv-x="484" d="M241 443Q261 443 278 436T312 412Q301 458 281 497Q265 528 246 556L138 500V522L235 572Q211 603 185 629Q157 657 129 680L142 684Q191 664 247 627Q267 614 285 599L381 649V627L302 585Q327
563 351 536Q399 481 431 409T463 247Q463 180 444 132T394 52T324 6T242 -9Q200 -9 161 6T90 51T41 122T22 217Q22 270 40 312T90 383T160 427T241 443ZM332 218Q332 360 295 404Q284 418 270 422T242 426Q228 426 214 421T189 404Q169 383 160 336T151 217Q151
75 188 30Q199 16 213 11T242 6Q256 6 269 10T295 29Q332 74 332 218Z" />
<glyph unicode="&#xf1;" glyph-name="ntilde" horiz-adv-x="538" d="M467 126Q467 106 468 85T472 52Q477 35 483 28T502 16Q507 13 513 12T526 10V0H291V10L303 12Q309 13 314 15Q327 21 333 29T342 55Q344 67 345 84T346 118V323Q346 349 343 363T331 387Q324
395 315 399T288 403Q277 403 265 398T241 382T220 353T207 311Q198 278 198 233V118Q198 101 198 84T201 55Q205 38 210 30T229 15Q235 13 240 12T253 10V0H17V10Q23 11 29 12T42 16Q53 21 60 27T72 51Q75 63 75 84T76 126V330Q76 340 76 349T75 368T73 383Q71
395 66 401T55 413Q47 418 38 420T21 422V433H192Q198 433 198 427Q198 424 198 413T197 387T197 360T196 343H200Q209 369 223 386T252 414Q271 428 295 435T342 443Q376 443 399 435T437 408Q451 393 459 369T467 309V126ZM422 648Q418 628 411 607T392 568T364
540T324 529Q307 529 290 533T258 542T227 552T199 556Q177 556 161 547T134 513L121 516Q127 536 135 557T155 595T183 622T220 633Q235 633 251 629T283 620T313 611T341 607Q367 607 382 616T409 650L422 648Z" />
<glyph unicode="&#xf2;" glyph-name="ograve" horiz-adv-x="485" d="M22 217Q22 270 41 312T90 383T160 427T242 443Q284 443 324 428T394 383T444 312T463 217Q463 164 444 122T395 51T324 7T242 -9Q200 -9 161 6T91 51T41 122T22 217ZM333 217Q333 362 294 406Q283
418 270 422T242 426Q229 426 216 422T191 406Q152 365 152 217Q152 70 191 28Q202 16 215 11T242 6Q256 6 269 10T294 28Q333 72 333 217ZM314 486Q257 518 222 535T161 569Q141 581 129 595T117 630Q117 651 130 663T163 675Q183 675 197 663T229 626Q238 613
247 600T267 571T291 536T321 493L314 486Z" />
<glyph unicode="&#xf3;" glyph-name="oacute" horiz-adv-x="485" d="M362 627Q362 607 351 594T319 569Q293 553 259 536T166 486L159 493Q176 517 189 536T212 571T232 600T251 626Q269 650 282 662T315 675Q338 675 350 663T362 627ZM22 217Q22 270 41 312T90
383T160 427T242 443Q284 443 324 428T394 383T444 312T463 217Q463 164 444 122T395 51T324 7T242 -9Q200 -9 161 6T91 51T41 122T22 217ZM333 217Q333 362 294 406Q283 418 270 422T242 426Q229 426 216 422T191 406Q152 365 152 217Q152 70 191 28Q202 16 215
11T242 6Q256 6 269 10T294 28Q333 72 333 217Z" />
<glyph unicode="&#xf4;" glyph-name="ocircumflex" horiz-adv-x="485" d="M367 497L241 587L115 497L106 505Q118 522 134 546T166 595T194 639T213 668H269Q275 659 288 639T316 595T348 547T377 505L367 497ZM22 217Q22 270 41 312T90 383T160 427T242 443Q284
443 324 428T394 383T444 312T463 217Q463 164 444 122T395 51T324 7T242 -9Q200 -9 161 6T91 51T41 122T22 217ZM333 217Q333 362 294 406Q283 418 270 422T242 426Q229 426 216 422T191 406Q152 365 152 217Q152 70 191 28Q202 16 215 11T242 6Q256 6 269 10T294
28Q333 72 333 217Z" />
<glyph unicode="&#xf5;" glyph-name="otilde" horiz-adv-x="485" d="M22 217Q22 270 41 312T90 383T160 427T242 443Q284 443 324 428T394 383T444 312T463 217Q463 164 444 122T395 51T324 7T242 -9Q200 -9 161 6T91 51T41 122T22 217ZM333 217Q333 362 294 406Q283
418 270 422T242 426Q229 426 216 422T191 406Q152 365 152 217Q152 70 191 28Q202 16 215 11T242 6Q256 6 269 10T294 28Q333 72 333 217ZM394 648Q390 628 383 607T364 568T336 540T296 529Q279 529 262 533T230 542T199 552T171 556Q149 556 133 547T106 513L93
516Q99 536 107 557T127 595T155 622T192 633Q207 633 223 629T255 620T285 611T313 607Q339 607 354 616T381 650L394 648Z" />
<glyph unicode="&#xf6;" glyph-name="odieresis" horiz-adv-x="485" d="M156 645Q181 645 198 628T215 587Q215 563 198 546T156 528Q131 528 115 545T98 586Q98 610 115 627T156 645ZM336 645Q361 645 378 628T395 587Q395 563 378 546T336 528Q311 528 295 545T278
586Q278 610 295 627T336 645ZM22 217Q22 270 41 312T90 383T160 427T242 443Q284 443 324 428T394 383T444 312T463 217Q463 164 444 122T395 51T324 7T242 -9Q200 -9 161 6T91 51T41 122T22 217ZM333 217Q333 362 294 406Q283 418 270 422T242 426Q229 426 216
422T191 406Q152 365 152 217Q152 70 191 28Q202 16 215 11T242 6Q256 6 269 10T294 28Q333 72 333 217Z" />
<glyph unicode="&#xf7;" glyph-name="divide" horiz-adv-x="483" d="M307 401Q307 371 287 356T244 340Q221 340 201 356T181 401Q181 429 201 446T244 464Q267 464 287 448T307 401ZM35 249V274H452V249H35ZM307 130Q307 100 287 84T244 68Q221 68 201 85T181
130Q181 158 201 175T244 192Q267 192 287 176T307 130Z" />
<glyph unicode="&#xf8;" glyph-name="oslash" horiz-adv-x="485" d="M22 217Q22 270 41 312T90 383T160 427T242 443Q284 443 324 427L359 507L378 498L343 419Q371 404 394 383Q425 354 444 312T463 217Q463 164 444 122T395 51T324 7T242 -9Q200 -9 161 6L126
-75L106 -66L141 14Q113 29 90 51Q60 80 41 122T22 217ZM294 406Q283 418 270 422T242 426Q229 426 216 422T191 406Q152 365 152 217Q152 123 167 73L306 387Q301 398 294 406ZM333 217Q333 309 317 360L179 45Q184 35 191 28Q202 16 215 11T242 6Q256 6 269 10T294
28Q333 72 333 217Z" />
<glyph unicode="&#xf9;" glyph-name="ugrave" horiz-adv-x="523" d="M66 316Q66 332 65 352T62 383Q57 406 42 416Q34 420 25 421T8 423V433H183Q190 433 190 425Q189 414 189 383T188 317V111Q188 67 203 46Q211 35 222 30T248 25Q274 25 298 54T328 134Q330
151 330 165T331 200V323Q331 338 331 353T328 380Q324 405 308 415Q301 419 291 421T273 423V433H447Q454 433 454 425Q454 414 454 385T453 320V115Q453 100 453 83T456 54Q460 28 478 18Q484 14 493 13T511 10V0H494Q481 0 463 0T423 -1T383 -2T352 -3H339Q334
-3 334 2V25Q333 26 333 35V83H330Q320 59 312 46T286 18Q269 4 246 -2T200 -9Q171 -9 144 -2T98 26Q82 43 74 69T66 127V316ZM333 486Q276 518 241 535T180 569Q160 581 148 595T136 630Q136 651 149 663T182 675Q202 675 216 663T248 626Q257 613 266 600T286
571T310 536T340 493L333 486Z" />
<glyph unicode="&#xfa;" glyph-name="uacute" horiz-adv-x="523" d="M383 627Q383 607 372 594T340 569Q314 553 280 536T187 486L180 493Q197 517 210 536T233 571T253 600T272 626Q290 650 303 662T336 675Q359 675 371 663T383 627ZM66 316Q66 332 65 352T62
383Q57 406 42 416Q34 420 25 421T8 423V433H183Q190 433 190 425Q189 414 189 383T188 317V111Q188 67 203 46Q211 35 222 30T248 25Q274 25 298 54T328 134Q330 151 330 165T331 200V323Q331 338 331 353T328 380Q324 405 308 415Q301 419 291 421T273 423V433H447Q454
433 454 425Q454 414 454 385T453 320V115Q453 100 453 83T456 54Q460 28 478 18Q484 14 493 13T511 10V0H494Q481 0 463 0T423 -1T383 -2T352 -3H339Q334 -3 334 2V25Q333 26 333 35V83H330Q320 59 312 46T286 18Q269 4 246 -2T200 -9Q171 -9 144 -2T98 26Q82
43 74 69T66 127V316Z" />
<glyph unicode="&#xfb;" glyph-name="ucircumflex" horiz-adv-x="523" d="M385 497L259 587L133 497L124 505Q136 522 152 546T184 595T212 639T231 668H287Q293 659 306 639T334 595T366 547T395 505L385 497ZM66 316Q66 332 65 352T62 383Q57 406 42 416Q34
420 25 421T8 423V433H183Q190 433 190 425Q189 414 189 383T188 317V111Q188 67 203 46Q211 35 222 30T248 25Q274 25 298 54T328 134Q330 151 330 165T331 200V323Q331 338 331 353T328 380Q324 405 308 415Q301 419 291 421T273 423V433H447Q454 433 454 425Q454
414 454 385T453 320V115Q453 100 453 83T456 54Q460 28 478 18Q484 14 493 13T511 10V0H494Q481 0 463 0T423 -1T383 -2T352 -3H339Q334 -3 334 2V25Q333 26 333 35V83H330Q320 59 312 46T286 18Q269 4 246 -2T200 -9Q171 -9 144 -2T98 26Q82 43 74 69T66 127V316Z"
/>
<glyph unicode="&#xfc;" glyph-name="udieresis" horiz-adv-x="523" d="M159 645Q184 645 201 628T218 587Q218 563 201 546T159 528Q134 528 118 545T101 586Q101 610 118 627T159 645ZM339 645Q364 645 381 628T398 587Q398 563 381 546T339 528Q314 528 298
545T281 586Q281 610 298 627T339 645ZM66 316Q66 332 65 352T62 383Q57 406 42 416Q34 420 25 421T8 423V433H183Q190 433 190 425Q189 414 189 383T188 317V111Q188 67 203 46Q211 35 222 30T248 25Q274 25 298 54T328 134Q330 151 330 165T331 200V323Q331 338
331 353T328 380Q324 405 308 415Q301 419 291 421T273 423V433H447Q454 433 454 425Q454 414 454 385T453 320V115Q453 100 453 83T456 54Q460 28 478 18Q484 14 493 13T511 10V0H494Q481 0 463 0T423 -1T383 -2T352 -3H339Q334 -3 334 2V25Q333 26 333 35V83H330Q320
59 312 46T286 18Q269 4 246 -2T200 -9Q171 -9 144 -2T98 26Q82 43 74 69T66 127V316Z" />
<glyph unicode="&#xfd;" glyph-name="yacute" horiz-adv-x="431" d="M219 -72Q208 -101 194 -127T165 -173Q131 -213 76 -213Q42 -213 19 -195T-5 -142Q-5 -120 9 -106T48 -91Q70 -91 82 -100T103 -129Q111 -144 115 -153T131 -162Q145 -162 161 -139T195 -73Q199
-63 204 -49T210 -32Q211 -28 211 -21T207 -5L89 297Q78 328 69 347T54 377Q46 391 40 399T23 413Q16 418 7 420T-10 423V433H245V423Q237 422 228 421T213 416Q197 406 197 385Q197 371 202 356T215 316L277 139H279L343 312Q353 338 356 353T360 384Q360 397
355 404T342 416Q334 420 327 421T312 423V433H455V423Q438 421 424 413T399 388Q393 378 386 362T368 316Q359 291 346 255T317 180T286 99T257 24T233 -36T219 -72ZM380 627Q380 607 369 594T337 569Q311 553 277 536T184 486L177 493Q194 517 207 536T230 571T250
600T269 626Q287 650 300 662T333 675Q356 675 368 663T380 627Z" />
<glyph unicode="&#xfe;" glyph-name="thorn" horiz-adv-x="502" d="M55 591Q55 602 55 613T52 631Q50 644 44 651T29 663Q22 668 12 670T-6 673V684H171Q178 684 178 676Q178 671 178 659T177 631T177 600T176 570V365H179Q195 402 228 422T299 443Q335 443 368
430T425 390T465 319T480 217Q480 163 465 121T422 50T359 6T281 -9Q219 -9 180 24H177V-126Q177 -145 181 -159Q186 -176 192 -183T213 -197Q219 -200 225 -201T239 -203V-213H-5V-203Q1 -202 6 -201T18 -197Q32 -191 39 -184T50 -159Q54 -145 54 -126T55 -87V591ZM350
219Q350 277 345 314T329 374T303 404T269 413Q250 413 233 403T204 374T184 330T177 273V154Q177 121 183 92T203 45Q231 12 268 12Q289 12 304 23T329 59T345 123T350 219Z" />
<glyph unicode="&#xff;" glyph-name="ydieresis" horiz-adv-x="431" d="M219 -72Q208 -101 194 -127T165 -173Q131 -213 76 -213Q42 -213 19 -195T-5 -142Q-5 -120 9 -106T48 -91Q70 -91 82 -100T103 -129Q111 -144 115 -153T131 -162Q145 -162 161 -139T195 -73Q199
-63 204 -49T210 -32Q211 -28 211 -21T207 -5L89 297Q78 328 69 347T54 377Q46 391 40 399T23 413Q16 418 7 420T-10 423V433H245V423Q237 422 228 421T213 416Q197 406 197 385Q197 371 202 356T215 316L277 139H279L343 312Q353 338 356 353T360 384Q360 397
355 404T342 416Q334 420 327 421T312 423V433H455V423Q438 421 424 413T399 388Q393 378 386 362T368 316Q359 291 346 255T317 180T286 99T257 24T233 -36T219 -72ZM159 645Q184 645 201 628T218 587Q218 563 201 546T159 528Q134 528 118 545T101 586Q101 610
118 627T159 645ZM339 645Q364 645 381 628T398 587Q398 563 381 546T339 528Q314 528 298 545T281 586Q281 610 298 627T339 645Z" />
<glyph unicode="&#x100;" glyph-name="Amacron" horiz-adv-x="616" d="M250 477H246L164 241H327L250 477ZM-14 11Q-2 13 8 15T29 24Q39 30 48 39T67 64Q75 78 84 99T104 152L288 662H335L487 211Q504 158 519 121T548 60Q559 43 570 34T595 19Q615 12 629 11V0H302V11Q312
13 322 15T340 20Q355 26 364 36T374 69Q374 90 368 111T354 157L335 218H156L132 148Q124 124 120 106T116 73Q116 52 125 39T149 20Q159 16 170 14T190 11V0H-14V11ZM175 718V764H444V718H175Z" />
<glyph unicode="&#x101;" glyph-name="amacron" horiz-adv-x="438" d="M339 -9Q292 -9 273 7Q265 13 260 25T254 58H250Q239 26 210 9T136 -9Q114 -9 93 -3T56 17T31 52T21 102Q21 125 28 141T49 173Q69 194 99 203T158 221Q210 237 229 256T250 296V312Q250 322
250 332T251 352V367Q251 401 241 413T201 425Q184 425 176 420T162 409Q157 402 155 386T151 350Q148 299 97 299Q74 299 60 311T45 346Q45 359 49 370T62 390Q71 401 86 410T120 427T160 438T204 442Q279 442 325 417T372 330V290Q372 261 372 227T371 158V103Q371
68 373 53T381 29Q391 19 406 19Q413 19 421 21T434 25L436 15Q429 8 402 0T339 -9ZM249 254Q240 242 229 235T203 220Q186 211 177 202T160 181Q153 169 150 149T146 106Q146 64 159 47T195 29Q213 29 229 48T248 101L249 254ZM99 549V595H339V549H99Z" />
<glyph unicode="&#x102;" glyph-name="Abreve" horiz-adv-x="616" d="M250 477H246L164 241H327L250 477ZM-14 11Q-2 13 8 15T29 24Q39 30 48 39T67 64Q75 78 84 99T104 152L288 662H335L487 211Q504 158 519 121T548 60Q559 43 570 34T595 19Q615 12 629 11V0H302V11Q312
13 322 15T340 20Q355 26 364 36T374 69Q374 90 368 111T354 157L335 218H156L132 148Q124 124 120 106T116 73Q116 52 125 39T149 20Q159 16 170 14T190 11V0H-14V11ZM447 836Q433 769 398 737T308 705Q196 705 170 836L183 843Q207 805 239 791T308 776Q346 776
378 792T434 843L447 836Z" />
<glyph unicode="&#x103;" glyph-name="abreve" horiz-adv-x="438" d="M339 -9Q292 -9 273 7Q265 13 260 25T254 58H250Q239 26 210 9T136 -9Q114 -9 93 -3T56 17T31 52T21 102Q21 125 28 141T49 173Q69 194 99 203T158 221Q210 237 229 256T250 296V312Q250 322
250 332T251 352V367Q251 401 241 413T201 425Q184 425 176 420T162 409Q157 402 155 386T151 350Q148 299 97 299Q74 299 60 311T45 346Q45 359 49 370T62 390Q71 401 86 410T120 427T160 438T204 442Q279 442 325 417T372 330V290Q372 261 372 227T371 158V103Q371
68 373 53T381 29Q391 19 406 19Q413 19 421 21T434 25L436 15Q429 8 402 0T339 -9ZM249 254Q240 242 229 235T203 220Q186 211 177 202T160 181Q153 169 150 149T146 106Q146 64 159 47T195 29Q213 29 229 48T248 101L249 254ZM340 650Q335 586 304 548T219 510Q165
510 134 548T97 650L110 655Q127 613 156 597T218 581Q253 581 281 597T326 655L340 650Z" />
<glyph unicode="&#x104;" glyph-name="Aogonek" horiz-adv-x="616" d="M250 477H246L164 241H327L250 477ZM201 -134Q201 -115 211 -99T238 -70T273 -44T312 -21Q331 -9 343 1T363 20T372 40T375 64Q375 89 369 111T354 157L335 218H156L132 148Q124 124 120 106T116
73Q116 52 125 39T149 20Q159 16 170 14T190 11V0H-14V11Q-2 13 8 15T29 24Q39 30 48 39T67 64Q75 78 84 99T104 152L288 662H335L487 211Q504 158 519 121T548 60Q559 43 570 34T595 19Q615 12 629 11V0H462Q432 0 413 -1T380 -6T357 -13T339 -24Q314 -43 304
-71T294 -133Q294 -168 312 -184T364 -204V-214Q280 -219 241 -196T201 -134Z" />
<glyph unicode="&#x105;" glyph-name="aogonek" horiz-adv-x="438" d="M239 -131Q239 -112 249 -95T278 -63T320 -35T370 -7Q364 -8 356 -8T340 -9Q293 -9 273 7Q265 13 260 25T254 58H250Q239 26 210 9T136 -9Q114 -9 93 -3T56 17T31 52T21 102Q21 125 28 141T49
173Q69 194 99 203T158 221Q210 237 229 256T250 296V312Q250 322 250 332T251 352V367Q251 401 241 413T201 425Q184 425 176 420T162 409Q157 402 155 386T151 350Q148 299 97 299Q74 299 60 311T45 346Q45 359 49 370T62 390Q71 401 86 410T120 427T160 438T204
442Q279 442 325 417T372 330V290Q372 261 372 227T371 158V103Q371 68 373 53T381 29Q391 19 406 19Q413 19 421 21T434 25L436 15Q432 11 425 8T406 -1Q387 -9 373 -23T350 -55T337 -93T333 -132Q333 -167 350 -183T402 -204V-214Q319 -219 279 -195T239 -131ZM195
29Q213 29 229 48T248 101L249 254Q240 242 229 235T203 220Q186 211 177 202T160 181Q153 169 150 149T146 106Q146 64 159 47T195 29Z" />
<glyph unicode="&#x106;" glyph-name="Cacute" horiz-adv-x="625" d="M359 647Q331 647 303 636T252 600Q237 584 224 561T201 504T186 428T180 329Q180 270 187 227T207 152T237 98T276 59Q317 29 386 29Q415 29 444 38T500 68T548 123T587 208L604 200Q593 153
570 114T514 47T440 2T351 -14Q287 -14 229 7T127 70T56 177T30 329Q30 416 58 480T132 587T236 650T357 671Q424 671 476 650T549 601H553L578 649H589V417H575Q561 470 543 512T498 585T438 631T359 647ZM445 847Q465 847 478 834T491 798Q491 776 473 764T429
743Q400 735 360 726T255 703L250 712Q273 731 291 746T325 773T353 795T379 816Q401 833 414 840T445 847Z" />
<glyph unicode="&#x107;" glyph-name="cacute" horiz-adv-x="414" d="M377 627Q377 607 366 594T334 569Q308 553 274 536T181 486L174 493Q191 517 204 536T227 571T247 600T266 626Q284 650 297 662T330 675Q353 675 365 663T377 627ZM405 133Q397 104 384 79T350
34T301 3T236 -9Q189 -9 153 5T90 43Q58 74 40 118T22 220Q22 274 41 315T91 385T162 428T242 443Q293 443 326 430T374 400Q398 373 398 345Q398 319 383 307T348 294Q319 294 307 312T289 361Q283 396 273 411T241 426Q227 426 213 420T189 403Q171 383 162 338T153
229Q153 161 163 118T192 49Q204 32 219 26T252 19Q284 19 306 30T344 58T370 97T388 139L405 133Z" />
<glyph unicode="&#x108;" glyph-name="Ccircumflex" horiz-adv-x="625" d="M478 708L348 771L219 708L211 716Q224 731 240 749T271 786T300 819T320 841H377Q384 834 397 819T425 786T457 750T486 716L478 708ZM359 647Q331 647 303 636T252 600Q237 584 224
561T201 504T186 428T180 329Q180 270 187 227T207 152T237 98T276 59Q317 29 386 29Q415 29 444 38T500 68T548 123T587 208L604 200Q593 153 570 114T514 47T440 2T351 -14Q287 -14 229 7T127 70T56 177T30 329Q30 416 58 480T132 587T236 650T357 671Q424 671
476 650T549 601H553L578 649H589V417H575Q561 470 543 512T498 585T438 631T359 647Z" />
<glyph unicode="&#x109;" glyph-name="ccircumflex" horiz-adv-x="414" d="M363 497L237 587L111 497L102 505Q114 522 130 546T162 595T190 639T209 668H265Q271 659 284 639T312 595T344 547T373 505L363 497ZM405 133Q397 104 384 79T350 34T301 3T236 -9Q189
-9 153 5T90 43Q58 74 40 118T22 220Q22 274 41 315T91 385T162 428T242 443Q293 443 326 430T374 400Q398 373 398 345Q398 319 383 307T348 294Q319 294 307 312T289 361Q283 396 273 411T241 426Q227 426 213 420T189 403Q171 383 162 338T153 229Q153 161 163
118T192 49Q204 32 219 26T252 19Q284 19 306 30T344 58T370 97T388 139L405 133Z" />
<glyph unicode="&#x10a;" glyph-name="Cdotaccent" horiz-adv-x="625" d="M359 647Q331 647 303 636T252 600Q237 584 224 561T201 504T186 428T180 329Q180 270 187 227T207 152T237 98T276 59Q317 29 386 29Q415 29 444 38T500 68T548 123T587 208L604 200Q593
153 570 114T514 47T440 2T351 -14Q287 -14 229 7T127 70T56 177T30 329Q30 416 58 480T132 587T236 650T357 671Q424 671 476 650T549 601H553L578 649H589V417H575Q561 470 543 512T498 585T438 631T359 647ZM415 779Q415 750 395 732T347 714Q320 714 301 732T281
779Q281 808 301 827T347 846Q374 846 394 828T415 779Z" />
<glyph unicode="&#x10b;" glyph-name="cdotaccent" horiz-adv-x="414" d="M405 133Q397 104 384 79T350 34T301 3T236 -9Q189 -9 153 5T90 43Q58 74 40 118T22 220Q22 274 41 315T91 385T162 428T242 443Q293 443 326 430T374 400Q398 373 398 345Q398 319 383
307T348 294Q319 294 307 312T289 361Q283 396 273 411T241 426Q227 426 213 420T189 403Q171 383 162 338T153 229Q153 161 163 118T192 49Q204 32 219 26T252 19Q284 19 306 30T344 58T370 97T388 139L405 133ZM235 526Q208 526 188 544T168 592Q168 621 188
640T235 659Q262 659 282 640T303 592Q303 563 283 545T235 526Z" />
<glyph unicode="&#x10c;" glyph-name="Ccaron" horiz-adv-x="625" d="M219 841L348 779L478 841L486 834Q473 819 457 800T426 763T397 730T377 708H320Q313 715 300 730T272 763T240 800T211 834L219 841ZM359 647Q331 647 303 636T252 600Q237 584 224 561T201
504T186 428T180 329Q180 270 187 227T207 152T237 98T276 59Q317 29 386 29Q415 29 444 38T500 68T548 123T587 208L604 200Q593 153 570 114T514 47T440 2T351 -14Q287 -14 229 7T127 70T56 177T30 329Q30 416 58 480T132 587T236 650T357 671Q424 671 476 650T549
601H553L578 649H589V417H575Q561 470 543 512T498 585T438 631T359 647Z" />
<glyph unicode="&#x10d;" glyph-name="ccaron" horiz-adv-x="414" d="M371 659Q359 642 343 618T311 569T282 525T263 496H207Q201 505 189 525T160 569T128 617T100 659L109 667L235 572L361 667L371 659ZM405 133Q397 104 384 79T350 34T301 3T236 -9Q189 -9
153 5T90 43Q58 74 40 118T22 220Q22 274 41 315T91 385T162 428T242 443Q293 443 326 430T374 400Q398 373 398 345Q398 319 383 307T348 294Q319 294 307 312T289 361Q283 396 273 411T241 426Q227 426 213 420T189 403Q171 383 162 338T153 229Q153 161 163
118T192 49Q204 32 219 26T252 19Q284 19 306 30T344 58T370 97T388 139L405 133Z" />
<glyph unicode="&#x10e;" glyph-name="Dcaron" horiz-adv-x="701" d="M208 841L337 779L467 841L475 834Q462 819 446 800T415 763T386 730T366 708H309Q302 715 289 730T261 763T229 800T200 834L208 841ZM358 657Q409 657 449 646T521 618Q589 581 631 508T673
329Q673 224 633 151T524 40Q493 23 454 12T370 0H17V11L33 13Q41 14 49 16Q66 21 77 31T96 62Q102 82 105 113T108 185V473Q108 512 105 543T96 595Q88 616 77 626T49 641Q32 646 17 646V657H358ZM349 23Q376 23 406 34T459 73Q474 91 486 114T508 169T522 239T527
329Q527 431 508 491T458 586Q434 613 404 624T344 635H310Q297 635 285 632T264 619Q249 606 247 581T245 534V156Q245 142 245 126T248 95T255 67T270 45Q281 34 297 29T333 23H349Z" />
<glyph unicode="&#x10f;" glyph-name="dcaron" horiz-adv-x="520" d="M516 684H600Q582 644 558 592T513 491H500L516 684ZM508 -1Q502 -1 475 -1T417 -2T361 -2T334 -3Q331 -3 329 2Q329 5 329 14T330 27Q330 28 330 35T329 50V73H327Q313 35 282 13T203 -9Q168
-9 135 4T77 46T37 116T22 216Q22 272 38 314T82 385T144 428T218 443Q263 443 287 424T323 380H325V572Q325 586 325 605T322 633Q319 646 314 653T300 666Q292 670 284 671T267 674V684H445Q451 684 451 677Q451 665 451 643T449 595L448 544Q448 519 448 501V82Q448
66 450 55Q454 30 474 18Q481 13 491 12T508 9V-1ZM325 293Q325 325 319 347T300 386Q289 401 275 409T240 418Q201 418 177 365T153 214Q153 114 176 68T236 21Q274 21 299 54T325 146V293Z" />
<glyph unicode="&#x110;" glyph-name="Dcroat" horiz-adv-x="701" d="M26 350H108V473Q108 512 105 543T96 595Q88 616 77 626T49 641Q32 646 17 646V657H358Q409 657 449 646T521 618Q589 581 631 508T673 329Q673 224 633 151T524 40Q493 23 454 12T370 0H17V11L33
13Q41 14 49 16Q66 21 77 31T96 62Q102 82 105 113T108 185V323H26V350ZM310 635Q297 635 285 632T264 619Q249 606 247 581T245 534V350H391V323H245V156Q245 142 245 126T248 95T255 67T270 45Q281 34 297 29T333 23H349Q376 23 406 34T459 73Q474 91 486 114T508
169T522 239T527 329Q527 431 508 491T458 586Q434 613 404 624T344 635H310Z" />
<glyph unicode="&#x111;" glyph-name="dcroat" horiz-adv-x="521" d="M200 560H325V572Q325 586 325 605T322 633Q319 646 314 653T300 666Q292 670 284 671T267 674V684H445Q451 684 451 677Q451 665 451 643T449 595V560H508V538H448V501V82Q448 66 450 55Q454
30 474 18Q481 13 491 12T508 9V-1Q502 -1 475 -1T417 -2T361 -2T334 -3Q331 -3 329 2Q329 5 329 14T330 27Q330 28 330 35T329 50V73H327Q313 35 282 13T203 -9Q168 -9 135 4T77 46T37 116T22 216Q22 272 38 314T82 385T144 428T218 443Q263 443 287 424T323 380H325V538H200V560ZM325
287Q325 319 319 343T300 386Q278 418 240 418Q201 418 177 365T153 214Q153 114 176 68T236 21Q274 21 299 54T325 146V287Z" />
<glyph unicode="&#x112;" glyph-name="Emacron" horiz-adv-x="592" d="M546 0H17V10Q25 11 33 12T49 16Q65 21 76 31T96 63Q102 83 104 114T107 185V473Q107 512 105 543T96 595Q88 616 77 626T49 641Q32 646 17 646V657H524L549 457H537Q508 536 453 592Q436
609 410 622T348 635H320Q305 635 293 632T270 619Q252 603 248 575T244 521V352H281Q302 352 316 353T340 356T357 363T371 375Q391 394 403 423T418 477H430V205H418Q415 229 404 257T374 303Q361 315 342 322T281 329H244V158Q244 143 244 126T247 94T255 65T271
43Q282 32 299 28T337 23H356Q393 23 419 36T466 70Q498 104 521 145T558 222H568L546 0ZM169 718V764H438V718H169Z" />
<glyph unicode="&#x113;" glyph-name="emacron" horiz-adv-x="435" d="M272 254Q289 254 296 262T303 293Q303 376 278 407Q261 425 233 425Q206 425 188 407Q173 391 164 354T153 254H272ZM415 133Q401 73 357 32T237 -9Q199 -9 162 2T96 37Q61 67 42 111T22
215Q22 270 39 313T86 384T153 428T231 443Q279 443 314 428T373 388T407 332T419 268Q419 260 419 251T417 234H153Q153 157 165 114T198 48Q225 21 267 21Q297 21 319 31T357 59T383 97T400 139L415 133ZM117 549V595H357V549H117Z" />
<glyph unicode="&#x114;" glyph-name="Ebreve" horiz-adv-x="592" d="M546 0H17V10Q25 11 33 12T49 16Q65 21 76 31T96 63Q102 83 104 114T107 185V473Q107 512 105 543T96 595Q88 616 77 626T49 641Q32 646 17 646V657H524L549 457H537Q508 536 453 592Q436 609
410 622T348 635H320Q305 635 293 632T270 619Q252 603 248 575T244 521V352H281Q302 352 316 353T340 356T357 363T371 375Q391 394 403 423T418 477H430V205H418Q415 229 404 257T374 303Q361 315 342 322T281 329H244V158Q244 143 244 126T247 94T255 65T271
43Q282 32 299 28T337 23H356Q393 23 419 36T466 70Q498 104 521 145T558 222H568L546 0ZM442 836Q428 769 393 737T303 705Q191 705 165 836L178 843Q202 805 234 791T303 776Q341 776 373 792T429 843L442 836Z" />
<glyph unicode="&#x115;" glyph-name="ebreve" horiz-adv-x="435" d="M272 254Q289 254 296 262T303 293Q303 376 278 407Q261 425 233 425Q206 425 188 407Q173 391 164 354T153 254H272ZM415 133Q401 73 357 32T237 -9Q199 -9 162 2T96 37Q61 67 42 111T22 215Q22
270 39 313T86 384T153 428T231 443Q279 443 314 428T373 388T407 332T419 268Q419 260 419 251T417 234H153Q153 157 165 114T198 48Q225 21 267 21Q297 21 319 31T357 59T383 97T400 139L415 133ZM356 650Q351 586 320 548T235 510Q181 510 150 548T113 650L126
655Q143 613 172 597T234 581Q269 581 297 597T342 655L356 650Z" />
<glyph unicode="&#x116;" glyph-name="Edotaccent" horiz-adv-x="592" d="M371 779Q371 750 351 732T303 714Q276 714 257 732T237 779Q237 808 257 827T303 846Q330 846 350 828T371 779ZM546 0H17V10Q25 11 33 12T49 16Q65 21 76 31T96 63Q102 83 104 114T107
185V473Q107 512 105 543T96 595Q88 616 77 626T49 641Q32 646 17 646V657H524L549 457H537Q508 536 453 592Q436 609 410 622T348 635H320Q305 635 293 632T270 619Q252 603 248 575T244 521V352H281Q302 352 316 353T340 356T357 363T371 375Q391 394 403 423T418
477H430V205H418Q415 229 404 257T374 303Q361 315 342 322T281 329H244V158Q244 143 244 126T247 94T255 65T271 43Q282 32 299 28T337 23H356Q393 23 419 36T466 70Q498 104 521 145T558 222H568L546 0Z" />
<glyph unicode="&#x117;" glyph-name="edotaccent" horiz-adv-x="435" d="M272 254Q289 254 296 262T303 293Q303 376 278 407Q261 425 233 425Q206 425 188 407Q173 391 164 354T153 254H272ZM415 133Q401 73 357 32T237 -9Q199 -9 162 2T96 37Q61 67 42 111T22
215Q22 270 39 313T86 384T153 428T231 443Q279 443 314 428T373 388T407 332T419 268Q419 260 419 251T417 234H153Q153 157 165 114T198 48Q225 21 267 21Q297 21 319 31T357 59T383 97T400 139L415 133ZM233 526Q206 526 186 544T166 592Q166 621 186 640T233
659Q260 659 280 640T301 592Q301 563 281 545T233 526Z" />
<glyph unicode="&#x118;" glyph-name="Eogonek" horiz-adv-x="592" d="M17 0V10Q25 11 33 12T49 16Q65 21 76 31T96 63Q102 83 104 114T107 185V473Q107 512 105 543T96 595Q88 616 77 626T49 641Q32 646 17 646V657H524L549 457H537Q508 536 453 592Q436 609
410 622T348 635H320Q305 635 293 632T270 619Q252 603 248 575T244 521V352H281Q302 352 316 353T340 356T357 363T371 375Q391 394 403 423T418 477H430V205H418Q415 229 404 257T374 303Q361 315 342 322T281 329H244V158Q244 143 244 126T247 94T255 65T271
43Q282 32 299 28T337 23H356Q393 23 419 36T466 70Q498 104 521 145T558 222H568L546 0H451Q419 -29 404 -61T389 -132Q389 -167 406 -183T458 -204V-214Q375 -219 335 -195T295 -131Q295 -110 306 -93T337 -60T381 -30T433 0H17Z" />
<glyph unicode="&#x119;" glyph-name="eogonek" horiz-adv-x="435" d="M137 -131Q137 -111 148 -94T179 -62T223 -33T275 -5Q266 -7 257 -8T241 -9Q202 -10 164 1T96 37Q61 67 42 111T22 215Q22 270 39 313T86 384T153 428T231 443Q279 443 314 428T373 388T407
332T419 268Q419 260 419 251T417 234H153Q153 157 165 114T198 48Q225 21 267 21Q297 21 319 31T357 59T383 97T400 139L415 133Q405 91 383 62T332 15Q276 -18 253 -51T230 -132Q230 -167 247 -183T300 -204V-214Q217 -219 177 -195T137 -131ZM272 254Q289 254
296 262T303 293Q303 376 278 407Q261 425 233 425Q206 425 188 407Q173 391 164 354T153 254H272Z" />
<glyph unicode="&#x11a;" glyph-name="Ecaron" horiz-adv-x="592" d="M174 841L303 779L433 841L441 834Q428 819 412 800T381 763T352 730T332 708H275Q268 715 255 730T227 763T195 800T166 834L174 841ZM546 0H17V10Q25 11 33 12T49 16Q65 21 76 31T96 63Q102
83 104 114T107 185V473Q107 512 105 543T96 595Q88 616 77 626T49 641Q32 646 17 646V657H524L549 457H537Q508 536 453 592Q436 609 410 622T348 635H320Q305 635 293 632T270 619Q252 603 248 575T244 521V352H281Q302 352 316 353T340 356T357 363T371 375Q391
394 403 423T418 477H430V205H418Q415 229 404 257T374 303Q361 315 342 322T281 329H244V158Q244 143 244 126T247 94T255 65T271 43Q282 32 299 28T337 23H356Q393 23 419 36T466 70Q498 104 521 145T558 222H568L546 0Z" />
<glyph unicode="&#x11b;" glyph-name="ecaron" horiz-adv-x="435" d="M370 659Q358 642 342 618T310 569T281 525T262 496H206Q200 505 188 525T159 569T127 617T99 659L108 667L234 572L360 667L370 659ZM272 254Q289 254 296 262T303 293Q303 376 278 407Q261
425 233 425Q206 425 188 407Q173 391 164 354T153 254H272ZM415 133Q401 73 357 32T237 -9Q199 -9 162 2T96 37Q61 67 42 111T22 215Q22 270 39 313T86 384T153 428T231 443Q279 443 314 428T373 388T407 332T419 268Q419 260 419 251T417 234H153Q153 157 165
114T198 48Q225 21 267 21Q297 21 319 31T357 59T383 97T400 139L415 133Z" />
<glyph unicode="&#x11c;" glyph-name="Gcircumflex" horiz-adv-x="663" d="M480 708L350 771L221 708L213 716Q226 731 242 749T273 786T302 819T322 841H379Q386 834 399 819T427 786T459 750T488 716L480 708ZM453 169Q453 201 450 219T439 253Q430 269 421
276T395 289Q380 293 364 295V305H661V295Q655 294 646 292T629 288Q616 283 606 276T588 252Q577 230 577 161V28Q548 17 489 2Q461 -3 422 -8T347 -14Q279 -14 222 9T121 77T54 185T30 329Q30 409 56 472T125 580T227 647T348 670Q385 670 416 663T472 644T512
621T536 598H540L564 643H576V411H564Q541 505 501 564Q474 604 439 624T350 646Q296 646 256 609Q238 593 224 570T200 513T185 434T179 329Q179 271 185 227T201 149T226 92T259 52Q279 29 305 21T354 12Q391 12 409 19T437 40Q446 54 449 75T453 121V169Z" />
<glyph unicode="&#x11d;" glyph-name="gcircumflex" horiz-adv-x="470" d="M343 497L217 587L91 497L82 505Q94 522 110 546T142 595T170 639T189 668H245Q251 659 264 639T292 595T324 547T353 505L343 497ZM437 -42Q437 -87 415 -119T358 -172T278 -203T190
-213Q102 -213 52 -191T2 -118Q2 -83 35 -60T118 -31V-28Q79 -23 55 -1T30 59Q30 80 38 96T59 123T87 142T115 154V157Q80 174 55 208T29 291Q29 328 44 356T83 404T139 433T203 443Q243 443 281 428T342 385H347Q355 412 377 429T429 446Q488 446 488 394Q488
368 475 357T442 346Q425 346 415 355T400 376Q394 389 390 395T379 402Q372 402 367 393T361 371Q361 366 363 358T369 342Q374 331 376 317T379 291Q379 253 364 225T324 178T268 150T205 140Q188 140 173 142T146 147Q129 145 111 136T93 108Q93 78 140 78Q150
78 170 79T212 82T256 85T289 87Q358 87 397 58T437 -42ZM190 -197Q268 -197 313 -171T359 -96Q359 -60 342 -44T285 -27Q273 -27 257 -27T225 -29T193 -31T167 -34Q151 -36 135 -40T104 -53T81 -77T72 -117Q72 -155 101 -176T190 -197ZM203 427Q171 427 155 397T138
291Q138 216 154 185T203 154Q236 154 252 184T269 291Q269 367 253 397T203 427Z" />
<glyph unicode="&#x11e;" glyph-name="Gbreve" horiz-adv-x="663" d="M489 836Q475 769 440 737T350 705Q238 705 212 836L225 843Q249 805 281 791T350 776Q388 776 420 792T476 843L489 836ZM453 169Q453 201 450 219T439 253Q430 269 421 276T395 289Q380 293
364 295V305H661V295Q655 294 646 292T629 288Q616 283 606 276T588 252Q577 230 577 161V28Q548 17 489 2Q461 -3 422 -8T347 -14Q279 -14 222 9T121 77T54 185T30 329Q30 409 56 472T125 580T227 647T348 670Q385 670 416 663T472 644T512 621T536 598H540L564
643H576V411H564Q541 505 501 564Q474 604 439 624T350 646Q296 646 256 609Q238 593 224 570T200 513T185 434T179 329Q179 271 185 227T201 149T226 92T259 52Q279 29 305 21T354 12Q391 12 409 19T437 40Q446 54 449 75T453 121V169Z" />
<glyph unicode="&#x11f;" glyph-name="gbreve" horiz-adv-x="470" d="M437 -42Q437 -87 415 -119T358 -172T278 -203T190 -213Q102 -213 52 -191T2 -118Q2 -83 35 -60T118 -31V-28Q79 -23 55 -1T30 59Q30 80 38 96T59 123T87 142T115 154V157Q80 174 55 208T29
291Q29 328 44 356T83 404T139 433T203 443Q243 443 281 428T342 385H347Q355 412 377 429T429 446Q488 446 488 394Q488 368 475 357T442 346Q425 346 415 355T400 376Q394 389 390 395T379 402Q372 402 367 393T361 371Q361 366 363 358T369 342Q374 331 376
317T379 291Q379 253 364 225T324 178T268 150T205 140Q188 140 173 142T146 147Q129 145 111 136T93 108Q93 78 140 78Q150 78 170 79T212 82T256 85T289 87Q358 87 397 58T437 -42ZM190 -197Q268 -197 313 -171T359 -96Q359 -60 342 -44T285 -27Q273 -27 257
-27T225 -29T193 -31T167 -34Q151 -36 135 -40T104 -53T81 -77T72 -117Q72 -155 101 -176T190 -197ZM203 427Q171 427 155 397T138 291Q138 216 154 185T203 154Q236 154 252 184T269 291Q269 367 253 397T203 427ZM338 650Q333 586 302 548T217 510Q163 510 132
548T95 650L108 655Q125 613 154 597T216 581Q251 581 279 597T324 655L338 650Z" />
<glyph unicode="&#x120;" glyph-name="Gdotaccent" horiz-adv-x="663" d="M417 779Q417 750 397 732T349 714Q322 714 303 732T283 779Q283 808 303 827T349 846Q376 846 396 828T417 779ZM453 169Q453 201 450 219T439 253Q430 269 421 276T395 289Q380 293 364
295V305H661V295Q655 294 646 292T629 288Q616 283 606 276T588 252Q577 230 577 161V28Q548 17 489 2Q461 -3 422 -8T347 -14Q279 -14 222 9T121 77T54 185T30 329Q30 409 56 472T125 580T227 647T348 670Q385 670 416 663T472 644T512 621T536 598H540L564 643H576V411H564Q541
505 501 564Q474 604 439 624T350 646Q296 646 256 609Q238 593 224 570T200 513T185 434T179 329Q179 271 185 227T201 149T226 92T259 52Q279 29 305 21T354 12Q391 12 409 19T437 40Q446 54 449 75T453 121V169Z" />
<glyph unicode="&#x121;" glyph-name="gdotaccent" horiz-adv-x="470" d="M437 -42Q437 -87 415 -119T358 -172T278 -203T190 -213Q102 -213 52 -191T2 -118Q2 -83 35 -60T118 -31V-28Q79 -23 55 -1T30 59Q30 80 38 96T59 123T87 142T115 154V157Q80 174 55 208T29
291Q29 328 44 356T83 404T139 433T203 443Q243 443 281 428T342 385H347Q355 412 377 429T429 446Q488 446 488 394Q488 368 475 357T442 346Q425 346 415 355T400 376Q394 389 390 395T379 402Q372 402 367 393T361 371Q361 366 363 358T369 342Q374 331 376
317T379 291Q379 253 364 225T324 178T268 150T205 140Q188 140 173 142T146 147Q129 145 111 136T93 108Q93 78 140 78Q150 78 170 79T212 82T256 85T289 87Q358 87 397 58T437 -42ZM190 -197Q268 -197 313 -171T359 -96Q359 -60 342 -44T285 -27Q273 -27 257
-27T225 -29T193 -31T167 -34Q151 -36 135 -40T104 -53T81 -77T72 -117Q72 -155 101 -176T190 -197ZM203 427Q171 427 155 397T138 291Q138 216 154 185T203 154Q236 154 252 184T269 291Q269 367 253 397T203 427ZM216 526Q189 526 169 544T149 592Q149 621 169
640T216 659Q243 659 263 640T284 592Q284 563 264 545T216 526Z" />
<glyph unicode="&#x122;" glyph-name="Gcommaaccent" horiz-adv-x="663" d="M411 -115Q411 -169 378 -201T288 -248L282 -234Q317 -223 338 -210T360 -177Q360 -165 351 -160Q322 -155 304 -141T285 -98Q285 -73 303 -58T344 -42Q372 -42 391 -60T411 -115ZM453
169Q453 201 450 219T439 253Q430 269 421 276T395 289Q380 293 364 295V305H661V295Q655 294 646 292T629 288Q616 283 606 276T588 252Q577 230 577 161V28Q548 17 489 2Q461 -3 422 -8T347 -14Q279 -14 222 9T121 77T54 185T30 329Q30 409 56 472T125 580T227
647T348 670Q385 670 416 663T472 644T512 621T536 598H540L564 643H576V411H564Q541 505 501 564Q474 604 439 624T350 646Q296 646 256 609Q238 593 224 570T200 513T185 434T179 329Q179 271 185 227T201 149T226 92T259 52Q279 29 305 21T354 12Q391 12 409
19T437 40Q446 54 449 75T453 121V169Z" />
<glyph unicode="&#x123;" glyph-name="gcommaaccent" horiz-adv-x="470" d="M151 844Q151 896 184 929T275 977L281 963Q245 952 224 939T202 906Q202 893 211 889Q240 884 258 870T277 827Q277 802 259 787T218 771Q190 771 171 789T151 844ZM437 -42Q437 -87
415 -119T358 -172T278 -203T190 -213Q102 -213 52 -191T2 -118Q2 -83 35 -60T118 -31V-28Q79 -23 55 -1T30 59Q30 80 38 96T59 123T87 142T115 154V157Q80 174 55 208T29 291Q29 328 44 356T83 404T139 433T203 443Q243 443 281 428T342 385H347Q355 412 377 429T429
446Q488 446 488 394Q488 368 475 357T442 346Q425 346 415 355T400 376Q394 389 390 395T379 402Q372 402 367 393T361 371Q361 366 363 358T369 342Q374 331 376 317T379 291Q379 253 364 225T324 178T268 150T205 140Q188 140 173 142T146 147Q129 145 111 136T93
108Q93 78 140 78Q150 78 170 79T212 82T256 85T289 87Q358 87 397 58T437 -42ZM190 -197Q268 -197 313 -171T359 -96Q359 -60 342 -44T285 -27Q273 -27 257 -27T225 -29T193 -31T167 -34Q151 -36 135 -40T104 -53T81 -77T72 -117Q72 -155 101 -176T190 -197ZM203
427Q171 427 155 397T138 291Q138 216 154 185T203 154Q236 154 252 184T269 291Q269 367 253 397T203 427Z" />
<glyph unicode="&#x124;" glyph-name="Hcircumflex" horiz-adv-x="731" d="M328 0H17V11L33 13Q41 14 49 16Q65 21 76 31T96 63Q102 83 104 114T107 185V473Q107 512 105 543T96 595Q88 616 77 626T49 641Q33 645 17 647V657H328V647Q315 646 300 641Q285 635
274 626T255 596Q249 576 247 545T244 474V346H487V474Q487 513 485 544T476 596Q469 616 458 625T431 641Q418 645 402 647V657H714V647Q706 646 698 645T682 641Q665 636 654 626T635 595Q628 575 626 544T624 473V185Q624 145 626 114T635 63Q642 41 653 31T682
16Q690 14 698 13L714 11V0H402V11Q409 12 415 13T430 17Q446 22 457 32T476 62Q482 82 484 113T487 184V319H244V184Q244 144 246 113T255 62Q262 42 273 32T300 17Q308 14 315 13T328 11V0ZM495 708L365 771L236 708L228 716Q241 731 257 749T288 786T317 819T337
841H394Q401 834 414 819T442 786T474 750T503 716L495 708Z" />
<glyph unicode="&#x125;" glyph-name="hcircumflex" horiz-adv-x="542" d="M471 126Q471 106 472 85T476 52Q481 35 488 28T506 16Q512 13 518 12T531 10V0H295V10Q302 11 307 12T319 15Q331 21 337 29T346 55Q348 67 349 84T350 118V323Q350 349 347 363T335
387Q327 396 317 400T292 404Q279 404 266 398T240 379T219 350T207 310Q202 293 200 274T197 233V118Q197 101 197 84T200 55Q204 38 210 30T229 15Q234 13 239 12T252 10V0H16V10Q23 11 29 12T41 16Q52 20 59 27T71 51Q74 63 74 84T75 126V570Q75 584 75 602T72
633Q70 645 65 651T52 663Q45 668 35 670T16 674V684H192Q198 684 198 677Q198 665 197 634T196 564V345H200Q209 371 222 387T251 414Q270 428 294 435T342 443Q412 443 442 407Q456 393 463 369T471 310V126ZM401 716L271 779L142 716L134 724Q147 739 163 757T194
794T223 827T243 849H300Q307 842 320 827T348 794T380 758T409 724L401 716Z" />
<glyph unicode="&#x126;" glyph-name="Hbar" horiz-adv-x="731" d="M17 11L33 13Q41 14 49 16Q65 21 76 31T96 63Q102 83 104 114T107 185V458H17V485H107Q106 517 104 543Q102 575 96 595Q88 616 77 626T49 641Q33 645 17 647V657H328V647Q315 646 300 641Q285
635 274 626T255 596Q249 576 246 544Q244 517 244 485H487Q486 517 484 544Q482 576 476 596Q469 616 458 625T431 641Q418 645 402 647V657H714V647Q706 646 698 645T682 641Q665 636 654 626T635 595Q628 575 626 543Q624 517 624 485H714V458H624V185Q624 145
626 114T635 63Q642 41 653 31T682 16Q690 14 698 13L714 11V0H402V11Q409 12 415 13T430 17Q446 22 457 32T476 62Q482 82 484 113T487 184V319H244V184Q244 144 246 113T255 62Q262 42 273 32T300 17Q308 14 315 13T328 11V0H17V11ZM487 346V458H244V346H487Z"
/>
<glyph unicode="&#x127;" glyph-name="hbar" horiz-adv-x="543" d="M296 0V10L308 12Q314 13 319 15Q332 21 337 29T347 55Q349 67 349 84T350 118V323Q350 349 347 363T335 387Q321 404 293 404Q280 404 267 398T241 379T220 350T207 310Q203 293 201 274T198
233V84Q198 67 201 55Q204 38 210 30T229 15Q235 13 240 12T252 10V0H17V10Q23 11 30 12T42 16Q52 20 59 27T71 51Q74 63 75 84T76 126V538H14V560H76V570Q76 584 76 602T72 633Q70 645 66 651T53 663Q45 668 35 670T17 674V684H193Q199 684 199 677Q199 665 198
634T197 564V560H322V538H197V345H201Q209 371 222 387T252 414Q270 428 295 435T343 443Q376 443 402 434T442 407Q456 393 464 369T472 310V126Q472 106 473 85T477 52Q482 35 488 28T506 16Q512 13 518 12T531 10V0H296Z" />
<glyph unicode="&#x128;" glyph-name="Itilde" horiz-adv-x="351" d="M245 185Q245 145 247 114T255 63Q263 41 274 31T302 16Q310 14 318 13L334 11V0H17V11Q24 12 32 13T49 16Q65 21 76 31T95 63Q102 83 104 114T107 185V473Q107 512 105 543T95 595Q88 616
77 626T49 641Q32 646 17 647V657H334V647Q317 645 302 641Q286 636 275 626T255 595Q249 575 247 544T245 473V185ZM593 832Q589 811 582 791T564 753T535 726T495 715Q478 715 459 719T420 729T383 738T352 743Q332 743 317 735T290 703L278 707Q283 727 291
747T311 783T339 810T376 820Q392 820 411 816T449 807T486 797T516 793Q542 793 556 802T580 835L593 832Z" />
<glyph unicode="&#x129;" glyph-name="itilde" horiz-adv-x="270" d="M17 0V10Q23 11 29 12T42 16Q53 21 59 28T71 52Q74 62 75 80T76 116V330Q76 340 76 349T75 368T73 383Q71 395 66 401T54 413Q47 418 38 420T21 422V433H193Q200 433 200 426Q199 413 199 397T198
358V116Q198 98 199 80T203 52Q208 35 214 28T232 16Q238 13 244 12T257 10V0H17ZM543 648Q539 628 532 607T513 568T485 540T445 529Q428 529 411 533T379 542T348 552T320 556Q298 556 282 547T255 513L242 516Q248 536 256 557T276 595T304 622T341 633Q356
633 372 629T404 620T434 611T462 607Q488 607 503 616T530 650L543 648Z" />
<glyph unicode="&#x12a;" glyph-name="Imacron" horiz-adv-x="351" d="M245 185Q245 145 247 114T255 63Q263 41 274 31T302 16Q310 14 318 13L334 11V0H17V11Q24 12 32 13T49 16Q65 21 76 31T95 63Q102 83 104 114T107 185V473Q107 512 105 543T95 595Q88 616
77 626T49 641Q32 646 17 647V657H334V647Q317 645 302 641Q286 636 275 626T255 595Q249 575 247 544T245 473V185ZM297 718V764H566V718H297Z" />
<glyph unicode="&#x12b;" glyph-name="imacron" horiz-adv-x="270" d="M16 595H228V549H16V595ZM17 0V10Q23 11 29 12T42 16Q53 21 59 28T71 52Q74 62 75 80T76 116V330Q76 340 76 349T75 368T73 383Q71 395 66 401T54 413Q47 418 38 420T21 422V433H193Q200 433
200 426Q199 413 199 397T198 358V116Q198 98 199 80T203 52Q208 35 214 28T232 16Q238 13 244 12T257 10V0H17Z" />
<glyph unicode="&#x12c;" glyph-name="Ibreve" horiz-adv-x="351" d="M245 185Q245 145 247 114T255 63Q263 41 274 31T302 16Q310 14 318 13L334 11V0H17V11Q24 12 32 13T49 16Q65 21 76 31T95 63Q102 83 104 114T107 185V473Q107 512 105 543T95 595Q88 616
77 626T49 641Q32 646 17 647V657H334V647Q317 645 302 641Q286 636 275 626T255 595Q249 575 247 544T245 473V185ZM570 836Q556 769 521 737T431 705Q319 705 293 836L306 843Q330 805 362 791T431 776Q469 776 501 792T557 843L570 836Z" />
<glyph unicode="&#x12d;" glyph-name="ibreve" horiz-adv-x="270" d="M17 0V10Q23 11 29 12T42 16Q53 21 59 28T71 52Q74 62 75 80T76 116V330Q76 340 76 349T75 368T73 383Q71 395 66 401T54 413Q47 418 38 420T21 422V433H193Q200 433 200 426Q199 413 199 397T198
358V116Q198 98 199 80T203 52Q208 35 214 28T232 16Q238 13 244 12T257 10V0H17ZM513 650Q508 586 477 548T392 510Q338 510 307 548T270 650L283 655Q300 613 329 597T391 581Q426 581 454 597T499 655L513 650Z" />
<glyph unicode="&#x12e;" glyph-name="Iogonek" horiz-adv-x="351" d="M17 0V11Q24 12 32 13T49 16Q65 21 76 31T95 63Q102 83 104 114T107 185V473Q107 512 105 543T95 595Q88 616 77 626T49 641Q32 646 17 647V657H334V647Q328 646 318 645T302 641Q286 636
275 626T255 595Q249 575 247 544T245 473V185Q245 145 247 114T255 63Q263 41 274 31T302 16Q310 14 318 13L334 11V0H246Q220 -28 207 -59T193 -132Q193 -167 210 -183T263 -204V-214Q180 -219 140 -195T99 -131Q99 -110 110 -93T139 -61T180 -31T228 0H17Z"
/>
<glyph unicode="&#x12f;" glyph-name="iogonek" horiz-adv-x="270" d="M17 0V10Q23 11 29 12T42 15Q53 20 59 27T71 51Q74 62 75 80T76 115V330Q76 340 76 349T75 368T73 383Q71 395 66 401T54 413Q47 418 38 420T21 422V433H193Q200 433 200 426Q199 413 199
397T198 358V115Q198 98 199 80T203 51Q208 34 214 27T232 15Q238 13 244 12T257 10V0H206Q180 -28 167 -59T154 -132Q154 -167 171 -183T223 -204V-214Q140 -219 100 -195T60 -131Q60 -110 70 -93T99 -60T140 -30T188 0H17ZM137 526Q110 526 90 544T70 592Q70
621 90 640T137 659Q164 659 184 640T205 592Q205 563 185 545T137 526Z" />
<glyph unicode="&#x130;" glyph-name="Idotaccent" horiz-adv-x="351" d="M245 185Q245 145 247 114T255 63Q263 41 274 31T302 16Q310 14 318 13L334 11V0H17V11Q24 12 32 13T49 16Q65 21 76 31T95 63Q102 83 104 114T107 185V473Q107 512 105 543T95 595Q88
616 77 626T49 641Q32 646 17 647V657H334V647Q317 645 302 641Q286 636 275 626T255 595Q249 575 247 544T245 473V185ZM243 779Q243 750 223 732T175 714Q148 714 129 732T109 779Q109 808 129 827T175 846Q202 846 222 828T243 779Z" />
<glyph unicode="&#x131;" glyph-name="dotlessi" horiz-adv-x="270" d="M17 0V10Q23 11 29 12T42 16Q53 21 59 28T71 52Q74 62 75 80T76 116V330Q76 340 76 349T75 368T73 383Q71 395 66 401T54 413Q47 418 38 420T21 422V433H193Q200 433 200 426Q199 413 199
397T198 358V116Q198 98 199 80T203 52Q208 35 214 28T232 16Q238 13 244 12T257 10V0H17Z" />
<glyph unicode="&#x132;" glyph-name="IJ" horiz-adv-x="770" d="M762 647Q755 646 747 645T731 641Q714 636 703 626T684 595Q677 575 675 543T672 472V209Q672 143 653 100T611 33Q585 8 551 -3T472 -14Q442 -14 412 -6T364 20Q347 37 336 58T325 109Q325 148
345 167T395 186Q426 186 442 169T460 125Q462 116 460 106T456 84Q451 70 447 59T443 42Q445 25 453 17T476 9Q494 9 504 16T523 40Q531 57 533 86T536 143V472Q536 511 534 543T525 595Q518 615 506 625T478 641Q462 645 446 647V657H762V647ZM17 0V11Q24 12
32 13T49 16Q65 21 76 31T95 63Q102 83 104 114T107 185V473Q107 512 105 543T95 595Q88 616 77 626T49 641Q32 646 17 647V657H334V647Q317 645 302 641Q286 636 275 626T255 595Q249 575 247 544T245 473V185Q245 145 247 114T255 63Q263 41 274 31T302 16Q310
14 317 13L331 11V0H17Z" />
<glyph unicode="&#x133;" glyph-name="ij" horiz-adv-x="500" d="M198 115Q198 98 199 80T203 51Q208 34 214 27T232 15Q238 13 244 12T257 10V0H17V10Q23 11 29 12T42 15Q53 20 59 27T71 51Q74 62 75 80T76 115V330Q76 340 76 349T75 368T73 383Q71 395 66 401T54
413Q47 418 38 420T21 422V433H193Q200 433 200 426Q199 413 199 397T198 358V115ZM137 526Q110 526 90 544T70 592Q70 621 90 640T137 659Q164 659 184 640T205 592Q205 563 185 545T137 526ZM387 526Q359 526 340 544T320 592Q320 621 340 640T387 659Q414 659
434 640T454 592Q454 563 434 545T387 526ZM325 314Q325 328 325 349T322 382Q320 395 316 401T304 413Q296 418 287 420T270 422V433H443Q449 433 449 426Q449 413 449 397T447 357V0Q447 -39 441 -67T425 -115T403 -150T379 -174Q365 -186 335 -199T260 -213Q234
-213 211 -207T170 -189Q150 -176 139 -156T127 -111Q127 -84 145 -66T190 -47Q219 -47 234 -64T250 -107Q250 -113 248 -121T244 -138Q239 -155 239 -164Q239 -177 245 -185T265 -194Q282 -194 292 -187T310 -166Q317 -152 321 -127T325 -72V314Z" />
<glyph unicode="&#x134;" glyph-name="Jcircumflex" horiz-adv-x="450" d="M413 708L283 771L154 708L146 716Q159 731 175 749T206 786T235 819T255 841H312Q319 834 332 819T360 786T392 750T421 716L413 708ZM216 472Q216 511 214 543T204 595Q197 615 186
625T157 641Q149 643 141 644T126 647V657H442V647Q434 646 426 645T410 641Q393 636 382 626T363 595Q356 575 354 543T351 472V209Q351 143 332 100T288 33Q262 8 228 -3T148 -14Q117 -14 87 -6T38 20Q21 37 10 58T-2 109Q-2 148 19 167T69 186Q101 186 117 169T136
125Q138 107 131 84Q127 70 124 60T120 44Q123 9 152 9Q171 9 183 16T203 40Q211 59 213 90T216 149V472Z" />
<glyph unicode="&#x135;" glyph-name="jcircumflex" horiz-adv-x="237" d="M190 426Q190 413 190 397T189 357V0Q189 -39 183 -67T166 -115T144 -150T120 -174Q106 -186 76 -199T1 -213Q-51 -213 -89 -189Q-109 -176 -120 -156T-131 -111Q-131 -84 -114 -66T-69
-47Q-39 -47 -24 -64T-9 -107Q-9 -113 -10 -121T-15 -138Q-17 -146 -18 -153T-20 -164Q-20 -177 -14 -185T6 -194Q23 -194 33 -187T51 -166Q58 -152 62 -127T67 -72V314Q67 328 66 349T63 382Q61 395 57 401T45 413Q37 418 28 420T11 422V433H184Q190 433 190 426ZM505
497L379 587L253 497L244 505Q256 522 272 546T304 595T332 639T351 668H407Q413 659 426 639T454 595T486 547T515 505L505 497Z" />
<glyph unicode="&#x136;" glyph-name="Kcommaaccent" horiz-adv-x="661" d="M412 -115Q412 -169 379 -201T289 -248L283 -234Q318 -223 339 -210T361 -177Q361 -165 352 -160Q323 -155 305 -141T286 -98Q286 -73 304 -58T345 -42Q373 -42 392 -60T412 -115ZM17
0V11L33 13Q41 14 49 16Q65 21 76 31T96 63Q102 83 104 114T107 185V473Q107 512 105 543T96 595Q88 616 77 625T49 641Q41 643 33 644T17 647V657H330V647Q316 646 301 641Q285 636 274 626T255 595Q249 575 247 544T244 473V318L414 505Q445 538 459 558T474
600Q474 617 467 626T448 640Q440 643 431 644T412 647V657H639V647Q623 645 604 638T568 619Q546 605 523 585T470 532L338 389V385Q395 380 431 366T493 328Q520 300 535 256T556 163Q560 130 565 108T578 70T592 45T608 30Q619 22 634 17T660 10V0H455Q441 14
428 50T410 136Q405 187 402 226T385 294Q375 317 360 327T318 338Q305 338 292 332T268 315Q263 310 256 302T244 289V185Q244 145 246 114T255 63Q263 41 274 31T301 16Q309 14 316 13L330 11V0H17Z" />
<glyph unicode="&#x137;" glyph-name="kcommaaccent" horiz-adv-x="504" d="M327 -106Q327 -160 294 -192T204 -239L198 -225Q233 -214 254 -201T276 -168Q276 -156 267 -151Q238 -146 220 -132T201 -89Q201 -64 219 -49T260 -33Q288 -33 307 -51T327 -106ZM257
0H15V10Q21 11 27 12T40 16Q51 21 57 28T69 52Q72 64 73 85T74 126V581Q74 591 74 600T72 619T70 634Q68 646 64 652T52 664Q44 669 35 670T18 673V684H192Q198 684 198 677Q197 667 197 647T196 595V214L298 313Q318 334 330 352T342 385Q342 394 340 401T326
414Q320 417 309 419T290 423V433H485V423Q457 418 424 398Q420 395 411 388T390 371T365 349T339 325L301 288Q348 277 376 246T415 168Q418 150 423 130T434 91T447 57T461 34Q470 24 481 19T512 11V0H347Q332 11 320 46T299 128Q291 172 279 196T241 231L196
187V126Q196 106 196 85T200 52Q205 35 212 28T230 16Q236 13 243 12T257 10V0Z" />
<glyph unicode="&#x139;" glyph-name="Lacute" horiz-adv-x="578" d="M280 847Q300 847 313 834T326 798Q326 776 308 764T264 743Q235 735 195 726T90 703L85 712Q108 731 126 746T160 773T188 795T214 816Q236 833 249 840T280 847ZM17 11Q25 12 34 13T51 17Q85
28 96 60Q105 85 107 125T110 214V444Q110 493 107 533T96 597Q90 616 78 626T50 641Q35 645 18 647V657H340V647Q332 646 324 645T308 641Q292 636 280 626T262 597Q254 573 251 533T248 444V174Q248 139 249 116T256 78Q264 52 279 40Q292 30 307 27T340 23H361Q399
23 423 36T466 70Q498 104 521 147T558 224H570L549 0H17V11Z" />
<glyph unicode="&#x13a;" glyph-name="lacute" horiz-adv-x="270" d="M488 859Q508 859 521 846T534 810Q534 788 516 776T472 755Q443 747 403 738T298 715L293 724Q316 743 334 758T368 785T396 807T422 828Q444 845 457 852T488 859ZM196 126Q196 106 196 85T201
52Q206 35 212 28T231 16Q236 13 243 12T256 10V0H15V10Q21 11 27 12T40 16Q51 21 57 28T69 52Q72 64 73 85T74 126V564Q74 578 73 600T70 634Q68 646 64 652T52 664Q45 669 36 670T18 673V684H191Q198 684 198 677Q197 664 197 648T196 608V126Z" />
<glyph unicode="&#x13b;" glyph-name="Lcommaaccent" horiz-adv-x="578" d="M374 -115Q374 -169 341 -201T251 -248L245 -234Q280 -223 301 -210T323 -177Q323 -165 314 -160Q285 -155 267 -141T248 -98Q248 -73 266 -58T307 -42Q335 -42 354 -60T374 -115ZM17
11Q25 12 34 13T51 17Q85 28 96 60Q105 85 107 125T110 214V444Q110 493 107 533T96 597Q90 616 78 626T50 641Q35 645 18 647V657H340V647Q332 646 324 645T308 641Q292 636 280 626T262 597Q254 573 251 533T248 444V174Q248 139 249 116T256 78Q264 52 279 40Q292
30 307 27T340 23H361Q399 23 423 36T466 70Q498 104 521 147T558 224H570L549 0H17V11Z" />
<glyph unicode="&#x13c;" glyph-name="lcommaaccent" horiz-adv-x="270" d="M199 -106Q199 -160 166 -192T76 -239L70 -225Q105 -214 126 -201T148 -168Q148 -156 139 -151Q110 -146 92 -132T73 -89Q73 -64 91 -49T132 -33Q160 -33 179 -51T199 -106ZM196 126Q196
106 196 85T201 52Q206 35 212 28T231 16Q236 13 243 12T256 10V0H15V10Q21 11 27 12T40 16Q51 21 57 28T69 52Q72 64 73 85T74 126V564Q74 578 73 600T70 634Q68 646 64 652T52 664Q45 669 36 670T18 673V684H191Q198 684 198 677Q197 664 197 648T196 608V126Z"
/>
<glyph unicode="&#x13d;" glyph-name="Lcaron" horiz-adv-x="578" d="M410 657H494Q476 617 452 565T407 464H394L410 657ZM17 11Q25 12 34 13T51 17Q85 28 96 60Q105 85 107 125T110 214V444Q110 493 107 533T96 597Q90 616 78 626T50 641Q35 645 18 647V657H340V647Q332
646 324 645T308 641Q292 636 280 626T262 597Q254 573 251 533T248 444V174Q248 139 249 116T256 78Q264 52 279 40Q292 30 307 27T340 23H361Q399 23 423 36T466 70Q498 104 521 147T558 224H570L549 0H17V11Z" />
<glyph unicode="&#x13e;" glyph-name="lcaron" horiz-adv-x="270" d="M250 684H334Q316 644 292 592T247 491H234L250 684ZM196 126Q196 106 196 85T201 52Q206 35 212 28T231 16Q236 13 243 12T256 10V0H15V10Q21 11 27 12T40 16Q51 21 57 28T69 52Q72 64 73
85T74 126V564Q74 578 73 600T70 634Q68 646 64 652T52 664Q45 669 36 670T18 673V684H191Q198 684 198 677Q197 664 197 648T196 608V126Z" />
<glyph unicode="&#x13f;" glyph-name="Ldot" horiz-adv-x="578" d="M17 11Q25 12 34 13T51 17Q85 28 96 60Q105 85 107 125T110 214V444Q110 493 107 533T96 597Q90 616 78 626T50 641Q35 645 18 647V657H340V647Q332 646 324 645T308 641Q292 636 280 626T262
597Q254 573 251 533T248 444V174Q248 139 249 116T256 78Q264 52 279 40Q292 30 307 27T340 23H361Q399 23 423 35T465 68Q481 84 495 103T520 141T541 180T558 214H569L549 0H17V11ZM546 353Q546 324 526 306T478 288Q451 288 432 306T412 353Q412 382 432 401T478
420Q505 420 525 401T546 353Z" />
<glyph unicode="&#x140;" glyph-name="ldot" horiz-adv-x="270" d="M363 326Q363 299 344 282T300 265Q275 265 257 282T238 326Q238 352 256 370T300 388Q324 388 343 371T363 326ZM196 126Q196 106 196 85T201 52Q206 35 212 28T231 16Q236 13 243 12T256 10V0H15V10Q21
11 27 12T40 16Q51 21 57 28T69 52Q72 64 73 85T74 126V564Q74 578 73 600T70 634Q68 646 64 652T52 664Q45 669 36 670T18 673V684H191Q198 684 198 677Q197 664 197 648T196 608V126Z" />
<glyph unicode="&#x141;" glyph-name="Lslash" horiz-adv-x="578" d="M18 251L110 288V444Q110 493 107 533T96 597Q90 616 78 626T50 641Q35 645 18 647V657H340V647Q332 646 324 645T308 641Q292 636 280 626T262 597Q254 573 251 533T248 444V344L446 424V399L248
319V174Q248 139 249 116T256 79Q263 53 279 40Q292 30 307 27T340 23H361Q399 23 423 36T466 70Q498 104 521 147T558 224H570L549 0H17V11Q25 12 34 13T51 17Q85 28 96 60Q105 85 107 125T110 214V264L18 227V251Z" />
<glyph unicode="&#x142;" glyph-name="lslash" horiz-adv-x="270" d="M10 315L74 346V564Q74 578 73 600T70 634Q68 646 64 652T52 664Q45 669 36 670T18 673V684H191Q198 684 198 677Q197 664 197 648T196 608V405L261 437V414L196 382V126Q196 106 196 85T201
52Q206 35 212 28T231 16Q236 13 243 12T256 10V0H15V10Q21 11 27 12T40 16Q51 21 57 28T69 52Q72 64 73 85T74 126V323L10 292V315Z" />
<glyph unicode="&#x143;" glyph-name="Nacute" horiz-adv-x="683" d="M473 847Q493 847 506 834T519 798Q519 776 501 764T457 743Q428 735 388 726T283 703L278 712Q301 731 319 746T353 773T381 795T407 816Q429 833 442 840T473 847ZM539 -6L160 533H156V167Q156
120 160 96T173 55Q188 25 216 17Q224 15 232 14T251 10V0H33V10Q44 12 52 13T68 17Q96 24 110 55Q118 72 123 96T129 167V442Q129 495 123 530T107 585Q99 602 83 616T47 639Q39 642 31 643T15 646V657H250L551 218H554V490Q554 537 550 561T537 602Q529 617 518
626T493 640L477 644Q469 646 458 646V657H676V646Q665 645 657 644T641 640Q628 636 617 627T599 601Q591 585 587 561T582 490V-6H539Z" />
<glyph unicode="&#x144;" glyph-name="nacute" horiz-adv-x="538" d="M411 627Q411 607 400 594T368 569Q342 553 308 536T215 486L208 493Q225 517 238 536T261 571T281 600T300 626Q318 650 331 662T364 675Q387 675 399 663T411 627ZM467 126Q467 106 468 85T472
52Q477 35 483 28T502 16Q507 13 513 12T526 10V0H291V10L303 12Q309 13 314 15Q327 21 333 29T342 55Q344 67 345 84T346 118V323Q346 349 343 363T331 387Q324 395 315 399T288 403Q277 403 265 398T241 382T220 353T207 311Q198 278 198 233V118Q198 101 198
84T201 55Q205 38 210 30T229 15Q235 13 240 12T253 10V0H17V10Q23 11 29 12T42 16Q53 21 60 27T72 51Q75 63 75 84T76 126V330Q76 340 76 349T75 368T73 383Q71 395 66 401T55 413Q47 418 38 420T21 422V433H192Q198 433 198 427Q198 424 198 413T197 387T197
360T196 343H200Q209 369 223 386T252 414Q271 428 295 435T342 443Q376 443 399 435T437 408Q451 393 459 369T467 309V126Z" />
<glyph unicode="&#x145;" glyph-name="Ncommaaccent" horiz-adv-x="683" d="M416 -115Q416 -169 383 -201T293 -248L287 -234Q322 -223 343 -210T365 -177Q365 -165 356 -160Q327 -155 309 -141T290 -98Q290 -73 308 -58T349 -42Q377 -42 396 -60T416 -115ZM539
-6L160 533H156V167Q156 120 160 96T173 55Q188 25 216 17Q224 15 232 14T251 10V0H33V10Q44 12 52 13T68 17Q96 24 110 55Q118 72 123 96T129 167V442Q129 495 123 530T107 585Q99 602 83 616T47 639Q39 642 31 643T15 646V657H250L551 218H554V490Q554 537 550
561T537 602Q529 617 518 626T493 640L477 644Q469 646 458 646V657H676V646Q665 645 657 644T641 640Q628 636 617 627T599 601Q591 585 587 561T582 490V-6H539Z" />
<glyph unicode="&#x146;" glyph-name="ncommaaccent" horiz-adv-x="538" d="M334 -106Q334 -160 301 -192T211 -239L205 -225Q240 -214 261 -201T283 -168Q283 -156 274 -151Q245 -146 227 -132T208 -89Q208 -64 226 -49T267 -33Q295 -33 314 -51T334 -106ZM467
126Q467 106 468 85T472 52Q477 35 483 28T502 16Q507 13 513 12T526 10V0H291V10L303 12Q309 13 314 15Q327 21 333 29T342 55Q344 67 345 84T346 118V323Q346 349 343 363T331 387Q324 395 315 399T288 403Q277 403 265 398T241 382T220 353T207 311Q198 278
198 233V118Q198 101 198 84T201 55Q205 38 210 30T229 15Q235 13 240 12T253 10V0H17V10Q23 11 29 12T42 16Q53 21 60 27T72 51Q75 63 75 84T76 126V330Q76 340 76 349T75 368T73 383Q71 395 66 401T55 413Q47 418 38 420T21 422V433H192Q198 433 198 427Q198
424 198 413T197 387T197 360T196 343H200Q209 369 223 386T252 414Q271 428 295 435T342 443Q376 443 399 435T437 408Q451 393 459 369T467 309V126Z" />
<glyph unicode="&#x147;" glyph-name="Ncaron" horiz-adv-x="683" d="M247 841L376 779L506 841L514 834Q501 819 485 800T454 763T425 730T405 708H348Q341 715 328 730T300 763T268 800T239 834L247 841ZM539 -6L160 533H156V167Q156 120 160 96T173 55Q188
25 216 17Q224 15 232 14T251 10V0H33V10Q44 12 52 13T68 17Q96 24 110 55Q118 72 123 96T129 167V442Q129 495 123 530T107 585Q99 602 83 616T47 639Q39 642 31 643T15 646V657H250L551 218H554V490Q554 537 550 561T537 602Q529 617 518 626T493 640L477 644Q469
646 458 646V657H676V646Q665 645 657 644T641 640Q628 636 617 627T599 601Q591 585 587 561T582 490V-6H539Z" />
<glyph unicode="&#x148;" glyph-name="ncaron" horiz-adv-x="538" d="M407 659Q395 642 379 618T347 569T318 525T299 496H243Q237 505 225 525T196 569T164 617T136 659L145 667L271 572L397 667L407 659ZM467 126Q467 106 468 85T472 52Q477 35 483 28T502 16Q507
13 513 12T526 10V0H291V10L303 12Q309 13 314 15Q327 21 333 29T342 55Q344 67 345 84T346 118V323Q346 349 343 363T331 387Q324 395 315 399T288 403Q277 403 265 398T241 382T220 353T207 311Q198 278 198 233V118Q198 101 198 84T201 55Q205 38 210 30T229
15Q235 13 240 12T253 10V0H17V10Q23 11 29 12T42 16Q53 21 60 27T72 51Q75 63 75 84T76 126V330Q76 340 76 349T75 368T73 383Q71 395 66 401T55 413Q47 418 38 420T21 422V433H192Q198 433 198 427Q198 424 198 413T197 387T197 360T196 343H200Q209 369 223
386T252 414Q271 428 295 435T342 443Q376 443 399 435T437 408Q451 393 459 369T467 309V126Z" />
<glyph unicode="&#x149;" glyph-name="napostrophe" horiz-adv-x="536" d="M319 599Q319 543 284 505T192 447L186 462Q219 476 240 493T262 531Q262 545 255 549Q228 554 211 571T193 617Q193 640 210 657T251 674Q282 674 300 655T319 599ZM467 126Q467 106
468 85T472 52Q477 35 483 28T502 16Q507 13 513 12T526 10V0H291V10L303 12Q309 13 314 15Q327 21 333 29T342 55Q344 67 345 84T346 118V323Q346 349 343 363T331 387Q324 395 315 399T288 403Q277 403 265 398T241 382T220 353T207 311Q198 278 198 233V118Q198
101 198 84T201 55Q205 38 210 30T229 15Q235 13 240 12T253 10V0H17V10Q23 11 29 12T42 16Q53 21 60 27T72 51Q75 63 75 84T76 126V330Q76 340 76 349T75 368T73 383Q71 395 66 401T55 413Q47 418 38 420T21 422V433H192Q198 433 198 427Q198 424 198 413T197
387T197 360T196 343H200Q209 369 223 386T252 414Q271 428 295 435T342 443Q376 443 399 435T437 408Q451 393 459 369T467 309V126Z" />
<glyph unicode="&#x14a;" glyph-name="Eng" horiz-adv-x="683" d="M676 646Q665 645 657 644T641 640Q628 636 617 627T599 601Q591 585 587 561T582 490V-26Q582 -107 544 -153T442 -200Q369 -200 330 -163Q295 -130 295 -80Q295 -41 316 -22T365 -2Q396 -2 413
-19T433 -63Q434 -73 432 -83T427 -105Q423 -119 419 -128T416 -144Q417 -164 426 -170T452 -176Q472 -176 490 -167T519 -145Q537 -124 545 -93T554 -26V-1L160 533H156V167Q156 120 160 96T173 55Q180 40 191 31T216 17Q224 15 232 14T251 10V0H33V10Q44 12 52
13T68 17Q96 24 110 55Q118 72 123 96T129 167V442Q129 495 123 530T107 585Q99 602 83 616T47 639Q39 642 31 643T15 646V657H250L551 228H554V490Q554 537 550 561T537 602Q529 617 518 626T493 640L477 644Q469 646 458 646V657H676V646Z" />
<glyph unicode="&#x14b;" glyph-name="eng" horiz-adv-x="508" d="M467 7Q467 -54 448 -92T406 -155Q390 -174 359 -190T281 -207Q256 -207 234 -202T195 -186Q177 -174 167 -156T156 -115Q156 -90 173 -74T215 -58Q242 -58 256 -73T271 -111Q271 -123 265 -139Q263
-146 262 -152T260 -162Q260 -173 266 -181T286 -189Q315 -189 330 -160Q337 -147 341 -122T346 -66V323Q346 349 343 363T331 387Q324 395 315 399T288 403Q277 403 265 398T241 382T220 353T207 311Q198 278 198 233V118Q198 101 198 84T201 55Q205 38 210 30T229
15Q235 13 240 12T253 10V0H17V10Q23 11 29 12T42 16Q53 21 60 27T72 51Q75 63 75 84T76 126V330Q76 340 76 349T75 368T73 383Q71 395 66 401T55 413Q47 418 38 420T21 422V433H192Q198 433 198 427Q198 424 198 413T197 387T197 360T196 343H200Q209 369 223
386T252 414Q271 428 295 435T342 443Q376 443 399 435T437 408Q451 393 459 369T467 309V7Z" />
<glyph unicode="&#x14c;" glyph-name="Omacron" horiz-adv-x="689" d="M209 718V764H478V718H209ZM344 670Q414 670 472 646T571 576T636 468T659 328Q659 251 636 188T572 80T472 11T344 -14Q274 -14 217 10T118 80T53 188T30 328Q30 405 53 468T117 576T216
645T344 670ZM344 7Q364 7 384 11T422 29Q440 44 455 67T482 125T500 210T506 328Q506 396 500 446T483 531T456 589T422 627Q403 641 384 645T344 649Q325 649 305 645T267 627Q248 612 233 589T206 531T188 446T182 328Q182 260 188 210T205 125T232 67T267 29Q285
15 305 11T344 7Z" />
<glyph unicode="&#x14d;" glyph-name="omacron" horiz-adv-x="485" d="M122 549V595H362V549H122ZM22 217Q22 270 41 312T90 383T160 427T242 443Q284 443 324 428T394 383T444 312T463 217Q463 164 444 122T395 51T324 7T242 -9Q200 -9 161 6T91 51T41 122T22
217ZM333 217Q333 362 294 406Q283 418 270 422T242 426Q229 426 216 422T191 406Q152 365 152 217Q152 70 191 28Q202 16 215 11T242 6Q256 6 269 10T294 28Q333 72 333 217Z" />
<glyph unicode="&#x14e;" glyph-name="Obreve" horiz-adv-x="689" d="M483 836Q469 769 434 737T344 705Q232 705 206 836L219 843Q243 805 275 791T344 776Q382 776 414 792T470 843L483 836ZM344 670Q414 670 472 646T571 576T636 468T659 328Q659 251 636 188T572
80T472 11T344 -14Q274 -14 217 10T118 80T53 188T30 328Q30 405 53 468T117 576T216 645T344 670ZM344 7Q364 7 384 11T422 29Q440 44 455 67T482 125T500 210T506 328Q506 396 500 446T483 531T456 589T422 627Q403 641 384 645T344 649Q325 649 305 645T267
627Q248 612 233 589T206 531T188 446T182 328Q182 260 188 210T205 125T232 67T267 29Q285 15 305 11T344 7Z" />
<glyph unicode="&#x14f;" glyph-name="obreve" horiz-adv-x="485" d="M22 217Q22 270 41 312T90 383T160 427T242 443Q284 443 324 428T394 383T444 312T463 217Q463 164 444 122T395 51T324 7T242 -9Q200 -9 161 6T91 51T41 122T22 217ZM333 217Q333 362 294
406Q283 418 270 422T242 426Q229 426 216 422T191 406Q152 365 152 217Q152 70 191 28Q202 16 215 11T242 6Q256 6 269 10T294 28Q333 72 333 217ZM364 650Q359 586 328 548T243 510Q189 510 158 548T121 650L134 655Q151 613 180 597T242 581Q277 581 305 597T350
655L364 650Z" />
<glyph unicode="&#x150;" glyph-name="Ohungarumlaut" horiz-adv-x="689" d="M405 835Q405 815 392 802T358 774Q341 762 317 748T247 707H231Q246 731 255 747T272 776T287 799T302 823Q319 848 333 860T365 872Q405 872 405 835ZM567 835Q567 815 554 802T521
774Q503 762 479 748T409 707H393L418 747Q428 763 435 776T449 799T465 823Q482 848 496 860T527 872Q567 872 567 835ZM344 670Q414 670 472 646T571 576T636 468T659 328Q659 251 636 188T572 80T472 11T344 -14Q274 -14 217 10T118 80T53 188T30 328Q30 405
53 468T117 576T216 645T344 670ZM344 7Q364 7 384 11T422 29Q440 44 455 67T482 125T500 210T506 328Q506 396 500 446T483 531T456 589T422 627Q403 641 384 645T344 649Q325 649 305 645T267 627Q248 612 233 589T206 531T188 446T182 328Q182 260 188 210T205
125T232 67T267 29Q285 15 305 11T344 7Z" />
<glyph unicode="&#x151;" glyph-name="ohungarumlaut" horiz-adv-x="485" d="M250 670Q270 670 282 658T295 624Q295 607 285 594T258 566Q237 549 210 531T137 481L128 487Q151 535 164 564T190 619Q202 644 214 657T250 670ZM417 670Q437 670 449 658T462 624Q462
607 452 594T425 566Q404 549 377 531T304 481L295 487Q307 511 316 529T332 564T345 593L357 619Q369 644 381 657T417 670ZM22 217Q22 270 41 312T90 383T160 427T242 443Q284 443 324 428T394 383T444 312T463 217Q463 164 444 122T395 51T324 7T242 -9Q200
-9 161 6T91 51T41 122T22 217ZM333 217Q333 362 294 406Q283 418 270 422T242 426Q229 426 216 422T191 406Q152 365 152 217Q152 70 191 28Q202 16 215 11T242 6Q256 6 269 10T294 28Q333 72 333 217Z" />
<glyph unicode="&#x152;" glyph-name="OE" horiz-adv-x="962" d="M916 0H345Q274 0 216 22T117 87T53 190T30 329Q30 407 52 468T116 571T216 635T345 657H896L921 457H909Q895 495 875 529T826 592Q809 609 783 622T721 635H693Q668 635 653 627Q637 617 630
600Q623 587 620 569T617 521V352H654Q675 352 689 353T713 356T730 363T744 375Q764 394 776 423T791 477H803V205H791Q788 229 777 257T747 303Q740 309 733 314T715 322T690 328T654 330H617V158Q617 127 619 106T627 70Q631 59 637 51T650 38Q661 29 677 26T710
23H731Q767 23 792 35T838 69Q870 104 891 145T927 222H938L916 0ZM344 636Q324 636 304 632T266 613Q247 598 232 577T205 522T188 442T182 329Q182 261 188 214T205 133T231 79T266 43Q284 29 304 25T344 21Q383 21 409 34T450 81T471 176T477 329Q477 417 473
476T454 570T414 621T344 636Z" />
<glyph unicode="&#x153;" glyph-name="oe" horiz-adv-x="742" d="M723 272Q723 263 723 253T721 235H460V229Q460 225 461 223Q461 151 473 111T506 48Q531 21 573 21Q603 21 624 31T661 59T687 96T704 138L719 133Q705 72 662 32T543 -9Q495 -9 455 14T392 72Q366
37 325 14T240 -9Q198 -9 159 6T90 51T41 122T22 217Q22 270 40 312T89 383T159 427T240 443Q284 443 326 422T392 363Q414 399 454 421T537 443Q585 443 619 428T677 389T711 335T723 272ZM329 217Q329 364 291 406Q280 418 267 422T240 426Q226 426 214 422T190
406Q170 386 161 338T152 217Q152 144 161 96T189 28Q200 15 213 11T240 6Q254 6 267 10T291 27Q329 70 329 217ZM607 293Q607 384 576 412Q562 425 539 425Q513 425 495 407Q480 391 472 355T461 254H576Q593 254 600 262T607 293Z" />
<glyph unicode="&#x154;" glyph-name="Racute" horiz-adv-x="654" d="M421 847Q441 847 454 834T467 798Q467 776 449 764T405 743Q376 735 336 726T231 703L226 712Q249 731 267 746T301 773T329 795T355 816Q377 833 390 840T421 847ZM293 635Q262 635 251 617Q246
608 245 593T243 559V342H295Q340 342 361 350T397 379Q410 399 415 429T421 491Q421 558 398 596T317 635H293ZM336 0H16V11Q30 11 47 16Q63 21 75 31T94 63Q101 83 103 114T105 183V475Q105 513 103 544T93 595Q86 615 75 625T47 641Q29 646 16 646V657H343Q392
657 434 647T508 617T556 566T574 492Q574 442 551 409T490 355Q475 347 453 340T401 329V325Q424 322 448 315T490 296Q513 280 531 252T559 176Q570 111 582 77T612 28Q621 20 636 16T663 10V0H463Q447 19 435 54T418 132Q413 183 406 221T379 286Q363 307 341
312T287 317H243V183Q243 145 245 114T255 63Q262 42 273 32T301 16Q309 14 319 13T336 11V0Z" />
<glyph unicode="&#x155;" glyph-name="racute" horiz-adv-x="380" d="M369 627Q369 607 358 594T326 569Q300 553 266 536T173 486L166 493Q183 517 196 536T219 571T239 600T258 626Q276 650 289 662T322 675Q345 675 357 663T369 627ZM200 330Q210 364 224 385T252
417Q264 427 281 435T322 443Q336 443 351 439T377 424Q385 416 389 404T394 371Q394 344 378 328T338 312Q313 312 301 324T281 357Q276 372 272 378T259 384Q252 384 243 376T226 352T210 315T200 266Q199 260 199 241T198 202V118Q198 100 198 84T202 54Q206
37 213 29T232 16Q238 13 245 12T260 10V0H17V10Q23 11 30 12T42 16Q54 21 60 28T71 52Q75 64 75 85T76 126V349Q76 359 76 367T74 382Q72 395 68 401T56 413Q48 418 39 420T21 423V433H192Q198 433 198 427V410Q198 396 198 380T197 348V330H200Z" />
<glyph unicode="&#x156;" glyph-name="Rcommaaccent" horiz-adv-x="654" d="M407 -115Q407 -169 374 -201T284 -248L278 -234Q313 -223 334 -210T356 -177Q356 -165 347 -160Q318 -155 300 -141T281 -98Q281 -73 299 -58T340 -42Q368 -42 387 -60T407 -115ZM293
635Q262 635 251 617Q246 608 245 593T243 559V342H295Q340 342 361 350T397 379Q410 399 415 429T421 491Q421 558 398 596T317 635H293ZM336 0H16V11Q30 11 47 16Q63 21 75 31T94 63Q101 83 103 114T105 183V475Q105 513 103 544T93 595Q86 615 75 625T47 641Q29
646 16 646V657H343Q392 657 434 647T508 617T556 566T574 492Q574 442 551 409T490 355Q475 347 453 340T401 329V325Q424 322 448 315T490 296Q513 280 531 252T559 176Q570 111 582 77T612 28Q621 20 636 16T663 10V0H463Q447 19 435 54T418 132Q413 183 406
221T379 286Q363 307 341 312T287 317H243V183Q243 145 245 114T255 63Q262 42 273 32T301 16Q309 14 319 13T336 11V0Z" />
<glyph unicode="&#x157;" glyph-name="rcommaaccent" horiz-adv-x="380" d="M194 -106Q194 -160 161 -192T71 -239L65 -225Q100 -214 121 -201T143 -168Q143 -156 134 -151Q105 -146 87 -132T68 -89Q68 -64 86 -49T127 -33Q155 -33 174 -51T194 -106ZM200 330Q210
364 224 385T252 417Q264 427 281 435T322 443Q336 443 351 439T377 424Q385 416 389 404T394 371Q394 344 378 328T338 312Q313 312 301 324T281 357Q276 372 272 378T259 384Q252 384 243 376T226 352T210 315T200 266Q199 260 199 241T198 202V118Q198 100 198
84T202 54Q206 37 213 29T232 16Q238 13 245 12T260 10V0H17V10Q23 11 30 12T42 16Q54 21 60 28T71 52Q75 64 75 85T76 126V349Q76 359 76 367T74 382Q72 395 68 401T56 413Q48 418 39 420T21 423V433H192Q198 433 198 427V410Q198 396 198 380T197 348V330H200Z"
/>
<glyph unicode="&#x158;" glyph-name="Rcaron" horiz-adv-x="654" d="M195 841L324 779L454 841L462 834Q449 819 433 800T402 763T373 730T353 708H296Q289 715 276 730T248 763T216 800T187 834L195 841ZM293 635Q262 635 251 617Q246 608 245 593T243 559V342H295Q340
342 361 350T397 379Q410 399 415 429T421 491Q421 558 398 596T317 635H293ZM336 0H16V11Q30 11 47 16Q63 21 75 31T94 63Q101 83 103 114T105 183V475Q105 513 103 544T93 595Q86 615 75 625T47 641Q29 646 16 646V657H343Q392 657 434 647T508 617T556 566T574
492Q574 442 551 409T490 355Q475 347 453 340T401 329V325Q424 322 448 315T490 296Q513 280 531 252T559 176Q570 111 582 77T612 28Q621 20 636 16T663 10V0H463Q447 19 435 54T418 132Q413 183 406 221T379 286Q363 307 341 312T287 317H243V183Q243 145 245
114T255 63Q262 42 273 32T301 16Q309 14 319 13T336 11V0Z" />
<glyph unicode="&#x159;" glyph-name="rcaron" horiz-adv-x="380" d="M368 659Q356 642 340 618T308 569T279 525T260 496H204Q198 505 186 525T157 569T125 617T97 659L106 667L232 572L358 667L368 659ZM200 330Q210 364 224 385T252 417Q264 427 281 435T322
443Q336 443 351 439T377 424Q385 416 389 404T394 371Q394 344 378 328T338 312Q313 312 301 324T281 357Q276 372 272 378T259 384Q252 384 243 376T226 352T210 315T200 266Q199 260 199 241T198 202V118Q198 100 198 84T202 54Q206 37 213 29T232 16Q238 13
245 12T260 10V0H17V10Q23 11 30 12T42 16Q54 21 60 28T71 52Q75 64 75 85T76 126V349Q76 359 76 367T74 382Q72 395 68 401T56 413Q48 418 39 420T21 423V433H192Q198 433 198 427V410Q198 396 198 380T197 348V330H200Z" />
<glyph unicode="&#x15a;" glyph-name="Sacute" horiz-adv-x="519" d="M437 454Q427 490 410 527T373 588Q353 614 325 631T253 648Q209 648 183 623T157 556Q157 522 168 500T198 463T242 437T295 412Q334 394 370 377T433 336T477 277T493 190Q493 140 474 102T423
38T349 -1T262 -14Q236 -14 210 -9T162 6T121 28T93 52H89L58 4H48L41 231H54Q66 188 85 148T131 77T190 27T264 8Q294 8 315 17T349 41T369 76T375 120Q375 146 368 166T343 203T299 235T232 266Q198 280 164 298T103 342T58 403T41 486Q41 526 58 560T103 618T170
656T252 670Q300 670 336 655T391 618H394L423 656H436L449 454H437ZM355 847Q375 847 388 834T401 798Q401 776 383 764T339 743Q310 735 270 726T165 703L160 712Q183 731 201 746T235 773T263 795T289 816Q311 833 324 840T355 847Z" />
<glyph unicode="&#x15b;" glyph-name="sacute" horiz-adv-x="378" d="M333 627Q333 607 322 594T290 569Q264 553 230 536T137 486L130 493Q147 517 160 536T183 571T203 600T222 626Q240 650 253 662T286 675Q309 675 321 663T333 627ZM356 134Q356 100 344 74T310
29T259 1T196 -9Q166 -9 133 1T77 32H73L43 1H34L29 161H40Q47 129 62 101T99 52T145 19T196 7Q231 7 247 21T263 71Q263 103 236 122T159 162Q136 171 113 183T72 212T42 253T30 312Q30 339 41 362T72 404T121 432T184 443Q199 443 214 440T243 433T268 421T286
407H289L311 434H320L324 305H313Q300 357 266 390Q249 407 228 416T184 425Q158 425 140 411T122 367Q122 334 147 315T219 278Q247 267 272 255T315 227T345 188T356 134Z" />
<glyph unicode="&#x15c;" glyph-name="Scircumflex" horiz-adv-x="519" d="M389 708L259 771L130 708L122 716Q135 731 151 749T182 786T211 819T231 841H288Q295 834 308 819T336 786T368 750T397 716L389 708ZM437 454Q427 490 410 527T373 588Q353 614 325
631T253 648Q209 648 183 623T157 556Q157 522 168 500T198 463T242 437T295 412Q334 394 370 377T433 336T477 277T493 190Q493 140 474 102T423 38T349 -1T262 -14Q236 -14 210 -9T162 6T121 28T93 52H89L58 4H48L41 231H54Q66 188 85 148T131 77T190 27T264
8Q294 8 315 17T349 41T369 76T375 120Q375 146 368 166T343 203T299 235T232 266Q198 280 164 298T103 342T58 403T41 486Q41 526 58 560T103 618T170 656T252 670Q300 670 336 655T391 618H394L423 656H436L449 454H437Z" />
<glyph unicode="&#x15d;" glyph-name="scircumflex" horiz-adv-x="378" d="M317 497L191 587L65 497L56 505Q68 522 84 546T116 595T144 639T163 668H219Q225 659 238 639T266 595T298 547T327 505L317 497ZM356 134Q356 100 344 74T310 29T259 1T196 -9Q166 -9
133 1T77 32H73L43 1H34L29 161H40Q47 129 62 101T99 52T145 19T196 7Q231 7 247 21T263 71Q263 103 236 122T159 162Q136 171 113 183T72 212T42 253T30 312Q30 339 41 362T72 404T121 432T184 443Q199 443 214 440T243 433T268 421T286 407H289L311 434H320L324
305H313Q300 357 266 390Q249 407 228 416T184 425Q158 425 140 411T122 367Q122 334 147 315T219 278Q247 267 272 255T315 227T345 188T356 134Z" />
<glyph unicode="&#x15e;" glyph-name="Scedilla" horiz-adv-x="519" d="M437 454Q427 490 410 527T373 588Q353 614 325 631T253 648Q209 648 183 623T157 556Q157 522 168 500T198 463T242 437T295 412Q334 394 370 377T433 336T477 277T493 190Q493 140 474
102T423 38T349 -1T262 -14Q236 -14 210 -9T162 6T121 28T93 52H89L58 4H48L41 231H54Q66 188 85 148T131 77T190 27T264 8Q294 8 315 17T349 41T369 76T375 120Q375 146 368 166T343 203T299 235T232 266Q198 280 164 298T103 342T58 403T41 486Q41 526 58 560T103
618T170 656T252 670Q300 670 336 655T391 618H394L423 656H436L449 454H437ZM345 144Q345 121 336 106T310 81T274 67T231 63Q210 63 187 69T151 83L158 94Q169 89 184 86T215 82Q241 82 258 96T275 143Q275 171 263 183T235 196Q227 196 219 194T205 185L189
192L208 255H228L213 206Q221 211 234 214T258 217Q300 217 322 198T345 144Z" />
<glyph unicode="&#x15f;" glyph-name="scedilla" horiz-adv-x="378" d="M356 134Q356 100 344 74T310 29T259 1T196 -9Q166 -9 133 1T77 32H73L43 1H34L29 161H40Q47 129 62 101T99 52T145 19T196 7Q231 7 247 21T263 71Q263 103 236 122T159 162Q136 171 113
183T72 212T42 253T30 312Q30 339 41 362T72 404T121 432T184 443Q199 443 214 440T243 433T268 421T286 407H289L311 434H320L324 305H313Q300 357 266 390Q249 407 228 416T184 425Q158 425 140 411T122 367Q122 334 147 315T219 278Q247 267 272 255T315 227T345
188T356 134ZM276 144Q276 121 267 106T241 81T205 67T162 63Q141 63 118 69T82 83L89 94Q100 89 115 86T146 82Q172 82 189 96T206 143Q206 171 194 183T166 196Q158 196 150 194T136 185L120 192L139 255H159L144 206Q152 211 165 214T189 217Q231 217 253 198T276
144Z" />
<glyph unicode="&#x160;" glyph-name="Scaron" horiz-adv-x="519" d="M130 841L259 779L389 841L397 834Q384 819 368 800T337 763T308 730T288 708H231Q224 715 211 730T183 763T151 800T122 834L130 841ZM437 454Q427 490 410 527T373 588Q353 614 325 631T253
648Q209 648 183 623T157 556Q157 522 168 500T198 463T242 437T295 412Q334 394 370 377T433 336T477 277T493 190Q493 140 474 102T423 38T349 -1T262 -14Q236 -14 210 -9T162 6T121 28T93 52H89L58 4H48L41 231H54Q66 188 85 148T131 77T190 27T264 8Q294 8
315 17T349 41T369 76T375 120Q375 146 368 166T343 203T299 235T232 266Q198 280 164 298T103 342T58 403T41 486Q41 526 58 560T103 618T170 656T252 670Q300 670 336 655T391 618H394L423 656H436L449 454H437Z" />
<glyph unicode="&#x161;" glyph-name="scaron" horiz-adv-x="378" d="M320 659Q308 642 292 618T260 569T231 525T212 496H156Q150 505 138 525T109 569T77 617T49 659L58 667L184 572L310 667L320 659ZM356 134Q356 100 344 74T310 29T259 1T196 -9Q166 -9 133
1T77 32H73L43 1H34L29 161H40Q47 129 62 101T99 52T145 19T196 7Q231 7 247 21T263 71Q263 103 236 122T159 162Q136 171 113 183T72 212T42 253T30 312Q30 339 41 362T72 404T121 432T184 443Q199 443 214 440T243 433T268 421T286 407H289L311 434H320L324 305H313Q300
357 266 390Q249 407 228 416T184 425Q158 425 140 411T122 367Q122 334 147 315T219 278Q247 267 272 255T315 227T345 188T356 134Z" />
<glyph unicode="&#x162;" glyph-name="Tcommaaccent" horiz-adv-x="612" d="M371 -115Q371 -169 338 -201T248 -248L242 -234Q277 -223 298 -210T320 -177Q320 -165 311 -160Q282 -155 264 -141T245 -98Q245 -73 263 -58T304 -42Q332 -42 351 -60T371 -115ZM375
183Q375 145 377 114T386 63Q393 42 405 32T433 16Q441 14 448 13T464 11V0H148V11Q155 12 163 13T179 16Q195 21 207 31T226 63Q233 83 235 114T237 183V635H210Q178 635 153 622T99 580Q70 550 51 514T18 449H6L32 657H580L606 449H594Q580 478 561 513T513 578Q463
635 401 635H375V183Z" />
<glyph unicode="&#x163;" glyph-name="tcommaaccent" horiz-adv-x="313" d="M233 -106Q233 -160 200 -192T110 -239L104 -225Q139 -214 160 -201T182 -168Q182 -156 173 -151Q144 -146 126 -132T107 -89Q107 -64 125 -49T166 -33Q194 -33 213 -51T233 -106ZM314
57Q300 33 269 12T193 -9Q129 -9 97 19Q79 35 72 56T65 106V131Q65 152 65 182T66 248T67 315T68 372T69 409Q58 411 39 411T9 412V426Q70 438 110 481T174 606H192V433H291V408H192L188 96Q188 69 198 51T240 33Q260 33 277 41T306 66L314 57Z" />
<glyph unicode="&#x164;" glyph-name="Tcaron" horiz-adv-x="612" d="M176 841L305 779L435 841L443 834Q430 819 414 800T383 763T354 730T334 708H277Q270 715 257 730T229 763T197 800T168 834L176 841ZM375 183Q375 145 377 114T386 63Q393 42 405 32T433
16Q441 14 448 13T464 11V0H148V11Q155 12 163 13T179 16Q195 21 207 31T226 63Q233 83 235 114T237 183V635H210Q178 635 153 622T99 580Q70 550 51 514T18 449H6L32 657H580L606 449H594Q580 478 561 513T513 578Q463 635 401 635H375V183Z" />
<glyph unicode="&#x165;" glyph-name="tcaron" horiz-adv-x="313" d="M255 685H339Q321 645 297 593T252 492H239L255 685ZM314 57Q300 33 269 12T193 -9Q129 -9 97 19Q79 35 72 56T65 106V131Q65 152 65 182T66 248T67 315T68 372T69 409Q58 411 39 411T9 412V426Q70
438 110 481T174 606H192V433H291V408H192L188 96Q188 69 198 51T240 33Q260 33 277 41T306 66L314 57Z" />
<glyph unicode="&#x166;" glyph-name="Tbar" horiz-adv-x="612" d="M594 449Q580 478 561 513T513 578Q463 635 401 635H375V403H503V376H375V183Q375 145 377 114T386 63Q393 42 405 32T433 16Q441 14 448 13T464 11V0H148V11Q155 12 163 13T179 16Q195 21 207
31T226 63Q233 83 235 114T237 183V376H110V403H237V635H210Q178 635 153 622T99 580Q70 550 51 514T18 449H6L32 657H580L606 449H594Z" />
<glyph unicode="&#x167;" glyph-name="tbar" horiz-adv-x="313" d="M9 330H67Q68 353 68 372Q69 398 69 409Q58 411 39 411T9 412V426Q70 438 110 481T174 606H192V433H291V408H192L191 330H291V308H190L188 96Q188 69 198 51T240 33Q260 33 277 41T306 66L314
57Q300 33 269 12T193 -9Q129 -9 97 19Q79 35 72 56T65 106V131Q65 152 65 182T66 248Q67 279 67 308H9V330Z" />
<glyph unicode="&#x168;" glyph-name="Utilde" horiz-adv-x="667" d="M571 222Q571 177 564 141T540 75Q520 40 473 14T345 -13Q306 -13 271 -8T206 11T153 47T116 101Q110 114 106 132T100 170T96 210T94 245V475Q94 513 92 544T83 595Q77 616 65 626T37 641Q29
643 21 644T6 647V657H322V646Q308 646 290 641Q274 636 263 626T244 595Q237 575 235 544T233 475V204Q233 179 235 154T246 107Q263 61 296 42T377 22Q427 22 465 41T520 95Q543 141 543 217V491Q543 538 538 562T525 603Q518 618 507 627T482 640Q467 646 446
647V657H666V647Q646 644 631 640Q618 636 607 627T588 602Q580 586 576 562T571 491V222ZM534 832Q530 811 523 791T505 753T476 726T436 715Q419 715 400 719T361 729T324 738T293 743Q273 743 258 735T231 703L219 707Q224 727 232 747T252 783T280 810T317
820Q333 820 352 816T390 807T427 797T457 793Q483 793 497 802T521 835L534 832Z" />
<glyph unicode="&#x169;" glyph-name="utilde" horiz-adv-x="523" d="M66 316Q66 332 65 352T62 383Q57 406 42 416Q34 420 25 421T8 423V433H183Q190 433 190 425Q189 414 189 383T188 317V111Q188 67 203 46Q211 35 222 30T248 25Q274 25 298 54T328 134Q330
151 330 165T331 200V323Q331 338 331 353T328 380Q324 405 308 415Q301 419 291 421T273 423V433H447Q454 433 454 425Q454 414 454 385T453 320V115Q453 100 453 83T456 54Q460 28 478 18Q484 14 493 13T511 10V0H494Q481 0 463 0T423 -1T383 -2T352 -3H339Q334
-3 334 2V25Q333 26 333 35V83H330Q320 59 312 46T286 18Q269 4 246 -2T200 -9Q171 -9 144 -2T98 26Q82 43 74 69T66 127V316ZM407 648Q403 628 396 607T377 568T349 540T309 529Q292 529 275 533T243 542T212 552T184 556Q162 556 146 547T119 513L106 516Q112
536 120 557T140 595T168 622T205 633Q220 633 236 629T268 620T298 611T326 607Q352 607 367 616T394 650L407 648Z" />
<glyph unicode="&#x16a;" glyph-name="Umacron" horiz-adv-x="667" d="M571 222Q571 177 564 141T540 75Q520 40 473 14T345 -13Q306 -13 271 -8T206 11T153 47T116 101Q110 114 106 132T100 170T96 210T94 245V475Q94 513 92 544T83 595Q77 616 65 626T37 641Q29
643 21 644T6 647V657H322V646Q308 646 290 641Q274 636 263 626T244 595Q237 575 235 544T233 475V204Q233 179 235 154T246 107Q263 61 296 42T377 22Q427 22 465 41T520 95Q543 141 543 217V491Q543 538 538 562T525 603Q518 618 507 627T482 640Q467 646 446
647V657H666V647Q646 644 631 640Q618 636 607 627T588 602Q580 586 576 562T571 491V222ZM238 718V764H507V718H238Z" />
<glyph unicode="&#x16b;" glyph-name="umacron" horiz-adv-x="523" d="M66 316Q66 332 65 352T62 383Q57 406 42 416Q34 420 25 421T8 423V433H183Q190 433 190 425Q189 414 189 383T188 317V111Q188 67 203 46Q211 35 222 30T248 25Q274 25 298 54T328 134Q330
151 330 165T331 200V323Q331 338 331 353T328 380Q324 405 308 415Q301 419 291 421T273 423V433H447Q454 433 454 425Q454 414 454 385T453 320V115Q453 100 453 83T456 54Q460 28 478 18Q484 14 493 13T511 10V0H494Q481 0 463 0T423 -1T383 -2T352 -3H339Q334
-3 334 2V25Q333 26 333 35V83H330Q320 59 312 46T286 18Q269 4 246 -2T200 -9Q171 -9 144 -2T98 26Q82 43 74 69T66 127V316ZM136 549V595H376V549H136Z" />
<glyph unicode="&#x16c;" glyph-name="Ubreve" horiz-adv-x="667" d="M571 222Q571 177 564 141T540 75Q520 40 473 14T345 -13Q306 -13 271 -8T206 11T153 47T116 101Q110 114 106 132T100 170T96 210T94 245V475Q94 513 92 544T83 595Q77 616 65 626T37 641Q29
643 21 644T6 647V657H322V646Q308 646 290 641Q274 636 263 626T244 595Q237 575 235 544T233 475V204Q233 179 235 154T246 107Q263 61 296 42T377 22Q427 22 465 41T520 95Q543 141 543 217V491Q543 538 538 562T525 603Q518 618 507 627T482 640Q467 646 446
647V657H666V647Q646 644 631 640Q618 636 607 627T588 602Q580 586 576 562T571 491V222ZM511 836Q497 769 462 737T372 705Q260 705 234 836L247 843Q271 805 303 791T372 776Q410 776 442 792T498 843L511 836Z" />
<glyph unicode="&#x16d;" glyph-name="ubreve" horiz-adv-x="523" d="M66 316Q66 332 65 352T62 383Q57 406 42 416Q34 420 25 421T8 423V433H183Q190 433 190 425Q189 414 189 383T188 317V111Q188 67 203 46Q211 35 222 30T248 25Q274 25 298 54T328 134Q330
151 330 165T331 200V323Q331 338 331 353T328 380Q324 405 308 415Q301 419 291 421T273 423V433H447Q454 433 454 425Q454 414 454 385T453 320V115Q453 100 453 83T456 54Q460 28 478 18Q484 14 493 13T511 10V0H494Q481 0 463 0T423 -1T383 -2T352 -3H339Q334
-3 334 2V25Q333 26 333 35V83H330Q320 59 312 46T286 18Q269 4 246 -2T200 -9Q171 -9 144 -2T98 26Q82 43 74 69T66 127V316ZM378 650Q373 586 342 548T257 510Q203 510 172 548T135 650L148 655Q165 613 194 597T256 581Q291 581 319 597T364 655L378 650Z" />
<glyph unicode="&#x16e;" glyph-name="Uring" horiz-adv-x="667" d="M571 222Q571 177 564 141T540 75Q520 40 473 14T345 -13Q306 -13 271 -8T206 11T153 47T116 101Q110 114 106 132T100 170T96 210T94 245V475Q94 513 92 544T83 595Q77 616 65 626T37 641Q29
643 21 644T6 647V657H322V646Q308 646 290 641Q274 636 263 626T244 595Q237 575 235 544T233 475V204Q233 179 235 154T246 107Q263 61 296 42T377 22Q427 22 465 41T520 95Q543 141 543 217V491Q543 538 538 562T525 603Q518 618 507 627T482 640Q467 646 446
647V657H666V647Q646 644 631 640Q618 636 607 627T588 602Q580 586 576 562T571 491V222ZM468 766Q468 727 443 704T383 681Q367 681 352 686T325 703T306 730T299 766Q299 805 324 827T383 850Q399 850 414 845T441 828T460 802T468 766ZM441 765Q441 795 424
811T383 828Q359 828 342 812T325 766Q325 736 341 720T382 704Q407 704 424 719T441 765Z" />
<glyph unicode="&#x16f;" glyph-name="uring" horiz-adv-x="523" d="M341 590Q341 552 316 529T256 505Q240 505 225 511T198 528T179 554T172 590Q172 630 197 652T256 675Q272 675 287 670T314 653T333 626T341 590ZM314 590Q314 620 297 636T256 653Q232 653
215 637T198 590Q198 561 214 545T255 529Q280 529 297 544T314 590ZM66 316Q66 332 65 352T62 383Q57 406 42 416Q34 420 25 421T8 423V433H183Q190 433 190 425Q189 414 189 383T188 317V111Q188 67 203 46Q211 35 222 30T248 25Q274 25 298 54T328 134Q330 151
330 165T331 200V323Q331 338 331 353T328 380Q324 405 308 415Q301 419 291 421T273 423V433H447Q454 433 454 425Q454 414 454 385T453 320V115Q453 100 453 83T456 54Q460 28 478 18Q484 14 493 13T511 10V0H494Q481 0 463 0T423 -1T383 -2T352 -3H339Q334 -3
334 2V25Q333 26 333 35V83H330Q320 59 312 46T286 18Q269 4 246 -2T200 -9Q171 -9 144 -2T98 26Q82 43 74 69T66 127V316Z" />
<glyph unicode="&#x170;" glyph-name="Uhungarumlaut" horiz-adv-x="667" d="M433 835Q433 815 420 802T386 774Q369 762 345 748T275 707H259Q274 731 283 747T300 776T315 799T330 823Q347 848 361 860T393 872Q433 872 433 835ZM595 835Q595 815 582 802T549
774Q531 762 507 748T437 707H421L446 747Q456 763 463 776T477 799T493 823Q510 848 524 860T555 872Q595 872 595 835ZM571 222Q571 177 564 141T540 75Q520 40 473 14T345 -13Q306 -13 271 -8T206 11T153 47T116 101Q110 114 106 132T100 170T96 210T94 245V475Q94
513 92 544T83 595Q77 616 65 626T37 641Q29 643 21 644T6 647V657H322V646Q308 646 290 641Q274 636 263 626T244 595Q237 575 235 544T233 475V204Q233 179 235 154T246 107Q263 61 296 42T377 22Q427 22 465 41T520 95Q543 141 543 217V491Q543 538 538 562T525
603Q518 618 507 627T482 640Q467 646 446 647V657H666V647Q646 644 631 640Q618 636 607 627T588 602Q580 586 576 562T571 491V222Z" />
<glyph unicode="&#x171;" glyph-name="uhungarumlaut" horiz-adv-x="523" d="M66 316Q66 332 65 352T62 383Q57 406 42 416Q34 420 25 421T8 423V433H183Q190 433 190 425Q189 414 189 383T188 317V111Q188 67 203 46Q211 35 222 30T248 25Q274 25 298 54T328
134Q330 151 330 165T331 200V323Q331 338 331 353T328 380Q324 405 308 415Q301 419 291 421T273 423V433H447Q454 433 454 425Q454 414 454 385T453 320V115Q453 100 453 83T456 54Q460 28 478 18Q484 14 493 13T511 10V0H494Q481 0 463 0T423 -1T383 -2T352
-3H339Q334 -3 334 2V25Q333 26 333 35V83H330Q320 59 312 46T286 18Q269 4 246 -2T200 -9Q171 -9 144 -2T98 26Q82 43 74 69T66 127V316ZM264 670Q284 670 296 658T309 624Q309 607 299 594T272 566Q251 549 224 531T151 481L142 487Q165 535 178 564T204 619Q216
644 228 657T264 670ZM431 670Q451 670 463 658T476 624Q476 607 466 594T439 566Q418 549 391 531T318 481L309 487Q321 511 330 529T346 564T359 593L371 619Q383 644 395 657T431 670Z" />
<glyph unicode="&#x172;" glyph-name="Uogonek" horiz-adv-x="667" d="M277 -131Q277 -112 287 -95T316 -63T359 -34Q383 -20 409 -6Q394 -10 378 -11Q361 -13 345 -13Q306 -13 271 -8T206 11T153 47T116 101Q110 114 106 132T100 170T96 210T94 245V475Q94 513
92 544T83 595Q77 616 65 626T37 641Q29 643 21 644T6 647V657H322V646Q308 646 290 641Q274 636 263 626T244 595Q237 575 235 544T233 475V204Q233 179 235 154T246 107Q263 61 296 42T377 22Q427 22 465 41T520 95Q543 141 543 217V491Q543 538 538 562T525
603Q518 618 507 627T482 640Q467 646 446 647V657H666V647Q646 644 631 640Q618 636 607 627T588 602Q580 586 576 562T571 491V222Q571 177 564 141T540 75Q529 56 514 42T479 17Q425 -12 398 -45T371 -132Q371 -167 388 -183T441 -204V-214Q358 -219 318 -195T277
-131Z" />
<glyph unicode="&#x173;" glyph-name="uogonek" horiz-adv-x="523" d="M365 -214Q282 -219 242 -195T202 -131Q202 -110 213 -94T243 -62T285 -34T333 -8V83H330Q320 59 312 46T286 18Q269 4 246 -2T200 -9Q171 -9 144 -2T98 26Q82 43 74 69T66 127V316Q66 332
65 352T62 383Q57 406 42 416Q34 420 25 421T8 423V433H183Q190 433 190 425Q189 414 189 383T188 317V111Q188 67 203 46Q211 35 222 30T248 25Q274 25 298 54T328 134Q330 151 330 165T331 200V323Q331 338 331 353T328 380Q324 405 308 415Q301 419 291 421T273
423V433H447Q454 433 454 425Q454 414 454 385T453 320V115Q453 100 453 83T456 54Q460 28 478 18Q484 14 493 13T511 10V0H495Q482 0 467 0T439 -1H425Q384 -2 359 -14T320 -45T301 -87T296 -132Q296 -167 313 -183T365 -204V-214Z" />
<glyph unicode="&#x174;" glyph-name="Wcircumflex" horiz-adv-x="935" d="M633 708L503 771L374 708L366 716Q379 731 395 749T426 786T455 819T475 841H532Q539 834 552 819T580 786T612 750T641 716L633 708ZM469 482L312 -4H256L115 479Q104 518 95 544T75
589T51 618T20 637Q11 641 1 643T-17 647V657H311V646Q285 642 265 630T245 588Q245 568 249 549T262 501L345 194H349L455 529Q435 591 414 612Q400 629 384 636T349 647V657H675V646Q662 644 649 641T625 631T607 614T600 588Q600 568 605 548T617 501L699 194H704L801
506Q809 530 813 551T817 587Q817 603 811 614T796 632T773 642T745 646V657H948V646Q922 642 904 633T868 596Q860 582 851 562T831 506L667 -4H610L469 482Z" />
<glyph unicode="&#x175;" glyph-name="wcircumflex" horiz-adv-x="661" d="M493 497L367 587L241 497L232 505Q244 522 260 546T292 595T320 639T339 668H395Q401 659 414 639T442 595T474 547T503 505L493 497ZM331 295L229 -3H172L72 297Q61 327 52 354T29 393Q21
404 16 409T2 418Q-2 421 -7 422T-17 423V433H227V423Q217 422 209 421T195 415Q182 405 182 385Q182 372 185 359T195 323L252 129H255Q257 136 266 164T287 226T308 289T320 325Q315 341 310 354T302 375Q295 391 289 399T274 414Q261 423 247 423V433H488V423Q480
422 471 421T455 416Q440 406 440 383Q440 369 444 354T456 316L510 129H512L574 312Q583 339 586 353T589 385Q589 397 584 404T572 416Q565 420 558 421T543 423V433H680V423Q673 422 666 421T651 414Q639 409 627 391Q621 380 614 363T596 316L487 -3H430L331
295Z" />
<glyph unicode="&#x176;" glyph-name="Ycircumflex" horiz-adv-x="640" d="M112 543Q98 569 86 587T62 618T34 637T-1 647V657H318V647Q309 645 298 644T280 639Q249 627 251 599T271 532L375 324H380L471 507Q487 539 494 559T501 598Q501 615 494 624T473 639Q465
642 454 644T434 647V657H642V647Q618 643 600 634T565 608T532 566T498 504L392 288V185Q392 145 394 114T403 62Q410 42 421 32T449 16Q457 14 465 13T481 11V0H164V11L180 13Q188 14 196 16Q212 21 224 31T243 62Q250 82 252 113T254 185V269L112 543ZM490 708L360
771L231 708L223 716Q236 731 252 749T283 786T312 819T332 841H389Q396 834 409 819T437 786T469 750T498 716L490 708Z" />
<glyph unicode="&#x177;" glyph-name="ycircumflex" horiz-adv-x="431" d="M219 -72Q208 -101 194 -127T165 -173Q131 -213 76 -213Q42 -213 19 -195T-5 -142Q-5 -120 9 -106T48 -91Q70 -91 82 -100T103 -129Q111 -144 115 -153T131 -162Q145 -162 161 -139T195
-73Q199 -63 204 -49T210 -32Q211 -28 211 -21T207 -5L89 297Q78 328 69 347T54 377Q46 391 40 399T23 413Q16 418 7 420T-10 423V433H245V423Q237 422 228 421T213 416Q197 406 197 385Q197 371 202 356T215 316L277 139H279L343 312Q353 338 356 353T360 384Q360
397 355 404T342 416Q334 420 327 421T312 423V433H455V423Q438 421 424 413T399 388Q393 378 386 362T368 316Q359 291 346 255T317 180T286 99T257 24T233 -36T219 -72ZM381 497L255 587L129 497L120 505Q132 522 148 546T180 595T208 639T227 668H283Q289 659
302 639T330 595T362 547T391 505L381 497Z" />
<glyph unicode="&#x178;" glyph-name="Ydieresis" horiz-adv-x="640" d="M112 543Q98 569 86 587T62 618T34 637T-1 647V657H318V647Q309 645 298 644T280 639Q249 627 251 599T271 532L375 324H380L471 507Q487 539 494 559T501 598Q501 615 494 624T473 639Q465
642 454 644T434 647V657H642V647Q618 643 600 634T565 608T532 566T498 504L392 288V185Q392 145 394 114T403 62Q410 42 421 32T449 16Q457 14 465 13T481 11V0H164V11L180 13Q188 14 196 16Q212 21 224 31T243 62Q250 82 252 113T254 185V269L112 543ZM249 837Q275
837 293 819T311 776Q311 750 293 732T249 714Q223 714 206 732T188 775Q188 800 205 818T249 837ZM471 837Q497 837 515 819T533 776Q533 750 515 732T471 714Q445 714 428 732T410 775Q410 800 427 818T471 837Z" />
<glyph unicode="&#x179;" glyph-name="Zacute" horiz-adv-x="579" d="M404 847Q424 847 437 834T450 798Q450 776 432 764T388 743Q359 735 319 726T214 703L209 712Q232 731 250 746T284 773T312 795T338 816Q360 833 373 840T404 847ZM552 646L198 28H262Q295
28 320 31T366 40T403 55T436 76Q459 94 475 111T505 145T529 180T552 216H565L520 0H23V11L391 628H306Q254 628 215 616T151 586Q125 567 99 532T48 459H35L73 657H552V646Z" />
<glyph unicode="&#x17a;" glyph-name="zacute" horiz-adv-x="409" d="M353 627Q353 607 342 594T310 569Q284 553 250 536T157 486L150 493Q167 517 180 536T203 571T223 600T242 626Q260 650 273 662T306 675Q329 675 341 663T353 627ZM366 0H17V8L236 412V416H153Q132
416 115 403T87 377Q85 375 78 366T62 342T43 312T25 280H12L48 433H374V422L160 20V17H235Q264 17 284 29T318 61Q321 64 331 79T353 112T373 145T385 164H397L366 0Z" />
<glyph unicode="&#x17b;" glyph-name="Zdotaccent" horiz-adv-x="579" d="M552 646L198 28H262Q295 28 320 31T366 40T403 55T436 76Q459 94 475 111T505 145T529 180T552 216H565L520 0H23V11L391 628H306Q254 628 215 616T151 586Q125 567 99 532T48 459H35L73
657H552V646ZM375 779Q375 750 355 732T307 714Q280 714 261 732T241 779Q241 808 261 827T307 846Q334 846 354 828T375 779Z" />
<glyph unicode="&#x17c;" glyph-name="zdotaccent" horiz-adv-x="409" d="M366 0H17V8L236 412V416H153Q132 416 115 403T87 377Q85 375 78 366T62 342T43 312T25 280H12L48 433H374V422L160 20V17H235Q264 17 284 29T318 61Q321 64 331 79T353 112T373 145T385
164H397L366 0ZM212 526Q185 526 165 544T145 592Q145 621 165 640T212 659Q239 659 259 640T280 592Q280 563 260 545T212 526Z" />
<glyph unicode="&#x17d;" glyph-name="Zcaron" horiz-adv-x="579" d="M178 841L307 779L437 841L445 834Q432 819 416 800T385 763T356 730T336 708H279Q272 715 259 730T231 763T199 800T170 834L178 841ZM552 646L198 28H262Q295 28 320 31T366 40T403 55T436
76Q459 94 475 111T505 145T529 180T552 216H565L520 0H23V11L391 628H306Q254 628 215 616T151 586Q125 567 99 532T48 459H35L73 657H552V646Z" />
<glyph unicode="&#x17e;" glyph-name="zcaron" horiz-adv-x="409" d="M349 659Q337 642 321 618T289 569T260 525T241 496H185Q179 505 167 525T138 569T106 617T78 659L87 667L213 572L339 667L349 659ZM366 0H17V8L236 412V416H153Q132 416 115 403T87 377Q85
375 78 366T62 342T43 312T25 280H12L48 433H374V422L160 20V17H235Q264 17 284 29T318 61Q321 64 331 79T353 112T373 145T385 164H397L366 0Z" />
<glyph unicode="&#x192;" glyph-name="florin" horiz-adv-x="431" d="M477 584Q477 554 461 542T422 529Q394 529 381 543T367 578Q366 589 370 604T372 630Q371 647 352 647Q344 647 334 642T315 619Q299 590 284 546T251 424H344L338 401H246Q237 365 227 319T204
222T177 121T147 23Q115 -76 53 -129T-84 -182Q-137 -182 -170 -159T-204 -97Q-204 -81 -199 -71T-186 -54T-169 -45T-151 -42Q-125 -42 -113 -57T-99 -91Q-98 -103 -100 -115T-101 -139Q-99 -149 -95 -154T-78 -160Q-60 -160 -42 -143T-10 -91Q11 -32 27 30T57
154T84 279T111 401H41L46 424H117Q122 444 125 454T133 481Q149 528 175 563T231 621T294 655T357 666Q411 666 444 644T477 584Z" />
<glyph unicode="&#x1fa;" glyph-name="Aringacute" horiz-adv-x="616" d="M250 477H246L164 241H327L250 477ZM-14 11Q-2 13 8 15T29 24Q39 30 48 39T67 64Q75 78 84 99T104 152L288 662H335L487 211Q504 158 519 121T548 60Q559 43 570 34T595 19Q615 12 629
11V0H302V11Q312 13 322 15T340 20Q355 26 364 36T374 69Q374 90 368 111T354 157L335 218H156L132 148Q124 124 120 106T116 73Q116 52 125 39T149 20Q159 16 170 14T190 11V0H-14V11ZM404 1031Q424 1031 437 1018T450 982Q450 960 432 948T388 927Q359 919 319
910T214 887L209 896Q232 915 250 930T284 957T312 979T338 1000Q360 1017 373 1024T404 1031ZM393 787Q393 748 368 725T308 702Q292 702 277 707T250 724T231 751T224 787Q224 826 249 848T308 871Q324 871 339 866T366 849T385 823T393 787ZM366 786Q366 816
349 832T308 849Q284 849 267 833T250 787Q250 757 266 741T307 725Q332 725 349 740T366 786Z" />
<glyph unicode="&#x1fb;" glyph-name="aringacute" horiz-adv-x="438" d="M339 -9Q292 -9 273 7Q265 13 260 25T254 58H250Q239 26 210 9T136 -9Q114 -9 93 -3T56 17T31 52T21 102Q21 125 28 141T49 173Q69 194 99 203T158 221Q210 237 229 256T250 296V312Q250
322 250 332T251 352V367Q251 401 241 413T201 425Q184 425 176 420T162 409Q157 402 155 386T151 350Q148 299 97 299Q74 299 60 311T45 346Q45 359 49 370T62 390Q71 401 86 410T120 427T160 438T204 442Q279 442 325 417T372 330V290Q372 261 372 227T371 158V103Q371
68 373 53T381 29Q391 19 406 19Q413 19 421 21T434 25L436 15Q429 8 402 0T339 -9ZM249 254Q240 242 229 235T203 220Q186 211 177 202T160 181Q153 169 150 149T146 106Q146 64 159 47T195 29Q213 29 229 48T248 101L249 254ZM302 830Q302 792 277 769T217 745Q201
745 186 751T159 768T140 794T133 830Q133 870 158 892T217 915Q233 915 248 910T275 893T294 866T302 830ZM275 830Q275 860 258 876T217 893Q193 893 176 877T159 830Q159 801 175 785T216 769Q241 769 258 784T275 830ZM316 1083Q336 1083 349 1070T362 1034Q362
1012 344 1000T300 979Q271 971 231 962T126 939L121 948Q144 967 162 982T196 1009T224 1031T250 1052Q272 1069 285 1076T316 1083Z" />
<glyph unicode="&#x1fc;" glyph-name="AEacute" horiz-adv-x="885" d="M693 847Q713 847 726 834T739 798Q739 776 721 764T677 743Q648 735 608 726T503 703L498 712Q521 731 539 746T573 773T601 795T627 816Q649 833 662 840T693 847ZM316 0V10Q332 12 348
16Q364 21 375 31T394 63Q401 83 403 114T406 185V234H195L151 154Q142 138 134 114T126 73Q126 52 134 39T157 20Q167 16 178 14T198 11V0H-14V11Q7 14 25 26T59 57T90 103T123 158L382 616Q371 633 348 640Q340 643 331 644T315 646V657H817L841 457H829Q815
495 795 529T746 592Q729 609 703 622T641 635H619Q604 635 591 632T569 619Q551 603 547 575T543 521V352H576Q597 352 611 353T635 356T652 363T666 375Q686 394 698 423T713 477H725V205H713Q710 229 699 257T669 303Q656 315 637 322T576 330H543V158Q543 143
543 127T546 94T554 65T569 43Q581 32 598 28T636 23H655Q692 23 716 36T761 70Q792 105 814 145T850 222H861L839 0H316ZM406 470Q406 509 404 539T395 591L208 257H406V470Z" />
<glyph unicode="&#x1fd;" glyph-name="aeacute" horiz-adv-x="660" d="M493 627Q493 607 482 594T450 569Q424 553 390 536T297 486L290 493Q307 517 320 536T343 571T363 600T382 626Q400 650 413 662T446 675Q469 675 481 663T493 627ZM142 -9Q120 -9 98 -3T59
17T31 52T20 102Q20 125 27 141T48 173Q68 194 98 203T157 222Q209 237 228 256T250 297V312Q250 322 250 332T251 352V367Q251 401 241 413T201 425Q171 425 161 409Q156 402 154 387T150 351Q148 299 96 299Q73 299 59 311T45 347Q45 372 61 390Q71 402 87 412T122
428T163 438T204 442Q245 442 277 430T329 393Q352 416 387 429T454 443Q500 443 534 429T592 390T628 335T641 270Q641 262 641 252T639 234H377Q377 157 389 114T422 48Q447 21 489 21Q519 21 541 31T579 59T605 97T622 139L637 133Q623 73 580 32T461 -9Q421
-9 384 3T318 38Q290 62 273 94Q259 38 223 15T142 -9ZM525 293Q525 376 500 407Q483 425 456 425Q429 425 411 407Q396 391 388 354T377 254H494Q511 254 518 262T525 293ZM249 254Q240 242 228 235T202 220Q185 211 176 202T159 181Q152 169 149 149T145 107Q145
65 158 47T194 28Q215 28 230 47T248 102L249 254Z" />
<glyph unicode="&#x1fe;" glyph-name="Oslashacute" horiz-adv-x="689" d="M344 670Q414 670 472 645Q487 639 500 631L551 718L571 706L520 619Q548 601 571 576Q613 531 636 468T659 328Q659 251 636 188T572 80T472 11T344 -14Q274 -14 216 10Q195 19 176 31L123
-59L104 -48L157 44Q136 60 117 80Q76 125 53 188T30 328Q30 405 53 468T117 576T216 645T344 670ZM344 7Q364 7 384 11T422 29Q440 44 455 67T482 125T500 210T506 328Q506 396 500 446T482 531Q480 539 477 546L215 98Q223 80 232 67Q248 44 267 29Q285 15 305
11T344 7ZM455 589Q440 612 422 627Q403 641 384 645T344 649Q325 649 305 645T267 627Q248 612 233 589T206 531T188 446T182 328Q182 260 188 210T205 125L465 571Q461 581 455 589ZM441 847Q461 847 474 834T487 798Q487 776 469 764T425 743Q396 735 356 726T251
703L246 712Q269 731 287 746T321 773T349 795T375 816Q397 833 410 840T441 847Z" />
<glyph unicode="&#x1ff;" glyph-name="oslashacute" horiz-adv-x="485" d="M22 217Q22 270 41 312T90 383T160 427T242 443Q284 443 324 427L359 507L378 498L343 419Q371 404 394 383Q425 354 444 312T463 217Q463 164 444 122T395 51T324 7T242 -9Q200 -9 161
6L126 -75L106 -66L141 14Q113 29 90 51Q60 80 41 122T22 217ZM294 406Q283 418 270 422T242 426Q229 426 216 422T191 406Q152 365 152 217Q152 123 167 73L306 387Q301 398 294 406ZM333 217Q333 309 317 360L179 45Q184 35 191 28Q202 16 215 11T242 6Q256 6
269 10T294 28Q333 72 333 217ZM383 627Q383 607 372 594T340 569Q314 553 280 536T187 486L180 493Q197 517 210 536T233 571T253 600T272 626Q290 650 303 662T336 675Q359 675 371 663T383 627Z" />
<glyph unicode="&#x218;" glyph-name="Scommaaccent" horiz-adv-x="519" d="M316 141Q316 87 283 55T193 8L187 22Q222 33 243 46T265 79Q265 91 256 96Q227 101 209 115T190 158Q190 183 208 198T249 214Q277 214 296 196T316 141ZM437 454Q427 490 410 527T373
588Q353 614 325 631T253 648Q209 648 183 623T157 556Q157 522 168 500T198 463T242 437T295 412Q334 394 370 377T433 336T477 277T493 190Q493 140 474 102T423 38T349 -1T262 -14Q236 -14 210 -9T162 6T121 28T93 52H89L58 4H48L41 231H54Q66 188 85 148T131
77T190 27T264 8Q294 8 315 17T349 41T369 76T375 120Q375 146 368 166T343 203T299 235T232 266Q198 280 164 298T103 342T58 403T41 486Q41 526 58 560T103 618T170 656T252 670Q300 670 336 655T391 618H394L423 656H436L449 454H437Z" />
<glyph unicode="&#x219;" glyph-name="scommaaccent" horiz-adv-x="378" d="M247 -106Q247 -160 214 -192T124 -239L118 -225Q153 -214 174 -201T196 -168Q196 -156 187 -151Q158 -146 140 -132T121 -89Q121 -64 139 -49T180 -33Q208 -33 227 -51T247 -106ZM356
134Q356 100 344 74T310 29T259 1T196 -9Q166 -9 133 1T77 32H73L43 1H34L29 161H40Q47 129 62 101T99 52T145 19T196 7Q231 7 247 21T263 71Q263 103 236 122T159 162Q136 171 113 183T72 212T42 253T30 312Q30 339 41 362T72 404T121 432T184 443Q199 443 214
440T243 433T268 421T286 407H289L311 434H320L324 305H313Q300 357 266 390Q249 407 228 416T184 425Q158 425 140 411T122 367Q122 334 147 315T219 278Q247 267 272 255T315 227T345 188T356 134Z" />
<glyph unicode="&#x21a;" glyph-name="uni021A" horiz-adv-x="612" d="M371 -115Q371 -169 338 -201T248 -248L242 -234Q277 -223 298 -210T320 -177Q320 -165 311 -160Q282 -155 264 -141T245 -98Q245 -73 263 -58T304 -42Q332 -42 351 -60T371 -115ZM375 183Q375
145 377 114T386 63Q393 42 405 32T433 16Q441 14 448 13T464 11V0H148V11Q155 12 163 13T179 16Q195 21 207 31T226 63Q233 83 235 114T237 183V635H210Q178 635 153 622T99 580Q70 550 51 514T18 449H6L32 657H580L606 449H594Q580 478 561 513T513 578Q463 635
401 635H375V183Z" />
<glyph unicode="&#x21b;" glyph-name="uni021B" horiz-adv-x="313" d="M233 -106Q233 -160 200 -192T110 -239L104 -225Q139 -214 160 -201T182 -168Q182 -156 173 -151Q144 -146 126 -132T107 -89Q107 -64 125 -49T166 -33Q194 -33 213 -51T233 -106ZM314 57Q300
33 269 12T193 -9Q129 -9 97 19Q79 35 72 56T65 106V131Q65 152 65 182T66 248T67 315T68 372T69 409Q58 411 39 411T9 412V426Q70 438 110 481T174 606H192V433H291V408H192L188 96Q188 69 198 51T240 33Q260 33 277 41T306 66L314 57Z" />
<glyph unicode="&#x237;" glyph-name="uni0237" horiz-adv-x="237" d="M188 426Q188 413 188 397T187 357V0Q187 -39 181 -67T164 -115T142 -150T118 -174Q104 -186 74 -199T-1 -213Q-53 -213 -91 -189Q-111 -176 -122 -156T-133 -111Q-133 -84 -116 -66T-71 -47Q-41
-47 -26 -64T-11 -107Q-11 -113 -12 -121T-17 -138Q-19 -146 -20 -153T-22 -164Q-22 -177 -16 -185T4 -194Q21 -194 31 -187T49 -166Q56 -152 60 -127T65 -72V314Q65 328 64 349T61 382Q59 395 55 401T43 413Q35 418 26 420T9 422V433H182Q188 433 188 426Z" />
<glyph unicode="&#x2c6;" glyph-name="circumflex" horiz-adv-x="365" d="M308 497L182 587L56 497L47 505Q59 522 75 546T107 595T135 639T154 668H210Q216 659 229 639T257 595T289 547T318 505L308 497Z" />
<glyph unicode="&#x2c7;" glyph-name="caron" horiz-adv-x="365" d="M318 659Q306 642 290 618T258 569T229 525T210 496H154Q148 505 136 525T107 569T75 617T47 659L56 667L182 572L308 667L318 659Z" />
<glyph unicode="&#x2d8;" glyph-name="breve" horiz-adv-x="364" d="M306 650Q301 586 270 548T185 510Q131 510 100 548T63 650L76 655Q93 613 122 597T184 581Q219 581 247 597T292 655L306 650Z" />
<glyph unicode="&#x2d9;" glyph-name="dotaccent" horiz-adv-x="293" d="M146 526Q119 526 99 544T79 592Q79 621 99 640T146 659Q173 659 193 640T214 592Q214 563 194 545T146 526Z" />
<glyph unicode="&#x2da;" glyph-name="ring" horiz-adv-x="310" d="M240 590Q240 552 215 529T155 505Q139 505 124 511T97 528T78 554T71 590Q71 630 96 652T155 675Q171 675 186 670T213 653T232 626T240 590ZM213 590Q213 620 196 636T155 653Q131 653 114
637T97 590Q97 561 113 545T154 529Q179 529 196 544T213 590Z" />
<glyph unicode="&#x2db;" glyph-name="ogonek" horiz-adv-x="270" d="M208 -214Q125 -219 85 -195T45 -131Q45 -110 56 -93T87 -60T132 -30T183 0H201Q169 -29 154 -61T139 -132Q139 -167 156 -183T208 -204V-214Z" />
<glyph unicode="&#x2dc;" glyph-name="tilde" horiz-adv-x="387" d="M344 648Q340 628 333 607T314 568T286 540T246 529Q229 529 212 533T180 542T149 552T121 556Q99 556 83 547T56 513L43 516Q49 536 57 557T77 595T105 622T142 633Q157 633 173 629T205 620T235
611T263 607Q289 607 304 616T331 650L344 648Z" />
<glyph unicode="&#x2dd;" glyph-name="hungarumlaut" horiz-adv-x="427" d="M166 670Q186 670 198 658T211 624Q211 607 201 594T174 566Q153 549 126 531T53 481L44 487Q67 535 80 564T106 619Q118 644 130 657T166 670ZM333 670Q353 670 365 658T378 624Q378
607 368 594T341 566Q320 549 293 531T220 481L211 487Q223 511 232 529T248 564T261 593L273 619Q285 644 297 657T333 670Z" />
</font>
</defs>
</svg>
