<?xml version="1.0" standalone="no"?>
<!DOCTYPE svg PUBLIC "-//W3C//DTD SVG 1.1//EN" "http://www.w3.org/Graphics/SVG/1.1/DTD/svg11.dtd" >
<svg xmlns="http://www.w3.org/2000/svg" xmlns:xlink="http://www.w3.org/1999/xlink" version="1.1">
<metadata></metadata>
<defs>
<font id="payson_wfbold" horiz-adv-x="794" >
<font-face units-per-em="2048" ascent="1536" descent="-512" />
<missing-glyph horiz-adv-x="1140" />
<glyph horiz-adv-x="0" />
<glyph horiz-adv-x="682" />
<glyph unicode=" "  horiz-adv-x="1140" />
<glyph unicode="&#x09;" horiz-adv-x="1140" />
<glyph unicode="&#xa0;" horiz-adv-x="1140" />
<glyph unicode="!" horiz-adv-x="602" d="M76 217v33q0 2 12 32.5t12 39.5l27 38q54 74 145 78h23q129 0 194 -104l27 -45q0 -6 6 -32.5t6 -33.5v-20q0 -42 -12 -66l-27 -55q-4 -3 -26 -24t-27 -25l-53 -29q-29 -8 -88 -8h-41q-56 0 -98.5 38t-61 87.5t-18.5 95.5zM104 575v832q25 49 62 49h307q11 0 16 -13.5 t5 -27.5v-852q-2 -4 -11 -11t-14 -7h-342q-4 0 -12 12q-1 2 -3.5 6t-5 7.5t-2.5 4.5z" />
<glyph unicode="&#x22;" horiz-adv-x="1011" d="M66 817v10q0 17 6 23l39 121q0 1 4 13t4 13l18 58q0 3 6.5 24t6.5 23l53 162q6 36 20 71.5t25 54t12 17.5l8 -2q8 -2 13 -2q9 0 23.5 11t23.5 11t21 -12t22 -12q9 0 17 9t15 9l3 -4l6 -8q2 0 7 -3t7 -3q13 0 28.5 12t26.5 12q31 -12 92 -12q0 -29 -15.5 -76.5t-31 -82.5 t-47.5 -101t-41 -86q-9 -19 -34 -85t-48 -110.5t-51 -72.5q-7 0 -47.5 -3t-116.5 -3q-37 0 -56 4.5t-19 19.5zM479 813v18q10 35 32.5 96t36 105t13.5 70q1 3 7 32t7 31l21 47q0 11 8 35l19 78q19 63 34 86l11 8q6 0 13.5 -5t12.5 -5t10.5 5t10.5 5q0 -3 18 -7.5t29 -4.5 q16 8 37 8h18q49 0 76 -4q1 0 9.5 -4t15.5 -4q6 0 16 2l10 2q6 0 6 -10v-45q-37 -101 -164 -408l-51 -125l-20 -20h-199q-27 6 -33 8z" />
<glyph unicode="#" horiz-adv-x="1443" d="M31 350l65 133h2l6 11l21 34l25 19h210q8 30 20 59.5t31 69t25 53.5l58 141q-187 3 -236 35l66 158q8 8 43 8l6 2h202l132 313l24 23q20 10 31 10l149 -4q0 -31 4 -31q0 -29 -9.5 -50t-10.5 -31l-29 -72l-4 -11q-5 -10 -9.5 -25.5t-4.5 -27.5h2l-41 -94h145l76 184 l60 134l12 12q27 16 39 16l145 -10l4 -8h29l-78 -182v2l-8 -25q-19 -55 -47 -123h4q8 0 12 2h8l9 2h84q20 0 31 -1t27.5 -6t27.5 -18t18 -34l-10 -31l-49 -104q1 -3 -5 -5t-15.5 -3t-20 -2t-20 -3t-13.5 -4h-176l-111 -272q-4 -18 -22 -45h120q20 0 31.5 -1t29 -5t30.5 -14 t22 -27q0 -27 -12 -45l-41 -78q-2 -5 -6 -10t-10.5 -9.5t-10.5 -7.5t-12.5 -7t-9.5 -5v4q-9 -6 -13 -6q-7 0 -10 6q-8 0 -20 -6h-13q-4 0 -8 1l-4 1h-147q-15 -33 -29 -80l-21 -43h5l-56 -141q-14 -9 -14 -51l-25 -5q-17 -7 -49 -12.5t-43 -5.5q-1 0 -4 -1t-6 -1h-37 q-25 0 -38 17.5t-13 31.5q0 8 10 43v4q0 2 2 8v9q0 4 3 10.5t11.5 23t16.5 35.5q4 13 8 19l45 114v-2l10 25l2 2h-10q-1 0 -3.5 2t-4.5 2q-3 0 -37.5 -2t-54.5 -2h-43l-29 -84l-26 -57q-3 -17 -23.5 -59.5t-26.5 -63.5l-2 -4q0 -2 -3 -10t-3 -13v-22l-20 -2 q-17 -8 -51.5 -15.5t-49.5 -7.5h-18q-2 0 -3.5 -1t-2.5 -1h-25q-27 0 -40 17t-13 30q0 9 12 41l-2 2q0 2 6.5 9.5t16 28.5t14.5 54l29 78q0 9 6.5 23t18 33.5t16.5 29.5q-32 0 -89 2t-87 2h-80zM586 547h153l135 323h-155l-111 -276z" />
<glyph unicode="$" horiz-adv-x="1241" d="M43 143v68l20 57l64 131q0 9 13 14t20 5q33 0 86 -51q77 -53 184 -78q24 -8 31 -8h47q5 0 9 2t6.5 7t4 9.5l4.5 13.5l5 15v178q0 50 -29 65q-157 0 -283 78l-39 25q-5 8 -30 32.5t-35 32.5q0 2 -4.5 11t-7.5 12q-54 105 -54 180q0 18 2 36t3.5 30.5t7 32t7.5 26.5 t11 28.5t10.5 25t12.5 28t12 25.5l35 55q3 5 28.5 30t36.5 33l39 27l39 33q1 0 6 2.5t11.5 5.5t9.5 4l69 27q38 0 82.5 17t44.5 44v150q0 5 9.5 10.5t32 9.5t54.5 4h21q82 0 82 -33v-163q7 0 10 -6t7.5 -13.5t30.5 -13.5t71 -6l49 -15q22 0 47 -8t63 -24t66 -25 q10 0 18 -10.5t13 -10.5v-14q0 -20 -5.5 -40.5t-15.5 -45.5t-14 -37q0 -20 -15 -67t-38 -66h-25q-4 2 -23.5 11.5t-27.5 13t-26.5 12.5t-28.5 13.5t-26.5 11.5t-27.5 10.5t-24 8t-23 6t-18 1.5q-49 0 -49 -110q0 -12 2 -36t2 -32v-41q0 -14 26.5 -30.5t44.5 -16.5 q38 0 72 -11.5t41 -11.5l19 -7q18 -7 51 -22t61 -32l33 -18q52 -31 87 -95.5t50 -136.5v-162q0 -7 -6 -32t-6 -33l-23 -62q-45 -113 -90 -135l-45 -35q-14 -7 -38.5 -19t-36.5 -18t-29.5 -13.5t-32 -12.5t-29.5 -8l-82 -13q-8 -2 -22 -4.5t-18.5 -5.5t-8.5 -10l-4 -12v-232 q0 -7 -11.5 -22t-19.5 -15h-143q-12 0 -21.5 11.5t-9.5 23.5v17q0 9 3 88t3 88v4q-5 43 -26.5 58.5t-71 20.5t-72.5 13q-5 0 -25 4l-20 4l-53 21q-66 24 -74 28l-104 51q-6 0 -22.5 14t-16.5 25zM362 963q11 -15 17 -21l51 -53q7 -1 32 -6.5t38 -5.5q11 0 17.5 6t9.5 17.5 t4 23.5l2.5 30t3.5 31v78q-2 8 -4 18t-3 16t-3 12t-4.5 8.5t-6.5 2.5h-39q-56 0 -98 -65q-1 0 -3.5 -7t-6.5 -15t-7 -11v-59zM403 -66l3 3q4 3 6.5 5.5t3.5 4.5q0 -1 3 -3.5t5 -2.5v-21l-8 -6q0 2 -6 7t-7 7v6zM717 399q0 -28 10 -98q0 -20 27 -20h13h14.5t13 0.5t14 2 t12 3.5t13 5.5t10.5 8.5l41 37q0 4 2.5 11t5.5 14.5t4 9.5v33q0 78 -43 100q-7 0 -12.5 5t-10.5 10.5t-23.5 10.5t-49.5 5h-10q-31 0 -31 -131v-7z" />
<glyph unicode="%" horiz-adv-x="1667" d="M57 1040v125q21 132 121 211.5t234 79.5q71 0 125 -20l24 -13q47 -28 74 -53l37 -39q19 -10 47.5 -64t28.5 -106v-121q-7 -18 -9 -22l-12 -33q-38 -91 -78 -125l-55 -47q-12 -22 -75.5 -36.5t-115.5 -14.5h-30q-18 0 -33.5 3t-37.5 9t-42 10l-110 76l-27 29 q-51 70 -66 151zM326 1102q0 -80 80 -80h20q7 0 32 21.5t25 31.5v60q-1 0 -10.5 19.5t-15.5 19.5l-27 14l-24 8h-11q0 -2 -8 -5t-15 -5.5t-5 -5.5l-29 -27q-12 -12 -12 -51zM332 12q0 5 14 45l70 138q6 10 44.5 90t43.5 88q38 86 100 210t82 169q21 42 21 47l100 196 q0 4 8 18.5t18 31t11 18.5q10 16 20 45.5t13 36.5q5 9 22.5 45t18.5 43l24 59q13 19 28.5 48.5t26.5 51t13 23.5q0 15 235 15h6q45 0 45 -29q0 -7 -17.5 -46.5t-41 -88.5t-25.5 -54l-92 -184q-3 -8 -16 -38t-17 -34l-53 -106q-70 -140 -78 -164q-16 -16 -30.5 -51t-14.5 -45 l-71 -152q-17 -33 -46.5 -101t-45.5 -101l-54 -105q-11 -21 -25.5 -58.5t-25 -57t-20.5 -19.5q-27 -3 -120 -6.5t-124 -3.5h-6q-13 0 -27 7.5t-14 18.5zM889 356q0 4 7.5 13.5t14.5 29t7 47.5l20 37q29 57 82 103.5t113 66.5q8 3 24 8t28 8.5t13 4.5h14q94 -12 144 -12 l59 -21q2 -1 13.5 -6.5t13.5 -5.5l41 -35q50 -42 89 -116t40 -140q0 -59 -12.5 -114t-40.5 -106.5t-69.5 -89t-104.5 -60.5t-140 -23q-83 0 -145 28q-54 31 -60 31q-147 110 -147 311v33q-4 2 -4 8zM1163 309q0 -54 15 -69l41 -25l20 -4q36 0 68 20.5t32 63.5 q0 44 -23.5 71.5t-58.5 32.5h-18q-32 0 -54 -21.5t-22 -68.5z" />
<glyph unicode="&#x26;" horiz-adv-x="1560" d="M63 309v119q5 23 7 31l26 78l7 9q7 10 19.5 27t27 34.5t32.5 35t33 27.5l33 18q34 19 39 19l75 41q5 1 11 6.5t6 7.5v4q0 7 -4 15.5t-8 13.5t-12 14t-9 10l-33 62q-2 2 -10 14.5t-8 13.5l-14 35q-10 22 -15 39t-6.5 25.5t-3 27.5t-2.5 31v29q0 159 145 262l45 33l64 32 q5 5 65.5 13t98.5 8h22q14 -2 33.5 -4t26.5 -3t18 -3t18.5 -4.5t16.5 -6.5q0 2 8 2q7 0 27 -7t22 -7q0 -3 14.5 -8.5t31.5 -11t20 -7.5l65 -38q2 -3 9.5 -10.5t13.5 -10.5l14 -27q4 -4 14 -18t18.5 -26t10.5 -13q0 -10 16.5 -41t16.5 -49v-143q0 -37 -41 -103l-12 -20 l-33 -41q-18 -16 -80 -78q-1 -3 -23.5 -13t-29.5 -12l-4 -6v-41q2 -10 4 -10l45 -55l94 -92q11 -9 33 -9l14 2l156 160q3 2 9.5 6t11 7.5t5.5 3.5h21q1 0 11.5 -7t13.5 -10l98 -100q5 -4 22.5 -24t18.5 -21v-19q0 -5 -24.5 -29.5t-55.5 -58.5t-43 -59q-4 0 -15 -6 t-23.5 -21.5t-12.5 -34.5q0 -16 38.5 -57.5t110 -111t103.5 -103.5v-41q-38 -8 -52 -8h-14q-6 0 -62 2t-61 2h-186l-17 4l-106 109h-12q-13 0 -26.5 -6t-31.5 -19t-22 -16q-24 -24 -77.5 -47.5t-104.5 -38.5q-5 0 -31.5 -10t-66.5 -19.5t-77 -9.5h-129q-1 0 -41 8l-69 18 l-53 27q-19 5 -54 33l-26 20q-5 6 -22 21t-29.5 28t-12.5 21l-41 67q-14 28 -23.5 66t-9.5 53zM416 393l14 -39l53 -73l54 -31q9 -9 35.5 -18t45.5 -9h11q1 0 14 4t28 6.5t31 2.5q0 2 9 7.5t16 6.5l35 20q1 3 11.5 14.5t10.5 16.5v21q0 12 -30 55t-68 74l-78 86 q-3 6 -14.5 14.5t-21.5 14.5l-11 5h-20l-16 -9q-42 -20 -42 -25q-4 0 -20 -20t-31.5 -50.5t-15.5 -52.5v-21zM582 1102q0 -36 15 -84.5t32 -67.5l39 -41l18 -12h41q6 6 22.5 14t22.5 15q10 6 18.5 16t20.5 31t14 24q2 0 8 9t11.5 25t5.5 32v33q0 54 -45.5 87.5t-99.5 33.5 q-9 0 -27 -5t-40.5 -15.5t-39 -30.5t-16.5 -46v-18z" />
<glyph unicode="'" horiz-adv-x="583" d="M49 938v6q0 19 9.5 49.5t27.5 75t23 59.5q0 4 5 26.5t7 25.5l39 139q0 15 4 32t8.5 29t18 43t22.5 54l18 32l19 21h41q6 0 13 -5l7 -5l4 4h-2q128 10 181 10h34q19 -21 19 -31l2 -6l-13 -41q-13 -42 -31.5 -89.5t-31.5 -59.5l-37 -99l-74 -170q-9 -35 -33 -79t-34 -44 h-223q-2 1 -9 1t-10.5 4.5t-3.5 17.5z" />
<glyph unicode="(" horiz-adv-x="591" d="M70 535v278q0 22 2.5 47t5 45.5t9 50.5t10 47.5t13 51t13 46.5t14.5 49.5t13 45.5l14 43q7 26 30 73.5t29 61.5q2 5 20 40t19 42q0 7 21.5 36.5t21.5 37.5q14 14 23 21t25 12.5t36 5.5h92q3 -3 6.5 -4.5t6 -2t4.5 -2t2 -4.5v-26q-9 -34 -31 -81t-39.5 -80t-17.5 -38 q-5 -16 -27 -81.5t-35 -108.5t-22 -80q-10 -43 -22 -126t-19 -118v-256q0 -63 13.5 -140t27 -127.5t39.5 -137.5l34 -119l45 -107l60 -116v-9q0 -22 -29 -22h-127q-21 3 -35 19.5t-25.5 39.5t-19.5 31l-30 57l-17 50q0 4 -12 28l-25 51l-28 84q-88 262 -88 392z" />
<glyph unicode=")" horiz-adv-x="593" d="M88 -178q0 21 14.5 54t36.5 75t31 63l12 29l35 107q0 15 16.5 54t16.5 56q18 0 34.5 147.5t16.5 237.5q0 196 -27.5 356t-97.5 340q-82 177 -80 179v12q12 14 46 25.5t61 11.5q66 0 102 -78l53 -102q1 -1 11 -27t26 -59.5t31 -51.5l37 -127q7 -23 12 -49t10.5 -60 t8.5 -50q1 -1 6.5 -25t5.5 -29q1 -2 2 -5q7 -14 9 -76q1 -23 3 -97q3 -105 6 -182v-16q0 -16 -5.5 -43.5t-6.5 -40.5q-42 -212 -59 -265q-4 -6 -10.5 -23.5t-6.5 -25.5q-2 -2 -11 -18t-9 -17l-17 -53q-1 -2 -4 -9t-5.5 -13t-2.5 -7l-76 -153l-43 -62l-8 -4q-2 0 -14 -12 q-36 -6 -78 -6h-20q-19 0 -30 1.5t-21.5 11t-10.5 26.5z" />
<glyph unicode="*" horiz-adv-x="862" d="M43 1102q0 9 12 49q6 11 11.5 39.5t17.5 41.5t43 13h16l88 -47v2l35 -14q0 -1 7.5 -5.5t9.5 -4.5l71 -33q0 42 -4 69v27q-16 36 -16 117v43q26 26 69 26h15h12h15t16.5 -0.5t18.5 -2.5t16.5 -4t16.5 -6.5t12 -10t9 -13.5t3 -18q0 -17 -9 -35l-4 -22v2q-3 -2 -3 -11.5 t-3 -13.5v2l-16 -159l55 22l25 16l24 9q29 13 56.5 29t43 25t25.5 11q37 0 45 -16l23 -43q4 -8 4 -12l2 -3q12 -54 12 -84q0 -24 -36 -39.5t-64 -17.5l-144 -24l-22 -9q13 -11 31.5 -31t23.5 -24l2 -2q8 -10 113 -115q14 -27 14 -39q0 -24 -20 -38h2l-43 -35l-66 -31 q-18 0 -24 2l-15 -4l-12 18v-4l-8 19l-33 51q-3 0 -6.5 4.5t-3.5 7.5h2q-2 4 -2 8l-45 86l-23 35q-2 -2 -4 -2l-4 2q-16 -8 -16 -31l-15 -20v4l-22 -43l-4 -8l-19 -45q-2 -3 -7.5 -12.5t-8.5 -13.5t-8.5 -12.5t-9 -13t-9 -11t-10 -10t-10 -7t-11.5 -5t-12 -1.5q-5 0 -43 22 t-49 33v-2l-35 35v22q0 25 31 64l141 147q-4 6 -47 11l-28 10h-7l-10 4q-7 0 -17.5 2.5t-15.5 3.5l-38 4q-30 4 -49.5 9t-38.5 20.5t-19 40.5zM362 1112q0 -7 3 -11t5 -5h3h12l-2 10l29 6l-35 37l-4 -37h-11zM373 1108h4l-4 2l4 2v-4l6 4l-2 -10l2 -2q-4 -4 -6 -4v4z M377 1112v6l6 -6h-6z" />
<glyph unicode="+" horiz-adv-x="866" d="M27 592v137q0 6 14.5 22.5t15.5 18.5h258v145q0 5 -2 33t-2 33q0 3 2 29t2 30h7q0 8 1.5 9.5t10.5 1.5v4h174q29 -4 37 -25.5t8 -56.5v-35q0 -84 -2 -168h143q6 0 34.5 1t33.5 1t31.5 -1t31.5 -1v-8q5 0 5.5 -1t0.5 -9h9v-179q-4 -16 -12 -26t-22.5 -13.5t-24 -4.5 t-27.5 -1h-203q0 -215 -4 -239q0 -41 -53 -41h-140q-6 0 -22 11.5t-17 12.5v258q-236 8 -243 9q-45 0 -45 53z" />
<glyph unicode="," horiz-adv-x="638" d="M49 -164q0 4 14 39l19 53q5 8 27 63.5t26 67.5l41 117q0 2 6 17t6 18l33 84q19 59 32 75q13 15 34 23h258q69 -10 69 -14l-8 -19q-16 -43 -78 -157l-178 -336q0 -4 -14.5 -32.5t-18.5 -29.5q-5 -18 -18.5 -32t-30.5 -17h-145q-49 0 -74 21v59z" />
<glyph unicode="-" d="M96 338v270q0 7 4.5 20t8.5 13q3 0 16.5 2t15.5 2q13 0 22 -1t12 -2t6.5 -3t4.5 -2q0 2 4 7t5 5h10q11 0 40.5 -2.5t33.5 -5.5h14q10 10 39 10q6 0 19.5 -1t19.5 -1q14 0 20 4l98 -4q5 0 14 -10t13 -10h6q7 0 21 8t26 8q5 0 22 -8t23 -8h27l10 -4h23q12 0 18 4q1 0 8 -18 t7 -21v-242q0 -4 -3.5 -8t-11 -9.5t-10.5 -8.5h-344q-44 -7 -178 -7q-49 0 -64 23z" />
<glyph unicode="." horiz-adv-x="569" d="M70 137v99q0 17 31.5 74t66.5 69l31 14l18 6h31q1 0 15.5 3.5t15.5 3.5h59q33 -13 45 -21q0 -1 19.5 -13.5t39 -30.5t19.5 -32q10 -10 26.5 -52t16.5 -85v-35q-4 -14 -10 -18l-11 -37q2 0 -19 -24t-49 -48t-44 -24l-56 -13h-28q-76 10 -102.5 20t-63.5 48l-21 25l-24 53z " />
<glyph unicode="/" horiz-adv-x="870" d="M18 2q0 20 19.5 58t34.5 87l73 154l514 1151l4 6q4 6 9 9t12 3h123l-2 -6l2 2q1 -1 2.5 -4.5t3 -6.5t2.5 -3q-34 -65 -74 -162l-69 -157q-5 -7 -24 -45.5t-23 -49.5l-252 -565l-4 -12q-20 -47 -56.5 -130.5t-66 -152.5t-53.5 -131q-6 -3 -13.5 -14.5t-7.5 -14.5v-6 q-37 -24 -119 -24q-35 0 -35 14z" />
<glyph unicode="0" horiz-adv-x="1318" d="M72 670v159q0 12 5 57.5t5 55.5t14.5 60.5t14.5 60.5l26 57q0 1 6.5 16.5t6.5 16.5q22 59 67 116t96 87l21 14q7 3 22.5 13t28 18t14.5 8q0 8 62.5 26.5t75.5 18.5q29 8 43 9t69 1q64 0 113 -10l22 -2q29 -16 60 -16q15 -4 24 -6t19 -5.5t13.5 -5t14 -7t14.5 -8 t19.5 -12.5t24.5 -16l16 -12q64 -44 127 -131q3 -6 12 -20.5t17 -26t8 -12.5l41 -91q3 -5 7.5 -21.5t4.5 -23.5l13 -51q0 -2 3.5 -14.5t6.5 -16.5q18 -137 18 -235q0 -158 -53 -361q0 -2 -3 -11.5t-3 -10.5l-8 -15q-7 -15 -19 -39t-25.5 -50.5t-30 -51.5t-30.5 -39l-80 -80 l-22 -18q-5 -1 -25 -13.5t-22 -13.5q-61 -27 -119 -38q-13 0 -63 -10.5t-62 -10.5h-123q-5 0 -13 3l-9 3l-86 21q-1 0 -23.5 10.5t-50 24.5t-39.5 20l-33 22q-18 21 -84 87q-58 58 -119 249q-30 93 -30 271zM457 709q0 -77 10 -135.5t10 -106.5q8 -41 12.5 -58t24 -45.5 t59.5 -68.5q5 0 25.5 -11.5t24.5 -11.5h84l32 17l27 24l53 80l6 13l19 65q6 10 13 61.5t7 71.5v225q0 134 -57 226l-23 35l-30 30q-28 31 -86 31q-30 0 -55 -7.5t-42.5 -19t-32.5 -31.5t-24 -37t-17.5 -43.5t-13 -44t-11 -46t-9.5 -41.5q0 -31 -3 -76t-3 -96z" />
<glyph unicode="1" horiz-adv-x="751" d="M47 1116v117q0 131 6 168q0 9 1 12t12.5 9.5t37.5 13.5h9q9 0 91 -3t91 -3h321q41 0 41 -39v-1155l-8 -195q0 -55 -41 -55h-215q-12 0 -55 3.5t-55 6.5q-2 0 -6 1.5t-9.5 3.5t-7.5 3v1063q-1 1 -5.5 9t-9.5 14t-9 6h-11q-6 0 -56 -3t-56 -3q-14 0 -54 10z" />
<glyph unicode="2" horiz-adv-x="1263" d="M68 -4v37q0 6 14 20l242 228q19 18 50 56.5t48 55.5l45 45q56 59 139 156q78 94 128 181t50 169q0 89 -14 105q0 4 -3.5 15.5t-16 28.5t-29.5 23l-25 12q-2 1 -11.5 4t-17 6t-8.5 3h-20q-24 0 -62 -8.5t-38 -16.5q-30 -30 -39.5 -45.5t-15.5 -43.5t-17 -56 q0 -29 -4.5 -42t-9.5 -16.5t-24.5 -7t-33.5 -8.5h-35q-202 0 -233 -8h-6q-12 6 -22.5 9t-14.5 3t-7.5 1.5t-4 5.5t-0.5 14v20q1 6 4 29t7 46t9 38l21 53q32 81 59 133l14 16l84 89q58 47 155.5 76.5t158.5 29.5h145q13 0 45 -8l96 -29l97 -45q10 0 10 -6q59 -41 102 -100 l31 -35q0 -7 13.5 -30.5t19.5 -53.5q11 -18 16.5 -34t6.5 -27.5t2 -38.5t3 -50v-10q-8 -46 -8 -100q-5 -41 -22.5 -86.5t-33.5 -73.5t-46 -76l-76 -92l-123 -127q-31 -9 -52.5 -41.5t-27.5 -60.5q4 -13 6 -15l7 -4q6 0 25 -2t20 -2q57 0 88 8h211q33 0 47 -18v-291l-8 -8 q-32 -16 -88 -16h-940q-68 0 -82 16z" />
<glyph unicode="3" horiz-adv-x="1284" d="M59 428v10q0 19 16.5 32t28.5 13h314q19 0 27 -15t16.5 -49t21.5 -59q7 -7 18 -23.5t11 -19.5q21 -21 60 -35t79 -14q35 0 68 13q17 7 33 16t38.5 27t36 48t13.5 66v8q-1 5 -4.5 25.5t-6.5 32t-8.5 29t-14 30t-20.5 21.5q-73 51 -112 51q-75 0 -99 6l-14 12v78 q10 45 10 154q17 13 57.5 16t45.5 8l41 21q12 0 29.5 36.5t17.5 65.5q0 58 -35 100t-76 42h-59q-43 0 -92 -74q-5 -7 -10 -28t-14 -35.5t-27 -14.5h-318q-27 0 -27 27v26q17 70 21 70l25 61l28 51q8 16 42 54t48 45l54 41q36 6 59 18l53 29q9 0 29 10q58 16 121 16 q107 0 123 -2q17 0 69 -12t76 -12l47 -21l90 -53l62 -59q40 -60 58.5 -106t18.5 -109v-11q-6 -90 -41 -155l-16 -33l-86 -84v-20q0 -5 66 -31l51 -41q35 -27 47 -51l27 -54q29 -60 41 -133v-129q0 -22 -7.5 -41.5t-22 -50t-24.5 -59.5l-14 -21q-15 -14 -39 -45.5 t-44.5 -53.5t-37.5 -26q-7 -8 -14 -14t-15.5 -11.5t-13 -8.5t-15 -7.5t-12.5 -5.5t-14.5 -5.5t-13.5 -4.5l-78 -27q-1 -3 -11.5 -5.5t-13.5 -2.5l-77 -12q-26 0 -65 -4t-79 -4q-10 0 -29.5 0.5t-35.5 1t-17 0.5q-46 0 -124.5 24.5t-123.5 69.5l-28 16q-20 24 -47 50.5 t-44.5 48.5t-37.5 59q-27 46 -43.5 106t-16.5 107z" />
<glyph unicode="4" horiz-adv-x="1280" d="M31 338v213q0 27 10 57q0 19 25.5 62t101.5 157l20 23l93 137q1 4 5.5 11.5l9 15t5.5 8.5q17 27 62 93.5t67 103.5l43 67l10 17l58 94q5 3 13.5 14t22.5 18t39 7h334q48 0 78 -6l14 -15q0 -1 3.5 -6t3.5 -8v-326q-4 -13 -11 -25.5t-11.5 -20t-4.5 -11.5v-10 q0 -8 13.5 -34t13.5 -44v-164q6 -48 6 -117q8 -8 8 -14l12 -17h121l10 -10q0 -1 6.5 -6t6.5 -12v-242q0 -15 -4 -22.5t-19 -11.5t-29.5 -4.5t-50.5 -0.5h-41q-12 -3 -19 -10.5t-10 -19.5t-3.5 -20.5t-0.5 -22.5v-41q0 -13 4.5 -44.5t4.5 -60.5q0 -26 -7 -59t-18 -33 q-6 0 -8 2h-332q-24 4 -24 45q0 40 4 119t4 119v18l-17 12q0 4 -59 4h-23q-5 0 -58.5 -2t-128 -4t-128.5 -2h-199q-10 0 -15.5 7.5t-7.5 14.5t-3 7zM383 629q0 -3 0.5 -4.5t2 -3t3.5 -2.5t7 -4t10 -7h223h5q19 0 28 3t16.5 24.5t7.5 66.5q0 46 4 78.5t4 38.5v21q0 20 -8 32 v191q-2 4 -6 4h-6q-1 -1 -10 -8.5t-11 -9.5l-14 -21q0 -3 -8 -14t-18 -23t-11 -14l-31 -72l-34 -45l-154 -225v-6z" />
<glyph unicode="5" horiz-adv-x="1163" d="M66 78v8q0 22 6 57q3 14 14.5 81t11.5 77q0 113 27 113h8l78 -41q3 -1 22.5 -12.5t22.5 -12.5l20 -14q3 -2 14 -7.5t14.5 -7t13 -6t13.5 -6.5t12 -5t13.5 -4t12 -2t12.5 -1q11 0 25 -7t22 -7h78q1 0 12 4t12 4h33l53 20q5 1 22.5 9.5t20.5 9.5l46 45q30 32 30 110 q0 110 -81.5 171t-235.5 61q-24 0 -96 -8q-26 -2 -79.5 -23.5t-78.5 -21.5q-6 0 -9 2.5t-5.5 8t-6.5 9.5v4q60 331 60 354l20 105q4 21 18 110.5t25.5 132t24.5 42.5l78 6h493h18h21h21.5t22.5 -1.5t20.5 -3t19 -4.5t14 -7t10 -10t3.5 -13v-244q0 -7 -3 -13.5t-14 -13 t-30 -6.5h-170q-183 0 -265 -4q-11 -8 -23.5 -52t-12.5 -79v-8q0 -9 18 -27h193l67 -12l76 -20q51 -26 65 -35.5t39 -32.5l45 -43q97 -102 97 -295q0 -36 -8.5 -89t-8.5 -69l-26 -82l-58 -114q0 -7 -32 -39q-160 -160 -400 -160h-10q-43 0 -116.5 7t-94.5 7q-70 0 -150.5 31 t-123.5 74z" />
<glyph unicode="6" horiz-adv-x="1298" d="M55 426v51q0 93 13 164q12 54 12 61l80 179l12 24l41 58l31 59q13 9 26.5 27.5t22.5 32.5t10 14l21 24q8 11 35 41t54.5 64t47.5 67l53 64q2 6 19.5 25t17.5 20q26 26 44.5 34.5t51.5 8.5h307q29 -19 29 -31q0 -1 -1 -5t-1 -7l-27 -31q-1 -1 -11 -14t-19.5 -24.5 t-12.5 -12.5l-49 -62q-7 -4 -41 -44t-37 -48q-100 -109 -133 -157v-9q0 -10 3 -13t14 -3q18 0 47 5t61 5q90 0 145.5 -18t122.5 -57l21 -13q6 -5 43 -43t43 -43q0 -2 13 -24t20 -29l18 -37l27 -80q12 -40 12 -143v-76q0 -11 -6 -47.5t-14 -44.5l-25 -78q-2 -11 -20 -33 l-33 -45q-6 -10 -26 -35t-23 -28q-107 -75 -152 -99q-131 -67 -307 -67h-23l-118 12q-41 5 -86.5 22.5t-67.5 30t-78 45.5l-24 19q-15 20 -51.5 56t-41.5 44q-39 59 -58.5 112.5t-31.5 131.5zM428 485q0 -51 20.5 -89t65.5 -83q5 0 36 -16t36 -16h106q40 18 60 28l10 4 l35 35q9 3 32 37l6 17q6 18 12.5 33t10.5 16v112q-5 5 -11.5 29.5t-26 53t-58.5 48.5l-45 27q-18 8 -64 8q-71 0 -112 -27l-23 -16l-45 -45q0 -4 -12 -16q-33 -67 -33 -140z" />
<glyph unicode="7" horiz-adv-x="1267" d="M90 41q0 11 8 25.5t23.5 42.5t28.5 61q26 26 51.5 77.5t25.5 65.5l56 86l26 52q8 9 22 35.5t25 37.5l21 39q1 6 18.5 34.5t20.5 31.5l30 57q1 2 8.5 15.5t13 24.5t5.5 13l62 101q3 8 26.5 50t30.5 52l39 66q7 15 17.5 36.5t17 35t6.5 16.5q0 20 -137 20h-240 q-6 0 -56.5 -4t-56.5 -4h-32q-58 0 -58 20v256q0 28 4.5 38t28 16t78.5 6h137q5 0 41.5 -4t40.5 -4h14q102 0 308 4t307 4h190q0 -2 2.5 -5t3.5 -3v-6q0 -18 -4.5 -33.5t-13 -34.5t-12.5 -31q-29 -57 -87.5 -164t-85.5 -159l-26 -45q-14 -14 -31.5 -55.5t-30.5 -47.5 l-120 -235q-22 -32 -39.5 -65t-37 -73t-30.5 -61q-4 -11 -32 -61.5t-35 -55.5l-76 -151l-13 -21l-47 -84q-3 -6 -15 -19t-17 -16q-74 0 -134 -6h-45q-30 0 -109 3t-93 3h-9l-12 7q-2 12 -2 16z" />
<glyph unicode="8" horiz-adv-x="1218" d="M68 354v52q0 71 22.5 135t87.5 129l20 12q113 65 113 80l-2 4q0 3 -7.5 10.5t-10.5 7.5l-45 35q-48 40 -80 99l-16 24q0 18 -11.5 62t-11.5 59v33q0 92 31 145l80 105l71 51l51 26l43 13q67 20 158 28q47 0 77.5 -5t37.5 -5h53q24 0 64 -11t93.5 -39.5t99 -69.5 t77 -109.5t31.5 -151.5q0 -35 -4.5 -68.5t-4.5 -48.5q0 -11 -20 -47.5t-27 -36.5l-98 -100v-6q0 -16 22.5 -31t45.5 -20q60 -47 101.5 -110t41.5 -128v-182q0 -31 -28 -87.5t-95 -125.5q-8 -4 -40 -27t-66.5 -39t-67.5 -16q-40 -20 -51 -20l-82 -15q-2 0 -38 -3t-44 -3h-47 q-176 14 -277 59q-57 24 -102.5 65t-70.5 80.5t-43 84.5t-23.5 67.5t-7.5 38.5zM428 393q0 -16 9.5 -39.5t23.5 -36.5l41 -22l24 -23l58 -12h45q4 0 14 2t18 4t9 2l51 27q8 0 8 6l33 37q26 65 26 98q0 71 -47 121q-1 2 -3 5.5t-11.5 12.5t-21 15.5t-33 12t-47.5 5.5h-23 q-60 0 -112.5 -34.5t-61.5 -90.5v-90zM440 1022q0 -6 10.5 -28t10.5 -23l57 -62q5 -3 24 -7.5t29 -4.5h45q65 0 107.5 41t42.5 106v11q0 70 -45 111.5t-107 41.5q-82 0 -108 -28l-45 -45q0 -5 -10.5 -23t-10.5 -22v-68z" />
<glyph unicode="9" horiz-adv-x="1280" d="M59 844v74v14q0 129 23 188l61 113l27 41l90 78l35 18q151 86 276 86q63 0 122 -2t73 -2q6 -6 30.5 -11.5t58 -12t52.5 -13.5q0 -3 39 -21t43 -18q75 -38 155.5 -153t80.5 -215v-181q0 -22 -9 -65t-30 -80q0 -45 -91.5 -181t-230.5 -306q-17 -20 -60 -77.5t-69 -84.5 q-9 -18 -33 -29.5t-28 -17.5h-373q-7 0 -12.5 7t-5.5 11q23 47 92.5 115.5t87.5 95.5l53 66q11 9 36 35.5t32 37.5l22 19q1 6 13.5 22t17.5 21v30q0 5 -8 5h-223q-77 19 -164 66.5t-105 98.5l-33 54q0 2 -2.5 7t-3.5 5l-16 33l-16 78q-7 35 -7 51zM434 872q0 -9 19 -47.5 t41 -58.5q13 -18 34.5 -30t49 -20t30.5 -9h45q10 0 31 3t23 5l65 24q2 0 14 13.5t25 29t16 17.5q39 48 39 149q0 10 -0.5 18.5t-2 16.5t-2 13.5t-3.5 13t-4 10.5t-6 11.5t-6 10.5t-7 12.5t-8 12.5l-24 33q-3 1 -5 3t-2 3l-1 2l-35 27q-6 6 -30.5 16t-39.5 10h-61 q-68 0 -131.5 -64.5t-63.5 -133.5v-91z" />
<glyph unicode=":" horiz-adv-x="581" d="M68 797q0 59 20 88q36 50 93 88.5t110 38.5q15 0 38.5 -11.5t28.5 -11.5t15 2l10 2q0 -3 4 -6t9.5 -6t6.5 -4l54 -47q30 -28 44.5 -69t14.5 -77q0 -91 -69.5 -151t-159.5 -60l-37 2l-25 9q-73 22 -115 79.5t-42 133.5zM72 158v78q0 8 5.5 28t10.5 25q23 45 53 73t51 37 t58 19h59l64 -12q17 -2 58 -37.5t50 -67.5l21 -61v-76q0 -31 -23 -66.5t-51 -56.5l-22 -16l-52 -25q-10 -4 -39 -4h-53q-12 0 -24 4l-43 14q-7 4 -9 4l-67 48l-27 32q-7 10 -13.5 31t-6.5 29z" />
<glyph unicode=";" horiz-adv-x="669" d="M49 -205q0 27 7.5 54t23 64.5t20.5 51.5l2 9q2 10 6 27t9.5 35.5t13.5 40t16 36.5q0 7 15.5 33.5t15.5 43.5q16 31 32 90.5t31 92.5t38 33h303q1 -1 6 -3.5t9.5 -7t4.5 -12.5q0 -5 -6.5 -18.5t-9.5 -26.5l-84 -166q-2 -6 -13.5 -26t-15.5 -23q-7 -14 -21 -47t-24 -51 q-3 -4 -17.5 -24t-21 -33.5t-6.5 -26.5l-78 -152q-2 -4 -7 -9t-9 -7.5t-11 -6.5l-6 -4h-26q-107 0 -125 -6h-21q-10 3 -25 3.5t-20.5 4t-5.5 13.5v18zM178 795v8q0 21 14 53t39.5 67.5t71 60t100.5 24.5q138 0 195 -90l20 -37q4 -6 8.5 -22t4.5 -19v-105q0 -19 -13 -41 l-12 -24q-5 -11 -32 -39t-33 -37l-39 -19q-4 -1 -16.5 -4t-23 -5.5t-13.5 -2.5h-93q-1 0 -8.5 2.5t-17.5 5.5t-15 4l-49 29q-16 7 -32 32t-29 38q-17 32 -27 121z" />
<glyph unicode="&#x3c;" horiz-adv-x="903" d="M4 549v4q0 4 7.5 15t8.5 14h5q15 10 47 29t56 35.5t48 35.5l80 45q320 203 360 227h2q8 0 76 54q79 31 99 32q1 -4 2.5 -5.5t3 -1t3 -1t1.5 -6.5h4l-2 -217q0 -15 -15.5 -26t-40.5 -20.5t-28 -10.5l-19 -17q-16 -8 -28 -8l-70 -45q-21 -13 -46.5 -29.5t-38.5 -25 t-27.5 -17t-24.5 -11.5t-18 -3l-56 -29q-2 0 -7.5 -4.5t-6.5 -9.5l4 14q-9 -14 -12 -22l2 2q0 -2 4 -2l2 -15l4 5l12 -11l4 -8h7q50 -24 90 -61h8q0 -2 32 -18.5t33 -20.5h4q8 0 21.5 -5.5t31 -16t31 -19.5t33.5 -22.5t27 -18.5q6 -3 15 -4t11 -4l43 -31q9 0 9 -4 q-2 -2 -2 -4h6l8 -21v-246q0 -2 -4.5 -9t-7.5 -7h-2q-13 0 -27 14q-26 10 -55.5 27.5t-51 32.5t-55.5 40t-53 38q0 3 -14.5 12.5t-18.5 9.5l-219 150h-6q-27 20 -87.5 55t-72.5 47l-6 6h-4l-98 70q-6 6 -13.5 20t-7.5 23z" />
<glyph unicode="=" horiz-adv-x="788" d="M92 426v137q0 5 13.5 21t13.5 20h432q6 0 34 1t33 1t32 -1t32 -1v-10q6 0 7 -1t1 -9h4v-176q-9 -46 -82 -46h-37q-41 0 -229.5 4t-212.5 7q-24 0 -32.5 13.5t-8.5 39.5zM92 788v142q2 2 8 12t11 17t8 8h432q6 0 34 3t33 3t32 -3t32 -3v-4q6 0 7 -2t1 -11h4v-178l-10 -20 q-12 -23 -72 -23h-37q-396 0 -442 10q-41 0 -41 49z" />
<glyph unicode="&#x3e;" horiz-adv-x="905" d="M96 20v246l8 21h9l-2 4q0 4 8 4l41 31q4 3 13 4t15 4q6 4 25.5 17.5t33 22.5t30.5 20t30 16.5t21 5.5h8q3 0 28.5 19.5t38.5 19.5h3q2 1 28 21t43 30t25 10h4l2 8l14 11l2 -5l2 5l2 10q0 2 2 2q5 -2 7 -2q-1 1 -15 22l4 -14q-1 5 -6.5 9.5t-7.5 4.5h-4q-2 1 -24.5 14 t-24.5 15q-5 0 -26 9t-27 13q-1 2 -21 13.5t-45.5 26.5t-36.5 24l-76 45q-18 4 -22 8l-23 17q-3 2 -26 10.5t-39.5 20t-16.5 26.5l-4 217h8q0 5 1 6.5t2.5 1t3 1t2.5 5.5q22 -1 96 -32q3 -2 34.5 -28t39.5 -26q121 -72 366 -227l80 -45l33 -31q48 -25 119 -69h4 q13 -27 14 -29v-4q0 -10 -6 -24t-12 -19l-99 -70h-6l-4 -6q-15 -14 -75 -48.5t-85 -53.5h-6l-223 -150q-20 -14 -73.5 -54t-93 -65t-79.5 -41q-14 -14 -24 -14h-2q-4 0 -9.5 7t-5.5 9z" />
<glyph unicode="?" horiz-adv-x="1054" d="M41 1100q0 31 19.5 77t19.5 56l29 41l28 51q8 4 31 27l37 32l26 13q30 30 80 47q2 2 24 11t62 18.5t76 9.5h33q160 0 301 -72l41 -20l92 -93q0 -1 5.5 -10.5t12 -22t9.5 -18.5q24 -53 32.5 -91.5t8.5 -117.5q0 -235 -166 -336q-19 -20 -69.5 -34t-67.5 -31 q0 -24 -5.5 -46.5t-12.5 -37t-7 -16.5h-336l-8 14v74q3 35 3.5 110t4.5 118.5t18 43.5h123q10 0 36 5t30 7l55 31q12 0 35 31.5t23 46.5v84q-10 47 -47.5 72.5t-86.5 25.5q-21 0 -36.5 -6.5t-27.5 -21.5t-19.5 -27.5t-19.5 -38t-19 -39.5l-13 -12q-2 0 -16 -2t-17 -2h-294 q-13 2 -19 11t-7 16.5t-1 21.5zM295 195q0 57 31 114l10 19q7 5 59 57l39 21q16 8 21 8h30q2 0 9 -7.5t8 -7.5h37q1 0 11 3.5t11 3.5h12q19 0 42.5 -10t35.5 -23l29 -19l4 -6q7 -19 23 -49.5t24 -54t8 -49.5q0 -54 -30 -103l-25 -39q-22 -32 -74.5 -52.5t-97.5 -20.5 q-91 0 -141 45q-15 11 -23.5 19t-23 27.5t-22 51t-7.5 72.5z" />
<glyph unicode="@" horiz-adv-x="1683" d="M66 567v97q0 38 15 97.5t15 96.5l23 70q0 2 9.5 20t14.5 25l39 67q4 0 16.5 21t18.5 24q86 106 209 179q1 0 9.5 5t10.5 7l54 24q1 1 19.5 7.5t19.5 7.5q2 0 43.5 16.5t74.5 16.5q24 6 48.5 9.5t57.5 5.5t49.5 2.5t60 1.5t53.5 1h14q47 0 94 -14q9 -2 50 -11t62.5 -14.5 t55 -15.5t57 -22t39.5 -27l27 -21l33 -14q3 -3 33 -25.5t39 -29.5l18 -23q3 0 10 -10t17.5 -27t11.5 -18l29 -43l65 -125l18 -54q7 -17 15 -69q0 -16 6 -47.5t6 -44.5v-88q0 -85 -23 -156t-60.5 -119t-89.5 -85.5t-105 -59t-111.5 -35.5t-104 -18.5t-88.5 -4.5q-49 0 -49 23 q0 21 2 39v117q0 6 -4 6l-16 -6q0 -9 -26.5 -40t-45.5 -48q-76 -58 -184 -58q-60 0 -148 31l-59 37l-65 63l-11 15q-32 51 -54 115t-22 106v104q0 36 12.5 85.5t31.5 84.5l51 86q5 16 43 49l24 21l56 35l38 16q35 12 123 21q11 0 21 -1t21.5 -3.5t18.5 -4t20 -6t17.5 -6 t21 -8t20.5 -8.5l37 -25l86 -82q2 -2 4 -2q2 2 4 2l6 13v12q0 5 2 25.5t2 25.5l10 12q12 0 34 3t34 3h8q8 -2 10 -4l148 -30q10 -2 12 -2l10 -13l8 -10v-631q145 68 187 207q24 72 24 90v12q-14 119 -14 177q-3 1 -7.5 18t-9.5 37.5t-8 26.5q-23 88 -94.5 177t-142.5 126 q-18 13 -39.5 24.5t-39 19.5t-46.5 15.5t-44 11.5t-49.5 9.5t-45.5 7t-49.5 6.5t-45.5 6h-20q-18 -5 -105.5 -14t-101.5 -13l-39 -20q-64 0 -192 -109q-6 -2 -20 -15t-15 -13q-8 -11 -35 -45.5t-34.5 -47t-27 -48t-35.5 -80t-38 -111.5q-8 -57 -8 -180v-78 q6 -38 23.5 -102.5t53 -143.5t70.5 -96q23 -57 66 -84l100 -68q20 -21 131 -43t240 -22q138 0 266.5 18t157.5 37l47 -106q-2 0 -6.5 -3.5t-6.5 -3.5q-302 -53 -458 -53q-181 0 -334 51l-35 15q-167 69 -272 194l-27 31q-78 102 -98 172l-15 51q0 2 -3 10.5t-7 19t-4 11.5 q0 30 -12 82.5t-12 93.5zM664 594q0 -27 6 -41l32 -59l5 -2q6 -5 20 -16.5t21.5 -16.5t23.5 -10t35 -5h82q5 0 28 10.5t23 16.5l53 45l2 12l17 78v23q0 34 -8 67l-27 43l-59 58q-2 0 -10.5 2.5t-17 4.5t-22.5 3.5t-28 1.5h-4q-34 0 -82 -16l-25 -23q-19 -19 -22 -20l-23 -31 q-3 -5 -11.5 -28.5t-8.5 -28.5v-68z" />
<glyph unicode="A" horiz-adv-x="1536" d="M49 14v23q0 33 9.5 61t28.5 70t32 82l31 106q0 8 5 22t5 23l127 349l30 81q0 4 3.5 14.5t8.5 22.5t5 13l45 125q0 1 6 15.5t6 16.5l80 224q0 30 21 51l24 65q11 27 25 40.5t43 13.5h346q18 0 27 -4t10 -9.5t6 -13t16 -12.5l15 -27l30 -98q12 -34 33.5 -85.5t85.5 -242.5 v2q1 0 10.5 -31.5t22 -66.5t20.5 -41q31 -94 70.5 -199.5t89.5 -233t76 -198.5q2 -7 24.5 -59.5t22.5 -79.5q0 -17 -3.5 -22t-10.5 -6t-11 -5h-20q-55 0 -164 2t-162 2q-32 10 -53 66.5t-36.5 115.5t-33.5 70q-24 4 -88 4h-30q-242 0 -340 -4q-5 0 -19 -3l-14 -3 q-6 0 -37.5 -82.5t-40.5 -122.5l-14 -25q-1 -5 -33 -20h-307q-8 0 -15.5 5t-7.5 9zM590 575q0 -11 28 -23.5t54 -12.5h133q73 0 100 24v33q0 20 -35 121l-18 78q-4 7 -8.5 41t-14.5 45q0 34 -28.5 106t-28.5 86l-12 12h-8l-13 -12q0 -3 -4 -11.5t-4 -10.5l-45 -166 q-3 -17 -37.5 -117.5t-42.5 -116.5z" />
<glyph unicode="B" horiz-adv-x="1232" d="M96 49v19q0 66 4 90v1249q1 9 7 14.5t11.5 7.5t19 6t22.5 7q111 -12 246 -12q33 0 86.5 1t54.5 1q94 -7 170 -7q54 0 114.5 -27t108.5 -65l33 -33q1 -1 12 -16.5t24 -34t17 -26.5q35 -74 35 -129q0 -49 -8.5 -85.5t-8.5 -47.5l-18 -46q-5 -5 -12 -18.5t-15 -24.5l-26 -32 q-1 0 -3.5 -2.5t-5 -6t-3.5 -4.5l-33 -18q-3 -2 -13.5 -8.5t-16 -13t-5.5 -15.5q0 -35 47 -35l66 -24q18 -10 58 -44t46 -53l33 -65q31 -43 31 -166q0 -190 -148 -297l-31 -20q-40 -27 -64 -35.5t-70 -16.5q-9 -1 -13 -2l-32 -4q-31 -5 -96.5 -9.5t-146.5 -4.5h-90 q-28 0 -163.5 -3.5t-159.5 -4.5h-6q-45 16 -51.5 22t-6.5 39zM461 344q0 -6 11.5 -23.5t21.5 -17.5h190q5 0 22 4.5t23 7.5l33 29q27 22 37 40t10 44q0 100 -56.5 145t-179.5 45q-6 0 -36.5 -1t-36.5 -1q-18 0 -28.5 -26.5t-10.5 -50.5v-195zM461 932q0 -15 11 -32.5 t13 -27.5h33q9 1 28 3t34 4t16 2l43 14q37 11 55.5 46.5t18.5 80.5q0 64 -48 93.5t-108 29.5q-84 0 -84 -17l-4 -10q-8 -40 -8 -45v-141z" />
<glyph unicode="C" horiz-adv-x="1265" d="M59 604v221q0 56 29 145.5t57 145.5l15 25q10 20 29 44t33.5 39.5t43 44.5t37.5 38l57 36q195 125 414 125q60 0 103.5 -3t104.5 -16.5t112 -39.5l49 -25q3 -3 11 -11.5t13.5 -14.5t6.5 -6v-31q0 -42 2 -156.5t2 -130.5v-47q-4 0 -4 -4h-23l-21 12l-69 60l-41 20l-57 25 h-23q-18 -4 -20 -4q-19 24 -62 24h-70q-2 -1 -51 -10t-97.5 -31t-66.5 -57l-34 -39l-11 -20q-59 -108 -59 -170v-91q0 -148 70 -243q9 -9 25 -30.5t28 -33t46 -29t87 -32.5q38 -17 88 -17q44 0 106 11t62 20l63 31q2 2 11 7.5t10 6.5l53 37q29 21 45 21h11q4 -15 4 -21v-348 l-4 -10q-3 -1 -9 -7.5t-8 -7.5q-8 0 -27 -14l-57 -25q-4 0 -12.5 -3.5t-14.5 -6.5l-6 -4q-19 -3 -55 -14.5t-81 -18t-116 -6.5h-45q-107 0 -137 15h-2q-4 0 -28 9t-41 9q-11 6 -71.5 30t-86.5 44l-62 47q-40 32 -57 51l-53 66q-31 38 -51 77l-27 54q-36 75 -68 237z" />
<glyph unicode="D" horiz-adv-x="1396" d="M96 10v1397q0 8 6 14l17 9q19 0 37 6h59q36 -6 117 -6h231q82 0 156 -9q17 0 46 -7t40 -7q20 0 50.5 -6t41.5 -15q42 0 107 -38l96 -64q131 -131 131 -160l39 -75q5 -15 23.5 -65t27 -87.5t8.5 -83.5v-207q0 -4 -14 -53l-9 -35q-10 -34 -10 -57q0 -38 -27 -101t-50 -88 q-80 -131 -252 -209l-60 -28q-5 0 -30 -8.5t-33 -8.5l-117 -14q-46 0 -86 -8h-68q-202 0 -301 -6h-145q-2 3 -16.5 7.5t-14.5 12.5zM489 469l5 -119q0 -6 13.5 -11.5t43.5 -9t72 -3.5h24q50 0 96 24l50 29q62 52 89 97.5t48 129.5l12 78v33q-3 26 -5.5 62t-6 58.5 t-12.5 45.5q-48 116 -137.5 172.5t-207.5 56.5h-49q-35 -12 -35 -72v-571z" />
<glyph unicode="E" horiz-adv-x="1028" d="M96 41v18q0 38 2 378.5t2 379.5v535l9 73l10 7q68 0 243 10h512q11 0 41 -10l13 -13l6 -12v-279q-18 -18 -27 -18h-55q-57 0 -168 4t-166 4h-24q-14 -9 -17 -10.5t-7.5 -9t-4 -12.5t-3 -25.5t-7.5 -42.5v-10q0 -7 3 -44.5t3 -43.5q0 -4 3 -8.5t16 -10.5t34 -6h21 q20 0 60 2t62 2h2q1 0 18.5 -2t18.5 -2h125q7 0 20 -3t23 -6.5t10 -4.5v-275q0 -7 -12 -14.5t-20 -7.5h-13q-161 14 -282 14h-62q-30 -18 -30 -104v-144q1 -3 7 -8.5t7 -5.5q2 -1 53.5 -4t119.5 -5.5t108 -2.5h157q27 -9 27 -68v-209q0 -11 -6.5 -19.5t-21.5 -13.5t-28 -8 t-39 -4.5t-41.5 -1.5h-47.5h-11h-612q-9 0 -18 6.5t-9 13.5z" />
<glyph unicode="F" horiz-adv-x="950" d="M96 1333v74q0 10 5.5 16t18 8.5t26 3t37 2.5t42.5 5h8q99 0 293 -5t291 -5h37q49 0 49 -13q3 -10 9 -57t6 -70v-164q-18 -18 -41 -18h-23q-138 14 -186 14h-17q-9 -6 -102 -6h-41q-11 0 -21 -10t-10 -31v-162q0 -4 3.5 -10.5t8.5 -12.5t5 -7h43q313 0 313 -13v-6 q1 -7 2 -18t2.5 -26t3 -35t2.5 -41.5t1.5 -48t0.5 -52.5v-37q0 -11 -6.5 -26.5t-15.5 -18.5h-332q-25 0 -25 -16v-527q0 -24 -178 -24h-110q-24 0 -36 0.5t-28 3t-22.5 9.5t-6.5 18v872q0 21 -3 217t-3 217z" />
<glyph unicode="G" horiz-adv-x="1589" d="M70 573v256q0 62 29.5 149t68.5 161l20 35l33 45l96 96l45 33q6 3 16.5 9.5t18.5 11.5t9 5q21 16 45 28t57 22.5t55.5 17t69 17t69.5 16.5h183q90 0 231 -45l29 -17q129 -61 207 -137l4 -6q4 -5 17.5 -20.5t19.5 -23.5t15.5 -21t16 -24.5t11.5 -23.5v-6l-15 -12 q-24 -18 -75 -40t-60 -26q-2 0 -31.5 -15t-70 -34.5t-64.5 -28.5h-4q-11 0 -19.5 5t-12 10t-9.5 15.5t-8 14.5l-27 33l-32 25l-21 20q-11 11 -54 25t-69 14h-102q-26 0 -54.5 -7t-39.5 -20l-52 -32q-25 -20 -75 -70q-1 -3 -16 -32.5t-18.5 -38t-15.5 -35t-16.5 -40.5 t-11.5 -36t-9.5 -40.5t-2.5 -35.5v-108q0 -28 10 -76t10 -51l33 -74q28 -62 68 -97.5t122 -70.5l58 -21q30 -6 61 -6h84q1 -2 15.5 3.5t32.5 11.5t26 6l61 28q2 1 15 11t22 18t18 17.5t9 15.5l24 47q21 42 21 59v11q0 20 -68 20h-33l-22 12h-180q-3 0 -14 9t-11 14v227 q0 3 3 8t6 9l3 4l64 8h362q193 0 224 8h22q0 -2 16.5 -8.5t16.5 -28.5v-61q0 -4 -9 -52t-18.5 -106t-9.5 -86q0 -16 4 -20q-3 -8 -13 -37.5t-14 -40.5t-13.5 -36t-17.5 -39.5t-19.5 -34.5t-25.5 -36.5t-30 -31.5q-61 -80 -113 -99l-53 -37l-78 -36l-26 -9q-25 -8 -31 -12 l-107 -25q-16 -5 -72.5 -9.5t-90.5 -4.5q-29 0 -92 5.5t-72 8.5l-78 19q-116 34 -201.5 94.5t-154.5 157.5q-3 3 -11.5 15t-15 20.5t-8.5 9.5q0 3 -17.5 36t-19.5 42q-37 79 -53 202z" />
<glyph unicode="H" horiz-adv-x="1454" d="M96 66v22q0 115 4 172v1143q0 29 93 29h276q31 -11 31 -66v-23q0 -4 -3 -56.5t-3 -61.5v-299q0 -14 4.5 -22t11.5 -12.5t8 -6.5q16 0 103 -4t104 -4h215q3 3 12.5 9t14 11t4.5 10v496q6 10 10 16l4 4q4 1 13.5 3t17 4t10.5 2h303q8 0 20.5 -19t12.5 -35v-100 q-10 -201 -10 -582q0 -80 -1 -256q-1 -118 -1 -198v-72q0 -94 4 -139q0 -16 -6 -19q-3 -3 -126 -7.5t-178 -4.5h-4q-24 0 -35.5 1t-23.5 7t-16 19v84q0 5 4 46.5t4 45.5v336q-4 0 -16.5 11t-16.5 11h-422q-8 0 -12 -4l-6 -6q-6 -3 -6 -21v-448l-9 -62q0 -4 -12 -16l-12 -4 h-346l-15 12q-4 0 -4 54z" />
<glyph unicode="I" horiz-adv-x="581" d="M96 20v1364q0 38 25 48h330q38 -2 38 -80v-78q0 -25 -3 -240.5t-3 -238.5v-400q0 -29 -3 -191.5t-3 -191.5l-6 -8q-1 0 -7 -2t-7 -2h-338q-8 0 -15.5 6.5t-7.5 13.5z" />
<glyph unicode="J" horiz-adv-x="980" d="M20 172v8l15 25l98 106q23 23 25 27l67 70h21q4 -5 4 -7l33 -45l41 -41q28 -24 77 -24h21l27 12q9 6 16.5 16.5t12.5 20.5t9.5 25t6.5 23.5t5 23t3 16.5v985q0 19 59 19h68q18 0 111.5 -1t109.5 -1q3 -2 11 -6t12.5 -6.5t11 -7.5t10.5 -11v-400q0 -6 -5 -58.5t-5 -57.5 v-443q0 -163 -76 -295q-9 -18 -14 -18q-70 -92 -157.5 -126t-236.5 -34q-34 0 -53 2t-43 6t-49 7l-18 6q-5 3 -18 7.5t-23 7.5t-11 5l-28 15l-45 32q-29 21 -61 59t-32 58z" />
<glyph unicode="K" horiz-adv-x="1454" d="M96 20v13q0 24 3 72t3 75v15q0 117 -6 204v1012q0 6 8.5 13.5t14.5 7.5h321h10t6.5 -3.5t8.5 -10t12 -21.5v-49q0 -90 -10 -270.5t-10 -235.5q0 -35 20 -35q4 6 6 6q1 1 14 19t24.5 33.5t15.5 19.5l53 65q22 46 68.5 94t54.5 74l209 285q1 1 6 6.5t7 7t7 4t10 2.5h338 q1 0 12 -2t13 -2q3 0 8 -4.5t8 -8.5t4 -3v-25q0 -8 -6 -14l-14 -21l-152 -194q0 -3 -9 -13t-19 -21t-11 -13l-28 -45l-35 -39q-1 -2 -10 -14t-16 -22t-7 -11l-24 -33l-37 -39q-13 -19 -39.5 -50.5t-46 -59t-31.5 -54.5v-20q10 -17 12 -21l41 -53l49 -57q3 -2 9 -10.5 t6 -12.5q48 -47 121.5 -146.5t89.5 -119.5l53 -72l110 -141q35 -35 35 -64q0 -12 -14 -19t-33 -7h-106q-10 3 -82 5.5t-92 2.5h-62q-31 0 -47.5 5t-32.5 22l-90 137q-1 1 -5.5 9t-9.5 15t-7 7q-3 10 -25 42.5t-49.5 72t-38.5 57.5l-109 163q-10 16 -32.5 43.5t-40 47 t-17.5 20.5h-12l-10 -4v-88q0 -49 5 -144.5t5 -144.5q0 -115 -10 -248q0 -3 -7 -7.5t-14 -4.5h-319l-12 4q-13 13 -13 16zM1141 231q0 -8 4 -8q6 0 6 8q0 7 -6 7q-4 0 -4 -7z" />
<glyph unicode="L" horiz-adv-x="944" d="M96 31v1382l31 19h94l82 2h2q184 0 184 -31v-1049q0 -32 72 -32h62q204 0 256 -11q38 -8 39 -22v-262q0 -11 -33 -27h-764q-8 4 -10 4l-9 8z" />
<glyph unicode="M" horiz-adv-x="1951" d="M78 0v72l65 407l33 195q0 4 3 31t3 30l45 299q0 5 5 29l4 24l12 68q0 41 12 100.5t12 83.5l15 64l14 20q2 3 8 6.5t11 6.5l6 2h215q20 -8 55 -8q2 0 30 -1t48.5 -0.5t27.5 3.5q9 -9 13 -9q17 -14 29.5 -39.5t16.5 -41.5t11 -50q1 -2 17.5 -50.5t17.5 -55.5l22 -90 q17 -34 36.5 -86.5t19.5 -65.5l49 -182q7 -13 12 -40t11.5 -43.5t19.5 -16.5h8q0 3 11.5 13.5t11.5 29.5l59 202q4 6 24.5 76t24.5 74l12 65q0 7 18 60.5t19 58.5q9 23 9 25l32 108q1 3 6.5 17.5t9 21t11.5 14.5t18 11h316q44 0 80 -6q21 -31 31.5 -79.5t16.5 -113.5t11 -90 l51 -342q0 -3 2.5 -17.5t5.5 -17.5l31 -201q0 -27 13.5 -81.5t13.5 -83.5l51 -340v-54l-12 -12h-342l-13 4q-10 10 -10 23q-10 96 -43 309q0 1 -1 15t-1 16l-22 157q0 3 -4.5 29.5t-4.5 30.5q0 27 -18.5 166.5t-18.5 156.5h-8l-6 -8q-18 -51 -43 -144.5t-35 -125.5 q-1 0 -3.5 -9t-2.5 -12l-12 -47q-8 0 -55 -160l-21 -61q-57 -205 -98 -307l-7 -14t-6 -15q-4 0 -4 -4q-95 0 -141 -8h-33q-3 3 -20.5 7t-24.5 21l-57 175q-112 287 -217 690h-17q-11 -67 -15 -179.5t-21 -160.5q-8 -37 -16.5 -95t-8.5 -69v-8q-10 -47 -20.5 -146t-14.5 -129 q-3 -16 -6 -39t-5 -31.5t-7 -20t-13 -15.5t-22 -6q-3 0 -28 1t-42 1q-29 0 -95 -3t-103 -3h-6l-60 4z" />
<glyph unicode="N" horiz-adv-x="1605" d="M96 1319v55q0 18 2 29.5t12.5 23t30.5 11.5h271q37 0 66.5 -27.5t56.5 -70.5t38 -54l33 -45q83 -91 101 -119l45 -65l18 -23q52 -74 70 -84l49 -57l18 -27q154 -191 211 -282h15q5 0 6.5 12t2.5 31.5t3 29.5v37q-4 24 -4 78v631q0 17 4 29l8 6q1 0 12 2t13 2h41 q19 0 134 -2t134 -2q26 -14 26 -60v-538q0 -123 -3 -446t-3 -361v-21l-14 -12h-6q-13 0 -120 -4t-148 -4h-33l-41 12l-21 23l-90 123l-59 73l-37 53q-43 41 -122 154t-157 193l-53 67l-90 127q-1 5 -10.5 19t-11.5 16q0 10 -5 10q-10 -4 -12 -4v-838q0 -9 -2.5 -11.5 t-8 -3.5t-9.5 -5l-27 -8h-274q-29 0 -41.5 15t-12.5 34v739q0 25 -3 268.5t-3 270.5z" />
<glyph unicode="O" horiz-adv-x="1703" d="M70 670v96q0 43 16 103t16 92l21 67q0 5 24 45l41 68q0 1 13 14t44.5 48t67.5 77q18 15 53 39t60 40.5t25 18.5l90 41q4 0 18 5.5t14 7.5q15 0 43 10t46 10q40 8 80.5 11.5t104 4.5t83.5 2h14q61 0 181.5 -28t170.5 -78l27 -21l33 -18q9 -4 30.5 -25.5t40.5 -40t21 -18.5 l41 -45q31 -39 31 -41l14 -20l53 -107l19 -53q16 -42 26 -160v-88q0 -135 -12 -203q-20 -106 -86.5 -227t-169.5 -199l-41 -26q-7 -4 -38.5 -20.5t-33.5 -18.5l-71 -29q-95 -38 -209 -45h-219q-130 0 -274 67t-230 169l-27 32q-72 86 -98 174l-14 50q0 12 -9.5 46.5 t-9.5 59.5q0 4 -10 45.5t-10 67.5zM477 651q0 -49 39 -141t78 -115l59 -41q6 -6 14 -9.5t13.5 -4.5t15.5 -2.5t11 -1.5q16 -15 54 -19t52 -12h51q67 0 113 17l78 26q14 0 45 32.5t41 37.5q68 89 84 166q0 8 9 53t9 57v11q-1 14 -3.5 44t-4.5 53.5t-2 24.5q-7 7 -19 48 t-16 51q-8 20 -16 34t-24 30t-23 22.5t-35 29.5q0 22 -88 49t-140 31l-133 -14l-24 -12q-23 0 -63 -28t-70 -58l-54 -80q-33 -83 -42 -116.5t-9 -70.5v-92z" />
<glyph unicode="P" horiz-adv-x="1206" d="M96 1087v179q0 141 6 153l17 13q84 4 119 6h430q106 -7 172 -19q8 -4 31 -10t26 -6l78 -39q30 -7 82 -60.5t61 -82.5q28 -29 42 -86t14 -93v-190q0 -1 -3 -15.5t-6 -32t-4 -24.5q-2 0 -7 -15.5t-11 -33.5t-10 -22l-21 -39q0 -2 -5.5 -10.5t-6.5 -8.5l-51 -59 q-79 -79 -195 -98l-74 -15h-37l-12 4h-12l-12 -4h-27q-67 0 -129 -10t-62 -35v-422q0 -14 -54.5 -19t-156 -5.5t-118.5 -1.5h-13q-2 1 -9.5 2.5t-12 3t-10.5 4t-9 6.5t-4 10v693q0 17 -3 190t-3 192zM477 815q0 -6 6 -12l6 -8q15 -8 19 -15h98l13 3q13 3 16 3q1 0 6 -0.5 t13 -1t14 -0.5q4 0 9 1l5 1l49 31q2 5 14 17t13 14q18 11 26.5 30.5t8.5 32.5v107q-8 37 -46.5 70.5t-64.5 33.5h-160q-7 0 -26 -13.5t-19 -21.5v-272z" />
<glyph unicode="Q" horiz-adv-x="1720" d="M59 629v186q0 37 50 180l26 76q0 9 35 59t35 54q8 4 106 102l51 39q111 76 221.5 107.5t243.5 31.5h62q7 0 42.5 -3.5t41.5 -4.5h22q145 -7 289 -98q11 -7 36.5 -22t34.5 -21t30 -22t36 -33t38.5 -45t51.5 -66l15 -21q0 -7 19.5 -33t19.5 -40q63 -124 63 -330v-68 l-8 -112q0 -51 -76 -205l-18 -35q-2 0 -8 -6.5t-12.5 -15.5t-14.5 -21l-14 -21t-11 -17l-6 -9v-4q0 -16 21 -41q0 -2 82 -86.5t82 -101.5q0 -30 -134 -68q-1 0 -9 -4.5t-21.5 -11t-29.5 -13.5t-36.5 -11.5t-38.5 -4.5h-12q-1 -1 -7.5 3.5t-13.5 9.5t-10 5l-18 27 q-2 5 -13 21.5t-14 17.5q0 9 -35 41.5t-43 32.5h-4q-142 -52 -219 -60h-244q-2 0 -25 3t-24 3h-10q-9 2 -33 6.5t-43 8.5t-22 4l-80 26l-123 60l-21 14l-36 33q-3 3 -23.5 18.5t-44.5 37t-41 42.5l-24 31l-13 18l-65 134q-33 90 -33 102q-8 8 -10.5 58t-12.5 63zM455 651 q0 -119 49 -168q8 -8 34.5 -48t47.5 -54l61 -41l25 -12q44 -20 77 -27.5t89 -7.5q30 0 49 6t33 6l14 8q6 3 6 15q-2 10 -6 12l-31 41l-119 125q-13 6 -19.5 24.5t-6.5 28.5q0 2 0.5 4t5 8.5t12 11.5t24 9t38.5 4l96 27q42 14 47 14h39l53 -53l45 -56q8 -7 17.5 -17.5 t14.5 -12.5t17 -2q29 0 29 28l23 60q0 3 5 22.5t5 22.5q0 5 1 36.5t1 36.5q0 42 -6 85.5t-6 72.5l-13 37q-108 238 -362 238q-43 0 -82 -7l-98 -32q-11 -7 -11 -9l-59 -36q-11 -8 -28 -26.5t-32.5 -37t-19.5 -22.5q0 -16 -24.5 -84t-28.5 -101q0 -79 -6 -94v-35z" />
<glyph unicode="R" horiz-adv-x="1318" d="M96 27v1386l23 21h516q12 -4 57 -4h47q1 0 16.5 -5.5t16.5 -5.5q13 0 25 -2t19 -4t27 -8.5t34 -11.5l86 -39l32 -25q5 -5 34 -35t46.5 -53t32.5 -51q45 -87 45 -205v-45q-31 -151 -98 -231l-47 -45l-58 -37h2q0 -2 -14.5 -7.5t-30 -12t-18.5 -9.5l-12 -18v-21l20 -41 q0 -1 8 -9.5t18.5 -19.5t14.5 -16q6 0 16.5 -18.5t24.5 -43t25 -34.5l36 -39q15 -31 33 -55l45 -50l56 -73q0 -1 41.5 -59.5t41.5 -65.5v-33l-14 -6h-209q-93 6 -217 6q-13 8 -23 19t-14 18.5t-11.5 22t-10.5 20.5l-45 72l-54 90q-7 20 -29.5 51.5t-31.5 36.5l-25 45l-20 24 q-10 12 -29 46t-35 47l-12 -13q-6 0 -6 -121v-22q0 -44 3 -133.5t3 -134.5v-52q0 -22 -41 -22h-295q-17 0 -28.5 8t-14.5 16zM471 815l6 -27q3 -11 12 -18.5t19 -7.5h8q1 1 21 4.5t24 3.5h45l66 18q8 0 25 10t29 20l13 11l25 37q16 27 16 72v10v11.5t-0.5 12t-1 13t-1.5 13 t-3 14t-5 13t-6.5 14t-8.5 13.5t-11 13l-12 12q-3 5 -15.5 13.5t-23.5 14.5t-10 7q-89 12 -135 12q-5 0 -32 -1t-32 -1q-12 0 -12 -24v-283z" />
<glyph unicode="S" horiz-adv-x="1173" d="M63 160v12q36 88 46 111l18 26q3 1 8.5 10t12.5 22t8 15l4 13l45 71q17 17 22 17q-1 -1 1 -2t6 -2t8.5 -3t9.5 -4.5t8 -5.5l86 -80q1 0 27.5 -19t66 -37.5t82.5 -24.5h19q106 0 118 12l9 6q10 6 24 15.5t27.5 21t23 26.5t9.5 29v72q0 13 -16.5 40.5t-33.5 37.5l-53 34 q-23 0 -67 21l-45 12q-22 0 -55.5 12.5t-51.5 12.5l-96 31q-20 13 -43.5 27.5t-32 20t-20 14.5t-19 17.5t-18.5 22.5l-41 65l-13 33q0 23 -12 62t-12 84v12q7 85 24 143q1 1 7 16t6 17l16 39q0 3 19 34t26 38q21 38 74 73l51 33l47 21l23 10q6 6 47 12t45 8h72 q136 0 204 -12l199 -66l25 -12q2 -1 8.5 -5.5t9 -6.5t7 -6t6 -8t1.5 -9q0 -31 -12 -43q-12 -24 -52 -99t-54 -99q0 -2 -8 -12t-9 -11h-20q-21 8 -66.5 44.5t-87.5 43.5q-67 10 -78 15h-35q-4 -7 -36 -7q-46 -13 -65 -34t-34 -64v-12q0 -36 40 -69.5t85 -43.5 q17 0 75.5 -18.5t78.5 -22.5l127 -45l16 -8l45 -25q12 -12 21 -12l51 -47q18 -18 18 -29l39 -79q10 -5 19.5 -36t9.5 -46v-191q0 -22 -5.5 -45.5t-17.5 -50t-20.5 -43.5t-25 -46.5t-21.5 -37.5l-23 -25q-26 -32 -39 -41l-67 -53q-12 -12 -19 -12l-41 -21q-71 -36 -176 -45 h-161q-77 0 -182.5 39.5t-190.5 104.5l-37 28z" />
<glyph unicode="T" horiz-adv-x="1095" d="M49 1128v48q0 2 4 25t4 28v57q0 93 6 111q0 5 6.5 19t6.5 16l14 6h557q30 -6 51 -6h9q5 0 44 3t44 3h221q24 -15 24 -82v-228q0 -8 -4 -17t-8 -9l-18 -6h-230l-28 -13v-1079q-4 -7 -68 -10.5t-159.5 -5t-118.5 -2.5h-11q-4 3 -19.5 8.5t-17.5 5.5l-12 12v213q0 128 2 381 t2 381v84l-16 16h-258q-9 7 -13 9l-6 6q-8 24 -8 26z" />
<glyph unicode="U" horiz-adv-x="1400" d="M88 1151v190v13.5v15.5t0.5 14.5t1.5 15t3 13t5.5 12t8 9t11.5 6.5t15 2h316q13 0 24.5 -22.5t11.5 -39.5v-862q0 -10 17 -63l4 -19l33 -67l22 -19q0 -2 8.5 -7t12.5 -5q4 -8 6.5 -12t10 -6.5t15.5 -3.5t28 -4.5t42 -8.5h23q62 0 100.5 18.5t75.5 55.5l24 51q7 17 16 71 t11 60v848q0 10 4.5 22.5t13.5 12.5h199q12 -2 55 -3t72 -5.5t29 -14.5q3 -5 5.5 -105.5t2.5 -162.5q0 -28 -0.5 -86.5t-1 -106.5t-0.5 -51q-5 -560 -25 -604l-14 -33q-29 -63 -55.5 -104t-58.5 -68t-57 -40.5t-71 -34.5l-45 -21q-19 0 -59.5 -13.5t-73.5 -13.5 q-110 -12 -160 -12h-49q-64 0 -94 6l-127 33l-35 12l-65 33l-54 35q-62 62 -71 68l-39 61l-27 59q-24 71 -30.5 112.5t-6.5 102.5v256q0 21 -4 205t-4 205z" />
<glyph unicode="V" horiz-adv-x="1480" d="M45 1399v12q1 3 7 8.5t7 5.5h347q15 0 30 -9t15 -25q19 -53 124 -373q0 -1 7.5 -16t9.5 -17q5 -16 17 -58t19 -64.5t22 -60t34 -73.5l37 -121q4 -3 10.5 -12t11.5 -17l5 -8h14q4 2 4 4l8 17q11 18 18 33.5t11 29t14 47t23 70.5q5 27 41 109l24 63q6 6 20.5 56.5 t14.5 56.5q1 0 17.5 44.5t36.5 106.5t28 99l16 45q0 5 6.5 19t13 26t5.5 14l12 14h348q4 0 8.5 -5.5t4.5 -8.5v-18q0 -13 -2.5 -27t-5 -22.5t-9 -26.5t-8.5 -25l-20 -51q-24 -59 -25 -67l-20 -46q-28 -70 -33 -100l-21 -43q-17 -44 -54 -140.5t-58 -148.5l-158 -405 l-82 -232q-9 -18 -14.5 -27.5t-18 -20.5t-26.5 -11h-256q-15 0 -22.5 2.5t-15 8.5t-12.5 9l-18 39q0 3 -5.5 20.5t-6.5 18.5q-56 146 -152 381l-39 96l-20 62q-2 8 -14.5 38.5t-18.5 39.5l-78 200q-3 8 -119 293l-38 99q-21 51 -21 92z" />
<glyph unicode="W" horiz-adv-x="2271" d="M66 1401v22l6 7q8 0 32 8q141 0 246 6h17q13 -3 29 -4.5t21 -3t13 -9t16 -24.5q-2 -2 7 -26.5t30.5 -88t40.5 -135.5l21 -78q0 -5 15 -33t15 -47q2 -1 4.5 -12.5t5.5 -24.5t5 -16q14 -61 61 -203l17 -71q0 -1 4 -18.5t8.5 -36.5t12 -35.5t14.5 -16.5q15 0 23.5 21.5 t8.5 33.5l15 52q4 11 12.5 33.5t14 38.5t5.5 22q0 1 15.5 39t15.5 59l23 58l12 47q0 2 5.5 16t8.5 14q39 121 41 127l13 42q51 175 65 200l25 59q11 15 28 15h13q132 -8 211 -8q30 -23 49 -99l92 -291q-1 0 37 -108.5t57 -161.5l25 -76l20 -71q0 -9 17.5 -28.5t21.5 -19.5h6 q0 3 3.5 11.5t6.5 9.5q8 59 29 123l39 121q0 3 6.5 21.5t16.5 50t16 61.5l106 317q7 21 7 35l34 94q2 3 12 10t11 9h264q22 0 41.5 -9.5t26.5 -19.5v-25q-5 -27 -29.5 -92t-24.5 -98q-25 -90 -73 -211q0 -5 -6 -24.5t-9 -20.5l-36 -113q-7 -14 -37 -105t-35 -112l-21 -47 q-39 -93 -39 -123l-14 -32q0 -10 -10 -29t-10 -29q-31 -108 -75.5 -227.5t-62.5 -122.5q-198 0 -256 -6h-12q-29 8 -37 26l-129 375l-16 66q-102 298 -133 372l-2 5l-6 -5q-23 -46 -47 -133.5t-31 -107.5l-22 -59v-1l-1 -1v-2q-59 -148 -59 -167l-35 -106q0 -4 -6 -17 t-10 -14l-37 -119q-5 -13 -11.5 -33.5t-10.5 -31t-10 -22.5t-13 -19q-81 0 -105 -6h-196q-10 3 -33 26q-34 100 -107.5 313.5t-128 377.5t-100.5 317q-2 2 -14 37l-25 90q-1 3 -22.5 66t-22.5 71q-20 56 -20 111z" />
<glyph unicode="X" horiz-adv-x="1613" d="M80 12v8q3 46 39 91l47 59l45 78l65 98q6 3 29 36t23 52q11 11 50.5 70.5t55.5 87.5q13 8 32 36.5t28 53.5l12 16q1 3 9 13t16 18.5t8 9.5l22 41q0 11 6 23v10q-28 51 -74 113.5t-85 101.5l-13 23q-1 0 -6.5 7t-11.5 15t-8 10l-25 37l-68 86q0 6 -22.5 32t-28.5 40 q-48 48 -67 113v16q0 25 14 25q5 0 12 -8.5t11 -8.5t9 9.5t7 11.5h125q2 0 17 3t16 3h26q2 0 17 -3t16 -3h145l19 -6q14 0 28.5 -19t29 -45.5t22.5 -34.5l45 -69q0 -6 16 -32.5t17 -29.5l32 -37q1 -4 6 -9.5t10 -9.5l5 -3h26q23 11 46 41.5t24 58.5l35 51q43 49 59 92 q7 21 16.5 33t27.5 17.5t33.5 6.5t47.5 1h60q40 0 118 -3t117 -3h23q24 0 24 -17l-2 -8q0 -2 -3 -7.5t-3 -6.5l-27 -45q-2 -3 -23.5 -33.5t-27.5 -40.5l-74 -98q-4 -8 -32 -50.5t-33 -46.5l-18 -20l-62 -78q-3 -8 -27.5 -42t-31.5 -38q0 -17 -29 -47t-29 -51q0 -15 19 -55 l28 -33q9 -20 30.5 -49.5t29.5 -32.5q27 -33 71 -100.5t68 -98.5l29 -39q16 -16 64.5 -95.5t64.5 -94.5l78 -119q2 -4 7.5 -12.5t8.5 -13.5t5.5 -13.5t2.5 -17.5v-13q0 -8 -19 -14t-42 -6h-359q-21 0 -47 31l-26 47q-26 45 -80 129t-76 121l-74 116q-5 15 -12 15h-6 q-14 0 -27 -13t-18 -28l-41 -64q0 -3 -5.5 -13t-13 -21.5t-8.5 -14.5l-39 -65q-6 -6 -19.5 -27t-13.5 -31q-56 -93 -57 -100l-22 -37q-1 -2 -18 -20t-19 -21q0 -4 -131.5 -11t-200.5 -7h-43q-34 0 -47 26z" />
<glyph unicode="Y" horiz-adv-x="1437" d="M41 1407v23l8 16h414q22 0 37 -29t24 -33l47 -96q9 -9 31 -53l60 -113l8 -4l28 -57q15 -10 17 -17h14q-1 3 11 15.5t12 17.5l20 31q4 0 49 84.5t98.5 169t77.5 84.5h334l66 -4v-56l-27 -45l-27 -32q-47 -67 -143 -211l-162 -236q-8 -10 -16 -22t-17.5 -27t-15.5 -25 l-39 -49l-24 -55q-4 -4 -4 -10t2 -16l2 -11q0 -4 -4 -23l-4 -18v-20q0 -25 4 -264.5t4 -266.5v-6q-10 -34 -14.5 -40.5t-18.5 -12.5h-318q-7 0 -17 1.5t-22 8.5t-12 17v641l-8 43l-65 90q0 1 -7.5 10t-15.5 19t-10 12l-113 170l-10 18l-27 35q-3 1 -21 28t-20 29l-45 66 q-1 3 -16.5 26t-15.5 25q-14 24 -53 79t-56 93z" />
<glyph unicode="Z" horiz-adv-x="1470" d="M76 33q0 17 4 26t18 21l39 65q6 12 22.5 30.5t22.5 29.5q6 9 16.5 28.5t16.5 28.5l33 49q20 20 48.5 80.5t57.5 89.5q4 15 6 19l2 6q8 9 23 28.5t26.5 35t12.5 16.5q2 1 14.5 23t40.5 65.5t62 87.5q5 3 22 25.5t19 27.5l88 125l45 70q3 11 11.5 24.5t15.5 21.5l6 7v22 l-6 5l-10.5 7t-13 6t-16.5 3h-120q-36 0 -121 -6t-191 -6q-82 0 -82 28v62q0 69 9.5 148t23.5 87q92 11 260 11q92 0 180.5 -5.5t131.5 -5.5q98 0 269.5 5.5t225.5 5.5q96 0 96 -39v-13q-6 -8 -8 -10l-24 -49q-16 -9 -44 -54.5t-30 -47.5l-35 -54q-27 -54 -85 -133 t-103 -158l-47 -65l-127 -195q-168 -215 -168 -268q0 -33 26 -33h246q5 0 57 2t58 2h239l13 -12q4 -43 4 -59v-19q0 -15 -2 -101.5t-2 -103.5q-9 -10 -9 -12l-4 -6l-75 -6h-1166q-6 0 -13 4.5t-7 7.5l-1 11q-1 11 -1 14z" />
<glyph unicode="\" horiz-adv-x="862" d="M8 1452q1 0 2 3t2 6.5t2 4.5l4 -2l-4 6h131q8 0 16.5 -8.5t10.5 -9.5l537 -1151l75 -154q16 -50 37 -87.5t21 -57.5q0 -14 -35 -14q-101 0 -125 24v6q-1 1 -4 7.5t-7.5 13t-8.5 8.5q-30 70 -93 207.5t-92 206.5q-4 6 -4 8v4l-74 150l-194 415q-1 7 -22 47t-27 48l-74 157 q-21 59 -74 162z" />
<glyph unicode="a" horiz-adv-x="1308" d="M72 408v131q0 40 14.5 102t40.5 109l59 102q5 10 13.5 20.5t22.5 25t16 17.5l32 25q2 0 68 41q95 45 201 45q54 0 127.5 -26t85.5 -50l102 -102q6 -4 8 -4q4 0 5 1t2.5 6.5t4.5 10.5v19q0 6 3.5 41.5t3.5 42.5q43 24 92 24h12q1 0 6.5 -2t7.5 -2h179q1 0 9 -2t9 -2 l12 -16q11 -11 11 -15v-897q0 -17 -8 -34.5t-21 -18.5h-316q-1 0 -6 2t-6 2l-10 10v123q0 8 -12 8l-15 -12q-75 -94 -145.5 -134t-163.5 -40q-79 0 -147 23q-8 0 -21.5 7.5t-32 19.5t-32.5 18l-25 14q-84 84 -126.5 159.5t-49.5 172.5q0 3 -5 18.5t-5 16.5zM440 504 q0 -62 9 -86q2 -2 12.5 -22t11.5 -27l12 -19q0 -19 50.5 -43t78.5 -24h103q2 0 10.5 3.5t9.5 4.5q26 9 69.5 43.5t43.5 54.5l20 96v23q0 51 -16 84l-25 53q0 1 -8 8t-18.5 16.5t-14.5 14.5q-7 5 -23 16.5t-22 15t-19.5 9.5t-27.5 8t-34 2h-11q-38 0 -60 -7.5t-42 -23 t-31 -20.5l-24 -27q-5 -4 -15.5 -17.5t-11.5 -14.5l-18 -54q-1 -1 -5 -9.5t-4 -10.5v-47z" />
<glyph unicode="b" horiz-adv-x="1269" d="M96 1391v106q2 25 4 33l4 12q55 23 105 23q27 0 46 -6.5t28 -6.5h133q15 0 34 -13t19 -26v-628l4 -8h27q135 141 229 141h154q4 -3 37.5 -15t40.5 -16q8 -2 41 -18.5t38 -18.5l54 -45l49 -65q40 -57 64 -128t29 -112.5t5 -75.5v-32q0 -151 -36.5 -235t-160.5 -208 l-38 -24q-36 -22 -89 -37t-79 -15h-99q-12 0 -25.5 3t-22 5.5t-25 8.5t-21.5 8l-53 27l-19 16q-16 12 -100 96l-16 -14v-105q-17 -14 -29 -20h-295q-7 0 -18.5 7t-14.5 13v977q0 19 -2 198t-2 198zM434 516q0 -69 15 -104l24 -54q23 -39 41 -53l37 -24q13 -13 88 -13h23 q32 0 58.5 6t44 13.5t33 24.5t23.5 27.5t17.5 36t12.5 36t11 39.5v106q0 1 -8 20.5t-16.5 42.5t-8.5 33l-34 41q-55 58 -105 58h-84q-27 0 -70 -27t-63 -57l-18 -33q0 -4 -10.5 -33.5t-10.5 -38.5v-47z" />
<glyph unicode="c" horiz-adv-x="962" d="M63 483q0 122 21.5 211t91.5 158l45 45q5 4 16.5 14.5t20.5 18.5t10 8l82 47l17 4q86 37 184 37h57q20 -4 70 -6t91.5 -12t74.5 -35l20 -23q0 -3 2.5 -15t4 -27t1.5 -36q0 -223 -12 -235h-31q-21 21 -74 50.5t-87 29.5h-23q-48 0 -84 -15l-53 -28q-51 -57 -67 -103 q-11 -32 -11 -63v-8q14 -94 66.5 -155.5t132.5 -61.5h10q46 0 115 26l45 27q2 1 9 7t13.5 11.5t7.5 5.5h31q0 -3 2.5 -15.5t5 -35.5t2.5 -51v-8q0 -14 -3 -92.5t-3 -91.5q-11 -70 -280 -84h-15q-74 0 -180.5 35t-140.5 69q-91 68 -138 174t-47 223z" />
<glyph unicode="d" horiz-adv-x="1269" d="M33 508v65q0 69 39 164.5t88 136.5q7 10 27 32.5t24 23.5l57 41q2 0 22 7.5t25 8.5q3 3 40 8t51 21q46 0 73 6h21q63 -14 80 -14q2 0 18 -8t35.5 -17t28.5 -12q13 -7 23 -16.5t20 -20.5t16 -16l41 -35h22l11 12q0 94 3 237t6 251t3 116q4 29 26 39t60 10q9 0 28.5 -1 t28.5 -1h80q76 0 105 -11t32 -54v-197q0 -19 4.5 -196.5t4.5 -198.5v-858q0 -4 -1.5 -8.5t-2.5 -7t-4.5 -6l-5 -5t-6 -4.5t-5.5 -4h-111q-132 8 -211 8l-14 14q-6 17 -8 25v6q2 4 5.5 14t7 17t7.5 12q-17 0 -19 21.5t-13 21.5h-7q0 -2 -10.5 -12t-24 -24t-18.5 -23 q-53 -53 -69 -57q-2 -1 -4 -1l-50 -28q-63 -16 -88.5 -20.5t-64.5 -4.5h-43q-5 0 -31 6.5t-48.5 12.5t-21.5 6l-77 41q-27 12 -80.5 71.5t-53.5 79.5q-26 31 -42 69.5t-21.5 91.5t-6.5 79t-1 86zM395 451q0 -29 25 -78.5t74 -73.5q1 0 42.5 -16.5t67.5 -16.5h37q53 0 80 27 l33 18q22 21 30 32.5t10 25.5t5 22l20 17l10 20v133q0 1 -8 18.5t-16.5 37t-9.5 22.5q-73 92 -179 92h-24q-100 -19 -148.5 -78.5t-48.5 -173.5v-28z" />
<glyph unicode="e" horiz-adv-x="1222" d="M70 403v115q0 171 77 268l21 33q18 29 58.5 69.5t60.5 51.5l61 34q45 23 58 23h2q16 0 55 15.5t59 15.5l5 -1q5 -1 10 -1q22 6 90 6q246 0 372 -137q5 -5 16.5 -18t21 -24t12.5 -13l12 -23q0 -18 12 -40t30 -47.5t25 -39.5q29 -110 29 -198v-31q-2 -10 -12 -18.5 t-27 -8.5h-471q-89 0 -125 6h-18q-5 -1 -15 -2t-14.5 -1.5t-12 -2t-11.5 -2.5t-9 -3t-7.5 -4t-5.5 -5.5t-4 -7.5t-1 -9v-4q0 -74 45 -108q1 -1 9.5 -7t10.5 -8l33 -26q1 0 6 -2t7 -2q27 -10 71 -10q88 0 158 73q0 3 16.5 7.5t16.5 7.5h331q1 -2 11 -7.5t10 -21.5l-4 -12 l-12 -37q-5 -5 -5 -15l-43 -59q-32 -42 -84.5 -89.5t-66.5 -47.5q-15 -15 -94.5 -38.5t-155.5 -27.5h-156q-65 0 -84 21l-82 24q-2 0 -7 2.5t-5 3.5l-39 27l-39 21q-87 46 -144.5 152t-57.5 183zM428 676q0 -20 23 -31q30 -6 135 -6h190q4 0 10.5 4.5t6.5 7.5v17 q0 31 -10 54t-28.5 37t-34.5 22.5t-38 16t-29 11.5h-59q-9 -2 -38 -5t-42 -9l-20 -13l-43 -45l-15 -24q-8 -24 -8 -29v-8z" />
<glyph unicode="f" horiz-adv-x="866" d="M43 707v200q0 38 6 56l14 10h97q16 0 20 4l13 22q0 136 13.5 227t59.5 173l17 26l75 66l21 12q2 3 37 17l45 18q18 8 43 10.5t58.5 2.5t49.5 1h84q3 0 15.5 -4.5t15.5 -5.5q51 0 66.5 -22t15.5 -76v-180q-3 -23 -23 -23h-10q-9 2 -39 12.5t-47 10.5q-25 0 -44.5 -8.5 t-31.5 -18.5t-20.5 -33t-12.5 -35.5t-6 -44.5t-2 -42v-44v-45l17 -20q92 -8 127 -8q57 0 67 2l19 -19q6 -6 6 -20v-236l-14 -16l-11 -4h-194q-4 0 -9 -9t-8 -12v-637q0 -8 -20 -13t-37 -5h-278q-13 0 -25 6l-12 12q-8 16 -8 19v65q0 75 4 227t4 228v74q0 49 -78 49h-25 q-48 0 -55 31z" />
<glyph unicode="g" horiz-adv-x="1300" d="M72 418v186q0 1 4 10.5t4 10.5q0 64 42.5 137.5t80.5 109.5l57 54l23 14l77 37l58 20q3 1 10 3t12 4t6 2h158q24 -17 78 -31.5t88 -44.5l78 -70q13 3 18.5 28.5t7 50t3.5 24.5q3 3 108.5 8.5t153.5 5.5h37q9 0 15.5 -2.5t13 -7t12.5 -6.5v-166q0 -17 -5.5 -183t-5.5 -184 v-217q0 -172 -22 -330l-45 -104q-8 -11 -27 -32.5t-54.5 -52.5t-60.5 -40l-77 -41l-99 -29q-3 0 -20 -3t-41 -7.5t-31 -5.5h-24q-6 0 -36.5 -2t-31.5 -2h-111q-6 0 -31 5t-34 5l-60 14q-50 13 -86 33l-71 43q-10 0 -36 27.5t-30 27.5l-41 52q-39 56 -39 127v22l13 4h327 l23 -4q20 -36 68 -73.5t89 -37.5q13 0 44.5 7.5t54.5 7.5l53 28l25 25l26 43q31 28 31 127v119q-2 6 -4 8h-17q-38 -62 -122 -107t-185 -45q-5 0 -44.5 2.5t-45.5 2.5l-53 16q-113 33 -191 117l-40 45q0 1 -5 10t-11.5 20.5t-8.5 16.5l-27 51q0 5 -13 56t-13 61zM444 512 q0 -98 48.5 -160.5t136.5 -75.5h10q47 0 123 33q23 25 41 29l37 51q1 0 9 16t15.5 39.5t7.5 40.5v31q0 55 -10 78l-22 43l-13 16l-41 43q-66 39 -112 39h-21q-53 0 -106 -22t-53 -43q-50 -50 -50 -158z" />
<glyph unicode="h" horiz-adv-x="1193" d="M96 33v356q0 23 3 241t3 242v598q0 27 5.5 53.5t13.5 30.5l35 15h16q25 -6 112 -7t132 -8q23 0 35.5 -4t14.5 -9t4.5 -15.5t6.5 -16.5v-79q0 -66 -3 -201t-3 -203v-63q0 -68 12 -68h11q11 0 31.5 17.5t27.5 17.5l61 47q12 13 62.5 27t81.5 14h119q6 0 36 -8.5t39 -12.5 l31 -12q9 -12 57 -41l60 -63q18 -36 18 -41q4 0 5.5 -8.5t3 -20t6.5 -16.5l12 -60q0 -162 8 -434v-287l-29 -14h-331l-13 14v64q0 12 2 109t2 108v262q-9 101 -41 133q0 5 -9 14.5t-35 20t-62 10.5q-35 0 -67.5 -11t-59.5 -44.5t-27 -85.5q-10 -68 -10 -172q0 -368 4 -402 q-2 -6 -6 -10.5t-10 -7t-11.5 -4t-14.5 -2t-14 -0.5h-15.5h-14.5h-264q-5 0 -11 1.5t-13 10.5t-7 25z" />
<glyph unicode="i" horiz-adv-x="579" d="M82 1323q0 43 14 78q2 4 6.5 13.5t8.5 17.5t4 10q1 1 9.5 10.5t16.5 17t18.5 17t20 15t15.5 5.5l38 13l27 10h78q17 -6 26 -11t19 -12t23 -14l45 -39q6 -5 10.5 -10t9.5 -12.5l8 -12t7 -14t6 -13t6.5 -14.5t5.5 -14v-74q-9 -70 -70 -121t-141 -51q-60 0 -98 23l-35 20 l-25 25q-53 65 -53 137zM90 18v84q0 11 3 117.5t3 118.5v547q0 30 8 78l5 10h335q7 0 20 -8.5t13 -20.5v-926l-18 -20h-4q-12 0 -95 -4t-112 -4h-125l-19 8q-9 4 -14 20z" />
<glyph unicode="j" horiz-adv-x="575" d="M90 -356q0 16 3 178.5t3 181.5v885l6 74q2 2 10 6t9 4h307q20 0 29 -6q11 0 14.5 -47t4 -110.5t3.5 -82.5v-10q-8 -5 -8 -49v-1157q-4 -11 -8 -13l-12 -12h-236q-30 0 -94 8q-8 0 -14 2.5t-8 5.5t-5 8t-4 7v127zM90 1276v100q4 22 31 66l59 57q6 0 36 15.5t38 15.5h84 l39 -17q48 -20 88.5 -69t40.5 -123q0 -66 -27 -102l-35 -48q-7 -10 -28 -18l-33 -20q0 -5 -35 -9t-61 -4q-80 11 -127.5 45t-69.5 111z" />
<glyph unicode="k" horiz-adv-x="1286" d="M96 33v1298l8 185q0 3 1 5.5t3.5 5t5 4.5t7 5.5t6.5 5.5h311q25 -15 25 -33l8 -125v-776h12l74 66l37 55l192 232q7 2 9 2l22 14h168q10 0 104.5 4t104.5 4h31q4 0 16 -8v-4q0 -16 -76 -92l-131 -140q-28 -37 -79 -83.5t-82 -80t-31 -61.5q0 -29 82 -111l2 -2l2 -2l2 -2 q6 -3 31 -28.5t28 -32.5l39 -43l121 -117l70 -80q1 -2 9.5 -8.5t16.5 -14t14.5 -22t6.5 -30.5l-2 -19l-2 -4l-21 -4h-348q-47 0 -80 8l-94 115l-18 24q-18 24 -19 29l-20 18l-101 119l-57 72l-25 25h-8q-2 0 -5 -3t-3 -4v-104q0 -3 4 -47.5t4 -52.5v-181q0 -18 -59 -18h-289 q-10 2 -12 4l-7 4q-1 3 -3 10t-3.5 12.5t-1.5 6.5z" />
<glyph unicode="l" horiz-adv-x="569" d="M96 18v1457q0 18 6 42.5t17 24.5h332q1 -2 8 -8.5t12.5 -15t5.5 -19.5v-1411q0 -34 -6 -70q0 -6 -4 -10.5t-9.5 -7.5t-6.5 -4h-324q-8 0 -16 8q-4 0 -9.5 5.5t-5.5 8.5z" />
<glyph unicode="m" horiz-adv-x="1894" d="M96 18v936l6 17q10 10 17 10h264q15 0 47 -8l6 -2q8 -18 8 -74q0 -39 -4 -47q5 0 17 -12h4q12 10 16 12l31 39l65 61q1 0 12 5.5t24.5 11t19.5 6.5q73 34 155 43h25q10 0 53.5 -10.5t55.5 -10.5l57 -24q11 -6 27 -22.5t18 -18.5q18 -32 45 -72.5t35 -40.5h8q3 1 6.5 8.5 t3.5 12.5l15 20q49 63 106 96q9 11 45 25.5t37 15.5q82 21 137 21q34 0 88 -12l80 -31q23 -13 31 -19l41 -24q13 -8 34.5 -35.5t45.5 -90t24 -132.5v-647q0 -7 -8 -15l-25 -14h-40q-45 0 -156 4t-119 4h-6l-14 14v41q0 55 4 164t4 160v8q-12 243 -12 256q0 5 -8.5 15.5 t-8.5 13.5q0 4 2 4l-26 27l-25 18l-12 6h-68q-66 -4 -108.5 -53.5t-42.5 -95.5v-564l-9 -8q-3 -2 -124.5 -8t-159.5 -6h-35l-21 8q-9 0 -14.5 10t-5.5 21v28q0 52 4 159t4 159v96q0 31 -0.5 48t-2.5 48t-6.5 49t-14 41.5t-22 36.5t-33 22t-46.5 9q-47 0 -94 -18 q-6 0 -31.5 -28t-32.5 -32q0 -6 -7 -20t-14 -49.5t-7 -94.5v-20q0 -66 5 -197t5 -194v-8q0 -6 -5 -28t-5 -24l-10 -14q-8 -8 -15 -8h-315q-8 6 -12 8zM1030 883q0 -9 2 -9q6 0 6 9q0 4 -4 6q-4 0 -4 -6z" />
<glyph unicode="n" horiz-adv-x="1232" d="M95.5 24.5q-0.5 4.5 0 13.5t0.5 11v31q0 101 4 147v738l4 6q33 10 56 10q83 0 268 -10l6 -6l12 -15v-119q0 -5 9 -14h6l12 14q4 7 30.5 41t31.5 39l32 27q3 3 36 20t36 17q22 12 40.5 18.5t30 8t34 3.5t40.5 5h19q88 -2 164.5 -33.5t109.5 -83.5l29 -45q32 -55 37 -143 v-685q0 -8 -6 -14t-15 -6h-334l-12 12v563q0 31 -9.5 65t-25.5 50l-2 4q-5 0 -32 17.5t-45 17.5h-11q-14 0 -36 -3t-23 -7l-53 -25q-5 -3 -26 -23.5t-28 -29.5v-1q-24 -21 -24 -280q0 -7 4 -75t4 -76v-72q0 -5 2 -37t2 -34q0 -66 -24 -66h-330l-15 4q-4 4 -6 10t-2.5 10.5z " />
<glyph unicode="o" horiz-adv-x="1292" d="M70 479q0 187 57 273q72 110 86 118l25 19q3 2 17.5 17t16.5 16l74 41q34 17 78 32q11 2 47 11.5t85.5 12.5t156.5 3q87 0 129 -18l41 -21q2 -1 14.5 -6t23.5 -9.5t13 -4.5l82 -41l45 -37l47 -47l20 -29l12 -14q11 -14 11 -19q33 -42 53.5 -115.5t20.5 -123.5v-21 q0 -119 -36 -206.5t-104 -174.5l-18 -16q-10 -11 -31.5 -32t-27.5 -24q-3 0 -25 -14t-51.5 -30.5t-48.5 -20.5q-82 -23 -123.5 -29t-108.5 -6q-84 0 -144.5 9t-144.5 38l-30 15q-9 0 -29.5 15t-37 29t-17.5 13l-80 78q0 5 -27 41q-71 110 -71 278zM444 438q0 -60 60.5 -116 t122.5 -56h37l53 6l67 33l13 12l20 33q41 71 41 101v43q0 57 -8 75l-33 66q0 4 -19 25.5t-28 25.5l-31 21q-46 20 -59 20h-53q-20 0 -82 -29t-62 -59l-24 -49q-5 -3 -10 -23t-5 -30v-99z" />
<glyph unicode="p" horiz-adv-x="1275" d="M96 -512v1464q0 6 9.5 12.5t15.5 6.5h106q85 0 209 -8q6 0 12 -9.5t7 -9.5v-104q6 -9 8 -9h20q16 53 101.5 107.5t167.5 54.5h36q63 0 119 -16l80 -25q29 -10 62 -43l75 -69l14 -16q15 -15 34.5 -45t25.5 -58l14 -31q0 -1 4.5 -17.5t9 -37t5.5 -31.5l14 -57v-62 q0 -113 -22 -190l-17 -59q-3 -4 -20.5 -37t-22.5 -41l-22 -39l-80 -78q-21 -17 -27 -21l-51 -34q-1 0 -3.5 -1t-6.5 -2.5t-6 -2.5l-78 -25q-16 -8 -31 -8h-119q-20 0 -50.5 7t-41.5 13l-74 53q-2 2 -22.5 23t-38 38.5t-23.5 22.5h-6q-12 -4 -12 -26v-584q-10 -24 -27 -24 h-303q-45 0 -45 18zM444 483q0 -46 17 -95t47 -79l33 -26q8 -6 36.5 -19.5t36.5 -13.5h13q18 0 50 5t42 5l74 41q9 14 31 39.5t30 45t8 52.5v39q0 107 -22 139l-43 46q-41 47 -115 47q-87 0 -138.5 -31t-86.5 -107q-4 -6 -5.5 -17t-3.5 -29t-4 -31v-11z" />
<glyph unicode="q" horiz-adv-x="1261" d="M31 494q0 49 18 168q0 3 4 11.5t4 10.5q31 80 66 145l59 74l54 37q26 26 79 38.5t68 20.5q14 0 68 9h28q131 0 242 -90q10 -8 37.5 -40t48.5 -42l6 4q4 16 7 58.5t7 64.5l4 4l13 6h284q21 -6 25 -6l8 -4l4 -15v-1452q0 -8 -4 -20l-8 -4q-1 0 -8.5 -5.5t-9.5 -5.5h-285 q-4 2 -17.5 6.5t-24.5 10t-15 14.5v64q0 59 2 172.5t2 169.5v65q0 141 -15 141q-16 0 -67 -57q-31 -30 -79 -53.5t-95 -30.5h-142q-22 0 -47.5 8t-42.5 17t-44 24t-38 21q2 6 -20.5 24.5t-56 52.5t-52.5 70l-16 31q-51 142 -51 283zM406 489q0 -103 45 -151l32 -35 q5 0 52 -20.5t81 -20.5h13l65 17q5 0 14.5 5t25 15t28.5 16l22 33q43 59 43 146q0 90 -60.5 154.5t-158.5 64.5q-21 0 -45.5 -9t-46.5 -12l-24 -16q-4 -4 -17.5 -18t-20 -21t-17.5 -21t-16.5 -24.5t-10 -24.5t-4.5 -28v-50z" />
<glyph unicode="r" horiz-adv-x="927" d="M96 25.5v10v9.5v27q0 91 4 127v753l1 4q1 4 3 7t5.5 6.5t10.5 5.5t17 2h41q4 0 46 -2t48 -2h123q39 0 39 -21q-4 0 -4 -2q0 -8 6 -37.5t12 -56.5l7 -27h14q12 13 41 45t43.5 45.5t40 30.5t51.5 23l60 20q35 6 98 6h45q2 0 13.5 -5.5t12.5 -8.5l13 -22q0 -43 8 -123v-156 q-22 -22 -31 -22q-5 0 -47 14q-15 6 -41 8.5t-46.5 4.5t-24.5 7h-21q-2 -2 -88 -24l-57 -41q-26 -17 -40 -53t-16 -72q-6 -16 -7.5 -44.5t-2.5 -104t-4 -146.5v-6q0 -3 2 -35.5t2 -36.5v-110q0 -10 -16.5 -18.5t-34.5 -8.5h-303q-6 1 -10 2.5t-6.5 5t-4 6t-2 8t-0.5 8z" />
<glyph unicode="s" horiz-adv-x="980" d="M70 96q0 58 73 195l17 18q2 0 10.5 1t9.5 1l27 -11q27 -10 53 -24l35 -20q43 -22 63 -25l80 -14h54q27 0 57.5 24t30.5 48q0 25 -11 47l-24 18q0 11 -20.5 18t-56 11.5t-38.5 5.5q-141 27 -240 84q-2 0 -5 3.5t-3 4.5l-32 37q-7 10 -7 12l-32 76l-9 19v92q0 9 18 66 t23 57l39 59l33 33q61 57 143 76.5t191 19.5q21 0 69 -10t68 -10q5 -2 35.5 -8t32.5 -7l65 -20q21 -6 21 -41v-17q0 -12 -11 -30l-34 -123q0 -6 -15 -20l-14 -13h-12q-27 0 -96 28.5t-107 28.5h-14l-54 -20l-20 -8q-12 -15 -12 -39v-12q0 -1 16 -16t16 -21q9 0 24.5 -11 t43 -22.5t65.5 -11.5q15 -4 58.5 -10.5t64.5 -16.5l80 -39q1 0 7.5 -7.5t14.5 -15.5t11 -10l12 -20q1 -14 12.5 -38t23 -58t11.5 -74v-31q-5 -88 -18 -115l-41 -77q-18 -30 -45 -54l-27 -18q-4 -2 -14 -9t-18 -12.5t-9 -5.5l-45 -18q-1 0 -11.5 -5t-23.5 -10.5t-18 -5.5 l-135 -20h-113q-3 0 -28 2t-31 2q-28 0 -80 20.5t-72 20.5q-110 54 -110 68q0 2 -1 14t-1 14z" />
<glyph unicode="t" horiz-adv-x="839" d="M45 731v203q0 12 6.5 25.5t14.5 13.5l12 8h104q13 4 13 6l16 17v36q0 26 -4 79t-4 79v8q0 44 24 68h336q21 0 27 -34.5t6 -98.5q0 -124 -2 -133q6 -4 12 -25q1 -3 2 -2h140q21 0 33.5 -15.5t13.5 -15.5q0 -39 4 -110t4 -103q0 -53 -41 -53h-158l-10 -4q0 -2 -1 -7.5 t-1 -8.5v-60q0 -89 1 -267t1 -267v-35q-2 -13 -2 -17l-8 -14q0 -5 -16 -10l-17 -4h-6q-147 6 -309 6q-19 8 -25 29v378q0 131 6 191v24q-1 7 -2 16.5t-1.5 14.5t-2 11t-2.5 9t-3 6t-4.5 4t-6.5 1h-103q-47 0 -47 51z" />
<glyph unicode="u" horiz-adv-x="1228" d="M86 406v555q0 3 7.5 8.5t10.5 5.5h101q5 0 64 5t65 5q2 0 23.5 -5t23.5 -5h49q14 0 31 -25v-544q0 -14 18 -68l13 -23l36 -39q1 -2 12 -7t28 -9t30 -4q75 0 119.5 45.5t44.5 112.5v530q0 23 20 32t70 9h270l21 -14v-545q0 -2 -7 -58t-11.5 -79.5t-17.5 -66.5t-32 -72 q-16 -35 -41 -58t-51 -38.5t-33 -22.5q-13 0 -30.5 -13.5t-22.5 -13.5l-10 -4q-121 -47 -201 -47h-141q-21 4 -59.5 10t-61 10.5t-55.5 12t-56 18.5t-50 27t-50 39.5t-43 54.5q-39 58 -39 63l-27 80l-4 23q-5 23 -9.5 56.5t-4.5 58.5z" />
<glyph unicode="v" horiz-adv-x="1212" d="M49 920v45q18 6 89 11t145 5h102q14 -4 27 -22t14 -19l12 -33q0 -1 3 -10t3 -10l15 -66q36 -165 80 -262l30 -98q1 -2 3.5 -8.5t5 -10.5t6.5 -4h6q0 2 2.5 6.5t3.5 4.5l27 51l14 47q6 38 17.5 77.5t19.5 47.5l33 65q8 8 8 17l20 53q1 2 5 13t8 21t4 11l28 68 q5 26 19 45.5t32 19.5h9q5 0 51.5 -2t52.5 -2h45q60 0 152 -8q5 0 8 -2t8.5 -8t9.5 -9v-6q0 -23 -13 -60.5t-34 -66.5l-33 -84l-32 -65l-45 -105l-21 -39q-3 -11 -32 -73t-35 -72l-50 -111q-20 -40 -20 -47l-80 -170q-1 -1 -4.5 -9.5t-4.5 -11.5t-4.5 -10t-6.5 -10t-7 -7.5 t-8.5 -7t-9.5 -3.5q-9 0 -60 -4t-61 -4h-49q-9 0 -70.5 4t-74.5 4l-13 12l-18 51q-22 46 -53 123q-2 2 -16 44t-19 53q-4 16 -15.5 44.5t-20.5 49.5t-9 22q-86 243 -152 402q0 21 -23.5 66.5t-23.5 56.5z" />
<glyph unicode="w" horiz-adv-x="1918" d="M63 961l3 20l20 6q174 6 248 8h26q21 0 37.5 -5t26 -11t17.5 -18.5t11.5 -20.5t9.5 -26t9 -25l37 -96q14 -18 31 -76l20 -58q0 -4 7 -23.5t9 -21.5l15 -41q7 -11 15.5 -48.5t23.5 -47.5q24 9 86 182q3 17 20.5 62.5t34.5 82.5l16 38l31 92q5 15 23 33l20 20q2 2 14.5 5 t18.5 3h162q21 -13 32 -28t21 -45t14 -39q34 -82 52 -144q1 -4 16.5 -39t15.5 -41l15 -32q2 -6 7 -24.5t10.5 -34.5t12 -33.5t14 -28t15.5 -10.5q14 0 27 32l18 58q11 48 46.5 121t47.5 110l11 33q18 31 28 67t19 55.5t30 31.5h92q2 0 24 2t24 2h12q3 0 30.5 -2t30.5 -2h117 q9 0 15 -10t6 -21q0 -40 -15 -74.5t-44 -84.5t-48 -101q-22 -30 -42.5 -95.5t-43.5 -95.5l-31 -78l-20 -41q0 -2 -7 -16.5t-8 -15.5l-32 -72q-17 -50 -21 -53l-45 -92l-24 -66q-37 -73 -50 -85q-10 -7 -18 -7h-242q-4 0 -11 8.5t-15.5 26t-17 36.5t-20 48t-20.5 52.5 t-21.5 57.5t-20 55t-19 53.5t-16.5 45.5q-4 3 -12.5 24t-8.5 25q0 16 -14.5 38t-14.5 30l-63 -164q-17 -34 -38.5 -93t-29.5 -79l-26 -58l-4 -20q-4 -9 -9 -22.5t-8 -21t-7 -16.5t-7 -14t-7 -9.5t-8.5 -6.5t-9.5 -2h-247q-2 0 -12.5 10.5t-16.5 17.5q-2 0 -6 13t-11.5 33 t-15.5 32q2 0 -8 19t-23.5 46.5t-17.5 43.5l-133 291q-8 29 -53 134.5t-84 178.5l-33 80q-15 25 -15 72zM735 664h4v8h-4v-8zM944 524q0 -18 8 -18h4q0 19 -12 31v-13z" />
<glyph unicode="x" horiz-adv-x="1507" d="M86 23q0 29 14 36l27 37l39 29l20 29l72 77q9 12 79 80.5t87 83.5l61 78l17 21v14q0 25 -8 31l-91 100q-22 23 -148 147.5t-146 145.5q-11 9 -11 31l2 10l19 22h16q23 0 31 -10q63 0 191.5 -2t193.5 -2l61 -61q4 -2 39 -54q19 -25 52.5 -54.5t46.5 -29.5q34 0 45 25 l43 55q2 3 30.5 35.5t38.5 42.5q6 6 13.5 14t11 11.5t8.5 8t8 6t8.5 3t11 2t13.5 0.5h182q5 0 44 5t44 5h2q24 -4 47 -6t36 -2.5t24.5 -1.5t17 -3.5t8.5 -8.5q0 -9 -6 -12l-18 -29q-12 -6 -42 -37.5t-54 -59.5l-23 -28l-137 -143q-83 -83 -109 -125v-33q2 -4 15 -21t20 -24 l74 -72l90 -98q14 -12 42 -43t30 -35l16 -20l127 -134q3 -1 8.5 -8.5t5.5 -9.5v-23q0 -22 -182 -22h-231l-25 6q-1 0 -10.5 10t-22.5 23.5t-20 19.5l-60 70q-2 6 -35.5 45t-35.5 43q-5 5 -14.5 17.5t-17.5 22t-13 9.5h-27q-6 0 -6 -4l-29 -33q-1 -5 -25.5 -34.5t-31.5 -36.5 q0 -2 -4.5 -7.5t-10 -12.5t-6.5 -9q-1 -1 -33 -42t-55 -64t-36 -23h-281q-101 0 -113 6l-12 6q-2 11 -2 15z" />
<glyph unicode="y" horiz-adv-x="1339" d="M72 956v17q0 2 5.5 5t15 5t20.5 2h6q4 0 42 -2t42 -2h35q5 0 42.5 2t41.5 2h127q26 -21 53.5 -89t44.5 -93l37 -98l22 -48q0 -3 7 -20.5t15 -36t9 -20.5l14 -29q2 -3 8.5 -22t15 -34.5t19.5 -15.5q14 0 42 54.5t53 113.5t28 62q20 57 56.5 125.5t62.5 109.5t29 41h288 q62 0 62 -45q0 -40 -23 -75q-5 -8 -12 -15l-545 -1026q-10 -30 -42 -82t-42 -80l-67 -125q-23 -45 -45 -53q-180 -8 -295 -8h-6q-16 0 -56 8q-4 4 -4 8v31l4 14q5 6 17.5 29t30 56.5t26.5 49.5l35 60l24 53q0 3 45 84l113 217l6 18v50q0 9 -18 39q-84 147 -111 202 q-7 11 -63.5 125t-63.5 125l-90 170q-61 85 -61 141zM418 -195v-14h10q0 14 -10 14z" />
<glyph unicode="z" horiz-adv-x="1173" d="M76 4v21q60 90 78 125l41 61l110 170q17 19 21 25l24 32q11 14 66 101q13 16 67 102l6 12v21q-7 10 -26 10h-236h-15t-11 1t-8.5 1t-6 3t-4.5 4.5t-3.5 7t-3 8.5t-3 11.5t-4.5 14.5v6q4 62 4 215q13 29 33 29h858q10 -4 10 -8l10 -6v-27q0 -1 -2 -3.5t-4.5 -5.5t-3.5 -5 q0 -8 -22.5 -38t-22.5 -32l-24 -33q-34 -42 -132 -186l-30 -33q-12 -13 -29 -45t-29 -47q-33 -41 -77.5 -107t-44.5 -87v-7q0 -14 8 -14l55 -6h324q4 0 11 -12t7 -23v-246q0 -7 -6.5 -10.5t-11.5 -3.5h-953q-2 0 -10.5 2t-9.5 2z" />
<glyph unicode="|" horiz-adv-x="350" d="M90 53q0 56 6 74v1337q1 1 3 6.5t5.5 9t10.5 3.5h131l-6 -6l8 2l12 -15q0 -2 -1 -19t-1 -30q0 -24 1 -68t1 -49l-2 -159q0 -5 -2 -49.5t-2 -49.5l2 -426l-6 -157l4 -6q1 -48 1 -135t1 -156.5t4 -132.5q-6 -9 -6 -31l2 -6l-2 -2l-5 -5l-4.5 -4.5l-4 -4t-0.5 -1.5 q-17 0 -52.5 -4t-44.5 -4q-36 0 -44.5 18.5t-8.5 69.5z" />
<glyph unicode="&#xa2;" horiz-adv-x="899" d="M25 729q0 57 8 103.5t17.5 77.5t32.5 66.5t38.5 54t51 58.5t54.5 62l111 57l61 17q5 6 18 7.5t23.5 2.5t10.5 6l26 12q2 0 8.5 9t6.5 16v158q0 12 4 20l8 8q15 11 112 11h2q43 0 58 -31v-182q0 -11 7 -15.5t17.5 -5t25.5 -6t26 -16.5l61 -23q8 -5 12.5 -10t8 -13t4.5 -10 v-270q0 -3 -3.5 -5.5t-5.5 -2.5l-12 -4q-20 6 -24 12l-27 16q-37 31 -47 31h-33l-6 -10q-3 0 -5.5 -5t-2.5 -7v-388q0 -10 8 -14h14q18 4 68.5 31.5t54.5 27.5q25 0 25 -219q0 -36 -9.5 -59t-39.5 -37l-66 -20q-11 0 -33 -10t-22 -19v-215q0 -16 -17.5 -26.5t-38.5 -10.5 h-104l-16 8l-13 13v223l-20 20l-80 17q-18 12 -51 21t-51 20l-33 20l-21 14l-84 84l-41 52q-35 57 -56 132.5t-21 145.5zM373 729q0 -53 29 -115.5t69 -62.5q5 0 13 4t8 8v357q-23 0 -46.5 -19t-31.5 -41l-35 -65q0 -3 -3 -21t-3 -24v-21z" />
<glyph unicode="&#xa8;" horiz-adv-x="897" d="M86 1296v62q2 0 10.5 22.5t23 45t30.5 22.5q0 2 5 4t11 4t10.5 4t3.5 4h19l18 2h39q2 -3 22.5 -9.5t32.5 -26.5q8 -5 17 -15t19.5 -36.5t10.5 -59.5v-23q0 -3 -6 -13.5t-6 -18.5l-8 -7q0 -3 -7 -10t-16 -15.5t-12 -12.5l-12 -7q-3 -7 -20 -11.5t-27 -4.5h-21 q-88 0 -102 43l-17 14q0 7 -5.5 18t-10 18t-2.5 7zM539 1362l51 74q0 1 12 8.5t23.5 14t11.5 5.5h16l21 2h39q1 -3 19 -9.5t18 -8.5q5 0 20 -16t30 -48t15 -65v-23q0 -3 -6 -13.5t-6 -18.5l-8 -7q0 -6 -11 -20t-34.5 -27.5t-51.5 -13.5h-18q-93 0 -105 43l-14 14 q0 9 -5 19.5t-10 17.5l-5 6v66h-2z" />
<glyph unicode="&#xab;" horiz-adv-x="1615" d="M31 549v4q1 5 8 16t8 13l121 69q7 5 19 16.5t16 14.5l80 45q283 180 362 227h2q5 0 20.5 11.5t32 25.5t21.5 17q8 3 23.5 9.5t25 10.5t23 7.5t24.5 4.5q1 -4 3 -5.5t4 -1t3.5 -1t1.5 -6.5h7l-7 -217q0 -15 -16 -26.5t-38 -20t-25 -10.5l-21 -17q-16 -8 -27 -8l-73 -45 q-22 -14 -48.5 -31t-38.5 -24.5t-26.5 -16t-23.5 -11t-19 -3.5l-55 -29q-1 0 -5 -2.5t-7 -3.5l2 6q-2 -5 -13 -22l4 2q1 0 2 -1t2 -1l3 -15l2 5l18 -19h4q9 0 26.5 -11t41 -29.5t26.5 -20.5h4q8 0 35 -17.5t31 -21.5h8q10 0 30 -10t35.5 -20.5t41.5 -29t32 -22.5 q6 -3 16.5 -4t14.5 -4l43 -31q1 0 3 -2t3 -2q0 -1 -2 -2t-2 -2h10l9 -21v-246q0 -2 -6 -9t-11 -7h-2q-13 0 -22 14q-27 10 -57.5 27.5t-51 32t-55 40.5t-51.5 38q-4 4 -17 13t-16 9l-221 150h-9q-20 16 -80.5 53t-76.5 55h-6l-105 70q-5 5 -11.5 19t-6.5 24zM717 549v4 q0 4 6.5 15t7.5 14h6q4 3 62 38.5t88 61.5l80 45q283 180 362 227h2q9 0 76 54q74 30 96 32q1 -4 3 -5.5t3.5 -1t2.5 -1t1 -6.5h7l-4 -217q0 -15 -16.5 -26.5t-39.5 -20t-26 -10.5l-21 -17q-12 -8 -27 -8l-71 -45q-13 -8 -28.5 -18.5t-25 -16.5t-21.5 -13.5t-19 -11.5 t-15.5 -9t-14 -7.5t-11.5 -5t-10.5 -3.5t-8.5 -1l-55 -29q-9 0 -16 -14l6 14q-8 -9 -13 -22l2 2q0 -2 2 -2l3 -15l6 5l12 -11l2 -8h6q16 0 92 -61h4l14 -7q52 -25 54 -32h6q8 0 20.5 -5.5t30.5 -16.5t31.5 -19t34.5 -22.5t27 -18.5q6 -3 14 -4t12 -4l43 -31q8 0 8 -4 q-4 -2 -4 -4h8l9 -21v-246q0 -2 -5 -9t-8 -7h-4q-5 0 -13 5t-11 9q-27 10 -57 27.5t-50.5 32t-56 40.5t-51.5 38q0 3 -15 12.5t-18 9.5l-221 150h-4q-25 19 -86 53.5t-76 48.5l-4 6h-4l-99 70q-6 5 -13 19t-7 24z" />
<glyph unicode="&#xad;" d="M96 338v270q0 7 4.5 20t8.5 13q3 0 16.5 2t15.5 2q13 0 22 -1t12 -2t6.5 -3t4.5 -2q0 2 4 7t5 5h10q11 0 40.5 -2.5t33.5 -5.5h14q10 10 39 10q6 0 19.5 -1t19.5 -1q14 0 20 4l98 -4q5 0 14 -10t13 -10h6q7 0 21 8t26 8q5 0 22 -8t23 -8h27l10 -4h23q12 0 18 4q1 0 8 -18 t7 -21v-242q0 -4 -3.5 -8t-11 -9.5t-10.5 -8.5h-344q-44 -7 -178 -7q-49 0 -64 23z" />
<glyph unicode="&#xbb;" horiz-adv-x="1615" d="M96 20v246l8 21h9l-2 4q0 4 8 4l41 31q4 3 13 4t15 4q6 4 25.5 17.5t33 22.5t30.5 20t30 16.5t21 5.5h8q3 0 28.5 19.5t38.5 19.5h3q2 1 28 21t43 30t25 10h4l2 8l14 11l2 -5l2 5l2 10q0 2 2 2q5 -2 7 -2q-1 1 -15 22l4 -14q-1 5 -6.5 9.5t-7.5 4.5h-4q-2 1 -24.5 14 t-24.5 15q-5 0 -26 9t-27 13q-1 2 -21 13.5t-45.5 26.5t-36.5 24l-76 45q-18 4 -22 8l-23 17q-3 2 -26 10.5t-39.5 20t-16.5 26.5l-4 217h8q0 5 1 6.5t2.5 1t3 1t2.5 5.5q22 -1 96 -32q3 -2 34.5 -28t39.5 -26q121 -72 366 -227l80 -45l33 -31q48 -25 119 -69h4 q13 -27 14 -29v-4q0 -10 -6 -24t-12 -19l-99 -70h-6l-4 -6q-15 -14 -75 -48.5t-85 -53.5h-6l-223 -150q-20 -14 -73.5 -54t-93 -65t-79.5 -41q-14 -14 -24 -14h-2q-4 0 -9.5 7t-5.5 9zM782 20v246l11 21h4l-2 4q0 4 8 4l41 31q4 3 13.5 4t14.5 4l115 72q3 0 14.5 5t14.5 5h4 q3 -1 28 19t39 20h7q51 44 92 61h4l16 19l2 -5l2 5l7 12l2 -2q0 3 -13 22l4 -14q-1 5 -6.5 9.5t-7.5 4.5l-55 29q-11 0 -26 7t-29 15.5t-44.5 28.5t-54.5 35l-72 45q-14 0 -26 8l-19 17q-3 2 -28.5 11t-41.5 20t-16 26l-2 217h4q0 5 1.5 6.5t3.5 1t3.5 1t2.5 5.5 q12 -1 25.5 -4.5t23.5 -7.5t26 -10.5t23 -9.5q3 -2 20 -16.5t33 -26t23 -11.5q61 -36 362 -227l80 -45q23 -19 48 -35.5t56.5 -35.5t47.5 -29h4q14 -19 14 -29v-4q0 -11 -5.5 -25t-12.5 -18l-99 -70l-8 -6q-18 -14 -75.5 -47.5t-86.5 -54.5h-6l-219 -150q-3 0 -17.5 -9.5 t-15.5 -12.5q-14 -10 -51.5 -37.5t-57 -41t-50.5 -31.5t-58 -28q-9 -14 -24 -14h-2q-1 0 -7 7t-6 9z" />
<glyph unicode="&#xc0;" horiz-adv-x="1552" d="M59 707v223q0 13 7 19t14 6.5t24 0.5q29 0 57.5 3.5t43.5 3.5q8 5 11 32.5t4.5 67t4.5 57.5q0 25 9.5 58.5t25.5 77.5t23 69l20 33l47 53q10 12 51 53q7 0 29.5 16.5t30.5 16.5l98 33l29 2q28 2 39 2h12q61 0 149 -18l27 -7q9 -5 28 -13t31.5 -13.5t12.5 -7.5l67 -45 q2 0 10.5 -6t8.5 -9l12 -4h10q2 0 13 4.5t12 7.5l92 74q33 15 82.5 30t75.5 15h110q26 0 58 -8q15 0 23 -12.5t11 -37t3.5 -48.5t1 -59t2.5 -58v-72q-1 -4 -6 -9t-7 -5h-32l-66 20h-47q-1 0 -25 -12q-19 -9 -26.5 -21t-13 -32.5t-15.5 -36.5v-147q3 -8 15 -20t20 -13h16 q25 0 72 3t70 3h18q27 0 27 -47v-223q-4 -9 -4 -13l-9 -8q-14 0 -92 -1t-94 -1q-4 -2 -16 -5.5t-16 -6.5t-8.5 -15t-4.5 -32v-41q0 -80 3 -242t3 -242v-75q0 -4 -2.5 -7.5t-4.5 -5t-7.5 -4.5t-7.5 -4h-324l-12 14q0 410 -11 644q0 5 -11 14l-11 8h-252q-12 -16 -12 -22v-314 q0 -25 3.5 -138t4.5 -132v-15q-2 -8 -4 -26t-6.5 -25.5t-16.5 -7.5q-19 0 -131 -2t-133 -2h-10q-68 0 -68 25v256q0 271 -8 381q0 6 -6.5 14t-11.5 8h-62q-3 0 -30.5 1t-30.5 1l-8 8zM580 1022q0 -59 18 -59h252q1 2 7 8.5t11.5 15.5t10 34t4.5 62v52q0 10 -7 34.5t-10 26.5 l-37 51q-1 3 -6.5 6.5t-7.5 3.5q-4 3 -19.5 9t-29 11.5t-14.5 8.5h-80q-22 -7 -38.5 -20.5t-26.5 -34.5t-16 -39.5t-8 -47.5t-2.5 -45t-0.5 -45v-10v-22z" />
<glyph unicode="&#xc1;" horiz-adv-x="1959" d="M72 694v232q0 4 3.5 14.5t6.5 13.5h108q9 9 11 9l14 14l12 188q0 56 28 132t93 133l25 22l33 23l45 22l65 19l53 14h113q71 0 190 -55q17 0 58.5 -42t56.5 -42h31l22 20l43 25l33 28q5 0 37 19q115 47 199 47h145q109 -8 227 -86l21 -14l51 -54q28 -28 46.5 -82.5 t25.5 -97.5v-22q0 -23 -19 -23h-282q-36 0 -58.5 20t-31.5 43.5t-32 43.5t-61 20h-14q-33 0 -92 -25l-12 -12q-41 -54 -49 -82q-5 -16 -5 -31v-143l17 -29q0 -6 10 -6q68 11 102 11q32 0 50 -11l6 -6v-209q0 -3 -3 -14t-3 -14q-7 0 -7 -5q0 -4 -41 -6.5t-84 -12t-47 -30.5 v-235q0 -5 3.5 -48t3.5 -48v-312q0 -5 -19 -9.5t-26 -4.5h-263q-18 0 -34 4l-5 4l-8 14v635q0 7 -7 19t-13 12h-240q-14 0 -35 -43v-47q0 -75 5.5 -226t5.5 -227q0 -10 -3.5 -64.5t-3.5 -64.5q0 -6 -3 -9t-6 -4t-7.5 -2t-5.5 -1h-262q-15 -10 -29 -10q0 1 -3 2.5t-8 2.5 t-11 3t-11 5t-8.5 8t-3.5 11v635q0 6 -3 11t-10 10l-7 6h-113zM569 999q0 -24 4 -28l21 -21h213l22 6q11 4 16.5 6.5t9 5.5t4.5 4.5t2.5 6t2.5 6.5v135q0 41 -4 45q-10 34 -46.5 77.5t-74.5 43.5h-45q-2 0 -18 -5.5t-19 -6.5q-28 -12 -44.5 -29.5t-23 -40.5t-9 -44 t-4.5 -49.5t-7 -47.5v-64zM1513 12v525q0 141 9 407q4 8 20 12h295q8 0 16.5 -9.5t8.5 -20.5q0 -27 4 -224t4 -397q0 -281 -2 -287l-19 -18q-90 -4 -129 -4h-10l-180 4z" />
<glyph unicode="&#xc2;" horiz-adv-x="1972" d="M70 702v238q2 8 6 10q0 5 31 6.5t65.5 9t40.5 27.5l14 160q0 45 21 88q0 2 4.5 27.5t5.5 29.5l35 72q0 4 32 37t31 37l72 45q8 8 16 8q99 37 226 37h45q13 0 59 -12.5t55 -12.5q16 -4 41.5 -24.5t38.5 -20.5q37 -26 72 -67h12q29 0 80 55q3 0 29 14.5t37 22.5l26 14 q15 3 52 14.5t77 18t95 6.5h98q25 0 69.5 -22.5t67.5 -22.5q6 0 39.5 -18t42.5 -27l61 -55q23 -18 34 -33.5t23 -47t23 -52.5v2q33 0 33 -641v-592q0 -3 -2.5 -9.5t-14 -15t-28.5 -8.5h-293q-9 0 -18.5 9t-12.5 9v142q0 121 4.5 363t4.5 362v190q-1 6 -4 30.5t-5 33t-6 27 t-10 33t-14 30.5q-47 47 -66 54q-7 3 -14 3h-72q-16 -6 -20 -8l-39 -21q-31 -17 -45.5 -63.5t-14.5 -99.5v-27q0 -71 25 -96l16 -8h133q0 2 5 2q20 0 20 -189q0 -51 -8 -74l-8 -8l-19 -10h-139l-10 -14q0 -2 -0.5 -29t-1 -61t-0.5 -52q0 -29 1 -120.5t1 -92.5q0 -124 6 -172 v-118q-13 -25 -35 -25h-293q-36 0 -41 18v635q0 7 -7 19t-13 12h-236q-10 -4 -12 -10l-8 -4q-4 -4 -4 -17v-635q0 -13 -21 -18h-313q-19 0 -31 12v641l-22 31h-99q-7 0 -16.5 6.5t-9.5 11.5zM567 985l15 -14q4 -8 20 -8h227q9 0 26 12.5t17 21.5v31q-10 42 -10 113 q-1 62 -44.5 99.5t-110.5 37.5h-35q-18 0 -44.5 -24t-41.5 -54l-13 -47q-6 -24 -6 -33v-135z" />
<glyph unicode="&#xc4;" horiz-adv-x="1536" d="M49 14v23q0 33 9.5 61t28.5 70t32 82l31 106q0 8 5 22t5 23l127 349l30 81q0 4 3.5 14.5t8.5 22.5t5 13l45 125q0 1 6 15.5t6 16.5l80 224q0 30 21 51l24 65q11 27 25 40.5t43 13.5h346q18 0 27 -4t10 -9.5t6 -13t16 -12.5l15 -27l30 -98q12 -34 33.5 -85.5t85.5 -242.5 v2q1 0 10.5 -31.5t22 -66.5t20.5 -41q31 -94 70.5 -199.5t89.5 -233t76 -198.5q2 -7 24.5 -59.5t22.5 -79.5q0 -17 -3.5 -22t-10.5 -6t-11 -5h-20q-55 0 -164 2t-162 2q-32 10 -53 66.5t-36.5 115.5t-33.5 70q-24 4 -88 4h-30q-242 0 -340 -4q-5 0 -19 -3l-14 -3 q-6 0 -37.5 -82.5t-40.5 -122.5l-14 -25q-1 -5 -33 -20h-307q-8 0 -15.5 5t-7.5 9zM401 1704v63q2 0 10.5 22.5t23.5 45.5t32 23q0 1 23 9q6 3 6 5h18l21 2h36q2 -3 23 -10t33 -27q7 -3 17 -13t20 -37t10 -61v-22q0 -2 -6 -13t-6 -20l-9 -4q0 -4 -6.5 -11.5t-16 -17 l-12.5 -12.5l-12 -4q-3 -7 -20 -12.5t-27 -5.5h-20q-88 0 -103 43l-14 14q0 8 -6 19t-11 17.5t-4 6.5zM590 575q0 -11 28 -23.5t54 -12.5h133q73 0 100 24v33q0 20 -35 121l-18 78q-4 7 -8.5 41t-14.5 45q0 34 -28.5 106t-28.5 86l-12 12h-8l-13 -12q0 -3 -4 -11.5t-4 -10.5 l-45 -166q-3 -17 -37.5 -117.5t-42.5 -116.5zM854 1769l51 76q0 1 11.5 8t23.5 13.5t12 5.5h19l18 2h39q1 -2 10 -5.5t18 -6.5t9 -4q5 0 20 -16t30 -49t15 -67v-22q0 -2 -6 -13t-6 -20l-8 -4q0 -7 -10.5 -21t-33.5 -28t-50 -14h-21q-90 0 -102 43l-16 14q0 9 -4.5 19.5 t-9.5 17.5l-5 6v65h-4z" />
<glyph unicode="&#xc5;" horiz-adv-x="1538" d="M49 14v23q0 33 9.5 61t28.5 70t32 82l31 106q0 8 5 22t5 23l127 349l30 81q0 4 3.5 14.5t8.5 22.5t5 13l45 125q0 1 6 15.5t6 16.5l80 224q0 30 21 51l24 65q11 27 25 40.5t43 13.5q-52 52 -68 92t-16 102q0 36 12 80q2 27 28 75t46 48l16 18q1 1 13 7.5t22.5 12 t11.5 5.5l27 12h10q24 0 46 6t48 6q56 0 95.5 -14t58.5 -14l37 -21l24 -20q9 -6 20 -20.5t13 -16.5l12 -16q16 -22 26.5 -59t10.5 -64v-6q0 -128 -78 -203l-32 -23l8 -8q1 -1 6.5 -8.5t7.5 -9.5l15 -27l30 -98q12 -34 33.5 -85.5t85.5 -242.5v2q1 0 10.5 -31.5t22 -66.5 t20.5 -41q31 -94 70.5 -199.5t89.5 -233t76 -198.5q2 -7 24.5 -59.5t22.5 -79.5q0 -17 -3.5 -22t-10.5 -6t-11 -5h-20q-55 0 -164 2t-162 2q-32 10 -53 66.5t-36.5 115.5t-33.5 70q-24 4 -88 4h-30q-242 0 -340 -4q-5 0 -19 -3l-14 -3q-6 0 -37.5 -82.5t-40.5 -122.5 l-14 -25q-1 -5 -33 -20h-307q-8 0 -15.5 5t-7.5 9zM590 575q0 -11 28 -23.5t54 -12.5h133q73 0 100 24v33q0 20 -35 121l-18 78q-4 7 -8.5 41t-14.5 45q0 34 -28.5 106t-28.5 86l-12 12h-8l-13 -12q0 -3 -4 -11.5t-4 -10.5l-45 -166q-3 -17 -37.5 -117.5t-42.5 -116.5z M686 1606q0 -44 34 -65t60 -21h19q20 0 29 3t30 15q37 37 37 72v22q0 18 -8 45t-21 35l-16 17l-14 8q-12 12 -31 12h-25q-10 0 -28 -6l-27 -17q-3 -8 -13 -17.5t-18 -22.5t-8 -35v-45z" />
<glyph unicode="&#xc6;" horiz-adv-x="1677" d="M53 -4v22q0 18 4.5 38t13 44.5t11.5 36.5q3 0 6.5 11.5t3.5 15.5l27 67l31 105q0 22 14 45l125 348q14 30 28 75t19 56l45 125q12 31 12 33l80 223q0 30 21 51l22 66q9 20 14 30t18 22.5t27 12.5l949 19q11 0 41 -10l10 -13l8 -12v-279q-18 -18 -29 -18h-53q-57 0 -168 4 t-166 4h-26q-14 -12 -19 -19t-6.5 -12t-5 -26t-8.5 -43v-10q0 -6 -1 -20t-1 -23q0 -32 13 -51t50 -19h21q20 0 60.5 2t62.5 2q2 0 20 -2t19 -2h124q7 0 20.5 -3.5t23.5 -7.5l10 -3v-275q0 -6 -13 -14t-20 -8h-14q-161 14 -281 14h-61q-33 -20 -33 -104v-144q14 -14 16 -14 q3 -3 109.5 -7.5t169.5 -4.5h157q29 -8 29 -68v-209q0 -11 -6 -19.5t-21 -13.5t-28.5 -8t-41 -4.5t-45.5 -1.5h-55h-612q-8 0 -16 6.5t-8 13.5l-9 21v197q-38 0 -75.5 -0.5t-64.5 -2t-48 -2.5t-33 -1.5t-14 -0.5l-12 -14l-66 -192l-14 -25q0 -2 -8 -7t-16 -9l-9 -4h-309 q-6 0 -11.5 5.5t-7.5 10.5zM592 557q0 -12 14.5 -21.5t30.5 -9.5q4 -1 13 -3.5t16 -4.5t8 -2h74q0 84 1 191t1 110v244q-15 -15 -15 -33l-28 -88l-17 -76q-4 -17 -39 -117.5t-43 -117.5z" />
<glyph unicode="&#xcd;" horiz-adv-x="583" d="M96 20v1364q0 38 25 48h330q38 -2 38 -80v-78q0 -25 -3 -240.5t-3 -238.5v-400q0 -29 -3 -191.5t-3 -191.5l-6 -8q-1 0 -7 -2t-7 -2h-338q-8 0 -15.5 6.5t-7.5 13.5z" />
<glyph unicode="&#xd6;" horiz-adv-x="1703" d="M70 670v96q0 43 16 103t16 92l21 67q0 5 24 45l41 68q0 1 13 14t44.5 48t67.5 77q18 15 53 39t60 40.5t25 18.5l90 41q4 0 18 5.5t14 7.5q15 0 43 10t46 10q40 8 80.5 11.5t104 4.5t83.5 2h14q61 0 181.5 -28t170.5 -78l27 -21l33 -18q9 -4 30.5 -25.5t40.5 -40t21 -18.5 l41 -45q31 -39 31 -41l14 -20l53 -107l19 -53q16 -42 26 -160v-88q0 -135 -12 -203q-20 -106 -86.5 -227t-169.5 -199l-41 -26q-7 -4 -38.5 -20.5t-33.5 -18.5l-71 -29q-95 -38 -209 -45h-219q-130 0 -274 67t-230 169l-27 32q-72 86 -98 174l-14 50q0 12 -9.5 46.5 t-9.5 59.5q0 4 -10 45.5t-10 67.5zM477 651q0 -49 39 -141t78 -115l59 -41q6 -6 14 -9.5t13.5 -4.5t15.5 -2.5t11 -1.5q16 -15 54 -19t52 -12h51q67 0 113 17l78 26q14 0 45 32.5t41 37.5q68 89 84 166q0 8 9 53t9 57v11q-1 14 -3.5 44t-4.5 53.5t-2 24.5q-7 7 -19 48 t-16 51q-8 20 -16 34t-24 30t-23 22.5t-35 29.5q0 22 -88 49t-140 31l-133 -14l-24 -12q-23 0 -63 -28t-70 -58l-54 -80q-33 -83 -42 -116.5t-9 -70.5v-92zM502 1751v64q2 0 10 22.5t23 45t32 22.5q0 2 3 3.5t7.5 3t9 2.5t7.5 2.5t2 2.5h18l21 4h37q2 -3 22.5 -11t32.5 -28 q7 -3 16.5 -13t20 -36.5t10.5 -60.5v-23q0 -2 -6 -12.5t-6 -18.5l-8 -6q0 -4 -6.5 -11.5t-16 -17l-12.5 -12.5l-12 -4q-3 -7 -20.5 -12.5t-27.5 -5.5h-20q-87 0 -102 43l-15 16q0 7 -5.5 17.5t-10.5 17t-4 6.5zM954 1817q0 3 13 21.5t26 35.5l13 18q0 1 12 8.5t23.5 14 t11.5 4.5h18l19 4h38q1 -3 10 -7t18 -7t9 -4q5 0 20.5 -16t30.5 -48.5t15 -66.5v-23q0 -2 -6 -12.5t-6 -18.5l-9 -6q0 -7 -10.5 -21t-33.5 -28t-50 -14h-20q-91 0 -103 43l-16 16q0 8 -5.5 18t-10.5 16l-5 7v66h-2z" />
<glyph unicode="&#xd8;" horiz-adv-x="1699" d="M70 670v96q0 43 16 103t16 92l21 67q0 5 24 45l41 68q0 1 13 14t44.5 48t67.5 77q18 15 53 39t60 40.5t25 18.5l90 41q4 0 18 5.5t14 7.5q15 0 43 10t46 10q40 8 80.5 11.5t104 4.5t83.5 2h14q61 0 181.5 -28t170.5 -78l27 -21l33 -18q9 -4 30.5 -25.5t40.5 -40t21 -18.5 l41 -45q31 -39 31 -41l14 -20l53 -107l19 -53q16 -42 26 -160v-88q0 -135 -12 -203q-20 -106 -86.5 -227t-169.5 -199l-41 -26q-7 -4 -38.5 -20.5t-33.5 -18.5l-71 -29q-95 -38 -209 -45h-219q-28 0 -97.5 13.5t-117.5 29.5l-15 -10q-16 0 -54 -2t-52 -2q-35 0 -35 12 q0 11 11.5 34t13.5 29q-90 55 -158 132l-27 32q-72 86 -98 174l-14 50q0 12 -9.5 46.5t-9.5 59.5q0 4 -10 45.5t-10 67.5zM477 651q0 -49 39 -141t78 -115l391 705q-59 19 -113 22l-133 -14l-24 -12q-23 0 -63 -28t-70 -58l-54 -80q-33 -83 -42 -116.5t-9 -70.5v-92z M719 328q17 -8 47.5 -11t46.5 -12h51q67 0 113 17l78 26q14 0 45 32.5t41 37.5q68 89 84 166q0 8 9 53t9 57v11q-1 14 -3.5 44t-4.5 53.5t-2 24.5q-6 5 -13.5 33.5t-22 65t-36.5 59.5q-3 1 -11 9t-19.5 19t-18.5 17l-33 -57q-6 -8 -27 -42.5t-24 -41.5l-197 -359l-71 -124 q0 -2 -7.5 -15.5t-18.5 -34t-15 -28.5z" />
<glyph unicode="&#xdc;" horiz-adv-x="1402" d="M88 1151v190v13.5v15.5t0.5 14.5t1.5 15t3 13t5.5 12t8 9t11.5 6.5t15 2h316q13 0 24.5 -22.5t11.5 -39.5v-862q0 -10 17 -63l4 -19l33 -67l22 -19q0 -2 8.5 -7t12.5 -5q4 -8 6.5 -12t10 -6.5t15.5 -3.5t28 -4.5t42 -8.5h23q62 0 100.5 18.5t75.5 55.5l24 51q7 17 16 71 t11 60v848q0 10 4.5 22.5t13.5 12.5h199q12 -2 55 -3t72 -5.5t29 -14.5q3 -5 5.5 -105.5t2.5 -162.5q0 -28 -0.5 -86.5t-1 -106.5t-0.5 -51q-5 -560 -25 -604l-14 -33q-29 -63 -55.5 -104t-58.5 -68t-57 -40.5t-71 -34.5l-45 -21q-19 0 -59.5 -13.5t-73.5 -13.5 q-110 -12 -160 -12h-49q-64 0 -94 6l-127 33l-35 12l-65 33l-54 35q-62 62 -71 68l-39 61l-27 59q-24 71 -30.5 112.5t-6.5 102.5v256q0 21 -4 205t-4 205zM336 1751v64q2 0 10.5 22.5t23 45t31.5 22.5q0 2 23 10q6 3 6 4h19l20 4h37q2 -3 22.5 -11t32.5 -28q7 -3 16.5 -13 t20 -36.5t10.5 -60.5v-23q0 -2 -6 -12.5t-6 -18.5l-6 -6q0 -4 -7.5 -11.5t-17 -16.5t-12.5 -13l-12 -4q-3 -7 -20 -12.5t-27 -5.5h-21q-87 0 -102 43l-15 16q0 7 -5.5 17.5t-10.5 17t-4 6.5zM788 1817q0 3 13 21.5t26 35.5l13 18q0 1 12 8.5t23.5 14t11.5 4.5h18l21 4h37 q1 -3 10 -7t17.5 -7t8.5 -4q5 0 20.5 -16t30.5 -48.5t15 -66.5v-23q0 -2 -6 -12.5t-6 -18.5l-9 -6q0 -7 -10.5 -21t-33.5 -28t-50 -14h-20q-91 0 -103 43l-14 16q0 8 -5 18t-10 16l-5 7v66h-5z" />
<glyph unicode="&#xdf;" horiz-adv-x="1165" d="M88 27v868q0 238 117.5 366t320.5 128q169 0 280.5 -98.5t111.5 -233.5q0 -51 -13 -92.5t-76 -167.5q1 -2 2.5 -3.5t5 -4.5t8 -5.5t13 -8.5t19 -13t28 -19t37.5 -26q54 -41 137 -189h-2q33 -48 33 -188q0 -62 -28.5 -126.5t-78 -118.5t-124.5 -88t-160 -34q-67 0 -107 13 t-118 69l-39 35l-6 12q0 2 5 15t5 18l2 2q16 14 61.5 65t83.5 92.5t45 41.5q11 0 17 -2l41 -39h8q35 0 49 17.5t14 37.5q0 9 -16.5 21.5t-45.5 32t-46 34.5q-97 85 -131.5 164.5t-34.5 169.5q0 53 12 97t27 68.5t27 53t12 53.5q0 9 -18 16t-44 7q-56 0 -75 -42.5t-19 -139.5 v-867v-5v-5t-1 -3.5t-3.5 -3t-6.5 -2t-10.5 -2t-16 -1t-21.5 -0.5h-29q-195 0 -231 4q-18 6 -21 27z" />
<glyph unicode="&#xe4;" horiz-adv-x="1292" d="M72 408v131q0 40 14.5 102t40.5 109l59 102q5 10 13.5 20.5t22.5 25t16 17.5l32 25q2 0 68 41q95 45 201 45q54 0 127.5 -26t85.5 -50l102 -102q6 -4 8 -4q4 0 5 1t2.5 6.5t4.5 10.5v19q0 6 3.5 41.5t3.5 42.5q43 24 92 24h12q1 0 6.5 -2t7.5 -2h179q1 0 9 -2t9 -2 l12 -16q11 -11 11 -15v-897q0 -17 -8 -34.5t-21 -18.5h-316q-1 0 -6 2t-6 2l-10 10v123q0 8 -12 8l-15 -12q-75 -94 -145.5 -134t-163.5 -40q-79 0 -147 23q-8 0 -21.5 7.5t-32 19.5t-32.5 18l-25 14q-84 84 -126.5 159.5t-49.5 172.5q0 3 -5 18.5t-5 16.5zM344 1296v62 q2 0 10.5 22.5t23 45t30.5 22.5q0 2 5 4t11 4t10.5 4t3.5 4h19l20 2h37q2 -3 22.5 -9.5t32.5 -26.5q8 -5 17 -15t19.5 -36.5t10.5 -59.5v-23q0 -3 -6 -13.5t-6 -18.5l-8 -7q0 -3 -7 -10t-16 -15.5t-12 -12.5l-12 -7q-3 -7 -20 -11.5t-27 -4.5h-21q-88 0 -102 43l-17 14 q0 7 -5.5 18t-10 18t-2.5 7zM440 504q0 -62 9 -86q2 -2 12.5 -22t11.5 -27l12 -19q0 -19 50.5 -43t78.5 -24h103q2 0 10.5 3.5t9.5 4.5q26 9 69.5 43.5t43.5 54.5l20 96v23q0 51 -16 84l-25 53q0 1 -8 8t-18.5 16.5t-14.5 14.5q-7 5 -23 16.5t-22 15t-19.5 9.5t-27.5 8 t-34 2h-11q-38 0 -60 -7.5t-42 -23t-31 -20.5l-24 -27q-5 -4 -15.5 -17.5t-11.5 -14.5l-18 -54q-1 -1 -5 -9.5t-4 -10.5v-47zM797 1362l51 74q0 1 12 8.5t23.5 14t11.5 5.5h16l21 2h39q1 -3 19 -9.5t18 -8.5q5 0 20 -16t30 -48t15 -65v-23q0 -3 -6 -13.5t-6 -18.5l-8 -7 q0 -6 -11 -20t-34.5 -27.5t-51.5 -13.5h-18q-93 0 -102 43l-17 14q0 9 -5 19.5t-10 17.5l-5 6v66h-2z" />
<glyph unicode="&#xe5;" horiz-adv-x="1292" d="M72 408v131q0 40 14.5 102t40.5 109l59 102q5 10 13.5 20.5t22.5 25t16 17.5l32 25q2 0 68 41q95 45 201 45q54 0 127.5 -26t85.5 -50l102 -102q6 -4 8 -4q4 0 5 1t2.5 6.5t4.5 10.5v19q0 6 3.5 41.5t3.5 42.5q43 24 92 24h12q1 0 6.5 -2t7.5 -2h179q1 0 9 -2t9 -2 l12 -16q11 -11 11 -15v-897q0 -17 -8 -34.5t-21 -18.5h-316q-1 0 -6 2t-6 2l-10 10v123q0 8 -12 8l-15 -12q-75 -94 -145.5 -134t-163.5 -40q-79 0 -147 23q-8 0 -21.5 7.5t-32 19.5t-32.5 18l-25 14q-84 84 -126.5 159.5t-49.5 172.5q0 3 -5 18.5t-5 16.5zM358 1331 q0 30 13 80q2 27 28 75t47 48l15 18q3 1 14 7t21.5 12t11.5 6l29 12h10q23 0 45 6.5t47 6.5q56 0 95.5 -15.5t60.5 -15.5l34 -19l25 -20q11 -6 21 -21.5t12 -17.5l12 -14q17 -24 28 -60.5t11 -62.5v-8q0 -122 -78 -203l-33 -23q-15 -15 -54.5 -33t-86.5 -18h-82 q-11 2 -36 5.5t-37 7.5t-34 14.5t-47 32.5t-57 57q-35 63 -35 143zM440 504q0 -62 9 -86q2 -2 12.5 -22t11.5 -27l12 -19q0 -19 50.5 -43t78.5 -24h103q2 0 10.5 3.5t9.5 4.5q26 9 69.5 43.5t43.5 54.5l20 96v23q0 51 -16 84l-25 53q0 1 -8 8t-18.5 16.5t-14.5 14.5 q-7 5 -23 16.5t-22 15t-19.5 9.5t-27.5 8t-34 2h-11q-38 0 -60 -7.5t-42 -23t-31 -20.5l-24 -27q-5 -4 -15.5 -17.5t-11.5 -14.5l-18 -54q-1 -1 -5 -9.5t-4 -10.5v-47zM547 1311q0 -44 33.5 -66t58.5 -22h20q19 0 29.5 3.5t28.5 16.5q37 35 37 70v22q0 20 -7 46t-20 34 l-18 19l-15 8q-16 12 -30 12h-25q-11 0 -27 -8l-28 -14q-1 -4 -19 -26t-18 -50v-45z" />
<glyph unicode="&#xe6;" horiz-adv-x="2033" d="M72 408v131q0 40 14.5 102t40.5 109l59 102q5 10 13.5 20.5t22.5 25t16 17.5l32 25q2 0 68 41q95 45 201 45q54 0 127.5 -26t85.5 -50l102 -102q6 -4 8 -4q4 0 5 1t2.5 6.5t4.5 10.5v19q0 6 3.5 41.5t3.5 42.5q43 24 92 24h12q1 0 6.5 -2t7.5 -2h179l20 8l19 4 q15 0 53 15.5t59 15.5l5 -1q4 -1 9 -1q23 6 91 6q249 0 372 -137q5 -5 25.5 -29t23.5 -26l13 -23q0 -18 12 -40t30 -47.5t25 -39.5q29 -110 29 -198v-31q-2 -10 -12 -18.5t-27 -8.5h-471q-89 0 -125 6h-18q-5 -1 -15 -2t-14.5 -1.5t-12 -2t-11.5 -2.5t-9 -3t-7.5 -4 t-5.5 -5.5t-4 -7.5t-1 -9v-4q0 -74 45 -108q1 -1 9.5 -7t10.5 -8l33 -26q1 0 6 -2t6 -2q27 -10 72 -10q88 0 158 73q0 3 16.5 7.5t16.5 7.5h331q1 -2 11 -7.5t10 -21.5l-4 -12l-13 -37q-4 -4 -4 -15l-43 -59q-31 -41 -84 -89t-65 -48q-17 -15 -96.5 -38.5t-155.5 -27.5h-156 q-65 0 -84 21l-49 14l-12 -4h-316q-1 0 -6 2t-6 2l-10 10v123q0 8 -12 8l-15 -12q-75 -94 -145.5 -134t-163.5 -40q-79 0 -147 23q-8 0 -21.5 7.5t-32 19.5t-32.5 18l-25 14q-84 84 -126.5 159.5t-49.5 172.5q0 3 -5 18.5t-5 16.5zM440 504q0 -62 9 -86q2 -2 12.5 -22 t11.5 -27l12 -19q0 -19 50.5 -43t78.5 -24h103q2 0 10.5 3.5t9.5 4.5q26 9 69.5 43.5t43.5 54.5l20 96v23q0 51 -16 84l-25 53q0 1 -8 8t-18.5 16.5t-14.5 14.5q-7 5 -23 16.5t-22 15t-19.5 9.5t-27.5 8t-34 2h-11q-38 0 -60 -7.5t-42 -23t-31 -20.5l-24 -27 q-5 -4 -15.5 -17.5t-11.5 -14.5l-18 -54q-1 -1 -5 -9.5t-4 -10.5v-47zM1235 676q0 -20 22 -31q30 -6 136 -6h190q4 0 10 4.5t6 7.5v17q0 31 -10 54t-28.5 37t-34.5 22.5t-37.5 16t-28.5 11.5h-59q-9 -2 -38 -5t-42 -9l-21 -13l-43 -45l-14 -24q-8 -24 -8 -29v-8z" />
<glyph unicode="&#xf6;" horiz-adv-x="1296" d="M70 479q0 187 57 273q72 110 86 118l25 19q3 2 17.5 17t16.5 16l74 41q34 17 78 32q11 2 47 11.5t85.5 12.5t156.5 3q87 0 129 -18l41 -21q2 -1 14.5 -6t23.5 -9.5t13 -4.5l82 -41l45 -37l47 -47l20 -29l12 -14q11 -14 11 -19q33 -42 53.5 -115.5t20.5 -123.5v-21 q0 -119 -36 -206.5t-104 -174.5l-18 -16q-10 -11 -31.5 -32t-27.5 -24q-3 0 -25 -14t-51.5 -30.5t-48.5 -20.5q-82 -23 -123.5 -29t-108.5 -6q-84 0 -144.5 9t-144.5 38l-30 15q-9 0 -29.5 15t-37 29t-17.5 13l-80 78q0 5 -27 41q-71 110 -71 278zM299 1296v62q2 0 10 22.5 t22.5 45t30.5 22.5q0 2 5 4t11 4t11 4t4 4h19l18 2h39q2 -3 22.5 -9.5t32.5 -26.5q8 -5 17 -15t19.5 -36.5t10.5 -59.5v-23q0 -3 -6 -13.5t-6 -18.5l-8 -7q0 -3 -7 -10t-16 -15.5t-12 -12.5l-12 -7q-3 -7 -20 -11.5t-27 -4.5h-21q-88 0 -102 43l-17 14q0 7 -5.5 18t-10 18 t-2.5 7zM444 438q0 -60 60.5 -116t122.5 -56h37l53 6l67 33l13 12l20 33q41 71 41 101v43q0 57 -8 75l-33 66q0 4 -19 25.5t-28 25.5l-31 21q-46 20 -59 20h-53q-20 0 -82 -29t-62 -59l-24 -49q-5 -3 -10 -23t-5 -30v-99zM752 1362l51 74q0 1 11.5 8.5t23.5 14t12 5.5h16 l21 2h39q1 -3 19 -9.5t18 -8.5q5 0 20 -16t30 -48t15 -65v-23q0 -3 -6 -13.5t-6 -18.5l-8 -7q0 -6 -11 -20t-34.5 -27.5t-51.5 -13.5h-18q-93 0 -105 43l-14 14q0 9 -5 19.5t-10 17.5l-5 6v66h-2z" />
<glyph unicode="&#xf8;" horiz-adv-x="1296" d="M70 479q0 187 57 273q72 110 86 118l25 19q3 2 17.5 17t16.5 16l74 41q34 17 78 32q11 2 47 11.5t85.5 12.5t156.5 3q87 0 129 -18l41 -21q2 -1 14.5 -6t23.5 -9.5t13 -4.5l82 -41l45 -37l47 -47l20 -29l12 -14q11 -14 11 -19q33 -42 53.5 -115.5t20.5 -123.5v-21 q0 -119 -36 -206.5t-104 -174.5l-18 -16q-10 -11 -31.5 -32t-27.5 -24q-3 0 -25 -14t-51.5 -30.5t-48.5 -20.5q-82 -23 -123.5 -29t-108.5 -6q-85 0 -136.5 6.5t-125.5 30.5q-8 0 -46.5 -6t-53.5 -6q-31 0 -31 10q0 6 2.5 11t5.5 9.5t10 14.5t13 20l-17 10l-24 19l-80 78 q0 5 -27 41q-71 110 -71 278zM444 438q0 -11 11 -41.5t22 -48.5l236 369q-20 10 -33 10h-53q-20 0 -82 -29t-62 -59l-24 -49q-5 -3 -10 -23t-5 -30v-99zM563 283q-1 2 12.5 -2.5t30.5 -9.5t21 -5h37l53 6l67 33l13 12l20 33q41 71 41 101v43q0 57 -8 75l-33 66q0 3 -5 9.5 t-7 6.5t-2 2q-19 -19 -29 -39l-156 -247z" />
<glyph unicode="&#xfc;" horiz-adv-x="1228" d="M86 406v555q0 3 7.5 8.5t10.5 5.5h101q5 0 64 5t65 5q2 0 23.5 -5t23.5 -5h49q14 0 31 -25v-544q0 -14 18 -68l13 -23l36 -39q1 -2 12 -7t28 -9t30 -4q75 0 119.5 45.5t44.5 112.5v530q0 23 20 32t70 9h270l21 -14v-545q0 -2 -7 -58t-11.5 -79.5t-17.5 -66.5t-32 -72 q-16 -35 -41 -58t-51 -38.5t-33 -22.5q-13 0 -30.5 -13.5t-22.5 -13.5l-10 -4q-121 -47 -201 -47h-141q-21 4 -59.5 10t-61 10.5t-55.5 12t-56 18.5t-50 27t-50 39.5t-43 54.5q-39 58 -39 63l-27 80l-4 23q-5 23 -9.5 56.5t-4.5 58.5zM250 1296v62q3 0 11.5 22.5t23 45 t30.5 22.5q0 2 5 4t11 4t11 4t4 4h16l21 2h39q2 -3 22.5 -9.5t32.5 -26.5q47 -35 47 -111v-23q0 -3 -6 -13.5t-6 -18.5l-8 -7q0 -3 -7 -10t-16 -15.5t-12 -12.5l-12 -7q-4 -7 -21.5 -11.5t-27.5 -4.5h-19q-88 0 -102 43l-17 14q0 7 -5.5 18t-10.5 18t-4 7zM705 1362l49 74 q0 1 12 8.5t24.5 14t12.5 5.5h16l21 2h37q2 -3 11.5 -6.5t18 -6.5t8.5 -5q5 0 20 -16t30.5 -48t15.5 -65v-23q0 -3 -7 -13.5t-7 -18.5l-6 -7q0 -6 -11 -20t-34.5 -27.5t-51.5 -13.5h-20q-91 0 -103 43l-14 14q0 9 -5 19.5t-10 17.5l-5 6v66h-2z" />
<glyph unicode="&#x152;" horiz-adv-x="2035" d="M72 662v100q0 27 16 87t16 103l23 70q0 2 5 11t10.5 19.5t7.5 14.5l43 68q1 1 4 5.5t5.5 8.5t2.5 6q3 8 22 28t46.5 47t41.5 44q20 17 72 49.5t70 50.5l90 37q11 0 50.5 16.5t70.5 16.5q29 7 65 11t62 5t70 2t67 2h18q15 0 30.5 -2t35.5 -5.5t28 -4.5l89 -22v-11 q29 0 245 6h512q3 0 20 -3t19 -3l13 -12q8 -12 8 -16v-275q-20 -20 -27 -20h-55q-57 0 -168 3t-166 3h-27q-19 -3 -23.5 -13.5t-5.5 -35.5t-10 -47v-50q0 -36 12 -55.5t50 -19.5h22q19 0 58 2t61 2h2q2 0 20 -2t19 -2h125q14 0 33.5 -6.5t19.5 -10.5v-272q0 -5 -11.5 -13 t-20.5 -8h-13q-14 1 -120.5 7t-163.5 6h-60q-33 -12 -33 -105v-143q3 -2 6 -5.5t5.5 -6t3.5 -2.5q3 -3 111 -8t171 -5h158q27 -9 27 -69v-207q0 -13 -8 -29q-3 -8 -70 -13t-121 -5h-610l-2 2v-6q-124 -27 -166 -27h-215q-76 0 -133 20q-153 47 -224.5 87t-150.5 128l-25 33 q-72 91 -98 172l-14 51q0 12 -8.5 48t-8.5 57v6q0 4 -12 41.5t-12 63.5zM481 645q0 -57 39.5 -143.5t77.5 -112.5l61 -41q17 -17 79 -27t79 -20h53q63 0 113 14l78 25q1 0 21 16.5t28 24.5q1 77 2.5 176t2.5 164t1 82v225l-10 10q0 22 -82.5 47.5t-149.5 32.5l-133 -16 l-24 -12q-58 -18 -111 -68l-22 -16l-49 -80l-19 -41q-2 0 -6 -8.5t-4 -12.5q-18 -65 -21.5 -90t-3.5 -69v-13v-47z" />
<glyph unicode="&#x153;" horiz-adv-x="1878" d="M70 479q0 187 57 273q72 110 86 118l25 19q3 2 17.5 17t16.5 16l74 41q34 17 78 32q11 2 47 11.5t85.5 12.5t156.5 3q87 0 129 -18l41 -21q2 -1 14.5 -6t23.5 -9.5t13 -4.5l82 -41l18 -17l15 15q1 0 5.5 3.5t11 9t9.5 7.5l78 41q32 16 43 16h2q16 0 55 15.5t58 15.5 q1 0 6 -1t8 -1q22 6 90 6q249 0 375 -137q7 -7 26.5 -30.5t20.5 -24.5l12 -23q0 -24 32.5 -72t35.5 -55q31 -103 31 -198v-31q-2 -10 -12.5 -18.5t-28.5 -8.5h-471q-89 0 -125 6h-19q-10 -2 -27 -4.5t-23.5 -4t-15 -5.5t-11.5 -11.5t-3 -19.5q0 -70 45 -104q18 -9 21 -15 l33 -26q1 0 6 -2t6 -2q29 -10 74 -10q87 0 157 73q0 3 16.5 7.5t16.5 7.5h330q1 -1 10.5 -7t9.5 -22l-2 -12l-12 -37q-6 -3 -6 -15l-43 -59q-30 -41 -83 -89t-67 -48q-17 -15 -95 -38.5t-154 -27.5h-156q-65 0 -86 21l-80 24q-2 0 -7 2.5t-5 3.5l-41 27l-37 21q-15 5 -31 18 q-4 -6 -9.5 -11t-10.5 -9l-4 -3q-3 0 -25 -14t-51.5 -30.5t-48.5 -20.5q-82 -23 -123.5 -29t-108.5 -6q-84 0 -144.5 9t-144.5 38l-30 15q-9 0 -29.5 15t-37 29t-17.5 13l-80 78q0 5 -27 41q-71 110 -71 278zM444 438q0 -60 60.5 -116t122.5 -56h37l53 6l67 33l13 12l20 33 q41 71 41 101v43q0 57 -8 75l-33 66q0 4 -19 25.5t-28 25.5l-31 21q-46 20 -59 20h-53q-20 0 -82 -29t-62 -59l-24 -49q-5 -3 -10 -23t-5 -30v-99zM1219 676q0 -20 22 -31q30 -6 135 -6h191q3 0 8.5 4.5t5.5 7.5v17q0 38 -17.5 65.5t-35.5 38t-48.5 22.5t-35.5 15h-60 q-9 -2 -38.5 -5t-42.5 -9l-19 -13l-43 -45l-16 -24q-6 -18 -6 -29v-8z" />
<glyph unicode="&#x2000;" horiz-adv-x="961" />
<glyph unicode="&#x2001;" horiz-adv-x="1923" />
<glyph unicode="&#x2002;" horiz-adv-x="961" />
<glyph unicode="&#x2003;" horiz-adv-x="1923" />
<glyph unicode="&#x2004;" horiz-adv-x="641" />
<glyph unicode="&#x2005;" horiz-adv-x="480" />
<glyph unicode="&#x2006;" horiz-adv-x="320" />
<glyph unicode="&#x2007;" horiz-adv-x="320" />
<glyph unicode="&#x2008;" horiz-adv-x="240" />
<glyph unicode="&#x2009;" horiz-adv-x="384" />
<glyph unicode="&#x200a;" horiz-adv-x="106" />
<glyph unicode="&#x2010;" d="M96 338v270q0 7 4.5 20t8.5 13q3 0 16.5 2t15.5 2q13 0 22 -1t12 -2t6.5 -3t4.5 -2q0 2 4 7t5 5h10q11 0 40.5 -2.5t33.5 -5.5h14q10 10 39 10q6 0 19.5 -1t19.5 -1q14 0 20 4l98 -4q5 0 14 -10t13 -10h6q7 0 21 8t26 8q5 0 22 -8t23 -8h27l10 -4h23q12 0 18 4q1 0 8 -18 t7 -21v-242q0 -4 -3.5 -8t-11 -9.5t-10.5 -8.5h-344q-44 -7 -178 -7q-49 0 -64 23z" />
<glyph unicode="&#x2011;" d="M96 338v270q0 7 4.5 20t8.5 13q3 0 16.5 2t15.5 2q13 0 22 -1t12 -2t6.5 -3t4.5 -2q0 2 4 7t5 5h10q11 0 40.5 -2.5t33.5 -5.5h14q10 10 39 10q6 0 19.5 -1t19.5 -1q14 0 20 4l98 -4q5 0 14 -10t13 -10h6q7 0 21 8t26 8q5 0 22 -8t23 -8h27l10 -4h23q12 0 18 4q1 0 8 -18 t7 -21v-242q0 -4 -3.5 -8t-11 -9.5t-10.5 -8.5h-344q-44 -7 -178 -7q-49 0 -64 23z" />
<glyph unicode="&#x2012;" d="M96 338v270q0 7 4.5 20t8.5 13q3 0 16.5 2t15.5 2q13 0 22 -1t12 -2t6.5 -3t4.5 -2q0 2 4 7t5 5h10q11 0 40.5 -2.5t33.5 -5.5h14q10 10 39 10q6 0 19.5 -1t19.5 -1q14 0 20 4l98 -4q5 0 14 -10t13 -10h6q7 0 21 8t26 8q5 0 22 -8t23 -8h27l10 -4h23q12 0 18 4q1 0 8 -18 t7 -21v-242q0 -4 -3.5 -8t-11 -9.5t-10.5 -8.5h-344q-44 -7 -178 -7q-49 0 -64 23z" />
<glyph unicode="&#x2013;" d="M18 338v270q0 7 6 20t11 13t22 2t19 2q17 0 28 -1t15 -2t7 -3t5 -2q0 1 5.5 6.5t6.5 5.5h13q13 0 50 -2.5t42 -5.5h18q6 8 27 8q13 0 34 -1t29 -1q24 0 33 6l123 -4q6 0 18 -10t15 -10h6q11 0 28 8t33 8q5 0 25.5 -8t30.5 -8h34l13 -4h28q15 0 21 4q18 -35 18 -39v-242 q0 -3 -4.5 -7t-12.5 -9t-13 -10h-428q-58 -7 -224 -7q-14 0 -25.5 1t-19.5 3t-13.5 3.5t-10 4.5t-6.5 4t-5 4z" />
<glyph unicode="&#x2014;" horiz-adv-x="1138" d="M88 338v270q0 8 8 20.5t15 12.5q5 0 26 2t23 2q43 0 67 -8q0 2 7 7t10 5h16q17 0 63.5 -2.5t53.5 -5.5h22q7 10 50 10q12 0 37.5 -1t35.5 -1q25 0 29 4l154 -4q7 0 21 -10t17 -10h11q14 0 35 8t40 8q3 0 26.5 -8t43.5 -8h43l14 -4h39q17 0 25 4q4 0 13 -18t9 -21v-242 q0 -2 -1.5 -4t-5 -4.5t-7 -4.5t-10 -6t-12.5 -7h-537q-72 -7 -279 -7q-15 0 -27.5 1t-21.5 2t-17 3t-12.5 3.5t-9 4t-6.5 3.5t-5 4z" />
<glyph unicode="&#x2018;" horiz-adv-x="567" d="M35 1503v13q0 4 20 9t33 5h203q4 -8 14 -8q10 4 12 8h11q8 -8 16 -8l18 -31q0 -17 15 -39q23 -73 60.5 -210.5t43.5 -158.5q-1 1 8 -23.5t18 -52t9 -32.5v-31l-10 -6q0 -3 -5 -5.5t-7 -2.5h-189q-14 0 -27 18.5t-28 26.5q-34 105 -90 220t-90.5 189.5t-34.5 118.5z" />
<glyph unicode="&#x2019;" horiz-adv-x="583" d="M49 934v8q0 19 9.5 49.5t27 73.5t23.5 59q0 6 5 28.5t7 25.5l39 141q0 55 53 156l18 32q19 19 19 23h41q4 0 10.5 -5t9.5 -5l4 2h-2q126 10 181 10h34q8 -4 14.5 -19t6.5 -20q-10 -41 -35.5 -111t-40.5 -75l-37 -101l-74 -172q-6 -23 -20.5 -53t-28.5 -50t-18 -20h-223 q-3 1 -7 2t-6.5 1.5t-5 2t-3.5 6t-1 11.5z" />
<glyph unicode="&#x201c;" horiz-adv-x="1007" d="M59 1501v6q0 1 2.5 3.5t4.5 2.5l32 17q14 0 95 1t96 1h6q9 0 16.5 -9.5t10.5 -9.5q2 0 9.5 7t8.5 10h20l21 -29q1 0 8 -22.5t18 -64.5t19 -85q3 -19 25 -68.5t22 -74.5l21 -78q0 -15 26.5 -77t26.5 -91v-10q-43 -23 -139 -23q-59 0 -89 7.5t-51 35.5l-20 37 q-13 51 -21 62l-77 202q-4 10 -12.5 25.5t-13.5 27t-5 21.5l-47 123q-13 35 -13 53zM451 1487v35l8 8h10q6 0 17 -4t16 -4h2q2 0 7 2.5t5 5.5h80q1 0 13 -4t14 -4q13 0 35 6t47 6q12 0 22.5 -3.5t18 -7.5t14.5 -14.5t10.5 -16.5t8 -21.5t6 -21t5.5 -24t5 -22.5 q0 -12 23.5 -93.5t33.5 -90.5l66 -199q22 -51 22 -76v-6q-5 -3 -15.5 -12.5t-25.5 -14t-45 -4.5q-16 0 -73 5.5t-87 5.5l-20 20l-29 78q-3 1 -6.5 9.5t-6 18.5t-3.5 11l-33 69q-14 49 -52 134.5t-44 111.5l-27 64z" />
<glyph unicode="&#x201d;" horiz-adv-x="1011" d="M66 930v10q0 19 6 25l39 120q0 1 4 13t4 14l18 59q0 1 6.5 23t6.5 25l53 159q7 34 15.5 60.5t15.5 40t13 22t9.5 11.5t3.5 4v4l8 -2q8 -2 13 -2q10 0 24 13t23 13t21 -13t22 -13q9 0 17 8t15 8l3 -2l6 -10q2 0 7 -2t7 -2q13 0 28.5 13t26.5 13q9 0 27 -12h65 q0 -52 -22 -100q-18 -42 -68 -158t-86.5 -197t-74.5 -155q-14 0 -56 -6.5t-129 -6.5q-71 0 -71 23zM479 928v20q57 193 72 228q5 58 24 104l21 49q0 3 8 35l19 78q20 63 34 84l11 6q6 0 13.5 -4t12.5 -4t10.5 4t10.5 4q0 -1 8.5 -4t20.5 -5.5t18 -2.5q7 10 37 10h18 q49 0 76 -4q1 0 9 -5t16 -5q6 0 16 2l10 2q6 0 6 -9v-45q0 -11 -6 -20q-23 -62 -158 -385l-51 -127q-19 -19 -20 -19h-199q-27 3 -33 5z" />
<glyph unicode="&#x2022;" horiz-adv-x="2086" d="M772 668v129q17 35 31 53q0 14 29.5 50.5t29.5 39.5q0 15 49.5 34t49.5 23h32l41 2h68q41 -16 59 -24q3 0 12 -4t22 -15.5t17 -27.5q32 -17 63.5 -76t31.5 -137v-45q0 -1 1 -2.5t1 -3.5q0 -4 -15.5 -22.5t-15.5 -35.5l-10 -10q0 -6 -14 -21t-32.5 -33t-23.5 -24l-22 -12 q-14 -12 -45.5 -23.5t-51.5 -11.5h-39q-156 0 -200 88l-31 25q0 18 -9.5 37.5t-18.5 32t-9 14.5z" />
<glyph unicode="&#x202f;" horiz-adv-x="384" />
<glyph unicode="&#x2039;" horiz-adv-x="903" d="M4 549v4q0 4 7.5 15t8.5 14h5q15 10 47 29t56 35.5t48 35.5l80 45q320 203 360 227h2q8 0 76 54q79 31 99 32q1 -4 2.5 -5.5t3 -1t3 -1t1.5 -6.5h4l-2 -217q0 -15 -15.5 -26t-40.5 -20.5t-28 -10.5l-19 -17q-16 -8 -28 -8l-70 -45q-21 -13 -46.5 -29.5t-38.5 -25 t-27.5 -17t-24.5 -11.5t-18 -3l-56 -29q-2 0 -7.5 -4.5t-6.5 -9.5l4 14q-9 -14 -12 -22l2 2q0 -2 4 -2l2 -15l4 5l12 -11l4 -8h7q50 -24 90 -61h8q0 -2 32 -18.5t33 -20.5h4q8 0 21.5 -5.5t31 -16t31 -19.5t33.5 -22.5t27 -18.5q6 -3 15 -4t11 -4l43 -31q9 0 9 -4 q-2 -2 -2 -4h6l8 -21v-246q0 -2 -4.5 -9t-7.5 -7h-2q-13 0 -27 14q-26 10 -55.5 27.5t-51 32.5t-55.5 40t-53 38q0 3 -14.5 12.5t-18.5 9.5l-219 150h-6q-27 20 -87.5 55t-72.5 47l-6 6h-4l-98 70q-6 6 -13.5 20t-7.5 23z" />
<glyph unicode="&#x203a;" horiz-adv-x="905" d="M96 20v246l8 21h9l-2 4q0 4 8 4l41 31q4 3 13 4t15 4q6 4 25.5 17.5t33 22.5t30.5 20t30 16.5t21 5.5h8q3 0 28.5 19.5t38.5 19.5h3q2 1 28 21t43 30t25 10h4l2 8l14 11l2 -5l2 5l2 10q0 2 2 2q5 -2 7 -2q-1 1 -15 22l4 -14q-1 5 -6.5 9.5t-7.5 4.5h-4q-2 1 -24.5 14 t-24.5 15q-5 0 -26 9t-27 13q-1 2 -21 13.5t-45.5 26.5t-36.5 24l-76 45q-18 4 -22 8l-23 17q-3 2 -26 10.5t-39.5 20t-16.5 26.5l-4 217h8q0 5 1 6.5t2.5 1t3 1t2.5 5.5q22 -1 96 -32q3 -2 34.5 -28t39.5 -26q121 -72 366 -227l80 -45l33 -31q48 -25 119 -69h4 q13 -27 14 -29v-4q0 -10 -6 -24t-12 -19l-99 -70h-6l-4 -6q-15 -14 -75 -48.5t-85 -53.5h-6l-223 -150q-20 -14 -73.5 -54t-93 -65t-79.5 -41q-14 -14 -24 -14h-2q-4 0 -9.5 7t-5.5 9z" />
<glyph unicode="&#x205f;" horiz-adv-x="480" />
<glyph unicode="&#x20ac;" horiz-adv-x="1040" d="M49 451v135q0 5 15.5 21t15.5 20h57v133q-55 0 -71.5 10t-16.5 43v137q0 4 15.5 20t15.5 17h80q0 26 8 47.5t8 28.5l27 57q0 1 6 16.5t6 16.5q22 59 67.5 115.5t96.5 87.5l20 14q7 3 22.5 13t28 18t13.5 8q0 7 61 26t78 19q39 10 113 10q8 0 36 -2t31 -2q13 0 65.5 -8.5 t72.5 -17.5l-136 -293q-7 1 -15.5 4t-16.5 4.5t-21 1.5q-70 0 -111.5 -45.5t-68.5 -118.5h8q6 0 36 4t36 4q4 0 33 -4t32 -4v-4q9 0 11 -1.5t2 -10.5h6v-174l-8 -25q-16 -20 -82 -20h-103v-43q0 -7 1 -37.5t1 -44.5h35q6 0 36 1t36 1q4 0 33 -1t32 -1v-9q9 0 11 -1.5 t2 -10.5h6v-172q-2 -16 -10.5 -26t-24.5 -13.5t-26.5 -4.5t-28.5 -1h-58l8 -22l7 -13l57 -59q5 0 25 -11.5t22 -11.5h86l23 11l178 -275q-56 -20 -101 -28q-12 0 -62 -10.5t-62 -10.5h-123q-5 0 -13 3t-10 3l-86 21q-10 0 -20 10l-90 45l-33 22l-86 87l-21 26 q-58 100 -96 217q-91 6 -103 12q-17 16 -18 46z" />
<glyph unicode="&#x25fc;" horiz-adv-x="993" d="M0 0v993h993v-993h-993z" />
<glyph unicode="&#xfb01;" horiz-adv-x="1302" d="M59 715v241l9 7l59 8h33q13 0 19.5 4t9 17.5t2.5 29.5t2 50.5t6 68.5q2 6 4.5 33.5t9 55.5t18.5 48l39 74q54 71 112.5 105.5t152.5 64.5l49 12q40 8 41 8h163q88 0 160 -33l51 -20l27 -14q57 -22 113 -91l24 -32q18 -23 35 -82.5t21 -69.5v-39l-11 -10q-1 -4 -10.5 -7 t-13.5 -3h-45q-205 0 -273 10q-9 4 -23 36.5t-39.5 59.5t-66.5 27h-80q-36 -16 -58.5 -39.5t-32 -54.5t-12.5 -55.5t-3 -61.5q0 -31 4 -54.5t4 -31.5l14 -14h91q79 0 79 -37v-82q0 -146 -26 -150q-134 0 -158 -24l-1 -19q-1 -19 -2 -46.5t-2 -57t-2 -56.5t-1 -40 q0 -153 5 -250t5 -123q0 -2 -1 -25t-1 -28l-10 -21q-23 0 -146.5 -2t-144.5 -2h-14q-27 0 -40 9t-14 9v412q0 10 4.5 90t4.5 88v17q0 13 -4.5 27.5t-9 23t-5.5 8.5h-98q-2 0 -7.5 7t-6.5 11zM850 25v270q0 7 2 62t2 61v522l12 16h164q2 0 21 3.5t22 3.5h105q14 0 21.5 -11.5 t8.5 -11.5v-512q0 -25 4.5 -161.5t6.5 -162.5v-32q-1 -6 -3.5 -19t-5 -23.5t-2.5 -11.5l-12 -14h-334q-5 0 -8.5 8t-3.5 13z" />
<glyph unicode="&#xfb02;" horiz-adv-x="1310" d="M59 694v246q5 16 29 16h10q62 0 86.5 13t24.5 59v74q0 13 5 57t9 60v10q0 3 0.5 9t7 25.5t17.5 40.5t35 53.5t57 65.5l20 14q20 14 55 33t64 27l72 19q14 0 45.5 7t48.5 7h115q19 0 54.5 -7t57.5 -7q22 -4 74 -28t76 -24l35 -20q2 -2 9 -7t12 -9t5 -5l52 -53l14 -18 q1 -6 15.5 -35l15.5 -31q4 -11 8 -28t8 -29q0 -19 5.5 -55.5t15.5 -45.5q4 -40 4 -100v-1010q-2 -7 -13.5 -12.5t-27.5 -5.5h-281q-47 0 -47 45v14q0 4 5 55t5 56v276q0 17 1 174.5t1 172.5v26q0 61 -1 119.5t-3 98.5t-4 71t-3 48t-1 18l-12 26q-19 33 -48 49.5t-73 24.5 h-14q-68 0 -109 -41l-25 -33q-13 -11 -21.5 -65.5t-8.5 -102.5v-22t2.5 -20.5t7.5 -21t15.5 -12.5t25.5 -6h70q22 0 33 -0.5t21 -6.5t13 -11t6.5 -22t4.5 -32t3.5 -48.5t6.5 -63.5v-27q-11 -42 -19 -49.5t-47 -7.5q-6 0 -15.5 0.5t-16 1t-7.5 0.5q-12 -3 -31 -5.5t-27 -4.5 t-17 -8t-13 -17q4 -106 4 -340q10 -153 10 -274q0 -31 -32 -35h-316q-28 2 -28 37q0 90 7 273t7 274v65q0 6 -9 18.5t-12 12.5h-116z" />
</font>
</defs>
</svg>
